<svg viewBox="0 0 24 24" xmlns="http://www.w3.org/2000/svg" xmlns:xlink="http://www.w3.org/1999/xlink" width="24.000000" height="24.000000" fill="none">
	<rect id="arrow-left" width="24.000000" height="24.000000" x="0.000000" y="0.000000" />
	<path id="color" d="M2.29289 12.7071C2.10536 12.5196 2 12.2652 2 12C2 11.7348 2.10536 11.4804 2.29289 11.2929L9.2929 4.29289C9.68342 3.90237 10.3166 3.90237 10.7071 4.29289C11.0976 4.68342 11.0976 5.31658 10.7071 5.70711L5.41421 11L21 11C21.5523 11 22 11.4477 22 12C22 12.5523 21.5523 13 21 13L5.41421 13L10.7071 18.2929C11.0976 18.6834 11.0976 19.3166 10.7071 19.7071C10.3166 20.0976 9.68342 20.0976 9.29289 19.7071L2.29289 12.7071Z" fill="rgb(33,37,41)" fill-rule="evenodd" />
</svg>
