<svg viewBox="0 0 20 18" xmlns="http://www.w3.org/2000/svg" xmlns:xlink="http://www.w3.org/1999/xlink" width="20.000000" height="18.000000" fill="none" customFrame="#000000">
	<path id="Subtract" d="M4 0C1.79086 0 0 1.79086 0 4L0 14C0 16.2091 1.79086 18 4 18L16 18C18.2091 18 20 16.2091 20 14L20 7.5C20 5.29086 18.2091 3.5 16 3.5L11.9199 3.5C11.6279 3.5 11.3506 3.37244 11.1606 3.15079L9.3579 1.04763C8.78795 0.382688 7.9559 0 7.08013 0L4 0ZM2 10.4139L2 13.9997C2 15.1043 2.89543 15.9997 4 15.9997L15.5858 15.9997L6.70711 7.12102C6.31658 6.73049 5.68342 6.73049 5.29289 7.12102L2 10.4139ZM17.6062 15.1916C17.8536 14.8588 18 14.4463 18 13.9997L18 12.4139L15.2071 9.62102C14.8166 9.23049 14.1834 9.23049 13.7929 9.62102L12.9142 10.4997L17.6062 15.1916Z" fill="rgb(33,37,41)" fill-rule="evenodd" />
</svg>
