<svg viewBox="0 0 57.0029 55.0234" xmlns="http://www.w3.org/2000/svg" xmlns:xlink="http://www.w3.org/1999/xlink" width="57.002926" height="55.023434" fill="none" customFrame="#000000">
	<path id="Union" d="M20.3027 18.7002L36.7031 18.7002L36.7031 7.29981L20.3027 7.29981L20.3027 18.7002ZM20.3027 6.7002L20.3027 0L19.7031 0L19.7031 6.7002L8.12647 6.7002L8.0957 6.66943L8.06494 6.7002L7.91797 6.7002L7.91797 6.84717L7.91681 6.84833L7.70312 6.84833L7.70312 7.06201L7.67188 7.09326L7.70312 7.12451L7.70313 18.7002L0 18.7002L0 19.2998L7.70313 19.2998L7.70313 35.7002L0.0400391 35.7002L0.0400391 36.2998L7.70313 36.2998L7.70313 47.8762L7.67773 47.9016L7.70313 47.9271L7.70313 48.1335L7.82812 48.1335L7.82812 48.2998L8.07501 48.2998L8.10156 48.3264L8.12817 48.2998L19.7031 48.2998L19.7031 55.001L20.3027 55.001L20.3027 48.2998L36.7031 48.2998L36.7031 55.0234L37.3027 55.0234L37.3027 48.2998L48.8784 48.2998L48.9922 48.4136L49.2919 48.1139L49.3027 48.1139L49.3027 48.103L49.416 47.9897L49.3027 47.8765L49.3027 36.2998L56.9629 36.2998L56.9629 35.7002L49.3027 35.7002L49.3027 19.2998L57.0029 19.2998L57.0029 18.7002L49.3027 18.7002L49.3027 7.12524L49.3564 7.07153L49.3027 7.01795L49.3027 6.94202L49.2266 6.94202L49.1914 6.90687L49.1914 6.7002L48.9843 6.7002L48.9316 6.64771L48.8792 6.7002L37.3027 6.7002L37.3027 0L36.7031 0L36.7031 6.7002L20.3027 6.7002ZM37.3027 7.29981L37.3027 18.2766L48.2795 7.2998L37.3027 7.29981ZM48.7031 18.7002L48.7031 7.72485L37.7278 18.7002L48.7031 18.7002ZM36.2795 19.2998L28.5028 27.0765L20.7261 19.2998L36.2795 19.2998ZM37.3027 19.2998L48.7031 19.2998L48.7031 35.7002L37.3027 35.7002L37.3027 19.2998ZM36.2788 35.7002L28.5033 27.9247L20.7278 35.7002L36.2788 35.7002ZM20.3027 36.2998L36.7031 36.2998L36.7031 47.7002L20.3027 47.7002L20.3027 36.2998ZM19.7031 35.7002L19.7031 19.2998L8.30274 19.2998L8.30274 35.7002L19.7031 35.7002ZM8.30274 36.2998L19.2795 36.2998L8.30274 47.2766L8.30274 36.2998ZM19.7031 47.7002L19.7031 36.7249L8.72779 47.7002L19.7031 47.7002ZM37.3027 47.7002L48.2788 47.7002L37.3027 36.7241L37.3027 47.7002ZM37.7261 36.2998L48.7031 36.2998L48.7031 47.2769L37.7261 36.2998ZM8.30274 18.7002L8.30273 7.72412L19.2788 18.7002L8.30274 18.7002ZM8.72608 7.29981L19.7031 18.2769L19.7031 7.29981L8.72608 7.29981ZM28.079 27.5004L20.3027 19.7241L20.3027 35.2766L28.079 27.5004ZM28.9271 27.5009L36.7031 19.7249L36.7031 35.2769L28.9271 27.5009Z" fill="rgb(42,131,242)" fill-rule="evenodd" />
</svg>
