<svg width="24" height="24" viewBox="0 0 24 24" fill="none" xmlns="http://www.w3.org/2000/svg">
<path fill-rule="evenodd" clip-rule="evenodd" d="M6.70711 2.29289C6.31658 1.90237 5.68342 1.90237 5.29289 2.29289L2.29289 5.29289C1.90237 5.68342 1.90237 6.31658 2.29289 6.70711C2.68342 7.09763 3.31658 7.09763 3.70711 6.70711L6.70711 3.70711C7.09763 3.31658 7.09763 2.68342 6.70711 2.29289ZM12 6C8.13401 6 5 9.13401 5 13C5 16.866 8.13401 20 12 20C15.866 20 19 16.866 19 13C19 9.13401 15.866 6 12 6ZM3 13C3 8.02944 7.02944 4 12 4C16.9706 4 21 8.02944 21 13C21 17.9706 16.9706 22 12 22C7.02944 22 3 17.9706 3 13ZM18.7071 2.29289C18.3166 1.90237 17.6834 1.90237 17.2929 2.29289C16.9024 2.68342 16.9024 3.31658 17.2929 3.70711L20.2929 6.70711C20.6834 7.09763 21.3166 7.09763 21.7071 6.70711C22.0976 6.31658 22.0976 5.68342 21.7071 5.29289L18.7071 2.29289ZM12 14C11.4477 14 11 13.5523 11 13L11 9C11 8.44771 11.4477 8 12 8C12.5523 8 13 8.44771 13 9L13 13C13 13.5523 12.5523 14 12 14ZM12 16C11.4477 16 11 16.4477 11 17C11 17.5523 11.4477 18 12 18C12.5523 18 13 17.5523 13 17C13 16.4477 12.5523 16 12 16Z" fill="#212529"/>
</svg>
