<svg width="24" height="24" viewBox="0 0 24 24" fill="none" xmlns="http://www.w3.org/2000/svg">
<path fill-rule="evenodd" clip-rule="evenodd" d="M5.29289 2.29289C5.68342 1.90237 6.31658 1.90237 6.70711 2.29289C7.09763 2.68342 7.09763 3.31658 6.70711 3.70711L3.70711 6.70711C3.31658 7.09763 2.68342 7.09763 2.29289 6.70711C1.90237 6.31658 1.90237 5.68342 2.29289 5.29289L5.29289 2.29289ZM12 22C16.9706 22 21 17.9706 21 13C21 8.02944 16.9706 4 12 4C7.02944 4 3 8.02944 3 13C3 17.9706 7.02944 22 12 22ZM17.2929 2.29289C17.6834 1.90237 18.3166 1.90237 18.7071 2.29289L21.7071 5.29289C22.0976 5.68342 22.0976 6.31658 21.7071 6.70711C21.3166 7.09763 20.6834 7.09763 20.2929 6.70711L17.2929 3.70711C16.9024 3.31658 16.9024 2.68342 17.2929 2.29289ZM16 14L13 14L13 17C13 17.5523 12.5523 18 12 18C11.4477 18 11 17.5523 11 17L11 14L8 14C7.44772 14 7 13.5523 7 13C7 12.4477 7.44771 12 8 12L11 12L11 9C11 8.44772 11.4477 8 12 8C12.5523 8 13 8.44771 13 9L13 12L16 12C16.5523 12 17 12.4477 17 13C17 13.5523 16.5523 14 16 14Z" fill="#212529"/>
</svg>
