<svg width="24" height="24" viewBox="0 0 24 24" fill="none" xmlns="http://www.w3.org/2000/svg">
<path fill-rule="evenodd" clip-rule="evenodd" d="M3.70711 2.29289C3.31658 1.90237 2.68342 1.90237 2.29289 2.29289C1.90237 2.68342 1.90237 3.31658 2.29289 3.70711L3.08579 4.5L2.29289 5.29289C1.90237 5.68342 1.90237 6.31658 2.29289 6.70711C2.68342 7.09763 3.31658 7.09763 3.70711 6.70711L4.5 5.91421L5.43228 6.8465C3.92376 8.45591 3 10.6201 3 13C3 17.9706 7.02944 22 12 22C14.3799 22 16.5441 21.0762 18.1535 19.5677L20.2929 21.7071C20.6834 22.0976 21.3166 22.0976 21.7071 21.7071C22.0976 21.3166 22.0976 20.6834 21.7071 20.2929C15.7071 14.2929 9.70711 8.29289 3.70711 2.29289ZM20.4222 16.1798C20.7956 15.1911 21 14.1194 21 13C21 8.02944 16.9706 4 12 4C10.8806 4 9.80887 4.20438 8.82019 4.57785L10.4211 6.17879C10.9285 6.06181 11.4571 6 12 6C15.866 6 19 9.13401 19 13C19 13.5429 18.9382 14.0715 18.8212 14.5789L20.4222 16.1798ZM5 13C5 11.1724 5.70041 9.50834 6.84745 8.26167L16.7383 18.1525C15.4917 19.2996 13.8276 20 12 20C8.13401 20 5 16.866 5 13ZM18.7071 2.29289C18.3166 1.90237 17.6834 1.90237 17.2929 2.29289C16.9024 2.68342 16.9024 3.31658 17.2929 3.70711L20.2929 6.70711C20.6834 7.09763 21.3166 7.09763 21.7071 6.70711C22.0976 6.31658 22.0976 5.68342 21.7071 5.29289L18.7071 2.29289Z" fill="#212529"/>
</svg>
