<svg width="24" height="24" viewBox="0 0 24 24" fill="none" xmlns="http://www.w3.org/2000/svg">
<path fill-rule="evenodd" clip-rule="evenodd" d="M5.29289 2.29289C5.68342 1.90237 6.31658 1.90237 6.70711 2.29289C7.09763 2.68342 7.09763 3.31658 6.70711 3.70711L3.70711 6.70711C3.31658 7.09763 2.68342 7.09763 2.29289 6.70711C1.90237 6.31658 1.90237 5.68342 2.29289 5.29289L5.29289 2.29289ZM12 22C16.9706 22 21 17.9706 21 13C21 8.02944 16.9706 4 12 4C7.02944 4 3 8.02944 3 13C3 17.9706 7.02944 22 12 22ZM17.2929 2.29289C17.6834 1.90237 18.3166 1.90237 18.7071 2.29289L21.7071 5.29289C22.0976 5.68342 22.0976 6.31658 21.7071 6.70711C21.3166 7.09763 20.6834 7.09763 20.2929 6.70711L17.2929 3.70711C16.9024 3.31658 16.9024 2.68342 17.2929 2.29289ZM8.29289 9.29289C8.68342 8.90237 9.31658 8.90237 9.70711 9.29289L12 11.5858L14.2929 9.29289C14.6834 8.90237 15.3166 8.90237 15.7071 9.29289C16.0976 9.68342 16.0976 10.3166 15.7071 10.7071L13.4142 13L15.7071 15.2929C16.0976 15.6834 16.0976 16.3166 15.7071 16.7071C15.3166 17.0976 14.6834 17.0976 14.2929 16.7071L12 14.4142L9.70711 16.7071C9.31658 17.0976 8.68342 17.0976 8.29289 16.7071C7.90237 16.3166 7.90237 15.6834 8.29289 15.2929L10.5858 13L8.29289 10.7071C7.90237 10.3166 7.90237 9.68342 8.29289 9.29289Z" fill="#212529"/>
</svg>
