<svg width="24" height="24" viewBox="0 0 24 24" fill="none" xmlns="http://www.w3.org/2000/svg">
<path d="M7.70711 11.2929L11 14.5857L11 3C11 2.44771 11.4477 2 12 2C12.5523 2 13 2.44771 13 3L13 14.5857L16.2929 11.2929C16.6834 10.9023 17.3166 10.9023 17.7071 11.2929C18.0976 11.6834 18.0976 12.3165 17.7071 12.7071L12.7071 17.7071C12.3166 18.0976 11.6834 18.0976 11.2929 17.7071L6.29289 12.7071C5.90237 12.3165 5.90237 11.6834 6.29289 11.2929C6.68342 10.9023 7.31658 10.9023 7.70711 11.2929Z" fill="#212529"/>
<path d="M7.00001 20C6.44772 20 6.00001 20.4477 6.00001 21C6.00001 21.5523 6.44772 22 7.00001 22H17C17.5523 22 18 21.5523 18 21C18 20.4477 17.5523 20 17 20H7.00001Z" fill="#212529"/>
</svg>
