<svg width="24" height="24" viewBox="0 0 24 24" fill="none" xmlns="http://www.w3.org/2000/svg">
<path d="M4 7C4 6.44772 3.55228 6 3 6C2.44772 6 2 6.44772 2 7V17C2 17.5523 2.44772 18 3 18C3.55228 18 4 17.5523 4 17V7Z" fill="#212529"/>
<path d="M6.0325 11.9934C6.03423 11.7282 6.14123 11.4745 6.32998 11.2882L11.3624 6.32076C11.7554 5.93278 12.3886 5.9369 12.7765 6.32995C13.1645 6.723 13.1604 7.35616 12.7674 7.74413L9.46891 11L21.0386 11C21.5909 11 22.0386 11.4477 22.0386 12C22.0386 12.5523 21.5909 13 21.0386 13L9.42483 13L12.7116 16.3297C13.0996 16.7228 13.0954 17.3559 12.7024 17.7439C12.3093 18.1319 11.6762 18.1278 11.2882 17.7347L6.3208 12.7024C6.13448 12.5136 6.03078 12.2586 6.0325 11.9934Z" fill="#212529"/>
</svg>
