<svg width="24" height="24" viewBox="0 0 24 24" fill="none" xmlns="http://www.w3.org/2000/svg">
<path d="M22 7C22 6.44772 21.5523 6 21 6C20.4477 6 20 6.44772 20 7V17C20 17.5523 20.4477 18 21 18C21.5523 18 22 17.5523 22 17V7Z" fill="#212529"/>
<path d="M18.0061 11.9934C18.0043 11.7282 17.8973 11.4745 17.7086 11.2882L12.6762 6.32076C12.2832 5.93278 11.65 5.9369 11.262 6.32995C10.8741 6.723 10.8782 7.35616 11.2712 7.74413L14.5697 11L3 11C2.44771 11 2 11.4477 2 12C2 12.5523 2.44771 13 3 13L14.6137 13L11.327 16.3297C10.939 16.7228 10.9431 17.3559 11.3362 17.7439C11.7292 18.1319 12.3624 18.1278 12.7504 17.7347L17.7178 12.7024C17.9041 12.5136 18.0078 12.2586 18.0061 11.9934Z" fill="#212529"/>
</svg>
