<svg width="24" height="24" viewBox="0 0 24 24" fill="none" xmlns="http://www.w3.org/2000/svg">
<path d="M7 2C6.44772 2 6 2.44772 6 3C6 3.55229 6.44772 4 7 4L17 4C17.5523 4 18 3.55228 18 3C18 2.44772 17.5523 2 17 2H7Z" fill="#212529"/>
<path d="M12 6.00004C11.7348 6.00004 11.4804 6.1054 11.2929 6.29294L6.2929 11.2929C5.90238 11.6835 5.90238 12.3166 6.2929 12.7072C6.68342 13.0977 7.31659 13.0977 7.70711 12.7072L11 9.41427L11 21C11 21.5523 11.4477 22 12 22C12.5523 22 13 21.5523 13 21L13 9.41425L16.2929 12.7072C16.6834 13.0977 17.3166 13.0977 17.7071 12.7072C18.0976 12.3166 18.0976 11.6835 17.7071 11.2929L12.7071 6.29294C12.5196 6.1054 12.2652 6.00004 12 6.00004Z" fill="#212529"/>
</svg>
