<svg width="24" height="24" viewBox="0 0 24 24" fill="none" xmlns="http://www.w3.org/2000/svg">
<path fill-rule="evenodd" clip-rule="evenodd" d="M18 10C20.2091 10 22 8.20914 22 6C22 3.79086 20.2091 2 18 2C15.7909 2 14 3.79086 14 6C14 8.20914 15.7909 10 18 10ZM20 18V11.6586C19.3744 11.8797 18.7013 12 18 12V18C18 19.1046 17.1046 20 16 20H6C4.89543 20 4 19.1046 4 18L4 8C4 6.89543 4.89543 6 6 6H12C12 5.29873 12.1203 4.62556 12.3414 4L6 4C3.79086 4 2 5.79086 2 8L2 18C2 20.2091 3.79086 22 6 22H16C18.2091 22 20 20.2091 20 18Z" fill="#212529"/>
</svg>
