<svg width="24" height="24" viewBox="0 0 24 24" fill="none" xmlns="http://www.w3.org/2000/svg">
<path d="M3 8C2.44772 8 2 7.55228 2 7V3C2 2.44772 2.44772 2 3 2H7C7.55229 2 8 2.44772 8 3C8 3.55228 7.55229 4 7 4L5.41421 4L8.70711 7.29289C9.09763 7.68342 9.09763 8.31658 8.70711 8.70711C8.31658 9.09763 7.68342 9.09763 7.29289 8.70711L4 5.41421L4 7C4 7.55228 3.55229 8 3 8Z" fill="#212529"/>
<path d="M16 3C16 2.44772 16.4477 2 17 2H21C21.5523 2 22 2.44772 22 3V7C22 7.55228 21.5523 8 21 8C20.4477 8 20 7.55228 20 7V5.41421L16.7071 8.70711C16.3166 9.09763 15.6834 9.09763 15.2929 8.70711C14.9024 8.31658 14.9024 7.68342 15.2929 7.29289L18.5858 4H17C16.4477 4 16 3.55228 16 3Z" fill="#212529"/>
<path d="M4 18.5858L4 17C4 16.4477 3.55229 16 3 16C2.44772 16 2 16.4477 2 17V21C2 21.5523 2.44772 22 3 22H7C7.55229 22 8 21.5523 8 21C8 20.4477 7.55229 20 7 20H5.41421L8.70711 16.7071C9.09763 16.3166 9.09763 15.6834 8.70711 15.2929C8.31658 14.9024 7.68342 14.9024 7.29289 15.2929L4 18.5858Z" fill="#212529"/>
<path d="M18.5858 20L15.2929 16.7071C14.9024 16.3166 14.9024 15.6834 15.2929 15.2929C15.6834 14.9024 16.3166 14.9024 16.7071 15.2929L20 18.5858V17C20 16.4477 20.4477 16 21 16C21.5523 16 22 16.4477 22 17V21C22 21.5523 21.5523 22 21 22H17C16.4477 22 16 21.5523 16 21C16 20.4477 16.4477 20 17 20H18.5858Z" fill="#212529"/>
</svg>
