<svg width="24" height="24" viewBox="0 0 24 24" fill="none" xmlns="http://www.w3.org/2000/svg">
<path d="M15.6569 13.6066C15.2664 13.9971 14.6332 13.9971 14.2427 13.6066C13.8521 13.2161 13.8521 12.5829 14.2427 12.1924L17.4351 8.99999H10C7.23858 8.99999 5 11.2386 5 14V21C5 21.5523 4.55228 22 4 22C3.44772 22 3 21.5523 3 21V14C3 10.134 6.13401 6.99999 10 6.99999H17.5355L14.2427 3.70711C13.8521 3.31658 13.8521 2.68342 14.2427 2.29289C14.6332 1.90237 15.2664 1.90237 15.6569 2.29289L20.6066 7.24264C20.9971 7.63316 20.9971 8.26633 20.6066 8.65685L15.6569 13.6066Z" fill="#212529"/>
</svg>
