<svg width="24" height="24" viewBox="0 0 24 24" fill="none" xmlns="http://www.w3.org/2000/svg">
<path fill-rule="evenodd" clip-rule="evenodd" d="M12 7.79291V6.00001C15.3137 6.00001 18 8.6863 18 12C18 12.9221 17.7927 13.7929 17.4231 14.5709C17.1861 15.0698 17.3984 15.6663 17.8973 15.9033C18.3961 16.1403 18.9926 15.928 19.2296 15.4291C19.7239 14.3886 20 13.2252 20 12C20 7.58173 16.4183 4.00001 12 4.00001V2.20712C12 1.76167 11.4614 1.53858 11.1464 1.85356L8.35355 4.64646C8.15829 4.84172 8.15829 5.1583 8.35355 5.35357L11.1464 8.14646C11.4614 8.46144 12 8.23836 12 7.79291ZM6.10272 8.09675C6.60158 8.33373 6.81387 8.93025 6.57689 9.4291C6.2073 10.2071 6 11.078 6 12C6 15.3137 8.68629 18 12 18L12 16.2071C12 15.7617 12.5386 15.5386 12.8536 15.8536L15.6464 18.6465C15.8417 18.8417 15.8417 19.1583 15.6464 19.3536L12.8536 22.1465C12.5386 22.4614 12 22.2384 12 21.7929V20C7.58172 20 4 16.4183 4 12C4 10.7749 4.27608 9.61142 4.77037 8.57092C5.00735 8.07206 5.60387 7.85977 6.10272 8.09675Z" fill="#212529"/>
</svg>
