<svg width="24" height="24" viewBox="0 0 24 24" fill="none" xmlns="http://www.w3.org/2000/svg">
<path fill-rule="evenodd" clip-rule="evenodd" d="M15.7071 6.70711C16.0976 6.31658 16.0976 5.68342 15.7071 5.29289C15.3166 4.90237 14.6834 4.90237 14.2929 5.29289L12 7.58579L9.70711 5.29289C9.31658 4.90237 8.68342 4.90237 8.29289 5.29289C7.90237 5.68342 7.90237 6.31658 8.29289 6.70711L11.2929 9.70711C11.6834 10.0976 12.3166 10.0976 12.7071 9.70711L15.7071 6.70711ZM8.29295 17.2929C7.90243 17.6834 7.90243 18.3166 8.29295 18.7071C8.68348 19.0976 9.31664 19.0976 9.70716 18.7071L12.0001 16.4142L14.293 18.7071C14.6835 19.0976 15.3166 19.0976 15.7072 18.7071C16.0977 18.3166 16.0977 17.6834 15.7072 17.2929L12.7072 14.2929C12.3166 13.9024 11.6835 13.9024 11.293 14.2929L8.29295 17.2929Z" fill="#212529"/>
</svg>
