<svg width="24" height="24" viewBox="0 0 24 24" fill="none" xmlns="http://www.w3.org/2000/svg">
<path d="M12 4C7.58172 4 4 7.58172 4 12C4 16.4183 7.58172 20 12 20C14.3692 20 16.4969 18.9713 17.9632 17.3331C18.4407 16.7995 18.8475 16.2019 19.169 15.555C19.4464 14.9966 19.6605 14.4015 19.8018 13.7787C19.924 13.2401 20.4597 12.9026 20.9983 13.0248C21.5369 13.147 21.8744 13.6827 21.7522 14.2213C21.5752 15.0011 21.3072 15.7464 20.96 16.445C20.5578 17.2543 20.0495 18.001 19.4535 18.6669C17.6238 20.7111 14.9618 22 12 22C6.47715 22 2 17.5228 2 12C2 6.47715 6.47715 2 12 2C14.7261 2 17.197 3.09134 19 4.8587V4C19 3.44772 19.4477 3 20 3C20.5523 3 21 3.44772 21 4V8C21 8.55229 20.5523 9 20 9H16C15.4477 9 15 8.55228 15 8C15 7.44772 15.4477 7 16 7H18.2455C16.7781 5.16951 14.5255 4 12 4Z" fill="#212529"/>
<path d="M12 14.5C13.3807 14.5 14.5 13.3807 14.5 12C14.5 10.6193 13.3807 9.5 12 9.5C10.6193 9.5 9.5 10.6193 9.5 12C9.5 13.3807 10.6193 14.5 12 14.5Z" fill="#212529"/>
</svg>
