<svg width="24" height="24" viewBox="0 0 24 24" fill="none" xmlns="http://www.w3.org/2000/svg">
<path d="M4 12C4 7.58172 7.58172 4 12 4C14.5255 4 16.7781 5.16951 18.2455 7H16C15.4477 7 15 7.44772 15 8C15 8.55228 15.4477 9 16 9H20C20.5523 9 21 8.55228 21 8V4C21 3.44772 20.5523 3 20 3C19.4477 3 19 3.44772 19 4V4.8587C17.197 3.09134 14.7261 2 12 2C6.47715 2 2 6.47715 2 12C2 17.5228 6.47715 22 12 22C14.9618 22 17.6238 20.7111 19.4535 18.6669C20.0495 18.001 20.5578 17.2543 20.96 16.445C21.3072 15.7464 21.5752 15.0011 21.7522 14.2213C21.8744 13.6827 21.5369 13.147 20.9983 13.0248C20.4597 12.9026 19.924 13.2401 19.8018 13.7787C19.6605 14.4015 19.4464 14.9966 19.169 15.555C18.8475 16.2019 18.4407 16.7995 17.9632 17.3331C16.4969 18.9713 14.3692 20 12 20C7.58172 20 4 16.4183 4 12Z" fill="#212529"/>
<path d="M9.29289 9.29289C9.68342 8.90237 10.3166 8.90237 10.7071 9.29289L12 10.5858L13.2929 9.29289C13.6834 8.90237 14.3166 8.90237 14.7071 9.29289C15.0976 9.68342 15.0976 10.3166 14.7071 10.7071L13.4142 12L14.7071 13.2929C15.0976 13.6834 15.0976 14.3166 14.7071 14.7071C14.3166 15.0976 13.6834 15.0976 13.2929 14.7071L12 13.4142L10.7071 14.7071C10.3166 15.0976 9.68342 15.0976 9.29289 14.7071C8.90237 14.3166 8.90237 13.6834 9.29289 13.2929L10.5858 12L9.29289 10.7071C8.90237 10.3166 8.90237 9.68342 9.29289 9.29289Z" fill="#212529"/>
</svg>
