<svg width="24" height="24" viewBox="0 0 24 24" fill="none" xmlns="http://www.w3.org/2000/svg">
<path fill-rule="evenodd" clip-rule="evenodd" d="M5 12C5 8.13401 8.13401 5 12 5C14.3776 5 16.4799 6.18548 17.7456 8H16C15.4477 8 15 8.44772 15 9C15 9.55228 15.4477 10 16 10H20C20.5523 10 21 9.55228 21 9V5C21 4.44772 20.5523 4 20 4C19.4477 4 19 4.44772 19 5V6.34296C17.3507 4.30459 14.8284 3 12 3C7.02944 3 3 7.02944 3 12C3 16.9706 7.02944 21 12 21C16.195 21 19.7174 18.1308 20.7164 14.2493C20.8541 13.7144 20.5321 13.1692 19.9972 13.0316C19.4624 12.8939 18.9172 13.2159 18.7795 13.7507C18.0024 16.7701 15.2603 19 12 19C8.13401 19 5 15.866 5 12Z" fill="#212529"/>
</svg>
