<svg width="24" height="24" viewBox="0 0 24 24" fill="none" xmlns="http://www.w3.org/2000/svg">
<path d="M4.07588 19.3828C4.12468 19.5007 4.19702 19.6112 4.29289 19.7071C4.38877 19.803 4.49927 19.8753 4.61722 19.9241C4.73512 19.973 4.86441 20 5 20H12C12.5523 20 13 19.5523 13 19C13 18.4477 12.5523 18 12 18L7.41421 18L19.7071 5.70711C20.0976 5.31658 20.0976 4.68342 19.7071 4.29289C19.3166 3.90237 18.6834 3.90237 18.2929 4.29289L6 16.5858L6 12C6 11.4477 5.55229 11 5 11C4.44772 11 4 11.4477 4 12V19C4 19.1356 4.02699 19.2649 4.07588 19.3828Z" fill="#212529"/>
</svg>
