<svg width="24" height="24" viewBox="0 0 24 24" fill="none" xmlns="http://www.w3.org/2000/svg">
<path fill-rule="evenodd" clip-rule="evenodd" d="M8.29295 7.29289C7.90243 7.68342 7.90243 8.31658 8.29295 8.70711C8.68348 9.09763 9.31664 9.09763 9.70716 8.70711L12.0001 6.41421L14.293 8.70711C14.6835 9.09763 15.3166 9.09763 15.7072 8.70711C16.0977 8.31658 16.0977 7.68342 15.7072 7.29289L12.7072 4.29289C12.3166 3.90237 11.6835 3.90237 11.293 4.29289L8.29295 7.29289ZM15.7071 16.7071C16.0976 16.3166 16.0976 15.6834 15.7071 15.2929C15.3166 14.9024 14.6834 14.9024 14.2929 15.2929L12 17.5858L9.70711 15.2929C9.31658 14.9024 8.68342 14.9024 8.29289 15.2929C7.90237 15.6834 7.90237 16.3166 8.29289 16.7071L11.2929 19.7071C11.6834 20.0976 12.3166 20.0976 12.7071 19.7071L15.7071 16.7071Z" fill="#212529"/>
</svg>
