<svg width="24" height="24" viewBox="0 0 24 24" fill="none" xmlns="http://www.w3.org/2000/svg">
<path d="M12 2C12.5523 2 13 2.44772 13 3V7.58579L14.2929 6.29289C14.6834 5.90237 15.3166 5.90237 15.7071 6.29289C16.0976 6.68342 16.0976 7.31658 15.7071 7.70711L12.7071 10.7071C12.3166 11.0976 11.6834 11.0976 11.2929 10.7071L8.29289 7.70711C7.90237 7.31658 7.90237 6.68342 8.29289 6.29289C8.68342 5.90237 9.31658 5.90237 9.70711 6.29289L11 7.58579V3C11 2.44772 11.4477 2 12 2Z" fill="#212529"/>
<path d="M8.29289 16.2929C7.90237 16.6834 7.90237 17.3166 8.29289 17.7071C8.68342 18.0976 9.31658 18.0976 9.70711 17.7071L11 16.4142V21C11 21.5523 11.4477 22 12 22C12.5523 22 13 21.5523 13 21V16.4142L14.2929 17.7071C14.6834 18.0976 15.3166 18.0976 15.7071 17.7071C16.0976 17.3166 16.0976 16.6834 15.7071 16.2929L12.7071 13.2929C12.3166 12.9024 11.6834 12.9024 11.2929 13.2929L8.29289 16.2929Z" fill="#212529"/>
</svg>
