<svg width="24" height="24" viewBox="0 0 24 24" fill="none" xmlns="http://www.w3.org/2000/svg">
<path fill-rule="evenodd" clip-rule="evenodd" d="M12 5C15.866 5 19 8.13401 19 12C19 15.866 15.866 19 12 19C8.73965 19 5.9976 16.7701 5.22047 13.7507C5.08281 13.2159 4.53763 12.8939 4.00278 13.0316C3.46792 13.1692 3.14594 13.7144 3.2836 14.2493C4.28264 18.1308 7.80499 21 12 21C16.9706 21 21 16.9706 21 12C21 7.02944 16.9706 3 12 3C9.17165 3 6.64931 4.30459 5 6.34296V5C5 4.44772 4.55228 4 4 4C3.44772 4 3 4.44772 3 5L3 9C3 9.55228 3.44772 10 4 10H8C8.55229 10 9 9.55228 9 9C9 8.44772 8.55229 8 8 8H6.25445C7.52012 6.18548 9.62238 5 12 5ZM13 9C13 8.44772 12.5523 8 12 8C11.4477 8 11 8.44772 11 9V12C11 12.4304 11.2754 12.8126 11.6838 12.9487L14.6838 13.9487C15.2077 14.1233 15.774 13.8402 15.9487 13.3162C16.1233 12.7923 15.8402 12.226 15.3162 12.0513L13 11.2792V9Z" fill="#212529"/>
</svg>
