<svg width="24" height="24" viewBox="0 0 24 24" fill="none" xmlns="http://www.w3.org/2000/svg">
<path d="M8.24264 13.6066C8.63316 13.9971 9.26633 13.9971 9.65685 13.6066C10.0474 13.2161 10.0474 12.5829 9.65685 12.1924L6.46445 8.99999H13.8995C16.6609 8.99999 18.8995 11.2386 18.8995 14V21C18.8995 21.5523 19.3472 22 19.8995 22C20.4517 22 20.8995 21.5523 20.8995 21V14C20.8995 10.134 17.7654 6.99999 13.8995 6.99999H6.36397L9.65685 3.70711C10.0474 3.31658 10.0474 2.68342 9.65685 2.29289C9.26633 1.90237 8.63316 1.90237 8.24264 2.29289L3.29289 7.24264C2.90237 7.63316 2.90237 8.26633 3.29289 8.65685L8.24264 13.6066Z" fill="#212529"/>
</svg>
