<?xml version="1.0" encoding="UTF-8"?>
<svg xmlns="http://www.w3.org/2000/svg" width="24" height="24" viewBox="0 0 24 24" fill="none"><path d="M16.6748 20L16.6748 17.7479L10.1942 17.7479C5.55825 17.7479 2.30582 15.0551 2.30582 10.2081C2.30582 5.41004 5.87379 2.25214 10.0971 2.25214C14.199 2.25214 17.6942 4.74908 17.6942 8.98409C17.6942 11.53 16.4078 12.4357 15.267 12.4357C14.5388 12.4357 14.199 12.0441 14.199 11.3586L14.199 6.73195L12.0388 6.73195C11.3835 6.07099 10.4612 5.75275 9.46602 5.75275C7.16019 5.75275 5.41262 7.49082 5.41262 10.2326C5.41262 12.8764 7.06311 14.6144 9.27184 14.6144C10.1456 14.6144 11.2379 14.3207 11.9417 13.2436L12.2087 13.2436C12.6942 14.0759 13.6408 14.6144 14.9757 14.6144C18.0825 14.6144 20 11.8972 20 8.64137C20 3.94125 15.9951 0 10.1456 0C3.85922 0 0 4.89596 0 10.2081C0 15.4957 3.51942 20 10.1214 20L16.6748 20ZM9.78155 12.6561C8.59223 12.6561 7.45146 11.9217 7.45146 10.1591C7.45146 8.49449 8.59223 7.71114 9.78155 7.71114C10.9466 7.71114 12.0874 8.47001 12.0874 10.1591C12.0874 11.9217 10.9466 12.6561 9.78155 12.6561Z" transform="translate(2 2)" fill="#212529" fill-rule="nonzero" opacity="1" /></svg>
