<svg width="24" height="24" viewBox="0 0 24 24" fill="none" xmlns="http://www.w3.org/2000/svg">
<path d="M18.9871 10.6307L10.5708 19.047C8.90819 20.7096 6.21146 20.9721 4.39774 19.4766C2.3215 17.7663 2.21013 14.6798 4.07158 12.8183L13.9039 2.98602C14.946 1.94392 16.6404 1.74505 17.7779 2.67577C19.0905 3.74969 19.1621 5.68274 17.9927 6.85212L9.64004 15.2048C9.20252 15.6423 8.48657 15.6423 8.04905 15.2048C7.61153 14.7673 7.61153 14.0513 8.04905 13.6138L15.0096 6.65324C15.3358 6.32709 15.3358 5.78616 15.0096 5.46C14.6835 5.13385 14.1425 5.13385 13.8164 5.46L6.96718 12.3092C5.92508 13.3513 5.72621 15.0457 6.65694 16.1833C7.73085 17.4958 9.6639 17.5674 10.8333 16.398L19.0507 8.18059C20.7133 6.51801 20.9758 3.82129 19.4803 2.00756C17.762 -0.0766337 14.6835 -0.180048 12.822 1.68141L3.06131 11.4421C0.77824 13.7252 0.404358 17.4401 2.46469 19.93C4.84321 22.7859 9.06728 22.937 11.6288 20.3755L20.1803 11.824C20.5065 11.4978 20.5065 10.9569 20.1803 10.6307C19.8542 10.3046 19.3132 10.3046 18.9871 10.6307Z" fill="#212529"/>
</svg>
