<svg width="24" height="24" viewBox="0 0 24 24" fill="none" xmlns="http://www.w3.org/2000/svg">
<path fill-rule="evenodd" clip-rule="evenodd" d="M20.4675 10.4675C21.2959 10.4675 21.9675 11.1391 21.9675 11.9675C21.9675 12.796 21.2959 13.4675 20.4675 13.4675L15.9675 13.4675L10.2675 21.0675C10.0786 21.3193 9.78224 21.4675 9.46748 21.4675L8.60787 21.4675C8.28259 21.4675 8.04391 21.1618 8.1228 20.8463L9.96748 13.4675L4.96748 13.4675L4.10568 15.1911C4.02098 15.3605 3.84785 15.4675 3.65847 15.4675L2.23263 15.4675C2.09975 15.4675 2.00382 15.3403 2.04032 15.2126L2.88899 12.2422C2.94029 12.0627 2.94029 11.8724 2.88899 11.6928L2.04032 8.72247C2.00382 8.59471 2.09975 8.46753 2.23263 8.46753L3.65847 8.46753C3.84785 8.46753 4.02098 8.57453 4.10568 8.74392L4.96748 10.4675L9.96748 10.4675L8.1228 3.0888C8.04391 2.77322 8.28259 2.46753 8.60787 2.46753L9.46748 2.46753C9.78224 2.46753 10.0786 2.61572 10.2675 2.86753L15.9675 10.4675L20.4675 10.4675Z" fill="#212529"/>
</svg>
