<svg width="24" height="24" viewBox="0 0 24 24" fill="none" xmlns="http://www.w3.org/2000/svg">
<path fill-rule="evenodd" clip-rule="evenodd" d="M10.1045 3.58154C9.64231 3.58154 9.26753 3.95621 9.26753 4.41851V19.5812C9.26753 20.0434 9.64224 20.4181 10.1045 20.4181H13.8952C14.3574 20.4181 14.7322 20.0434 14.7322 19.5812V4.41845C14.7321 3.95621 14.3574 3.58154 13.8952 3.58154H10.1045ZM10.9414 18.7442V5.25545H13.0582V18.7442H10.9414Z" fill="#212529"/>
<path fill-rule="evenodd" clip-rule="evenodd" d="M16.6219 7.37214C16.1597 7.37214 15.785 7.74685 15.785 8.20911V19.5811C15.785 20.0433 16.1597 20.4181 16.6219 20.4181H20.4126C20.8748 20.4181 21.2496 20.0434 21.2496 19.5811V8.20911C21.2495 7.74691 20.8748 7.37214 20.4126 7.37214H16.6219ZM17.4589 18.7442V9.04608H19.5756V18.7442H17.4589Z" fill="#212529"/>
<path fill-rule="evenodd" clip-rule="evenodd" d="M3.58697 11.1628C3.12471 11.1628 2.75 11.5376 2.75 11.9998V19.5811C2.75 20.0433 3.12471 20.4181 3.58697 20.4181H7.37766C7.83986 20.4181 8.21463 20.0434 8.21463 19.5811V11.9998C8.21458 11.5375 7.83987 11.1628 7.37766 11.1628H3.58697ZM4.4239 18.7442V12.8368H6.54069V18.7442H4.4239Z" fill="#212529"/>
</svg>
