<svg width="24" height="24" viewBox="0 0 24 24" fill="none" xmlns="http://www.w3.org/2000/svg">
<path fill-rule="evenodd" clip-rule="evenodd" d="M12 10C11.4477 10 11 10.4477 11 11C11 11.5523 10.5523 12 10 12C9.44772 12 9 11.5523 9 11C9 9.34315 10.3431 8 12 8C13.6569 8 15 9.34315 15 11C15 12.137 14.3671 13.1247 13.4392 13.6327C13.265 13.7281 13.1336 13.8316 13.0569 13.9211C13.0171 13.9676 13.0038 13.9953 13 14.0061V14.5C13 15.0523 12.5523 15.5 12 15.5C11.4477 15.5 11 15.0523 11 14.5V14C11 13.4196 11.2528 12.9526 11.5387 12.6191C11.8204 12.2907 12.1685 12.0482 12.4788 11.8784C12.7915 11.7072 13 11.3772 13 11C13 10.4477 12.5523 10 12 10Z" fill="#212529"/>
<path d="M12 18C12.5523 18 13 17.5523 13 17C13 16.4477 12.5523 16 12 16C11.4477 16 11 16.4477 11 17C11 17.5523 11.4477 18 12 18Z" fill="#212529"/>
<path fill-rule="evenodd" clip-rule="evenodd" d="M10 2C9.44772 2 9 2.44772 9 3L9 4C7.34315 4 6 5.34315 6 7L6 19C6 20.6569 7.34315 22 9 22H15C16.6569 22 18 20.6569 18 19V7C18 5.34314 16.6569 4 15 4V3C15 2.44772 14.5523 2 14 2H10ZM9 20C8.44772 20 8 19.5523 8 19L8 7C8 6.44772 8.44772 6 9 6L15 6C15.5523 6 16 6.44772 16 7V19C16 19.5523 15.5523 20 15 20H9Z" fill="#212529"/>
</svg>
