<svg width="24" height="24" viewBox="0 0 24 24" fill="none" xmlns="http://www.w3.org/2000/svg">
<path fill-rule="evenodd" clip-rule="evenodd" d="M3.70711 2.29289C3.31658 1.90237 2.68342 1.90237 2.29289 2.29289C1.90237 2.68342 1.90237 3.31658 2.29289 3.70711L6 7.41421L6 19C6 20.6569 7.34315 22 9 22H15C16.525 22 17.7842 20.8622 17.975 19.3892L20.2929 21.7071C20.6834 22.0976 21.3166 22.0976 21.7071 21.7071C22.0976 21.3166 22.0976 20.6834 21.7071 20.2929C15.6073 14.1931 9.59148 8.17727 3.70711 2.29289ZM16 11.5858L16 7C16 6.44772 15.5523 6 15 6L10.4142 6L8.46227 4.04806C8.63673 4.01649 8.81644 4 9 4C9 2.89543 9.89543 2 11 2H13C14.1046 2 15 2.89543 15 4C16.6569 4 18 5.34314 18 7V13.5858L16 11.5858ZM8 19L8 9.41421L16 17.4142V19C16 19.5523 15.5523 20 15 20H9C8.44772 20 8 19.5523 8 19Z" fill="#212529"/>
</svg>
