<svg width="24" height="24" viewBox="0 0 24 24" fill="none" xmlns="http://www.w3.org/2000/svg">
<path d="M12 10C12.5523 10 13 10.4477 13 11V12H14C14.5523 12 15 12.4477 15 13C15 13.5523 14.5523 14 14 14H13V15C13 15.5523 12.5523 16 12 16C11.4477 16 11 15.5523 11 15V14H10C9.44772 14 9 13.5523 9 13C9 12.4477 9.44772 12 10 12H11V11C11 10.4477 11.4477 10 12 10Z" fill="#212529"/>
<path fill-rule="evenodd" clip-rule="evenodd" d="M10 2C9.44772 2 9 2.44772 9 3L9 4C7.34315 4 6 5.34315 6 7V19C6 20.6569 7.34315 22 9 22H15C16.6569 22 18 20.6569 18 19V7C18 5.34314 16.6569 4 15 4L15 3C15 2.44772 14.5523 2 14 2H10ZM9 20C8.44772 20 8 19.5523 8 19L8 7C8 6.44772 8.44772 6 9 6L15 6C15.5523 6 16 6.44772 16 7V19C16 19.5523 15.5523 20 15 20H9Z" fill="#212529"/>
</svg>
