<svg width="24" height="24" viewBox="0 0 24 24" fill="none" xmlns="http://www.w3.org/2000/svg">
<path fill-rule="evenodd" clip-rule="evenodd" d="M9 3C9 2.44772 9.44772 2 10 2H14C14.5523 2 15 2.44772 15 3V4C16.6569 4 18 5.34314 18 7V19C18 20.6569 16.6569 22 15 22H9C7.34315 22 6 20.6569 6 19L6 7C6 5.34315 7.34315 4 9 4L9 3ZM13 9C13 9.55229 12.5523 10 12 10C11.4477 10 11 9.55228 11 9C11 8.44771 11.4477 8 12 8C12.5523 8 13 8.44772 13 9ZM12 12C12.5523 12 13 12.4477 13 13L13 17C13 17.5523 12.5523 18 12 18C11.4477 18 11 17.5523 11 17L11 13C11 12.4477 11.4477 12 12 12Z" fill="#212529"/>
</svg>
