<?xml version="1.0" encoding="UTF-8"?>
<svg xmlns="http://www.w3.org/2000/svg" width="16" height="16" viewBox="0 0 16 16" fill="none"><path d="M0 0.5C2.90781e-17 0.223858 0.223858 -2.90781e-17 0.5 0L10.5 0C10.7761 2.90781e-17 11 0.223858 11 0.5L11 5.5C11 5.77614 10.7761 6 10.5 6L0.5 6C0.223858 6 -2.90781e-17 5.77614 0 5.5L0 0.5Z" transform="translate(2 5)" fill="#212529" fill-rule="nonzero" opacity="0.52" /><path d="M13 1L2 1C1.44772 1 1 1.44772 1 2L1 8C1 8.55229 1.44772 9 2 9L13 9C13.5523 9 14 8.55228 14 8L14 2C14 1.44772 13.5523 1 13 1ZM2 0C0.895431 -1.16312e-16 1.16312e-16 0.89543 0 2L0 8C-1.16312e-16 9.10457 0.89543 10 2 10L13 10C14.1046 10 15 9.10457 15 8L15 2C15 0.895431 14.1046 1.16312e-16 13 0L2 0Z" transform="translate(0 3)" fill="#212529" fill-rule="evenodd" opacity="1" /><path d="M15 2L15 8C15.5523 8 16 7.55228 16 7L16 3C16 2.44772 15.5523 2 15 2Z" transform="translate(0 3)" fill="#212529" fill-rule="evenodd" opacity="1" /></svg>
