<svg width="24" height="24" viewBox="0 0 24 24" fill="none" xmlns="http://www.w3.org/2000/svg">
<path d="M12 12C12.5523 12 13 12.4477 13 13L13 17C13 17.5523 12.5523 18 12 18C11.4477 18 11 17.5523 11 17L11 13C11 12.4477 11.4477 12 12 12Z" fill="#212529"/>
<path d="M12 10C12.5523 10 13 9.55229 13 9C13 8.44772 12.5523 8 12 8C11.4477 8 11 8.44771 11 9C11 9.55228 11.4477 10 12 10Z" fill="#212529"/>
<path fill-rule="evenodd" clip-rule="evenodd" d="M10 2C9.44772 2 9 2.44772 9 3L9 4C7.34315 4 6 5.34315 6 7L6 19C6 20.6569 7.34315 22 9 22H15C16.6569 22 18 20.6569 18 19V7C18 5.34314 16.6569 4 15 4V3C15 2.44772 14.5523 2 14 2H10ZM9 20C8.44772 20 8 19.5523 8 19L8 7C8 6.44772 8.44772 6 9 6L15 6C15.5523 6 16 6.44772 16 7V19C16 19.5523 15.5523 20 15 20H9Z" fill="#212529"/>
</svg>
