<svg width="24" height="24" viewBox="0 0 24 24" fill="none" xmlns="http://www.w3.org/2000/svg">
<path d="M3.70711 2.29289C3.31658 1.90237 2.68342 1.90237 2.29289 2.29289C1.90237 2.68342 1.90237 3.31658 2.29289 3.70711L6 7.41421V19C6 20.6569 7.34315 22 9 22H15C16.525 22 17.7842 20.8622 17.975 19.3892L20.2929 21.7071C20.6834 22.0976 21.3166 22.0976 21.7071 21.7071C22.0976 21.3166 22.0976 20.6834 21.7071 20.2929L3.70711 2.29289Z" fill="#212529"/>
<path d="M18 7V13.7858L8.29703 4.08281C8.52252 4.02868 8.75791 4 9 4L9 3C9 2.44772 9.44772 2 10 2H14C14.5523 2 15 2.44772 15 3V4C16.6569 4 18 5.34314 18 7Z" fill="#212529"/>
</svg>
