<svg width="24" height="24" viewBox="0 0 24 24" fill="none" xmlns="http://www.w3.org/2000/svg">
<path d="M13.4142 13L14.7071 14.2929C15.0976 14.6834 15.0976 15.3166 14.7071 15.7071C14.3166 16.0976 13.6834 16.0976 13.2929 15.7071L12 14.4142L10.7071 15.7071C10.3166 16.0976 9.68342 16.0976 9.29289 15.7071C8.90237 15.3166 8.90237 14.6834 9.29289 14.2929L10.5858 13L9.29289 11.7071C8.90237 11.3166 8.90237 10.6834 9.29289 10.2929C9.68342 9.90237 10.3166 9.90237 10.7071 10.2929L12 11.5858L13.2929 10.2929C13.6834 9.90237 14.3166 9.90237 14.7071 10.2929C15.0976 10.6834 15.0976 11.3166 14.7071 11.7071L13.4142 13Z" fill="#212529"/>
<path fill-rule="evenodd" clip-rule="evenodd" d="M10 2C9.44772 2 9 2.44772 9 3L9 4C7.34315 4 6 5.34315 6 7V19C6 20.6569 7.34315 22 9 22H15C16.6569 22 18 20.6569 18 19V7C18 5.34314 16.6569 4 15 4L15 3C15 2.44772 14.5523 2 14 2H10ZM9 20C8.44772 20 8 19.5523 8 19L8 7C8 6.44772 8.44772 6 9 6L15 6C15.5523 6 16 6.44772 16 7V19C16 19.5523 15.5523 20 15 20H9Z" fill="#212529"/>
</svg>
