<svg width="24" height="24" viewBox="0 0 24 24" fill="none" xmlns="http://www.w3.org/2000/svg">
<path d="M13.1571 12.375H14.2407C14.5626 12.375 14.7526 12.7358 14.5706 13.0012L11.8727 16.9356C11.6505 17.2597 11.1429 17.1024 11.1429 16.7094V13.925C11.1429 13.7593 11.0085 13.625 10.8429 13.625H9.75929C9.43744 13.625 9.24739 13.2642 9.4294 12.9988L12.1273 9.06443C12.3495 8.74025 12.8571 8.89757 12.8571 9.29064V12.075C12.8571 12.2407 12.9915 12.375 13.1571 12.375Z" fill="#212529"/>
<path fill-rule="evenodd" clip-rule="evenodd" d="M9 4C9 2.89543 9.89543 2 11 2H13C14.1046 2 15 2.89543 15 4L16 4C17.1046 4 18 4.89543 18 6V20C18 21.1046 17.1046 22 16 22H8C6.89543 22 6 21.1046 6 20V6C6 4.89543 6.89543 4 8 4H9ZM8 6L8 20H16V6L8 6Z" fill="#212529"/>
</svg>
