<svg width="24" height="24" viewBox="0 0 24 24" fill="none" xmlns="http://www.w3.org/2000/svg">
<path fill-rule="evenodd" clip-rule="evenodd" d="M9 3C9 2.44772 9.44772 2 10 2H14C14.5523 2 15 2.44772 15 3V4C16.6569 4 18 5.34314 18 7V19C18 20.6569 16.6569 22 15 22H9C7.34315 22 6 20.6569 6 19L6 7C6 5.34315 7.34315 4 9 4L9 3ZM12 10C12.5523 10 13 10.4477 13 11V12H14C14.5523 12 15 12.4477 15 13C15 13.5523 14.5523 14 14 14H13V15C13 15.5523 12.5523 16 12 16C11.4477 16 11 15.5523 11 15V14H10C9.44771 14 9 13.5523 9 13C9 12.4477 9.44771 12 10 12H11V11C11 10.4477 11.4477 10 12 10Z" fill="#212529"/>
</svg>
