<?xml version="1.0" encoding="UTF-8"?>
<svg xmlns="http://www.w3.org/2000/svg" width="16" height="16" viewBox="0 0 16 16" fill="none"><path d="M3.12442 0L0.5 0C0.223858 -4.44071e-17 4.44071e-17 0.223858 0 0.5L0 5.5C-4.4407e-17 5.77614 0.223858 6 0.5 6L3.28572 6L3.28572 5.24061C2.07095 5.11666 1.30881 3.81279 1.84999 2.67631L3.12442 0Z" transform="translate(2 5)" fill="#24ce9f" fill-rule="nonzero" opacity="1" /><path d="M15 2C15.5523 2 16 2.44772 16 3L16 7C16 7.55228 15.5523 8 15 8L15 2Z" transform="translate(0 3)" fill="#212529" fill-rule="nonzero" opacity="1" /><path d="M9.39958 9L13 9C13.5523 9 14 8.55228 14 8L14 2C14 1.44772 13.5523 1 13 1L9.71429 1L9.71429 0.327968C9.71429 0.213868 9.70509 0.104476 9.68761 0L13 0C14.1046 1.77628e-16 15 0.895431 15 2C15.5523 2 16 2.44772 16 3L16 7C16 7.55228 15.5523 8 15 8C15 9.10457 14.1046 10 13 10L8.92339 10L9.39958 9Z" transform="translate(0 3)" fill="#212529" fill-rule="nonzero" opacity="1" /><path d="M7.73819 9L6.78572 9L6.78572 9.6724C6.78572 9.99211 7.21913 10.09 7.35658 9.80138L7.73819 9Z" transform="translate(0 3)" fill="#212529" fill-rule="nonzero" opacity="1" /><path d="M5.60062 1L2 1C1.44772 1 1 1.44772 1 2L1 8C1 8.55229 1.44772 9 2 9L5.28572 9L5.28572 9.6724C5.28572 9.78637 5.2949 9.89564 5.31234 10L2 10C0.89543 10 -1.77628e-16 9.10457 0 8L0 2C1.77628e-16 0.89543 0.895431 -1.77628e-16 2 0L6.07681 0L5.60062 1Z" transform="translate(0 3)" fill="#212529" fill-rule="nonzero" opacity="1" /><path d="M7.262 1L8.21429 1L8.21429 0.327968C8.21429 0.0082618 7.78089 -0.0896631 7.64344 0.198987L7.262 1Z" transform="translate(0 3)" fill="#212529" fill-rule="nonzero" opacity="1" /><path d="M9.52487 4.25L8.51429 4.25C8.3486 4.25 8.21429 4.11569 8.21429 3.95L8.21429 0.327968C8.21429 0.0082618 7.78089 -0.0896631 7.64344 0.198987L5.20428 5.32102C5.10948 5.5201 5.25463 5.75 5.47513 5.75L6.48571 5.75C6.6514 5.75 6.78571 5.88431 6.78571 6.05L6.78572 9.6724C6.78572 9.99211 7.21913 10.09 7.35658 9.80138L9.79572 4.67898C9.89052 4.4799 9.74537 4.25 9.52487 4.25Z" transform="translate(0 3)" fill="#212529" fill-rule="nonzero" opacity="1" /></svg>
