<svg width="24" height="24" viewBox="0 0 24 24" fill="none" xmlns="http://www.w3.org/2000/svg">
<path fill-rule="evenodd" clip-rule="evenodd" d="M9 3C9 2.44772 9.44772 2 10 2H14C14.5523 2 15 2.44772 15 3V4C16.6569 4 18 5.34314 18 7V19C18 20.6569 16.6569 22 15 22H9C7.34315 22 6 20.6569 6 19L6 7C6 5.34315 7.34315 4 9 4L9 3ZM12 10C11.4477 10 11 10.4477 11 11C11 11.5523 10.5523 12 10 12C9.44771 12 9 11.5523 9 11C9 9.34315 10.3431 8 12 8C13.6569 8 15 9.34315 15 11C15 12.137 14.3671 13.1247 13.4391 13.6327C13.265 13.7281 13.1336 13.8316 13.0569 13.9211C13.0171 13.9676 13.0038 13.9953 13 14.0061V14.5C13 15.0523 12.5523 15.5 12 15.5C11.4477 15.5 11 15.0523 11 14.5V14C11 13.4196 11.2528 12.9526 11.5387 12.6191C11.8204 12.2907 12.1685 12.0482 12.4788 11.8784C12.7915 11.7072 13 11.3772 13 11C13 10.4477 12.5523 10 12 10ZM13 17C13 17.5523 12.5523 18 12 18C11.4477 18 11 17.5523 11 17C11 16.4477 11.4477 16 12 16C12.5523 16 13 16.4477 13 17Z" fill="#212529"/>
</svg>
