<svg width="24" height="24" viewBox="0 0 24 24" fill="none" xmlns="http://www.w3.org/2000/svg">
<path d="M10 7C9.44772 7 9 7.44771 9 8V18C9 18.5523 9.44772 19 10 19H14C14.5523 19 15 18.5523 15 18V8C15 7.44772 14.5523 7 14 7H10Z" fill="#212529"/>
<path fill-rule="evenodd" clip-rule="evenodd" d="M9 3C9 2.44772 9.44772 2 10 2H14C14.5523 2 15 2.44772 15 3V4C16.6569 4 18 5.34314 18 7V19C18 20.6569 16.6569 22 15 22H9C7.34315 22 6 20.6569 6 19L6 7C6 5.34315 7.34315 4 9 4L9 3ZM8 19C8 19.5523 8.44772 20 9 20H15C15.5523 20 16 19.5523 16 19V7C16 6.44772 15.5523 6 15 6L9 6C8.44772 6 8 6.44772 8 7L8 19Z" fill="#212529"/>
</svg>
