<svg width="24" height="24" viewBox="0 0 24 24" fill="none" xmlns="http://www.w3.org/2000/svg">
<path d="M14 12C14.5523 12 15 12.4477 15 13C15 13.5523 14.5523 14 14 14H10C9.44772 14 9 13.5523 9 13C9 12.4477 9.44772 12 10 12H14Z" fill="#212529"/>
<path fill-rule="evenodd" clip-rule="evenodd" d="M9 3C9 2.44772 9.44772 2 10 2H14C14.5523 2 15 2.44772 15 3L15 4C16.6569 4 18 5.34314 18 7V19C18 20.6569 16.6569 22 15 22H9C7.34315 22 6 20.6569 6 19V7C6 5.34315 7.34315 4 9 4L9 3ZM8 19C8 19.5523 8.44772 20 9 20H15C15.5523 20 16 19.5523 16 19V7C16 6.44772 15.5523 6 15 6L9 6C8.44772 6 8 6.44772 8 7L8 19Z" fill="#212529"/>
</svg>
