<svg width="24" height="24" viewBox="0 0 24 24" fill="none" xmlns="http://www.w3.org/2000/svg">
<path fill-rule="evenodd" clip-rule="evenodd" d="M10.267 2.29733C9.98203 2.00876 9.55094 1.92092 9.17574 2.07497C8.80054 2.22902 8.55556 2.59444 8.55556 3.00003V9.56445L4.71149 5.67233C4.32339 5.27939 3.69024 5.27545 3.2973 5.66355C2.90436 6.05164 2.90042 6.68479 3.28852 7.07773L8.15004 12L3.28852 16.9223C2.90042 17.3153 2.90436 17.9484 3.2973 18.3365C3.69024 18.7246 4.32339 18.7207 4.71149 18.3277L8.55556 14.4356V20.9999C8.55556 21.411 8.80717 21.7804 9.18979 21.9307C9.57242 22.0811 10.0085 21.9815 10.2884 21.6804L10.3206 21.6458L10.4161 21.5436C10.4993 21.4547 10.6199 21.3259 10.7694 21.1673C11.0686 20.8499 11.4826 20.4132 11.9423 19.9361C12.8706 18.9727 13.956 17.875 14.6631 17.2485C14.8687 17.0664 14.9903 16.8078 14.9994 16.5333C15.0086 16.2589 14.9039 15.9922 14.7109 15.7968L10.9611 12L14.7115 8.20273C15.0962 7.81324 15.0962 7.18682 14.7115 6.79733L10.267 2.29733ZM9.55556 21C8.55556 21 8.55556 20.9999 8.55556 20.9999L9.55556 21ZM10.5556 18.4929V14.4356L12.5649 16.47C11.9231 17.0885 11.1921 17.833 10.5556 18.4929ZM12.5945 7.50003L10.5556 5.43561V9.56445L12.5945 7.50003Z" fill="#212529"/>
<path d="M18.1732 7.17981C18.6262 6.86385 19.2495 6.97493 19.5655 7.4279C20.4696 8.72411 21 10.3016 21 12C21 13.6984 20.4696 15.2759 19.5655 16.5721C19.2495 17.0251 18.6262 17.1361 18.1732 16.8202C17.7202 16.5042 17.6092 15.8809 17.9251 15.4279C18.6027 14.4564 19 13.2761 19 12C19 10.7239 18.6027 9.54356 17.9251 8.5721C17.6092 8.11912 17.7202 7.49578 18.1732 7.17981Z" fill="#212529"/>
<path d="M14.3536 11.6464L15.7452 10.2548C15.8974 10.1026 16.1307 10.0671 16.2896 10.2123C16.5849 10.4822 17 11.0336 17 12C17 12.9664 16.5849 13.5178 16.2896 13.7877C16.1307 13.9329 15.8974 13.8974 15.7452 13.7452L14.3536 12.3536C14.1583 12.1583 14.1583 11.8417 14.3536 11.6464Z" fill="#212529"/>
</svg>
