<svg width="24" height="24" viewBox="0 0 24 24" fill="none" xmlns="http://www.w3.org/2000/svg">
<path fill-rule="evenodd" clip-rule="evenodd" d="M13.267 2.29733C12.982 2.00876 12.5509 1.92092 12.1757 2.07497C11.8005 2.22902 11.5556 2.59444 11.5556 3.00003V9.56445L7.71149 5.67233C7.32339 5.27939 6.69024 5.27545 6.2973 5.66355C5.90436 6.05164 5.90042 6.68479 6.28852 7.07773L11.15 12L6.28852 16.9223C5.90042 17.3153 5.90436 17.9484 6.2973 18.3365C6.69024 18.7246 7.3234 18.7207 7.71149 18.3277L11.5556 14.4356V20.9999C11.5556 21.411 11.8072 21.7804 12.1898 21.9307C12.5724 22.0811 13.0085 21.9815 13.2884 21.6804L13.3206 21.6458L13.4161 21.5436C13.4993 21.4547 13.6199 21.3259 13.7694 21.1673C14.0686 20.8499 14.4826 20.4132 14.9423 19.9361C15.8706 18.9727 16.956 17.875 17.6631 17.2485C17.8687 17.0664 17.9903 16.8078 17.9994 16.5333C18.0086 16.2589 17.9039 15.9922 17.7109 15.7968L13.9611 12L17.7115 8.20273C18.0962 7.81324 18.0962 7.18682 17.7115 6.79733L13.267 2.29733ZM13.5556 18.4929V14.4356L15.5649 16.47C14.9232 17.0885 14.1921 17.833 13.5556 18.4929ZM15.5945 7.50003L13.5556 5.43561V9.56445L15.5945 7.50003Z" fill="#212529"/>
<path d="M4.35355 11.6464L5.64645 10.3536C5.84171 10.1583 6.15829 10.1583 6.35355 10.3536L7.64645 11.6464C7.84171 11.8417 7.84171 12.1583 7.64645 12.3536L6.35355 13.6464C6.15829 13.8417 5.84171 13.8417 5.64645 13.6464L4.35355 12.3536C4.15829 12.1583 4.15829 11.8417 4.35355 11.6464Z" fill="#212529"/>
<path d="M17.3536 11.6464L18.6464 10.3536C18.8417 10.1583 19.1583 10.1583 19.3536 10.3536L20.6464 11.6464C20.8417 11.8417 20.8417 12.1583 20.6464 12.3536L19.3536 13.6464C19.1583 13.8417 18.8417 13.8417 18.6464 13.6464L17.3536 12.3536C17.1583 12.1583 17.1583 11.8417 17.3536 11.6464Z" fill="#212529"/>
</svg>
