<svg width="24" height="24" viewBox="0 0 24 24" fill="none" xmlns="http://www.w3.org/2000/svg">
<path d="M13.4 9.18568L14.8142 10.5999L18.2758 7.13828C18.9452 6.46895 18.8348 5.3546 18.0472 4.82954L13.332 1.68609C12.3352 1.02153 11 1.73612 11 2.93416V6.78566L13 8.78566V3.86842L16.4304 6.15533L13.4 9.18568Z" fill="#212529"/>
<path fill-rule="evenodd" clip-rule="evenodd" d="M5.9654 4.55109L4.70711 3.2928C4.31658 2.90227 3.68342 2.90227 3.29289 3.2928C2.90237 3.68332 2.90237 4.31649 3.29289 4.70701L10.5858 11.9999L5.29289 17.2928C4.90237 17.6833 4.90237 18.3165 5.29289 18.707C5.68342 19.0975 6.31658 19.0975 6.70711 18.707L11 14.4141V21.0656C11 22.2637 12.3352 22.9783 13.332 22.3137L17.8726 19.2867L19.2929 20.707C19.6834 21.0975 20.3166 21.0975 20.7071 20.707C21.0491 20.365 21.0916 19.8369 20.8346 19.4487L6.09289 4.70698C6.04436 4.65846 6.00186 4.60618 5.9654 4.55109ZM13 14.4141L16.4304 17.8445L13 20.1314V14.4141Z" fill="#212529"/>
</svg>
