<svg width="24" height="24" viewBox="0 0 24 24" fill="none" xmlns="http://www.w3.org/2000/svg">
<path fill-rule="evenodd" clip-rule="evenodd" d="M12.1757 2.07497C12.5509 1.92092 12.982 2.00876 13.267 2.29733L17.7115 6.79733C18.0962 7.18682 18.0962 7.81324 17.7115 8.20273L13.9611 12L17.7109 15.7968C17.9039 15.9922 18.0086 16.2589 17.9994 16.5333C17.9903 16.8078 17.8687 17.0664 17.6631 17.2485C16.956 17.875 15.8706 18.9727 14.9423 19.9361C14.4826 20.4132 14.0686 20.8499 13.7694 21.1673C13.6199 21.3259 13.4993 21.4547 13.4161 21.5436L13.3206 21.6458L13.2884 21.6804L12.5556 21C11.5556 21 11.5556 20.9999 11.5556 20.9999V14.4356L7.71149 18.3277C7.32339 18.7207 6.69024 18.7246 6.2973 18.3365C5.90436 17.9484 5.90042 17.3153 6.28852 16.9223L11.15 12L6.28852 7.07773C5.90042 6.68479 5.90436 6.05164 6.2973 5.66355C6.69024 5.27545 7.32339 5.27939 7.71149 5.67233L11.5556 9.56445V3.00003C11.5556 2.59444 11.8005 2.22902 12.1757 2.07497ZM13.5556 14.4356V18.4929C14.1921 17.833 14.9231 17.0885 15.5649 16.47L13.5556 14.4356ZM13.5556 9.56445V5.43561L15.5945 7.50003L13.5556 9.56445ZM12.5556 21L11.5556 20.9999C11.5556 21.411 11.8072 21.7804 12.1898 21.9307C12.5724 22.0811 13.0085 21.9815 13.2884 21.6804L12.5556 21Z" fill="#212529"/>
</svg>
