<svg width="24" height="24" viewBox="0 0 24 24" fill="none" xmlns="http://www.w3.org/2000/svg">
<path fill-rule="evenodd" clip-rule="evenodd" d="M6 5C6 4.44772 6.44772 4 7 4H12.5C14.9853 4 17 6.01472 17 8.5C17 9.54573 16.6433 10.5081 16.0449 11.2722C17.7692 11.9025 19 13.5575 19 15.5C19 17.9853 16.9853 20 14.5 20H7C6.44772 20 6 19.5523 6 19V5ZM8 6H12.5C13.8807 6 15 7.11929 15 8.5C15 9.88071 13.8807 11 12.5 11H8V6ZM8 13V18H14.5C15.8807 18 17 16.8807 17 15.5C17 14.1193 15.8807 13 14.5 13H8Z" fill="#212529"/>
</svg>
