<svg width="24" height="24" viewBox="0 0 24 24" fill="none" xmlns="http://www.w3.org/2000/svg">
<path fill-rule="evenodd" clip-rule="evenodd" d="M4 6C4 3.79086 5.79086 2 8 2H16C18.2091 2 20 3.79086 20 6V20.8982C20 21.8638 18.8446 22.3609 18.1435 21.6968L12.6879 16.529C12.3022 16.1636 11.6981 16.1637 11.3124 16.5291L5.85657 21.6984C5.15552 22.3627 4 21.8657 4 20.8999V6ZM8 4C6.89543 4 6 4.89543 6 6V18.8074L9.93681 15.0773C11.0938 13.981 12.9061 13.9809 14.0633 15.077L18 18.806V6C18 4.89543 17.1046 4 16 4H8Z" fill="#212529"/>
</svg>
