<?xml version="1.0" encoding="UTF-8"?>
<svg xmlns="http://www.w3.org/2000/svg" width="24" height="24" viewBox="0 0 24 24" fill="none"><path d="M0 14.2169C0 15.5446 1.1096 16.5251 2.25557 16.1983C3.14689 15.9429 4.09277 15.8306 5.00227 15.8306C6.4211 15.8306 7.93088 16.0961 9.14961 16.7702C9.69532 17.0766 10.3138 17.0766 10.8504 16.7702C12.0691 16.0859 13.5789 15.8306 14.9977 15.8306C15.9072 15.8306 16.8531 15.9429 17.7444 16.1983C18.8904 16.5353 20 15.5548 20 14.2169L20 2.6963C20 1.86903 19.5543 1.14389 18.8904 0.806849C17.7262 0.224692 16.3256 0 15.0068 0C13.2333 0 11.3233 0.408531 10.0045 1.53199C8.68577 0.408531 6.77581 0 5.00227 0C3.68349 0 2.28286 0.224692 1.1096 0.806849C0.445657 1.14389 0 1.86903 0 2.6963L0 14.2169ZM9.125 3.31233L8.8206 3.05302C7.98146 2.33816 6.57885 1.96154 5.00227 1.96154C3.86407 1.96154 2.76774 2.15876 1.92646 2.57255C1.91395 2.58021 1.875 2.6156 1.875 2.6963L1.875 14.2169C1.875 14.2393 1.8773 14.2578 1.88064 14.2727C2.91938 13.9887 3.99075 13.869 5.00227 13.869C6.31067 13.869 7.77474 14.0648 9.125 14.6088L9.125 3.31233ZM11 14.5555C12.3219 14.0439 13.739 13.869 14.9977 13.869C16.0095 13.869 17.0811 13.9887 18.12 14.2729C18.123 14.2576 18.125 14.239 18.125 14.2169L18.125 2.6963C18.125 2.61428 18.0848 2.57907 18.0729 2.57219C17.2437 2.15999 16.1487 1.96154 15.0068 1.96154C13.4302 1.96154 12.0276 2.33816 11.1885 3.05302L11 3.2136L11 14.5555Z" transform="translate(2 4)" fill="#212529" fill-rule="evenodd" opacity="1" /></svg>
