<svg width="24" height="24" viewBox="0 0 24 24" fill="none" xmlns="http://www.w3.org/2000/svg">
<path fill-rule="evenodd" clip-rule="evenodd" d="M11.6464 4.76769C11.8416 4.57243 12.1582 4.57243 12.3535 4.76769L14.0753 6.48953C14.1691 6.58329 14.2963 6.63597 14.4289 6.63597H16.8639C17.14 6.63597 17.3639 6.85983 17.3639 7.13597V9.571C17.3639 9.70361 17.4166 9.83078 17.5104 9.92455L19.2322 11.6464C19.4274 11.8416 19.4274 12.1582 19.2322 12.3535L17.5104 14.0753C17.4166 14.1691 17.3639 14.2963 17.3639 14.4289V16.8639C17.3639 17.1401 17.14 17.3639 16.8639 17.3639H14.4289C14.2963 17.3639 14.1691 17.4166 14.0753 17.5104L12.3535 19.2322C12.1582 19.4274 11.8416 19.4274 11.6464 19.2322L9.92456 17.5104C9.83079 17.4166 9.70361 17.3639 9.57101 17.3639H7.13596C6.85982 17.3639 6.63596 17.1401 6.63596 16.8639L6.63596 14.4289C6.63596 14.2963 6.58329 14.1691 6.48952 14.0753L4.76769 12.3535C4.57243 12.1582 4.57243 11.8416 4.76769 11.6464L6.48952 9.92456C6.58329 9.83079 6.63596 9.70361 6.63596 9.571V7.13597C6.63596 6.85983 6.85982 6.63597 7.13596 6.63597L9.571 6.63597C9.7036 6.63597 9.83078 6.58329 9.92455 6.48952L11.6464 4.76769ZM13.0606 2.64637C12.4748 2.06059 11.5251 2.06058 10.9393 2.64637L8.94968 4.63597L6.13596 4.63597C5.30754 4.63597 4.63596 5.30755 4.63596 6.13597L4.63596 8.94968L2.64637 10.9393C2.06058 11.5251 2.06059 12.4748 2.64637 13.0606L4.63596 15.0502L4.63596 17.8639C4.63596 18.6923 5.30754 19.3639 6.13596 19.3639H8.94969L10.9393 21.3535C11.5251 21.9393 12.4748 21.9393 13.0606 21.3535L15.0502 19.3639H17.8639C18.6923 19.3639 19.3639 18.6923 19.3639 17.8639V15.0502L21.3535 13.0606C21.9393 12.4748 21.9393 11.5251 21.3535 10.9393L19.3639 8.94968V6.13597C19.3639 5.30754 18.6923 4.63597 17.8639 4.63597L15.0502 4.63597L13.0606 2.64637ZM14.9999 13C15.5522 13 15.9999 12.5523 15.9999 12C15.9999 11.4477 15.5522 11 14.9999 11H8.99994C8.44765 11 7.99994 11.4477 7.99994 12C7.99994 12.5523 8.44765 13 8.99994 13H14.9999Z" fill="#212529"/>
</svg>
