<svg width="24" height="24" viewBox="0 0 24 24" fill="none" xmlns="http://www.w3.org/2000/svg">
<path fill-rule="evenodd" clip-rule="evenodd" d="M12.3536 4.76769C12.1583 4.57243 11.8417 4.57243 11.6464 4.76769L9.92461 6.48952C9.83084 6.58329 9.70367 6.63597 9.57106 6.63597L7.13603 6.63597C6.85988 6.63597 6.63603 6.85983 6.63603 7.13597V9.571C6.63603 9.70361 6.58335 9.83079 6.48958 9.92456L4.76775 11.6464C4.57249 11.8416 4.57249 12.1582 4.76775 12.3535L6.48958 14.0753C6.58335 14.1691 6.63603 14.2963 6.63603 14.4289L6.63603 16.8639C6.63603 17.1401 6.85988 17.3639 7.13602 17.3639H9.57107C9.70367 17.3639 9.83085 17.4166 9.92462 17.5104L11.6464 19.2322C11.8417 19.4274 12.1583 19.4274 12.3536 19.2322L14.0754 17.5104C14.1691 17.4166 14.2963 17.3639 14.4289 17.3639H16.864C17.1401 17.3639 17.364 17.1401 17.364 16.8639V14.4289C17.364 14.2963 17.4166 14.1691 17.5104 14.0753L19.2322 12.3535C19.4275 12.1582 19.4275 11.8416 19.2322 11.6464L17.5104 9.92455C17.4166 9.83078 17.364 9.70361 17.364 9.571V7.13597C17.364 6.85983 17.1401 6.63597 16.864 6.63597H14.4289C14.2963 6.63597 14.1692 6.58329 14.0754 6.48953L12.3536 4.76769ZM10.9393 2.64637C11.5251 2.06058 12.4749 2.06059 13.0607 2.64637L15.0503 4.63597L17.864 4.63597C18.6924 4.63597 19.364 5.30754 19.364 6.13597V8.94968L21.3536 10.9393C21.9393 11.5251 21.9394 12.4748 21.3536 13.0606L19.364 15.0502V17.8639C19.364 18.6923 18.6924 19.3639 17.864 19.3639H15.0502L13.0607 21.3535C12.4749 21.9393 11.5251 21.9393 10.9393 21.3535L8.94975 19.3639H6.13603C5.3076 19.3639 4.63603 18.6923 4.63603 17.8639L4.63603 15.0502L2.64643 13.0606C2.06065 12.4748 2.06064 11.5251 2.64643 10.9393L4.63603 8.94968L4.63603 6.13597C4.63603 5.30755 5.3076 4.63597 6.13603 4.63597L8.94974 4.63597L10.9393 2.64637ZM9.29289 9.29289C9.68342 8.90237 10.3166 8.90237 10.7071 9.29289L12 10.5858L13.2929 9.29289C13.6834 8.90237 14.3166 8.90237 14.7071 9.29289C15.0976 9.68342 15.0976 10.3166 14.7071 10.7071L13.4142 12L14.7071 13.2929C15.0976 13.6834 15.0976 14.3166 14.7071 14.7071C14.3166 15.0976 13.6834 15.0976 13.2929 14.7071L12 13.4142L10.7071 14.7071C10.3166 15.0976 9.68342 15.0976 9.29289 14.7071C8.90237 14.3166 8.90237 13.6834 9.29289 13.2929L10.5858 12L9.29289 10.7071C8.90237 10.3166 8.90237 9.68342 9.29289 9.29289Z" fill="#212529"/>
</svg>
