<svg width="24" height="24" viewBox="0 0 24 24" fill="none" xmlns="http://www.w3.org/2000/svg">
<path fill-rule="evenodd" clip-rule="evenodd" d="M13.0606 2.64637C12.4748 2.06059 11.5251 2.06058 10.9393 2.64637L8.94968 4.63597L6.13596 4.63597C5.30754 4.63597 4.63596 5.30755 4.63596 6.13597L4.63596 8.94968L2.64637 10.9393C2.06058 11.5251 2.06059 12.4748 2.64637 13.0606L4.63596 15.0502L4.63596 17.8639C4.63596 18.6923 5.30754 19.3639 6.13596 19.3639H8.94969L10.9393 21.3535C11.5251 21.9393 12.4748 21.9393 13.0606 21.3535L15.0502 19.3639H17.8639C18.6923 19.3639 19.3639 18.6923 19.3639 17.8639V15.0502L21.3535 13.0606C21.9393 12.4748 21.9393 11.5251 21.3535 10.9393L19.3639 8.94968V6.13597C19.3639 5.30754 18.6923 4.63597 17.8639 4.63597L15.0502 4.63597L13.0606 2.64637ZM14.9999 13C15.5522 13 15.9999 12.5523 15.9999 12C15.9999 11.4477 15.5522 11 14.9999 11H8.99994C8.44765 11 7.99994 11.4477 7.99994 12C7.99994 12.5523 8.44765 13 8.99994 13H14.9999Z" fill="#212529"/>
</svg>
