<svg width="24" height="24" viewBox="0 0 24 24" fill="none" xmlns="http://www.w3.org/2000/svg">
<path fill-rule="evenodd" clip-rule="evenodd" d="M13.0607 2.64637C12.4749 2.06059 11.5251 2.06058 10.9393 2.64637L8.94974 4.63597L6.13603 4.63597C5.3076 4.63597 4.63603 5.30755 4.63603 6.13597L4.63603 8.94968L2.64643 10.9393C2.06064 11.5251 2.06065 12.4748 2.64643 13.0606L4.63603 15.0502L4.63603 17.8639C4.63603 18.6923 5.3076 19.3639 6.13603 19.3639H8.94975L10.9393 21.3535C11.5251 21.9393 12.4749 21.9393 13.0607 21.3535L15.0502 19.3639H17.864C18.6924 19.3639 19.364 18.6923 19.364 17.8639V15.0502L21.3536 13.0606C21.9394 12.4748 21.9393 11.5251 21.3536 10.9393L19.364 8.94968V6.13597C19.364 5.30754 18.6924 4.63597 17.864 4.63597L15.0503 4.63597L13.0607 2.64637ZM12 7C12.4 7 12.7616 7.2384 12.9191 7.60608L15.9191 14.6061C16.1367 15.1137 15.9016 15.7016 15.3939 15.9191C14.8863 16.1367 14.2984 15.9015 14.0809 15.3939L13.4835 14H10.5165L9.91915 15.3939C9.70159 15.9015 9.11371 16.1367 8.60608 15.9191C8.09845 15.7016 7.8633 15.1137 8.08086 14.6061L11.0809 7.60608C11.2384 7.2384 11.6 7 12 7ZM12 10.5386L12.6263 12H11.3737L12 10.5386Z" fill="#212529"/>
</svg>
