<svg width="24" height="24" viewBox="0 0 24 24" fill="none" xmlns="http://www.w3.org/2000/svg">
<path fill-rule="evenodd" clip-rule="evenodd" d="M11.6464 4.76769C11.8417 4.57243 12.1583 4.57243 12.3536 4.76769L14.0754 6.48953C14.1692 6.58329 14.2963 6.63597 14.4289 6.63597H16.864C17.1401 6.63597 17.364 6.85983 17.364 7.13597V9.571C17.364 9.70361 17.4166 9.83078 17.5104 9.92455L19.2322 11.6464C19.4275 11.8416 19.4275 12.1582 19.2322 12.3535L17.5104 14.0753C17.4166 14.1691 17.364 14.2963 17.364 14.4289V16.8639C17.364 17.1401 17.1401 17.3639 16.864 17.3639H14.4289C14.2963 17.3639 14.1691 17.4166 14.0754 17.5104L12.3536 19.2322C12.1583 19.4274 11.8417 19.4274 11.6464 19.2322L9.92462 17.5104C9.83085 17.4166 9.70367 17.3639 9.57107 17.3639H7.13602C6.85988 17.3639 6.63603 17.1401 6.63603 16.8639L6.63603 14.4289C6.63603 14.2963 6.58335 14.1691 6.48958 14.0753L4.76775 12.3535C4.57249 12.1582 4.57249 11.8416 4.76775 11.6464L6.48958 9.92456C6.58335 9.83079 6.63603 9.70361 6.63603 9.571V7.13597C6.63603 6.85983 6.85988 6.63597 7.13603 6.63597L9.57106 6.63597C9.70367 6.63597 9.83084 6.58329 9.92461 6.48952L11.6464 4.76769ZM13.0607 2.64637C12.4749 2.06059 11.5251 2.06058 10.9393 2.64637L8.94974 4.63597L6.13603 4.63597C5.3076 4.63597 4.63603 5.30755 4.63603 6.13597L4.63603 8.94968L2.64643 10.9393C2.06064 11.5251 2.06065 12.4748 2.64643 13.0606L4.63603 15.0502L4.63603 17.8639C4.63603 18.6923 5.3076 19.3639 6.13603 19.3639H8.94975L10.9393 21.3535C11.5251 21.9393 12.4749 21.9393 13.0607 21.3535L15.0502 19.3639H17.864C18.6924 19.3639 19.364 18.6923 19.364 17.8639V15.0502L21.3536 13.0606C21.9394 12.4748 21.9393 11.5251 21.3536 10.9393L19.364 8.94968V6.13597C19.364 5.30754 18.6924 4.63597 17.864 4.63597L15.0503 4.63597L13.0607 2.64637ZM9 12C9 10.3431 10.3431 9 12 9C13.6569 9 15 10.3431 15 12C15 13.6569 13.6569 15 12 15C10.3431 15 9 13.6569 9 12ZM12 7C9.23857 7 7 9.23858 7 12C7 14.7614 9.23857 17 12 17C14.7614 17 17 14.7614 17 12C17 9.23858 14.7614 7 12 7Z" fill="#212529"/>
</svg>
