<svg width="24" height="24" viewBox="0 0 24 24" fill="none" xmlns="http://www.w3.org/2000/svg">
<path fill-rule="evenodd" clip-rule="evenodd" d="M8 2C8 1.44772 7.55228 1 7 1C6.44772 1 6 1.44772 6 2V3H5C3.34315 3 2 4.34315 2 6V19C2 20.6569 3.34315 22 5 22H19C20.6569 22 22 20.6569 22 19V6C22 4.34315 20.6569 3 19 3H18V2C18 1.44772 17.5523 1 17 1C16.4477 1 16 1.44772 16 2V3H8V2ZM19 5C19.5523 5 20 5.44772 20 6V8H4V6C4 5.44772 4.44772 5 5 5H19ZM7 12C6.44772 12 6 12.4477 6 13V16C6 16.5523 6.44772 17 7 17H10C10.5523 17 11 16.5523 11 16V13C11 12.4477 10.5523 12 10 12H7Z" fill="#212529"/>
</svg>
