<svg width="24" height="24" viewBox="0 0 24 24" fill="none" xmlns="http://www.w3.org/2000/svg">
<path d="M6.5 12C6.22386 12 6 12.2239 6 12.5V13.5C6 13.7761 6.22386 14 6.5 14H7.5C7.77614 14 8 13.7761 8 13.5V12.5C8 12.2239 7.77614 12 7.5 12H6.5Z" fill="#212529"/>
<path d="M6 16.5C6 16.2239 6.22386 16 6.5 16H7.5C7.77614 16 8 16.2239 8 16.5V17.5C8 17.7761 7.77614 18 7.5 18H6.5C6.22386 18 6 17.7761 6 17.5V16.5Z" fill="#212529"/>
<path d="M11.5 12C11.2239 12 11 12.2239 11 12.5V13.5C11 13.7761 11.2239 14 11.5 14H12.5C12.7761 14 13 13.7761 13 13.5V12.5C13 12.2239 12.7761 12 12.5 12H11.5Z" fill="#212529"/>
<path d="M11 16.5C11 16.2239 11.2239 16 11.5 16H12.5C12.7761 16 13 16.2239 13 16.5V17.5C13 17.7761 12.7761 18 12.5 18H11.5C11.2239 18 11 17.7761 11 17.5V16.5Z" fill="#212529"/>
<path d="M16.5 12C16.2239 12 16 12.2239 16 12.5V13.5C16 13.7761 16.2239 14 16.5 14H17.5C17.7761 14 18 13.7761 18 13.5V12.5C18 12.2239 17.7761 12 17.5 12H16.5Z" fill="#212529"/>
<path fill-rule="evenodd" clip-rule="evenodd" d="M8 2C8 1.44772 7.55228 1 7 1C6.44772 1 6 1.44772 6 2V3C3.79086 3 2 4.79086 2 7V18C2 20.2091 3.79086 22 6 22H18C20.2091 22 22 20.2091 22 18V7C22 4.79086 20.2091 3 18 3V2C18 1.44772 17.5523 1 17 1C16.4477 1 16 1.44772 16 2V3H8V2ZM18 5C19.1046 5 20 5.89543 20 7V8H4V7C4 5.89543 4.89543 5 6 5H18ZM4 18V10H20V18C20 19.1046 19.1046 20 18 20H6C4.89543 20 4 19.1046 4 18Z" fill="#212529"/>
</svg>
