<svg width="24" height="24" viewBox="0 0 24 24" fill="none" xmlns="http://www.w3.org/2000/svg">
<path d="M9.29289 12.2929C9.68342 11.9024 10.3166 11.9024 10.7071 12.2929L12 13.5858L13.2929 12.2929C13.6834 11.9024 14.3166 11.9024 14.7071 12.2929C15.0976 12.6834 15.0976 13.3166 14.7071 13.7071L13.4142 15L14.7071 16.2929C15.0976 16.6834 15.0976 17.3166 14.7071 17.7071C14.3166 18.0976 13.6834 18.0976 13.2929 17.7071L12 16.4142L10.7071 17.7071C10.3166 18.0976 9.68342 18.0976 9.29289 17.7071C8.90237 17.3166 8.90237 16.6834 9.29289 16.2929L10.5858 15L9.29289 13.7071C8.90237 13.3166 8.90237 12.6834 9.29289 12.2929Z" fill="#212529"/>
<path fill-rule="evenodd" clip-rule="evenodd" d="M7 1C7.55228 1 8 1.44772 8 2V3H16V2C16 1.44772 16.4477 1 17 1C17.5523 1 18 1.44772 18 2V3H19C20.6569 3 22 4.34315 22 6V19C22 20.6569 20.6569 22 19 22H5C3.34315 22 2 20.6569 2 19V6C2 4.34315 3.34315 3 5 3H6V2C6 1.44772 6.44772 1 7 1ZM5 5C4.44772 5 4 5.44772 4 6V8H20V6C20 5.44772 19.5523 5 19 5H5ZM4 10V19C4 19.5523 4.44772 20 5 20H19C19.5523 20 20 19.5523 20 19V10H4Z" fill="#212529"/>
</svg>
