<svg width="24" height="24" viewBox="0 0 24 24" fill="none" xmlns="http://www.w3.org/2000/svg">
<path fill-rule="evenodd" clip-rule="evenodd" d="M8 2C8 1.44772 7.55228 1 7 1C6.44772 1 6 1.44772 6 2V3C3.79086 3 2 4.79086 2 7V18C2 20.2091 3.79086 22 6 22H18C20.2091 22 22 20.2091 22 18V7C22 4.79086 20.2091 3 18 3V2C18 1.44772 17.5523 1 17 1C16.4477 1 16 1.44772 16 2V3H8V2ZM18 5C19.1046 5 20 5.89543 20 7V8H4V7C4 5.89543 4.89543 5 6 5H18ZM6 13C6 12.4477 6.44772 12 7 12H17C17.5523 12 18 12.4477 18 13C18 13.5523 17.5523 14 17 14H7C6.44772 14 6 13.5523 6 13ZM6 17C6 16.4477 6.44772 16 7 16H11C11.5523 16 12 16.4477 12 17C12 17.5523 11.5523 18 11 18H7C6.44772 18 6 17.5523 6 17Z" fill="#212529"/>
</svg>
