<svg width="24" height="24" viewBox="0 0 24 24" fill="none" xmlns="http://www.w3.org/2000/svg">
<path d="M13.7171 17.7071C13.5206 17.9036 13.2626 18.0013 13.005 18C12.7474 18.0013 12.4894 17.9036 12.2929 17.7071C11.9024 17.3166 11.9024 16.6834 12.2929 16.2929L12.5858 16H9C8.44772 16 8 15.5523 8 15C8 14.4477 8.44772 14 9 14H12.5858L12.2929 13.7071C11.9024 13.3166 11.9024 12.6834 12.2929 12.2929C12.4894 12.0964 12.7474 11.9987 13.005 12C13.2626 11.9987 13.5206 12.0964 13.7171 12.2929L15.7171 14.2929C16.1076 14.6834 16.1076 15.3166 15.7171 15.7071L13.7171 17.7071Z" fill="#212529"/>
<path fill-rule="evenodd" clip-rule="evenodd" d="M8 2C8 1.44772 7.55228 1 7 1C6.44772 1 6 1.44772 6 2V3H5C3.34315 3 2 4.34315 2 6V19C2 20.6569 3.34315 22 5 22H19C20.6569 22 22 20.6569 22 19V6C22 4.34315 20.6569 3 19 3H18V2C18 1.44772 17.5523 1 17 1C16.4477 1 16 1.44772 16 2V3H8V2ZM19 5C19.5523 5 20 5.44772 20 6V8H4V6C4 5.44772 4.44772 5 5 5H19ZM4 19V10H20V19C20 19.5523 19.5523 20 19 20H5C4.44772 20 4 19.5523 4 19Z" fill="#212529"/>
</svg>
