<svg width="24" height="24" viewBox="0 0 24 24" fill="none" xmlns="http://www.w3.org/2000/svg">
<path fill-rule="evenodd" clip-rule="evenodd" d="M8 2C8 1.44772 7.55228 1 7 1C6.44772 1 6 1.44772 6 2V3H5C3.34315 3 2 4.34315 2 6V19C2 20.6569 3.34315 22 5 22H19C20.6569 22 22 20.6569 22 19V6C22 4.34315 20.6569 3 19 3H18V2C18 1.44772 17.5523 1 17 1C16.4477 1 16 1.44772 16 2V3H8V2ZM9 9C9 7.34315 10.3431 6 12 6C13.6569 6 15 7.34315 15 9C15 10.6569 13.6569 12 12 12C10.3431 12 9 10.6569 9 9ZM6.05025 17.3483C6.45539 14.7397 9.12209 13 12 13C14.8779 13 17.5446 14.7397 17.9497 17.3483C18.1025 18.3319 17.2789 19 16.5 19H7.49999C6.72107 19 5.89748 18.3319 6.05025 17.3483Z" fill="#212529"/>
</svg>
