<svg width="24" height="24" viewBox="0 0 24 24" fill="none" xmlns="http://www.w3.org/2000/svg">
<path fill-rule="evenodd" clip-rule="evenodd" d="M9 9C9 7.34315 10.3431 6 12 6C13.6569 6 15 7.34315 15 9C15 10.6569 13.6569 12 12 12C10.3431 12 9 10.6569 9 9ZM12 8C11.4477 8 11 8.44772 11 9C11 9.55228 11.4477 10 12 10C12.5523 10 13 9.55228 13 9C13 8.44772 12.5523 8 12 8Z" fill="#212529"/>
<path fill-rule="evenodd" clip-rule="evenodd" d="M12 13C9.1221 13 6.4554 14.7397 6.05026 17.3483C5.89749 18.3319 6.72108 19 7.5 19H16.5C17.2789 19 18.1025 18.3319 17.9497 17.3483C17.5446 14.7397 14.8779 13 12 13ZM12 15C13.8564 15 15.238 15.9174 15.7645 17H8.23555C8.76203 15.9174 10.1436 15 12 15Z" fill="#212529"/>
<path fill-rule="evenodd" clip-rule="evenodd" d="M7 1C7.55228 1 8 1.44772 8 2V3H16V2C16 1.44772 16.4477 1 17 1C17.5523 1 18 1.44772 18 2V3H19C20.6569 3 22 4.34315 22 6V19C22 20.6569 20.6569 22 19 22H5C3.34315 22 2 20.6569 2 19V6C2 4.34315 3.34315 3 5 3H6V2C6 1.44772 6.44772 1 7 1ZM5 5C4.44772 5 4 5.44772 4 6V19C4 19.5523 4.44772 20 5 20H19C19.5523 20 20 19.5523 20 19V6C20 5.44772 19.5523 5 19 5H5Z" fill="#212529"/>
</svg>
