<svg width="24" height="24" viewBox="0 0 24 24" fill="none" xmlns="http://www.w3.org/2000/svg">
<path fill-rule="evenodd" clip-rule="evenodd" d="M7 1C7.55228 1 8 1.44772 8 2V3H16V2C16 1.44772 16.4477 1 17 1C17.5523 1 18 1.44772 18 2V3H19C20.6569 3 22 4.34315 22 6V19C22 20.6569 20.6569 22 19 22H5C3.34315 22 2 20.6569 2 19V6C2 4.34315 3.34315 3 5 3H6V2C6 1.44772 6.44772 1 7 1ZM5 5C4.44772 5 4 5.44772 4 6V8H20V6C20 5.44772 19.5523 5 19 5H5ZM8 15C8 14.4477 8.44772 14 9 14H12.6858L12.3929 13.7071C12.0024 13.3166 12.0024 12.6834 12.3929 12.2929C12.7834 11.9024 13.4166 11.9024 13.8071 12.2929L15.8071 14.2929C16.1976 14.6834 16.1976 15.3166 15.8071 15.7071L13.8071 17.7071C13.4166 18.0976 12.7834 18.0976 12.3929 17.7071C12.0024 17.3166 12.0024 16.6834 12.3929 16.2929L12.6858 16H9C8.44772 16 8 15.5523 8 15Z" fill="#212529"/>
</svg>
