<svg width="24" height="24" viewBox="0 0 24 24" fill="none" xmlns="http://www.w3.org/2000/svg">
<path fill-rule="evenodd" clip-rule="evenodd" d="M8 2C8 1.44772 7.55228 1 7 1C6.44772 1 6 1.44772 6 2V3C3.79086 3 2 4.79086 2 7V18C2 20.2091 3.79086 22 6 22H18C20.2091 22 22 20.2091 22 18V7C22 4.79086 20.2091 3 18 3V2C18 1.44772 17.5523 1 17 1C16.4477 1 16 1.44772 16 2V3H8V2ZM18 5C19.1046 5 20 5.89543 20 7V8H4V7C4 5.89543 4.89543 5 6 5H18ZM6.5 12C6.22386 12 6 12.2239 6 12.5V13.5C6 13.7761 6.22386 14 6.5 14H7.5C7.77614 14 8 13.7761 8 13.5V12.5C8 12.2239 7.77614 12 7.5 12H6.5ZM6.5 16C6.22386 16 6 16.2239 6 16.5V17.5C6 17.7761 6.22386 18 6.5 18H7.5C7.77614 18 8 17.7761 8 17.5V16.5C8 16.2239 7.77614 16 7.5 16H6.5ZM11 12.5C11 12.2239 11.2239 12 11.5 12H12.5C12.7761 12 13 12.2239 13 12.5V13.5C13 13.7761 12.7761 14 12.5 14H11.5C11.2239 14 11 13.7761 11 13.5V12.5ZM11.5 16C11.2239 16 11 16.2239 11 16.5V17.5C11 17.7761 11.2239 18 11.5 18H12.5C12.7761 18 13 17.7761 13 17.5V16.5C13 16.2239 12.7761 16 12.5 16H11.5ZM16 12.5C16 12.2239 16.2239 12 16.5 12H17.5C17.7761 12 18 12.2239 18 12.5V13.5C18 13.7761 17.7761 14 17.5 14H16.5C16.2239 14 16 13.7761 16 13.5V12.5Z" fill="#212529"/>
</svg>
