<svg width="24" height="24" viewBox="0 0 24 24" fill="none" xmlns="http://www.w3.org/2000/svg">
<path fill-rule="evenodd" clip-rule="evenodd" d="M7 1C7.55228 1 8 1.44772 8 2V3L16 3V2C16 1.44772 16.4477 1 17 1C17.5523 1 18 1.44772 18 2V3H19C20.6569 3 22 4.34315 22 6V19C22 20.6569 20.6569 22 19 22H5C3.34315 22 2 20.6569 2 19L2 6C2 4.34315 3.34315 3 5 3H6V2C6 1.44772 6.44772 1 7 1Z" fill="#212529"/>
<path d="M11.389 17V15.608H7.75303V15.452L9.28903 13.868C10.681 12.428 11.149 11.732 11.149 10.808C11.149 9.392 10.057 8.456 8.36503 8.456C6.69703 8.456 5.54503 9.476 5.46103 11.012H6.96103C7.03303 10.232 7.58503 9.8 8.38903 9.8C9.16903 9.8 9.64903 10.208 9.64903 10.904C9.64903 11.348 9.44503 11.744 8.38903 12.848L5.52103 15.812V17H11.389ZM16.0691 11.66L18.0371 9.848V8.6H12.6731V9.968H16.1291L14.1011 11.804V12.956H15.1211C16.3571 12.956 16.9091 13.532 16.9091 14.336C16.9091 15.236 16.2371 15.8 15.3851 15.8C14.6291 15.8 13.9091 15.404 13.8371 14.504H12.3371C12.3971 15.884 13.4291 17.144 15.3851 17.144C17.4851 17.144 18.4211 15.692 18.4211 14.324C18.4211 12.884 17.3771 11.888 16.0691 11.792V11.66Z" fill="white"/>
</svg>
