<svg width="24" height="24" viewBox="0 0 24 24" fill="none" xmlns="http://www.w3.org/2000/svg">
<path fill-rule="evenodd" clip-rule="evenodd" d="M7 1C7.55228 1 8 1.44772 8 2V3L16 3V2C16 1.44772 16.4477 1 17 1C17.5523 1 18 1.44772 18 2V3H19C20.6569 3 22 4.34315 22 6V19C22 20.6569 20.6569 22 19 22H5C3.34315 22 2 20.6569 2 19L2 6C2 4.34315 3.34315 3 5 3H6V2C6 1.44772 6.44772 1 7 1ZM7 5L17 5H19C19.5523 5 20 5.44772 20 6V8V10V19C20 19.5523 19.5523 20 19 20H5C4.44772 20 4 19.5523 4 19L4 10V8V6C4 5.44772 4.44772 5 5 5H7Z" fill="#212529"/>
<path d="M5.52103 17V15.812L8.38903 12.848C8.89303 12.32 9.22903 11.924 9.39703 11.66C9.56503 11.388 9.64903 11.136 9.64903 10.904C9.64903 10.56 9.53703 10.292 9.31303 10.1C9.08903 9.9 8.78103 9.8 8.38903 9.8C7.98103 9.8 7.64903 9.908 7.39303 10.124C7.13703 10.332 6.99303 10.628 6.96103 11.012H5.46103C5.48503 10.508 5.62103 10.064 5.86903 9.68C6.12503 9.288 6.46503 8.988 6.88903 8.78C7.32103 8.564 7.81303 8.456 8.36503 8.456C8.92503 8.456 9.41303 8.556 9.82903 8.756C10.253 8.948 10.577 9.22 10.801 9.572C11.033 9.924 11.149 10.336 11.149 10.808C11.149 11.12 11.089 11.416 10.969 11.696C10.857 11.976 10.669 12.284 10.405 12.62C10.149 12.948 9.77703 13.364 9.28903 13.868L7.75303 15.452V15.608H11.389V17H5.52103ZM16.0691 11.792C16.5091 11.824 16.9051 11.952 17.2571 12.176C17.6171 12.392 17.9011 12.688 18.1091 13.064C18.3171 13.432 18.4211 13.852 18.4211 14.324C18.4211 14.804 18.3091 15.26 18.0851 15.692C17.8611 16.124 17.5211 16.476 17.0651 16.748C16.6091 17.012 16.0491 17.144 15.3851 17.144C14.7611 17.144 14.2211 17.024 13.7651 16.784C13.3171 16.544 12.9731 16.224 12.7331 15.824C12.4931 15.416 12.3611 14.976 12.3371 14.504H13.8371C13.8691 14.928 14.0331 15.252 14.3291 15.476C14.6251 15.692 14.9771 15.8 15.3851 15.8C15.8251 15.8 16.1891 15.668 16.4771 15.404C16.7651 15.132 16.9091 14.776 16.9091 14.336C16.9091 13.912 16.7571 13.576 16.4531 13.328C16.1571 13.08 15.7131 12.956 15.1211 12.956H14.1011V11.804L16.1291 9.968H12.6731V8.6H18.0371V9.848L16.0691 11.66V11.792Z" fill="#212529"/>
</svg>
