<svg width="24" height="24" viewBox="0 0 24 24" fill="none" xmlns="http://www.w3.org/2000/svg">
<path fill-rule="evenodd" clip-rule="evenodd" d="M19.0004 13.4925H17.8638V19.9914C17.8638 21.096 16.9683 21.9914 15.8638 21.9914H8.14052C7.03595 21.9914 6.14053 21.096 6.14053 19.9914L6.14053 13.4925H5.00397C3.25485 13.4925 2.34843 11.4056 3.54236 10.1274L10.5406 2.63482C11.3312 1.78839 12.6732 1.78839 13.4638 2.63482L20.462 10.1274C21.656 11.4056 20.7495 13.4925 19.0004 13.4925ZM9.24768 17.9966C8.6954 17.9966 8.24768 18.4459 8.24768 18.9982C8.24768 19.5505 8.6954 19.9998 9.24768 19.9998H14.7523C15.3046 19.9998 15.7523 19.5505 15.7523 18.9982C15.7523 18.4459 15.3046 17.9966 14.7523 17.9966H9.24768Z" fill="#212529"/>
</svg>
