<svg width="24" height="24" viewBox="0 0 24 24" fill="none" xmlns="http://www.w3.org/2000/svg">
<path fill-rule="evenodd" clip-rule="evenodd" d="M22 8C22 9.65685 20.6569 11 19 11L5 11C3.34315 11 2 9.65685 2 8V5C2 3.34315 3.34315 2 5 2H19C20.6569 2 22 3.34315 22 5V8ZM19 9C19.5523 9 20 8.55228 20 8V5C20 4.44772 19.5523 4 19 4L5 4C4.44772 4 4 4.44772 4 5L4 8C4 8.55228 4.44772 9 5 9L19 9Z" fill="#212529"/>
<path fill-rule="evenodd" clip-rule="evenodd" d="M22 19C22 20.6569 20.6569 22 19 22H5C3.34315 22 2 20.6569 2 19V16C2 14.3431 3.34315 13 5 13L19 13C20.6569 13 22 14.3431 22 16V19ZM19 20C19.5523 20 20 19.5523 20 19V16C20 15.4477 19.5523 15 19 15L5 15C4.44772 15 4 15.4477 4 16L4 19C4 19.5523 4.44772 20 5 20H19Z" fill="#212529"/>
</svg>
