<svg width="24" height="24" viewBox="0 0 24 24" fill="none" xmlns="http://www.w3.org/2000/svg">
<path d="M2 3C2 3.55229 2.44772 4 3 4L21 4C21.5523 4 22 3.55228 22 3C22 2.44772 21.5523 2 21 2H3C2.44772 2 2 2.44772 2 3Z" fill="#212529"/>
<path fill-rule="evenodd" clip-rule="evenodd" d="M19 18C20.6569 18 22 16.6569 22 15V9C22 7.34315 20.6569 6 19 6L5 6C3.34315 6 2 7.34315 2 9V15C2 16.6569 3.34315 18 5 18H19ZM20 15C20 15.5523 19.5523 16 19 16L5 16C4.44772 16 4 15.5523 4 15L4 9C4 8.44772 4.44772 8 5 8L19 8C19.5523 8 20 8.44772 20 9V15Z" fill="#212529"/>
<path d="M3 22C2.44772 22 2 21.5523 2 21C2 20.4477 2.44772 20 3 20H21C21.5523 20 22 20.4477 22 21C22 21.5523 21.5523 22 21 22H3Z" fill="#212529"/>
</svg>
