<?xml version="1.0" encoding="UTF-8"?>
<svg xmlns="http://www.w3.org/2000/svg" width="24" height="24" viewBox="0 0 24 24" fill="none"><path d="M4.17399 0L5.10935 -0.353692C4.96399 -0.73813 4.5982 -0.994473 4.18723 -0.999912C3.77626 -1.00535 3.40381 -0.758781 3.24832 -0.378326L4.17399 0ZM-0.925672 9.83443C-1.13462 10.3457 -0.889561 10.9295 -0.378326 11.1384C0.132909 11.3474 0.716729 11.1023 0.925672 10.5911L-0.925672 9.83443ZM7.10042 10.5664C7.29575 11.083 7.87288 11.3435 8.38947 11.1481C8.90606 10.9528 9.16648 10.3756 8.97114 9.85906L7.10042 10.5664ZM0.925672 10.5911L5.09966 0.378326L3.24832 -0.378326L-0.925672 9.83443L0.925672 10.5911ZM3.23863 0.353692L7.10042 10.5664L8.97114 9.85906L5.10935 -0.353692L3.23863 0.353692Z" transform="translate(3.8162 6.8086)" fill="#212529" fill-rule="nonzero" opacity="1" /><path d="M0 -1C-0.552285 -1 -1 -0.552285 -1 0C-1 0.552285 -0.552285 1 0 1L0 -1ZM4.75647 1C5.30875 1 5.75647 0.552285 5.75647 0C5.75647 -0.552285 5.30875 -1 4.75647 -1L4.75647 1ZM0 1L4.75647 1L4.75647 -1L0 -1L0 1Z" transform="translate(5.4961 13.8271)" fill="#212529" fill-rule="nonzero" opacity="1" /><path d="M-0.721802 2.02347C-0.721802 2.57576 -0.274087 3.02347 0.278198 3.02347C0.830483 3.02347 1.2782 2.57576 1.2782 2.02347L-0.721802 2.02347ZM0.278198 1.99998L-0.721802 1.99997L-0.721802 1.99998L0.278198 1.99998ZM5.47165 2L6.47165 2L6.47165 2L5.47165 2ZM4.9707 5.65613C5.52299 5.65613 5.9707 5.20841 5.9707 4.65613C5.9707 4.10384 5.52299 3.65613 4.9707 3.65613L4.9707 5.65613ZM1.2782 2.02347L1.2782 1.99998L-0.721802 1.99998L-0.721802 2.02347L1.2782 2.02347ZM2.2782 1L3.47165 1L3.47165 -1L2.2782 -1L2.2782 1ZM4.47165 2L4.47165 7.49034L6.47165 7.49034L6.47165 2L4.47165 2ZM3.47165 1C4.02394 1 4.47165 1.44772 4.47165 2L6.47165 2C6.47165 0.343148 5.12851 -1 3.47165 -1L3.47165 1ZM1.2782 1.99999C1.2782 1.44771 1.72592 1 2.2782 1L2.2782 -1C0.621356 -1 -0.721784 0.343128 -0.721802 1.99997L1.2782 1.99999ZM4.9707 3.65613L1.91711 3.65613L1.91711 5.65613L4.9707 5.65613L4.9707 3.65613ZM1.91711 9.49034L4.47165 9.49034L4.47165 7.49034L1.91711 7.49034L1.91711 9.49034ZM-1 6.57323C-1 8.18431 0.306034 9.49034 1.91711 9.49034L1.91711 7.49034C1.4106 7.49034 1 7.07974 1 6.57323L-1 6.57323ZM1.91711 3.65613C0.306034 3.65613 -1 4.96216 -1 6.57323L1 6.57323C1 6.06673 1.4106 5.65613 1.91711 5.65613L1.91711 3.65613ZM4.47165 7.49034L4.47165 7.49034L4.47165 9.49034C5.57622 9.49034 6.47165 8.59491 6.47165 7.49034L4.47165 7.49034Z" transform="translate(14.7122 8.7012)" fill="#212529" fill-rule="nonzero" opacity="1" /></svg>
