<svg width="24" height="24" viewBox="0 0 24 24" fill="none" xmlns="http://www.w3.org/2000/svg">
<path fill-rule="evenodd" clip-rule="evenodd" d="M3.70711 2.29289C3.31658 1.90237 2.68342 1.90237 2.29289 2.29289C1.90237 2.68342 1.90237 3.31658 2.29289 3.70711L3 4.41421V19.4876C3 20.8003 4.56687 21.4798 5.52513 20.5827L7.99554 18.27C8.18083 18.0965 8.42515 18 8.67896 18H16.5858L20.2929 21.7071C20.6834 22.0976 21.3166 22.0976 21.7071 21.7071C22.0976 21.3166 22.0976 20.6834 21.7071 20.2929L17.7075 16.2933C17.7073 16.293 17.707 16.2927 17.7067 16.2925L4.70742 3.29321C4.70721 3.293 4.70763 3.29342 4.70742 3.29321L3.70711 2.29289ZM5 6.41421V18.3346L6.6287 16.8099C7.18457 16.2895 7.91752 16 8.67896 16H14.5858L5 6.41421Z" fill="#212529"/>
<path d="M17 3C19.2091 3 21 4.79086 21 7V14C21 14.5523 20.5523 15 20 15C19.4477 15 19 14.5523 19 14V7C19 5.89543 18.1046 5 17 5H10C9.44771 5 9 4.55228 9 4C9 3.44772 9.44771 3 10 3H17Z" fill="#212529"/>
</svg>
