<svg width="24" height="24" viewBox="0 0 24 24" fill="none" xmlns="http://www.w3.org/2000/svg">
<path fill-rule="evenodd" clip-rule="evenodd" d="M22 6C22 3.79086 20.2091 2 18 2H6C3.79086 2 2 3.79086 2 6V20.4767C2 21.8436 3.6792 22.4982 4.60432 21.4918L7.51693 18.3232C7.7063 18.1172 7.97332 18 8.25314 18H18C20.2091 18 22 16.2091 22 14V6ZM13 7C13 7.55229 12.5523 8 12 8C11.4477 8 11 7.55228 11 7C11 6.44772 11.4477 6 12 6C12.5523 6 13 6.44772 13 7ZM12 9C12.5523 9 13 9.44772 13 10V13C13 13.5523 12.5523 14 12 14C11.4477 14 11 13.5523 11 13V10C11 9.44771 11.4477 9 12 9Z" fill="#212529"/>
</svg>
