<svg width="24" height="24" viewBox="0 0 24 24" fill="none" xmlns="http://www.w3.org/2000/svg">
<path fill-rule="evenodd" clip-rule="evenodd" d="M22 6C22 3.79086 20.2091 2 18 2H6C3.79086 2 2 3.79086 2 6V20.5035C2 21.8731 3.68455 22.5263 4.60786 21.5148L7.51874 18.3258C7.70821 18.1183 7.97628 18 8.25732 18H18C20.2091 18 22 16.2091 22 14V6ZM9.29289 7.29289C9.68342 6.90237 10.3166 6.90237 10.7071 7.29289L12 8.58579L13.2929 7.29289C13.6834 6.90237 14.3166 6.90237 14.7071 7.29289C15.0976 7.68342 15.0976 8.31658 14.7071 8.70711L13.4142 10L14.7071 11.2929C15.0976 11.6834 15.0976 12.3166 14.7071 12.7071C14.3166 13.0976 13.6834 13.0976 13.2929 12.7071L12 11.4142L10.7071 12.7071C10.3166 13.0976 9.68342 13.0976 9.29289 12.7071C8.90237 12.3166 8.90237 11.6834 9.29289 11.2929L10.5858 10L9.29289 8.70711C8.90237 8.31658 8.90237 7.68342 9.29289 7.29289Z" fill="#212529"/>
</svg>
