<svg width="24" height="24" viewBox="0 0 24 24" fill="none" xmlns="http://www.w3.org/2000/svg">
<path fill-rule="evenodd" clip-rule="evenodd" d="M22 6C22 3.79086 20.2091 2 18 2H6C3.79086 2 2 3.79086 2 6V20.4767C2 21.8436 3.6792 22.4982 4.60432 21.4918L7.51693 18.3232C7.7063 18.1172 7.97332 18 8.25314 18H18C20.2091 18 22 16.2091 22 14V6ZM6 8C6 7.44772 6.44772 7 7 7H17C17.5523 7 18 7.44772 18 8C18 8.55228 17.5523 9 17 9H7C6.44772 9 6 8.55228 6 8ZM6 12C6 11.4477 6.44772 11 7 11H11C11.5523 11 12 11.4477 12 12C12 12.5523 11.5523 13 11 13H7C6.44772 13 6 12.5523 6 12Z" fill="#212529"/>
</svg>
