<svg width="24" height="24" viewBox="0 0 24 24" fill="none" xmlns="http://www.w3.org/2000/svg">
<path fill-rule="evenodd" clip-rule="evenodd" d="M19 2C20.6569 2 22 3.34315 22 5V15C22 16.6569 20.6569 18 19 18H7.33333L3.616 20.788C2.95016 21.2874 2 20.8123 2 19.98L2 5C2 3.34315 3.34315 2 5 2L19 2ZM20 5C20 4.44772 19.5523 4 19 4L5 4C4.44772 4 4 4.44772 4 5L4 18L6.13333 16.4C6.47953 16.1404 6.90059 16 7.33333 16H19C19.5523 16 20 15.5523 20 15V5ZM8 11C8.55229 11 9 10.5523 9 10C9 9.44771 8.55229 9 8 9C7.44772 9 7 9.44771 7 10C7 10.5523 7.44772 11 8 11ZM13 10C13 10.5523 12.5523 11 12 11C11.4477 11 11 10.5523 11 10C11 9.44771 11.4477 9 12 9C12.5523 9 13 9.44771 13 10ZM16 11C16.5523 11 17 10.5523 17 10C17 9.44771 16.5523 9 16 9C15.4477 9 15 9.44771 15 10C15 10.5523 15.4477 11 16 11Z" fill="#212529"/>
</svg>
