<svg width="24" height="24" viewBox="0 0 24 24" fill="none" xmlns="http://www.w3.org/2000/svg">
<path d="M12 11C11.4477 11 11 10.5523 11 10V7C11 6.44772 11.4477 6 12 6C12.5523 6 13 6.44772 13 7V10C13 10.5523 12.5523 11 12 11Z" fill="#212529"/>
<path d="M12 13C11.4477 13 11 13.4477 11 14C11 14.5523 11.4477 15 12 15C12.5523 15 13 14.5523 13 14C13 13.4477 12.5523 13 12 13Z" fill="#212529"/>
<path fill-rule="evenodd" clip-rule="evenodd" d="M22 6C22 3.79086 20.2091 2 18 2H6C3.79086 2 2 3.79086 2 6V20.6914C2 21.9762 3.50982 22.6664 4.48143 21.8258L7.46581 19.2438C7.64754 19.0865 7.8798 19 8.1201 19H18C20.2091 19 22 17.2091 22 15V6ZM18 4C19.1046 4 20 4.89543 20 6V15C20 16.1046 19.1046 17 18 17H8.1201C7.3992 17 6.70241 17.2596 6.15724 17.7313L4 19.5977V6C4 4.89543 4.89543 4 6 4H18Z" fill="#212529"/>
</svg>
