<svg width="24" height="24" viewBox="0 0 24 24" fill="none" xmlns="http://www.w3.org/2000/svg">
<path d="M12 9C12.5523 9 13 9.44772 13 10V13C13 13.5523 12.5523 14 12 14C11.4477 14 11 13.5523 11 13V10C11 9.44771 11.4477 9 12 9Z" fill="#212529"/>
<path d="M12 8C12.5523 8 13 7.55229 13 7C13 6.44772 12.5523 6 12 6C11.4477 6 11 6.44772 11 7C11 7.55228 11.4477 8 12 8Z" fill="#212529"/>
<path fill-rule="evenodd" clip-rule="evenodd" d="M22 6C22 3.79086 20.2091 2 18 2H6C3.79086 2 2 3.79086 2 6V20.4767C2 21.8436 3.6792 22.4982 4.60432 21.4918L7.51693 18.3232C7.7063 18.1172 7.97332 18 8.25314 18H18C20.2091 18 22 16.2091 22 14V6ZM18 4C19.1046 4 20 4.89543 20 6V14C20 15.1046 19.1046 16 18 16H8.25314C7.41368 16 6.61261 16.3517 6.0445 16.9698L4 19.1939V6C4 4.89543 4.89543 4 6 4H18Z" fill="#212529"/>
</svg>
