<svg width="24" height="24" viewBox="0 0 24 24" fill="none" xmlns="http://www.w3.org/2000/svg">
<path d="M3.96531 2.5511L3.70711 2.29289C3.31658 1.90237 2.68342 1.90237 2.29289 2.29289C1.90237 2.68342 1.90237 3.31658 2.29289 3.70711L2.55382 3.96803C2.20193 4.56355 2 5.25819 2 6V20.5004C2 21.8697 3.68393 22.5231 4.60745 21.5121L7.51853 18.3255C7.70799 18.1181 7.97594 18 8.25683 18H16.5858L20.2929 21.7071C20.6834 22.0976 21.3166 22.0976 21.7071 21.7071C22.0491 21.3651 22.0916 20.8371 21.8347 20.4489L4.09288 2.70711C4.04432 2.65854 4.00179 2.60623 3.96531 2.5511Z" fill="#212529"/>
<path d="M20.9335 16.7193C21.5954 16.0057 22 15.0501 22 14V6C22 3.79086 20.2091 2 18 2H6.2142L20.9335 16.7193Z" fill="#212529"/>
</svg>
