<svg width="24" height="24" viewBox="0 0 24 24" fill="none" xmlns="http://www.w3.org/2000/svg">
<path d="M15.7071 8.70711C16.0976 8.31658 16.0976 7.68342 15.7071 7.29289C15.3166 6.90237 14.6834 6.90237 14.2929 7.29289L11 10.5858L9.70711 9.29289C9.31658 8.90237 8.68342 8.90237 8.29289 9.29289C7.90237 9.68342 7.90237 10.3166 8.29289 10.7071L10.2929 12.7071C10.6834 13.0976 11.3166 13.0976 11.7071 12.7071L15.7071 8.70711Z" fill="#212529"/>
<path fill-rule="evenodd" clip-rule="evenodd" d="M18 2C20.2091 2 22 3.79086 22 6V14C22 16.2091 20.2091 18 18 18H8.25683C7.97594 18 7.70799 18.1181 7.51853 18.3255L4.60745 21.5121C3.68393 22.5231 2 21.8697 2 20.5004V6C2 3.79086 3.79086 2 6 2H18ZM20 6C20 4.89543 19.1046 4 18 4H6C4.89543 4 4 4.89543 4 6V19.2118L6.04193 16.9766C6.6103 16.3544 7.41414 16 8.25683 16H18C19.1046 16 20 15.1046 20 14V6Z" fill="#212529"/>
</svg>
