<svg width="24" height="24" viewBox="0 0 24 24" fill="none" xmlns="http://www.w3.org/2000/svg">
<path fill-rule="evenodd" clip-rule="evenodd" d="M22 6C22 3.79086 20.2091 2 18 2H6C3.79086 2 2 3.79086 2 6V20.4973C2 21.8663 3.68331 22.5198 4.60704 21.5094L7.51832 18.3252C7.70777 18.118 7.97559 18 8.25635 18H18C20.2091 18 22 16.2091 22 14V6ZM12 6C12.5523 6 13 6.44772 13 7V9H15C15.5523 9 16 9.44772 16 10C16 10.5523 15.5523 11 15 11H13V13C13 13.5523 12.5523 14 12 14C11.4477 14 11 13.5523 11 13V11H9C8.44772 11 8 10.5523 8 10C8 9.44771 8.44772 9 9 9H11V7C11 6.44772 11.4477 6 12 6Z" fill="#212529"/>
</svg>
