<svg width="24" height="24" viewBox="0 0 24 24" fill="none" xmlns="http://www.w3.org/2000/svg">
<path fill-rule="evenodd" clip-rule="evenodd" d="M10 8C8.89543 8 8 8.89543 8 10V14C8 15.1046 8.89543 16 10 16H14C15.1046 16 16 15.1046 16 14V10C16 8.89543 15.1046 8 14 8H10ZM10 14V10H14V14H10Z" fill="#212529"/>
<path fill-rule="evenodd" clip-rule="evenodd" d="M16 2C16.5523 2 17 2.44772 17 3V4.12602C18.4056 4.4878 19.5122 5.59439 19.874 7H21C21.5523 7 22 7.44772 22 8C22 8.55228 21.5523 9 21 9H20V11H21C21.5523 11 22 11.4477 22 12C22 12.5523 21.5523 13 21 13H20V15H21C21.5523 15 22 15.4477 22 16C22 16.5523 21.5523 17 21 17H19.874C19.5122 18.4056 18.4056 19.5122 17 19.874V21C17 21.5523 16.5523 22 16 22C15.4477 22 15 21.5523 15 21V20H13V21C13 21.5523 12.5523 22 12 22C11.4477 22 11 21.5523 11 21V20H9V21C9 21.5523 8.55228 22 8 22C7.44772 22 7 21.5523 7 21V19.874C5.59439 19.5122 4.4878 18.4056 4.12602 17H3C2.44772 17 2 16.5523 2 16C2 15.4477 2.44772 15 3 15H4V13H3C2.44772 13 2 12.5523 2 12C2 11.4477 2.44772 11 3 11H4V9H3C2.44772 9 2 8.55228 2 8C2 7.44772 2.44772 7 3 7H4.12602C4.4878 5.59439 5.59439 4.4878 7 4.12602V3C7 2.44772 7.44772 2 8 2C8.55228 2 9 2.44772 9 3V4H11V3C11 2.44772 11.4477 2 12 2C12.5523 2 13 2.44772 13 3V4H15V3C15 2.44772 15.4477 2 16 2ZM6 16C6 17.1046 6.89543 18 8 18H16C17.1046 18 18 17.1046 18 16V8C18 6.89543 17.1046 6 16 6H8C6.89543 6 6 6.89543 6 8V16Z" fill="#212529"/>
</svg>
