<svg width="24" height="24" viewBox="0 0 24 24" fill="none" xmlns="http://www.w3.org/2000/svg">
<path fill-rule="evenodd" clip-rule="evenodd" d="M5 2C3.34315 2 2 3.34315 2 5V19C2 20.6569 3.34315 22 5 22H19C20.6569 22 22 20.6569 22 19V5C22 3.34315 20.6569 2 19 2H5ZM16.6757 8.26285C17.0829 8.63604 17.1104 9.26861 16.7372 9.67573L11.2372 15.6757C11.0422 15.8884 10.7649 16.0065 10.4764 15.9997C10.188 15.9929 9.91652 15.8618 9.7318 15.6402L7.2318 12.6402C6.87824 12.2159 6.93556 11.5853 7.35984 11.2318C7.78412 10.8782 8.41468 10.9355 8.76825 11.3598L10.5359 13.481L15.2629 8.32428C15.6361 7.91716 16.2686 7.88966 16.6757 8.26285Z" fill="#212529"/>
</svg>
