<svg width="24" height="24" viewBox="0 0 24 24" fill="none" xmlns="http://www.w3.org/2000/svg">
<path d="M16.6757 8.26285C17.0829 8.63604 17.1104 9.26861 16.7372 9.67573L11.2372 15.6757C11.0422 15.8884 10.7649 16.0065 10.4764 15.9997C10.188 15.9929 9.91652 15.8618 9.7318 15.6402L7.2318 12.6402C6.87824 12.2159 6.93556 11.5853 7.35984 11.2318C7.78412 10.8782 8.41468 10.9355 8.76825 11.3598L10.5359 13.481L15.2629 8.32428C15.6361 7.91716 16.2686 7.88966 16.6757 8.26285Z" fill="#212529"/>
<path fill-rule="evenodd" clip-rule="evenodd" d="M2 5C2 3.34315 3.34315 2 5 2H19C20.6569 2 22 3.34315 22 5V19C22 20.6569 20.6569 22 19 22H5C3.34315 22 2 20.6569 2 19V5ZM5 4H19C19.5523 4 20 4.44771 20 5V19C20 19.5523 19.5523 20 19 20H5C4.44772 20 4 19.5523 4 19V5C4 4.44772 4.44771 4 5 4Z" fill="#212529"/>
</svg>
