<svg width="24" height="24" viewBox="0 0 24 24" fill="none" xmlns="http://www.w3.org/2000/svg">
<path d="M22 12C22 13.6764 21.5875 15.2565 20.8584 16.6442L17.1952 12.981C17.654 12.8902 18 12.4855 18 12C18 11.4477 17.5523 11 17 11L15.2142 11L13 8.7858L13 7C13 6.44772 12.5523 6 12 6C11.5145 6 11.1098 6.34598 11.019 6.80484L7.35577 3.14157C8.74352 2.41251 10.3236 2 12 2C17.5228 2 22 6.47715 22 12Z" fill="#212529"/>
<path d="M11 9.61423L4.09288 2.70711C4.04432 2.65854 4.0018 2.60623 3.96531 2.5511L3.70711 2.29289C3.31658 1.90237 2.68342 1.90237 2.29289 2.29289C1.90237 2.68342 1.90237 3.31658 2.29289 3.70711L4.25705 5.67127C2.84637 7.39514 2 9.59873 2 12C2 17.5228 6.47715 22 12 22C14.4013 22 16.6049 21.1536 18.3287 19.7429L20.2929 21.7071C20.6834 22.0976 21.3166 22.0976 21.7071 21.7071C22.0976 21.3166 22.0976 20.6834 21.7071 20.2929L21.2489 19.8347C21.1938 19.7982 21.1414 19.7557 21.0929 19.7071L14.3858 13L12 13C11.7348 13 11.4804 12.8946 11.2929 12.7071C11.1054 12.5196 11 12.2652 11 12L11 9.61423Z" fill="#212529"/>
</svg>
