<svg width="24" height="24" viewBox="0 0 24 24" fill="none" xmlns="http://www.w3.org/2000/svg">
<path d="M19 3.58579L20.2929 2.29289C20.2928 2.29302 20.293 2.29277 20.2929 2.29289C20.4556 2.13033 20.6608 2.03515 20.8726 2.0081C20.915 2.00269 20.9576 1.99999 21.0002 2C21.2561 2.00006 21.5119 2.09769 21.7071 2.29289C22.0976 2.68342 22.0972 3.317 21.7067 3.70752L20.4142 5L21.7071 6.29289C22.0976 6.68342 22.0976 7.31658 21.7071 7.70711C21.6339 7.78033 21.5521 7.83981 21.465 7.88557C21.0877 8.08385 20.6101 8.0243 20.2928 7.70705L19 6.41421L17.7071 7.70711C17.3166 8.09763 16.6834 8.09763 16.2929 7.70711C15.9024 7.31665 15.9027 6.68329 16.293 6.29275L17.5858 5L16.2929 3.70711C16.0562 3.47046 15.963 3.14471 16.0132 2.83785C16.0147 2.82821 16.0164 2.8186 16.0183 2.80901C16.0549 2.61991 16.1464 2.43934 16.2929 2.29289C16.6833 1.90244 17.3167 1.90277 17.7073 2.29307L19 3.58579Z" fill="#212529"/>
<path d="M21.7786 9.89771C21.0769 10.0856 20.3203 10.0147 19.6599 9.68497C19.8811 10.4178 20 11.195 20 12C20 16.4183 16.4183 20 12 20C7.58172 20 4 16.4183 4 12C4 7.58172 7.58172 4 12 4C12.805 4 13.5822 4.11889 14.315 4.34008C13.9853 3.67973 13.9144 2.92312 14.1023 2.22136C13.4244 2.07634 12.7211 2 12 2C6.47715 2 2 6.47715 2 12C2 17.5228 6.47715 22 12 22C17.5228 22 22 17.5228 22 12C22 11.2789 21.9237 10.5756 21.7786 9.89771Z" fill="#212529"/>
<path d="M15.47 15.348C15.9383 15.6407 16.5553 15.4983 16.848 15.03C17.1407 14.5617 16.9983 13.9447 16.53 13.652L13 11.4458L13 7C13 6.44772 12.5523 6 12 6C11.4477 6 11 6.44772 11 7L11 12C11 12.3448 11.1776 12.6653 11.47 12.848L15.47 15.348Z" fill="#212529"/>
</svg>
