<svg width="24" height="24" viewBox="0 0 24 24" fill="none" xmlns="http://www.w3.org/2000/svg">
<path fill-rule="evenodd" clip-rule="evenodd" d="M20 12C20 16.4183 16.4183 20 12 20C7.58172 20 4 16.4183 4 12C4 7.58172 7.58172 4 12 4C16.4183 4 20 7.58172 20 12ZM22 12C22 17.5228 17.5228 22 12 22C6.47715 22 2 17.5228 2 12C2 6.47715 6.47715 2 12 2C17.5228 2 22 6.47715 22 12ZM15.47 15.348C15.9383 15.6407 16.5553 15.4983 16.848 15.03C17.1407 14.5617 16.9983 13.9447 16.53 13.652L13 11.4457L13 6.99999C13 6.44771 12.5523 5.99999 12 5.99999C11.4477 5.99999 11 6.44771 11 6.99999L11 12C11 12.3448 11.1776 12.6652 11.47 12.848L15.47 15.348Z" fill="#212529"/>
</svg>
