<svg width="24" height="24" viewBox="0 0 24 24" fill="none" xmlns="http://www.w3.org/2000/svg">
<path d="M17.2929 1.29289C17.6834 0.902369 18.3166 0.902369 18.7071 1.29289L20 2.58579L21.2929 1.29289C21.6834 0.902369 22.3166 0.902369 22.7071 1.29289C23.0976 1.68342 23.0976 2.31658 22.7071 2.70711L21.4142 4L22.7071 5.29289C23.0976 5.68342 23.0976 6.31658 22.7071 6.70711C22.3166 7.09763 21.6834 7.09763 21.2929 6.70711L20 5.41421L18.7071 6.70711C18.3166 7.09763 17.6834 7.09763 17.2929 6.70711C16.9024 6.31658 16.9024 5.68342 17.2929 5.29289L18.5858 4L17.2929 2.70711C16.9024 2.31658 16.9024 1.68342 17.2929 1.29289Z" fill="#212529"/>
<path fill-rule="evenodd" clip-rule="evenodd" d="M22 12C22 10.9413 21.8355 9.92096 21.5306 8.96326C20.9773 8.87607 20.4437 8.63371 20 8.23618C18.8221 9.29155 17.0106 9.25326 15.8787 8.12132C14.7467 6.98937 14.7084 5.17791 15.7638 4C15.3663 3.55631 15.1239 3.02272 15.0367 2.46942C14.079 2.16453 13.0587 2 12 2C6.47715 2 2 6.47715 2 12C2 17.5228 6.47715 22 12 22C17.5228 22 22 17.5228 22 12ZM15.47 15.348C15.9383 15.6407 16.5553 15.4983 16.848 15.03C17.1407 14.5617 16.9983 13.9447 16.53 13.652L13 11.4458L13 7C13 6.44772 12.5523 6 12 6C11.4477 6 11 6.44772 11 7L11 12C11 12.3448 11.1776 12.6653 11.47 12.848L15.47 15.348Z" fill="#212529"/>
</svg>
