<svg width="24" height="24" viewBox="0 0 24 24" fill="none" xmlns="http://www.w3.org/2000/svg">
<path fill-rule="evenodd" clip-rule="evenodd" d="M3.96531 2.5511L3.70711 2.29289C3.31658 1.90237 2.68342 1.90237 2.29289 2.29289C1.90237 2.68342 1.90237 3.31658 2.29289 3.70711L4.25705 5.67127C2.84637 7.39514 2 9.59873 2 12C2 17.5228 6.47715 22 12 22C14.4013 22 16.6049 21.1536 18.3287 19.7429L20.2929 21.7071C20.6834 22.0976 21.3166 22.0976 21.7071 21.7071C22.0976 21.3166 22.0976 20.6834 21.7071 20.2929L21.2489 19.8347C21.1938 19.7982 21.1414 19.7557 21.0929 19.7071L4.09288 2.70711C4.04432 2.65854 4.0018 2.60623 3.96531 2.5511ZM4 12C4 10.1513 4.62708 8.44904 5.68014 7.09436L16.9056 18.3199C15.551 19.3729 13.8487 20 12 20C7.58172 20 4 16.4183 4 12Z" fill="#212529"/>
<path d="M20.8584 16.6442C21.5875 15.2565 22 13.6764 22 12C22 6.47715 17.5228 2 12 2C10.3236 2 8.74352 2.41251 7.35577 3.14157L8.85576 4.64156C9.82094 4.22861 10.8838 4 12 4C16.4183 4 20 7.58172 20 12C20 13.1162 19.7714 14.1791 19.3584 15.1442L20.8584 16.6442Z" fill="#212529"/>
<path d="M17.1952 12.981C17.654 12.8902 18 12.4855 18 12C18 11.4477 17.5523 11 17 11L15.2142 11L17.1952 12.981Z" fill="#212529"/>
<path d="M13 8.7858L13 7C13 6.44772 12.5523 6 12 6C11.5145 6 11.1098 6.34598 11.019 6.80484L13 8.7858Z" fill="#212529"/>
</svg>
