<svg width="24" height="24" viewBox="0 0 24 24" fill="none" xmlns="http://www.w3.org/2000/svg">
<path d="M21 1C21 0.447715 20.5523 0 20 0C19.4477 0 19 0.447715 19 1V3H17C16.4477 3 16 3.44771 16 4C16 4.55228 16.4477 5 17 5H19V7C19 7.55228 19.4477 8 20 8C20.3797 8 20.71 7.78838 20.8793 7.47666C20.8866 7.46332 20.8935 7.44979 20.9002 7.43609C20.9641 7.30429 21 7.15634 21 7V5H23C23.5523 5 24 4.55228 24 4C24 3.44772 23.5523 3 23 3H21V1Z" fill="#212529"/>
<path fill-rule="evenodd" clip-rule="evenodd" d="M14.5149 2.31889C13.7114 2.11075 12.8686 2 12 2C6.47715 2 2 6.47715 2 12C2 17.5228 6.47715 22 12 22C17.5228 22 22 17.5228 22 12C22 11.1314 21.8893 10.2886 21.6811 9.48509C21.2016 9.81013 20.623 10 20 10C18.3431 10 17 8.65685 17 7C15.3431 7 14 5.65685 14 4C14 3.37704 14.1899 2.79844 14.5149 2.31889ZM15.47 15.348C15.9383 15.6407 16.5553 15.4983 16.848 15.03C17.1407 14.5617 16.9983 13.9447 16.53 13.652L13 11.4458L13 7C13 6.44772 12.5523 6 12 6C11.4477 6 11 6.44772 11 7L11 12C11 12.3448 11.1776 12.6653 11.47 12.848L15.47 15.348Z" fill="#212529"/>
</svg>
