<svg width="24" height="24" viewBox="0 0 24 24" fill="none" xmlns="http://www.w3.org/2000/svg">
<path d="M14.6059 2.34292C13.7751 2.11928 12.9015 2 12 2C6.47715 2 2 6.47715 2 12C2 17.5228 6.47715 22 12 22C17.5228 22 22 17.5228 22 12C22 11.0985 21.8807 10.2249 21.6571 9.39412C21.2946 10.0836 20.6716 10.6147 19.9189 10.8567C19.9723 11.2301 20 11.6118 20 12C20 16.4183 16.4183 20 12 20C7.58172 20 4 16.4183 4 12C4 7.58172 7.58172 4 12 4C12.3882 4 12.7699 4.02765 13.1433 4.08109C13.3853 3.32843 13.9164 2.70542 14.6059 2.34292Z" fill="#212529"/>
<path d="M15.0046 4.9034C15.0016 4.93519 15 4.96741 15 5C15 5.55228 15.4477 6 16 6H18V8C18 8.55229 18.4477 9 19 9C19.1208 9 19.2366 8.97858 19.3438 8.93932C19.3583 8.93404 19.3725 8.92843 19.3866 8.92251C19.7469 8.77133 20 8.41522 20 8V6H22C22.5523 6 23 5.55228 23 5C23 4.44772 22.5523 4 22 4H20V2C20 1.44772 19.5523 1 19 1C18.4477 1 18 1.44772 18 2V3.99927L16.0007 4C15.481 4 15.0533 4.39644 15.0046 4.9034Z" fill="#212529"/>
<path d="M15.47 15.348C15.9383 15.6407 16.5553 15.4983 16.848 15.03C17.1407 14.5617 16.9983 13.9447 16.53 13.652L13 11.4458L13 7C13 6.44772 12.5523 6 12 6C11.4477 6 11 6.44772 11 7L11 12C11 12.3448 11.1776 12.6653 11.47 12.848L15.47 15.348Z" fill="#212529"/>
</svg>
