<svg width="24" height="24" viewBox="0 0 24 24" fill="none" xmlns="http://www.w3.org/2000/svg">
<path d="M15 5V7.58579L20.2929 2.29289C20.6834 1.90237 21.3166 1.90237 21.7071 2.29289C22.0976 2.68342 22.0976 3.31658 21.7071 3.70711L16.4142 9L19 9C19.5523 9 20 9.44772 20 10C20 10.5523 19.5523 11 19 11H14C13.4477 11 13 10.5523 13 10V5C13 4.44772 13.4477 4 14 4C14.5523 4 15 4.44772 15 5Z" fill="#212529"/>
<path d="M2.29289 20.2929C1.90237 20.6834 1.90237 21.3166 2.29289 21.7071C2.68342 22.0976 3.31658 22.0976 3.70711 21.7071L9 16.4142V19C9 19.5523 9.44772 20 10 20C10.5523 20 11 19.5523 11 19V14C11 13.4477 10.5523 13 10 13H5C4.44771 13 4 13.4477 4 14C4 14.5523 4.44771 15 5 15H7.58578L2.29289 20.2929Z" fill="#212529"/>
</svg>
