<?xml version="1.0" encoding="UTF-8"?>
<svg xmlns="http://www.w3.org/2000/svg" width="24" height="24" viewBox="0 0 24 24" fill="none"><path d="M6.70711 10.2929C7.09763 10.6834 7.09763 11.3166 6.70711 11.7071C6.31658 12.0976 5.68342 12.0976 5.29289 11.7071L0.292893 6.70711C-0.0976311 6.31658 -0.0976311 5.68342 0.292893 5.29289L5.29289 0.292894C5.68342 -0.0976312 6.31658 -0.0976312 6.70711 0.292894C7.09763 0.683417 7.09763 1.31658 6.70711 1.70711L2.41421 6L6.70711 10.2929Z" transform="translate(2 6)" fill="#212529" fill-rule="nonzero" opacity="1" /><path d="M13.2929 10.2929C12.9024 10.6834 12.9024 11.3166 13.2929 11.7071C13.6834 12.0976 14.3166 12.0976 14.7071 11.7071L19.7071 6.70711C20.0976 6.31658 20.0976 5.68342 19.7071 5.29289L14.7071 0.292894C14.3166 -0.0976312 13.6834 -0.0976312 13.2929 0.292894C12.9024 0.683417 12.9024 1.31658 13.2929 1.70711L17.5858 6L13.2929 10.2929Z" transform="translate(2 6)" fill="#212529" fill-rule="nonzero" opacity="1" /></svg>
