<?xml version="1.0" encoding="UTF-8"?>
<svg xmlns="http://www.w3.org/2000/svg" width="24" height="24" viewBox="0 0 24 24" fill="none"><path d="M0 12C0 5.37258 5.37258 0 12 0L12 0C18.6274 0 24 5.37258 24 12L24 12C24 18.6274 18.6274 24 12 24L12 24C5.37258 24 0 18.6274 0 12L0 12Z" transform="translate(0 0)" fill="#24ce9f" fill-rule="nonzero" opacity="1" /><path d="M12 23C5.92487 23 1 18.0751 1 12L-1 12C-1 19.1797 4.8203 25 12 25L12 23ZM23 12C23 18.0751 18.0751 23 12 23L12 25C19.1797 25 25 19.1797 25 12L23 12ZM12 1C18.0751 1 23 5.92487 23 12L25 12C25 4.8203 19.1797 -1 12 -1L12 1ZM12 -1C4.8203 -1 -1 4.8203 -1 12L1 12C1 5.92487 5.92487 1 12 1L12 -1Z" transform="translate(0 0)" fill="#212529" fill-rule="nonzero" opacity="0.12" /></svg>
