<svg width="24" height="24" viewBox="0 0 24 24" fill="none" xmlns="http://www.w3.org/2000/svg">
<path fill-rule="evenodd" clip-rule="evenodd" d="M15.5756 4.84112C15.851 5.67806 16 6.57206 16 7.49988C16 12.1943 12.1944 15.9999 7.5 15.9999C6.57218 15.9999 5.67818 15.8509 4.84124 15.5755C6.15425 18.199 8.86765 19.9999 12 19.9999C16.4183 19.9999 20 16.4182 20 11.9999C20 8.86753 18.1991 6.15413 15.5756 4.84112ZM13.0498 2.76987C13.2957 2.40127 13.7763 2.14152 14.3182 2.27018C18.7228 3.31609 22 7.27404 22 11.9999C22 17.5227 17.5228 21.9999 12 21.9999C7.27417 21.9999 3.31621 18.7227 2.2703 14.318C2.14164 13.7762 2.4014 13.2956 2.76999 13.0497C3.12974 12.8097 3.64074 12.7562 4.07927 13.0282C5.07222 13.6441 6.24303 13.9999 7.5 13.9999C11.0899 13.9999 14 11.0897 14 7.49988C14 6.24291 13.6442 5.0721 13.0283 4.07915C12.7563 3.64061 12.8098 3.12962 13.0498 2.76987Z" fill="#212529"/>
</svg>
