<svg width="24" height="24" viewBox="0 0 24 24" fill="none" xmlns="http://www.w3.org/2000/svg">
<path fill-rule="evenodd" clip-rule="evenodd" d="M4.54655 3.3331C4.91487 2.92157 5.54707 2.88655 5.95859 3.25487C6.37012 3.6232 6.40514 4.2554 6.03682 4.66692C4.76945 6.08294 4 7.95042 4 10C4 12.0496 4.76945 13.9171 6.03682 15.3331C6.40514 15.7446 6.37012 16.3768 5.95859 16.7451C5.54707 17.1135 4.91487 17.0785 4.54655 16.6669C2.96367 14.8984 2 12.5606 2 10C2 7.43947 2.96367 5.10162 4.54655 3.3331ZM18.0414 3.25487C18.4529 2.88655 19.0851 2.92157 19.4535 3.3331C21.0363 5.10162 22 7.43947 22 10C22 12.5606 21.0363 14.8984 19.4535 16.6669C19.0851 17.0785 18.4529 17.1135 18.0414 16.7451C17.6299 16.3768 17.5949 15.7446 17.9632 15.3331C19.2306 13.9171 20 12.0496 20 10C20 7.95042 19.2306 6.08294 17.9632 4.66692C17.5949 4.2554 17.6299 3.6232 18.0414 3.25487ZM7.20007 6.39948C7.53176 5.95789 8.15863 5.8688 8.60022 6.20049C9.04181 6.53218 9.1309 7.15905 8.79921 7.60064C8.29713 8.26907 8.00001 9.09842 8.00001 10.0001C8.00001 10.9017 8.29713 11.731 8.79921 12.3995C9.1309 12.8411 9.04181 13.4679 8.60022 13.7996C8.15863 14.1313 7.53176 14.0422 7.20007 13.6006C6.44678 12.5977 6.00001 11.3496 6.00001 10.0001C6.00001 8.65048 6.44678 7.40237 7.20007 6.39948ZM15.3998 6.20049C15.8414 5.8688 16.4682 5.95789 16.7999 6.39948C17.5532 7.40237 18 8.65048 18 10.0001C18 11.3496 17.5532 12.5977 16.7999 13.6006C16.4682 14.0422 15.8414 14.1313 15.3998 13.7996C14.9582 13.4679 14.8691 12.8411 15.2008 12.3995C15.7029 11.731 16 10.9017 16 10.0001C16 9.09842 15.7029 8.26907 15.2008 7.60064C14.8691 7.15905 14.9582 6.53218 15.3998 6.20049ZM13 11.7324C13.5978 11.3866 14 10.7403 14 10C14 8.89543 13.1046 8 12 8C10.8954 8 10 8.89543 10 10C10 10.7403 10.4022 11.3866 11 11.7324L11 21C11 21.5523 11.4477 22 12 22C12.5523 22 13 21.5523 13 21L13 11.7324Z" fill="#212529"/>
</svg>
