<svg width="24" height="24" viewBox="0 0 24 24" fill="none" xmlns="http://www.w3.org/2000/svg">
<path fill-rule="evenodd" clip-rule="evenodd" d="M9 5C9 4.44772 9.44772 4 10 4H14C14.5523 4 15 4.44772 15 5V6H9V5ZM7 6V5C7 3.34315 8.34315 2 10 2H14C15.6569 2 17 3.34315 17 5V6H19H20C20.5523 6 21 6.44772 21 7C21 7.55228 20.5523 8 20 8H19V19C19 20.6569 17.6569 22 16 22H8C6.34315 22 5 20.6569 5 19V8H4C3.44772 8 3 7.55228 3 7C3 6.44772 3.44772 6 4 6H5H7ZM7 8H17V19C17 19.5523 16.5523 20 16 20H8C7.44772 20 7 19.5523 7 19V8ZM12 15C11.4477 15 11 14.5523 11 14V11C11 10.4477 11.4477 10 12 10C12.5523 10 13 10.4477 13 11V14C13 14.5523 12.5523 15 12 15ZM12 16C11.4477 16 11 16.4477 11 17C11 17.5523 11.4477 18 12 18C12.5523 18 13 17.5523 13 17C13 16.4477 12.5523 16 12 16Z" fill="#212529"/>
</svg>
