<svg width="24" height="24" viewBox="0 0 24 24" fill="none" xmlns="http://www.w3.org/2000/svg">
<path fill-rule="evenodd" clip-rule="evenodd" d="M10 4C9.44772 4 9 4.44772 9 5V6H15V5C15 4.44772 14.5523 4 14 4H10ZM7 5V6H5H4C3.44772 6 3 6.44772 3 7C3 7.55228 3.44772 8 4 8H5V19C5 20.6569 6.34315 22 8 22H16C17.6569 22 19 20.6569 19 19V8H20C20.5523 8 21 7.55228 21 7C21 6.44772 20.5523 6 20 6H19H17V5C17 3.34315 15.6569 2 14 2H10C8.34315 2 7 3.34315 7 5ZM9.29289 13.7071C8.90237 13.3166 8.90237 12.6834 9.29289 12.2929L11.2929 10.2929C11.6834 9.90237 12.3166 9.90237 12.7071 10.2929L14.7071 12.2929C15.0976 12.6834 15.0976 13.3166 14.7071 13.7071C14.3166 14.0976 13.6834 14.0976 13.2929 13.7071L13 13.4142V17C13 17.5523 12.5523 18 12 18C11.4477 18 11 17.5523 11 17V13.4142L10.7071 13.7071C10.3166 14.0976 9.68342 14.0976 9.29289 13.7071Z" fill="#212529"/>
</svg>
