<svg width="24" height="24" viewBox="0 0 24 24" fill="none" xmlns="http://www.w3.org/2000/svg">
<path fill-rule="evenodd" clip-rule="evenodd" d="M9 5C9 4.44772 9.44772 4 10 4H14C14.5523 4 15 4.44772 15 5V6H9V5ZM7 6V5C7 3.34315 8.34315 2 10 2H14C15.6569 2 17 3.34315 17 5V6H19H20C20.5523 6 21 6.44772 21 7C21 7.55228 20.5523 8 20 8H19V19C19 20.6569 17.6569 22 16 22H8C6.34315 22 5 20.6569 5 19V8H4C3.44772 8 3 7.55228 3 7C3 6.44772 3.44772 6 4 6H5H7ZM7 8H17V19C17 19.5523 16.5523 20 16 20H8C7.44772 20 7 19.5523 7 19V8ZM9.29289 13.7071C8.90237 13.3166 8.90237 12.6834 9.29289 12.2929L11.2929 10.2929C11.6834 9.90237 12.3166 9.90237 12.7071 10.2929L14.7071 12.2929C15.0976 12.6834 15.0976 13.3166 14.7071 13.7071C14.3166 14.0976 13.6834 14.0976 13.2929 13.7071L13 13.4142L13 17C13 17.5523 12.5523 18 12 18C11.4477 18 11 17.5523 11 17L11 13.4142L10.7071 13.7071C10.3166 14.0976 9.68342 14.0976 9.29289 13.7071Z" fill="#212529"/>
</svg>
