<svg width="24" height="24" viewBox="0 0 24 24" fill="none" xmlns="http://www.w3.org/2000/svg">
<path fill-rule="evenodd" clip-rule="evenodd" d="M10 4C9.44772 4 9 4.44772 9 5V6H15V5C15 4.44772 14.5523 4 14 4H10ZM7 5V6H5H4C3.44772 6 3 6.44772 3 7C3 7.55228 3.44772 8 4 8H5V19C5 20.6569 6.34315 22 8 22H16C17.6569 22 19 20.6569 19 19V8H20C20.5523 8 21 7.55228 21 7C21 6.44772 20.5523 6 20 6H19H17V5C17 3.34315 15.6569 2 14 2H10C8.34315 2 7 3.34315 7 5ZM17 8H7V19C7 19.5523 7.44772 20 8 20H16C16.5523 20 17 19.5523 17 19V8ZM15.7071 12.7071C16.0976 12.3166 16.0976 11.6834 15.7071 11.2929C15.3166 10.9024 14.6834 10.9024 14.2929 11.2929L11 14.5858L9.70711 13.2929C9.31658 12.9024 8.68342 12.9024 8.29289 13.2929C7.90237 13.6834 7.90237 14.3166 8.29289 14.7071L10.2929 16.7071C10.6834 17.0976 11.3166 17.0976 11.7071 16.7071L15.7071 12.7071Z" fill="#212529"/>
</svg>
