<svg width="24" height="24" viewBox="0 0 24 24" fill="none" xmlns="http://www.w3.org/2000/svg">
<path fill-rule="evenodd" clip-rule="evenodd" d="M8 5C8 4.44772 8.44772 4 9 4H13C13.5523 4 14 4.44772 14 5V6H8V5ZM6 6V5C6 3.34315 7.34315 2 9 2H13C14.6569 2 16 3.34315 16 5V6H18H19C19.5523 6 20 6.44772 20 7C20 7.55228 19.5523 8 19 8H18V10.252C17.3608 10.0875 16.6906 10 16 10C11.5817 10 8 13.5817 8 18C8 19.4571 8.38958 20.8233 9.07026 22H7C5.34315 22 4 20.6569 4 19V8H3C2.44772 8 2 7.55228 2 7C2 6.44772 2.44772 6 3 6H4H6ZM22 18C22 21.3137 19.3137 24 16 24C12.6863 24 10 21.3137 10 18C10 14.6863 12.6863 12 16 12C19.3137 12 22 14.6863 22 18ZM16 15C16.5523 15 17 15.4477 17 16V17.5858L18.2071 18.7929C18.5976 19.1834 18.5976 19.8166 18.2071 20.2071C17.8166 20.5976 17.1834 20.5976 16.7929 20.2071L15.2929 18.7071C15.1054 18.5196 15 18.2652 15 18V16C15 15.4477 15.4477 15 16 15Z" fill="#212529"/>
</svg>
