<svg width="24" height="24" viewBox="0 0 24 24" fill="none" xmlns="http://www.w3.org/2000/svg">
<path fill-rule="evenodd" clip-rule="evenodd" d="M2 5C2 3.34315 3.34315 2 5 2H19C20.6569 2 22 3.34315 22 5V15C22 16.6569 20.6569 18 19 18H13V20H16C16.5523 20 17 20.4477 17 21C17 21.5523 16.5523 22 16 22H8C7.44771 22 7 21.5523 7 21C7 20.4477 7.44771 20 8 20H11V18H5C3.34315 18 2 16.6569 2 15V5ZM19 16H13H11H5C4.44772 16 4 15.5523 4 15V5C4 4.44772 4.44772 4 5 4H19C19.5523 4 20 4.44772 20 5V15C20 15.5523 19.5523 16 19 16Z" fill="#212529"/>
</svg>
