<svg width="24" height="24" viewBox="0 0 24 24" fill="none" xmlns="http://www.w3.org/2000/svg">
<path d="M11 7H13C13.5523 7 14 6.55228 14 6C14 5.44772 13.5523 5 13 5H11C10.4477 5 10 5.44772 10 6C10 6.55228 10.4477 7 11 7Z" fill="#212529"/>
<path d="M5 11C4.44772 11 4 11.4477 4 12C4 12.5523 4.44772 13 5 13H19C19.5523 13 20 12.5523 20 12C20 11.4477 19.5523 11 19 11H5Z" fill="#212529"/>
<path d="M11 19C10.4477 19 10 18.5523 10 18C10 17.4477 10.4477 17 11 17H13C13.5523 17 14 17.4477 14 18C14 18.5523 13.5523 19 13 19H11Z" fill="#212529"/>
</svg>
