<?xml version="1.0" encoding="UTF-8"?>
<svg xmlns="http://www.w3.org/2000/svg" width="24" height="24" viewBox="0 0 24 24" fill="none"><path d="M7 5C7 4.44771 7.44772 4 8 4L13 4C13.5523 4 14 4.44771 14 5C14 5.55228 13.5523 6 13 6L8 6C7.44771 6 7 5.55228 7 5Z" transform="translate(2 2)" fill="#212529" fill-rule="nonzero" opacity="1" /><path d="M7 9C7 8.44771 7.44771 8 8 8L10 8C10.5523 8 11 8.44771 11 9C11 9.55229 10.5523 10 10 10L8 10C7.44771 10 7 9.55229 7 9Z" transform="translate(2 2)" fill="#212529" fill-rule="nonzero" opacity="1" /><path d="M6 0L15 0C16.6569 0 18 1.34315 18 3L18 16.96C18 18.6422 16.66 20 15 20L3 20C1.34 20 0 18.6422 0 16.96L0 14.0133C0 13.456 0.45 13 1 13L3 13L3 3C3 1.34315 4.34315 0 6 0ZM5 13L13 13C13.55 13 14 13.456 14 14.0133L14 16.96C14 17.5174 14.45 17.9734 15 17.9734C15.55 17.9734 16 17.5174 16 16.96L16 3C16 2.44772 15.5523 2 15 2L6 2C5.44772 2 5 2.44772 5 3L5 13ZM12 17.9734L3 17.9734C2.45 17.9734 2 17.5174 2 16.96L2 15.0267L12 15.0267L12 17.9734Z" transform="translate(2 2)" fill="#212529" fill-rule="evenodd" opacity="1" /></svg>
