<svg width="24" height="24" viewBox="0 0 24 24" fill="none" xmlns="http://www.w3.org/2000/svg">
<path d="M2.62285 12.0011C2.2516 11.6298 1.64969 11.6298 1.27844 12.0011C0.907187 12.3723 0.907187 12.9742 1.27844 13.3455L5.31169 17.3787C5.68294 17.75 6.28485 17.75 6.6561 17.3787L16.067 7.96782C16.4383 7.59657 16.4383 6.99466 16.067 6.62341C15.6958 6.25216 15.0938 6.25216 14.7226 6.62341L5.98389 15.3621L2.62285 12.0011Z" fill="#212529"/>
<path d="M21.3772 6.62341L12.6385 15.3621L12.0272 14.7191C11.6543 14.3267 11.0289 14.3267 10.6559 14.719C10.3067 15.0863 10.309 15.6637 10.6612 16.0282L11.9662 17.3787C12.3375 17.75 12.9394 17.75 13.3107 17.3787L22.7216 7.96782C23.0928 7.59657 23.0928 6.99466 22.7216 6.62341C22.3503 6.25216 21.7484 6.25216 21.3772 6.62341Z" fill="#212529"/>
</svg>
