<svg width="24" height="24" viewBox="0 0 24 24" fill="none" xmlns="http://www.w3.org/2000/svg">
<path fill-rule="evenodd" clip-rule="evenodd" d="M8.65686 22.0711L2.29289 15.7071C1.90237 15.3166 1.90237 14.6834 2.29289 14.2929L8.65686 7.92893C9.04738 7.53841 9.68054 7.53841 10.0711 7.92893C10.4616 8.31946 10.4616 8.95262 10.0711 9.34315L5.41421 14H20V4H16C15.4477 4 15 3.55229 15 3C15 2.44771 15.4477 2 16 2H20C21.1046 2 22 2.89543 22 4V14C22 15.1046 21.1046 16 20 16H5.41421L10.0711 20.6569C10.4616 21.0474 10.4616 21.6805 10.0711 22.0711C9.68054 22.4616 9.04738 22.4616 8.65686 22.0711Z" fill="#212529"/>
</svg>
