<?xml version="1.0" encoding="UTF-8"?>
<svg xmlns="http://www.w3.org/2000/svg" width="24" height="24" viewBox="0 0 24 24" fill="none"><path d="M11.1716 1C11.1716 0.447715 10.7238 0 10.1716 0C9.61927 0 9.17155 0.447715 9.17155 1L9.17155 10C9.17155 10.5523 9.61927 11 10.1716 11C10.7238 11 11.1716 10.5523 11.1716 10L11.1716 1Z" transform="translate(1.8284 2)" fill="#212529" fill-rule="nonzero" opacity="1" /><path d="M9.46446 17.8787L2.29289 10.7071C1.90237 10.3166 1.90237 9.68342 2.29289 9.29289L5.87867 5.70711C6.2692 5.31659 6.2692 4.68342 5.87867 4.2929C5.48815 3.90237 4.85499 3.90237 4.46446 4.2929L0.87868 7.87868C-0.292893 9.05025 -0.292893 10.9497 0.87868 12.1213L8.05024 19.2929C9.22182 20.4645 11.1213 20.4645 12.2929 19.2929L19.4644 12.1213C20.636 10.9497 20.636 9.05025 19.4644 7.87868L15.8787 4.2929C15.4881 3.90237 14.855 3.90237 14.4645 4.2929C14.0739 4.68342 14.0739 5.31659 14.4645 5.70711L18.0502 9.29289C18.4408 9.68342 18.4408 10.3166 18.0502 10.7071L10.8787 17.8787C10.4881 18.2692 9.85498 18.2692 9.46446 17.8787Z" transform="translate(1.8284 2)" fill="#212529" fill-rule="nonzero" opacity="1" /></svg>
