<svg width="24" height="24" viewBox="0 0 24 24" fill="none" xmlns="http://www.w3.org/2000/svg">
<path d="M7 9.00005C7.55228 9.00005 8 9.44776 8 10C7.99996 10.5523 7.55226 11 7 11H6C4.89543 11 4 11.8955 4 13V18C4.00004 19.1046 4.89546 20 6 20H18C19.1045 20 20 19.1046 20 18V13C20 11.8955 19.1046 11 18 11H17C16.4477 11 16 10.5523 16 10C16 9.44776 16.4477 9.00005 17 9.00005H18C20.2091 9.00005 22 10.7909 22 13V18C22 20.2092 20.2091 22 18 22H6C3.79089 22 2.00004 20.2092 2 18V13C2 10.7909 3.79086 9.00005 6 9.00005H7Z" fill="#212529"/>
<path d="M11.293 1.29302C11.6835 0.902491 12.3165 0.90249 12.707 1.29302L16.707 5.29302C17.0975 5.68354 17.0975 6.31657 16.707 6.70708C16.3165 7.09755 15.6835 7.09755 15.293 6.70708L13 4.41411V16C13 16.5523 12.5523 17 12 17C11.4477 17 11 16.5523 11 16V4.41411L8.70703 6.70708C8.31652 7.09755 7.68348 7.09755 7.29297 6.70708C6.90246 6.31657 6.90248 5.68354 7.29297 5.29302L11.293 1.29302Z" fill="#212529"/>
</svg>
