<svg width="24" height="24" viewBox="0 0 24 24" fill="none" xmlns="http://www.w3.org/2000/svg">
<path fill-rule="evenodd" clip-rule="evenodd" d="M3.70711 2.29289C3.31658 1.90237 2.68342 1.90237 2.29289 2.29289C1.90237 2.68342 1.90237 3.31658 2.29289 3.70711L5.70325 7.11747C4.0901 8.31128 3.01144 9.73388 2.44045 10.6062C1.8822 11.4591 1.88219 12.5409 2.44045 13.3938C3.57023 15.1198 6.68743 19 12 19C13.7485 19 15.2594 18.5797 16.54 17.9542L20.2929 21.7071C20.6834 22.0976 21.3166 22.0976 21.7071 21.7071C22.0976 21.3166 22.0976 20.6834 21.7071 20.2929L3.70711 2.29289ZM14.032 15.4462L12.518 13.9323C12.3528 13.9764 12.1792 14 12 14C10.8954 14 10 13.1046 10 12C10 11.8208 10.0236 11.6472 10.0677 11.482L8.55382 9.96803C8.20193 10.5635 8 11.2582 8 12C8 14.2091 9.79086 16 12 16C12.7418 16 13.4365 15.7981 14.032 15.4462Z" fill="#212529"/>
<path d="M12.2202 8.00596C14.254 8.11628 15.8837 9.74598 15.994 11.7798L19.7949 15.5807C20.6036 14.7624 21.1902 13.9625 21.5621 13.3951C22.1214 12.5416 22.1214 11.4584 21.5621 10.6049C20.4308 8.87862 17.3115 5 12 5C11.1096 5 10.2808 5.109 9.51279 5.29859L12.2202 8.00596Z" fill="#212529"/>
</svg>
