<svg width="24" height="24" viewBox="0 0 24 24" fill="none" xmlns="http://www.w3.org/2000/svg">
<path fill-rule="evenodd" clip-rule="evenodd" d="M3.70711 2.29289C3.31658 1.90237 2.68342 1.90237 2.29289 2.29289C1.90237 2.68342 1.90237 3.31658 2.29289 3.70711L5.70331 7.11752C4.10058 8.30212 3.02478 9.71386 2.44165 10.6044C1.88394 11.4562 1.88145 12.5398 2.44046 13.3938C3.57023 15.1198 6.68743 19 12 19C13.742 19 15.2557 18.5793 16.5391 17.9533L20.2929 21.7071C20.6834 22.0976 21.3166 22.0976 21.7071 21.7071C22.0976 21.3166 22.0976 20.6834 21.7071 20.2929L17.4451 16.0309C17.4349 16.0203 17.4245 16.0099 17.4139 15.9997L7.99974 6.58552C7.98953 6.57485 7.97911 6.56444 7.9685 6.55429L3.70711 2.29289ZM7.1366 8.55081C5.66193 9.57281 4.65685 10.8723 4.11486 11.7C3.99137 11.8886 3.99182 12.112 4.11385 12.2985C5.14879 13.8796 7.74396 17 12 17C13.1262 17 14.1314 16.7838 15.0222 16.4364L14.0318 15.446C13.4364 15.7977 12.7414 16 12 16C9.79086 16 8 14.2091 8 12C8 11.2586 8.20229 10.5636 8.55396 9.96818L7.1366 8.55081ZM10.0676 11.4818C10.0235 11.647 10 11.8206 10 12C10 13.1046 10.8954 14 12 14C12.1794 14 12.353 13.9765 12.5182 13.9324L10.0676 11.4818ZM19.8893 11.7012C18.8528 10.1196 16.2555 7.00003 12 7.00003C11.8981 7.00003 11.7972 7.0018 11.6975 7.00527C11.1455 7.02445 10.6825 6.59256 10.6633 6.04061C10.6441 5.48865 11.076 5.02566 11.628 5.00648C11.7509 5.00221 11.8749 5.00003 12 5.00003C17.3115 5.00003 20.4308 8.87866 21.5621 10.6049C22.1225 11.4601 22.1189 12.5459 21.5603 13.3977C21.3085 13.7819 20.9695 14.2559 20.541 14.7641C20.185 15.1864 19.5541 15.2401 19.1319 14.8841C18.7096 14.5282 18.6559 13.8973 19.0119 13.475C19.3812 13.037 19.6729 12.6289 19.8878 12.3011C20.0119 12.1118 20.0112 11.8873 19.8893 11.7012ZM12.3913 8.86069C12.6297 8.36251 13.2269 8.15191 13.725 8.39031C14.1373 8.5876 14.5099 8.85301 14.8285 9.1716C15.147 9.49016 15.4124 9.86269 15.6097 10.275C15.8481 10.7731 15.6375 11.3702 15.1393 11.6086C14.6411 11.847 14.044 11.6365 13.8056 11.1383C13.7073 10.9328 13.5744 10.746 13.4142 10.5858C13.254 10.4256 13.0672 10.2927 12.8617 10.1944C12.3635 9.95598 12.1529 9.35887 12.3913 8.86069Z" fill="#212529"/>
</svg>
