<svg width="24" height="24" viewBox="0 0 24 24" fill="none" xmlns="http://www.w3.org/2000/svg">
<path fill-rule="evenodd" clip-rule="evenodd" d="M12 7C16.2555 7 18.8528 10.1196 19.8892 11.7011C20.0123 11.8889 20.0123 12.111 19.8892 12.2988C18.8528 13.8804 16.2555 17 12 17C7.74392 17 5.14875 13.8796 4.11381 12.2984C3.99103 12.1109 3.99103 11.8891 4.11381 11.7015C5.14875 10.1204 7.74392 7 12 7ZM21.562 10.6049C20.4308 8.87862 17.3115 5 12 5C6.68739 5 3.57019 8.8802 2.44042 10.6062C1.88217 11.4591 1.88216 12.5409 2.44042 13.3938C3.5702 15.1198 6.6874 19 12 19C17.3115 19 20.4308 15.1213 21.562 13.3951C22.1214 12.5416 22.1214 11.4584 21.562 10.6049ZM9.99998 12C9.99998 10.8954 10.8954 10 12 10C13.1045 10 14 10.8954 14 12C14 13.1046 13.1045 14 12 14C10.8954 14 9.99998 13.1046 9.99998 12ZM12 8.00001C9.79084 8.00001 7.99998 9.79087 7.99998 12C7.99998 14.2091 9.79084 16 12 16C14.2091 16 16 14.2091 16 12C16 9.79087 14.2091 8.00001 12 8.00001Z" fill="#212529"/>
</svg>
