<svg width="24" height="24" viewBox="0 0 24 24" fill="none" xmlns="http://www.w3.org/2000/svg">
<path fill-rule="evenodd" clip-rule="evenodd" d="M21.562 10.6049C20.4308 8.87862 17.3115 5 12 5C6.68739 5 3.57019 8.8802 2.44042 10.6062C1.88217 11.4591 1.88216 12.5409 2.44042 13.3938C3.5702 15.1198 6.6874 19 12 19C17.3115 19 20.4308 15.1213 21.562 13.3951C22.1214 12.5416 22.1214 11.4584 21.562 10.6049ZM12 8C9.79083 8 7.99997 9.79086 7.99997 12C7.99997 14.2091 9.79083 16 12 16C14.2091 16 16 14.2091 16 12C16 9.79086 14.2091 8 12 8ZM12 14C13.1045 14 14 13.1046 14 12C14 10.8954 13.1045 10 12 10C10.8954 10 9.99997 10.8954 9.99997 12C9.99997 13.1046 10.8954 14 12 14Z" fill="#212529"/>
</svg>
