<svg width="24" height="24" viewBox="0 0 24 24" fill="none" xmlns="http://www.w3.org/2000/svg">
<path fill-rule="evenodd" clip-rule="evenodd" d="M6 5C6 4.44772 6.44772 4 7 4H12V7C12 8.65685 13.3431 10 15 10H18V19C18 19.5523 17.5523 20 17 20H7C6.44772 20 6 19.5523 6 19V5ZM16.5858 8L14 5.41421V7C14 7.55228 14.4477 8 15 8H16.5858ZM7 2C5.34315 2 4 3.34315 4 5V19C4 20.6569 5.34315 22 7 22H17C18.6569 22 20 20.6569 20 19V9.20711C20 8.80928 19.842 8.42775 19.5607 8.14645L13.8536 2.43934C13.5722 2.15804 13.1907 2 12.7929 2H7ZM8 13C8 12.4477 8.44772 12 9 12H15C15.5523 12 16 12.4477 16 13C16 13.5523 15.5523 14 15 14H9C8.44772 14 8 13.5523 8 13ZM9 16C8.44772 16 8 16.4477 8 17C8 17.5523 8.44772 18 9 18H15C15.5523 18 16 17.5523 16 17C16 16.4477 15.5523 16 15 16H9Z" fill="#212529"/>
</svg>
