<svg width="24" height="24" viewBox="0 0 24 24" fill="none" xmlns="http://www.w3.org/2000/svg">
<path fill-rule="evenodd" clip-rule="evenodd" d="M18.8293 5C18.4175 3.83481 17.3062 3 16 3C14.6938 3 13.5825 3.83481 13.1707 5H4C3.44772 5 3 5.44771 3 6C3 6.55229 3.44772 7 4 7H13.1707C13.5825 8.16519 14.6938 9 16 9C17.3062 9 18.4175 8.16519 18.8293 7H20C20.5523 7 21 6.55229 21 6C21 5.44771 20.5523 5 20 5H18.8293ZM16 7C16.5523 7 17 6.55228 17 6C17 5.44772 16.5523 5 16 5C15.4477 5 15 5.44772 15 6C15 6.55228 15.4477 7 16 7Z" fill="#212529"/>
<path fill-rule="evenodd" clip-rule="evenodd" d="M10.8341 12.9863C10.4262 14.1586 9.31133 15 8 15C6.68867 15 5.57384 14.1586 5.1659 12.9863C5.11194 12.9953 5.05652 13 5 13H4C3.44772 13 3 12.5523 3 12C3 11.4477 3.44772 11 4 11H5C5.05652 11 5.11194 11.0047 5.1659 11.0137C5.57384 9.84136 6.68867 9 8 9C9.31133 9 10.4262 9.84136 10.8341 11.0137C10.8881 11.0047 10.9435 11 11 11H20C20.5523 11 21 11.4477 21 12C21 12.5523 20.5523 13 20 13H11C10.9435 13 10.8881 12.9953 10.8341 12.9863ZM8 13C8.55228 13 9 12.5523 9 12C9 11.4477 8.55228 11 8 11C7.44772 11 7 11.4477 7 12C7 12.5523 7.44772 13 8 13Z" fill="#212529"/>
<path fill-rule="evenodd" clip-rule="evenodd" d="M18.8293 17C18.4175 15.8348 17.3062 15 16 15C14.6938 15 13.5825 15.8348 13.1707 17H4C3.44772 17 3 17.4477 3 18C3 18.5523 3.44772 19 4 19H13.1707C13.5825 20.1652 14.6938 21 16 21C17.3062 21 18.4175 20.1652 18.8293 19H20C20.5523 19 21 18.5523 21 18C21 17.4477 20.5523 17 20 17H18.8293ZM17 18C17 18.5523 16.5523 19 16 19C15.4477 19 15 18.5523 15 18C15 17.4477 15.4477 17 16 17C16.5523 17 17 17.4477 17 18Z" fill="#212529"/>
</svg>
