<?xml version="1.0" encoding="UTF-8"?>
<svg xmlns="http://www.w3.org/2000/svg" width="24" height="24" viewBox="0 0 24 24" fill="none"><path d="M0 2C0 0.895431 0.895431 0 2 0L22 0C23.1046 0 24 0.895431 24 2L24 14C24 15.1046 23.1046 16 22 16L2 16C0.89543 16 0 15.1046 0 14L0 2Z" transform="translate(0 4)" fill="#ffffff" fill-rule="nonzero" opacity="1" /><path d="M0.571429 0C0.88702 0 1.14286 0.255837 1.14286 0.571429C1.14286 1.20443 1.48564 1.75803 1.99845 2.05559C2.27142 2.21397 2.36431 2.56365 2.20592 2.83662C2.04753 3.10959 1.69785 3.20248 1.42488 3.04409C0.574178 2.55048 0 1.62834 0 0.571429C0 0.255837 0.255837 0 0.571429 0ZM5.14286 0.000139594C5.45845 0.000139594 5.71429 0.255977 5.71429 0.571568C5.71429 1.58417 5.18709 2.47327 4.3949 2.97993C4.12903 3.14997 3.77566 3.07229 3.60562 2.80642C3.43559 2.54056 3.51327 2.18718 3.77913 2.01714C4.2568 1.71164 4.57143 1.17816 4.57143 0.571568C4.57143 0.255977 4.82727 0.000139594 5.14286 0.000139594Z" transform="translate(9 11.7144)" fill="#8c9157" fill-rule="evenodd" opacity="1" /><path d="M2.28571 1.71429C2.28571 2.66106 1.77404 3.42857 1.14286 3.42857C0.511675 3.42857 0 2.66106 0 1.71429C0 0.767512 0.511675 0 1.14286 0C1.77404 0 2.28571 0.767512 2.28571 1.71429Z" transform="translate(10.7148 10)" fill="#c59262" fill-rule="nonzero" opacity="1" /><path d="M0 2C0 0.895431 0.895431 0 2 0L8 0L8 16L2 16C0.895431 16 0 15.1046 0 14L0 2Z" transform="translate(0 4)" fill="#128a60" fill-rule="nonzero" opacity="1" /><path d="M0 2C0 0.895431 0.895431 0 2 0L8 0L8 16L2 16C0.895431 16 0 15.1046 0 14L0 2Z" transform="translate(16 4)" fill="#e3283e" fill-rule="nonzero" opacity="1" /></svg>
