<?xml version="1.0" encoding="UTF-8"?>
<svg xmlns="http://www.w3.org/2000/svg" width="24" height="24" viewBox="0 0 24 24" fill="none"><path d="M0 2C0 0.895431 0.895431 0 2 0L22 0C23.1046 0 24 0.895431 24 2L24 14C24 15.1046 23.1046 16 22 16L2 16C0.89543 16 0 15.1046 0 14L0 2Z" transform="translate(0 4)" fill="#ffffff" fill-rule="nonzero" opacity="1" /><path d="M0 2C0 0.895431 0.895431 0 2 0L22 0C23.1046 0 24 0.895431 24 2L24 14C24 15.1046 23.1046 16 22 16L2 16C0.89543 16 0 15.1046 0 14L0 2Z" transform="translate(0 4)" fill="#ffffff" fill-rule="nonzero" opacity="1" /><path d="M0 0L24 0L24 16L0 16L0 0Z" transform="translate(0 4)" fill="#0a17a7" fill-rule="nonzero" opacity="1" /><path d="M1.27816 0L11.5203 6.44783L11.5203 0.46649L17.2346 0.46649L17.2346 6.44784L27.4767 0L28.7548 1.76861L20.6571 6.86649L26.3774 6.86649L26.3774 12.1998L20.6571 12.1998L28.7548 17.2977L27.4767 19.0663L17.2346 12.6185L17.2346 18.5998L11.5203 18.5998L11.5203 12.6185L1.27816 19.0663L0 17.2977L8.09776 12.1998L2.37741 12.1998L2.37741 6.86649L8.09776 6.86649L0 1.76861L1.27816 0Z" transform="translate(-2.3774 2.4668)" fill="#ffffff" fill-rule="evenodd" opacity="1" /><path d="M0 11.7333L9.14286 11.7333L9.14286 18.1333L14.8571 18.1333L14.8571 11.7333L24 11.7333L24 6.4L14.8571 6.4L14.8571 0L9.14286 0L9.14286 6.4L0 6.4L0 11.7333Z" transform="translate(0 2.9331)" fill="#dadada" fill-rule="evenodd" opacity="1" /><path d="M0 0L32.4681 0L32.4681 2.18213L0 2.18213L0 0Z" transform="translate(-2.3774 2.4668)" fill="#dadada" fill-rule="nonzero" opacity="1" /><path d="M0 0L32.4681 0L32.4681 2.18213L0 2.18213L0 0Z" transform="translate(-2.3774 2.4669)" fill="#dadada" fill-rule="nonzero" opacity="1" /><path d="M-0.174417 6.3817C-0.331299 6.47802 -0.380387 6.68329 -0.28406 6.84017C-0.187732 6.99705 0.0175349 7.04614 0.174417 6.94981L-0.174417 6.3817ZM11.0304 0.28406C11.1873 0.187732 11.2364 -0.0175349 11.1401 -0.174417C11.0438 -0.331299 10.8385 -0.380387 10.6816 -0.28406L11.0304 0.28406ZM0.174417 6.94981L11.0304 0.28406L10.6816 -0.28406L-0.174417 6.3817L0.174417 6.94981Z" transform="translate(16.0012 2.3999)" fill="#db1f35" fill-rule="nonzero" opacity="1" /><path d="M-0.177496 5.84012C-0.333321 5.93815 -0.380174 6.14394 -0.282146 6.29976C-0.184117 6.45559 0.0216716 6.50244 0.177496 6.40441L-0.177496 5.84012ZM9.90936 0.282146C10.0652 0.184117 10.112 -0.0216716 10.014 -0.177496C9.91598 -0.333321 9.71019 -0.380174 9.55437 -0.282146L9.90936 0.282146ZM0.177496 6.40441L9.90936 0.282146L9.55437 -0.282146L-0.177496 5.84012L0.177496 6.40441Z" transform="translate(17.1538 14.9578)" fill="#db1f35" fill-rule="nonzero" opacity="1" /><path d="M9.97368 6.66731C10.1295 6.76533 10.3353 6.71847 10.4333 6.56263C10.5313 6.4068 10.4845 6.20102 10.3286 6.103L9.97368 6.66731ZM0.177479 -0.282157C0.0216479 -0.380176 -0.184138 -0.33331 -0.282157 -0.177479C-0.380176 -0.0216479 -0.33331 0.184138 -0.177479 0.282157L0.177479 -0.282157ZM10.3286 6.103L0.177479 -0.282157L-0.177479 0.282157L9.97368 6.66731L10.3286 6.103Z" transform="translate(-3.2893 2.6631)" fill="#db1f35" fill-rule="nonzero" opacity="1" /><path d="M11.0767 7.24789C11.2333 7.34478 11.4387 7.29642 11.5356 7.13988C11.6325 6.98335 11.5841 6.7779 11.4276 6.68102L11.0767 7.24789ZM0.17543 -0.283435C0.0188934 -0.380322 -0.186548 -0.331967 -0.283435 -0.17543C-0.380322 -0.0188934 -0.331967 0.186548 -0.17543 0.283435L0.17543 -0.283435ZM11.4276 6.68102L0.17543 -0.283435L-0.17543 0.283435L11.0767 7.24789L11.4276 6.68102Z" transform="translate(-3.2893 14.8842)" fill="#db1f35" fill-rule="nonzero" opacity="1" /><path d="M0 9.6L10.2857 9.6L10.2857 16L13.7143 16L13.7143 9.6L24 9.6L24 6.4L13.7143 6.4L13.7143 0L10.2857 0L10.2857 6.4L0 6.4L0 9.6Z" transform="translate(0 4)" fill="#e6273e" fill-rule="evenodd" opacity="1" /></svg>
