<?xml version="1.0" encoding="UTF-8"?>
<svg xmlns="http://www.w3.org/2000/svg" width="24" height="24" viewBox="0 0 24 24" fill="none"><path d="M0 2C0 0.895431 0.895431 0 2 0L22 0C23.1046 0 24 0.895431 24 2L24 14C24 15.1046 23.1046 16 22 16L2 16C0.89543 16 0 15.1046 0 14L0 2Z" transform="translate(0 4)" fill="#ffffff" fill-rule="nonzero" opacity="1" /><path d="M0 2C0 0.895431 0.895431 0 2 0L22 0C23.1046 0 24 0.895431 24 2L24 14C24 15.1046 23.1046 16 22 16L2 16C0.89543 16 0 15.1046 0 14L0 2Z" transform="translate(0 4)" fill="#ffffff" fill-rule="nonzero" opacity="1" /><path d="M0 4.26667L24 4.26667L24 0L0 0L0 4.26667Z" transform="translate(0 4)" fill="#dd172c" fill-rule="evenodd" opacity="1" /><path d="M0 4.26667L24 4.26667L24 0L0 0L0 4.26667Z" transform="translate(0 15.7334)" fill="#dd172c" fill-rule="evenodd" opacity="1" /><path d="M0 7.46667L24 7.46667L24 0L0 0L0 7.46667Z" transform="translate(0 8.2666)" fill="#ffd133" fill-rule="evenodd" opacity="1" /><path d="M0 1.06667L1.14286 1.06667L1.14286 1.6L0 1.6L0 1.06667Z" transform="translate(6.2856 10.3999)" fill="#ffedb1" fill-rule="evenodd" opacity="1" /><path d="M2.67306 2.06167L2.00904 2.00238L2.67306 2.06167ZM2.79233 0.725955L2.1283 0.666667L2.79233 0.725955ZM0.728842 0.666667L2.1283 0.666667L2.1283 -0.666667L0.728842 -0.666667L0.728842 0.666667ZM2.1283 0.666667L2.00904 2.00238L3.33709 2.12096L3.45635 0.785242L2.1283 0.666667ZM0.848103 2.00238L0.728842 0.666666L-0.599208 0.785242L-0.479947 2.12096L0.848103 2.00238ZM1.42857 2.53333C1.1268 2.53333 0.87494 2.30296 0.848103 2.00238L-0.479947 2.12096C-0.391709 3.10923 0.43637 3.86667 1.42857 3.86667L1.42857 2.53333ZM2.00904 2.00238C1.9822 2.30296 1.73035 2.53333 1.42857 2.53333L1.42857 3.86667C2.42077 3.86667 3.24885 3.10923 3.33709 2.12096L2.00904 2.00238ZM2.1283 0.666667L2.1283 0.666667L3.45635 0.785242C3.526 0.00515736 2.91149 -0.666667 2.1283 -0.666667L2.1283 0.666667ZM0.728842 -0.666667C-0.0543444 -0.666667 -0.668858 0.0051583 -0.599208 0.785242L0.728842 0.666666L0.728842 0.666667L0.728842 -0.666667Z" transform="translate(4.8572 10.9336)" fill="#f34257" fill-rule="nonzero" opacity="1" /><path d="M0 0L2.28571 0L2.28571 0.533333L1.71429 0.533333L1.14286 1.6L0.571429 0.533333L0 0.533333L0 0Z" transform="translate(5.1428 12)" fill="#f34257" fill-rule="evenodd" opacity="1" /><path d="M0 0.571429C0 0.255838 0.255837 0 0.571429 0L0.571429 0C0.88702 0 1.14286 0.255837 1.14286 0.571429L1.14286 3.1619C1.14286 3.4775 0.88702 3.73333 0.571429 3.73333L0.571429 3.73333C0.255837 3.73333 0 3.4775 0 3.1619L0 0.571429Z" transform="translate(3.4286 10.3999)" fill="#f34257" fill-rule="nonzero" opacity="1" /><path d="M0 0.571429C0 0.255838 0.255837 0 0.571429 0L0.571429 0C0.88702 0 1.14286 0.255837 1.14286 0.571429L1.14286 3.1619C1.14286 3.4775 0.88702 3.73333 0.571429 3.73333L0.571429 3.73333C0.255837 3.73333 0 3.4775 0 3.1619L0 0.571429Z" transform="translate(8 10.3999)" fill="#f34257" fill-rule="nonzero" opacity="1" /><path d="M0 0.853333C0 0.38205 0.38205 0 0.853334 0L1.43238 0C1.90366 0 2.28571 0.38205 2.28571 0.853333L2.28571 0.853333C2.28571 0.971154 2.1902 1.06667 2.07238 1.06667L0.213333 1.06667C0.0955126 1.06667 0 0.971154 0 0.853333L0 0.853333Z" transform="translate(5.1428 9.3335)" fill="#f34257" fill-rule="nonzero" opacity="1" /></svg>
