<svg width="24" height="24" viewBox="0 0 24 24" fill="none" xmlns="http://www.w3.org/2000/svg">
<path fill-rule="evenodd" clip-rule="evenodd" d="M5 12.5L5 21C5 21.5523 4.55228 22 4 22C3.44772 22 3 21.5523 3 21L3 3C3 2.44772 3.44772 2 4 2L13 2C13.5523 2 14 2.44772 14 3L14 4L20 4C20.5523 4 21 4.44772 21 5L21 13.5C21 14.0523 20.5523 14.5 20 14.5L13 14.5C12.7348 14.5 12.4804 14.3946 12.2929 14.2071C12.1054 14.0196 12 13.7652 12 13.5L12 12.5L5 12.5ZM5 10.5L13 10.5C13.5523 10.5 14 10.9477 14 11.5L14 12.5L19 12.5L19 6L13 6C12.4477 6 12 5.55228 12 5L12 4L5 4L5 10.5Z" fill="#212529"/>
</svg>
