<?xml version="1.0" encoding="UTF-8"?>
<svg xmlns="http://www.w3.org/2000/svg" width="24" height="24" viewBox="0 0 24 24" fill="none"><path d="M0 2C0 0.895431 0.895431 0 2 0L22 0C23.1046 0 24 0.895431 24 2L24 14C24 15.1046 23.1046 16 22 16L2 16C0.89543 16 0 15.1046 0 14L0 2Z" transform="translate(0 4)" fill="#05ab41" fill-rule="nonzero" opacity="1" /><path d="M0.714577 6.42875C0.390908 6.23454 0.390908 5.76546 0.714577 5.57125L9.74275 0.154349C9.90109 0.0593443 10.0989 0.059344 10.2572 0.154349L19.2854 5.57125C19.6091 5.76546 19.6091 6.23454 19.2854 6.42875L10.2572 11.8457C10.0989 11.9407 9.90109 11.9407 9.74275 11.8457L0.714577 6.42875Z" transform="translate(2 6)" fill="#fdd216" fill-rule="evenodd" opacity="1" /><path d="M8 4C8 6.20914 6.20914 8 4 8C1.79086 8 0 6.20914 0 4C0 1.79086 1.79086 0 4 0C6.20914 0 8 1.79086 8 4Z" transform="translate(8 8)" fill="#053087" fill-rule="nonzero" opacity="1" /><path d="M8 4C8 6.20914 6.20914 8 4 8C1.79086 8 0 6.20914 0 4C0 1.79086 1.79086 0 4 0C6.20914 0 8 1.79086 8 4Z" transform="translate(8 8)" fill="#053087" fill-rule="nonzero" opacity="1" /><path d="M-0.404061 -0.0684001L-0.808122 0.335661L-8.02797e-09 1.14378L0.404061 0.739722L-0.404061 -0.0684001ZM8.7388 2.45401L9.14286 2.85807L9.95098 2.04995L9.54692 1.64589L8.7388 2.45401ZM0.404061 0.739722C0.419529 0.724254 0.510961 0.659724 0.777016 0.615524C1.02642 0.57409 1.35489 0.562312 1.7517 0.578292C2.54422 0.610209 3.51406 0.747849 4.48267 0.900154L4.66019 -0.228832C3.69464 -0.380656 2.66448 -0.528731 1.79769 -0.563639C1.36484 -0.581071 0.948818 -0.571539 0.589718 -0.511881C0.24727 -0.45499 -0.133814 -0.338647 -0.404061 -0.0684001L0.404061 0.739722ZM4.48267 0.900154C5.40479 1.04515 6.36738 1.32095 7.16533 1.6284C7.56371 1.78189 7.91355 1.94039 8.19182 2.09001C8.47992 2.24492 8.657 2.37221 8.7388 2.45401L9.54692 1.64589C9.34648 1.44545 9.05279 1.25536 8.73304 1.08343C8.40346 0.906227 8.00837 0.728462 7.57622 0.561958C6.71311 0.229409 5.67222 -0.0696988 4.66019 -0.228832L4.48267 0.900154Z" transform="translate(6.7859 10.6206)" fill="#ffffff" fill-rule="nonzero" opacity="1" /></svg>
