<?xml version="1.0" encoding="UTF-8"?>
<svg xmlns="http://www.w3.org/2000/svg" width="24" height="24" viewBox="0 0 24 24" fill="none"><path d="M0 2C0 0.895431 0.895431 0 2 0L22 0C23.1046 0 24 0.895431 24 2L24 14C24 15.1046 23.1046 16 22 16L2 16C0.89543 16 0 15.1046 0 14L0 2Z" transform="translate(0 4)" fill="#ffffff" fill-rule="nonzero" opacity="1" /><path d="M2 0.5L22 0.5L22 -0.5L2 -0.5L2 0.5ZM23.5 2L23.5 14L24.5 14L24.5 2L23.5 2ZM22 15.5L2 15.5L2 16.5L22 16.5L22 15.5ZM0.5 14L0.5 2L-0.5 2L-0.5 14L0.5 14ZM2 15.5C1.17157 15.5 0.5 14.8284 0.5 14L-0.5 14C-0.5 15.3807 0.619288 16.5 2 16.5L2 15.5ZM23.5 14C23.5 14.8284 22.8284 15.5 22 15.5L22 16.5C23.3807 16.5 24.5 15.3807 24.5 14L23.5 14ZM22 0.5C22.8284 0.5 23.5 1.17157 23.5 2L24.5 2C24.5 0.619288 23.3807 -0.5 22 -0.5L22 0.5ZM2 -0.5C0.619288 -0.5 -0.5 0.619288 -0.5 2L0.5 2C0.5 1.17157 1.17157 0.5 2 0.5L2 -0.5Z" transform="translate(0 4)" fill="#f5f5f5" fill-rule="nonzero" opacity="1" /><path d="M0 2C0 0.895431 0.895431 0 2 0L22 0C23.1046 0 24 0.895431 24 2L24 14C24 15.1046 23.1046 16 22 16L2 16C0.89543 16 0 15.1046 0 14L0 2Z" transform="translate(0 4)" fill="#ffffff" fill-rule="nonzero" opacity="1" /><path d="M2 0.5L22 0.5L22 -0.5L2 -0.5L2 0.5ZM23.5 2L23.5 14L24.5 14L24.5 2L23.5 2ZM22 15.5L2 15.5L2 16.5L22 16.5L22 15.5ZM0.5 14L0.5 2L-0.5 2L-0.5 14L0.5 14ZM2 15.5C1.17157 15.5 0.5 14.8284 0.5 14L-0.5 14C-0.5 15.3807 0.619288 16.5 2 16.5L2 15.5ZM23.5 14C23.5 14.8284 22.8284 15.5 22 15.5L22 16.5C23.3807 16.5 24.5 15.3807 24.5 14L23.5 14ZM22 0.5C22.8284 0.5 23.5 1.17157 23.5 2L24.5 2C24.5 0.619288 23.3807 -0.5 22 -0.5L22 0.5ZM2 -0.5C0.619288 -0.5 -0.5 0.619288 -0.5 2L0.5 2C0.5 1.17157 1.17157 0.5 2 0.5L2 -0.5Z" transform="translate(0 4)" fill="#f5f5f5" fill-rule="nonzero" opacity="1" /><path d="M0 5.33333L24 5.33333L24 0L0 0L0 5.33333Z" transform="translate(0 9.3335)" fill="#0c47b7" fill-rule="evenodd" opacity="1" /><path d="M0 5.33333L24 5.33333L24 0L0 0L0 5.33333Z" transform="translate(0 14.6665)" fill="#e53b35" fill-rule="evenodd" opacity="1" /></svg>
