<svg width="24" height="24" viewBox="0 0 24 24" fill="none" xmlns="http://www.w3.org/2000/svg">
<path fill-rule="evenodd" clip-rule="evenodd" d="M5 5C4.44772 5 4 5.44772 4 6V18C4 18.5523 4.44772 19 5 19H19C19.5523 19 20 18.5523 20 18V8C20 7.44772 19.5523 7 19 7H12.4142C11.8838 7 11.3751 6.78929 11 6.41421L9.87868 5.29289C9.69114 5.10536 9.43679 5 9.17157 5H5ZM2 6C2 4.34315 3.34315 3 5 3H9.17157C9.96722 3 10.7303 3.31607 11.2929 3.87868L12.4142 5L19 5C20.6569 5 22 6.34315 22 8V18C22 19.6569 20.6569 21 19 21H5C3.34315 21 2 19.6569 2 18V6ZM12.2929 10.2929C12.6834 9.90237 13.3166 9.90237 13.7071 10.2929L15.7071 12.2929C16.0976 12.6834 16.0976 13.3166 15.7071 13.7071L13.7071 15.7071C13.3166 16.0976 12.6834 16.0976 12.2929 15.7071C11.9024 15.3166 11.9024 14.6834 12.2929 14.2929L12.5858 14L9 14C8.44771 14 8 13.5523 8 13C8 12.4477 8.44772 12 9 12L12.5858 12L12.2929 11.7071C11.9024 11.3166 11.9024 10.6834 12.2929 10.2929Z" fill="#212529"/>
</svg>
