<svg width="24" height="24" viewBox="0 0 24 24" fill="none" xmlns="http://www.w3.org/2000/svg">
<path fill-rule="evenodd" clip-rule="evenodd" d="M3.70711 2.29289C3.31658 1.90237 2.68342 1.90237 2.29289 2.29289C1.90237 2.68342 1.90237 3.31658 2.29289 3.70711L3.68165 5.09586C3.25572 5.61383 3 6.27705 3 7V17C3 18.6569 4.34315 20 6 20H18C18.1836 20 18.3633 19.9835 18.5377 19.9519L20.2929 21.7071C20.6834 22.0976 21.3166 22.0976 21.7071 21.7071C22.0976 21.3166 22.0976 20.6834 21.7071 20.2929C15.718 14.3037 9.70975 8.29553 3.70711 2.29289ZM5.11665 6.53086C5.04219 6.67077 5 6.83046 5 7V17C5 17.5523 5.44772 18 6 18H16.5858L5.11665 6.53086ZM19 8.75V14.7492L21 16.7492V8.75C21 7.09315 19.6569 5.75 18 5.75L12.4096 5.75L11.5076 4.86204C10.9464 4.30962 10.1905 4 9.40301 4H8.25081L11.9464 7.69564C12.097 7.73148 12.2524 7.75 12.4096 7.75H18C18.5523 7.75 19 8.19772 19 8.75Z" fill="#212529"/>
</svg>
