<svg width="24" height="24" viewBox="0 0 24 24" fill="none" xmlns="http://www.w3.org/2000/svg">
<path fill-rule="evenodd" clip-rule="evenodd" d="M3 6C3 5.44772 3.44772 5 4 5H8.17157C8.43679 5 8.69114 5.10536 8.87868 5.29289L10 6.41421C10.3751 6.78929 10.8838 7 11.4142 7H18C18.5523 7 19 7.44772 19 8V10H9.89504C8.87594 10 8.01982 10.7663 7.90727 11.7791L7.10495 19H4C3.44772 19 3 18.5523 3 18V6ZM9.11725 19H19.2099C19.7195 19 20.1475 18.6169 20.2038 18.1104L20.8827 12H9.89504L9.11725 19ZM4 21C2.34315 21 1 19.6569 1 18V6C1 4.34315 2.34315 3 4 3H8.17157C8.96722 3 9.73028 3.31607 10.2929 3.87868L11.4142 5L18 5C19.6569 5 21 6.34315 21 8V10.0034C22.1349 10.0686 22.9978 11.0753 22.8705 12.2209L22.1916 18.3313C22.0227 19.8506 20.7386 21 19.2099 21H4Z" fill="#212529"/>
</svg>
