<svg width="24" height="24" viewBox="0 0 24 24" fill="none" xmlns="http://www.w3.org/2000/svg">
<path fill-rule="evenodd" clip-rule="evenodd" d="M5 5C4.44772 5 4 5.44772 4 6V18C4 18.5523 4.44772 19 5 19H19C19.5523 19 20 18.5523 20 18V8C20 7.44772 19.5523 7 19 7H12.4142C11.8838 7 11.3751 6.78929 11 6.41421L9.87868 5.29289C9.69114 5.10536 9.43679 5 9.17157 5H5ZM2 6C2 4.34315 3.34315 3 5 3H9.17157C9.96722 3 10.7303 3.31607 11.2929 3.87868L12.4142 5L19 5C20.6569 5 22 6.34315 22 8V18C22 19.6569 20.6569 21 19 21H5C3.34315 21 2 19.6569 2 18V6ZM9.29289 10.2929C9.68342 9.90237 10.3166 9.90237 10.7071 10.2929L12 11.5858L13.2929 10.2929C13.6834 9.90237 14.3166 9.90237 14.7071 10.2929C15.0976 10.6834 15.0976 11.3166 14.7071 11.7071L13.4142 13L14.7071 14.2929C15.0976 14.6834 15.0976 15.3166 14.7071 15.7071C14.3166 16.0976 13.6834 16.0976 13.2929 15.7071L12 14.4142L10.7071 15.7071C10.3166 16.0976 9.68342 16.0976 9.29289 15.7071C8.90237 15.3166 8.90237 14.6834 9.29289 14.2929L10.5858 13L9.29289 11.7071C8.90237 11.3166 8.90237 10.6834 9.29289 10.2929Z" fill="#212529"/>
</svg>
