<svg width="24" height="24" viewBox="0 0 24 24" fill="none" xmlns="http://www.w3.org/2000/svg">
<path fill-rule="evenodd" clip-rule="evenodd" d="M5 3C3.34315 3 2 4.34315 2 6V18C2 19.6569 3.34315 21 5 21H19C20.6569 21 22 19.6569 22 18V8C22 6.34315 20.6569 5 19 5L12.4142 5L11.2929 3.87868C10.7303 3.31607 9.96722 3 9.17157 3H5ZM12.2929 10.2929C12.6834 9.90237 13.3166 9.90237 13.7071 10.2929L15.7071 12.2929C16.0976 12.6834 16.0976 13.3166 15.7071 13.7071L13.7071 15.7071C13.3166 16.0976 12.6834 16.0976 12.2929 15.7071C11.9024 15.3166 11.9024 14.6834 12.2929 14.2929L12.5858 14L9 14C8.44771 14 8 13.5523 8 13C8 12.4477 8.44772 12 9 12L12.5858 12L12.2929 11.7071C11.9024 11.3166 11.9024 10.6834 12.2929 10.2929Z" fill="#212529"/>
</svg>
