<svg width="24" height="24" viewBox="0 0 24 24" fill="none" xmlns="http://www.w3.org/2000/svg">
<path fill-rule="evenodd" clip-rule="evenodd" d="M5 5C4.44772 5 4 5.44772 4 6V18C4 18.5523 4.44772 19 5 19H19C19.5523 19 20 18.5523 20 18V8C20 7.44772 19.5523 7 19 7H12.4142C11.8838 7 11.3751 6.78929 11 6.41421L9.87868 5.29289C9.69114 5.10536 9.43679 5 9.17157 5H5ZM2 6C2 4.34315 3.34315 3 5 3H9.17157C9.96722 3 10.7303 3.31607 11.2929 3.87868L12.4142 5L19 5C20.6569 5 22 6.34315 22 8V18C22 19.6569 20.6569 21 19 21H5C3.34315 21 2 19.6569 2 18V6ZM9.29289 12.7071C8.90237 12.3166 8.90237 11.6834 9.29289 11.2929L11.2929 9.29289C11.6834 8.90237 12.3166 8.90237 12.7071 9.29289L14.7071 11.2929C15.0976 11.6834 15.0976 12.3166 14.7071 12.7071C14.3166 13.0976 13.6834 13.0976 13.2929 12.7071L13 12.4142L13 16C13 16.5523 12.5523 17 12 17C11.4477 17 11 16.5523 11 16L11 12.4142L10.7071 12.7071C10.3166 13.0976 9.68342 13.0976 9.29289 12.7071Z" fill="#212529"/>
</svg>
