<svg width="24" height="24" viewBox="0 0 24 24" fill="none" xmlns="http://www.w3.org/2000/svg">
<path fill-rule="evenodd" clip-rule="evenodd" d="M5 3C3.34315 3 2 4.34315 2 6V18C2 19.6569 3.34315 21 5 21H19C20.6569 21 22 19.6569 22 18V8C22 6.34315 20.6569 5 19 5L12.4142 5L11.2929 3.87868C10.7303 3.31607 9.96722 3 9.17157 3H5ZM13 10C13 10.5523 12.5523 11 12 11C11.4477 11 11 10.5523 11 10C11 9.44771 11.4477 9 12 9C12.5523 9 13 9.44772 13 10ZM12 12C12.5523 12 13 12.4477 13 13L13 16C13 16.5523 12.5523 17 12 17C11.4477 17 11 16.5523 11 16L11 13C11 12.4477 11.4477 12 12 12Z" fill="#212529"/>
</svg>
