<svg width="24" height="24" viewBox="0 0 24 24" fill="none" xmlns="http://www.w3.org/2000/svg">
<path fill-rule="evenodd" clip-rule="evenodd" d="M15 5.17071V3.77778C15 2.13618 16.4571 1 18 1C19.5429 1 21 2.13618 21 3.77778V5.17071C22.1652 5.58254 23 6.69378 23 8V10C23 10.8885 22.6137 11.6868 22 12.2361C21.4692 12.7111 20.7684 13 20 13H16C14.3431 13 13 11.6569 13 10V8C13 7.64936 13.0602 7.31278 13.1707 7C13.472 6.14759 14.1476 5.47199 15 5.17071ZM17 3.77778C17 3.4557 17.3337 3 18 3C18.6663 3 19 3.4557 19 3.77778V5H17V3.77778ZM21 10C21 10.5523 20.5523 11 20 11H16C15.4477 11 15 10.5523 15 10V8C15 7.44772 15.4477 7 16 7H20C20.5523 7 21 7.44772 21 8V10Z" fill="#212529"/>
<path d="M4 6C4 5.44772 4.44772 5 5 5H9.17157C9.43679 5 9.69114 5.10536 9.87868 5.29289L11 6.41421C11.0635 6.47772 11.1308 6.53651 11.2015 6.59037C11.4003 5.91257 11.7387 5.29449 12.1837 4.76944L11.2929 3.87868C10.7303 3.31607 9.96722 3 9.17157 3H5C3.34315 3 2 4.34315 2 6V18C2 19.6569 3.34315 21 5 21H19C20.6569 21 22 19.6569 22 18V14.584C21.3875 14.8516 20.7111 15 20 15V18C20 18.5523 19.5523 19 19 19H5C4.44772 19 4 18.5523 4 18V6Z" fill="#212529"/>
</svg>
