<svg width="24" height="24" viewBox="0 0 24 24" fill="none" xmlns="http://www.w3.org/2000/svg">
<path fill-rule="evenodd" clip-rule="evenodd" d="M1 6C1 4.34315 2.34315 3 4 3H8.17157C8.96722 3 9.73028 3.31607 10.2929 3.87868L11.4142 5L18 5C19.6569 5 21 6.34315 21 8V9C21 9.55228 20.5523 10 20 10H9.89504C8.87594 10 8.01982 10.7663 7.90727 11.7791L6.98156 20.1104C6.92529 20.6169 6.49723 21 5.98768 21H4C2.34315 21 1 19.6569 1 18V6ZM9.01842 19.8896C8.9526 20.4819 9.41629 21 10.0123 21H19.2099C20.7386 21 22.0227 19.8506 22.1916 18.3313C22.3479 16.9245 22.6103 14.5121 22.763 13.1063C22.8272 12.5149 22.3637 12 21.7688 12H10.7901C10.2805 12 9.85247 12.3831 9.7962 12.8896L9.01842 19.8896Z" fill="#212529"/>
</svg>
