<svg width="24" height="24" viewBox="0 0 24 24" fill="none" xmlns="http://www.w3.org/2000/svg">
<path fill-rule="evenodd" clip-rule="evenodd" d="M5 3C3.34315 3 2 4.34315 2 6V18C2 19.6569 3.34315 21 5 21H19C20.6569 21 22 19.6569 22 18V8C22 6.34315 20.6569 5 19 5L12.4142 5L11.2929 3.87868C10.7303 3.31607 9.96722 3 9.17157 3H5ZM12 9C12.5523 9 13 9.44772 13 10V13.5858L13.2929 13.2929C13.6834 12.9024 14.3166 12.9024 14.7071 13.2929C15.0976 13.6834 15.0976 14.3166 14.7071 14.7071L12.7071 16.7071C12.3166 17.0976 11.6834 17.0976 11.2929 16.7071L9.29289 14.7071C8.90237 14.3166 8.90237 13.6834 9.29289 13.2929C9.68342 12.9024 10.3166 12.9024 10.7071 13.2929L11 13.5858V10C11 9.44772 11.4477 9 12 9Z" fill="#212529"/>
</svg>
