<svg width="24" height="24" viewBox="0 0 24 24" fill="none" xmlns="http://www.w3.org/2000/svg">
<path fill-rule="evenodd" clip-rule="evenodd" d="M4 6C4 5.44772 4.44772 5 5 5H9.17157C9.43679 5 9.69114 5.10536 9.87868 5.29289L11 6.41421C11.3751 6.78929 11.8838 7 12.4142 7H19C19.5523 7 20 7.44772 20 8V18C20 18.5523 19.5523 19 19 19H5C4.44772 19 4 18.5523 4 18V6ZM5 3C3.34315 3 2 4.34315 2 6V18C2 19.6569 3.34315 21 5 21H19C20.6569 21 22 19.6569 22 18V8C22 6.34315 20.6569 5 19 5L12.4142 5L11.2929 3.87868C10.7303 3.31607 9.96722 3 9.17157 3H5ZM15.7071 11.7071C16.0976 11.3166 16.0976 10.6834 15.7071 10.2929C15.3166 9.90237 14.6834 9.90237 14.2929 10.2929L11 13.5858L9.70711 12.2929C9.31658 11.9024 8.68342 11.9024 8.29289 12.2929C7.90237 12.6834 7.90237 13.3166 8.29289 13.7071L10.2929 15.7071C10.6834 16.0976 11.3166 16.0976 11.7071 15.7071L15.7071 11.7071Z" fill="#212529"/>
</svg>
