<svg width="24" height="24" viewBox="0 0 24 24" fill="none" xmlns="http://www.w3.org/2000/svg">
<path fill-rule="evenodd" clip-rule="evenodd" d="M15 5.17071V3.77778C15 2.13618 16.4571 1 18 1C19.5429 1 21 2.13618 21 3.77778V5.17071C22.1652 5.58254 23 6.69378 23 8V10C23 10.8885 22.6138 11.6868 22 12.2361C21.4692 12.7111 20.7684 13 20 13H16C14.3431 13 13 11.6569 13 10V8C13 6.69378 13.8348 5.58254 15 5.17071ZM18 3C17.3337 3 17 3.4557 17 3.77778V5H19V3.77778C19 3.4557 18.6663 3 18 3Z" fill="#212529"/>
<path d="M5 3C3.34315 3 2 4.34315 2 6V18C2 19.6569 3.34315 21 5 21H19C20.6569 21 22 19.6569 22 18V14.584C21.3875 14.8516 20.7111 15 20 15H16C13.2386 15 11 12.7614 11 10V8C11 6.76841 11.4453 5.64081 12.1837 4.76944L11.2929 3.87868C10.7303 3.31607 9.96722 3 9.17157 3H5Z" fill="#212529"/>
</svg>
