<svg width="24" height="24" viewBox="0 0 24 24" fill="none" xmlns="http://www.w3.org/2000/svg">
<path fill-rule="evenodd" clip-rule="evenodd" d="M4 6C4 5.44772 4.44772 5 5 5H9.17157C9.43679 5 9.69114 5.10536 9.87868 5.29289L11 6.41421C11.3751 6.78929 11.8838 7 12.4142 7H19C19.5523 7 20 7.44772 20 8V18C20 18.5523 19.5523 19 19 19H5C4.44772 19 4 18.5523 4 18V6ZM5 3C3.34315 3 2 4.34315 2 6V18C2 19.6569 3.34315 21 5 21H19C20.6569 21 22 19.6569 22 18V8C22 6.34315 20.6569 5 19 5L12.4142 5L11.2929 3.87868C10.7303 3.31607 9.96722 3 9.17157 3H5ZM15 14C15.5523 14 16 13.5523 16 13C16 12.4477 15.5523 12 15 12H9C8.44772 12 8 12.4477 8 13C8 13.5523 8.44772 14 9 14H15Z" fill="#212529"/>
</svg>
