<svg width="24" height="24" viewBox="0 0 24 24" fill="none" xmlns="http://www.w3.org/2000/svg">
<path fill-rule="evenodd" clip-rule="evenodd" d="M13.4901 3.73691V7.57266C4.13048 8.24611 1.75506 15.2626 1.17776 18.0732C1.16868 18.1175 1.16003 18.1607 1.15181 18.2028C1.11625 18.3851 1.08865 18.5471 1.06739 18.6855C1.06578 18.696 1.0642 18.7063 1.06266 18.7165C1.0158 19.0274 1.00194 19.2112 1.00096 19.227C0.992373 19.3885 1.04173 19.5481 1.14169 19.681C1.24165 19.8141 1.38631 19.9132 1.55368 19.9632C1.63361 19.988 1.71748 20.0003 1.80206 20C2.07654 20 2.33207 19.8708 2.47888 19.6577C2.49796 19.629 2.57975 19.5129 2.72904 19.3346C2.73322 19.3296 2.73746 19.3246 2.74174 19.3195C2.80881 19.2398 2.88886 19.1483 2.9823 19.0471C3.00278 19.0249 3.0239 19.0023 3.04568 18.9792C4.11872 17.8409 6.76435 15.6221 11.4901 14.9772C12.1195 14.8913 12.7858 14.8333 13.4901 14.8096V18.5791C13.49 18.7753 13.5751 18.9635 13.7265 19.1019C13.878 19.2402 14.0835 19.3173 14.297 19.3158C14.5105 19.3145 14.7147 19.2348 14.864 19.0945L22.7711 11.6734C22.9177 11.5358 23 11.3508 23 11.158C23 10.9654 22.9177 10.7804 22.7711 10.6426L14.864 3.22154C14.7147 3.0812 14.5105 3.0015 14.297 3.00002C14.0835 2.99854 13.878 3.07562 13.7265 3.21398C13.5751 3.35236 13.49 3.54052 13.4901 3.73691ZM15.4901 6.55207L20.3977 11.158L15.4901 15.7639V12.7409L13.4227 12.8107C9.21049 12.9529 6.18303 14.2064 4.14901 15.5109C4.28148 15.2408 4.42887 14.9663 4.59282 14.691C5.96277 12.3906 8.53024 9.93471 13.6337 9.56751L15.4901 9.43393V6.55207Z" fill="#212529"/>
</svg>
