<svg width="24" height="24" viewBox="0 0 24 24" fill="none" xmlns="http://www.w3.org/2000/svg">
<path d="M1.00096 19.227C0.992373 19.3885 1.04173 19.5481 1.14169 19.681C1.24165 19.8141 1.38631 19.9132 1.55368 19.9632C1.63361 19.988 1.71748 20.0003 1.80206 20C2.07654 20 2.33207 19.8708 2.47888 19.6577C2.61102 19.4588 5.7514 15.0708 13.4901 14.8096V18.5791C13.49 18.7753 13.5751 18.9635 13.7265 19.1019C13.878 19.2402 14.0835 19.3173 14.297 19.3158C14.5105 19.3145 14.7147 19.2348 14.864 19.0945L22.7711 11.6734C22.9177 11.5358 23 11.3508 23 11.158C23 10.9654 22.9177 10.7804 22.7711 10.6426L14.864 3.22154C14.7147 3.0812 14.5105 3.0015 14.297 3.00002C14.0835 2.99854 13.878 3.07562 13.7265 3.21398C13.5751 3.35236 13.49 3.54052 13.4901 3.73691V7.57266C1.82609 8.41191 1.00874 19.102 1.00096 19.227Z" fill="#212529"/>
</svg>
