<svg width="24" height="24" viewBox="0 0 24 24" fill="none" xmlns="http://www.w3.org/2000/svg">
<path d="M10 5C10 4.44772 9.55228 4 9 4C8.44772 4 8 4.44772 8 5L8 8H5C4.44772 8 4 8.44772 4 9C4 9.55228 4.44772 10 5 10H9C9.55228 10 10 9.55229 10 9V5Z" fill="#212529"/>
<path d="M5 14C4.44772 14 4 14.4477 4 15C4 15.5523 4.44772 16 5 16H8L8 19C8 19.5523 8.44772 20 9 20C9.55229 20 10 19.5523 10 19L10 15C10 14.4477 9.55229 14 9 14H5Z" fill="#212529"/>
<path d="M15 20C14.4477 20 14 19.5523 14 19V15C14 14.4477 14.4477 14 15 14H19C19.5523 14 20 14.4477 20 15C20 15.5523 19.5523 16 19 16H16V19C16 19.5523 15.5523 20 15 20Z" fill="#212529"/>
<path d="M19 10C19.5523 10 20 9.55229 20 9C20 8.44772 19.5523 8 19 8L16 8V5C16 4.44772 15.5523 4 15 4C14.4477 4 14 4.44772 14 5V9C14 9.55228 14.4477 10 15 10L19 10Z" fill="#212529"/>
</svg>
