<svg width="24" height="24" viewBox="0 0 24 24" fill="none" xmlns="http://www.w3.org/2000/svg">
<path d="M5 10C4.44772 10 4 9.55228 4 9V5C4 4.44772 4.44772 4 5 4H9C9.55228 4 10 4.44772 10 5C10 5.55228 9.55228 6 9 6L6 6L6 9C6 9.55228 5.55229 10 5 10Z" fill="#212529"/>
<path d="M9 20C9.55228 20 10 19.5523 10 19C10 18.4477 9.55228 18 9 18H6L6 15C6 14.4477 5.55229 14 5 14C4.44772 14 4 14.4477 4 15V19C4 19.5523 4.44772 20 5 20H9Z" fill="#212529"/>
<path d="M20 15C20 14.4477 19.5523 14 19 14C18.4477 14 18 14.4477 18 15V18H15C14.4477 18 14 18.4477 14 19C14 19.5523 14.4477 20 15 20H19C19.5523 20 20 19.5523 20 19V15Z" fill="#212529"/>
<path d="M15 4C14.4477 4 14 4.44772 14 5C14 5.55229 14.4477 6 15 6H18V9C18 9.55229 18.4477 10 19 10C19.5523 10 20 9.55228 20 9V5C20 4.44772 19.5523 4 19 4H15Z" fill="#212529"/>
</svg>
