<svg width="24" height="24" viewBox="0 0 24 24" fill="none" xmlns="http://www.w3.org/2000/svg">
<g clip-path="url(#clip0_16216_912)">
<path d="M5 12C5 8.13401 8.13401 5 12 5C15.866 5 19 8.13401 19 12V12.1707C18.6872 12.0602 18.3506 12 18 12C16.3431 12 15 13.3431 15 15V17C15 18.6569 16.3431 20 18 20C18.0972 20 18.1932 19.9954 18.288 19.9864C17.6525 20.928 16.1922 22.0001 12.5 22.0001C11.9477 22.0001 11.5 22.4478 11.5 23.0001C11.5 23.5524 11.9477 24.0001 12.5 24.0001C16.6999 24.0001 18.9307 22.7192 20.0333 20.9711C20.886 19.6192 20.9505 18.0177 20.9758 17.383C20.991 17.2633 20.9992 17.1414 20.9999 17.0177C21.0002 17.0061 21.0002 16.9945 21 16.983V12C21 7.02944 16.9706 3 12 3C7.02944 3 3 7.02944 3 12V17C3 18.6569 4.34315 20 6 20C7.65685 20 9 18.6569 9 17V15C9 13.3431 7.65685 12 6 12C5.64936 12 5.31278 12.0602 5 12.1707V12Z" fill="#212529"/>
</g>
<defs>
<clipPath id="clip0_16216_912">
<rect width="24" height="24" fill="white"/>
</clipPath>
</defs>
</svg>
