<svg width="24" height="24" viewBox="0 0 24 24" fill="none" xmlns="http://www.w3.org/2000/svg">
<g clip-path="url(#clip0_16216_913)">
<path fill-rule="evenodd" clip-rule="evenodd" d="M12 5C8.13401 5 5 8.13401 5 12V12.1707C5.31278 12.0602 5.64936 12 6 12C7.65685 12 9 13.3431 9 15V17C9 18.6569 7.65685 20 6 20C4.34315 20 3 18.6569 3 17V12C3 7.02944 7.02944 3 12 3C16.9706 3 21 7.02944 21 12V16.983C21.0002 16.9945 21.0002 17.0061 20.9999 17.0177C20.9992 17.1414 20.991 17.2633 20.9758 17.383C20.9505 18.0177 20.886 19.6192 20.0333 20.9711C18.9307 22.7192 16.6999 24.0001 12.5 24.0001C11.9477 24.0001 11.5 23.5524 11.5 23.0001C11.5 22.4478 11.9477 22.0001 12.5 22.0001C16.1922 22.0001 17.6525 20.928 18.288 19.9864C18.1932 19.9954 18.0972 20 18 20C16.3431 20 15 18.6569 15 17V15C15 13.3431 16.3431 12 18 12C18.3506 12 18.6872 12.0602 19 12.1707V12C19 8.13401 15.866 5 12 5ZM19 16.9342C18.9876 17.0342 18.9784 17.1365 18.9708 17.2409C18.863 17.6768 18.4692 18 18 18C17.4477 18 17 17.5523 17 17V15C17 14.4477 17.4477 14 18 14C18.5523 14 19 14.4477 19 15V16.9342ZM5 17V15C5 14.4477 5.44772 14 6 14C6.55228 14 7 14.4477 7 15V17C7 17.5523 6.55228 18 6 18C5.44772 18 5 17.5523 5 17Z" fill="#212529"/>
</g>
<defs>
<clipPath id="clip0_16216_913">
<rect width="24" height="24" fill="white"/>
</clipPath>
</defs>
</svg>
