<svg width="24" height="24" viewBox="0 0 24 24" fill="none" xmlns="http://www.w3.org/2000/svg">
<path fill-rule="evenodd" clip-rule="evenodd" d="M5 12C5 8.13401 8.13401 5 12 5C15.866 5 19 8.13401 19 12V12.1707C18.6872 12.0602 18.3506 12 18 12C16.3431 12 15 13.3431 15 15V17C15 18.6569 16.3431 20 18 20C19.6569 20 21 18.6569 21 17V12C21 7.02944 16.9706 3 12 3C7.02944 3 3 7.02944 3 12V17C3 18.6569 4.34315 20 6 20C7.65685 20 9 18.6569 9 17V15C9 13.3431 7.65685 12 6 12C5.64936 12 5.31278 12.0602 5 12.1707V12ZM5 15V17C5 17.5523 5.44772 18 6 18C6.55228 18 7 17.5523 7 17V15C7 14.4477 6.55228 14 6 14C5.44772 14 5 14.4477 5 15ZM19 15C19 14.4477 18.5523 14 18 14C17.4477 14 17 14.4477 17 15V17C17 17.5523 17.4477 18 18 18C18.5523 18 19 17.5523 19 17V15Z" fill="#212529"/>
</svg>
