<svg width="24" height="24" viewBox="0 0 24 24" fill="none" xmlns="http://www.w3.org/2000/svg">
<path fill-rule="evenodd" clip-rule="evenodd" d="M14 3.84352L18.0622 6.18882C19.2998 6.90335 20.0622 8.22386 20.0622 9.65292V14.3435C20.0622 15.7726 19.2998 17.0931 18.0622 17.8076L14 20.1529C12.7624 20.8674 11.2376 20.8674 10 20.1529L5.93784 17.8076C4.70023 17.0931 3.93784 15.7726 3.93784 14.3435V9.65292C3.93784 8.22385 4.70023 6.90335 5.93784 6.18882L10 3.84352C11.2376 3.12898 12.7624 3.12898 14 3.84352ZM13 5.57557C12.3812 5.2183 11.6188 5.2183 11 5.57557L6.93784 7.92087C6.31903 8.27813 5.93784 8.93839 5.93784 9.65292V14.3435C5.93784 15.058 6.31903 15.7183 6.93784 16.0756L11 18.4209C11.6188 18.7781 12.3812 18.7781 13 18.4209L17.0622 16.0756C17.681 15.7183 18.0622 15.058 18.0622 14.3435V9.65292C18.0622 8.93839 17.681 8.27813 17.0622 7.92087L13 5.57557Z" fill="#212529"/>
</svg>
