<?xml version="1.0" encoding="UTF-8"?>
<svg xmlns="http://www.w3.org/2000/svg" width="24" height="24" viewBox="0 0 24 24" fill="none"><path d="M2 1L16 1L16 -1L2 -1L2 1ZM17 2L17 12.1104L19 12.1104L19 2L17 2ZM16 13.1104L2 13.1104L2 15.1104L16 15.1104L16 13.1104ZM1 12.1104L1 2L-1 2L-1 12.1104L1 12.1104ZM2 13.1104C1.44772 13.1104 1 12.6627 1 12.1104L-1 12.1104C-1 13.7672 0.343146 15.1104 2 15.1104L2 13.1104ZM17 12.1104C17 12.6627 16.5523 13.1104 16 13.1104L16 15.1104C17.6569 15.1104 19 13.7672 19 12.1104L17 12.1104ZM16 1C16.5523 1 17 1.44772 17 2L19 2C19 0.343146 17.6569 -1 16 -1L16 1ZM2 -1C0.343146 -1 -1 0.343146 -1 2L1 2C1 1.44772 1.44772 1 2 1L2 -1Z" transform="translate(3 4.9448)" fill="#212529" fill-rule="nonzero" opacity="1" /></svg>
