<?xml version="1.0" encoding="UTF-8"?>
<svg xmlns="http://www.w3.org/2000/svg" width="24" height="24" viewBox="0 0 24 24" fill="none"><path d="M1.55999 8.3469C1.11273 8.66454 0.495068 8.55775 0.180412 8.10838C-0.134243 7.65901 -0.0267408 7.03721 0.420526 6.71957L9.6247 0.182833C9.80227 0.0567205 10.0067 -0.00248981 10.2084 8.01326e-05C10.41 -0.00248979 10.6145 0.0567205 10.792 0.182833L19.9962 6.71957C20.4435 7.03721 20.551 7.65901 20.2363 8.10838C19.9217 8.55775 19.304 8.66454 18.8568 8.3469L18.2092 7.88703L18.2092 15.0633C18.2092 16.7201 16.8661 18.0633 15.2092 18.0633L14.1804 18.0633L14.1804 11.5633C14.1804 10.7349 13.5088 10.0633 12.6804 10.0633L7.68041 10.0633C6.85198 10.0633 6.18041 10.7349 6.18041 11.5633L6.18041 18.0633L5.20923 18.0633C3.55237 18.0633 2.20923 16.7201 2.20923 15.0633L2.20923 7.88582L1.55999 8.3469Z" transform="translate(1.8196 2.8066)" fill="#212529" fill-rule="nonzero" opacity="1" /><path d="M8.18041 18.0633L12.1804 18.0633L12.1804 12.0633L8.18041 12.0633L8.18041 18.0633Z" transform="translate(1.8196 2.8066)" fill="#212529" fill-rule="nonzero" opacity="1" /></svg>
