<?xml version="1.0" encoding="UTF-8"?>
<svg xmlns="http://www.w3.org/2000/svg" width="24" height="24" viewBox="0 0 24 24" fill="none"><path d="M8.19129 0.46726C8.95548 -0.173311 10.0748 -0.15311 10.8154 0.514619L18.3393 7.29841C18.7599 7.67766 19 8.21745 19 8.78379L19 18.0021C19 19.1067 18.1046 20.0021 17 20.0021L13.3333 20.0021C12.2288 20.0021 11.3333 19.1067 11.3333 18.0021L11.3333 12.1786L7.66667 12.1786L7.66667 18.0021C7.66667 19.1067 6.77123 20.0021 5.66667 20.0021L2 20.0021C0.895429 20.0021 0 19.1067 0 18.0021L0 8.26672C0 7.67518 0.261863 7.11399 0.715202 6.73398L8.19129 0.46726ZM9.47609 2L2 8.26672L2 18.0021L5.66667 18.0021L5.66667 12.1786C5.66667 11.074 6.5621 10.1786 7.66667 10.1786L11.3333 10.1786C12.4379 10.1786 13.3333 11.074 13.3333 12.1786L13.3333 18.0021L17 18.0021L17 8.78379L9.47609 2Z" transform="translate(2.5 1.998)" fill="#212529" fill-rule="evenodd" opacity="1" /></svg>
