<?xml version="1.0" encoding="UTF-8"?>
<svg xmlns="http://www.w3.org/2000/svg" width="24" height="24" viewBox="0 0 24 24" fill="none"><path d="M0.18042 8.10839C0.495075 8.55777 1.11274 8.66456 1.56 8.34691L2.20924 7.88583L2.20924 15.0633C2.20924 16.7201 3.55238 18.0633 5.20924 18.0633L15.2092 18.0633C16.8661 18.0633 18.2092 16.7201 18.2092 15.0633L18.2092 7.88704L18.8568 8.34691C19.304 8.66456 19.9217 8.55777 20.2363 8.10839C20.551 7.65902 20.4435 7.03723 19.9962 6.71958L10.7921 0.182846C10.6145 0.0567336 10.41 -0.00247667 10.2084 9.32515e-05C10.0067 -0.00247669 9.80228 0.0567336 9.62471 0.182846L0.420533 6.71958C-0.0267331 7.03723 -0.134236 7.65902 0.18042 8.10839ZM14.209 16.0633L15.2092 16.0633C15.7615 16.0633 16.2092 15.6156 16.2092 15.0633L16.2092 6.46666L10.2084 2.2049L4.20924 6.46544L4.20924 15.0633C4.20924 15.6156 4.65695 16.0633 5.20924 16.0633L6.20899 16.0633L6.20899 11.5633C6.20899 10.7349 6.88057 10.0633 7.70899 10.0633L12.709 10.0633C13.5374 10.0633 14.209 10.7349 14.209 11.5633L14.209 16.0633ZM8.20899 16.0633L12.209 16.0633L12.209 12.0633L8.20899 12.0633L8.20899 16.0633Z" transform="translate(1.9999 2.8701)" fill="#212529" fill-rule="evenodd" opacity="1" /></svg>
