<svg width="24" height="24" viewBox="0 0 24 24" fill="none" xmlns="http://www.w3.org/2000/svg">
<path fill-rule="evenodd" clip-rule="evenodd" d="M19 4C19.5523 4 20 3.55229 20 3C20 2.44772 19.5523 2 19 2H5C4.44772 2 4 2.44772 4 3C4 3.55228 4.44772 4 5 4H6V7C6 9.08697 7.06551 10.9251 8.68221 12C7.06551 13.0749 6 14.913 6 17L6 20H5C4.44772 20 4 20.4477 4 21C4 21.5523 4.44772 22 5 22H19C19.5523 22 20 21.5523 20 21C20 20.4477 19.5523 20 19 20H18V17C18 14.913 16.9345 13.0749 15.3178 12C16.9345 10.9251 18 9.08697 18 7V4H19ZM16 20V17C16 14.7909 14.2091 13 12 13C9.79086 13 8 14.7909 8 17L8 20H16ZM12 11C14.2091 11 16 9.20914 16 7V4L8 4V7C8 9.20914 9.79086 11 12 11Z" fill="#212529"/>
</svg>
