<?xml version="1.0" encoding="UTF-8"?>
<svg xmlns="http://www.w3.org/2000/svg" width="24" height="24" viewBox="0 0 24 24" fill="none"><path d="M8 0C8.55229 0 9 0.447715 9 1L9 2.08296C11.8377 2.55904 14 5.027 14 8L14 15L15 15C15.5523 15 16 15.4477 16 16C16 16.5523 15.5523 17 15 17L1 17C0.447715 17 0 16.5523 0 16C0 15.4477 0.447715 15 1 15L2 15L2 8C2 5.027 4.16229 2.55904 7 2.08296L7 1C7 0.447715 7.44771 0 8 0ZM4 8C4 5.79086 5.79086 4 8 4C10.2091 4 12 5.79086 12 8L12 15L4 15L4 8ZM10 18C10 19.1046 9.10457 20 8 20C6.89543 20 6 19.1046 6 18L10 18Z" transform="translate(4 2)" fill="#212529" fill-rule="evenodd" opacity="1" /><path d="M0 6C0 2.68629 2.68629 0 6 0L10 0C13.3137 0 16 2.68629 16 6L16 10C16 13.3137 13.3137 16 10 16L6 16C2.68629 16 0 13.3137 0 10L0 6Z" transform="translate(12 -4.002)" fill="#2a83f2" fill-rule="nonzero" opacity="1" /></svg>
