<svg width="24" height="24" viewBox="0 0 24 24" fill="none" xmlns="http://www.w3.org/2000/svg">
<path fill-rule="evenodd" clip-rule="evenodd" d="M6 2H16.1707C16.0602 2.31278 16 2.64936 16 3C16 4.65685 17.3431 6 19 6L22 6V18C22 20.2091 20.2091 22 18 22H6C3.79086 22 2 20.2091 2 18L2 6C2 3.79086 3.79086 2 6 2ZM4 18V14.4142L7.29289 11.1213C7.68342 10.7308 8.31658 10.7308 8.70711 11.1213L17.5858 20H6C4.89543 20 4 19.1046 4 18ZM20 18C20 18.4466 19.8536 18.8591 19.6062 19.1919L14.9142 14.5L15.7929 13.6213C16.1834 13.2308 16.8166 13.2308 17.2071 13.6213L20 16.4142V18Z" fill="#212529"/>
<path d="M18 3C18 2.56345 18.2797 2.19223 18.6697 2.05582C18.7731 2.01966 18.8843 2 19 2H23C23.5523 2 24 2.44772 24 3C24 3.55229 23.5523 4 23 4L19 4C18.4477 4 18 3.55228 18 3Z" fill="#212529"/>
</svg>
