<svg width="24" height="24" viewBox="0 0 24 24" fill="none" xmlns="http://www.w3.org/2000/svg">
<path fill-rule="evenodd" clip-rule="evenodd" d="M6 2C3.79086 2 2 3.79086 2 6V18C2 20.2091 3.79086 22 6 22H18C20.2091 22 22 20.2091 22 18V6C22 3.79086 20.2091 2 18 2H6ZM4 6C4 4.89543 4.89543 4 6 4H18C19.1046 4 20 4.89543 20 6V13.5858L18.6213 12.2071C17.4497 11.0355 15.5503 11.0355 14.3787 12.2071L13.5 13.0858L10.1213 9.70711C8.94975 8.53553 7.05026 8.53553 5.87868 9.70711L4 11.5858V6ZM4 14.4142V18C4 19.1046 4.89543 20 6 20H17.5858L8.70711 11.1213C8.31658 10.7308 7.68342 10.7308 7.29289 11.1213L4 14.4142ZM19.6062 19.1919C19.8536 18.8591 20 18.4466 20 18V16.4142L17.2071 13.6213C16.8166 13.2308 16.1834 13.2308 15.7929 13.6213L14.9142 14.5L19.6062 19.1919Z" fill="#212529"/>
</svg>
