<svg width="24" height="24" viewBox="0 0 24 24" fill="none" xmlns="http://www.w3.org/2000/svg">
<g clip-path="url(#clip0_5200_56518)">
<path fill-rule="evenodd" clip-rule="evenodd" d="M14.1657 6.01432C14.4644 5.15516 15.1428 4.47368 16 4.17071V2.77778C16 2.50342 16.0407 2.24318 16.1157 2C16.4894 0.788139 17.715 0 19 0C20.5429 0 22 1.13618 22 2.77778V4.17071C23.1652 4.58254 24 5.69378 24 7V9C24 9.8885 23.6138 10.6868 23 11.2361C22.7115 11.4944 22.3726 11.6976 22 11.8293C21.9871 11.8339 21.9741 11.8383 21.9611 11.8427C21.6594 11.9447 21.3362 12 21 12H17C15.3431 12 14 10.6569 14 9V7C14 6.67345 14.0522 6.35908 14.1486 6.06478C14.1542 6.04789 14.1599 6.03107 14.1657 6.01432ZM18.1915 2.32767C18.0639 2.47038 18 2.63687 18 2.77778V4H20V2.77778C20 2.76771 19.9997 2.75752 19.999 2.74721C19.9939 2.66612 19.9686 2.57806 19.9232 2.4918C19.7895 2.23815 19.4816 2 19 2C18.8659 2 18.7452 2.01847 18.638 2.05061C18.6287 2.05339 18.6196 2.05627 18.6105 2.05925C18.4629 2.10776 18.3421 2.18253 18.248 2.27012C18.228 2.28877 18.2091 2.30799 18.1915 2.32767Z" fill="#212529"/>
<path fill-rule="evenodd" clip-rule="evenodd" d="M14 2.77778C14 2.50871 14.0212 2.2493 14.0615 2H6C3.79086 2 2 3.79086 2 6L2 18C2 20.2091 3.79086 22 6 22H18C20.2091 22 22 20.2091 22 18V13.8997C21.6767 13.9654 21.3422 14 21 14H17.5858L20 16.4142V18C20 18.4466 19.8536 18.8591 19.6062 19.1919L14.9142 14.5L15.61 13.8042C13.5248 13.202 12 11.2791 12 9V7C12 6.45922 12.0866 5.93469 12.2481 5.4418C12.2574 5.41355 12.2669 5.38543 12.2766 5.35745C12.6067 4.40828 13.2129 3.59065 14 2.99977V2.77778ZM4 18V14.4142L7.29289 11.1213C7.68342 10.7308 8.31658 10.7308 8.70711 11.1213L17.5858 20H6C4.89543 20 4 19.1046 4 18Z" fill="#212529"/>
</g>
<defs>
<clipPath id="clip0_5200_56518">
<rect width="24" height="24" fill="white"/>
</clipPath>
</defs>
</svg>
