<svg width="24" height="24" viewBox="0 0 24 24" fill="none" xmlns="http://www.w3.org/2000/svg">
<g clip-path="url(#clip0_5200_56523)">
<path d="M21 0C21.5523 0 22 0.447715 22 1V2L23 2C23.5523 2 24 2.44772 24 3C24 3.55228 23.5523 4 23 4H22V5C22 5.55228 21.5523 6 21 6C20.4477 6 20 5.55228 20 5V4H19C18.4477 4 18 3.55228 18 3C18 2.44771 18.4477 2 19 2L20 2V1C20 0.447715 20.4477 0 21 0Z" fill="#212529"/>
<path fill-rule="evenodd" clip-rule="evenodd" d="M4 6C4 4.89543 4.89543 4 6 4H15C15.5523 4 16 3.55228 16 3C16 2.44772 15.5523 2 15 2H6C3.79086 2 2 3.79086 2 6V18C2 20.2091 3.79086 22 6 22H18C20.2091 22 22 20.2091 22 18V9C22 8.44772 21.5523 8 21 8C20.4477 8 20 8.44772 20 9V13.5858L18.6213 12.2071C17.4497 11.0355 15.5503 11.0355 14.3787 12.2071L13.5 13.0858L10.1213 9.70711C8.94975 8.53553 7.05026 8.53553 5.87868 9.70711L4 11.5858V6ZM4 14.4142V18C4 19.1046 4.89543 20 6 20H17.5858L8.70711 11.1213C8.31658 10.7308 7.68342 10.7308 7.29289 11.1213L4 14.4142ZM19.6062 19.1919C19.8536 18.8591 20 18.4466 20 18V16.4142L17.2071 13.6213C16.8166 13.2308 16.1834 13.2308 15.7929 13.6213L14.9142 14.5L19.6062 19.1919Z" fill="#212529"/>
</g>
<defs>
<clipPath id="clip0_5200_56523">
<rect width="24" height="24" fill="white"/>
</clipPath>
</defs>
</svg>
