<svg width="24" height="24" viewBox="0 0 24 24" fill="none" xmlns="http://www.w3.org/2000/svg">
<g clip-path="url(#clip0_5200_56527)">
<path fill-rule="evenodd" clip-rule="evenodd" d="M16 4.17071V2.77778C16 1.13618 17.4571 0 19 0C20.5429 0 22 1.13618 22 2.77778V4.17071C23.1652 4.58254 24 5.69378 24 7V9C24 10.6569 22.6569 12 21 12H17C15.3431 12 14 10.6569 14 9V7C14 5.69378 14.8348 4.58254 16 4.17071ZM18 2.77778C18 2.4557 18.3337 2 19 2C19.6663 2 20 2.4557 20 2.77778V4H18V2.77778ZM17 6C16.4477 6 16 6.44772 16 7V9C16 9.55228 16.4477 10 17 10H21C21.5523 10 22 9.55228 22 9V7C22 6.44772 21.5523 6 21 6H17Z" fill="#212529"/>
<path fill-rule="evenodd" clip-rule="evenodd" d="M4 6C4 4.89543 4.89543 4 6 4H13C13.5523 4 14 3.55228 14 3C14 2.44772 13.5523 2 13 2H6C3.79086 2 2 3.79086 2 6V18C2 20.2091 3.79086 22 6 22H18C20.2091 22 22 20.2091 22 18V15C22 14.4477 21.5523 14 21 14C20.4477 14 20 14.4477 20 15V18C20 18.4466 19.8536 18.8591 19.6062 19.1919L10.1213 9.70711C8.94975 8.53553 7.05026 8.53553 5.87868 9.70711L4 11.5858V6ZM4 14.4142V18C4 19.1046 4.89543 20 6 20H17.5858L8.70711 11.1213C8.31658 10.7308 7.68342 10.7308 7.29289 11.1213L4 14.4142Z" fill="#212529"/>
</g>
<defs>
<clipPath id="clip0_5200_56527">
<rect width="24" height="24" fill="white"/>
</clipPath>
</defs>
</svg>
