<svg width="24" height="24" viewBox="0 0 24 24" fill="none" xmlns="http://www.w3.org/2000/svg">
<path fill-rule="evenodd" clip-rule="evenodd" d="M6 4C4.89543 4 4 4.89543 4 6V11.5858L5.87868 9.70711C7.05026 8.53553 8.94975 8.53554 10.1213 9.70711L13.5 13.0858L14.3787 12.2071C15.5503 11.0355 17.4497 11.0355 18.6213 12.2071L20 13.5858V7C20 6.44772 20.4477 6 21 6C21.5523 6 22 6.44772 22 7V18C22 20.2091 20.2091 22 18 22H6C3.79086 22 2 20.2091 2 18V6C2 3.79086 3.79086 2 6 2H15C15.5523 2 16 2.44772 16 3C16 3.55229 15.5523 4 15 4H6ZM4 18V14.4142L7.29289 11.1213C7.68342 10.7308 8.31658 10.7308 8.70711 11.1213L17.5858 20H6C4.89543 20 4 19.1046 4 18ZM20 18C20 18.4466 19.8536 18.8591 19.6062 19.1919L14.9142 14.5L15.7929 13.6213C16.1834 13.2308 16.8166 13.2308 17.2071 13.6213L20 16.4142V18Z" fill="#212529"/>
<path d="M23 4C23.5523 4 24 3.55229 24 3C24 2.44772 23.5523 2 23 2H19C18.4477 2 18 2.44772 18 3C18 3.55228 18.4477 4 19 4L23 4Z" fill="#212529"/>
</svg>
