<svg width="24" height="24" viewBox="0 0 24 24" fill="none" xmlns="http://www.w3.org/2000/svg">
<g clip-path="url(#clip0_5200_56519)">
<path d="M21 0C21.5523 0 22 0.447715 22 1V2L23 2C23.5523 2 24 2.44772 24 3C24 3.55228 23.5523 4 23 4L22 4V5C22 5.55228 21.5523 6 21 6C20.4477 6 20 5.55228 20 5V4H19C18.4477 4 18 3.55228 18 3C18 2.44771 18.4477 2 19 2L20 2V1C20 0.447715 20.4477 0 21 0Z" fill="#212529"/>
<path fill-rule="evenodd" clip-rule="evenodd" d="M16 3C16 2.64936 16.0602 2.31278 16.1707 2H6C3.79086 2 2 3.79086 2 6L2 18C2 20.2091 3.79086 22 6 22H18C20.2091 22 22 20.2091 22 18V7.82929C21.6872 7.93985 21.3506 8 21 8C19.6462 8 18.5019 7.10331 18.1285 5.87146C16.8967 5.4981 16 4.35377 16 3ZM4 18V14.4142L7.29289 11.1213C7.68342 10.7308 8.31658 10.7308 8.70711 11.1213L17.5858 20H6C4.89543 20 4 19.1046 4 18ZM20 18C20 18.4466 19.8536 18.8591 19.6062 19.1919L14.9142 14.5L15.7929 13.6213C16.1834 13.2308 16.8166 13.2308 17.2071 13.6213L20 16.4142V18Z" fill="#212529"/>
</g>
<defs>
<clipPath id="clip0_5200_56519">
<rect width="24" height="24" fill="white"/>
</clipPath>
</defs>
</svg>
