<?xml version="1.0" encoding="UTF-8"?>
<svg xmlns="http://www.w3.org/2000/svg" width="24" height="24" viewBox="0 0 24 24" fill="none"><path d="M0.601044 -0.601038C0.2691 -0.932985 -0.26909 -0.932988 -0.601038 -0.601044C-0.932985 -0.2691 -0.932988 0.26909 -0.601044 0.601038L0.601044 -0.601038ZM2.29028 2.29031L2.89132 2.89135C3.22327 2.5594 3.22327 2.02121 2.89133 1.68927L2.29028 2.29031ZM-0.601041 3.97955C-0.932986 4.31149 -0.932986 4.84968 -0.601041 5.18163C-0.269095 5.51358 0.269095 5.51358 0.601041 5.18163L-0.601041 3.97955ZM-0.601044 0.601038L1.68924 2.89134L2.89133 1.68927L0.601044 -0.601038L-0.601044 0.601038ZM1.68924 1.68927L-0.601041 3.97955L0.601041 5.18163L2.89132 2.89135L1.68924 1.68927Z" transform="translate(9.7595 9.7168)" fill="#212529" fill-rule="nonzero" opacity="1" /><path d="M0 -0.85C-0.469442 -0.85 -0.85 -0.469442 -0.85 0C-0.85 0.469442 -0.469442 0.85 0 0.85L0 -0.85ZM8.98784 0.85C9.45728 0.85 9.83784 0.469442 9.83784 0C9.83784 -0.469442 9.45728 -0.85 8.98784 -0.85L8.98784 0.85ZM0 0.85L8.98784 0.85L8.98784 -0.85L0 -0.85L0 0.85Z" transform="translate(2.7715 12.0073)" fill="#212529" fill-rule="nonzero" opacity="1" /><path d="M-3.50151e-05 -0.85C-0.469477 -0.85 -0.850035 -0.469442 -0.850035 0C-0.850035 0.469442 -0.469477 0.85 -3.50151e-05 0.85L-3.50151e-05 -0.85ZM3.37399 0.85C3.84343 0.85 4.22399 0.469442 4.22399 0C4.22399 -0.469442 3.84343 -0.85 3.37399 -0.85L3.37399 0.85ZM-3.50151e-05 0.85L3.37399 0.85L3.37399 -0.85L-3.50151e-05 -0.85L-3.50151e-05 0.85Z" transform="translate(10.308 4)" fill="#212529" fill-rule="nonzero" opacity="1" /><path d="M-2.80215e-05 -0.85C-0.46947 -0.85 -0.850028 -0.469442 -0.850028 0C-0.850028 0.469442 -0.46947 0.85 -2.80215e-05 0.85L-2.80215e-05 -0.85ZM2.7001 0.85C3.16954 0.85 3.5501 0.469442 3.5501 0C3.5501 -0.469442 3.16954 -0.85 2.7001 -0.85L2.7001 0.85ZM-2.80215e-05 0.85L2.7001 0.85L2.7001 -0.85L-2.80215e-05 -0.85L-2.80215e-05 0.85Z" transform="translate(21.2285 10.6572)" fill="#212529" fill-rule="nonzero" opacity="1" /><path d="M-3.50151e-05 -0.85C-0.469477 -0.85 -0.850035 -0.469442 -0.850035 0C-0.850035 0.469442 -0.469477 0.85 -3.50151e-05 0.85L-3.50151e-05 -0.85ZM3.37399 0.85C3.84343 0.85 4.22399 0.469442 4.22399 0C4.22399 -0.469442 3.84343 -0.85 3.37399 -0.85L3.37399 0.85ZM-3.50151e-05 0.85L3.37399 0.85L3.37399 -0.85L-3.50151e-05 -0.85L-3.50151e-05 0.85Z" transform="translate(10.308 20)" fill="#212529" fill-rule="nonzero" opacity="1" /><path d="M3.54995 0.85C4.0194 0.85 4.39995 0.469442 4.39995 0C4.39995 -0.469442 4.0194 -0.85 3.54995 -0.85L3.54995 0.85ZM-0.85 3.31648C-0.85 3.78592 -0.469442 4.16648 0 4.16648C0.469442 4.16648 0.85 3.78592 0.85 3.31648L-0.85 3.31648ZM3.54995 -0.85L2 -0.85L2 0.85L3.54995 0.85L3.54995 -0.85ZM-0.85 2L-0.85 3.31648L0.85 3.31648L0.85 2L-0.85 2ZM2 -0.85C0.425986 -0.85 -0.85 0.42599 -0.85 2L0.85 2C0.85 1.36487 1.36487 0.85 2 0.85L2 -0.85Z" transform="translate(2.7715 4.0273)" fill="#212529" fill-rule="nonzero" opacity="1" /><path d="M3.54995 0.85C4.0194 0.85 4.39995 0.469442 4.39995 0C4.39995 -0.469442 4.0194 -0.85 3.54995 -0.85L3.54995 0.85ZM-0.85 3.31648C-0.85 3.78592 -0.469442 4.16648 0 4.16648C0.469442 4.16648 0.85 3.78592 0.85 3.31648L-0.85 3.31648ZM3.54995 -0.85L2 -0.85L2 0.85L3.54995 0.85L3.54995 -0.85ZM-0.85 2L-0.85 3.31648L0.85 3.31648L0.85 2L-0.85 2ZM2 -0.85C0.425986 -0.85 -0.85 0.42599 -0.85 2L0.85 2C0.85 1.36487 1.36487 0.85 2 0.85L2 -0.85Z" transform="translate(2.7715 16.6562)" fill="#212529" fill-rule="nonzero" opacity="1" /><path d="M3.54995 0.85C4.0194 0.85 4.39995 0.469442 4.39995 0C4.39995 -0.469442 4.0194 -0.85 3.54995 -0.85L3.54995 0.85ZM-0.85 3.31648C-0.85 3.78592 -0.469442 4.16648 0 4.16648C0.469442 4.16648 0.85 3.78592 0.85 3.31648L-0.85 3.31648ZM3.54995 -0.85L2 -0.85L2 0.85L3.54995 0.85L3.54995 -0.85ZM-0.85 2L-0.85 3.31648L0.85 3.31648L0.85 2L-0.85 2ZM2 -0.85C0.425986 -0.85 -0.85 0.42599 -0.85 2L0.85 2C0.85 1.36487 1.36487 0.85 2 0.85L2 -0.85Z" transform="translate(17.6786 4.0273)" fill="#212529" fill-rule="nonzero" opacity="1" /><path d="M3.54995 0.85C4.0194 0.85 4.39995 0.469442 4.39995 0C4.39995 -0.469442 4.0194 -0.85 3.54995 -0.85L3.54995 0.85ZM-0.85 3.31648C-0.85 3.78592 -0.469442 4.16648 0 4.16648C0.469442 4.16648 0.85 3.78592 0.85 3.31648L-0.85 3.31648ZM3.54995 -0.85L2 -0.85L2 0.85L3.54995 0.85L3.54995 -0.85ZM-0.85 2L-0.85 3.31648L0.85 3.31648L0.85 2L-0.85 2ZM2 -0.85C0.425986 -0.85 -0.85 0.42599 -0.85 2L0.85 2C0.85 1.36487 1.36487 0.85 2 0.85L2 -0.85Z" transform="translate(17.6786 16.6562)" fill="#212529" fill-rule="nonzero" opacity="1" /></svg>
