<svg width="24" height="24" viewBox="0 0 24 24" fill="none" xmlns="http://www.w3.org/2000/svg">
<path fill-rule="evenodd" clip-rule="evenodd" d="M5 2C3.34315 2 2 3.34315 2 5L2 19C2 20.6569 3.34315 22 5 22H19C20.6569 22 22 20.6569 22 19V5C22 3.34315 20.6569 2 19 2L5 2ZM4 5C4 4.44772 4.44772 4 5 4L19 4C19.5523 4 20 4.44772 20 5V15L16 15H14.5C14.2239 15 14.0064 15.2273 13.9383 15.4949C13.718 16.3601 12.9337 17 12 17C11.0663 17 10.282 16.3601 10.0617 15.4949C9.99359 15.2273 9.77614 15 9.5 15H8H4L4 5ZM4 17V19C4 19.5523 4.44772 20 5 20H19C19.5523 20 20 19.5523 20 19V17H15.7533C15.5748 17 15.4118 17.0966 15.3116 17.2442C14.5921 18.3039 13.3773 19 12 19C10.6227 19 9.40792 18.3039 8.68842 17.2442C8.58816 17.0966 8.42522 17 8.24673 17H4Z" fill="#212529"/>
</svg>
