<svg width="24" height="24" viewBox="0 0 24 24" fill="none" xmlns="http://www.w3.org/2000/svg">
<path fill-rule="evenodd" clip-rule="evenodd" d="M8.14258 5C7.53219 5 6.9533 5.26339 6.56234 5.719L2.47747 10.4794C1.86098 11.1979 1.83927 12.2357 2.4252 12.9779L6.56157 18.2175C6.95101 18.7108 7.55435 19 8.19408 19H19.9423C21.0787 19 22 18.1046 22 17V7C22 5.89543 21.0787 5 19.9423 5H8.14258ZM16.5606 10.4869C16.7222 10.3298 16.7222 10.0703 16.5606 9.91319L15.8999 9.271C15.7447 9.12012 15.4976 9.12012 15.3423 9.271L14.048 10.5291C13.8927 10.6799 13.6456 10.6799 13.4904 10.5291L12.196 9.271C12.0408 9.12012 11.7937 9.12012 11.6384 9.271L10.9777 9.91319C10.8161 10.0703 10.8161 10.3298 10.9777 10.4869L12.2394 11.7132C12.4011 11.8703 12.4011 12.1298 12.2394 12.2869L10.9777 13.5132C10.8161 13.6703 10.8161 13.9298 10.9777 14.0869L11.6384 14.7291C11.7937 14.8799 12.0408 14.8799 12.196 14.7291L13.4904 13.471C13.6456 13.3201 13.8927 13.3201 14.048 13.471L15.3423 14.7291C15.4976 14.8799 15.7447 14.8799 15.8999 14.7291L16.5606 14.0869C16.7222 13.9298 16.7222 13.6703 16.5606 13.5132L15.2989 12.2869C15.1373 12.1298 15.1373 11.8703 15.2989 11.7132L16.5606 10.4869Z" fill="#212529"/>
</svg>
