<svg width="24" height="24" viewBox="0 0 24 24" fill="none" xmlns="http://www.w3.org/2000/svg">
<path d="M5 6.5C5 6.22386 5.22386 6 5.5 6H6.5C6.77614 6 7 6.22386 7 6.5V7.5C7 7.77614 6.77614 8 6.5 8H5.5C5.22386 8 5 7.77614 5 7.5V6.5Z" fill="#212529"/>
<path d="M5.5 10C5.22386 10 5 10.2239 5 10.5V11.5C5 11.7761 5.22386 12 5.5 12H6.5C6.77614 12 7 11.7761 7 11.5V10.5C7 10.2239 6.77614 10 6.5 10H5.5Z" fill="#212529"/>
<path d="M9 6.5C9 6.22386 9.22386 6 9.5 6H10.5C10.7761 6 11 6.22386 11 6.5V7.5C11 7.77614 10.7761 8 10.5 8H9.5C9.22386 8 9 7.77614 9 7.5V6.5Z" fill="#212529"/>
<path d="M9.5 10C9.22386 10 9 10.2239 9 10.5V11.5C9 11.7761 9.22386 12 9.5 12H14.5C14.7761 12 15 11.7761 15 11.5V10.5C15 10.2239 14.7761 10 14.5 10H9.5Z" fill="#212529"/>
<path d="M13 6.5C13 6.22386 13.2239 6 13.5 6H14.5C14.7761 6 15 6.22386 15 6.5V7.5C15 7.77614 14.7761 8 14.5 8H13.5C13.2239 8 13 7.77614 13 7.5V6.5Z" fill="#212529"/>
<path d="M17.5 6C17.2239 6 17 6.22386 17 6.5V7.5C17 7.77614 17.2239 8 17.5 8H18.5C18.7761 8 19 7.77614 19 7.5V6.5C19 6.22386 18.7761 6 18.5 6H17.5Z" fill="#212529"/>
<path d="M17 10.5C17 10.2239 17.2239 10 17.5 10H18.5C18.7761 10 19 10.2239 19 10.5V11.5C19 11.7761 18.7761 12 18.5 12H17.5C17.2239 12 17 11.7761 17 11.5V10.5Z" fill="#212529"/>
<path fill-rule="evenodd" clip-rule="evenodd" d="M1 6C1 3.79086 2.79086 2 5 2H19C21.2091 2 23 3.79086 23 6V12C23 14.2091 21.2091 16 19 16H5C2.79086 16 1 14.2091 1 12V6ZM5 4C3.89543 4 3 4.89543 3 6V12C3 13.1046 3.89543 14 5 14H19C20.1046 14 21 13.1046 21 12V6C21 4.89543 20.1046 4 19 4H5Z" fill="#212529"/>
<path d="M9.29289 20.2929C8.90237 20.6834 8.90237 21.3166 9.29289 21.7071C9.68342 22.0976 10.3166 22.0976 10.7071 21.7071L12 20.4142L13.2929 21.7071C13.6834 22.0976 14.3166 22.0976 14.7071 21.7071C15.0976 21.3166 15.0976 20.6834 14.7071 20.2929L12.7071 18.2929C12.3166 17.9024 11.6834 17.9024 11.2929 18.2929L9.29289 20.2929Z" fill="#212529"/>
</svg>
