<svg width="24" height="24" viewBox="0 0 24 24" fill="none" xmlns="http://www.w3.org/2000/svg">
<path fill-rule="evenodd" clip-rule="evenodd" d="M1 6C1 3.79086 2.79086 2 5 2H19C21.2091 2 23 3.79086 23 6V12C23 14.2091 21.2091 16 19 16H5C2.79086 16 1 14.2091 1 12L1 6ZM5.5 6C5.22386 6 5 6.22386 5 6.5V7.5C5 7.77614 5.22386 8 5.5 8H6.5C6.77614 8 7 7.77614 7 7.5V6.5C7 6.22386 6.77614 6 6.5 6H5.5ZM5 10.5C5 10.2239 5.22386 10 5.5 10H6.5C6.77614 10 7 10.2239 7 10.5V11.5C7 11.7761 6.77614 12 6.5 12H5.5C5.22386 12 5 11.7761 5 11.5V10.5ZM9.5 6C9.22386 6 9 6.22386 9 6.5V7.5C9 7.77614 9.22386 8 9.5 8H10.5C10.7761 8 11 7.77614 11 7.5V6.5C11 6.22386 10.7761 6 10.5 6H9.5ZM9 10.5C9 10.2239 9.22386 10 9.5 10H14.5C14.7761 10 15 10.2239 15 10.5V11.5C15 11.7761 14.7761 12 14.5 12H9.5C9.22386 12 9 11.7761 9 11.5V10.5ZM13.5 6C13.2239 6 13 6.22386 13 6.5V7.5C13 7.77614 13.2239 8 13.5 8H14.5C14.7761 8 15 7.77614 15 7.5V6.5C15 6.22386 14.7761 6 14.5 6H13.5ZM17 6.5C17 6.22386 17.2239 6 17.5 6H18.5C18.7761 6 19 6.22386 19 6.5V7.5C19 7.77614 18.7761 8 18.5 8H17.5C17.2239 8 17 7.77614 17 7.5V6.5ZM17.5 10C17.2239 10 17 10.2239 17 10.5V11.5C17 11.7761 17.2239 12 17.5 12H18.5C18.7761 12 19 11.7761 19 11.5V10.5C19 10.2239 18.7761 10 18.5 10H17.5Z" fill="#212529"/>
<path fill-rule="evenodd" clip-rule="evenodd" d="M9.29289 21.7071C8.90237 21.3166 8.90237 20.6834 9.29289 20.2929L11.2929 18.2929C11.6834 17.9024 12.3166 17.9024 12.7071 18.2929L14.7071 20.2929C15.0976 20.6834 15.0976 21.3166 14.7071 21.7071C14.3166 22.0976 13.6834 22.0976 13.2929 21.7071L12 20.4142L10.7071 21.7071C10.3166 22.0976 9.68342 22.0976 9.29289 21.7071Z" fill="#212529"/>
</svg>
