<svg width="24" height="24" viewBox="0 0 24 24" fill="none" xmlns="http://www.w3.org/2000/svg">
<path d="M16.5606 9.91316C16.7222 10.0702 16.7222 10.3298 16.5606 10.4868L15.2989 11.7132C15.1373 11.8702 15.1373 12.1298 15.2989 12.2868L16.5606 13.5132C16.7222 13.6702 16.7222 13.9298 16.5606 14.0868L15.8999 14.729C15.7447 14.8799 15.4976 14.8799 15.3423 14.729L14.048 13.471C13.8927 13.3201 13.6456 13.3201 13.4904 13.471L12.196 14.729C12.0408 14.8799 11.7937 14.8799 11.6384 14.729L10.9777 14.0868C10.8161 13.9298 10.8161 13.6702 10.9777 13.5132L12.2394 12.2868C12.4011 12.1298 12.4011 11.8702 12.2394 11.7132L10.9777 10.4868C10.8161 10.3298 10.8161 10.0702 10.9777 9.91316L11.6384 9.27097C11.7937 9.12009 12.0408 9.12009 12.196 9.27097L13.4904 10.529C13.6456 10.6799 13.8927 10.6799 14.048 10.529L15.3423 9.27097C15.4976 9.12009 15.7447 9.12009 15.8999 9.27097L16.5606 9.91316Z" fill="#212529"/>
<path fill-rule="evenodd" clip-rule="evenodd" d="M6.56234 5.719C6.9533 5.26339 7.53219 5 8.14258 5H19.9423C21.0787 5 22 5.89543 22 7V17C22 18.1046 21.0787 19 19.9423 19H8.19408C7.55435 19 6.95101 18.7108 6.56157 18.2175L2.4252 12.9779C1.83927 12.2357 1.86098 11.1979 2.47747 10.4794L6.56234 5.719ZM8.14258 7H19.9423V17H8.19408L4.05771 11.7604L8.14258 7Z" fill="#212529"/>
</svg>
