<svg width="24" height="24" viewBox="0 0 24 24" fill="none" xmlns="http://www.w3.org/2000/svg">
<path fill-rule="evenodd" clip-rule="evenodd" d="M19.748 14C19.9125 13.3608 20 12.6906 20 12C20 11.3094 19.9125 10.6392 19.748 10H16.8573C16.9487 10.6289 17 11.2956 17 12C17 12.7044 16.9487 13.3711 16.8573 14L19.748 14ZM14.8323 14H9.16765C9.06118 13.3801 9 12.7135 9 12C9 11.2864 9.06118 10.6199 9.16764 10H14.8324C14.9388 10.6199 15 11.2864 15 12C15 12.7135 14.9388 13.3801 14.8323 14ZM16.4054 8H18.9297C17.9836 6.3644 16.475 5.09486 14.6685 4.45585C14.7229 4.53363 14.7775 4.61344 14.8321 4.69528C15.4129 5.56658 15.992 6.66889 16.4054 8ZM12 4.3528C12.3265 4.68815 12.7465 5.17244 13.1679 5.80468C13.5674 6.4038 13.968 7.13516 14.2923 8L9.70773 8C10.032 7.13516 10.4326 6.4038 10.8321 5.80468C11.2535 5.17244 11.6735 4.68815 12 4.3528ZM14.2922 16C13.968 16.8648 13.5674 17.5962 13.1679 18.1953C12.7465 18.8275 12.3265 19.3118 12 19.6471C11.6735 19.3118 11.2535 18.8275 10.8321 18.1953C10.4326 17.5962 10.032 16.8648 9.70775 16H14.2922ZM14.6684 19.5442C14.7229 19.4664 14.7775 19.3865 14.8321 19.3047C15.4129 18.4334 15.992 17.3311 16.4054 16L18.9297 16C17.9836 17.6356 16.475 18.9052 14.6684 19.5442ZM7 12C7 11.2956 7.05127 10.6289 7.1427 10H4.25203C4.08751 10.6392 4 11.3094 4 12C4 12.6906 4.08751 13.3608 4.25203 14H7.14271C7.05127 13.3711 7 12.7044 7 12ZM9.16795 4.69528C9.22251 4.61344 9.27709 4.53363 9.33155 4.45585C7.52499 5.09486 6.0164 6.3644 5.07026 8H7.59463C8.00799 6.66889 8.58708 5.56658 9.16795 4.69528ZM5.07026 16H7.59464C8.00801 17.3311 8.58709 18.4334 9.16795 19.3047C9.22252 19.3865 9.27712 19.4664 9.33159 19.5442C7.52501 18.9052 6.01641 17.6356 5.07026 16ZM12 22C17.5228 22 22 17.5228 22 12C22 6.47715 17.5228 2 12 2C6.47715 2 2 6.47715 2 12C2 17.5228 6.47715 22 12 22Z" fill="#212529"/>
</svg>
