<svg width="24" height="24" viewBox="0 0 24 24" fill="none" xmlns="http://www.w3.org/2000/svg">
<path d="M6 4C6 2.89543 6.89543 2 8 2H16C17.1046 2 18 2.89543 18 4C18 4.55228 17.5523 5 17 5H7C6.44771 5 6 4.55228 6 4Z" fill="#212529"/>
<path fill-rule="evenodd" clip-rule="evenodd" d="M7.2 7.6C6.70557 6.94076 7.17595 6 8 6H16C16.824 6 17.2944 6.94076 16.8 7.6L15 10V21C15 21.5523 14.5523 22 14 22H10C9.44772 22 9 21.5523 9 21V10L7.2 7.6ZM12 9C11.4477 9 11 9.44771 11 10V13C11 13.5523 11.4477 14 12 14C12.5523 14 13 13.5523 13 13V10C13 9.44771 12.5523 9 12 9Z" fill="#212529"/>
</svg>
