<svg width="24" height="24" viewBox="0 0 24 24" fill="none" xmlns="http://www.w3.org/2000/svg">
<path fill-rule="evenodd" clip-rule="evenodd" d="M6 4C6 2.89543 6.89543 2 8 2L16 2C17.1046 2 18 2.89543 18 4V5.76393C18 6.07442 17.9277 6.38065 17.7889 6.65836L16 10.2361L16 20C16 21.1046 15.1046 22 14 22H10C8.89543 22 8 21.1046 8 20L8 10.2361L6.21115 6.65836C6.07229 6.38065 6 6.07442 6 5.76393V4ZM16 4H8V5H16V4ZM9.78885 9.34164L8.61803 7L15.382 7L14.2111 9.34164C14.0723 9.61935 14 9.92558 14 10.2361V20H10V10.2361C10 9.92558 9.92771 9.61935 9.78885 9.34164ZM12 10C11.4477 10 11 10.4477 11 11V13C11 13.5523 11.4477 14 12 14C12.5523 14 13 13.5523 13 13V11C13 10.4477 12.5523 10 12 10Z" fill="#212529"/>
</svg>
