<svg width="24" height="24" viewBox="0 0 24 24" fill="none" xmlns="http://www.w3.org/2000/svg">
<path fill-rule="evenodd" clip-rule="evenodd" d="M12 5C11.4477 5 11 4.55228 11 4V3C11 2.44772 11.4477 2 12 2C12.5523 2 13 2.44772 13 3V4C13 4.55228 12.5523 5 12 5ZM12 9C10.3431 9 9 10.3431 9 12C9 13.6569 10.3431 15 12 15C13.6569 15 15 13.6569 15 12C15 10.3431 13.6569 9 12 9ZM7 12C7 9.23858 9.23858 7 12 7C14.7614 7 17 9.23858 17 12C17 14.7614 14.7614 17 12 17C9.23858 17 7 14.7614 7 12ZM19 12C19 11.4477 19.4477 11 20 11H21C21.5523 11 22 11.4477 22 12C22 12.5523 21.5523 13 21 13H20C19.4477 13 19 12.5523 19 12ZM18.364 16.9498C17.9734 16.5593 17.3403 16.5593 16.9498 16.9498C16.5592 17.3403 16.5592 17.9735 16.9498 18.364L17.6569 19.0711C18.0474 19.4616 18.6805 19.4616 19.0711 19.0711C19.4616 18.6806 19.4616 18.0474 19.0711 17.6569L18.364 16.9498ZM16.9498 5.63615C16.5592 6.02668 16.5592 6.65984 16.9498 7.05037C17.3403 7.44089 17.9734 7.44089 18.364 7.05037L19.0711 6.34326C19.4616 5.95274 19.4616 5.31957 19.0711 4.92905C18.6805 4.53852 18.0474 4.53852 17.6569 4.92905L16.9498 5.63615ZM2 12C2 11.4477 2.44772 11 3 11H4C4.55228 11 5 11.4477 5 12C5 12.5523 4.55228 13 4 13H3C2.44772 13 2 12.5523 2 12ZM6.34315 4.92903C5.95263 4.53851 5.31946 4.53851 4.92894 4.92903C4.53842 5.31956 4.53842 5.95272 4.92894 6.34324L5.63605 7.05035C6.02657 7.44088 6.65974 7.44088 7.05026 7.05035C7.44079 6.65983 7.44079 6.02666 7.05026 5.63614L6.34315 4.92903ZM12 22C11.4477 22 11 21.5523 11 21V20C11 19.4477 11.4477 19 12 19C12.5523 19 13 19.4477 13 20V21C13 21.5523 12.5523 22 12 22ZM4.92894 17.6569C4.53841 18.0474 4.53841 18.6806 4.92894 19.0711C5.31946 19.4616 5.95263 19.4616 6.34315 19.0711L7.05026 18.364C7.44078 17.9735 7.44078 17.3403 7.05026 16.9498C6.65974 16.5593 6.02657 16.5593 5.63605 16.9498L4.92894 17.6569Z" fill="#212529"/>
</svg>
