<svg width="24" height="24" viewBox="0 0 24 24" fill="none" xmlns="http://www.w3.org/2000/svg">
<path fill-rule="evenodd" clip-rule="evenodd" d="M12 1C12.5523 1 13 1.44772 13 2V4C13 4.55228 12.5523 5 12 5C11.4477 5 11 4.55228 11 4V2C11 1.44772 11.4477 1 12 1ZM4.22182 4.2216C4.61234 3.83108 5.24551 3.83108 5.63603 4.2216L7.05024 5.63582C7.44077 6.02634 7.44077 6.65951 7.05024 7.05003C6.65972 7.44056 6.02655 7.44056 5.63603 7.05003L4.22182 5.63582C3.83129 5.24529 3.83129 4.61213 4.22182 4.2216ZM22 13C22.5523 13 23 12.5523 23 12C23 11.4477 22.5523 11 22 11H20C19.4477 11 19 11.4477 19 12C19 12.5523 19.4477 13 20 13H22ZM19.7782 4.22176C20.1687 4.61228 20.1687 5.24544 19.7782 5.63597L18.364 7.05018C17.9734 7.44071 17.3403 7.44071 16.9498 7.05018C16.5592 6.65966 16.5592 6.02649 16.9498 5.63597L18.364 4.22176C18.7545 3.83123 19.3877 3.83123 19.7782 4.22176ZM13 20C13 19.4477 12.5523 19 12 19C11.4477 19 11 19.4477 11 20V22C11 22.5523 11.4477 23 12 23C12.5523 23 13 22.5523 13 22V20ZM16.9498 16.9496C17.3403 16.5591 17.9734 16.5591 18.364 16.9496L19.7782 18.3638C20.1687 18.7544 20.1687 19.3875 19.7782 19.7781C19.3877 20.1686 18.7545 20.1686 18.364 19.7781L16.9498 18.3638C16.5592 17.9733 16.5592 17.3402 16.9498 16.9496ZM4 13C4.55228 13 5 12.5523 5 12C5 11.4477 4.55228 11 4 11H2C1.44772 11 1 11.4477 1 12C1 12.5523 1.44772 13 2 13H4ZM7.05025 16.9498C7.44077 17.3403 7.44077 17.9735 7.05025 18.364L5.63603 19.7782C5.24551 20.1687 4.61234 20.1687 4.22182 19.7782C3.83129 19.3877 3.83129 18.7545 4.22182 18.364L5.63603 16.9498C6.02656 16.5593 6.65972 16.5593 7.05025 16.9498ZM12 17C14.7614 17 17 14.7614 17 12C17 9.23858 14.7614 7 12 7C9.23858 7 7 9.23858 7 12C7 14.7614 9.23858 17 12 17Z" fill="#212529"/>
</svg>
