<svg width="24" height="24" viewBox="0 0 24 24" fill="none" xmlns="http://www.w3.org/2000/svg">
<path fill-rule="evenodd" clip-rule="evenodd" d="M12 1C12.5523 1 13 1.44772 13 2V4C13 4.55228 12.5523 5 12 5C11.4477 5 11 4.55228 11 4V2C11 1.44772 11.4477 1 12 1ZM12 9C10.3431 9 9 10.3431 9 12C9 13.6569 10.3431 15 12 15C13.6569 15 15 13.6569 15 12C15 10.3431 13.6569 9 12 9ZM7 12C7 9.23858 9.23858 7 12 7C14.7614 7 17 9.23858 17 12C17 14.7614 14.7614 17 12 17C9.23858 17 7 14.7614 7 12ZM5.63603 4.2216C5.24551 3.83108 4.61234 3.83108 4.22182 4.2216C3.83129 4.61213 3.83129 5.24529 4.22182 5.63582L5.63603 7.05003C6.02655 7.44056 6.65972 7.44056 7.05024 7.05003C7.44077 6.65951 7.44077 6.02634 7.05024 5.63582L5.63603 4.2216ZM23 12C23 12.5523 22.5523 13 22 13H20C19.4477 13 19 12.5523 19 12C19 11.4477 19.4477 11 20 11H22C22.5523 11 23 11.4477 23 12ZM19.7782 5.63597C20.1687 5.24544 20.1687 4.61228 19.7782 4.22176C19.3877 3.83123 18.7545 3.83123 18.364 4.22176L16.9498 5.63597C16.5592 6.02649 16.5592 6.65966 16.9498 7.05018C17.3403 7.44071 17.9734 7.44071 18.364 7.05018L19.7782 5.63597ZM12 19C12.5523 19 13 19.4477 13 20V22C13 22.5523 12.5523 23 12 23C11.4477 23 11 22.5523 11 22V20C11 19.4477 11.4477 19 12 19ZM18.364 16.9496C17.9734 16.5591 17.3403 16.5591 16.9498 16.9496C16.5592 17.3402 16.5592 17.9733 16.9498 18.3638L18.364 19.7781C18.7545 20.1686 19.3877 20.1686 19.7782 19.7781C20.1687 19.3875 20.1687 18.7544 19.7782 18.3638L18.364 16.9496ZM5 12C5 12.5523 4.55228 13 4 13H2C1.44772 13 1 12.5523 1 12C1 11.4477 1.44772 11 2 11H4C4.55228 11 5 11.4477 5 12ZM7.05025 18.364C7.44077 17.9735 7.44077 17.3403 7.05025 16.9498C6.65972 16.5593 6.02656 16.5593 5.63603 16.9498L4.22182 18.364C3.8313 18.7545 3.8313 19.3877 4.22182 19.7782C4.61234 20.1687 5.24551 20.1687 5.63603 19.7782L7.05025 18.364Z" fill="#212529"/>
</svg>
