<svg width="24" height="24" viewBox="0 0 24 24" fill="none" xmlns="http://www.w3.org/2000/svg">
<path fill-rule="evenodd" clip-rule="evenodd" d="M13 4C13 4.55228 12.5523 5 12 5C11.4477 5 11 4.55228 11 4C11 3.44772 11.4477 3 12 3C12.5523 3 13 3.44772 13 4ZM17 12C17 14.7614 14.7614 17 12 17C9.23858 17 7 14.7614 7 12C7 9.23858 9.23858 7 12 7C14.7614 7 17 9.23858 17 12ZM7.05024 7.05037C7.44077 6.65984 7.44077 6.02668 7.05024 5.63616C6.65972 5.24563 6.02656 5.24563 5.63603 5.63616C5.24551 6.02668 5.24551 6.65984 5.63603 7.05037C6.02656 7.44089 6.65972 7.44089 7.05024 7.05037ZM20 13C19.4477 13 19 12.5523 19 12C19 11.4477 19.4477 11 20 11C20.5523 11 21 11.4477 21 12C21 12.5523 20.5523 13 20 13ZM16.9498 7.05003C17.3403 7.44056 17.9734 7.44056 18.364 7.05003C18.7545 6.65951 18.7545 6.02634 18.364 5.63582C17.9734 5.24529 17.3403 5.24529 16.9498 5.63582C16.5592 6.02634 16.5592 6.65951 16.9498 7.05003ZM13 20C13 20.5523 12.5523 21 12 21C11.4477 21 11 20.5523 11 20C11 19.4477 11.4477 19 12 19C12.5523 19 13 19.4477 13 20ZM18.364 18.3638C18.7545 17.9733 18.7545 17.3402 18.364 16.9496C17.9734 16.5591 17.3403 16.5591 16.9498 16.9496C16.5592 17.3402 16.5592 17.9733 16.9498 18.3638C17.3403 18.7544 17.9734 18.7544 18.364 18.3638ZM4 13C3.44772 13 3 12.5523 3 12C3 11.4477 3.44772 11 4 11C4.55228 11 5 11.4477 5 12C5 12.5523 4.55228 13 4 13ZM5.63603 18.364C6.02656 18.7545 6.65972 18.7545 7.05025 18.364C7.44077 17.9735 7.44077 17.3403 7.05025 16.9498C6.65972 16.5593 6.02656 16.5593 5.63603 16.9498C5.24551 17.3403 5.24551 17.9735 5.63603 18.364Z" fill="#212529"/>
</svg>
