<svg width="24" height="24" viewBox="0 0 24 24" fill="none" xmlns="http://www.w3.org/2000/svg">
<path d="M16.2426 13.4143C15.8521 13.0237 15.8521 12.3906 16.2426 12L19.0711 9.17161C20.2426 8.00004 20.2426 6.10054 19.0711 4.92897C17.8995 3.7574 16 3.7574 14.8284 4.92897L12 7.7574C11.6095 8.14792 10.9763 8.14792 10.5858 7.7574C10.1952 7.36687 10.1952 6.73371 10.5858 6.34319L13.4142 3.51476C15.3668 1.56214 18.5326 1.56214 20.4853 3.51476C22.4379 5.46738 22.4379 8.6332 20.4853 10.5858L17.6568 13.4143C17.2663 13.8048 16.6331 13.8048 16.2426 13.4143Z" fill="#212529"/>
<path d="M13.4142 16.2427C13.0237 15.8521 12.3905 15.8521 12 16.2427L9.17155 19.0711C7.99998 20.2427 6.10048 20.2427 4.92891 19.0711C3.75734 17.8995 3.75734 16 4.92891 14.8284L7.75734 12C8.14786 11.6095 8.14786 10.9763 7.75734 10.5858C7.36681 10.1953 6.73365 10.1953 6.34312 10.5858L3.5147 13.4142C1.56208 15.3668 1.56208 18.5327 3.5147 20.4853C5.46732 22.4379 8.63314 22.4379 10.5858 20.4853L13.4142 17.6569C13.8047 17.2663 13.8047 16.6332 13.4142 16.2427Z" fill="#212529"/>
<path d="M16.7365 8.73658C17.1271 8.34606 17.1271 7.71289 16.7365 7.32237C16.346 6.93184 15.7128 6.93184 15.3223 7.32237L7.32232 15.3224C6.9318 15.7129 6.9318 16.3461 7.32232 16.7366C7.71284 17.1271 8.34601 17.1271 8.73653 16.7366L16.7365 8.73658Z" fill="#212529"/>
</svg>
