<svg width="24" height="24" viewBox="0 0 24 24" fill="none" xmlns="http://www.w3.org/2000/svg">
<g clip-path="url(#clip0_5184_56898)">
<path d="M16.2426 13.4143C15.8521 13.0237 15.8521 12.3906 16.2426 12L19.0711 9.17161C20.2426 8.00004 20.2426 6.10054 19.0711 4.92897C17.8995 3.7574 16 3.7574 14.8284 4.92897L12 7.7574C11.6095 8.14792 10.9763 8.14792 10.5858 7.7574C10.1952 7.36687 10.1952 6.73371 10.5858 6.34319L13.4142 3.51476C15.3668 1.56214 18.5326 1.56214 20.4853 3.51476C22.4379 5.46738 22.4379 8.6332 20.4853 10.5858L17.6568 13.4143C17.2663 13.8048 16.6331 13.8048 16.2426 13.4143Z" fill="#212529"/>
<path d="M13.4142 16.2427C13.0237 15.8522 12.3905 15.8522 12 16.2427L9.17155 19.0711C7.99998 20.2427 6.10048 20.2427 4.92891 19.0711C3.75734 17.8996 3.75734 16.0001 4.92891 14.8285L7.75734 12.0001C8.14786 11.6096 8.14786 10.9764 7.75734 10.5859C7.36681 10.1953 6.73365 10.1953 6.34312 10.5859L3.5147 13.4143C1.56208 15.3669 1.56208 18.5327 3.5147 20.4854C5.46732 22.438 8.63314 22.438 10.5858 20.4854L13.4142 17.6569C13.8047 17.2664 13.8047 16.6332 13.4142 16.2427Z" fill="#212529"/>
<path d="M16.7365 8.73658C17.1271 8.34606 17.1271 7.71289 16.7365 7.32237C16.346 6.93184 15.7128 6.93184 15.3223 7.32237L7.32232 15.3224C6.9318 15.7129 6.9318 16.3461 7.32232 16.7366C7.71284 17.1271 8.34601 17.1271 8.73653 16.7366L16.7365 8.73658Z" fill="#212529"/>
<path d="M20 16.0001C20.5523 16.0001 21 16.4478 21 17.0001V19.0001L23 19.0001C23.5523 19.0001 24 19.4478 24 20.0001C24 20.5523 23.5523 21.0001 23 21.0001L21 21.0001V23.0001C21 23.5523 20.5523 24.0001 20 24.0001C19.4477 24.0001 19 23.5523 19 23.0001V21.0001L17 21.0001C16.4477 21.0001 16 20.5523 16 20.0001C16 19.4478 16.4477 19.0001 17 19.0001L19 19.0001V17.0001C19 16.4478 19.4477 16.0001 20 16.0001Z" fill="#212529"/>
</g>
<defs>
<clipPath id="clip0_5184_56898">
<rect width="24" height="24" fill="white"/>
</clipPath>
</defs>
</svg>
