<svg width="24" height="24" viewBox="0 0 24 24" fill="none" xmlns="http://www.w3.org/2000/svg">
<path d="M6.70711 4.29289C6.31658 3.90237 5.68342 3.90237 5.29289 4.29289L4 5.58579L3.70711 5.29289C3.31658 4.90237 2.68342 4.90237 2.29289 5.29289C1.90237 5.68342 1.90237 6.31658 2.29289 6.70711L3.29289 7.70711C3.68342 8.09763 4.31658 8.09763 4.70711 7.70711L6.70711 5.70711C7.09763 5.31658 7.09763 4.68342 6.70711 4.29289Z" fill="#212529"/>
<path d="M21 7C21.5523 7 22 6.55228 22 6C22 5.44772 21.5523 5 21 5L11 5C10.4477 5 10 5.44771 10 6C10 6.55228 10.4477 7 11 7L21 7Z" fill="#212529"/>
<path d="M21 13C21.5523 13 22 12.5523 22 12C22 11.4477 21.5523 11 21 11L11 11C10.4477 11 10 11.4477 10 12C10 12.5523 10.4477 13 11 13L21 13Z" fill="#212529"/>
<path d="M22 18C22 18.5523 21.5523 19 21 19L11 19C10.4477 19 10 18.5523 10 18C10 17.4477 10.4477 17 11 17L21 17C21.5523 17 22 17.4477 22 18Z" fill="#212529"/>
<path d="M5.29289 10.2929C5.68342 9.90237 6.31658 9.90237 6.70711 10.2929C7.09763 10.6834 7.09763 11.3166 6.70711 11.7071L4.70711 13.7071C4.31658 14.0976 3.68342 14.0976 3.29289 13.7071L2.29289 12.7071C1.90237 12.3166 1.90237 11.6834 2.29289 11.2929C2.68342 10.9024 3.31658 10.9024 3.70711 11.2929L4 11.5858L5.29289 10.2929Z" fill="#212529"/>
<path d="M6.70711 16.2929C6.31658 15.9024 5.68342 15.9024 5.29289 16.2929L4 17.5858L3.70711 17.2929C3.31658 16.9024 2.68342 16.9024 2.29289 17.2929C1.90237 17.6834 1.90237 18.3166 2.29289 18.7071L3.29289 19.7071C3.68342 20.0976 4.31658 20.0976 4.70711 19.7071L6.70711 17.7071C7.09763 17.3166 7.09763 16.6834 6.70711 16.2929Z" fill="#212529"/>
</svg>
