<svg width="24" height="24" viewBox="0 0 24 24" fill="none" xmlns="http://www.w3.org/2000/svg">
<path d="M15.7071 13.7071C16.0976 13.3166 16.0976 12.6834 15.7071 12.2929C15.3166 11.9024 14.6834 11.9024 14.2929 12.2929L11 15.5858L9.70711 14.2929C9.31658 13.9024 8.68342 13.9024 8.29289 14.2929C7.90237 14.6834 7.90237 15.3166 8.29289 15.7071L10.2929 17.7071C10.6834 18.0976 11.3166 18.0976 11.7071 17.7071L15.7071 13.7071Z" fill="#212529"/>
<path fill-rule="evenodd" clip-rule="evenodd" d="M20 11C20 9.34315 18.6569 8 17 8V6C17 3.23858 14.7614 1 12 1C9.23858 1 7 3.23858 7 6L7 8C5.34315 8 4 9.34315 4 11V19C4 20.6569 5.34315 22 7 22H17C18.6569 22 20 20.6569 20 19V11ZM12 3C10.3431 3 9 4.34315 9 6V8H15V6C15 4.34315 13.6569 3 12 3ZM7 10C6.44772 10 6 10.4477 6 11V19C6 19.5523 6.44772 20 7 20H17C17.5523 20 18 19.5523 18 19V11C18 10.4477 17.5523 10 17 10H7Z" fill="#212529"/>
</svg>
