<svg width="24" height="24" viewBox="0 0 24 24" fill="none" xmlns="http://www.w3.org/2000/svg">
<path d="M12 11C12.5523 11 13 11.4477 13 12V14H15C15.5523 14 16 14.4477 16 15C16 15.5523 15.5523 16 15 16H13V18C13 18.5523 12.5523 19 12 19C11.4477 19 11 18.5523 11 18V16H9C8.44772 16 8 15.5523 8 15C8 14.4477 8.44772 14 9 14H11V12C11 11.4477 11.4477 11 12 11Z" fill="#212529"/>
<path fill-rule="evenodd" clip-rule="evenodd" d="M17 8C18.6569 8 20 9.34315 20 11V19C20 20.6569 18.6569 22 17 22H7C5.34315 22 4 20.6569 4 19V11C4 9.34315 5.34315 8 7 8L7 6C7 3.23858 9.23858 1 12 1C14.7614 1 17 3.23858 17 6V8ZM9 6C9 4.34315 10.3431 3 12 3C13.6569 3 15 4.34315 15 6V8H9V6ZM6 11C6 10.4477 6.44772 10 7 10H17C17.5523 10 18 10.4477 18 11V19C18 19.5523 17.5523 20 17 20H7C6.44772 20 6 19.5523 6 19V11Z" fill="#212529"/>
</svg>
