<svg width="24" height="24" viewBox="0 0 24 24" fill="none" xmlns="http://www.w3.org/2000/svg">
<path fill-rule="evenodd" clip-rule="evenodd" d="M2 6C2 3.79086 3.79086 2 6 2H18C20.2091 2 22 3.79086 22 6V18C22 20.2091 20.2091 22 18 22H6C3.79086 22 2 20.2091 2 18V17C2 16.4477 2.44772 16 3 16C3.55228 16 4 16.4477 4 17V18C4 19.1046 4.89543 20 6 20H18C19.1046 20 20 19.1046 20 18V6C20 4.89543 19.1046 4 18 4H6C4.89543 4 4 4.89543 4 6V7C4 7.55228 3.55228 8 3 8C2.44772 8 2 7.55228 2 7V6ZM2 12C2 11.4477 2.44772 11 3 11H12.5858L10.2929 8.70711C9.90237 8.31658 9.90237 7.68342 10.2929 7.29289C10.6834 6.90237 11.3166 6.90237 11.7071 7.29289L15.7071 11.2929C16.0976 11.6834 16.0976 12.3166 15.7071 12.7071L11.7071 16.7071C11.3166 17.0976 10.6834 17.0976 10.2929 16.7071C9.90237 16.3166 9.90237 15.6834 10.2929 15.2929L12.5858 13H3C2.44772 13 2 12.5523 2 12Z" fill="#212529"/>
</svg>
