<svg width="24" height="24" viewBox="0 0 24 24" fill="none" xmlns="http://www.w3.org/2000/svg">
<path d="M18 22C20.2091 22 22 20.2091 22 18V17C22 16.4477 21.5523 16 21 16C20.4477 16 20 16.4477 20 17V18C20 19.1046 19.1046 20 18 20L6 20C4.89543 20 4 19.1046 4 18L4 6C4 4.89543 4.89543 4 6 4L18 4C19.1046 4 20 4.89543 20 6V7C20 7.55229 20.4477 8 21 8C21.5523 8 22 7.55229 22 7V6C22 3.79086 20.2091 2 18 2L6 2C3.79086 2 2 3.79086 2 6L2 18C2 20.2091 3.79086 22 6 22L18 22Z" fill="#212529"/>
<path d="M7 11C6.44771 11 6 11.4477 6 12C6 12.5523 6.44771 13 7 13H16.5858L14.2929 15.2929C13.9024 15.6834 13.9024 16.3166 14.2929 16.7071C14.6834 17.0976 15.3166 17.0976 15.7071 16.7071L19.7071 12.7071C20.0976 12.3166 20.0976 11.6834 19.7071 11.2929L15.7071 7.2929C15.3166 6.90237 14.6834 6.90237 14.2929 7.2929C13.9024 7.68342 13.9024 8.31658 14.2929 8.70711L16.5858 11H7Z" fill="#212529"/>
</svg>
