<svg width="24" height="24" viewBox="0 0 24 24" fill="none" xmlns="http://www.w3.org/2000/svg">
<path fill-rule="evenodd" clip-rule="evenodd" d="M8.36754 2.15683C8.77808 2.01999 9.22192 2.01999 9.63246 2.15683L15 3.94601L20.0257 2.27079C20.997 1.94703 22 2.66998 22 3.69382V18.6397C22 19.2854 21.5869 19.8586 20.9743 20.0628L15.6325 21.8434C15.2219 21.9802 14.7781 21.9802 14.3675 21.8434L9 20.0542L3.97434 21.7294C3.00304 22.0532 2 21.3302 2 20.3064V5.36049C2 4.71484 2.41315 4.14163 3.02566 3.93746L8.36754 2.15683ZM4 5.72087V19.6127L8 18.2793V4.38753L4 5.72087ZM14 19.6127L10 18.2793V4.38753L14 5.72087V19.6127ZM16 19.6127L20 18.2793V4.38753L16 5.72087V19.6127Z" fill="#212529"/>
</svg>
