<svg width="24" height="24" viewBox="0 0 24 24" fill="none" xmlns="http://www.w3.org/2000/svg">
<path fill-rule="evenodd" clip-rule="evenodd" d="M3 7C3 6.44772 3.50368 6 4.125 6H19.875C20.4963 6 21 6.44772 21 7C21 7.55228 20.4963 8 19.875 8H4.125C3.50368 8 3 7.55228 3 7ZM3 12C3 11.4477 3.50368 11 4.125 11H19.875C20.4963 11 21 11.4477 21 12C21 12.5523 20.4963 13 19.875 13H4.125C3.50368 13 3 12.5523 3 12ZM4.125 16C3.50368 16 3 16.4477 3 17C3 17.5523 3.50368 18 4.125 18H19.875C20.4963 18 21 17.5523 21 17C21 16.4477 20.4963 16 19.875 16H4.125Z" fill="#212529"/>
</svg>
