<svg width="24" height="24" viewBox="0 0 24 24" fill="none" xmlns="http://www.w3.org/2000/svg">
<path fill-rule="evenodd" clip-rule="evenodd" d="M21 3C21.5523 3 22 3.44772 22 4V7C22 7.55228 21.5523 8 21 8C20.4477 8 20 7.55228 20 7V4C20 3.44772 20.4477 3 21 3ZM22 1C22 1.55228 21.5523 2 21 2C20.4477 2 20 1.55228 20 1C20 0.447715 20.4477 0 21 0C21.5523 0 22 0.447715 22 1ZM5 4L18 4V6L5.51857 6L11.3415 11.0951C11.7185 11.425 12.2815 11.425 12.6585 11.0951L18 6.42124V7C18 7.60858 18.1812 8.17483 18.4926 8.64774L13.9755 12.6002C12.8444 13.5899 11.1556 13.5899 10.0245 12.6002L4 7.32878L4 17C4 17.5523 4.44772 18 5 18H19C19.5523 18 20 17.5523 20 17V9.82929C20.3128 9.93985 20.6494 10 21 10C21.3506 10 21.6872 9.93985 22 9.82929V17C22 18.6569 20.6569 20 19 20H5C3.34315 20 2 18.6569 2 17L2 7C2 5.34315 3.34315 4 5 4Z" fill="#212529"/>
</svg>
