<svg width="24" height="24" viewBox="0 0 24 24" fill="none" xmlns="http://www.w3.org/2000/svg">
<path fill-rule="evenodd" clip-rule="evenodd" d="M15.0275 4.00001C15.2762 1.75003 17.1837 0 19.5 0C21.9853 0 24 2.01472 24 4.5C24 6.06021 23.206 7.43496 22 8.24223C21.9898 8.24907 21.9795 8.25587 21.9693 8.26262C21.9396 8.28211 21.9097 8.30126 21.8796 8.32006C21.6672 8.45267 21.4429 8.56806 21.2087 8.66426C21.1554 8.68616 21.1016 8.70706 21.0473 8.72694C20.5648 8.90359 20.0437 9 19.5 9C19.0346 9 18.5858 8.92936 18.1635 8.79821C17.4793 8.5857 16.8651 8.21431 16.3639 7.72718C16.3485 7.71222 16.3332 7.69716 16.318 7.68198C15.5037 6.86764 15 5.74264 15 4.5C15 4.331 15.0093 4.16417 15.0275 4.00001ZM19.5 2C19.1776 2 18.8694 2.06104 18.5864 2.17219L21.8278 5.4136C21.939 5.1306 22 4.82243 22 4.5C22 3.11929 20.8807 2 19.5 2ZM17.05 4C17.079 3.85735 17.1201 3.71911 17.1722 3.58641L20.4136 6.82781C20.3797 6.84111 20.3455 6.85369 20.3109 6.86554C20.0566 6.95269 19.7838 7 19.5 7C18.8708 7 18.2959 6.76756 17.8564 6.38386C17.8137 6.34656 17.7723 6.30784 17.7322 6.26777C17.2798 5.81536 17 5.19036 17 4.5C17 4.32877 17.0172 4.16155 17.05 4Z" fill="#212529"/>
<path d="M19.5 11C18.4257 11 17.4122 10.7394 16.5195 10.2779L14.0069 12.5392C12.866 13.566 11.134 13.566 9.99311 12.5392L2.80993 6.0743C2.56566 5.85446 2.17778 5.92818 2.09546 6.24633C2.03315 6.48715 2 6.7397 2 7V17C2 18.6569 3.34315 20 5 20H19C20.6569 20 22 18.6569 22 17V10.5018C21.2304 10.8228 20.3859 11 19.5 11Z" fill="#212529"/>
<path d="M12.669 11.0526L14.875 9.06719C13.7157 7.89328 13 6.28022 13 4.5C13 4.33176 13.0064 4.16502 13.0189 4H5C4.83574 4 4.67456 4.0132 4.51747 4.0386C4.16007 4.09639 4.08474 4.53091 4.35385 4.77311L11.331 11.0526C11.7113 11.3949 12.2887 11.3949 12.669 11.0526Z" fill="#212529"/>
</svg>
