<svg width="24" height="24" viewBox="0 0 24 24" fill="none" xmlns="http://www.w3.org/2000/svg">
<path fill-rule="evenodd" clip-rule="evenodd" d="M18.2929 2.29289C18.6834 1.90237 19.3166 1.90237 19.7071 2.29289L21 3.58579L22.2929 2.29289C22.6834 1.90237 23.3166 1.90237 23.7071 2.29289C24.0976 2.68342 24.0976 3.31658 23.7071 3.70711L22.4142 5L23.7071 6.29289C24.0976 6.68342 24.0976 7.31658 23.7071 7.70711C23.3166 8.09763 22.6834 8.09763 22.2929 7.70711L21 6.41421L19.7071 7.70711C19.3166 8.09763 18.6834 8.09763 18.2929 7.70711C17.9024 7.31658 17.9024 6.68342 18.2929 6.29289L19.5858 5L18.2929 3.70711C17.9024 3.31658 17.9024 2.68342 18.2929 2.29289ZM5 4L16 4V6L5.51857 6L11.3415 11.0951C11.7185 11.425 12.2815 11.425 12.6585 11.0951L16.1767 8.01667C16.4106 8.66629 16.8624 9.2119 17.4439 9.56538L13.9755 12.6002C12.8444 13.5899 11.1556 13.5899 10.0245 12.6002L4 7.32878L4 17C4 17.5523 4.44772 18 5 18H19C19.5523 18 20 17.5523 20 17V10H22V17C22 18.6569 20.6569 20 19 20H5C3.34315 20 2 18.6569 2 17L2 7C2 5.34315 3.34315 4 5 4Z" fill="#212529"/>
</svg>
