<svg width="24" height="24" viewBox="0 0 24 24" fill="none" xmlns="http://www.w3.org/2000/svg">
<path fill-rule="evenodd" clip-rule="evenodd" d="M16 2.77778V4.17071C14.8348 4.58254 14 5.69378 14 7V9C14 10.6569 15.3431 12 17 12H21C22.6569 12 24 10.6569 24 9V7C24 5.69378 23.1652 4.58254 22 4.17071V2.77778C22 1.13618 20.5429 0 19 0C17.4571 0 16 1.13618 16 2.77778ZM19 2C18.3337 2 18 2.4557 18 2.77778V4H20V2.77778C20 2.4557 19.6663 2 19 2ZM17 6C16.4477 6 16 6.44772 16 7V9C16 9.55228 16.4477 10 17 10H21C21.5523 10 22 9.55228 22 9V7C22 6.44772 21.5523 6 21 6H17Z" fill="#212529"/>
<path d="M12.9998 4C12.5631 4.58111 12.25 5.26069 12.1 6H5.51859L11.3415 11.0951C11.6717 11.384 12.1445 11.4199 12.5101 11.2027C12.8093 11.8114 13.2285 12.3503 13.737 12.7886C12.617 13.5853 11.0785 13.5225 10.0245 12.6002L4 7.32877V17C4 17.5523 4.44772 18 5 18H19C19.5523 18 20 17.5523 20 17V14H21C21.3425 14 21.6769 13.9656 22 13.9V17C22 18.6569 20.6569 20 19 20H5C3.34315 20 2 18.6569 2 17V7C2 5.34315 3.34315 4 5 4H12.9998Z" fill="#212529"/>
</svg>
