<svg width="24" height="24" viewBox="0 0 24 24" fill="none" xmlns="http://www.w3.org/2000/svg">
<path fill-rule="evenodd" clip-rule="evenodd" d="M16 5C16 4.64936 16.0602 4.31278 16.1707 4L5 4C4.83574 4 4.67456 4.0132 4.51747 4.0386C4.16007 4.09639 4.08474 4.53091 4.35385 4.77311L11.331 11.0526C11.7113 11.3949 12.2887 11.3949 12.669 11.0526L16.9551 7.19509C16.3675 6.64743 16 5.86663 16 5ZM22 8H19.0504L14.0069 12.5392C12.866 13.566 11.134 13.566 9.99311 12.5392L2.80993 6.0743C2.56566 5.85446 2.17778 5.92818 2.09546 6.24633C2.03315 6.48715 2 6.7397 2 7L2 17C2 18.6569 3.34315 20 5 20H19C20.6569 20 22 18.6569 22 17V8ZM24 5C24 4.44772 23.5523 4 23 4L19 4C18.4477 4 18 4.44772 18 5C18 5.55228 18.4477 6 19 6L23 6C23.5523 6 24 5.55228 24 5Z" fill="#212529"/>
</svg>
