<svg width="24" height="24" viewBox="0 0 24 24" fill="none" xmlns="http://www.w3.org/2000/svg">
<path fill-rule="evenodd" clip-rule="evenodd" d="M21 8C22.6569 8 24 6.65685 24 5C24 3.34315 22.6569 2 21 2C19.3431 2 18 3.34315 18 5C18 6.65685 19.3431 8 21 8ZM5 4L16.1 4C16.0344 4.32311 16 4.65753 16 5C16 5.34247 16.0344 5.67689 16.1 6L5.51857 6L11.3415 11.0951C11.7185 11.425 12.2815 11.425 12.6585 11.0951L16.7023 7.55677C17.0475 8.13592 17.5066 8.63939 18.0485 9.03634L13.9755 12.6002C12.8444 13.5899 11.1556 13.5899 10.0245 12.6002L4 7.32878L4 17C4 17.5523 4.44772 18 5 18H19C19.5523 18 20 17.5523 20 17V9.89998C20.3231 9.96557 20.6575 10 21 10C21.3425 10 21.6769 9.96557 22 9.89998V17C22 18.6569 20.6569 20 19 20H5C3.34315 20 2 18.6569 2 17L2 7C2 5.34315 3.34315 4 5 4Z" fill="#212529"/>
</svg>
