<svg width="24" height="24" viewBox="0 0 24 24" fill="none" xmlns="http://www.w3.org/2000/svg">
<path fill-rule="evenodd" clip-rule="evenodd" d="M20 3C20 2.44772 20.4477 2 21 2C21.5523 2 22 2.44772 22 3V4H23C23.5523 4 24 4.44772 24 5C24 5.55228 23.5523 6 23 6L22 6V7C22 7.55228 21.5523 8 21 8C20.4477 8 20 7.55228 20 7V6H19C18.4477 6 18 5.55228 18 5C18 4.44772 18.4477 4 19 4H20V3ZM5 4L16.2729 4C15.8454 4.76101 15.9553 5.7404 16.5985 6.38803L17.19 6.98365L12.669 11.0526C12.2887 11.3949 11.7113 11.3949 11.331 11.0526L4.35385 4.77311C4.08474 4.53091 4.16007 4.09639 4.51747 4.0386C4.67456 4.0132 4.83574 4 5 4ZM14.0069 12.5392L18.601 8.40445L19.6072 9.41754C20.2529 10.0677 21.2357 10.1822 22 9.7557V17C22 18.6569 20.6569 20 19 20H5C3.34315 20 2 18.6569 2 17L2 7C2 6.7397 2.03315 6.48715 2.09546 6.24633C2.17778 5.92818 2.56566 5.85446 2.80993 6.0743L9.99311 12.5392C11.134 13.566 12.866 13.566 14.0069 12.5392Z" fill="#212529"/>
</svg>
