<svg width="24" height="24" viewBox="0 0 24 24" fill="none" xmlns="http://www.w3.org/2000/svg">
<path fill-rule="evenodd" clip-rule="evenodd" d="M23.7071 3.70711C24.0976 3.31658 24.0976 2.68342 23.7071 2.29289C23.3166 1.90237 22.6834 1.90237 22.2929 2.29289L19 5.58579L17.7071 4.29289C17.3166 3.90237 16.6834 3.90237 16.2929 4.29289C15.9024 4.68342 15.9024 5.31658 16.2929 5.70711L18.2929 7.70711C18.6834 8.09763 19.3166 8.09763 19.7071 7.70711L23.7071 3.70711ZM5 4L14.1708 4C13.9431 4.64587 13.9431 5.35413 14.1708 6L5.51857 6L11.3415 11.0951C11.7185 11.425 12.2815 11.425 12.6585 11.0951L15.9619 8.20456L16.8787 9.12132C17.0526 9.29521 17.2425 9.44329 17.4437 9.56556L13.9755 12.6002C12.8444 13.5899 11.1556 13.5899 10.0245 12.6002L4 7.32878L4 17C4 17.5523 4.44772 18 5 18H19C19.5523 18 20 17.5523 20 17V9.82917C20.8307 9.5362 21.3952 8.84747 22 8.24264V17C22 18.6569 20.6569 20 19 20H5C3.34315 20 2 18.6569 2 17L2 7C2 5.34315 3.34315 4 5 4Z" fill="#212529"/>
</svg>
