<svg width="24" height="24" viewBox="0 0 24 24" fill="none" xmlns="http://www.w3.org/2000/svg">
<path fill-rule="evenodd" clip-rule="evenodd" d="M2.80993 6.0743C2.56566 5.85446 2.17778 5.92818 2.09546 6.24633C2.03315 6.48715 2 6.7397 2 7L2 17C2 18.6569 3.34315 20 5 20H19C20.6569 20 22 18.6569 22 17V7C22 6.73971 21.9669 6.48716 21.9045 6.24635C21.8222 5.9282 21.4343 5.85447 21.1901 6.07431L14.0069 12.5392C12.866 13.566 11.134 13.566 9.99311 12.5392L2.80993 6.0743ZM19.6462 4.77311C19.9153 4.53091 19.84 4.09639 19.4825 4.0386C19.3255 4.0132 19.1643 4 19 4L5 4C4.83574 4 4.67456 4.0132 4.51747 4.0386C4.16007 4.09639 4.08474 4.53091 4.35385 4.77311L11.331 11.0526C11.7113 11.3949 12.2887 11.3949 12.669 11.0526L19.6462 4.77311Z" fill="#212529"/>
</svg>
