<svg width="24" height="24" viewBox="0 0 24 24" fill="none" xmlns="http://www.w3.org/2000/svg">
<path fill-rule="evenodd" clip-rule="evenodd" d="M21 8C22.6569 8 24 6.65685 24 5C24 3.34315 22.6569 2 21 2C19.3431 2 18 3.34315 18 5C18 6.65685 19.3431 8 21 8ZM5 4L16.1 4C16.0344 4.32311 16 4.65753 16 5C16 5.89786 16.2367 6.74044 16.651 7.46877L12.669 11.0526C12.2887 11.3949 11.7113 11.3949 11.331 11.0526L4.35385 4.77311C4.08474 4.53091 4.16007 4.09639 4.51747 4.0386C4.67456 4.0132 4.83574 4 5 4ZM22 9.89998C21.6769 9.96557 21.3425 10 21 10C19.8595 10 18.8081 9.61812 17.9668 8.97524L14.0069 12.5392C12.866 13.566 11.134 13.566 9.99311 12.5392L2.80993 6.0743C2.56566 5.85446 2.17778 5.92818 2.09546 6.24633C2.03315 6.48715 2 6.7397 2 7L2 17C2 18.6569 3.34315 20 5 20H19C20.6569 20 22 18.6569 22 17V9.89998Z" fill="#212529"/>
</svg>
