<svg width="24" height="24" viewBox="0 0 24 24" fill="none" xmlns="http://www.w3.org/2000/svg">
<g clip-path="url(#clip0_5184_56996)">
<path fill-rule="evenodd" clip-rule="evenodd" d="M2.80993 6.0743C2.56566 5.85446 2.17778 5.92818 2.09546 6.24633C2.03315 6.48715 2 6.7397 2 7L2 17C2 18.6569 3.34315 20 5 20H14.1707C14.0602 19.6872 14 19.3506 14 19C14 17.3431 15.3431 16 17 16L18.1707 16C18.5825 14.8348 19.6938 14 21 14C21.3506 14 21.6872 14.0602 22 14.1707V7C22 6.73971 21.9669 6.48716 21.9045 6.24635C21.8222 5.9282 21.4343 5.85447 21.1901 6.07431L14.0069 12.5392C12.866 13.566 11.134 13.566 9.99311 12.5392L2.80993 6.0743ZM19.6462 4.77311C19.9153 4.53091 19.84 4.09639 19.4825 4.0386C19.3255 4.0132 19.1643 4 19 4L5 4C4.83574 4 4.67456 4.0132 4.51747 4.0386C4.16007 4.09639 4.08474 4.53091 4.35385 4.77311L11.331 11.0526C11.7113 11.3949 12.2887 11.3949 12.669 11.0526L19.6462 4.77311ZM20.5858 18L20.2929 17.7071C19.9024 17.3166 19.9024 16.6834 20.2929 16.2929C20.6834 15.9024 21.3166 15.9024 21.7071 16.2929L23.7071 18.2929C23.803 18.3888 23.8753 18.4993 23.9241 18.6172C23.973 18.7351 24 18.8644 24 19C24 19.2728 23.8907 19.5201 23.7136 19.7006L23.7064 19.7078L21.7071 21.7071C21.3166 22.0976 20.6834 22.0976 20.2929 21.7071C19.9024 21.3166 19.9024 20.6834 20.2929 20.2929L20.5858 20H17C16.4477 20 16 19.5523 16 19C16 18.4477 16.4477 18 17 18H20.5858Z" fill="#212529"/>
</g>
<defs>
<clipPath id="clip0_5184_56996">
<rect width="24" height="24" fill="white"/>
</clipPath>
</defs>
</svg>
