<svg width="24" height="24" viewBox="0 0 24 24" fill="none" xmlns="http://www.w3.org/2000/svg">
<g clip-path="url(#clip0_847_87)">
<path fill-rule="evenodd" clip-rule="evenodd" d="M19.6838 2.05132C19.8891 1.98289 20.111 1.98289 20.3162 2.05132L23.3162 3.05132C23.7246 3.18743 24 3.56957 24 4L24 6C24 8.34 22.3639 9.68749 21.0043 10.556C20.4156 10.932 19.6508 10.9716 19.0193 10.6085C17.5137 9.7428 16.0002 8.31292 16.0001 6.00025L16 4.58935L16 4C16 3.56957 16.2754 3.18743 16.6838 3.05132L19.6838 2.05132ZM18.0001 5.99975L18 4.72076L20 4.05409L22 4.72076L22 6C22 7.22503 21.2061 8.04741 19.9662 8.84572C18.7646 8.14279 18.0001 7.25472 18.0001 5.99975ZM14.8062 9.21585C15.1426 9.82849 15.5606 10.3596 16.0135 10.817L13.9755 12.6002C12.8444 13.5899 11.1556 13.5899 10.0245 12.6002L4 7.32877L4 17C4 17.5523 4.44772 18 5 18H19C19.5523 18 20 17.5523 20 17V12.8604C20.7039 12.8534 21.3969 12.6566 22 12.2918V17C22 18.6569 20.6569 20 19 20H5C3.34315 20 2 18.6569 2 17L2 7C2 5.34315 3.34315 4 5 4L14 4L14.0001 6L5.51859 6L11.3415 11.0951C11.7185 11.425 12.2815 11.425 12.6585 11.0951L14.8062 9.21585Z" fill="#212529"/>
</g>
<defs>
<clipPath id="clip0_847_87">
<rect width="24" height="24" fill="white"/>
</clipPath>
</defs>
</svg>
