<svg width="24" height="24" viewBox="0 0 24 24" fill="none" xmlns="http://www.w3.org/2000/svg">
<path fill-rule="evenodd" clip-rule="evenodd" d="M16 2.77778C16 1.13618 17.4571 0 19 0C20.5429 0 22 1.13618 22 2.77778V4.17071C23.1652 4.58254 24 5.69378 24 7V9C24 10.3062 23.1652 11.4175 22 11.8293C21.6872 11.9398 21.3506 12 21 12H17C16.3787 12 15.8015 11.8111 15.3227 11.4876C15.2947 11.4688 15.2671 11.4494 15.2398 11.4296C14.6875 11.0288 14.2773 10.4443 14.0986 9.76588C14.0343 9.52139 14 9.2647 14 9V7C14 5.69378 14.8348 4.58254 16 4.17071V2.77778ZM19 2C18.3337 2 18 2.4557 18 2.77778V4H20V2.77778C20 2.4557 19.6663 2 19 2Z" fill="#212529"/>
<path d="M12 7C12 5.87333 12.3723 4.835 12.9998 4H5C4.83574 4 4.67456 4.0132 4.51747 4.0386C4.16007 4.09639 4.08474 4.53091 4.35385 4.77311L11.331 11.0526C11.6577 11.3466 12.1298 11.3881 12.4975 11.1769C12.1787 10.5188 12 9.78029 12 9V7Z" fill="#212529"/>
<path d="M17 14C15.7431 14 14.5944 13.5362 13.716 12.7704C12.5868 13.5591 11.0408 13.4821 9.99311 12.5392L2.80993 6.0743C2.56566 5.85446 2.17778 5.92818 2.09546 6.24633C2.03315 6.48715 2 6.7397 2 7V17C2 18.6569 3.34315 20 5 20H19C20.6569 20 22 18.6569 22 17V13.9C21.6769 13.9656 21.3425 14 21 14H17Z" fill="#212529"/>
</svg>
