<svg width="24" height="24" viewBox="0 0 24 24" fill="none" xmlns="http://www.w3.org/2000/svg">
<path fill-rule="evenodd" clip-rule="evenodd" d="M23.7071 3.70711C24.0976 3.31658 24.0976 2.68342 23.7071 2.29289C23.3166 1.90237 22.6834 1.90237 22.2929 2.29289L19 5.58579L17.7071 4.29289C17.3166 3.90237 16.6834 3.90237 16.2929 4.29289C15.9024 4.68342 15.9024 5.31658 16.2929 5.70711L18.2929 7.70711C18.6834 8.09763 19.3166 8.09763 19.7071 7.70711L23.7071 3.70711ZM5 4L14.1708 4C13.7987 5.05532 14.0346 6.27724 14.8787 7.12132L15.9011 8.14371L12.669 11.0526C12.2887 11.3949 11.7113 11.3949 11.331 11.0526L4.35385 4.77311C4.08474 4.53091 4.16007 4.09639 4.51747 4.0386C4.67456 4.0132 4.83574 4 5 4ZM14.0069 12.5392L17.3655 9.5164C18.5284 10.2734 20.101 10.1417 21.1213 9.12132L22 8.24264V17C22 18.6569 20.6569 20 19 20H5C3.34315 20 2 18.6569 2 17L2 7C2 6.7397 2.03315 6.48715 2.09546 6.24633C2.17778 5.92818 2.56566 5.85446 2.80993 6.0743L9.99311 12.5392C11.134 13.566 12.866 13.566 14.0069 12.5392Z" fill="#212529"/>
</svg>
