<svg width="24" height="24" viewBox="0 0 24 24" fill="none" xmlns="http://www.w3.org/2000/svg">
<path fill-rule="evenodd" clip-rule="evenodd" d="M15.0275 4.00001C15.2762 1.75003 17.1837 0 19.5 0C21.9853 0 24 2.01472 24 4.5C24 6.06021 23.206 7.43496 22 8.24223C21.9898 8.24907 21.9795 8.25587 21.9693 8.26262C21.9396 8.28211 21.9097 8.30126 21.8796 8.32006C21.6672 8.45267 21.4429 8.56806 21.2087 8.66426C21.1892 8.67226 21.1697 8.68013 21.15 8.68787C20.7874 8.83088 20.4016 8.92814 20 8.97254C19.8358 8.99068 19.669 9 19.5 9C19.034 9 18.5846 8.92917 18.1618 8.79769C17.5093 8.59473 16.9204 8.24724 16.4327 7.79267C15.9078 7.30355 15.5001 6.69044 15.2561 6C15.2494 5.98115 15.2429 5.96224 15.2364 5.94328C15.0831 5.49023 15 5.00482 15 4.5C15 4.331 15.0093 4.16417 15.0275 4.00001ZM19.5 2C19.1776 2 18.8694 2.06104 18.5864 2.17219L21.8278 5.4136C21.939 5.1306 22 4.82243 22 4.5C22 3.11929 20.8807 2 19.5 2ZM17.05 4C17.079 3.85735 17.1201 3.71911 17.1722 3.58641L20.4136 6.82781C20.1306 6.93896 19.8224 7 19.5 7C18.9155 7 18.3778 6.79938 17.952 6.46323C17.7821 6.32904 17.6299 6.17325 17.4998 6C17.4747 5.96656 17.4504 5.93248 17.427 5.89777C17.1574 5.49877 17 5.01777 17 4.5C17 4.32877 17.0172 4.16155 17.05 4Z" fill="#212529"/>
<path d="M22 10.5018C21.3766 10.7618 20.7039 10.9275 20 10.9811V17C20 17.5523 19.5523 18 19 18H5C4.44772 18 4 17.5523 4 17V7.32877L10.0245 12.6002C11.1556 13.5899 12.8444 13.5899 13.9755 12.6002L16.5891 10.3133C15.9706 10.003 15.4084 9.59689 14.9221 9.11442L12.6585 11.0951C12.2815 11.425 11.7185 11.425 11.3415 11.0951L5.51859 6H13.1739C13.0602 5.51848 13 5.01627 13 4.5C13 4.33176 13.0064 4.16502 13.0189 4H5C3.34315 4 2 5.34315 2 7V17C2 18.6569 3.34315 20 5 20H19C20.6569 20 22 18.6569 22 17V10.5018Z" fill="#212529"/>
</svg>
