<svg width="24" height="24" viewBox="0 0 24 24" fill="none" xmlns="http://www.w3.org/2000/svg">
<path fill-rule="evenodd" clip-rule="evenodd" d="M16 5C16 4.64936 16.0602 4.31278 16.1707 4L5 4C3.34315 4 2 5.34315 2 7L2 17C2 18.6569 3.34315 20 5 20H19C20.6569 20 22 18.6569 22 17V8H20V17C20 17.5523 19.5523 18 19 18H5C4.44772 18 4 17.5523 4 17L4 7.32878L10.0245 12.6002C11.1556 13.5899 12.8444 13.5899 13.9755 12.6002L19.2329 8H19C18.2481 8 17.5607 7.72335 17.0342 7.26629L12.6585 11.0951C12.2815 11.425 11.7185 11.425 11.3415 11.0951L5.51857 6L16.1707 6C16.0602 5.68722 16 5.35064 16 5ZM24 5C24 4.44772 23.5523 4 23 4L19 4C18.4477 4 18 4.44772 18 5C18 5.55228 18.4477 6 19 6L23 6C23.5523 6 24 5.55228 24 5Z" fill="#212529"/>
</svg>
