<svg width="24" height="24" viewBox="0 0 24 24" fill="none" xmlns="http://www.w3.org/2000/svg">
<g clip-path="url(#clip0_5184_56999)">
<path fill-rule="evenodd" clip-rule="evenodd" d="M20.6581 2.02566C20.5555 1.99145 20.4445 1.99145 20.3419 2.02566L18.8419 2.52566L17.3419 3.02566C17.1377 3.09372 17 3.28478 17 3.5C17 3.6975 17 3.89439 17 4.08643C17 4.62799 17 5.13095 17.0001 5.50013C17.0001 7.55273 18.3317 8.8489 19.7685 9.67505C20.232 9.9416 20.7971 9.91438 21.2351 9.63458C22.5703 8.78171 24 7.56443 24 5.5L24 3.5C24 3.28479 23.8623 3.09372 23.6581 3.02566L20.6581 2.02566ZM18.7715 11.4089C18.1447 11.0484 17.4703 10.5739 16.8676 9.96458L14.0069 12.5392C12.866 13.566 11.134 13.566 9.99311 12.5392L2.80993 6.0743C2.56566 5.85446 2.17778 5.92818 2.09546 6.24633C2.03315 6.48715 2 6.7397 2 7L2 17C2 18.6569 3.34315 20 5 20H19C20.6569 20 22 18.6569 22 17V11.4969C21.0091 11.9925 19.7977 11.9989 18.7715 11.4089ZM15 4.08862L15 4L5 4C4.83574 4 4.67456 4.0132 4.51747 4.0386C4.16007 4.09639 4.08474 4.53091 4.35385 4.77311L11.331 11.0526C11.7113 11.3949 12.2887 11.3949 12.669 11.0526L15.6764 8.34588C15.2621 7.54526 15.0002 6.60297 15.0001 5.50018L15 4.08862Z" fill="#212529"/>
</g>
<defs>
<clipPath id="clip0_5184_56999">
<rect width="24" height="24" fill="white"/>
</clipPath>
</defs>
</svg>
