<svg width="24" height="24" viewBox="0 0 24 24" fill="none" xmlns="http://www.w3.org/2000/svg">
<path fill-rule="evenodd" clip-rule="evenodd" d="M5 4C3.34315 4 2 5.34315 2 7L2 17C2 18.6569 3.34315 20 5 20H19C20.6569 20 22 18.6569 22 17V7C22 5.34315 20.6569 4 19 4L5 4ZM4 7.32877L4 17C4 17.5523 4.44772 18 5 18H19C19.5523 18 20 17.5523 20 17V7.32879L13.9755 12.6002C12.8444 13.5899 11.1556 13.5899 10.0245 12.6002L4 7.32877ZM18.4814 6L5.51859 6L11.3415 11.0951C11.7185 11.425 12.2815 11.425 12.6585 11.0951L18.4814 6Z" fill="#212529"/>
</svg>
