<svg width="24" height="24" viewBox="0 0 24 24" fill="none" xmlns="http://www.w3.org/2000/svg">
<path fill-rule="evenodd" clip-rule="evenodd" d="M18.2929 2.29289C18.6834 1.90237 19.3166 1.90237 19.7071 2.29289L21 3.58579L22.2929 2.29289C22.6834 1.90237 23.3166 1.90237 23.7071 2.29289C24.0976 2.68342 24.0976 3.31658 23.7071 3.70711L22.4142 5L23.7071 6.29289C24.0976 6.68342 24.0976 7.31658 23.7071 7.70711C23.3166 8.09763 22.6834 8.09763 22.2929 7.70711L21 6.41421L19.7071 7.70711C19.3166 8.09763 18.6834 8.09763 18.2929 7.70711C17.9024 7.31658 17.9024 6.68342 18.2929 6.29289L19.5858 5L18.2929 3.70711C17.9024 3.31658 17.9024 2.68342 18.2929 2.29289ZM5 4L16 4V7C16 7.32246 16.0509 7.63303 16.145 7.92413L12.669 11.0526C12.2887 11.3949 11.7113 11.3949 11.331 11.0526L4.35385 4.77311C4.08474 4.53091 4.16007 4.09639 4.51747 4.0386C4.67456 4.0132 4.83574 4 5 4ZM14.0069 12.5392L17.3658 9.51621C17.8359 9.82221 18.3972 10 19 10H22V17C22 18.6569 20.6569 20 19 20H5C3.34315 20 2 18.6569 2 17L2 7C2 6.7397 2.03315 6.48715 2.09546 6.24633C2.17778 5.92818 2.56566 5.85446 2.80993 6.0743L9.99311 12.5392C11.134 13.566 12.866 13.566 14.0069 12.5392Z" fill="#212529"/>
</svg>
