<svg width="24" height="24" viewBox="0 0 24 24" fill="none" xmlns="http://www.w3.org/2000/svg">
<path fill-rule="evenodd" clip-rule="evenodd" d="M21 5C20.4477 5 20 4.55228 20 4V1C20 0.447715 20.4477 0 21 0C21.5523 0 22 0.447715 22 1V4C22 4.55228 21.5523 5 21 5ZM20 7C20 6.44772 20.4477 6 21 6C21.5523 6 22 6.44772 22 7C22 7.55228 21.5523 8 21 8C20.4477 8 20 7.55228 20 7ZM5 4L18 4V6.25466L12.669 11.0526C12.2887 11.3949 11.7113 11.3949 11.331 11.0526L4.35385 4.77311C4.08474 4.53091 4.16007 4.09639 4.51747 4.0386C4.67456 4.0132 4.83574 4 5 4ZM14.0069 12.5392L18.4339 8.55489C18.96 9.42124 19.9124 10 21 10C21.3506 10 21.6872 9.93985 22 9.82929V17C22 18.6569 20.6569 20 19 20H5C3.34315 20 2 18.6569 2 17L2 7C2 6.7397 2.03315 6.48715 2.09546 6.24633C2.17778 5.92818 2.56566 5.85446 2.80993 6.0743L9.99311 12.5392C11.134 13.566 12.866 13.566 14.0069 12.5392Z" fill="#212529"/>
</svg>
