<svg width="24" height="24" viewBox="0 0 24 24" fill="none" xmlns="http://www.w3.org/2000/svg">
<path fill-rule="evenodd" clip-rule="evenodd" d="M20 3C20 2.44772 20.4477 2 21 2C21.5523 2 22 2.44772 22 3V4H23C23.5523 4 24 4.44772 24 5C24 5.55228 23.5523 6 23 6L22 6V7C22 7.55228 21.5523 8 21 8C20.4477 8 20 7.55228 20 7V6H19C18.4477 6 18 5.55228 18 5C18 4.44772 18.4477 4 19 4H20V3ZM5 4L16.2729 4C15.9241 4.62089 15.933 5.38715 16.2975 6L5.51857 6L11.3415 11.0951C11.7185 11.425 12.2815 11.425 12.6585 11.0951L17.2678 7.06194L18.6799 8.48386L13.9755 12.6002C12.8444 13.5899 11.1556 13.5899 10.0245 12.6002L4 7.32878L4 17C4 17.5523 4.44772 18 5 18H19C19.5523 18 20 17.5523 20 17V9.72537C20.6119 10.0916 21.3782 10.1027 22 9.7557V17C22 18.6569 20.6569 20 19 20H5C3.34315 20 2 18.6569 2 17L2 7C2 5.34315 3.34315 4 5 4Z" fill="#212529"/>
</svg>
