<svg width="24" height="24" viewBox="0 0 24 24" fill="none" xmlns="http://www.w3.org/2000/svg">
<path fill-rule="evenodd" clip-rule="evenodd" d="M5 4C3.34315 4 2 5.34315 2 7L2 17C2 18.6569 3.34315 20 5 20H14.1707C14.0602 19.6872 14 19.3506 14 19C14 18.6494 14.0602 18.3128 14.1707 18H5C4.44772 18 4 17.5523 4 17L4 7.32877L10.0245 12.6002C11.1556 13.5899 12.8444 13.5899 13.9755 12.6002L20 7.32879V14.1707C20.3128 14.0602 20.6494 14 21 14C21.3506 14 21.6872 14.0602 22 14.1707V7C22 5.34315 20.6569 4 19 4L5 4ZM18.4814 6L5.51859 6L11.3415 11.0951C11.7185 11.425 12.2815 11.425 12.6585 11.0951L18.4814 6ZM20.5858 18L20.2929 17.7071C19.9024 17.3166 19.9024 16.6834 20.2929 16.2929C20.6834 15.9024 21.3166 15.9024 21.7071 16.2929L23.7071 18.2929C23.803 18.3888 23.8753 18.4993 23.9241 18.6172C23.973 18.7351 24 18.8644 24 19C24 19.2728 23.8907 19.5201 23.7136 19.7006L23.7064 19.7078L21.7071 21.7071C21.3166 22.0976 20.6834 22.0976 20.2929 21.7071C19.9024 21.3166 19.9024 20.6834 20.2929 20.2929L20.5858 20H17C16.4477 20 16 19.5523 16 19C16 18.4477 16.4477 18 17 18H20.5858Z" fill="#212529"/>
</svg>
