<svg width="24" height="24" viewBox="0 0 24 24" fill="none" xmlns="http://www.w3.org/2000/svg">
<path fill-rule="evenodd" clip-rule="evenodd" d="M3.70711 2.29289C3.31658 1.90237 2.68342 1.90237 2.29289 2.29289C1.90237 2.68342 1.90237 3.31658 2.29289 3.70711L8 9.41421V11C8 13.2091 9.79086 15 12 15C12.4744 15 12.9294 14.9174 13.3517 14.7659L14.861 16.2752C14.0106 16.7374 13.036 17 12 17C8.68629 17 6 14.3137 6 11C6 10.4477 5.55228 10 5 10C4.44772 10 4 10.4477 4 11C4 15.0796 7.05369 18.446 11 18.9381V21C11 21.5523 11.4477 22 12 22C12.5523 22 13 21.5523 13 21V18.9381C14.2117 18.787 15.3393 18.3649 16.3202 17.7344L20.2929 21.7071C20.6834 22.0976 21.3166 22.0976 21.7071 21.7071C22.0976 21.3166 22.0976 20.6834 21.7071 20.2929C15.5655 14.1513 9.83204 8.41782 3.70711 2.29289ZM14 9.58579V6C14 4.89543 13.1046 4 12 4C11.0248 4 10.2127 4.69794 10.0358 5.62154L8.49154 4.07732C9.17148 2.83921 10.4877 2 12 2C14.2091 2 16 3.79086 16 6V11C16 11.1861 15.9873 11.3692 15.9627 11.5485L14 9.58579ZM17.5924 13.1782L19.1015 14.6872C19.6755 13.5838 20 12.3298 20 11C20 10.4477 19.5523 10 19 10C18.4477 10 18 10.4477 18 11C18 11.7683 17.8556 12.503 17.5924 13.1782Z" fill="#212529"/>
</svg>
