<svg width="24" height="24" viewBox="0 0 24 24" fill="none" xmlns="http://www.w3.org/2000/svg">
<path fill-rule="evenodd" clip-rule="evenodd" d="M15.48 5.97237L12.9862 4.55888C12.3745 4.21214 11.6256 4.21214 11.0138 4.55888L8.52001 5.97237L6.04899 7.42532C5.44283 7.78174 5.06838 8.43031 5.06279 9.13347L5.04001 11.9999L5.06279 14.8663C5.06838 15.5695 5.44283 16.2181 6.04899 16.5745L8.52001 18.0274L11.0138 19.4409C11.6256 19.7877 12.3745 19.7877 12.9862 19.4409L15.48 18.0274L17.951 16.5745C18.5572 16.2181 18.9316 15.5695 18.9372 14.8663L18.96 11.9999L18.9372 9.13347C18.9316 8.43031 18.5572 7.78174 17.951 7.42532L15.48 5.97237Z" fill="#212529"/>
</svg>
