<svg width="24" height="24" viewBox="0 0 24 24" fill="none" xmlns="http://www.w3.org/2000/svg">
<path d="M13 19C13 19.5523 12.5523 20 12 20C11.4477 20 11 19.5523 11 19C11 18.4477 11.4477 18 12 18C12.5523 18 13 18.4477 13 19Z" fill="#212529"/>
<path fill-rule="evenodd" clip-rule="evenodd" d="M8 1H16C17.6569 1 19 2.34315 19 4V20C19 21.6569 17.6569 23 16 23H8C6.34315 23 5 21.6569 5 20V4C5 2.34315 6.34314 1 8 1ZM8 3C7.44772 3 7 3.44772 7 4V20C7 20.5523 7.44772 21 8 21H16C16.5523 21 17 20.5523 17 20V4C17 3.44772 16.5523 3 16 3H8Z" fill="#212529"/>
</svg>
