<svg width="24" height="24" viewBox="0 0 24 24" fill="none" xmlns="http://www.w3.org/2000/svg">
<path d="M13 7C13 6.44772 12.5523 6 12 6C11.4477 6 11 6.44772 11 7V10C11 10.5523 11.4477 11 12 11C12.5523 11 13 10.5523 13 10V7Z" fill="#212529"/>
<path fill-rule="evenodd" clip-rule="evenodd" d="M12 2C8.13401 2 5 5.13401 5 9V15C5 18.866 8.13401 22 12 22C15.866 22 19 18.866 19 15V9C19 5.13401 15.866 2 12 2ZM7 9C7 6.23858 9.23858 4 12 4C14.7614 4 17 6.23858 17 9V15C17 17.7614 14.7614 20 12 20C9.23858 20 7 17.7614 7 15V9Z" fill="#212529"/>
</svg>
