<svg width="24" height="24" viewBox="0 0 24 24" fill="none" xmlns="http://www.w3.org/2000/svg">
<path d="M14.2929 10.2929L13 11.5858V6C13 5.44771 12.5523 5 12 5C11.4477 5 11 5.44771 11 6V11.5858L9.70711 10.2929C9.31658 9.90237 8.68342 9.90237 8.29289 10.2929C7.90237 10.6834 7.90237 11.3166 8.29289 11.7071L11.2929 14.7071C11.6834 15.0976 12.3166 15.0976 12.7071 14.7071L15.7071 11.7071C16.0976 11.3166 16.0976 10.6834 15.7071 10.2929C15.3166 9.90237 14.6834 9.90237 14.2929 10.2929Z" fill="#212529"/>
<path fill-rule="evenodd" clip-rule="evenodd" d="M2 5C2 3.34315 3.34315 2 5 2H19C20.6569 2 22 3.34315 22 5V19C22 20.6569 20.6569 22 19 22H5C3.34315 22 2 20.6569 2 19V5ZM5 4C4.44772 4 4 4.44772 4 5V15H9.5C9.77614 15 9.99359 15.2273 10.0617 15.4949C10.282 16.3601 11.0663 17 12 17C12.9337 17 13.718 16.3601 13.9383 15.4949C14.0064 15.2273 14.2239 15 14.5 15H20V5C20 4.44772 19.5523 4 19 4H5Z" fill="#212529"/>
</svg>
