<svg width="24" height="24" viewBox="0 0 24 24" fill="none" xmlns="http://www.w3.org/2000/svg">
<path d="M13 6V11.5858L14.2929 10.2929C14.6834 9.90237 15.3166 9.90237 15.7071 10.2929C16.0976 10.6834 16.0976 11.3166 15.7071 11.7071L12.7071 14.7071C12.3166 15.0976 11.6834 15.0976 11.2929 14.7071L8.29289 11.7071C7.90237 11.3166 7.90237 10.6834 8.29289 10.2929C8.68342 9.90237 9.31658 9.90237 9.70711 10.2929L11 11.5858V6C11 5.44771 11.4477 5 12 5C12.5523 5 13 5.44771 13 6Z" fill="#212529"/>
<path fill-rule="evenodd" clip-rule="evenodd" d="M6 2C3.79086 2 2 3.79086 2 6V18C2 20.2091 3.79086 22 6 22H18C20.2091 22 22 20.2091 22 18V6C22 3.79086 20.2091 2 18 2H6ZM4 6C4 4.89543 4.89543 4 6 4H18C19.1046 4 20 4.89543 20 6V15H15C14.4477 15 14.0207 15.4745 13.7555 15.959C13.4159 16.5793 12.7571 17 12 17C11.2429 17 10.5841 16.5793 10.2445 15.959C9.97928 15.4745 9.55228 15 9 15H4V6ZM4 17V18C4 19.1046 4.89543 20 6 20H18C19.1046 20 20 19.1046 20 18V17H16.0417C15.6847 17 15.3623 17.1967 15.1411 17.4768C14.4086 18.4046 13.2738 19 12 19C10.7262 19 9.5914 18.4046 8.85887 17.4768C8.63765 17.1967 8.3153 17 7.95834 17H4Z" fill="#212529"/>
</svg>
