<svg width="24" height="24" viewBox="0 0 24 24" fill="none" xmlns="http://www.w3.org/2000/svg">
<path d="M6 3H18C19.6569 3 21 4.34314 21 6H19C19 5.44772 18.5523 5 18 5H6C5.44772 5 5 5.44772 5 6V13C5 13.5523 5.44772 14 6 14H12V16H6C4.34315 16 3 14.6569 3 13V6C3 4.34315 4.34315 3 6 3Z" fill="#212529"/>
<path fill-rule="evenodd" clip-rule="evenodd" d="M20.5 8H16.5C15.1193 8 14 9.11929 14 10.5V18.5C14 19.8807 15.1193 21 16.5 21H20.5C21.8807 21 23 19.8807 23 18.5V10.5C23 9.11929 21.8807 8 20.5 8ZM16 10.5C16 10.2239 16.2239 10 16.5 10H17V10.5C17 10.7761 17.2239 11 17.5 11H19.5C19.7761 11 20 10.7761 20 10.5V10H20.5C20.7761 10 21 10.2239 21 10.5V18.5C21 18.7761 20.7761 19 20.5 19H16.5C16.2239 19 16 18.7761 16 18.5V10.5Z" fill="#212529"/>
<path d="M2 18C2 17.4477 2.44772 17 3 17H12V19H3C2.44772 19 2 18.5523 2 18Z" fill="#212529"/>
</svg>
