<svg width="24" height="24" viewBox="0 0 24 24" fill="none" xmlns="http://www.w3.org/2000/svg">
<path fill-rule="evenodd" clip-rule="evenodd" d="M3.96536 2.55114L3.70711 2.29289C3.31658 1.90237 2.68342 1.90237 2.29289 2.29289C1.90237 2.68342 1.90237 3.31658 2.29289 3.70711L4.9681 6.38231C3.93238 7.67708 3.24682 9.26415 3.05493 11H2C1.44772 11 1 11.4477 1 12C1 12.5523 1.44772 13 2 13H3.05493C3.51608 17.1716 6.82838 20.4839 11 20.9451V22C11 22.5523 11.4477 23 12 23C12.5523 23 13 22.5523 13 22V20.9451C14.7359 20.7532 16.3229 20.0676 17.6177 19.0319L20.2929 21.7071C20.6834 22.0976 21.3166 22.0976 21.7071 21.7071C22.0976 21.3166 22.0976 20.6834 21.7071 20.2929L21.2489 19.8346C21.1937 19.7982 21.1414 19.7557 21.0929 19.7071L4.0929 2.70711C4.04435 2.65856 4.00183 2.60626 3.96536 2.55114ZM9 12C9 11.5369 9.10495 11.0982 9.29237 10.7066L6.39362 7.80783C5.5184 8.97641 5 10.4277 5 12C5 15.866 8.13401 19 12 19C13.5723 19 15.0236 18.4816 16.1922 17.6064L13.2934 14.7076C12.9018 14.895 12.4631 15 12 15C10.3431 15 9 13.6569 9 12Z" fill="#212529"/>
<path d="M20.1137 15.8995C20.5443 15.0051 20.8314 14.0287 20.9451 13H22C22.5523 13 23 12.5523 23 12C23 11.4477 22.5523 11 22 11H20.9451C20.4839 6.82838 17.1716 3.51608 13 3.05493V2C13 1.44772 12.5523 1 12 1C11.4477 1 11 1.44772 11 2V3.05493C9.97131 3.16864 8.99487 3.45574 8.10055 3.88633L9.62677 5.41255C10.3678 5.14553 11.1669 5 12 5C15.866 5 19 8.13401 19 12C19 12.8331 18.8545 13.6322 18.5874 14.3732L20.1137 15.8995Z" fill="#212529"/>
</svg>
