<svg width="24" height="24" viewBox="0 0 24 24" fill="none" xmlns="http://www.w3.org/2000/svg">
<path fill-rule="evenodd" clip-rule="evenodd" d="M3.96528 2.55105L3.70712 2.29289C3.3166 1.90237 2.68343 1.90237 2.29291 2.29289C1.90238 2.68342 1.90238 3.31658 2.29291 3.70711L5.89652 7.31072L2.62639 8.47863C1.25293 8.96915 1.31648 10.9328 2.7188 11.3335L10.5867 13.5815L12.8347 21.4494C13.2353 22.8517 15.199 22.9153 15.6896 21.5418L16.8575 18.2717L20.2929 21.7071C20.6834 22.0976 21.3166 22.0976 21.7071 21.7071C22.0976 21.3166 22.0976 20.6834 21.7071 20.2929L21.2489 19.8347C21.1938 19.7982 21.1415 19.7557 21.0929 19.7071L4.09288 2.70711C4.04431 2.65853 4.00177 2.6062 3.96528 2.55105ZM4.76567 9.83832L7.46137 8.87557L9.88756 11.3018L4.76567 9.83832ZM14.3299 19.4025L12.8664 14.2806L15.2926 16.7068L14.3299 19.4025Z" fill="#212529"/>
<path d="M18.3386 14.1244L21.8818 4.20349C22.3075 3.01156 21.1566 1.86068 19.9647 2.28637L10.0438 5.82956L11.6086 7.39441L19.6433 4.52487L16.7738 12.5596L18.3386 14.1244Z" fill="#212529"/>
</svg>
