<svg width="24" height="24" viewBox="0 0 24 24" fill="none" xmlns="http://www.w3.org/2000/svg">
<path fill-rule="evenodd" clip-rule="evenodd" d="M5.99998 3C4.89542 3 3.99998 3.89543 3.99998 5V14C3.99998 15.1046 4.89542 16 5.99999 16H11V17.1707C10.143 17.4736 9.46475 18.1548 9.16589 19.0137C9.11193 19.0047 9.0565 19 8.99998 19H3.99998C3.4477 19 2.99998 19.4477 2.99998 20C2.99998 20.5523 3.4477 21 3.99998 21H8.99998C9.0565 21 9.11193 20.9953 9.16589 20.9863C9.57383 22.1586 10.6887 23 12 23C13.3113 23 14.4261 22.1586 14.8341 20.9863C14.888 20.9953 14.9435 21 15 21H20C20.5523 21 21 20.5523 21 20C21 19.4477 20.5523 19 20 19H15C14.9435 19 14.888 19.0047 14.8341 19.0137C14.5352 18.1548 13.857 17.4736 13 17.1707V16H18C19.1046 16 20 15.1046 20 14V6.375C20 5.27043 19.1046 4.375 18 4.375L11.7566 4.375L11.3072 3.91156C10.7421 3.32888 9.96513 3 9.15348 3H5.99998ZM9.87138 5.30385L10.3208 5.76729C10.6975 6.15575 11.2155 6.375 11.7566 6.375H17.5C17.7761 6.375 18 6.59886 18 6.875V13.5C18 13.7761 17.7761 14 17.5 14H6.49998C6.22384 14 5.99998 13.7761 5.99998 13.5V5.5C5.99998 5.22386 6.22384 5 6.49998 5L9.15348 5C9.42403 5 9.68303 5.10963 9.87138 5.30385ZM12 19C11.4477 19 11 19.4477 11 20C11 20.5523 11.4477 21 12 21C12.5523 21 13 20.5523 13 20C13 19.4477 12.5523 19 12 19Z" fill="#212529"/>
</svg>
