<svg width="24" height="24" viewBox="0 0 24 24" fill="none" xmlns="http://www.w3.org/2000/svg">
<path fill-rule="evenodd" clip-rule="evenodd" d="M4 5C4 3.89543 4.89543 3 6 3H9.15349C9.96515 3 10.7422 3.32888 11.3072 3.91156L11.7566 4.375H18C19.1046 4.375 20 5.27043 20 6.375V14C20 15.1046 19.1046 16 18 16H13V17.1707C13.857 17.4736 14.5352 18.1548 14.8341 19.0137C14.8881 19.0047 14.9435 19 15 19H20C20.5523 19 21 19.4477 21 20C21 20.5523 20.5523 21 20 21H15C14.9435 21 14.8881 20.9953 14.8341 20.9863C14.4262 22.1586 13.3113 23 12 23C10.6887 23 9.57385 22.1586 9.1659 20.9863C9.11194 20.9953 9.05652 21 9 21H4C3.44772 21 3 20.5523 3 20C3 19.4477 3.44772 19 4 19H9C9.05652 19 9.11194 19.0047 9.1659 19.0137C9.46477 18.1548 10.143 17.4736 11 17.1707V16H6C4.89543 16 4 15.1046 4 14V5Z" fill="#212529"/>
</svg>
