<svg width="24" height="24" viewBox="0 0 24 24" fill="none" xmlns="http://www.w3.org/2000/svg">
<path d="M18.0236 2.1412C18.527 1.85053 19.1708 2.02302 19.4615 2.52647C21.1245 5.4068 22 8.67411 22 12C22 15.3259 21.1245 18.5932 19.4615 21.4735C19.1708 21.977 18.527 22.1495 18.0236 21.8588C17.5201 21.5681 17.3476 20.9243 17.6383 20.4209C19.1165 17.8607 19.8947 14.9563 19.8947 12C19.8947 9.04365 19.1165 6.13938 17.6383 3.57911C17.3476 3.07565 17.5201 2.43188 18.0236 2.1412Z" fill="#212529"/>
<path d="M5.21083 7.57235C5.15123 7.29018 4.97659 7.03351 4.70716 6.87796C4.52923 6.77524 4.33379 6.73036 4.14259 6.73749C3.9397 6.73011 3.7325 6.78123 3.54737 6.89693C3.27412 7.06772 3.10628 7.34336 3.06342 7.63909C2.36567 8.98468 2 10.4801 2 12C2 13.663 2.43775 15.2966 3.26923 16.7367C3.5599 17.2402 4.20367 17.4127 4.70714 17.1221C5.21061 16.8314 5.38312 16.1876 5.09246 15.6842C4.44573 14.564 4.10526 13.2934 4.10526 12C4.10526 11.3739 4.18503 10.7532 4.3407 10.1523L8.26285 16.4276C8.32245 16.7098 8.49711 16.9665 8.76657 17.1221C8.94448 17.2248 9.13992 17.2696 9.3311 17.2625C9.53399 17.2699 9.74119 17.2188 9.92632 17.1031C10.1996 16.9323 10.3674 16.6566 10.4103 16.3608C11.108 15.0153 11.4737 13.5199 11.4737 12C11.4737 10.337 11.0359 8.70338 10.2045 7.26327C9.9138 6.7598 9.27002 6.58729 8.76655 6.87794C8.26308 7.1686 8.09056 7.81236 8.38122 8.31583C9.02791 9.43598 9.36842 10.7066 9.36842 12C9.36842 12.6261 9.28864 13.2468 9.13297 13.8477L5.21083 7.57235Z" fill="#212529"/>
<path d="M14.9035 5.15801C14.6128 4.65455 13.9691 4.48205 13.4656 4.77272C12.9621 5.06338 12.7896 5.70715 13.0803 6.21061C14.0965 7.97081 14.6316 9.9675 14.6316 12C14.6316 14.0324 14.0965 16.0292 13.0803 17.7894C12.7896 18.2928 12.9621 18.9366 13.4656 19.2273C13.969 19.5179 14.6128 19.3454 14.9035 18.842C16.1045 16.7618 16.7368 14.402 16.7368 12C16.7368 9.59794 16.1045 7.23823 14.9035 5.15801Z" fill="#212529"/>
</svg>
