<svg width="24" height="24" viewBox="0 0 24 24" fill="none" xmlns="http://www.w3.org/2000/svg">
<path fill-rule="evenodd" clip-rule="evenodd" d="M20 19C20 20.6569 18.6569 22 17 22H7C5.34315 22 4 20.6569 4 19V8.41421C4 7.88378 4.21071 7.37507 4.58579 7L9 2.58579C9.37507 2.21071 9.88378 2 10.4142 2H17C18.6569 2 20 3.34315 20 5V19ZM10.5502 9.16475C10.1621 8.90847 9.6346 8.95119 9.29289 9.29289C8.90237 9.68342 8.90237 10.3166 9.29289 10.7071L10.5858 12L9.29289 13.2929C8.90237 13.6834 8.90237 14.3166 9.29289 14.7071C9.68342 15.0976 10.3166 15.0976 10.7071 14.7071L12 13.4142L13.2929 14.7071C13.6834 15.0976 14.3166 15.0976 14.7071 14.7071C15.0976 14.3166 15.0976 13.6834 14.7071 13.2929L13.4142 12L14.7071 10.7071C14.7559 10.6583 14.7986 10.6057 14.8352 10.5502C15.0915 10.1621 15.0488 9.6346 14.7071 9.29289C14.6583 9.24408 14.6057 9.20136 14.5502 9.16475C14.1621 8.90847 13.6346 8.95119 13.2929 9.29289L12 10.5858L10.7071 9.29289C10.6583 9.24408 10.6057 9.20136 10.5502 9.16475Z" fill="#212529"/>
</svg>
