<svg width="24" height="24" viewBox="0 0 24 24" fill="none" xmlns="http://www.w3.org/2000/svg">
<path fill-rule="evenodd" clip-rule="evenodd" d="M16.8787 4.87868L21.1213 9.12132C21.6839 9.68393 22 10.447 22 11.2426V17C22 18.6569 20.6569 20 19 20H5C3.34315 20 2 18.6569 2 17V7C2 5.34315 3.34315 4 5 4H14.7574C15.553 4 16.3161 4.31607 16.8787 4.87868ZM4 17V7C4 6.44772 4.44772 6 5 6H14V9C14 10.6569 15.3431 12 17 12H20V17C20 17.5523 19.5523 18 19 18H5C4.44772 18 4 17.5523 4 17Z" fill="#212529"/>
</svg>
