<svg width="24" height="24" viewBox="0 0 24 24" fill="none" xmlns="http://www.w3.org/2000/svg">
<path fill-rule="evenodd" clip-rule="evenodd" d="M13 3C13 2.44772 12.5523 2 12 2C11.4477 2 11 2.44772 11 3V3.08296C8.16229 3.55904 6 6.027 6 9L6 15.0557C6 15.5215 5.89157 15.9808 5.68328 16.3974L5.38197 17H5C4.44772 17 4 17.4477 4 18C4 18.5523 4.44772 19 5 19H19C19.5523 19 20 18.5523 20 18C20 17.4477 19.5523 17 19 17H18.618L18.3167 16.3974C18.1084 15.9808 18 15.5215 18 15.0557L18 9C18 6.027 15.8377 3.55904 13 3.08296V3ZM12 22C13.1046 22 14 21.1046 14 20H10C10 21.1046 10.8954 22 12 22ZM12 12C11.4477 12 11 11.5523 11 11V8C11 7.44772 11.4477 7 12 7C12.5523 7 13 7.44772 13 8V11C13 11.5523 12.5523 12 12 12ZM11 14C11 13.4477 11.4477 13 12 13C12.5523 13 13 13.4477 13 14C13 14.5523 12.5523 15 12 15C11.4477 15 11 14.5523 11 14Z" fill="#212529"/>
</svg>
