<svg width="24" height="24" viewBox="0 0 24 24" fill="none" xmlns="http://www.w3.org/2000/svg">
<path fill-rule="evenodd" clip-rule="evenodd" d="M12 2C12.5523 2 13 2.44772 13 3V3.08296C15.8377 3.55903 18 6.027 18 9L18 15.0557C18 15.5215 18.1085 15.9808 18.3167 16.3974L18.6181 17H19C19.5523 17 20 17.4477 20 18C20 18.5523 19.5523 19 19 19H5C4.44772 19 4 18.5523 4 18C4 17.4477 4.44772 17 5 17H5.38198L5.6833 16.3974C5.89158 15.9808 6.00002 15.5215 6.00002 15.0557L6.00002 9C6.00002 6.02701 8.16229 3.55905 11 3.08296V3C11 2.44772 11.4477 2 12 2ZM14 20C14 21.1046 13.1046 22 12 22C10.8954 22 10 21.1046 10 20H14ZM10 8C9.44772 8 9.00001 8.44772 9.00001 9C9.00001 9.55228 9.44772 10 10 10H11.9194L9.21914 13.3753C8.979 13.6755 8.93219 14.0867 9.09871 14.4332C9.26523 14.7797 9.6156 15 10 15H14C14.5523 15 15 14.5523 15 14C15 13.4477 14.5523 13 14 13H12.0806L14.7809 9.62469C15.021 9.32452 15.0678 8.91328 14.9013 8.56681C14.7348 8.22035 14.3844 8 14 8H10Z" fill="#212529"/>
</svg>
