<svg width="24" height="24" viewBox="0 0 24 24" fill="none" xmlns="http://www.w3.org/2000/svg">
<path fill-rule="evenodd" clip-rule="evenodd" d="M12 2C12.5523 2 13 2.44772 13 3V3.08296C15.8377 3.55904 18 6.027 18 9L18 15.0557C18 15.5215 18.1084 15.9808 18.3167 16.3974L18.618 17H19C19.5523 17 20 17.4477 20 18C20 18.5523 19.5523 19 19 19H4.99998C4.4477 19 3.99998 18.5523 3.99998 18C3.99998 17.4477 4.4477 17 4.99998 17H5.38195L5.68327 16.3974C5.89155 15.9808 5.99999 15.5215 5.99999 15.0557L5.99998 9C5.99998 6.027 8.16227 3.55904 11 3.08296V3C11 2.44772 11.4477 2 12 2ZM14 20C14 21.1046 13.1046 22 12 22C10.8954 22 9.99998 21.1046 9.99998 20H14ZM18.9463 3.19057C19.4062 2.88478 20.0269 3.00972 20.3327 3.46963C20.9923 4.46171 21.4799 5.57908 21.7522 6.7787C21.9145 7.49403 22 8.23763 22 8.99998C22 9.55227 21.5522 9.99998 21 9.99998C20.4477 9.99998 20 9.55227 20 8.99998C20 8.38756 19.9313 7.79238 19.8017 7.22127C19.5844 6.26359 19.1951 5.37082 18.6672 4.57697C18.3614 4.11707 18.4864 3.49635 18.9463 3.19057ZM3.68454 3.44372C3.99175 2.98477 4.61286 2.86176 5.07181 3.16897C5.53076 3.47619 5.65377 4.09729 5.34656 4.55624C4.81171 5.35527 4.41743 6.25524 4.19823 7.22127C4.06863 7.79238 4 8.38756 4 8.99998C4 9.55227 3.55228 9.99998 3 9.99998C2.44772 9.99998 2 9.55227 2 8.99998C2 8.23763 2.08549 7.49403 2.24781 6.7787C2.52239 5.56862 3.01615 4.44224 3.68454 3.44372Z" fill="#212529"/>
</svg>
