<svg width="24" height="24" viewBox="0 0 24 24" fill="none" xmlns="http://www.w3.org/2000/svg">
<path fill-rule="evenodd" clip-rule="evenodd" d="M13 3C13 2.44772 12.5523 2 12 2C11.4477 2 11 2.44772 11 3V3.08296C8.16229 3.55904 6 6.027 6 9L6 15.0557C6 15.5215 5.89157 15.9808 5.68328 16.3974L5.38197 17H5C4.44772 17 4 17.4477 4 18C4 18.5523 4.44772 19 5 19H19C19.5523 19 20 18.5523 20 18C20 17.4477 19.5523 17 19 17H18.618L18.3167 16.3974C18.1084 15.9808 18 15.5215 18 15.0557L18 9C18 6.027 15.8377 3.55904 13 3.08296V3ZM12 5C9.79086 5 8 6.79086 8 9L8 15.0557C8 15.7247 7.86578 16.3857 7.6065 17H16.3935C16.1342 16.3857 16 15.7247 16 15.0557L16 9C16 6.79086 14.2091 5 12 5ZM12 22C13.1046 22 14 21.1046 14 20H10C10 21.1046 10.8954 22 12 22ZM9.99999 8C9.44771 8 8.99999 8.44772 8.99999 9C8.99999 9.55228 9.44771 10 9.99999 10H11.9194L9.21913 13.3753C8.97899 13.6755 8.93217 14.0867 9.09869 14.4332C9.26521 14.7797 9.61559 15 9.99999 15H14C14.5523 15 15 14.5523 15 14C15 13.4477 14.5523 13 14 13H12.0806L14.7809 9.62469C15.021 9.32452 15.0678 8.91328 14.9013 8.56681C14.7348 8.22035 14.3844 8 14 8H9.99999Z" fill="#212529"/>
</svg>
