<svg width="24" height="24" viewBox="0 0 24 24" fill="none" xmlns="http://www.w3.org/2000/svg">
<path fill-rule="evenodd" clip-rule="evenodd" d="M13 3C13 2.44772 12.5523 2 12 2C11.4477 2 11 2.44772 11 3V3.08296C8.16229 3.55904 6 6.027 6 9L6 15.0557C6 15.5215 5.89157 15.9808 5.68328 16.3974L5.38197 17H5C4.44772 17 4 17.4477 4 18C4 18.5523 4.44772 19 5 19H19C19.5523 19 20 18.5523 20 18C20 17.4477 19.5523 17 19 17H18.618L18.3167 16.3974C18.1084 15.9808 18 15.5215 18 15.0557L18 9C18 6.027 15.8377 3.55904 13 3.08296V3ZM12 22C13.1046 22 14 21.1046 14 20H10C10 21.1046 10.8954 22 12 22ZM9.29289 8.29289C9.68342 7.90237 10.3166 7.90237 10.7071 8.29289L12 9.58579L13.2929 8.29289C13.6834 7.90237 14.3166 7.90237 14.7071 8.29289C15.0976 8.68342 15.0976 9.31658 14.7071 9.70711L13.4142 11L14.7071 12.2929C15.0976 12.6834 15.0976 13.3166 14.7071 13.7071C14.3166 14.0976 13.6834 14.0976 13.2929 13.7071L12 12.4142L10.7071 13.7071C10.3166 14.0976 9.68342 14.0976 9.29289 13.7071C8.90237 13.3166 8.90237 12.6834 9.29289 12.2929L10.5858 11L9.29289 9.70711C8.90237 9.31658 8.90237 8.68342 9.29289 8.29289Z" fill="#212529"/>
</svg>
