<svg width="24" height="24" viewBox="0 0 24 24" fill="none" xmlns="http://www.w3.org/2000/svg">
<path fill-rule="evenodd" clip-rule="evenodd" d="M3.70711 2.29289C3.31658 1.90237 2.68342 1.90237 2.29289 2.29289C1.90237 2.68342 1.90237 3.31658 2.29289 3.70711L6.40761 7.82182C6.14442 8.49704 6 9.23165 6 10L6 17H5C4.44772 17 4 17.4477 4 18C4 18.5523 4.44772 19 5 19H17.5858L20.2929 21.7071C20.6834 22.0976 21.3166 22.0976 21.7071 21.7071C22.0976 21.3166 22.0976 20.6834 21.7071 20.2929C15.8181 14.4039 9.69142 8.27721 3.70711 2.29289ZM18 13.5858L18 10C18 7.027 15.8377 4.55904 13 4.08296V3C13 2.44772 12.5523 2 12 2C11.4477 2 11 2.44772 11 3V4.08296C10.3364 4.19429 9.70969 4.41456 9.13897 4.72475L18 13.5858ZM14 20C14 21.1046 13.1046 22 12 22C10.8954 22 10 21.1046 10 20H14Z" fill="#212529"/>
</svg>
