<svg width="24" height="24" viewBox="0 0 24 24" fill="none" xmlns="http://www.w3.org/2000/svg">
<path fill-rule="evenodd" clip-rule="evenodd" d="M12 2C12.5523 2 13 2.44772 13 3V3.08296C15.8377 3.55904 18 6.027 18 9L18 15.0557C18 15.5215 18.1084 15.9808 18.3167 16.3974L18.618 17H19C19.5523 17 20 17.4477 20 18C20 18.5523 19.5523 19 19 19H5C4.44772 19 4 18.5523 4 18C4 17.4477 4.44772 17 5 17H5.38197L5.68328 16.3974C5.89157 15.9808 6 15.5215 6 15.0557L6 9C6 6.027 8.16229 3.55904 11 3.08296V3C11 2.44772 11.4477 2 12 2ZM8 9C8 6.79086 9.79086 5 12 5C14.2091 5 16 6.79086 16 9L16 15.0557C16 15.7247 16.1342 16.3857 16.3935 17H7.6065C7.86578 16.3857 8 15.7247 8 15.0557L8 9ZM14 20C14 21.1046 13.1046 22 12 22C10.8954 22 10 21.1046 10 20H14ZM12 8C12.5523 8 13 8.44772 13 9V10H14C14.5523 10 15 10.4477 15 11C15 11.5523 14.5523 12 14 12H13V13C13 13.5523 12.5523 14 12 14C11.4477 14 11 13.5523 11 13V12H10C9.44772 12 9 11.5523 9 11C9 10.4477 9.44772 10 10 10H11V9C11 8.44772 11.4477 8 12 8Z" fill="#212529"/>
</svg>
