<svg width="24" height="24" viewBox="0 0 24 24" fill="none" xmlns="http://www.w3.org/2000/svg">
<path d="M15 3C15 2.44772 15.4477 2 16 2H21C21.5523 2 22 2.44772 22 3V8C22 8.55228 21.5523 9 21 9C20.4477 9 20 8.55228 20 8V5.41421L14.7071 10.7071C14.3166 11.0976 13.6834 11.0976 13.2929 10.7071C12.9024 10.3166 12.9024 9.68342 13.2929 9.29289L18.5858 4H16C15.4477 4 15 3.55228 15 3Z" fill="#212529"/>
<path d="M5.41422 20H8C8.55229 20 9 20.4477 9 21C9 21.5523 8.55229 22 8 22H3C2.44772 22 2 21.5523 2 21V16C2 15.4477 2.44772 15 3 15C3.55229 15 4 15.4477 4 16L4 18.5858L9.29289 13.2929C9.68342 12.9024 10.3166 12.9024 10.7071 13.2929C11.0976 13.6834 11.0976 14.3166 10.7071 14.7071L5.41422 20Z" fill="#212529"/>
</svg>
