<?xml version="1.0" encoding="UTF-8"?>
<svg xmlns="http://www.w3.org/2000/svg" width="24" height="24" viewBox="0 0 24 24" fill="none"><path d="M4.86377 4C5.41605 4 5.86377 4.44772 5.86377 5L5.86377 5.5C5.86377 6.05228 5.41605 6.5 4.86377 6.5C4.31148 6.5 3.86377 6.05228 3.86377 5.5L3.86377 5C3.86377 4.44772 4.31148 4 4.86377 4Z" transform="translate(3.6938 2)" fill="#212529" fill-rule="nonzero" opacity="1" /><path d="M5.86377 9.72498C5.86377 9.17269 5.41605 8.72498 4.86377 8.72498C4.31148 8.72498 3.86377 9.17269 3.86377 9.72498L3.86377 10.225C3.86377 10.7773 4.31148 11.225 4.86377 11.225C5.41605 11.225 5.86377 10.7773 5.86377 10.225L5.86377 9.72498Z" transform="translate(3.6938 2)" fill="#212529" fill-rule="nonzero" opacity="1" /><path d="M8.24048 4C8.79276 4 9.24048 4.44772 9.24048 5L9.24048 5.5C9.24048 6.05228 8.79276 6.5 8.24048 6.5C7.68819 6.5 7.24048 6.05228 7.24048 5.5L7.24048 5C7.24048 4.44772 7.68819 4 8.24048 4Z" transform="translate(3.6938 2)" fill="#212529" fill-rule="nonzero" opacity="1" /><path d="M9.24048 9.77502C9.24048 9.22274 8.79276 8.77502 8.24048 8.77502C7.68819 8.77502 7.24048 9.22274 7.24048 9.77502L7.24048 10.275C7.24048 10.8273 7.68819 11.275 8.24048 11.275C8.79276 11.275 9.24048 10.8273 9.24048 10.275L9.24048 9.77502Z" transform="translate(3.6938 2)" fill="#212529" fill-rule="nonzero" opacity="1" /><path d="M11.6179 4C12.1702 4 12.6179 4.44772 12.6179 5L12.6179 5.5C12.6179 6.05228 12.1702 6.5 11.6179 6.5C11.0656 6.5 10.6179 6.05228 10.6179 5.5L10.6179 5C10.6179 4.44772 11.0656 4 11.6179 4Z" transform="translate(3.6938 2)" fill="#212529" fill-rule="nonzero" opacity="1" /><path d="M12.6179 9.77502C12.6179 9.22274 12.1702 8.77502 11.6179 8.77502C11.0656 8.77502 10.6179 9.22274 10.6179 9.77502L10.6179 10.275C10.6179 10.8273 11.0656 11.275 11.6179 11.275C12.1702 11.275 12.6179 10.8273 12.6179 10.275L12.6179 9.77502Z" transform="translate(3.6938 2)" fill="#212529" fill-rule="nonzero" opacity="1" /><path d="M0.292895 0.292892C0.480432 0.105355 0.734787 0 1 0L15.6126 5.38826e-05C16.1648 5.59688e-05 16.6125 0.447771 16.6125 1.00005L16.6125 19C16.6125 19.5523 16.1648 20 15.6125 20L10.761 20C10.2087 20 9.76101 19.5523 9.76101 19L9.76101 15.5651L6.85154 15.565L6.85154 18.9999C6.85154 19.2652 6.74618 19.5195 6.55865 19.7071C6.37111 19.8946 6.11676 19.9999 5.85154 19.9999L1 19.9999C0.447715 19.9999 0 19.5522 0 18.9999L0 1C0 0.734783 0.105357 0.480428 0.292895 0.292892ZM2 2L2 17.9999L4.85154 17.9999L4.85154 14.565C4.85154 14.2998 4.9569 14.0454 5.14444 13.8579C5.33197 13.6704 5.58633 13.565 5.85155 13.565L10.761 13.5651C11.3133 13.5651 11.761 14.0128 11.761 14.5651L11.761 18L14.6125 18L14.6125 2.00005L2 2Z" transform="translate(3.6938 2)" fill="#212529" fill-rule="evenodd" opacity="1" /></svg>
