<svg width="24" height="24" viewBox="0 0 24 24" fill="none" xmlns="http://www.w3.org/2000/svg">
<path fill-rule="evenodd" clip-rule="evenodd" d="M3.96525 2.55088L3.70711 2.29274C3.31658 1.90222 2.68342 1.90222 2.29289 2.29274C1.90237 2.68326 1.90237 3.31643 2.29289 3.70695L8.58579 9.99985L3.50699 15.0786C3.22779 15.3578 3.03748 15.7134 2.96004 16.1006L2.04884 20.6566C1.8949 21.4263 2.57351 22.1049 3.3432 21.951L7.89922 21.0398C8.2864 20.9624 8.642 20.7721 8.9212 20.4929L14 15.4141L20.2929 21.707C20.6834 22.0975 21.3166 22.0975 21.7071 21.707C22.0976 21.3164 22.0976 20.6833 21.7071 20.2927L21.249 19.8346C21.1938 19.7981 21.1415 19.7556 21.0929 19.707L4.09288 2.70698C4.04429 2.65839 4.00175 2.60605 3.96525 2.55088ZM12.5858 13.9998L10 11.4141L4.9212 16.4929L4.27475 19.7251L7.50699 19.0786L12.5858 13.9998Z" fill="#212529"/>
<path fill-rule="evenodd" clip-rule="evenodd" d="M16.8142 12.5999L21.5 7.91406C22.281 7.13302 22.281 5.86669 21.5 5.08564L18.9142 2.49985C18.1332 1.7188 16.8668 1.7188 16.0858 2.49985L11.4 7.18566L12.8142 8.59987L15 6.41406L17.5858 8.99984L15.4 11.1857L16.8142 12.5999ZM16.4142 4.99985L17.5 3.91406L20.0858 6.49985L19 7.58563L16.4142 4.99985Z" fill="#212529"/>
</svg>
