<svg width="24" height="24" viewBox="0 0 24 24" fill="none" xmlns="http://www.w3.org/2000/svg">
<path d="M3.96524 2.55087L3.70711 2.29274C3.31658 1.90221 2.68342 1.90221 2.29289 2.29274C1.90237 2.68326 1.90237 3.31643 2.29289 3.70695L8.58579 9.99984L3.50698 15.0786C3.22778 15.3578 3.03747 15.7134 2.96004 16.1006L2.04883 20.6566C1.89489 21.4263 2.57351 22.1049 3.3432 21.951L7.89921 21.0398C8.2864 20.9624 8.642 20.7721 8.9212 20.4929L14 15.4141L20.2929 21.707C20.6834 22.0975 21.3166 22.0975 21.7071 21.707C22.0976 21.3164 22.0976 20.6833 21.7071 20.2927L21.249 19.8346C21.1938 19.7981 21.1415 19.7556 21.0929 19.707L4.09288 2.70698C4.04429 2.65839 4.00174 2.60604 3.96524 2.55087Z" fill="#212529"/>
<path d="M16.8142 12.5999L19 10.4141L13.5858 4.99986L11.4 7.18565L16.8142 12.5999Z" fill="#212529"/>
<path d="M20.4142 8.99985L15 3.58565L16.0858 2.49985C16.8668 1.7188 18.1332 1.7188 18.9142 2.49985L21.5 5.08564C22.281 5.86669 22.281 7.13302 21.5 7.91406L20.4142 8.99985Z" fill="#212529"/>
</svg>
