<svg width="24" height="24" viewBox="0 0 24 24" fill="none" xmlns="http://www.w3.org/2000/svg">
<path fill-rule="evenodd" clip-rule="evenodd" d="M3.50699 15.0786C3.22778 15.3578 3.03747 15.7134 2.96004 16.1006L2.04884 20.6566C1.8949 21.4263 2.57351 22.1049 3.3432 21.951L7.89922 21.0398C8.2864 20.9624 8.642 20.7721 8.9212 20.4929L21.5 7.91406C22.281 7.13302 22.281 5.86669 21.5 5.08564L18.9142 2.49985C18.1332 1.7188 16.8668 1.7188 16.0858 2.49985L3.50699 15.0786ZM16.4142 4.99986L17.5 3.91406L20.0858 6.49985L19 7.58564L16.4142 4.99986ZM15 6.41407L4.9212 16.4929L4.27475 19.7251L7.50699 19.0786L17.5858 8.99985L15 6.41407Z" fill="#212529"/>
</svg>
