<svg width="24" height="24" viewBox="0 0 24 24" fill="none" xmlns="http://www.w3.org/2000/svg">
<path fill-rule="evenodd" clip-rule="evenodd" d="M12 2C6.47715 2 2 6.47715 2 12C2 17.5228 6.47715 22 12 22C17.5228 22 22 17.5228 22 12C22 6.47715 17.5228 2 12 2ZM9 9C9 7.34315 10.3431 6 12 6C13.6569 6 15 7.34315 15 9C15 10.6569 13.6569 12 12 12C10.3431 12 9 10.6569 9 9ZM5.7547 17.0001C7.21976 15.1725 9.47259 14 12 14C14.5274 14 16.7802 15.1725 18.2453 17.0001C16.7792 18.829 14.5263 20 12 20C9.47366 20 7.22082 18.829 5.7547 17.0001Z" fill="#212529"/>
</svg>
