<svg width="24" height="24" viewBox="0 0 24 24" fill="none" xmlns="http://www.w3.org/2000/svg">
<path fill-rule="evenodd" clip-rule="evenodd" d="M9.00002 3C10.4137 3 11.675 3.65183 12.5 4.67134C13.325 3.65183 14.5864 3 16 3C18.4853 3 20.5 5.01472 20.5 7.5C20.5 9.98528 18.4853 12 16 12C14.5864 12 13.325 11.3482 12.5 10.3287C11.675 11.3482 10.4137 12 9.00002 12C6.51474 12 4.50002 9.98528 4.50002 7.5C4.50002 5.01472 6.51474 3 9.00002 3ZM9.00002 5C7.61931 5 6.50002 6.11929 6.50002 7.5C6.50002 8.88071 7.61931 10 9.00002 10C10.3807 10 11.5 8.88071 11.5 7.5C11.5 6.11929 10.3807 5 9.00002 5ZM16 10C14.6193 10 13.5 8.88071 13.5 7.5C13.5 6.11929 14.6193 5 16 5C17.3807 5 18.5 6.11929 18.5 7.5C18.5 8.88071 17.3807 10 16 10Z" fill="#212529"/>
<path fill-rule="evenodd" clip-rule="evenodd" d="M1.0805 19.8618C1.63372 15.9823 4.96773 13 9.00002 13C10.2553 13 11.4429 13.289 12.5 13.8042C13.5571 13.289 14.7447 13 16 13C20.0323 13 23.3663 15.9823 23.9195 19.8618C24.0971 21.107 23.0595 22 22 22H3.00002C1.94051 22 0.902936 21.107 1.0805 19.8618ZM14.9172 20C14.4417 17.1626 11.9726 15 9.00002 15C6.02744 15 3.5583 17.1626 3.08282 20H14.9172ZM21.9172 20H16.9344C16.9311 19.9544 16.9262 19.9084 16.9195 19.8618C16.6586 18.0317 15.7788 16.4013 14.4988 15.1894C14.9786 15.0658 15.4817 15 16 15C18.9726 15 21.4417 17.1626 21.9172 20Z" fill="#212529"/>
</svg>
