<svg width="24" height="24" viewBox="0 0 24 24" fill="none" xmlns="http://www.w3.org/2000/svg">
<path fill-rule="evenodd" clip-rule="evenodd" d="M4.49999 7.5C4.49999 5.01472 6.51471 3 8.99999 3C11.4853 3 13.5 5.01472 13.5 7.5C13.5 9.98528 11.4853 12 8.99999 12C6.51471 12 4.49999 9.98528 4.49999 7.5ZM8.99999 5C7.61928 5 6.49999 6.11929 6.49999 7.5C6.49999 8.88071 7.61928 10 8.99999 10C10.3807 10 11.5 8.88071 11.5 7.5C11.5 6.11929 10.3807 5 8.99999 5Z" fill="#212529"/>
<path d="M20 8C20 7.44772 19.5523 7 19 7C18.4477 7 18 7.44772 18 8V10H16C15.4477 10 15 10.4477 15 11C15 11.5523 15.4477 12 16 12H18V14C18 14.5523 18.4477 15 19 15C19.5523 15 20 14.5523 20 14V12H22C22.5523 12 23 11.5523 23 11C23 10.4477 22.5523 10 22 10H20V8Z" fill="#212529"/>
<path fill-rule="evenodd" clip-rule="evenodd" d="M8.99999 13C4.9677 13 1.63369 15.9823 1.08047 19.8618C0.902906 21.107 1.94048 22 2.99999 22H15C16.0595 22 17.0971 21.107 16.9195 19.8618C16.3663 15.9823 13.0323 13 8.99999 13ZM8.99999 15C11.9726 15 14.4417 17.1626 14.9172 20H3.08279C3.55827 17.1626 6.02741 15 8.99999 15Z" fill="#212529"/>
</svg>
