<svg width="24" height="24" viewBox="0 0 24 24" fill="none" xmlns="http://www.w3.org/2000/svg">
<path fill-rule="evenodd" clip-rule="evenodd" d="M4 12C4 7.58172 7.58172 4 12 4C16.4183 4 20 7.58172 20 12C20 13.8919 19.3433 15.6305 18.2453 17.0001C16.7802 15.1725 14.5274 14 12 14C9.4726 14 7.21976 15.1725 5.7547 17.0001C4.65675 15.6305 4 13.8919 4 12ZM7.19937 18.4001C8.53653 19.4047 10.1987 20 12 20C13.8013 20 15.4635 19.4047 16.8006 18.4001C15.7048 16.9412 13.9619 16 12 16C10.0381 16 8.29518 16.9412 7.19937 18.4001ZM12 2C6.47715 2 2 6.47715 2 12C2 17.5228 6.47715 22 12 22C17.5228 22 22 17.5228 22 12C22 6.47715 17.5228 2 12 2ZM12 8C11.1716 8 10.5 8.67157 10.5 9.5C10.5 10.3284 11.1716 11 12 11C12.8284 11 13.5 10.3284 13.5 9.5C13.5 8.67157 12.8284 8 12 8ZM8.5 9.5C8.5 7.567 10.067 6 12 6C13.933 6 15.5 7.567 15.5 9.5C15.5 11.433 13.933 13 12 13C10.067 13 8.5 11.433 8.5 9.5Z" fill="#212529"/>
</svg>
