<svg width="24" height="24" viewBox="0 0 24 24" fill="none" xmlns="http://www.w3.org/2000/svg">
<path d="M9.00002 3C6.51474 3 4.50002 5.01472 4.50002 7.5C4.50002 9.98528 6.51474 12 9.00002 12C10.4137 12 11.675 11.3482 12.5 10.3287C13.325 11.3482 14.5864 12 16 12C18.4853 12 20.5 9.98528 20.5 7.5C20.5 5.01472 18.4853 3 16 3C14.5864 3 13.325 3.65184 12.5 4.67134C11.675 3.65183 10.4137 3 9.00002 3Z" fill="#212529"/>
<path d="M9.00002 13C4.96773 13 1.63372 15.9823 1.0805 19.8618C0.902936 21.107 1.94051 22 3.00002 22H22C23.0595 22 24.0971 21.107 23.9195 19.8618C23.3663 15.9823 20.0323 13 16 13C14.7447 13 13.5571 13.289 12.5 13.8042C11.4429 13.289 10.2553 13 9.00002 13Z" fill="#212529"/>
</svg>
