<svg width="24" height="24" viewBox="0 0 24 24" fill="none" xmlns="http://www.w3.org/2000/svg">
<path d="M9.00002 3C6.51473 3 4.50002 5.01472 4.50002 7.5C4.50002 9.98528 6.51473 12 9.00002 12C11.4853 12 13.5 9.98528 13.5 7.5C13.5 5.01472 11.4853 3 9.00002 3Z" fill="#212529"/>
<path d="M22.7071 8.29289C23.0977 8.68342 23.0977 9.31658 22.7071 9.70711L18.7071 13.7071C18.5146 13.8996 18.252 14.0053 17.9798 13.9998C17.7077 13.9943 17.4495 13.8781 17.2649 13.678L15.2649 11.5095C14.8905 11.1035 14.9161 10.4709 15.322 10.0964C15.728 9.72199 16.3607 9.74756 16.7351 10.1535L18.0292 11.5566L21.2929 8.29289C21.6834 7.90237 22.3166 7.90237 22.7071 8.29289Z" fill="#212529"/>
<path d="M9.00002 13C4.96773 13 1.63372 15.9823 1.0805 19.8618C0.902936 21.107 1.94051 22 3.00002 22H15C16.0595 22 17.0971 21.107 16.9195 19.8618C16.3663 15.9823 13.0323 13 9.00002 13Z" fill="#212529"/>
</svg>
