<svg width="24" height="24" viewBox="0 0 24 24" fill="none" xmlns="http://www.w3.org/2000/svg">
<path d="M3.96531 2.5511L3.70711 2.29289C3.31658 1.90237 2.68342 1.90237 2.29289 2.29289C1.90237 2.68342 1.90237 3.31658 2.29289 3.70711L7.86574 9.27995C8.32017 10.3341 9.16595 11.1798 10.22 11.6343L11.5958 13.01C7.74671 13.2015 4.61509 16.1127 4.08047 19.8618C3.90291 21.107 4.94048 22 5.99999 22H18C18.6626 22 19.3166 21.6507 19.6702 21.0844L20.2929 21.7071C20.6834 22.0976 21.3166 22.0976 21.7071 21.7071C22.0976 21.3166 22.0976 20.6834 21.7071 20.2929L21.2489 19.8347C21.1938 19.7982 21.1414 19.7557 21.0929 19.7071L4.09288 2.70711C4.04432 2.65854 4.0018 2.60623 3.96531 2.5511Z" fill="#212529"/>
<path d="M15.0359 10.8217C15.9357 9.99888 16.5 8.81535 16.5 7.5C16.5 5.01472 14.4853 3 12 3C10.6847 3 9.50112 3.56434 8.67831 4.46411L15.0359 10.8217Z" fill="#212529"/>
</svg>
