<svg width="24" height="24" viewBox="0 0 24 24" fill="none" xmlns="http://www.w3.org/2000/svg">
<path fill-rule="evenodd" clip-rule="evenodd" d="M7.49947 7C7.49947 4.51472 9.51419 2.5 11.9995 2.5C14.4848 2.5 16.4995 4.51472 16.4995 7C16.4995 9.48528 14.4848 11.5 11.9995 11.5C9.51419 11.5 7.49947 9.48528 7.49947 7ZM11.9995 4.5C10.6188 4.5 9.49947 5.61929 9.49947 7C9.49947 8.38071 10.6188 9.5 11.9995 9.5C13.3802 9.5 14.4995 8.38071 14.4995 7C14.4995 5.61929 13.3802 4.5 11.9995 4.5Z" fill="#212529"/>
<path fill-rule="evenodd" clip-rule="evenodd" d="M11.9995 12.5C7.96718 12.5 4.63317 15.4823 4.07995 19.3618C3.90239 20.607 4.93996 21.5 5.99947 21.5H17.9995C19.059 21.5 20.0966 20.607 19.919 19.3618C19.3658 15.4823 16.0318 12.5 11.9995 12.5ZM11.9995 14.5C14.972 14.5 17.4412 16.6626 17.9167 19.5H6.08227C6.55775 16.6626 9.02689 14.5 11.9995 14.5Z" fill="#212529"/>
</svg>
