<svg width="24" height="24" viewBox="0 0 24 24" fill="none" xmlns="http://www.w3.org/2000/svg">
<path d="M9.00003 3C6.51475 3 4.50003 5.01472 4.50003 7.5C4.50003 9.98528 6.51475 12 9.00003 12C11.4853 12 13.5 9.98528 13.5 7.5C13.5 5.01472 11.4853 3 9.00003 3Z" fill="#212529"/>
<path d="M22.7072 9.70701C23.0977 9.31649 23.0977 8.68332 22.7072 8.2928C22.3166 7.90228 21.6835 7.90228 21.293 8.2928L20 9.58576L18.7071 8.29289C18.3166 7.90237 17.6834 7.90237 17.2929 8.29289C16.9024 8.68342 16.9024 9.31658 17.2929 9.70711L18.5858 11L17.293 12.2928C16.9024 12.6833 16.9024 13.3165 17.293 13.707C17.6835 14.0975 18.3166 14.0975 18.7072 13.707L20 12.4142L21.2929 13.7071C21.6834 14.0976 22.3166 14.0976 22.7071 13.7071C23.0977 13.3166 23.0977 12.6834 22.7071 12.2929L21.4142 11L22.7072 9.70701Z" fill="#212529"/>
<path d="M9.00002 13C4.96773 13 1.63372 15.9823 1.0805 19.8618C0.902936 21.107 1.94051 22 3.00002 22H15C16.0595 22 17.0971 21.107 16.9195 19.8618C16.3663 15.9823 13.0323 13 9.00002 13Z" fill="#212529"/>
</svg>
