<svg width="24" height="24" viewBox="0 0 24 24" fill="none" xmlns="http://www.w3.org/2000/svg">
<path d="M9.00003 3C6.51475 3 4.50003 5.01472 4.50003 7.5C4.50003 9.98528 6.51475 12 9.00003 12C11.4853 12 13.5 9.98528 13.5 7.5C13.5 5.01472 11.4853 3 9.00003 3Z" fill="#212529"/>
<path d="M20 7C20.5523 7 21 6.55228 21 6C21 5.44772 20.5523 5 20 5C19.4477 5 19 5.44772 19 6C19 6.55228 19.4477 7 20 7Z" fill="#212529"/>
<path d="M21 10C21 9.44772 20.5523 9 20 9C19.4477 9 19 9.44772 19 10V14C19 14.5523 19.4477 15 20 15C20.5523 15 21 14.5523 21 14V10Z" fill="#212529"/>
<path d="M9.00002 13C4.96773 13 1.63372 15.9823 1.0805 19.8618C0.902936 21.107 1.94051 22 3.00002 22H15C16.0595 22 17.0971 21.107 16.9195 19.8618C16.3663 15.9823 13.0323 13 9.00002 13Z" fill="#212529"/>
</svg>
