<svg width="24" height="24" viewBox="0 0 24 24" fill="none" xmlns="http://www.w3.org/2000/svg">
<path fill-rule="evenodd" clip-rule="evenodd" d="M8 10C8 7.79086 9.79086 6 12 6C14.2091 6 16 7.79086 16 10C16 12.2091 14.2091 14 12 14C9.79086 14 8 12.2091 8 10ZM12 8C10.8954 8 10 8.89543 10 10C10 11.1046 10.8954 12 12 12C13.1046 12 14 11.1046 14 10C14 8.89543 13.1046 8 12 8Z" fill="#212529"/>
<path fill-rule="evenodd" clip-rule="evenodd" d="M2 6C2 3.79086 3.79086 2 6 2H18C20.2091 2 22 3.79086 22 6V18C22 20.2091 20.2091 22 18 22H6C3.79086 22 2 20.2091 2 18L2 6ZM6 4C4.89543 4 4 4.89543 4 6V18C4 18.6399 4.30053 19.2096 4.76815 19.5757C6.05098 16.8712 8.80595 15 12 15C15.194 15 17.949 16.8712 19.2319 19.5757C19.6995 19.2096 20 18.6399 20 18V6C20 4.89543 19.1046 4 18 4H6ZM17.1976 20C16.1599 18.2061 14.2199 17 12 17C9.78008 17 7.84012 18.2061 6.80237 20H17.1976Z" fill="#212529"/>
</svg>
