<svg width="24" height="24" viewBox="0 0 24 24" fill="none" xmlns="http://www.w3.org/2000/svg">
<path fill-rule="evenodd" clip-rule="evenodd" d="M4.50002 7.5C4.50002 5.01472 6.51474 3 9.00002 3C11.4853 3 13.5 5.01472 13.5 7.5C13.5 9.98528 11.4853 12 9.00002 12C6.51474 12 4.50002 9.98528 4.50002 7.5ZM9.00002 5C7.61931 5 6.50002 6.11929 6.50002 7.5C6.50002 8.88071 7.61931 10 9.00002 10C10.3807 10 11.5 8.88071 11.5 7.5C11.5 6.11929 10.3807 5 9.00002 5Z" fill="#212529"/>
<path d="M20 7C20.5523 7 21 6.55228 21 6C21 5.44772 20.5523 5 20 5C19.4477 5 19 5.44772 19 6C19 6.55228 19.4477 7 20 7Z" fill="#212529"/>
<path d="M21 10C21 9.44772 20.5523 9 20 9C19.4477 9 19 9.44771 19 10V14C19 14.5523 19.4477 15 20 15C20.5523 15 21 14.5523 21 14V10Z" fill="#212529"/>
<path fill-rule="evenodd" clip-rule="evenodd" d="M9.00002 13C4.96773 13 1.63372 15.9823 1.0805 19.8618C0.902936 21.107 1.94051 22 3.00002 22H15C16.0595 22 17.0971 21.107 16.9195 19.8618C16.3663 15.9823 13.0323 13 9.00002 13ZM9.00002 15C11.9726 15 14.4417 17.1626 14.9172 20H3.08282C3.5583 17.1626 6.02744 15 9.00002 15Z" fill="#212529"/>
</svg>
