<svg width="24" height="24" viewBox="0 0 24 24" fill="none" xmlns="http://www.w3.org/2000/svg">
<path fill-rule="evenodd" clip-rule="evenodd" d="M5.02601 5C5.09905 5.94175 5.36227 7.53419 6.24284 9.42058L7.90333 7.70137L7.22798 5H5.02601ZM7.25443 11.2521L9.3419 9.0908C9.82135 8.59438 10.011 7.88584 9.84361 7.2163L9.16827 4.51493C8.94568 3.62459 8.14572 3 7.22798 3L4.46844 3C3.71118 3 2.99106 3.59261 3.00052 4.46386C3.01794 6.06853 3.50849 10.9064 8.3009 15.699C13.0934 20.4916 17.9315 20.9821 19.5362 20.9995C20.4074 21.0089 21 20.2888 21 19.5316V16.7725C21 15.8542 20.3747 15.0539 19.4837 14.8318L16.7819 14.1584C16.1007 13.9886 15.3804 14.1884 14.884 14.6848L12.7938 16.775C11.7982 16.141 10.758 15.3277 9.71514 14.2848C8.68835 13.2579 7.8841 12.2337 7.25443 11.2521ZM14.6208 17.7764C16.4891 18.6416 18.0651 18.9015 19 18.974V16.7725L16.2982 16.099L14.6208 17.7764ZM17 3C17.5523 3 18 3.44772 18 4V6H20C20.5523 6 21 6.44772 21 7C21 7.55228 20.5523 8 20 8H18V10C18 10.5523 17.5523 11 17 11C16.4477 11 16 10.5523 16 10V8H14C13.4477 8 13 7.55228 13 7C13 6.44771 13.4477 6 14 6L16 6V4C16 3.44772 16.4477 3 17 3Z" fill="#212529"/>
</svg>
