<svg width="24" height="24" viewBox="0 0 24 24" fill="none" xmlns="http://www.w3.org/2000/svg">
<path fill-rule="evenodd" clip-rule="evenodd" d="M9.35114 9.09119L7.26319 11.2529C7.89371 12.2346 8.69853 13.2589 9.72542 14.2857C10.7689 15.3292 11.8093 16.1429 12.8047 16.7771L14.8961 14.6858C15.3926 14.1894 16.1131 13.9898 16.7943 14.1601L19.486 14.833C20.3758 15.0554 21 15.8549 21 16.772L21 19.533C21 20.2896 20.4079 21.0094 19.537 20.9999C17.9338 20.9824 13.1041 20.4911 8.31201 15.699C3.5204 10.9075 3.02083 6.07098 3.00013 4.46596C2.98889 3.59406 3.70922 3 4.46723 3L7.22948 3C8.14462 3 8.94289 3.62146 9.16729 4.50863L9.85122 7.21253C10.0208 7.88309 9.83168 8.59368 9.35114 9.09119ZM12.0077 3.93838C12.076 3.39034 12.5757 3.00146 13.1237 3.0698C17.1966 3.57769 20.4225 6.80358 20.9304 10.8765C20.9987 11.4245 20.6099 11.9242 20.0618 11.9925C19.5138 12.0609 19.0141 11.672 18.9458 11.124C18.5512 7.95943 16.0408 5.44904 12.8762 5.05443C12.3282 4.98609 11.9393 4.48642 12.0077 3.93838ZM12.0316 7.87696C12.1692 7.34211 12.7144 7.02012 13.2493 7.15778C15.0077 7.61037 16.3898 8.9925 16.8424 10.7509C16.9801 11.2858 16.6581 11.831 16.1232 11.9686C15.5884 12.1063 15.0432 11.7843 14.9055 11.2495C14.6346 10.1967 13.8035 9.36562 12.7507 9.09466C12.2159 8.95699 11.8939 8.41181 12.0316 7.87696Z" fill="#212529"/>
</svg>
