<svg width="24" height="24" viewBox="0 0 24 24" fill="none" xmlns="http://www.w3.org/2000/svg">
<path fill-rule="evenodd" clip-rule="evenodd" d="M6.25092 9.42384C5.36691 7.53579 5.1005 5.94168 5.02554 4.99873H7.22948L7.91341 7.70264L6.25092 9.42384ZM9.35114 9.09119L7.26319 11.2529C7.89371 12.2346 8.69853 13.2589 9.72542 14.2857C10.7689 15.3292 11.8093 16.1429 12.8047 16.7771L14.8961 14.6858C15.3926 14.1894 16.1131 13.9898 16.7943 14.1601L19.486 14.833C20.3758 15.0554 21 15.8549 21 16.772L21 19.533C21 20.2896 20.4079 21.0094 19.537 20.9999C17.9338 20.9824 13.1041 20.4911 8.31201 15.699C3.5204 10.9075 3.02083 6.07098 3.00013 4.46596C2.98889 3.59406 3.70922 3 4.46723 3L7.22948 3C8.14462 3 8.94289 3.62146 9.16729 4.50863L9.85122 7.21253C10.0208 7.88309 9.83168 8.59368 9.35114 9.09119ZM19.0012 18.9756C18.0681 18.903 16.4955 18.643 14.6301 17.7784L16.3095 16.0992L19.0012 16.772L19.0012 18.9756ZM20.7071 4.70711C21.0976 4.31658 21.0976 3.68342 20.7071 3.29289C20.3166 2.90237 19.6834 2.90237 19.2929 3.29289L15 7.58579V6C15 5.44772 14.5523 5 14 5C13.4477 5 13 5.44772 13 6V10C13 10.5523 13.4477 11 14 11H18C18.5523 11 19 10.5523 19 10C19 9.44772 18.5523 9 18 9H16.4142L20.7071 4.70711Z" fill="#212529"/>
</svg>
