<svg width="24" height="24" viewBox="0 0 24 24" fill="none" xmlns="http://www.w3.org/2000/svg">
<g clip-path="url(#clip0_849_6268)">
<path d="M23.71 16.67C20.66 13.78 16.54 12 12 12C7.46 12 3.34 13.78 0.29 16.67C0.11 16.85 0 17.1 0 17.38C0 17.66 0.11 17.91 0.29 18.09L2.77 20.57C2.95 20.75 3.2 20.86 3.48 20.86C3.75 20.86 4 20.75 4.18 20.58C4.97 19.84 5.87 19.22 6.84 18.73C7.17 18.57 7.4 18.23 7.4 17.83V14.73C8.85 14.25 10.4 14 12 14C13.6 14 15.15 14.25 16.6 14.72V17.82C16.6 18.21 16.83 18.56 17.16 18.72C18.14 19.21 19.03 19.84 19.83 20.57C20.01 20.75 20.26 20.85 20.53 20.85C20.81 20.85 21.06 20.74 21.24 20.56L23.72 18.08C23.9 17.9 24.01 17.65 24.01 17.37C24.01 17.09 23.89 16.85 23.71 16.67ZM5.4 17.23C4.74 17.6 4.11 18.03 3.53 18.5L2.46 17.43C3.37 16.68 4.36 16.04 5.41 15.53V17.23H5.4ZM20.48 18.49C19.88 18.01 19.26 17.59 18.6 17.22V15.52C19.65 16.03 20.63 16.67 21.55 17.42L20.48 18.49ZM7 6.43L11.2329 10.6629C11.6234 11.0534 12.2566 11.0534 12.6471 10.6629L18.3054 5.00461C18.6949 4.61506 18.6957 3.98343 18.3075 3.59251C17.9174 3.19963 17.2819 3.19811 16.8904 3.58961L12.6471 7.83289C12.2566 8.22342 11.6234 8.22342 11.2329 7.83289L8.4 5H10C10.5523 5 11 4.55228 11 4C11 3.44772 10.5523 3 10 3H6C5.44772 3 5 3.44772 5 4V8C5 8.55228 5.44772 9 6 9C6.55228 9 7 8.55228 7 8V6.43Z" fill="#212529"/>
</g>
<defs>
<clipPath id="clip0_849_6268">
<rect width="24" height="24" fill="white"/>
</clipPath>
</defs>
</svg>
