<svg width="24" height="24" viewBox="0 0 24 24" fill="none" xmlns="http://www.w3.org/2000/svg">
<path fill-rule="evenodd" clip-rule="evenodd" d="M5.02554 4.99873C5.1005 5.94168 5.36691 7.53579 6.25092 9.42384L7.91341 7.70264L7.22948 4.99873H5.02554ZM7.26319 11.2529L9.35114 9.09119C9.83168 8.59368 10.0208 7.88309 9.85122 7.21253L9.16729 4.50863C8.94289 3.62146 8.14462 3 7.22948 3L4.46723 3C3.70922 3 2.98889 3.59406 3.00013 4.46596C3.02083 6.07098 3.5204 10.9075 8.31201 15.699C13.1041 20.4911 17.9338 20.9824 19.537 20.9999C20.4079 21.0094 21 20.2896 21 19.533L21 16.772C21 15.8549 20.3758 15.0554 19.486 14.833L16.7943 14.1601C16.1131 13.9898 15.3926 14.1894 14.8961 14.6858L12.8047 16.7771C11.8093 16.1429 10.7689 15.3292 9.72542 14.2857C8.69853 13.2589 7.89371 12.2346 7.26319 11.2529ZM14.6301 17.7784C16.4955 18.643 18.0681 18.903 19.0012 18.9756L19.0012 16.772L16.3095 16.0992L14.6301 17.7784ZM12.0077 3.93838C12.076 3.39034 12.5757 3.00146 13.1237 3.0698C17.1966 3.57769 20.4225 6.80358 20.9304 10.8765C20.9987 11.4245 20.6099 11.9242 20.0618 11.9925C19.5138 12.0609 19.0141 11.672 18.9458 11.124C18.5512 7.95943 16.0408 5.44904 12.8762 5.05443C12.3282 4.98609 11.9393 4.48642 12.0077 3.93838ZM13.2493 7.15778C12.7144 7.02012 12.1692 7.34211 12.0316 7.87696C11.8939 8.41181 12.2159 8.95699 12.7507 9.09466C13.8035 9.36562 14.6346 10.1967 14.9055 11.2495C15.0432 11.7843 15.5884 12.1063 16.1232 11.9686C16.6581 11.831 16.9801 11.2858 16.8424 10.7509C16.3898 8.9925 15.0077 7.61037 13.2493 7.15778Z" fill="#212529"/>
</svg>
