<svg width="24" height="24" viewBox="0 0 24 24" fill="none" xmlns="http://www.w3.org/2000/svg">
<path fill-rule="evenodd" clip-rule="evenodd" d="M3.70711 2.29289C3.31658 1.90237 2.68342 1.90237 2.29289 2.29289C1.90237 2.68342 1.90237 3.31658 2.29289 3.70711L13.5556 14.9698C12.7549 15.694 11.9618 16.2888 11.1953 16.7771L9.1039 14.6858C8.60743 14.1894 7.88688 13.9898 7.20572 14.1601L4.51405 14.833C3.62423 15.0554 3 15.8549 3 16.772L3 19.533C3 20.2896 3.59213 21.0094 4.46299 20.9999C5.98621 20.9833 10.4218 20.5389 14.9706 16.3848L20.2929 21.7071C20.6834 22.0976 21.3166 22.0976 21.7071 21.7071C22.0976 21.3166 22.0976 20.6834 21.7071 20.2929C15.6505 14.2362 9.90563 8.49141 3.70711 2.29289ZM17.733 13.3293C20.632 9.39398 20.9826 5.80514 20.9999 4.46596C21.0111 3.59406 20.2908 3 19.5328 3H16.7705C15.8554 3 15.0571 3.62146 14.8327 4.50863L14.1488 7.21253C13.9792 7.88309 14.1683 8.59368 14.6489 9.09119L16.7368 11.2529C16.6 11.4659 16.455 11.6809 16.3013 11.8975L17.733 13.3293ZM18.9745 4.99873C18.8995 5.94168 18.6331 7.53579 17.7491 9.42384L16.0866 7.70264L16.7705 4.99873H18.9745ZM9.36988 17.7784C7.50455 18.643 5.9319 18.903 4.99883 18.9756L4.99884 16.772L7.69051 16.0992L9.36988 17.7784Z" fill="#212529"/>
</svg>
