<svg width="24" height="24" viewBox="0 0 24 24" fill="none" xmlns="http://www.w3.org/2000/svg">
<path fill-rule="evenodd" clip-rule="evenodd" d="M9.3419 9.0908L7.25443 11.2521C7.8841 12.2337 8.68835 13.2579 9.71514 14.2848C10.758 15.3277 11.7982 16.141 12.7938 16.775L14.884 14.6848C15.3804 14.1884 16.1007 13.9886 16.7819 14.1584L19.4837 14.8318C20.3747 15.0539 21 15.8542 21 16.7725V19.5316C21 20.2888 20.4074 21.0089 19.5362 20.9995C17.9315 20.9821 13.0934 20.4916 8.3009 15.699C3.50849 10.9064 3.01794 6.06853 3.00052 4.46386C2.99106 3.59261 3.71118 3 4.46844 3L7.22798 3C8.14572 3 8.94568 3.62459 9.16827 4.51493L9.84361 7.2163C10.011 7.88584 9.82135 8.59438 9.3419 9.0908ZM14.2929 3.2929C14.6834 2.90237 15.3166 2.90237 15.7071 3.29289L17.5001 5.08586L19.2929 3.29305C19.6834 2.90252 20.3166 2.90252 20.7071 3.29305C21.0976 3.68358 21.0976 4.31674 20.7071 4.70727L18.9143 6.50008L20.7071 8.29289C21.0976 8.68342 21.0976 9.31658 20.7071 9.70711C20.3166 10.0976 19.6834 10.0976 19.2929 9.70712L17.5001 7.91429L15.7071 9.7073C15.3166 10.0978 14.6834 10.0978 14.2929 9.7073C13.9024 9.31678 13.9024 8.68361 14.2929 8.29308L16.0859 6.50008L14.2929 4.70712C13.9024 4.31659 13.9024 3.68342 14.2929 3.2929Z" fill="#212529"/>
</svg>
