<svg width="24" height="24" viewBox="0 0 24 24" fill="none" xmlns="http://www.w3.org/2000/svg">
<path fill-rule="evenodd" clip-rule="evenodd" d="M3.70711 2.29289C3.31658 1.90237 2.68342 1.90237 2.29289 2.29289C1.90237 2.68342 1.90237 3.31658 2.29289 3.70711L14.0212 15.4354C13.4024 15.954 12.7908 16.3977 12.1953 16.7771L10.1039 14.6858C9.60743 14.1894 8.88688 13.9898 8.20572 14.1601L5.51405 14.833C4.62423 15.0554 4 15.8549 4 16.772L4 19.533C4 20.2896 4.59213 21.0094 5.46299 20.9999C6.92685 20.9839 11.0806 20.5729 15.4396 16.8538L20.2929 21.7071C20.6834 22.0976 21.3166 22.0976 21.7071 21.7071C22.0976 21.3166 22.0976 20.6834 21.7071 20.2929C15.6821 14.2679 9.89332 8.47911 3.70711 2.29289ZM18.2996 13.8959C21.5977 9.74225 21.9818 5.86916 21.9999 4.46596C22.0111 3.59406 21.2908 3 20.5328 3H17.7705C16.8554 3 16.0571 3.62146 15.8327 4.50863L15.1488 7.21253C14.9792 7.88309 15.1683 8.59368 15.6489 9.09119L17.7368 11.2529C17.4798 11.6531 17.1938 12.0603 16.8756 12.4719L18.2996 13.8959Z" fill="#212529"/>
</svg>
