<svg width="24" height="24" viewBox="0 0 24 24" fill="none" xmlns="http://www.w3.org/2000/svg">
<path fill-rule="evenodd" clip-rule="evenodd" d="M15.8888 12.9159V10.2024C14.7608 9.97661 13.4293 9.81714 11.9922 9.81715C10.5319 9.81716 9.23461 9.9629 8.09434 10.1951L8.09426 12.8839C8.09425 13.5222 7.72971 14.1137 7.13394 14.4422L4.7797 15.7399C4.00143 16.169 3.00525 16.0563 2.3635 15.4667L0.431602 13.6918C-0.0978264 13.2054 -0.187152 12.3621 0.428866 11.8083C1.56294 10.789 5.2861 8.00006 11.9923 8C18.6978 7.99994 22.4316 10.788 23.5691 11.8065C24.1871 12.3597 24.0987 13.2047 23.5683 13.692L21.6355 15.4677C20.9952 16.056 20.0018 16.1697 19.224 15.7436L16.8535 14.4451C16.2656 14.123 15.9007 13.5446 15.8888 12.9159Z" fill="#212529"/>
</svg>
