<svg width="24" height="24" viewBox="0 0 24 24" fill="none" xmlns="http://www.w3.org/2000/svg">
<path fill-rule="evenodd" clip-rule="evenodd" d="M7.26319 11.2529L9.35114 9.09119C9.83168 8.59368 10.0208 7.88309 9.85122 7.21253L9.16729 4.50863C8.94289 3.62146 8.14462 3 7.22948 3H4.46723C3.70922 3 2.98889 3.59406 3.00013 4.46596C3.02083 6.07098 3.5204 10.9075 8.31201 15.699C13.1041 20.4911 17.9338 20.9824 19.537 20.9999C20.4079 21.0094 21 20.2896 21 19.533L21 16.772C21 15.8549 20.3758 15.0554 19.486 14.833L16.7943 14.1601C16.1131 13.9898 15.3926 14.1894 14.8961 14.6858L12.8047 16.7771C11.8093 16.1429 10.7689 15.3292 9.72542 14.2857C8.69853 13.2589 7.89371 12.2346 7.26319 11.2529Z" fill="#212529"/>
</svg>
