<svg width="24" height="24" viewBox="0 0 24 24" fill="none" xmlns="http://www.w3.org/2000/svg">
<path fill-rule="evenodd" clip-rule="evenodd" d="M17.8326 10.7105C19.7703 11.3573 21.0697 12.212 21.78 12.7702L20.2389 14.1847L17.8743 12.8822L17.8326 10.7105ZM15.8968 12.9142V10.1923C14.7688 9.96588 13.4363 9.81565 11.9987 9.81528C10.539 9.81491 9.24193 9.96034 8.10157 10.1923L8.10233 12.8776C8.10252 13.515 7.7384 14.1058 7.14305 14.4341L4.781 15.7366C4.00267 16.1657 3.00593 16.0534 2.36389 15.4641L0.431629 13.6907C-0.0978737 13.2047 -0.187076 12.3622 0.428756 11.8091C1.56341 10.79 5.29153 7.99829 11.9993 8C18.7072 8.00171 22.4365 10.7952 23.5713 11.8144C24.187 12.3675 24.0979 13.21 23.5684 13.6961L21.6374 15.4683C20.9956 16.0573 19.9993 16.1698 19.2211 15.7412L16.8565 14.4386C16.2715 14.1164 15.9088 13.5403 15.8968 12.9142ZM2.22006 12.7649C2.92494 12.2111 4.21008 11.3656 6.12387 10.7216L6.12449 12.8781L3.76244 14.1805L2.22006 12.7649Z" fill="#212529"/>
</svg>
