<svg width="24" height="24" viewBox="0 0 24 24" fill="none" xmlns="http://www.w3.org/2000/svg">
<path fill-rule="evenodd" clip-rule="evenodd" d="M13.2929 9.2929C12.9024 9.68342 12.9024 10.3166 13.2929 10.7071C13.6834 11.0976 14.3166 11.0976 14.7071 10.7071L19 6.41422V8C19 8.55229 19.4477 9 20 9C20.5523 9 21 8.55229 21 8V4C21 3.44772 20.5523 3 20 3H16C15.4477 3 15 3.44772 15 4C15 4.55229 15.4477 5 16 5L17.5858 5L13.2929 9.2929ZM6.25092 9.42385C5.36691 7.53579 5.1005 5.94168 5.02554 4.99874H7.22948L7.91341 7.70264L6.25092 9.42385ZM9.35114 9.09119L7.26319 11.2529C7.89371 12.2346 8.69853 13.2589 9.72542 14.2858C10.7689 15.3292 11.8093 16.1429 12.8047 16.7771L14.8961 14.6858C15.3926 14.1894 16.1131 13.9898 16.7943 14.1601L19.486 14.833C20.3758 15.0554 21 15.8549 21 16.772L21 19.533C21 20.2896 20.4079 21.0094 19.537 20.9999C17.9338 20.9824 13.1041 20.4911 8.31201 15.699C3.5204 10.9075 3.02083 6.07099 3.00013 4.46597C2.98889 3.59407 3.70922 3.00001 4.46723 3.00001L7.22948 3.00001C8.14462 3.00001 8.94289 3.62147 9.16729 4.50863L9.85122 7.21254C10.0208 7.8831 9.83168 8.59368 9.35114 9.09119ZM19.0012 18.9756C18.0681 18.903 16.4955 18.643 14.6301 17.7784L16.3095 16.0992L19.0012 16.772L19.0012 18.9756Z" fill="#212529"/>
</svg>
