<svg width="24" height="24" viewBox="0 0 24 24" fill="none" xmlns="http://www.w3.org/2000/svg">
<path fill-rule="evenodd" clip-rule="evenodd" d="M6.55279 4.65836C7.06096 3.64201 8.09975 3 9.23607 3H14.7639C15.9002 3 16.939 3.64201 17.4472 4.65836L17.618 5L19 5C20.6569 5 22 6.34314 22 8V17C22 18.6569 20.6569 20 19 20H5C3.34315 20 2 18.6569 2 17V8C2 6.34314 3.34315 5 5 5H6.38197L6.55279 4.65836ZM12 16C14.2091 16 16 14.2091 16 12C16 9.79086 14.2091 8 12 8C9.79086 8 8 9.79086 8 12C8 14.2091 9.79086 16 12 16Z" fill="#212529"/>
</svg>
