<svg width="24" height="24" viewBox="0 0 24 24" fill="none" xmlns="http://www.w3.org/2000/svg">
<g clip-path="url(#clip0_5200_56526)">
<path fill-rule="evenodd" clip-rule="evenodd" d="M16 4.17071V2.77778C16 1.13618 17.4571 0 19 0C20.5429 0 22 1.13618 22 2.77778V4.17071C23.1652 4.58254 24 5.69378 24 7V9C24 10.6569 22.6569 12 21 12H17C15.3431 12 14 10.6569 14 9V7C14 5.69378 14.8348 4.58254 16 4.17071ZM18 2.77778C18 2.4557 18.3337 2 19 2C19.6663 2 20 2.4557 20 2.77778V4H18V2.77778ZM17 6C16.4477 6 16 6.44772 16 7V9C16 9.55228 16.4477 10 17 10H21C21.5523 10 22 9.55228 22 9V7C22 6.44772 21.5523 6 21 6H17Z" fill="#212529"/>
<path d="M8.05944 8.54854C8.22967 8.21209 8.57467 8 8.95173 8H11C11.5523 8 12 7.55228 12 7C12 6.44772 11.5523 6 11 6H8.95173C7.82055 6 6.78554 6.63628 6.27486 7.64563L6.16302 7.86666H5C3.34314 7.86666 2 9.20981 2 10.8667V19C2 20.6569 3.34315 22 5 22H18C19.6569 22 21 20.6569 21 19V15C21 14.4477 20.5523 14 20 14C19.4477 14 19 14.4477 19 15V19C19 19.5523 18.5523 20 18 20H5C4.44772 20 4 19.5523 4 19V10.8667C4 10.3144 4.44772 9.86666 5 9.86666H6.16302C6.91714 9.86666 7.60715 9.44248 7.94761 8.76958L8.05944 8.54854Z" fill="#212529"/>
<path fill-rule="evenodd" clip-rule="evenodd" d="M11.5 10C9.01472 10 7 12.0147 7 14.5C7 16.9853 9.01472 19 11.5 19C13.9853 19 16 16.9853 16 14.5C16 12.0147 13.9853 10 11.5 10ZM9 14.5C9 13.1193 10.1193 12 11.5 12C12.8807 12 14 13.1193 14 14.5C14 15.8807 12.8807 17 11.5 17C10.1193 17 9 15.8807 9 14.5Z" fill="#212529"/>
</g>
<defs>
<clipPath id="clip0_5200_56526">
<rect width="24" height="24" fill="white"/>
</clipPath>
</defs>
</svg>
