<svg width="24" height="24" viewBox="0 0 24 24" fill="none" xmlns="http://www.w3.org/2000/svg">
<path d="M9.23607 5C8.8573 5 8.51103 5.214 8.34164 5.55279L8.17082 5.89443C7.83204 6.57199 7.13951 7 6.38197 7H5C4.44772 7 4 7.44771 4 8V17C4 17.5523 4.44772 18 5 18H19C19.5523 18 20 17.5523 20 17V10C20 9.44772 20.4477 9 21 9C21.5523 9 22 9.44772 22 10V17C22 18.6569 20.6569 20 19 20H5C3.34315 20 2 18.6569 2 17V8C2 6.34314 3.34315 5 5 5H6.38197L6.55279 4.65836C7.06096 3.64201 8.09975 3 9.23607 3H16C16.5523 3 17 3.44772 17 4C17 4.55228 16.5523 5 16 5H9.23607Z" fill="#212529"/>
<path fill-rule="evenodd" clip-rule="evenodd" d="M7 12C7 9.23858 9.23858 7 12 7C14.7614 7 17 9.23858 17 12C17 14.7614 14.7614 17 12 17C9.23858 17 7 14.7614 7 12ZM12 9C10.3431 9 9 10.3431 9 12C9 13.6569 10.3431 15 12 15C13.6569 15 15 13.6569 15 12C15 10.3431 13.6569 9 12 9Z" fill="#212529"/>
<path d="M23 7C23.5523 7 24 6.55228 24 6C24 5.44772 23.5523 5 23 5L19 5C18.4477 5 18 5.44772 18 6C18 6.55228 18.4477 7 19 7H23Z" fill="#212529"/>
</svg>
