<svg width="24" height="24" viewBox="0 0 24 24" fill="none" xmlns="http://www.w3.org/2000/svg">
<g clip-path="url(#clip0_5200_56533)">
<path fill-rule="evenodd" clip-rule="evenodd" d="M16 2.77778V4.17071C15.1428 4.47368 14.4644 5.15516 14.1657 6.01432C14.1599 6.03107 14.1542 6.04789 14.1486 6.06478C14.0522 6.35908 14 6.67345 14 7V9C14 10.6569 15.3431 12 17 12H21C21.7684 12 22.4692 11.7111 23 11.2361C23.6138 10.6868 24 9.8885 24 9V7C24 5.69378 23.1652 4.58254 22 4.17071V2.77778C22 1.13618 20.5429 0 19 0C17.4571 0 16 1.13618 16 2.77778ZM18 2.77778C18 2.4557 18.3337 2 19 2C19.6663 2 20 2.4557 20 2.77778V4H18V2.77778Z" fill="#212529"/>
<path d="M21 19V14H17C16.2347 14 15.5096 13.8281 14.8612 13.5207C14.9515 13.8315 15 14.1601 15 14.5C15 16.433 13.433 18 11.5 18C9.567 18 8 16.433 8 14.5C8 12.567 9.567 11 11.5 11C11.8399 11 12.1685 11.0485 12.4793 11.1388C12.1719 10.4904 12 9.76527 12 9V7C12 6.65742 12.0344 6.32301 12.1 6H9.11803C8.05406 6 7.0814 6.60114 6.60557 7.55279C6.46853 7.82687 6.1884 8 5.88197 8H5C3.34315 8 2 9.34315 2 11V19C2 20.6569 3.34315 22 5 22H18C19.6569 22 21 20.6569 21 19Z" fill="#212529"/>
</g>
<defs>
<clipPath id="clip0_5200_56533">
<rect width="24" height="24" fill="white"/>
</clipPath>
</defs>
</svg>
