<svg width="24" height="24" viewBox="0 0 24 24" fill="none" xmlns="http://www.w3.org/2000/svg">
<g clip-path="url(#clip0_5200_56535)">
<path fill-rule="evenodd" clip-rule="evenodd" d="M21.5001 6.91425L22.2929 7.70712C22.6834 8.09764 23.3166 8.09764 23.7071 7.70712C24.0976 7.3166 24.0976 6.68343 23.7071 6.29291L22.9142 5.5L23.7071 4.70711C24.0976 4.31658 24.0976 3.68342 23.7071 3.29289C23.3166 2.90237 22.6834 2.90237 22.2929 3.29289L21.5 4.08578L20.7071 3.2929C20.3166 2.90237 19.6834 2.90237 19.2929 3.29289C18.9024 3.68341 18.9024 4.31658 19.2929 4.70711L20.0858 5.49999L19.2929 6.29289C19.0247 6.56104 18.9407 6.94358 19.0408 7.28342C19.0865 7.43857 19.1705 7.58479 19.2929 7.7072C19.4153 7.82962 19.5616 7.91366 19.7167 7.95933C20.0566 8.05942 20.439 7.97525 20.7071 7.70711L21.5001 6.91425ZM17 3.99989C17 4.51864 17.1337 5.03739 17.4011 5.50002C16.7379 6.64732 16.8971 8.13985 17.8787 9.12142C18.8603 10.103 20.3528 10.2622 21.5001 9.59898C21.6607 9.69183 21.8282 9.76856 22 9.82917V17C22 18.6569 20.6569 20 19 20H5C3.34315 20 2 18.6569 2 17V8C2 6.34314 3.34315 5 5 5H6.38197L6.55279 4.65836C7.06096 3.64201 8.09975 3 9.23607 3H14.7639C15.6298 3 16.439 3.37277 17 3.99989ZM16 12C16 14.2091 14.2091 16 12 16C9.79086 16 8 14.2091 8 12C8 9.79086 9.79086 8 12 8C14.2091 8 16 9.79086 16 12Z" fill="#212529"/>
</g>
<defs>
<clipPath id="clip0_5200_56535">
<rect width="24" height="24" fill="white"/>
</clipPath>
</defs>
</svg>
