<svg width="24" height="24" viewBox="0 0 24 24" fill="none" xmlns="http://www.w3.org/2000/svg">
<path d="M8.34164 5.55279C8.51103 5.214 8.8573 5 9.23607 5H16C16.5523 5 17 4.55228 17 4C17 3.44772 16.5523 3 16 3H9.23607C8.09975 3 7.06096 3.64201 6.55279 4.65836L6.38197 5H5C3.34315 5 2 6.34314 2 8V17C2 18.6569 3.34315 20 5 20H19C20.6569 20 22 18.6569 22 17V12C22 11.4477 21.5523 11 21 11C20.4477 11 20 11.4477 20 12V17C20 17.5523 19.5523 18 19 18H5C4.44772 18 4 17.5523 4 17V8C4 7.44771 4.44772 7 5 7H6.38197C7.13951 7 7.83204 6.57199 8.17082 5.89443L8.34164 5.55279Z" fill="#212529"/>
<path fill-rule="evenodd" clip-rule="evenodd" d="M12 7C9.23858 7 7 9.23858 7 12C7 14.7614 9.23858 17 12 17C14.7614 17 17 14.7614 17 12C17 9.23858 14.7614 7 12 7ZM9 12C9 10.3431 10.3431 9 12 9C13.6569 9 15 10.3431 15 12C15 13.6569 13.6569 15 12 15C10.3431 15 9 13.6569 9 12Z" fill="#212529"/>
<path d="M21 3C21.5523 3 22 3.44772 22 4V5H23C23.5523 5 24 5.44772 24 6C24 6.55228 23.5523 7 23 7H22V8C22 8.55228 21.5523 9 21 9C20.4477 9 20 8.55228 20 8V7H19C18.4477 7 18 6.55228 18 6C18 5.44772 18.4477 5 19 5H20V4C20 3.44772 20.4477 3 21 3Z" fill="#212529"/>
</svg>
