<svg width="24" height="24" viewBox="0 0 24 24" fill="none" xmlns="http://www.w3.org/2000/svg">
<path fill-rule="evenodd" clip-rule="evenodd" d="M3.87833 2.46411L3.70711 2.29289C3.31658 1.90237 2.68342 1.90237 2.29289 2.29289C1.90237 2.68342 1.90237 3.31658 2.29289 3.70711L3.82474 5.23895C2.752 5.69615 2 6.76026 2 8V17C2 18.6569 3.34315 20 5 20H18.5858L20.2929 21.7071C20.6834 22.0976 21.3166 22.0976 21.7071 21.7071C22.0976 21.3166 22.0976 20.6834 21.7071 20.2929L20.8082 19.394C20.81 19.3927 20.8118 19.3913 20.8136 19.3899L19.3531 17.9359L19.3509 17.9367L18.6594 17.2452L4.05885 2.70866C3.98466 2.63479 3.92448 2.55217 3.87833 2.46411ZM5 7H5.58578L7.8284 9.24261C7.30488 10.033 7 10.9809 7 12C7 14.7614 9.23858 17 12 17C13.0191 17 13.967 16.6951 14.7574 16.1716L16.5858 18H5C4.44772 18 4 17.5523 4 17V8C4 7.44771 4.44772 7 5 7ZM9 12C9 11.5369 9.10495 11.0982 9.29237 10.7066L13.2934 14.7076C12.9018 14.895 12.4631 15 12 15C10.3431 15 9 13.6569 9 12Z" fill="#212529"/>
<path d="M20 15.7577L21.9241 17.6734C21.9738 17.4569 22 17.2315 22 17V8C22 6.34314 20.6569 5 19 5L17.618 5L17.4472 4.65836C16.939 3.64201 15.9002 3 14.7639 3H9.23607C8.66221 3 8.11322 3.16374 7.64489 3.45674L9.19576 5.00081C9.20915 5.00027 9.22259 5 9.23607 5H14.7639C15.1427 5 15.489 5.214 15.6584 5.55279L15.8292 5.89443C16.168 6.57199 16.8605 7 17.618 7H19C19.5523 7 20 7.44771 20 8V15.7577Z" fill="#212529"/>
<path d="M11.2586 7.05459C11.5005 7.01863 11.7481 7 12 7C14.7614 7 17 9.23858 17 12C17 12.2444 16.9825 12.4847 16.9486 12.7197L14.34 10.1225C14.2003 9.94863 14.0416 9.79064 13.8671 9.6517L11.2586 7.05459Z" fill="#212529"/>
</svg>
