<svg width="24" height="24" viewBox="0 0 24 24" fill="none" xmlns="http://www.w3.org/2000/svg">
<path d="M3.70711 2.29289L3.87833 2.46411C3.92448 2.55217 3.98466 2.63479 4.05885 2.70866L9.94408 8.56808C8.77938 9.26731 8 10.5426 8 12C8 14.2091 9.79086 16 12 16C13.4636 16 14.7437 15.2139 15.4409 14.0408L20.8136 19.3899L20.8082 19.394L21.7071 20.2929C22.0976 20.6834 22.0976 21.3166 21.7071 21.7071C21.3166 22.0976 20.6834 22.0976 20.2929 21.7071L18.5858 20H5C3.34315 20 2 18.6569 2 17V8C2 6.76026 2.752 5.69615 3.82474 5.23895L2.29289 3.70711C1.90237 3.31658 1.90237 2.68342 2.29289 2.29289C2.68342 1.90237 3.31658 1.90237 3.70711 2.29289Z" fill="#212529"/>
<path d="M15.9934 11.7687L21.9241 17.6734C21.9738 17.4569 22 17.2315 22 17V8C22 6.34314 20.6569 5 19 5L17.618 5L17.4472 4.65836C16.939 3.64201 15.9002 3 14.7639 3H9.23607C8.66221 3 8.11322 3.16374 7.64489 3.45674L12.2138 8.00562C14.2469 8.11269 15.8776 9.7379 15.9934 11.7687Z" fill="#212529"/>
</svg>
