<svg width="24" height="24" viewBox="0 0 24 24" fill="none" xmlns="http://www.w3.org/2000/svg">
<g clip-path="url(#clip0_5200_56528)">
<path d="M8.34164 5.55279C8.51103 5.214 8.8573 5 9.23607 5H16C16.5523 5 17 4.55228 17 4C17 3.44772 16.5523 3 16 3H9.23607C8.09975 3 7.06096 3.64201 6.55279 4.65836L6.38197 5H5C3.34315 5 2 6.34314 2 8V17C2 18.6569 3.34315 20 5 20H19C20.6569 20 22 18.6569 22 17V11C22 10.4477 21.5523 10 21 10C20.4477 10 20 10.4477 20 11V17C20 17.5523 19.5523 18 19 18H5C4.44772 18 4 17.5523 4 17V8C4 7.44771 4.44772 7 5 7H6.38197C7.13951 7 7.83204 6.57199 8.17082 5.89443L8.34164 5.55279Z" fill="#212529"/>
<path fill-rule="evenodd" clip-rule="evenodd" d="M12 7C9.23858 7 7 9.23858 7 12C7 14.7614 9.23858 17 12 17C14.7614 17 17 14.7614 17 12C17 9.23858 14.7614 7 12 7ZM9 12C9 10.3431 10.3431 9 12 9C13.6569 9 15 10.3431 15 12C15 13.6569 13.6569 15 12 15C10.3431 15 9 13.6569 9 12Z" fill="#212529"/>
<path d="M19.2929 3.29289C19.6834 2.90237 20.3166 2.90237 20.7071 3.29289L21.5 4.08578L22.2929 3.29289C22.6834 2.90237 23.3166 2.90237 23.7071 3.29289C24.0976 3.68342 24.0976 4.31658 23.7071 4.70711L22.9142 5.5L23.7071 6.29291C24.0976 6.68343 24.0976 7.3166 23.7071 7.70712C23.3166 8.09764 22.6834 8.09764 22.2929 7.70712L21.5 6.91421L20.7071 7.70711C20.3166 8.09763 19.6834 8.09763 19.2929 7.70711C18.9024 7.31658 18.9024 6.68342 19.2929 6.29289L20.0858 5.49999L19.2929 4.7071C18.9024 4.31658 18.9024 3.68341 19.2929 3.29289Z" fill="#212529"/>
</g>
<defs>
<clipPath id="clip0_5200_56528">
<rect width="24" height="24" fill="white"/>
</clipPath>
</defs>
</svg>
