<svg width="24" height="24" viewBox="0 0 24 24" fill="none" xmlns="http://www.w3.org/2000/svg">
<path fill-rule="evenodd" clip-rule="evenodd" d="M21 11C21.3506 11 21.6872 10.9398 22 10.8293V17C22 18.6569 20.6569 20 19 20H5C3.34315 20 2 18.6569 2 17V8C2 6.34314 3.34315 5 5 5H6.38197L6.55279 4.65836C7.06096 3.64201 8.09975 3 9.23607 3H14.7639C15.5708 3 16.3285 3.32373 16.882 3.87534C16.3372 4.4185 16 5.16987 16 6C16 7.35377 16.8967 8.4981 18.1285 8.87146C18.5019 10.1033 19.6462 11 21 11ZM12 16C14.2091 16 16 14.2091 16 12C16 9.79086 14.2091 8 12 8C9.79086 8 8 9.79086 8 12C8 14.2091 9.79086 16 12 16Z" fill="#212529"/>
<path d="M21 3C21.5523 3 22 3.44772 22 4V5H23C23.5523 5 24 5.44772 24 6C24 6.55228 23.5523 7 23 7H22V8C22 8.55228 21.5523 9 21 9C20.4477 9 20 8.55228 20 8V7H19C18.4477 7 18 6.55228 18 6C18 5.44772 18.4477 5 19 5H20V4C20 3.44772 20.4477 3 21 3Z" fill="#212529"/>
</svg>
