<svg width="24" height="24" viewBox="0 0 24 24" fill="none" xmlns="http://www.w3.org/2000/svg">
<path d="M9.70711 10.7071L9.41421 11L14.5858 11L14.2929 10.7071C13.9024 10.3166 13.9024 9.68342 14.2929 9.29289C14.6834 8.90237 15.3166 8.90237 15.7071 9.29289L17.7071 11.2929C18.0976 11.6834 18.0976 12.3166 17.7071 12.7071L15.7071 14.7071C15.3166 15.0976 14.6834 15.0976 14.2929 14.7071C13.9024 14.3166 13.9024 13.6834 14.2929 13.2929L14.5858 13H9.41421L9.70711 13.2929C10.0976 13.6834 10.0976 14.3166 9.70711 14.7071C9.31658 15.0976 8.68342 15.0976 8.29289 14.7071L6.29289 12.7071C5.90237 12.3166 5.90237 11.6834 6.29289 11.2929L8.29289 9.29289C8.68342 8.90237 9.31658 8.90237 9.70711 9.29289C10.0976 9.68342 10.0976 10.3166 9.70711 10.7071Z" fill="#212529"/>
<path fill-rule="evenodd" clip-rule="evenodd" d="M9.23607 3C8.09975 3 7.06096 3.64201 6.55279 4.65836L6.38197 5H5C3.34315 5 2 6.34314 2 8V17C2 18.6569 3.34315 20 5 20H19C20.6569 20 22 18.6569 22 17V8C22 6.34314 20.6569 5 19 5L17.618 5L17.4472 4.65836C16.939 3.64201 15.9002 3 14.7639 3H9.23607ZM8.34164 5.55279C8.51103 5.214 8.8573 5 9.23607 5H14.7639C15.1427 5 15.489 5.214 15.6584 5.55279L15.8292 5.89443C16.168 6.57199 16.8605 7 17.618 7H19C19.5523 7 20 7.44771 20 8V17C20 17.5523 19.5523 18 19 18H5C4.44772 18 4 17.5523 4 17V8C4 7.44771 4.44772 7 5 7H6.38197C7.13951 7 7.83204 6.57199 8.17082 5.89443L8.34164 5.55279Z" fill="#212529"/>
</svg>
