<?xml version="1.0" encoding="UTF-8"?>
<svg xmlns="http://www.w3.org/2000/svg" width="24" height="24" viewBox="0 0 24 24" fill="none"><path d="M20 1C20 0.447715 19.5523 0 19 0C18.4477 0 18 0.447715 18 1L18 15C18 15.5523 18.4477 16 19 16C19.5523 16 20 15.5523 20 15L20 1ZM2 10C0.89543 10 0 9.10457 0 8C0 6.89543 0.895431 6 2 6C3.10457 6 4 6.89543 4 8C4 9.10457 3.10457 10 2 10ZM6 8C6 9.10457 6.89543 10 8 10C9.10457 10 10 9.10457 10 8C10 6.89543 9.10457 6 8 6C6.89543 6 6 6.89543 6 8ZM12 8C12 9.10457 12.8954 10 14 10C15.1046 10 16 9.10457 16 8C16 6.89543 15.1046 6 14 6C12.8954 6 12 6.89543 12 8Z" transform="translate(2 4)" fill="#212529" fill-rule="evenodd" opacity="1" /></svg>
