<svg width="24" height="24" viewBox="0 0 24 24" fill="none" xmlns="http://www.w3.org/2000/svg">
<path fill-rule="evenodd" clip-rule="evenodd" d="M12.7987 1.70145C13.2014 1.29874 13.8544 1.29874 14.2571 1.70145L22.521 9.96539C22.9237 10.3681 22.9237 11.021 22.521 11.4237C22.1183 11.8264 21.4654 11.8264 21.0627 11.4237L20.3335 10.6946L16.1286 14.8995C15.1762 15.8519 14.923 17.3225 15.4724 18.4724L15.7154 18.7155C16.1181 19.1182 16.1181 19.7711 15.7154 20.1738C15.3127 20.5765 14.6598 20.5765 14.2571 20.1738L9.93071 15.8474L4.34039 21.4377C3.93768 21.8405 3.28476 21.8405 2.88205 21.4377C2.47934 21.035 2.47934 20.3821 2.88205 19.9794L8.47237 14.3891L4.04868 9.96539C3.64597 9.56268 3.64597 8.90976 4.04868 8.50705C4.45139 8.10434 5.10431 8.10434 5.50702 8.50705L5.75008 8.75011C6.9 9.29943 8.37055 9.04632 9.32301 8.09386L13.5279 3.88896L12.7987 3.15979C12.396 2.75708 12.396 2.10416 12.7987 1.70145ZM13.2312 16.2312C13.4023 15.2095 13.8819 14.2294 14.6703 13.4411L18.8752 9.23622L14.9863 5.34731L10.7813 9.55221C9.99302 10.3405 9.01294 10.8202 7.99124 10.9913L13.2312 16.2312Z" fill="#212529"/>
</svg>
