<svg width="24" height="24" viewBox="0 0 24 24" fill="none" xmlns="http://www.w3.org/2000/svg">
<path d="M9 9C8.44772 9 8 9.44772 8 10C8 10.5523 8.44772 11 9 11H15C15.5523 11 16 10.5523 16 10C16 9.44771 15.5523 9 15 9L9 9Z" fill="#212529"/>
<path fill-rule="evenodd" clip-rule="evenodd" d="M12 2C7.58172 2 4 5.58172 4 10C4 12.5629 5.31612 15.0717 6.73471 17.0559C8.17227 19.0666 9.82288 20.6862 10.7042 21.4949C11.441 22.171 12.559 22.171 13.2958 21.4949C14.1771 20.6862 15.8277 19.0666 17.2653 17.0559C18.6839 15.0717 20 12.5629 20 10C20 5.58172 16.4183 2 12 2ZM6 10C6 6.68629 8.68629 4 12 4C15.3137 4 18 6.68629 18 10C18 11.9287 16.9819 14.0134 15.6383 15.8927C14.3432 17.7042 12.8425 19.1916 12 19.9693C11.1575 19.1916 9.65684 17.7042 8.36166 15.8927C7.01807 14.0134 6 11.9287 6 10Z" fill="#212529"/>
</svg>
