<svg width="24" height="25" viewBox="0 0 24 25" fill="none" xmlns="http://www.w3.org/2000/svg">
<path fill-rule="evenodd" clip-rule="evenodd" d="M12 2C7.58172 2 4 5.58172 4 10C4 12.5629 5.31612 15.0717 6.73471 17.0559C8.17227 19.0666 9.82288 20.6862 10.7042 21.4949C11.441 22.171 12.559 22.171 13.2958 21.4949C14.1771 20.6862 15.8277 19.0666 17.2653 17.0559C18.6839 15.0717 20 12.5629 20 10C20 5.58172 16.4183 2 12 2ZM12 12C13.1046 12 14 11.1046 14 10C14 8.89543 13.1046 8 12 8C10.8954 8 10 8.89543 10 10C10 11.1046 10.8954 12 12 12Z" fill="#212529"/>
</svg>
