<svg width="24" height="24" viewBox="0 0 24 24" fill="none" xmlns="http://www.w3.org/2000/svg">
<path fill-rule="evenodd" clip-rule="evenodd" d="M4.96531 3.5511L3.70711 2.29289C3.31658 1.90237 2.68342 1.90237 2.29289 2.29289C1.90237 2.68342 1.90237 3.31658 2.29289 3.70711L4.89854 6.31276C4.32446 7.41616 4 8.67019 4 10C4 12.5629 5.31612 15.0717 6.73471 17.0559C8.17227 19.0666 9.82288 20.6862 10.7042 21.4949C11.441 22.171 12.559 22.171 13.2958 21.4949C14.0372 20.8146 15.3229 19.5605 16.5683 17.9825L20.2929 21.7071C20.6834 22.0976 21.3166 22.0976 21.7071 21.7071C22.0491 21.3651 22.0916 20.8371 21.8347 20.4489L5.09288 3.70711C5.04432 3.65854 5.0018 3.60623 4.96531 3.5511ZM6 10C6 9.23165 6.14442 8.49704 6.40761 7.82182L15.1435 16.5577C13.9774 18.0659 12.7369 19.2891 12 19.9693C11.1575 19.1916 9.65684 17.7042 8.36166 15.8927C7.01807 14.0134 6 11.9287 6 10Z" fill="#212529"/>
<path d="M18.7833 14.5691C19.4996 13.1401 20 11.5803 20 10C20 5.58172 16.4183 2 12 2C10.3569 2 8.82954 2.49534 7.55903 3.34483L9.01071 4.79651C9.89081 4.28982 10.9116 4 12 4C15.3137 4 18 6.68629 18 10C18 10.9968 17.7281 12.0353 17.2798 13.0656L18.7833 14.5691Z" fill="#212529"/>
</svg>
