<svg width="24" height="24" viewBox="0 0 24 24" fill="none" xmlns="http://www.w3.org/2000/svg">
<path fill-rule="evenodd" clip-rule="evenodd" d="M4 10C4 5.58172 7.58172 2 12 2C16.4183 2 20 5.58172 20 10C20 12.5629 18.6839 15.0717 17.2653 17.0559C15.8277 19.0666 14.1771 20.6862 13.2958 21.4949C12.559 22.171 11.441 22.171 10.7042 21.4949C9.82288 20.6862 8.17227 19.0666 6.73471 17.0559C5.31612 15.0717 4 12.5629 4 10ZM13 8C13 8.55228 12.5523 9 12 9C11.4477 9 11 8.55228 11 8C11 7.44772 11.4477 7 12 7C12.5523 7 13 7.44772 13 8ZM12 11C12.5523 11 13 11.4477 13 12V15C13 15.5523 12.5523 16 12 16C11.4477 16 11 15.5523 11 15V12C11 11.4477 11.4477 11 12 11Z" fill="#212529"/>
</svg>
