<svg width="24" height="24" viewBox="0 0 24 24" fill="none" xmlns="http://www.w3.org/2000/svg">
<path d="M3.96531 2.5511L3.70711 2.29289C3.31658 1.90237 2.68342 1.90237 2.29289 2.29289C1.90237 2.68342 1.90237 3.31658 2.29289 3.70711L4.89854 6.31276C4.32446 7.41616 4 8.67019 4 10C4 12.5629 5.31612 15.0717 6.73471 17.0559C8.17227 19.0666 9.82288 20.6862 10.7042 21.4949C11.441 22.171 12.559 22.171 13.2958 21.4949C14.0372 20.8146 15.3229 19.5605 16.5683 17.9825L20.2929 21.7071C20.6834 22.0976 21.3166 22.0976 21.7071 21.7071C22.0976 21.3166 22.0976 20.6834 21.7071 20.2929L21.2489 19.8347C21.1938 19.7982 21.1414 19.7557 21.0929 19.7071L4.09288 2.70711C4.04432 2.65854 4.0018 2.60623 3.96531 2.5511Z" fill="#212529"/>
<path d="M18.7833 14.5691C19.4996 13.1401 20 11.5803 20 10C20 5.58172 16.4183 2 12 2C10.3569 2 8.82954 2.49534 7.55903 3.34483L18.7833 14.5691Z" fill="#212529"/>
</svg>
