<svg width="24" height="24" viewBox="0 0 24 24" fill="none" xmlns="http://www.w3.org/2000/svg">
<path fill-rule="evenodd" clip-rule="evenodd" d="M4 10C4 5.58172 7.58172 2 12 2C16.4183 2 20 5.58172 20 10C20 12.5629 18.6839 15.0717 17.2653 17.0559C15.8277 19.0666 14.1771 20.6862 13.2958 21.4949C12.559 22.171 11.441 22.171 10.7042 21.4949C9.82288 20.6862 8.17227 19.0666 6.73471 17.0559C5.31612 15.0717 4 12.5629 4 10ZM9 9C8.44772 9 8 9.44772 8 10C8 10.5523 8.44772 11 9 11H15C15.5523 11 16 10.5523 16 10C16 9.44771 15.5523 9 15 9L9 9Z" fill="#212529"/>
</svg>
