<svg width="24" height="24" viewBox="0 0 24 24" fill="none" xmlns="http://www.w3.org/2000/svg">
<path d="M13 8C13 8.55228 12.5523 9 12 9C11.4477 9 11 8.55228 11 8C11 7.44772 11.4477 7 12 7C12.5523 7 13 7.44772 13 8Z" fill="#212529"/>
<path d="M12 11C12.5523 11 13 11.4477 13 12V15C13 15.5523 12.5523 16 12 16C11.4477 16 11 15.5523 11 15V12C11 11.4477 11.4477 11 12 11Z" fill="#212529"/>
<path fill-rule="evenodd" clip-rule="evenodd" d="M12 2C7.58172 2 4 5.58172 4 10C4 12.5629 5.31612 15.0717 6.73471 17.0559C8.17227 19.0666 9.82288 20.6862 10.7042 21.4949C11.441 22.171 12.559 22.171 13.2958 21.4949C14.1771 20.6862 15.8277 19.0666 17.2653 17.0559C18.6839 15.0717 20 12.5629 20 10C20 5.58172 16.4183 2 12 2ZM6 10C6 6.68629 8.68629 4 12 4C15.3137 4 18 6.68629 18 10C18 11.9287 16.9819 14.0134 15.6383 15.8927C14.3432 17.7042 12.8425 19.1916 12 19.9693C11.1575 19.1916 9.65684 17.7042 8.36166 15.8927C7.01807 14.0134 6 11.9287 6 10Z" fill="#212529"/>
</svg>
