<svg width="24" height="24" viewBox="0 0 24 24" fill="none" xmlns="http://www.w3.org/2000/svg">
<path d="M12 14C11.4477 14 11 13.5523 11 13V11H9C8.44772 11 8 10.5523 8 10C8 9.44772 8.44772 9 9 9H11V7C11 6.44772 11.4477 6 12 6C12.5523 6 13 6.44772 13 7V9H15C15.5523 9 16 9.44771 16 10C16 10.5523 15.5523 11 15 11H13V13C13 13.5523 12.5523 14 12 14Z" fill="#212529"/>
<path fill-rule="evenodd" clip-rule="evenodd" d="M4 10C4 5.58172 7.58172 2 12 2C16.4183 2 20 5.58172 20 10C20 12.5628 18.6839 15.0718 17.2653 17.056C15.8278 19.0668 14.1772 20.6864 13.2959 21.4952C12.559 22.1714 11.441 22.1714 10.7041 21.4952C9.82281 20.6864 8.17221 19.0668 6.73467 17.056C5.3161 15.0718 4 12.5628 4 10ZM12 4C8.68629 4 6 6.68629 6 10C6 11.9287 7.01807 14.0135 8.36165 15.8928C9.65682 17.7045 11.1575 19.192 12 19.9698C12.8425 19.192 14.3432 17.7045 15.6383 15.8928C16.9819 14.0135 18 11.9287 18 10C18 6.68629 15.3137 4 12 4Z" fill="#212529"/>
</svg>
