<svg width="24" height="24" viewBox="0 0 24 24" fill="none" xmlns="http://www.w3.org/2000/svg">
<path d="M8.68581 13.7439C8.08666 13.2131 8.08666 12.2869 8.68581 11.7561C9.56808 10.9745 10.7286 10.5 12 10.5C13.2714 10.5 14.4319 10.9745 15.3142 11.7561C15.9133 12.2869 15.9133 13.2131 15.3142 13.7439C14.4319 14.5255 13.2714 15 12 15C10.7286 15 9.56808 14.5255 8.68581 13.7439Z" fill="#212529"/>
<path d="M12 10C13.1046 10 14 9.10457 14 8C14 6.89543 13.1046 6 12 6C10.8954 6 10 6.89543 10 8C10 9.10457 10.8954 10 12 10Z" fill="#212529"/>
<path fill-rule="evenodd" clip-rule="evenodd" d="M4 10C4 5.58172 7.58172 2 12 2C16.4183 2 20 5.58172 20 10C20 12.5629 18.6839 15.0717 17.2653 17.0559C15.8277 19.0666 14.1771 20.6862 13.2958 21.4949C12.559 22.171 11.441 22.171 10.7042 21.4949C9.82288 20.6862 8.17227 19.0666 6.73471 17.0559C5.31612 15.0717 4 12.5629 4 10ZM12 4C8.68629 4 6 6.68629 6 10C6 11.9287 7.01807 14.0134 8.36166 15.8927C9.65684 17.7042 11.1575 19.1916 12 19.9693C12.8425 19.1916 14.3432 17.7042 15.6383 15.8927C16.9819 14.0134 18 11.9287 18 10C18 6.68629 15.3137 4 12 4Z" fill="#212529"/>
</svg>
