<svg width="24" height="24" viewBox="0 0 24 24" fill="none" xmlns="http://www.w3.org/2000/svg">
<path fill-rule="evenodd" clip-rule="evenodd" d="M4 10C4 5.58172 7.58172 2 12 2C16.4183 2 20 5.58172 20 10C20 12.5629 18.6839 15.0717 17.2653 17.0559C15.8277 19.0666 14.1771 20.6862 13.2958 21.4949C12.559 22.171 11.441 22.171 10.7042 21.4949C9.82288 20.6862 8.17227 19.0666 6.73471 17.0559C5.31612 15.0717 4 12.5629 4 10ZM15.7071 9.70711C16.0976 9.31658 16.0976 8.68342 15.7071 8.29289C15.3166 7.90237 14.6834 7.90237 14.2929 8.29289L11 11.5858L9.70711 10.2929C9.31658 9.90237 8.68342 9.90237 8.29289 10.2929C7.90237 10.6834 7.90237 11.3166 8.29289 11.7071L10.2929 13.7071C10.6834 14.0976 11.3166 14.0976 11.7071 13.7071L15.7071 9.70711Z" fill="#212529"/>
</svg>
