<svg width="24" height="24" viewBox="0 0 24 24" fill="none" xmlns="http://www.w3.org/2000/svg">
<path d="M9.29289 7.29289C9.68342 6.90237 10.3166 6.90237 10.7071 7.29289L12 8.58579L13.2929 7.29289C13.6834 6.90237 14.3166 6.90237 14.7071 7.29289C15.0976 7.68342 15.0976 8.31658 14.7071 8.70711L13.4142 10L14.7071 11.2929C15.0976 11.6834 15.0976 12.3166 14.7071 12.7071C14.3166 13.0976 13.6834 13.0976 13.2929 12.7071L12 11.4142L10.7071 12.7071C10.3166 13.0976 9.68342 13.0976 9.29289 12.7071C8.90237 12.3166 8.90237 11.6834 9.29289 11.2929L10.5858 10L9.29289 8.70711C8.90237 8.31658 8.90237 7.68342 9.29289 7.29289Z" fill="#212529"/>
<path fill-rule="evenodd" clip-rule="evenodd" d="M4 10C4 5.58172 7.58172 2 12 2C16.4183 2 20 5.58172 20 10C20 12.5628 18.6839 15.0718 17.2653 17.056C15.8278 19.0668 14.1772 20.6864 13.2959 21.4952C12.559 22.1714 11.441 22.1714 10.7041 21.4952C9.82281 20.6864 8.17221 19.0668 6.73467 17.056C5.3161 15.0718 4 12.5628 4 10ZM12 4C8.68629 4 6 6.68629 6 10C6 11.9287 7.01807 14.0135 8.36165 15.8928C9.65682 17.7045 11.1575 19.192 12 19.9698C12.8425 19.192 14.3432 17.7045 15.6383 15.8928C16.9819 14.0135 18 11.9287 18 10C18 6.68629 15.3137 4 12 4Z" fill="#212529"/>
</svg>
