<svg width="24" height="24" viewBox="0 0 24 24" fill="none" xmlns="http://www.w3.org/2000/svg">
<path d="M13 5C13 4.44772 12.5523 4 12 4C11.4477 4 11 4.44772 11 5L11 19C11 19.5523 11.4477 20 12 20C12.5523 20 13 19.5523 13 19L13 5Z" fill="#212529"/>
<path d="M16 11C15.4477 11 15 11.4477 15 12C15 12.5523 15.4477 13 16 13H22C22.5523 13 23 12.5523 23 12C23 11.4477 22.5523 11 22 11H16Z" fill="#212529"/>
<path d="M1 12C1 11.4477 1.44772 11 2 11H4V9C4 8.44772 4.44772 8 5 8C5.55228 8 6 8.44772 6 9V11H8C8.55228 11 9 11.4477 9 12C9 12.5523 8.55228 13 8 13H6V15C6 15.5523 5.55228 16 5 16C4.44772 16 4 15.5523 4 15V13H2C1.44772 13 1 12.5523 1 12Z" fill="#212529"/>
</svg>
