<svg width="24" height="24" viewBox="0 0 24 24" fill="none" xmlns="http://www.w3.org/2000/svg">
<path fill-rule="evenodd" clip-rule="evenodd" d="M13 4C13 3.44772 12.5523 3 12 3C11.4477 3 11 3.44772 11 4V10C11 10.5523 11.4477 11 12 11C12.5523 11 13 10.5523 13 10V4ZM7.37008 6.74975C7.78415 6.38429 7.82355 5.75235 7.45809 5.33828C7.09262 4.92421 6.46069 4.88481 6.04662 5.25027C4.17983 6.89793 3 9.31181 3 12C3 16.9706 7.02944 21 12 21C16.9706 21 21 16.9706 21 12C21 9.31181 19.8202 6.89793 17.9534 5.25027C17.5393 4.88481 16.9074 4.92421 16.5419 5.33828C16.1764 5.75235 16.2158 6.38429 16.6299 6.74975C18.0848 8.03387 19 9.90944 19 12C19 15.866 15.866 19 12 19C8.13401 19 5 15.866 5 12C5 9.90944 5.91519 8.03387 7.37008 6.74975Z" fill="#212529"/>
</svg>
