<svg width="24" height="24" viewBox="0 0 24 24" fill="none" xmlns="http://www.w3.org/2000/svg">
<path fill-rule="evenodd" clip-rule="evenodd" d="M3.96536 2.55114L3.70711 2.29289C3.31658 1.90237 2.68342 1.90237 2.29289 2.29289C1.90237 2.68342 1.90237 3.31658 2.29289 3.70711L5.58579 7H4C2.89543 7 2 7.89543 2 9V16C2 17.1046 2.89543 18 4 18H6V20C6 21.1046 6.89543 22 8 22H16C17.1046 22 18 21.1046 18 20V19.4142L20.2929 21.7071C20.6834 22.0976 21.3166 22.0976 21.7071 21.7071C22.0976 21.3166 22.0976 20.6834 21.7071 20.2929L21.2489 19.8346C21.1937 19.7982 21.1414 19.7557 21.0929 19.7071L4.0929 2.70711C4.04435 2.65856 4.00183 2.60626 3.96536 2.55114ZM4 9H7.58579L11.5858 13H8C6.89543 13 6 13.8954 6 15V16H4V9ZM8 15H13.5858L16 17.4142V20H8V15Z" fill="#212529"/>
<path d="M21.5173 17.3031C21.8182 16.9531 22 16.4978 22 16V9C22 7.89543 21.1046 7 20 7H18V4C18 2.89543 17.1046 2 16 2H8C7.50224 2 7.04695 2.18184 6.69693 2.48272L8.21422 4H16V7H11.2142L13.2142 9H20V15.7858L21.5173 17.3031Z" fill="#212529"/>
<path d="M17 12C17.5523 12 18 11.5523 18 11C18 10.4477 17.5523 10 17 10C16.4477 10 16 10.4477 16 11C16 11.5523 16.4477 12 17 12Z" fill="#212529"/>
</svg>
