<svg width="24" height="24" viewBox="0 0 24 24" fill="none" xmlns="http://www.w3.org/2000/svg">
<path fill-rule="evenodd" clip-rule="evenodd" d="M8 2C6.89543 2 6 2.89543 6 4V7H4C2.89543 7 2 7.89543 2 9L2 16C2 17.1046 2.89543 18 4 18H6V20C6 21.1046 6.89543 22 8 22H16C17.1046 22 18 21.1046 18 20V18H20C21.1046 18 22 17.1046 22 16V9C22 7.89543 21.1046 7 20 7H18V4C18 2.89543 17.1046 2 16 2L8 2ZM16 7V4L8 4V7L16 7ZM16 15H8V20H16V15ZM17 12C17.5523 12 18 11.5523 18 11C18 10.4477 17.5523 10 17 10C16.4477 10 16 10.4477 16 11C16 11.5523 16.4477 12 17 12Z" fill="#212529"/>
</svg>
