<?xml version="1.0" encoding="UTF-8"?>
<svg xmlns="http://www.w3.org/2000/svg" width="24" height="24" viewBox="0 0 24 24" fill="none"><path d="M9.09233 3C7.75832 3 6.7493 3.68172 6.14794 4.6095L6.14722 4.61063C5.82879 5.10772 6.04982 5.79144 6.58812 6.03012L6.59179 6.03168C7.00461 6.2069 7.50141 6.07943 7.73927 5.67776C8.01207 5.23788 8.44351 4.88286 9.10442 4.88286C9.84348 4.88286 10.2745 5.23775 10.4631 5.68297C10.655 6.13616 10.5963 6.68696 10.339 7.06644C10.1151 7.39917 9.81642 7.68672 9.50561 7.98453C9.4675 8.02104 9.42921 8.05774 9.39121 8.0944C9.04415 8.42923 8.69426 8.78534 8.45394 9.23607C8.27735 9.56407 8.2025 9.91061 8.16557 10.2368C8.10011 10.8303 8.56633 11.3571 9.15884 11.3571C9.66698 11.3571 10.0628 10.9526 10.1217 10.4576C10.1566 10.1863 10.2075 10.0584 10.293 9.8984L10.2939 9.89657C10.4668 9.56642 10.7114 9.31792 11.0095 9.01812L11.0436 8.9838C11.356 8.66935 11.7171 8.30034 12.0854 7.7358C12.425 7.2127 12.5282 6.60348 12.4941 6.03645C12.4601 5.46977 12.2883 4.93712 12.0691 4.56271C11.5564 3.69195 10.5504 3 9.09233 3Z" transform="translate(3 3)" fill="#212529" fill-rule="nonzero" opacity="1" /><path d="M10.1217 13C10.1217 13.5523 9.67397 14 9.12168 14C8.5694 14 8.12168 13.5523 8.12168 13C8.12168 12.4477 8.5694 12 9.12168 12C9.67397 12 10.1217 12.4477 10.1217 13Z" transform="translate(3 3)" fill="#212529" fill-rule="nonzero" opacity="1" /><path d="M4 0L14 0C16.2091 0 18 1.79086 18 4L18 14C18 16.2091 16.2091 18 14 18L4 18C1.79086 18 0 16.2091 0 14L0 4C0 1.79086 1.79086 0 4 0ZM4 2C2.89543 2 2 2.89543 2 4L2 14C2 15.1046 2.89543 16 4 16L14 16C15.1046 16 16 15.1046 16 14L16 4C16 2.89543 15.1046 2 14 2L4 2Z" transform="translate(3 3)" fill="#212529" fill-rule="evenodd" opacity="1" /></svg>
