<svg width="24" height="24" viewBox="0 0 24 24" fill="none" xmlns="http://www.w3.org/2000/svg">
<path d="M3.93633 15.3511C5.26804 11.7999 8.43203 10 12 10C14.9524 10 17.4849 11.6009 18.8661 14H15C14.4477 14 14 14.4477 14 15C14 15.5523 14.4477 16 15 16H21C21.5523 16 22 15.5523 22 15V9C22 8.44772 21.5523 8 21 8C20.4477 8 20 8.44772 20 9V12.0804C18.1978 9.61126 15.3144 8 12 8C7.73059 8 3.73196 10.2001 2.06367 14.6489C1.86975 15.166 2.13175 15.7424 2.64887 15.9363C3.16599 16.1302 3.74241 15.8682 3.93633 15.3511Z" fill="#212529"/>
</svg>
