<?xml version="1.0" encoding="UTF-8"?>
<svg xmlns="http://www.w3.org/2000/svg" width="24" height="24" viewBox="0 0 24 24" fill="none"><path d="M3 1.5C3 2.32843 2.32843 3 1.5 3C0.671573 3 0 2.32843 0 1.5C0 0.671572 0.671573 0 1.5 0C2.32843 0 3 0.671572 3 1.5Z" transform="translate(4 16.5)" fill="#212529" fill-rule="evenodd" opacity="1" /><path d="M1 0C1 -0.552285 0.552285 -1 0 -1C-0.552285 -1 -1 -0.552285 -1 0L1 0ZM-1 10C-1 10.5523 -0.552285 11 0 11C0.552285 11 1 10.5523 1 10L-1 10ZM-1 0L-1 10L1 10L1 0L-1 0Z" transform="translate(15.6699 4.5)" fill="#212529" fill-rule="nonzero" opacity="1" /><path d="M1 0C1 -0.552285 0.552285 -1 0 -1C-0.552285 -1 -1 -0.552285 -1 0L1 0ZM-1 10C-1 10.5523 -0.552285 11 0 11C0.552285 11 1 10.5523 1 10L-1 10ZM-1 0L-1 10L1 10L1 0L-1 0Z" transform="translate(11.3398 7)" fill="#212529" fill-rule="nonzero" opacity="1" /><path d="M1 0C1 -0.552285 0.552285 -1 0 -1C-0.552285 -1 -1 -0.552285 -1 0L1 0ZM-1 10C-1 10.5523 -0.552285 11 0 11C0.552285 11 1 10.5523 1 10L-1 10ZM-1 0L-1 10L1 10L1 0L-1 0Z" transform="translate(11.3398 7)" fill="#212529" fill-rule="nonzero" opacity="1" /></svg>
