<?xml version="1.0" encoding="UTF-8"?>
<svg xmlns="http://www.w3.org/2000/svg" width="24" height="24" viewBox="0 0 24 24" fill="none"><path d="M24 4.5C24 2.01472 21.9853 0 19.5 0C17.5407 0 15.8738 1.25221 15.2561 3L8.74394 3C8.12619 1.25221 6.45933 0 4.5 0C2.01472 0 0 2.01472 0 4.5C0 6.98528 2.01472 9 4.5 9C6.81628 9 8.72381 7.24998 8.97254 5L15.0275 5C15.2762 7.24998 17.1837 9 19.5 9C21.9853 9 24 6.98528 24 4.5ZM19.5 2C20.8807 2 22 3.11929 22 4.5C22 5.88071 20.8807 7 19.5 7C18.1193 7 17 5.88071 17 4.5C17 3.11929 18.1193 2 19.5 2ZM4.5 2C5.88071 2 7 3.11929 7 4.5C7 5.88071 5.88071 7 4.5 7C3.11929 7 2 5.88071 2 4.5C2 3.11929 3.11929 2 4.5 2Z" transform="translate(0 8)" fill="#212529" fill-rule="evenodd" opacity="1" /></svg>
