<?xml version="1.0" encoding="UTF-8"?>
<svg xmlns="http://www.w3.org/2000/svg" width="24" height="24" viewBox="0 0 24 24" fill="none"><path d="M0 5C0 2.23858 2.23858 0 5 0C7.41896 0 9.43671 1.71776 9.89998 4L16.6022 4L15.3093 2.70711C14.9187 2.31658 14.9187 1.68342 15.3093 1.29289C15.6998 0.902369 16.333 0.902369 16.7235 1.29289L19.7235 4.29289C20.114 4.68342 20.114 5.31658 19.7235 5.70711L16.7235 8.70711C16.333 9.09763 15.6998 9.09763 15.3093 8.70711C14.9187 8.31658 14.9187 7.68342 15.3093 7.29289L16.6022 6L9.89998 6C9.43671 8.28224 7.41896 10 5 10C2.23858 10 0 7.76142 0 5ZM5 2C3.34315 2 2 3.34315 2 5C2 6.65685 3.34315 8 5 8C6.65685 8 8 6.65685 8 5C8 3.34315 6.65685 2 5 2Z" transform="translate(0 7)" fill="#212529" fill-rule="evenodd" opacity="1" /><path d="M21.1377 2.87868L18.3067 0.0476796C18.5333 0.0162468 18.7647 0 19 0C21.7614 0 24 2.23858 24 5C24 7.76142 21.7614 10 19 10C18.7647 10 18.5333 9.98375 18.3067 9.95232L21.1377 7.12132C22.3093 5.94975 22.3093 4.05025 21.1377 2.87868Z" transform="translate(0 7)" fill="#212529" fill-rule="nonzero" opacity="1" /></svg>
