<?xml version="1.0" encoding="UTF-8"?>
<svg xmlns="http://www.w3.org/2000/svg" width="24" height="24" viewBox="0 0 24 24" fill="none"><path d="M19 0C21.7614 0 24 2.23858 24 5C24 7.76142 21.7614 10 19 10C16.581 10 14.5633 8.28224 14.1 6L7.39784 6L8.69073 7.29289C9.08126 7.68342 9.08126 8.31658 8.69073 8.70711C8.30021 9.09763 7.66705 9.09763 7.27652 8.70711L4.27652 5.70711C3.886 5.31658 3.886 4.68342 4.27652 4.29289L7.27652 1.29289C7.66705 0.902369 8.30021 0.902369 8.69073 1.29289C9.08126 1.68342 9.08126 2.31658 8.69073 2.70711L7.39784 4L14.1 4C14.5633 1.71776 16.581 0 19 0ZM22 5C22 3.34315 20.6569 2 19 2C17.3431 2 16 3.34315 16 5C16 6.65685 17.3431 8 19 8C20.6569 8 22 6.65685 22 5Z" transform="translate(0 7)" fill="#212529" fill-rule="evenodd" opacity="1" /><path d="M5.69331 0.04768L2.86231 2.87868C1.69074 4.05025 1.69074 5.94975 2.86231 7.12132L5.69331 9.95232C5.46671 9.98375 5.23525 10 5 10C2.23858 10 0 7.76142 0 5C0 2.23858 2.23858 0 5 0C5.23525 0 5.46671 0.016247 5.69331 0.04768Z" transform="translate(0 7)" fill="#212529" fill-rule="nonzero" opacity="1" /></svg>
