<svg width="24" height="24" viewBox="0 0 24 24" fill="none" xmlns="http://www.w3.org/2000/svg">
<path d="M17 5C15.7101 5 14.5364 5.48711 13.649 6.28906C13.2392 6.65936 12.6068 6.62737 12.2366 6.21761C11.8663 5.80785 11.8983 5.1755 12.308 4.8052C13.5487 3.684 15.1956 3 17 3C18.7922 3 20.4291 3.67482 21.6669 4.78266C22.0784 5.15098 22.1135 5.78318 21.7451 6.19471C21.3768 6.60623 20.7446 6.64125 20.3331 6.27293C19.4478 5.4806 18.2812 5 17 5Z" fill="#212529"/>
<path d="M15.6669 8.50903C16.0214 8.19174 16.4871 8 17 8C17.5129 8 17.9786 8.19174 18.3331 8.50903C18.7446 8.87735 19.3768 8.84233 19.7451 8.43081C20.1135 8.01928 20.0784 7.38708 19.6669 7.01876C18.9599 6.38597 18.0238 6 17 6C15.9762 6 15.0401 6.38597 14.3331 7.01876C13.9216 7.38708 13.8865 8.01928 14.2549 8.43081C14.6232 8.84233 15.2554 8.87735 15.6669 8.50903Z" fill="#212529"/>
<path fill-rule="evenodd" clip-rule="evenodd" d="M17 9C17.5523 9 18 9.44772 18 10V14C20.2091 14 22 15.7909 22 18C22 20.2091 20.2091 22 18 22H6C3.79086 22 2 20.2091 2 18C2 15.7909 3.79086 14 6 14H16V10C16 9.44772 16.4477 9 17 9ZM9 19C9.55228 19 10 18.5523 10 18C10 17.4477 9.55228 17 9 17C8.44772 17 8 17.4477 8 18C8 18.5523 8.44772 19 9 19ZM13 18C13 18.5523 12.5523 19 12 19C11.4477 19 11 18.5523 11 18C11 17.4477 11.4477 17 12 17C12.5523 17 13 17.4477 13 18ZM6 19C6.55228 19 7 18.5523 7 18C7 17.4477 6.55228 17 6 17C5.44772 17 5 17.4477 5 18C5 18.5523 5.44772 19 6 19Z" fill="#212529"/>
</svg>
