<svg width="24" height="24" viewBox="0 0 24 24" fill="none" xmlns="http://www.w3.org/2000/svg">
<path fill-rule="evenodd" clip-rule="evenodd" d="M15 3C15 2.44772 15.4477 2 16 2C16.5523 2 17 2.44772 17 3V11H19C20.6569 11 22 12.3431 22 14V19C22 20.6569 20.6569 22 19 22H5C3.34315 22 2 20.6569 2 19V14C2 12.3431 3.34315 11 5 11H15V3ZM6 16C6.55228 16 7 15.5523 7 15C7 14.4477 6.55228 14 6 14C5.44772 14 5 14.4477 5 15C5 15.5523 5.44772 16 6 16ZM6 19C6.55228 19 7 18.5523 7 18C7 17.4477 6.55228 17 6 17C5.44772 17 5 17.4477 5 18C5 18.5523 5.44772 19 6 19ZM10 15C10 15.5523 9.55229 16 9 16C8.44771 16 8 15.5523 8 15C8 14.4477 8.44771 14 9 14C9.55229 14 10 14.4477 10 15ZM9 19C9.55229 19 10 18.5523 10 18C10 17.4477 9.55229 17 9 17C8.44771 17 8 17.4477 8 18C8 18.5523 8.44771 19 9 19ZM13 15C13 15.5523 12.5523 16 12 16C11.4477 16 11 15.5523 11 15C11 14.4477 11.4477 14 12 14C12.5523 14 13 14.4477 13 15ZM12 19C12.5523 19 13 18.5523 13 18C13 17.4477 12.5523 17 12 17C11.4477 17 11 17.4477 11 18C11 18.5523 11.4477 19 12 19ZM14 15C14 14.4477 14.4477 14 15 14H18C18.5523 14 19 14.4477 19 15C19 15.5523 18.5523 16 18 16H15C14.4477 16 14 15.5523 14 15Z" fill="#212529"/>
</svg>
