<svg width="24" height="24" viewBox="0 0 24 24" fill="none" xmlns="http://www.w3.org/2000/svg">
<path d="M13.649 6.28906C14.5364 5.48711 15.7101 5 17 5C18.2812 5 19.4478 5.4806 20.3331 6.27293C20.7446 6.64125 21.3768 6.60623 21.7451 6.19471C22.1135 5.78318 22.0784 5.15098 21.6669 4.78266C20.4291 3.67482 18.7922 3 17 3C15.1956 3 13.5487 3.684 12.308 4.8052C11.8983 5.1755 11.8663 5.80785 12.2366 6.21761C12.6068 6.62737 13.2392 6.65936 13.649 6.28906Z" fill="#212529"/>
<path d="M17 8C16.4871 8 16.0214 8.19174 15.6669 8.50903C15.2554 8.87735 14.6232 8.84233 14.2549 8.43081C13.8865 8.01928 13.9216 7.38708 14.3331 7.01876C15.0401 6.38597 15.9762 6 17 6C18.0238 6 18.9599 6.38597 19.6669 7.01876C20.0784 7.38708 20.1135 8.01928 19.7451 8.43081C19.3768 8.84233 18.7446 8.87735 18.3331 8.50903C17.9786 8.19174 17.5129 8 17 8Z" fill="#212529"/>
<path d="M10 18C10 18.5523 9.55228 19 9 19C8.44772 19 8 18.5523 8 18C8 17.4477 8.44772 17 9 17C9.55228 17 10 17.4477 10 18Z" fill="#212529"/>
<path d="M12 19C12.5523 19 13 18.5523 13 18C13 17.4477 12.5523 17 12 17C11.4477 17 11 17.4477 11 18C11 18.5523 11.4477 19 12 19Z" fill="#212529"/>
<path d="M6 19C6.55228 19 7 18.5523 7 18C7 17.4477 6.55228 17 6 17C5.44772 17 5 17.4477 5 18C5 18.5523 5.44772 19 6 19Z" fill="#212529"/>
<path fill-rule="evenodd" clip-rule="evenodd" d="M17 9C17.5523 9 18 9.44772 18 10V14H19C20.6569 14 22 15.3431 22 17V19C22 20.6569 20.6569 22 19 22H5C3.34315 22 2 20.6569 2 19V17C2 15.3431 3.34315 14 5 14H16V10C16 9.44772 16.4477 9 17 9ZM5 16C4.44772 16 4 16.4477 4 17V19C4 19.5523 4.44772 20 5 20H19C19.5523 20 20 19.5523 20 19V17C20 16.4477 19.5523 16 19 16H5Z" fill="#212529"/>
</svg>
