<svg width="24" height="24" viewBox="0 0 24 24" fill="none" xmlns="http://www.w3.org/2000/svg">
<path fill-rule="evenodd" clip-rule="evenodd" d="M4 11C4 7.13401 7.13401 4 11 4C14.866 4 18 7.13401 18 11C18 14.866 14.866 18 11 18C7.13401 18 4 14.866 4 11ZM11 2C6.02944 2 2 6.02944 2 11C2 15.9706 6.02944 20 11 20C13.125 20 15.078 19.2635 16.6177 18.0319L20.2929 21.7071C20.6834 22.0976 21.3166 22.0976 21.7071 21.7071C22.0976 21.3166 22.0976 20.6834 21.7071 20.2929L18.0319 16.6177C19.2635 15.078 20 13.125 20 11C20 6.02944 15.9706 2 11 2ZM12 8C12 7.44772 11.5523 7 11 7C10.4477 7 10 7.44772 10 8V9.99858L8.00035 9.99787C7.44807 9.99767 7.00019 10.4452 6.99999 10.9975C6.9998 11.5498 7.44735 11.9977 7.99964 11.9979L10 11.9986V14C10 14.5523 10.4477 15 11 15C11.5523 15 12 14.5523 12 14V11.9993L13.9996 12C14.5519 12.0002 14.9998 11.5527 15 11.0004C15.0002 10.4481 14.5526 10.0002 14.0004 10L12 9.9993V8Z" fill="#212529"/>
</svg>
