<svg width="24" height="24" viewBox="0 0 24 24" fill="none" xmlns="http://www.w3.org/2000/svg">
<path fill-rule="evenodd" clip-rule="evenodd" d="M11 4C7.13401 4 4 7.13401 4 11C4 14.866 7.13401 18 11 18C14.866 18 18 14.866 18 11C18 7.13401 14.866 4 11 4ZM2 11C2 6.02944 6.02944 2 11 2C15.9706 2 20 6.02944 20 11C20 13.125 19.2635 15.078 18.0319 16.6177L21.7071 20.2929C22.0976 20.6834 22.0976 21.3166 21.7071 21.7071C21.3166 22.0976 20.6834 22.0976 20.2929 21.7071L16.6177 18.0319C15.078 19.2635 13.125 20 11 20C6.02944 20 2 15.9706 2 11ZM15 11.0004C14.9998 11.5527 14.5519 12.0002 13.9996 12L7.99964 11.9979C7.44735 11.9977 6.9998 11.5498 6.99999 10.9975C7.00019 10.4452 7.44807 9.99767 8.00035 9.99787L14.0004 10C14.5526 10.0002 15.0002 10.4481 15 11.0004Z" fill="#212529"/>
</svg>
