<svg width="24" height="24" viewBox="0 0 24 24" fill="none" xmlns="http://www.w3.org/2000/svg">
<path fill-rule="evenodd" clip-rule="evenodd" d="M4 11C4 7.13401 7.13401 4 11 4C14.866 4 18 7.13401 18 11C18 14.866 14.866 18 11 18C7.13401 18 4 14.866 4 11ZM11 2C6.02944 2 2 6.02944 2 11C2 15.9706 6.02944 20 11 20C13.125 20 15.078 19.2635 16.6177 18.0319L20.2929 21.7071C20.6834 22.0976 21.3166 22.0976 21.7071 21.7071C22.0976 21.3166 22.0976 20.6834 21.7071 20.2929L18.0319 16.6177C19.2635 15.078 20 13.125 20 11C20 6.02944 15.9706 2 11 2ZM11.6263 11L11 9.53859L10.3737 11L11.6263 11ZM9.51654 13L8.91914 14.3939C8.70159 14.9015 8.11371 15.1367 7.60608 14.9191C7.09845 14.7016 6.8633 14.1137 7.08085 13.6061L10.0809 6.60608C10.2384 6.2384 10.6 6 11 6C11.4 6 11.7616 6.2384 11.9191 6.60608L14.9191 13.6061C15.1367 14.1137 14.9015 14.7016 14.3939 14.9191C13.8863 15.1367 13.2984 14.9015 13.0809 14.3939L12.4835 13L9.51654 13Z" fill="#212529"/>
</svg>
