<svg width="24" height="24" viewBox="0 0 24 24" fill="none" xmlns="http://www.w3.org/2000/svg">
<path fill-rule="evenodd" clip-rule="evenodd" d="M20.7205 5.60873C20.9743 4.23077 19.7692 3.02567 18.3913 3.27951L3.57705 6.00844C1.72787 6.34908 1.328 8.82164 2.97553 9.72778L10.2637 13.7363L14.2722 21.0245C15.1784 22.672 17.6509 22.2721 17.9916 20.423L20.7205 5.60873ZM3.93937 7.97535L18.7536 5.24641L16.0247 20.0606L12.0162 12.7724C11.8334 12.4401 11.5599 12.1666 11.2276 11.9839L3.93937 7.97535Z" fill="#212529"/>
<path d="M5.99997 14L8.99997 15L9.99997 18L6.47084 18.7058C5.77112 18.8458 5.1542 18.2289 5.29415 17.5291L5.99997 14Z" fill="#212529"/>
</svg>
