<svg width="24" height="24" viewBox="0 0 24 24" fill="none" xmlns="http://www.w3.org/2000/svg">
<path fill-rule="evenodd" clip-rule="evenodd" d="M3.98511 5.49764C3.98511 9.93197 3.98525 14.3719 3.98545 18.8084C3.98545 19.3997 4.29255 19.9017 4.66677 20.2743C5.04895 20.6548 5.57557 20.9806 6.21648 21.2474C7.50046 21.7819 9.39378 22.1421 11.9897 22.1421C14.5858 22.1421 16.4836 21.7818 17.7719 21.2481C18.4149 20.9817 18.9437 20.6565 19.3278 20.2769C19.7033 19.906 20.0152 19.4033 20.0152 18.8084C20.0152 18.4546 20.0057 15.1758 19.9963 11.9891C19.9898 9.82554 19.9976 7.65971 19.9976 5.49764C19.9976 4.13878 18.9364 3.42735 18.5356 3.19284C17.9951 2.87658 17.346 2.66038 16.7188 2.50516C15.4335 2.18706 13.763 2.01123 11.9913 2.01123C10.2197 2.01123 8.54919 2.18706 7.26383 2.50516C6.63663 2.66038 5.98759 2.87658 5.44708 3.19284C5.04628 3.42735 3.98511 4.13878 3.98511 5.49764ZM16.3715 6.51469C16.3388 6.52331 16.3056 6.53184 16.2721 6.54027C15.1826 6.8142 13.6671 6.98405 11.9913 6.98405C10.3155 6.98405 8.80002 6.8142 7.71054 6.54027C7.67702 6.53184 7.64389 6.52331 7.61118 6.51469C6.60276 6.24881 5.98511 5.89107 5.98511 5.49764C5.98511 5.10421 6.60276 4.74648 7.61118 4.48059C7.64389 4.47197 7.67702 4.46344 7.71054 4.45501C8.80002 4.18108 10.3155 4.01123 11.9913 4.01123C13.6671 4.01123 15.1826 4.18108 16.2721 4.45501C16.3056 4.46344 16.3388 4.47197 16.3715 4.48059C17.3799 4.74648 17.9976 5.10421 17.9976 5.49764C17.9976 5.89107 17.3799 6.24881 16.3715 6.51469ZM16.7188 8.49012C15.4335 8.80822 13.763 8.98405 11.9913 8.98405C10.2197 8.98405 8.54919 8.80822 7.26383 8.49012C6.8338 8.3837 6.39351 8.24861 5.98497 8.07226L5.98516 12.1199C6.02384 12.1951 6.21482 12.5093 7.03401 12.8505C7.97517 13.2426 9.54978 13.5723 11.9896 13.5723C14.4264 13.5723 16.0351 13.235 16.9949 12.8391C17.4759 12.6408 17.756 12.4434 17.8998 12.3011C17.9517 12.2497 17.9785 12.2136 17.9914 12.1935C17.9926 12.1743 17.9944 12.1553 17.9967 12.1364C17.9966 12.0893 17.9964 12.0421 17.9963 11.995L17.9846 8.07789C17.5798 8.25149 17.1443 8.38484 16.7188 8.49012ZM18.0039 14.5809C17.9238 14.6177 17.8416 14.6534 17.7575 14.6881C16.4753 15.2169 14.5841 15.5723 11.9896 15.5723C9.39796 15.5723 7.53548 15.2261 6.26489 14.6967C6.16983 14.6571 6.07654 14.6158 5.98527 14.5727L5.98544 18.7479C5.99897 18.769 6.02627 18.8056 6.07786 18.857C6.22282 19.0013 6.50387 19.2007 6.98508 19.401C7.94537 19.8007 9.55416 20.1421 11.9897 20.1421C14.425 20.1421 16.0399 19.8008 17.0064 19.4004C17.4909 19.1996 17.7751 18.9996 17.9221 18.8543C17.9736 18.8034 18.0012 18.767 18.0151 18.7457C18.0146 18.3365 18.0098 16.6311 18.0039 14.5809ZM18.0276 18.7235C18.0276 18.7235 18.0273 18.7245 18.0264 18.7264L18.0276 18.7235ZM5.97365 18.7266L5.97483 18.7294C5.97394 18.7276 5.97365 18.7266 5.97365 18.7266Z" fill="#212529"/>
</svg>
