<svg width="24" height="24" viewBox="0 0 24 24" fill="none" xmlns="http://www.w3.org/2000/svg">
<path fill-rule="evenodd" clip-rule="evenodd" d="M2 5C2 3.34315 3.34315 2 5 2L19 2C20.6569 2 22 3.34315 22 5V8C22 9.65685 20.6569 11 19 11L5 11C3.34315 11 2 9.65685 2 8L2 5ZM8 6.5C8 7.32843 7.32843 8 6.5 8C5.67157 8 5 7.32843 5 6.5C5 5.67157 5.67157 5 6.5 5C7.32843 5 8 5.67157 8 6.5ZM2 16C2 14.3431 3.34315 13 5 13L19 13C20.6569 13 22 14.3431 22 16V19C22 20.6569 20.6569 22 19 22H5C3.34315 22 2 20.6569 2 19V16ZM8 17.5C8 18.3284 7.32843 19 6.5 19C5.67157 19 5 18.3284 5 17.5C5 16.6716 5.67157 16 6.5 16C7.32843 16 8 16.6716 8 17.5Z" fill="#212529"/>
</svg>
