<svg width="24" height="24" viewBox="0 0 24 24" fill="none" xmlns="http://www.w3.org/2000/svg">
<path fill-rule="evenodd" clip-rule="evenodd" d="M5 2C3.34315 2 2 3.34315 2 5L2 8C2 9.65685 3.34315 11 5 11L19 11C20.6569 11 22 9.65685 22 8V5C22 3.34315 20.6569 2 19 2L5 2ZM4 5C4 4.44772 4.44772 4 5 4L19 4C19.5523 4 20 4.44772 20 5V8C20 8.55228 19.5523 9 19 9H5C4.44772 9 4 8.55228 4 8V5ZM5 13C3.34315 13 2 14.3431 2 16V19C2 20.6569 3.34315 22 5 22H19C20.6569 22 22 20.6569 22 19V16C22 14.3431 20.6569 13 19 13L5 13ZM4 16C4 15.4477 4.44772 15 5 15L19 15C19.5523 15 20 15.4477 20 16V19C20 19.5523 19.5523 20 19 20H5C4.44772 20 4 19.5523 4 19V16ZM8 6.5C8 7.32843 7.32843 8 6.5 8C5.67157 8 5 7.32843 5 6.5C5 5.67157 5.67157 5 6.5 5C7.32843 5 8 5.67157 8 6.5ZM6.5 19C7.32843 19 8 18.3284 8 17.5C8 16.6716 7.32843 16 6.5 16C5.67157 16 5 16.6716 5 17.5C5 18.3284 5.67157 19 6.5 19Z" fill="#212529"/>
</svg>
