<svg width="24" height="24" viewBox="0 0 24 24" fill="none" xmlns="http://www.w3.org/2000/svg">
<path fill-rule="evenodd" clip-rule="evenodd" d="M15.09 2.9005L15.2696 4.6965C15.7723 4.92188 16.2475 5.19762 16.6887 5.51732L18.3354 4.77418C18.8037 4.56285 19.3559 4.74073 19.6128 5.18566L21.7078 8.81432C21.9647 9.25925 21.8426 9.82643 21.4254 10.1263L19.9586 11.1808C19.986 11.4501 20 11.7234 20 12C20 12.2766 19.986 12.5499 19.9586 12.8193L21.4254 13.8737C21.8425 14.1736 21.9646 14.7408 21.7077 15.1857L19.6127 18.8143C19.3558 19.2593 18.8036 19.4372 18.3353 19.2258L16.6887 18.4827C16.2475 18.8024 15.7723 19.0781 15.2696 19.3035L15.09 21.0995C15.0389 21.6107 14.6088 22 14.095 22H9.90498C9.39123 22 8.96106 21.6107 8.90994 21.0995L8.73034 19.3035C8.22768 19.0781 7.75252 18.8024 7.31128 18.4827L5.66464 19.2258C5.19636 19.4371 4.64414 19.2592 4.38727 18.8143L2.29225 15.1857C2.03538 14.7407 2.15743 14.1736 2.57459 13.8737L4.04142 12.8192C4.01403 12.5499 3.99999 12.2766 3.99999 12C3.99999 11.7234 4.01403 11.4501 4.04142 11.1808L2.57454 10.1263C2.15739 9.82645 2.03533 9.25926 2.29221 8.81434L4.38722 5.18568C4.64409 4.74075 5.19632 4.56287 5.66459 4.7742L7.31126 5.51733C7.7525 5.19763 8.22767 4.92188 8.73034 4.6965L8.90994 2.9005C8.96106 2.3893 9.39123 2 9.90498 2H14.095C14.6088 2 15.0389 2.38929 15.09 2.9005ZM12 16C14.2091 16 16 14.2091 16 12C16 9.79086 14.2091 8 12 8C9.79086 8 8 9.79086 8 12C8 14.2091 9.79086 16 12 16Z" fill="#212529"/>
</svg>
