<svg width="24" height="24" viewBox="0 0 24 24" fill="none" xmlns="http://www.w3.org/2000/svg">
<path fill-rule="evenodd" clip-rule="evenodd" d="M9.54859 6.52145L10.6052 6.04771L10.81 4H13.19L13.3948 6.04771L14.4514 6.52145C14.8277 6.69017 15.184 6.89686 15.5153 7.1369L16.4544 7.8173L18.3332 6.9694L19.5232 9.03058L17.8517 10.2321L17.9688 11.3832C17.9894 11.5854 18 11.7911 18 12C18 12.2089 17.9894 12.4146 17.9688 12.6169L17.8517 13.7679L19.5232 14.9694L18.3332 17.0306L16.4544 16.1827L15.5153 16.8631C15.184 17.1032 14.8277 17.3098 14.4514 17.4785L13.3948 17.9523L13.19 20H10.81L10.6052 17.9523L9.5486 17.4785C9.1723 17.3098 8.81602 17.1031 8.48471 16.8631L7.54561 16.1827L5.66682 17.0306L4.4768 14.9694L6.14824 13.7679L6.03116 12.6168C6.01059 12.4146 5.99999 12.2089 5.99999 12C5.99999 11.7911 6.01059 11.5854 6.03116 11.3832L6.14823 10.2322L4.47675 9.0306L5.66678 6.96942L7.54559 7.81732L8.48469 7.13691C8.81601 6.89686 9.17229 6.69018 9.54859 6.52145ZM15.09 2.9005L15.2696 4.6965C15.7723 4.92188 16.2475 5.19762 16.6887 5.51732L18.3354 4.77418C18.8037 4.56285 19.3559 4.74073 19.6128 5.18566L21.7078 8.81432C21.9647 9.25925 21.8426 9.82643 21.4254 10.1263L19.9586 11.1808C19.986 11.4501 20 11.7234 20 12C20 12.2766 19.986 12.5499 19.9586 12.8193L21.4254 13.8737C21.8425 14.1736 21.9646 14.7408 21.7077 15.1857L19.6127 18.8143C19.3558 19.2593 18.8036 19.4372 18.3353 19.2258L16.6887 18.4827C16.2475 18.8024 15.7723 19.0781 15.2696 19.3035L15.09 21.0995C15.0389 21.6107 14.6088 22 14.095 22H9.90498C9.39123 22 8.96106 21.6107 8.90994 21.0995L8.73034 19.3035C8.22768 19.0781 7.75252 18.8024 7.31128 18.4827L5.66464 19.2258C5.19636 19.4371 4.64414 19.2592 4.38727 18.8143L2.29225 15.1857C2.03538 14.7407 2.15743 14.1736 2.57459 13.8737L4.04142 12.8192C4.01403 12.5499 3.99999 12.2766 3.99999 12C3.99999 11.7234 4.01403 11.4501 4.04142 11.1808L2.57454 10.1263C2.15739 9.82645 2.03533 9.25926 2.29221 8.81434L4.38722 5.18568C4.64409 4.74075 5.19632 4.56287 5.66459 4.7742L7.31126 5.51733C7.7525 5.19763 8.22767 4.92188 8.73034 4.6965L8.90994 2.9005C8.96106 2.3893 9.39123 2 9.90498 2H14.095C14.6088 2 15.0389 2.38929 15.09 2.9005ZM14 12C14 13.1046 13.1046 14 12 14C10.8954 14 10 13.1046 10 12C10 10.8954 10.8954 10 12 10C13.1046 10 14 10.8954 14 12ZM16 12C16 14.2091 14.2091 16 12 16C9.79086 16 8 14.2091 8 12C8 9.79086 9.79086 8 12 8C14.2091 8 16 9.79086 16 12Z" fill="#212529"/>
</svg>
