<svg width="24" height="24" viewBox="0 0 24 24" fill="none" xmlns="http://www.w3.org/2000/svg">
<path d="M3.02811 16.7077C3.16315 16.7079 3.29689 16.6813 3.42165 16.6297C3.54641 16.578 3.65972 16.5022 3.75509 16.4066L9.53926 10.6224L11.8965 12.9797C11.992 13.0751 12.1053 13.1509 12.2301 13.2025C12.3548 13.2542 12.4885 13.2808 12.6235 13.2808C12.7585 13.2808 12.8922 13.2542 13.0169 13.2025C13.1417 13.1509 13.255 13.0751 13.3505 12.9797L19.8196 6.5105L19.8193 8.82577C19.8193 9.09843 19.9276 9.35992 20.1204 9.55273C20.3132 9.74553 20.5747 9.85384 20.8473 9.85384C21.12 9.85384 21.3815 9.74553 21.5743 9.55273C21.7671 9.35992 21.8754 9.09843 21.8754 8.82577L21.8762 4.02808C21.8762 3.75541 21.7679 3.49392 21.5751 3.30112C21.3823 3.10831 21.1208 3 20.8481 3H16.0504C15.7778 3 15.5163 3.10831 15.3235 3.30112C15.1307 3.49392 15.0223 3.75541 15.0223 4.02808C15.0223 4.30074 15.1307 4.56223 15.3235 4.75504C15.5163 4.94784 15.7778 5.05615 16.0504 5.05615H18.3661L12.6235 10.7988L10.2662 8.44148C10.1708 8.34601 10.0574 8.27028 9.9327 8.21861C9.80797 8.16694 9.67428 8.14034 9.53926 8.14034C9.40425 8.14034 9.27056 8.16694 9.14582 8.21861C9.02109 8.27028 8.90775 8.34601 8.81229 8.44148L2.30114 14.9526C2.15735 15.0964 2.05943 15.2796 2.01976 15.479C1.98009 15.6785 2.00044 15.8852 2.07826 16.073C2.15608 16.2609 2.28785 16.4215 2.45693 16.5344C2.626 16.6474 2.82477 16.7077 3.02811 16.7077Z" fill="#212529"/>
<path d="M20.8489 18.7638H3.02889C2.75622 18.7638 2.49473 18.8722 2.30193 19.065C2.10912 19.2578 2.00081 19.5193 2.00081 19.7919C2.00081 20.0646 2.10912 20.3261 2.30193 20.5189C2.49473 20.7117 2.75622 20.82 3.02889 20.82H20.8489C21.1215 20.82 21.383 20.7117 21.5758 20.5189C21.7686 20.3261 21.877 20.0646 21.877 19.7919C21.877 19.5193 21.7686 19.2578 21.5758 19.065C21.383 18.8722 21.1215 18.7638 20.8489 18.7638Z" fill="#212529"/>
</svg>
