<svg width="24" height="24" viewBox="0 0 24 24" fill="none" xmlns="http://www.w3.org/2000/svg">
<path fill-rule="evenodd" clip-rule="evenodd" d="M16 5C16 3.89543 16.8954 3 18 3C19.1046 3 20 3.89543 20 5C20 6.10457 19.1046 7 18 7C16.8954 7 16 6.10457 16 5ZM18 1C15.7909 1 14 2.79086 14 5C14 5.37714 14.0522 5.7421 14.1498 6.08803L8.84138 9.18458C8.11652 8.45308 7.11117 8 6 8C3.79086 8 2 9.79086 2 12C2 14.2091 3.79086 16 6 16C7.11134 16 8.11682 15.5468 8.8417 14.8151L14.1499 17.9115C14.0522 18.2576 14 18.6227 14 19C14 21.2091 15.7909 23 18 23C20.2091 23 22 21.2091 22 19C22 16.7909 20.2091 15 18 15C16.8888 15 15.8835 15.4531 15.1586 16.1846L9.85025 13.088C9.94781 12.7421 10 12.3771 10 12C10 11.6227 9.94776 11.2576 9.85013 10.9116L15.1583 7.81511C15.8832 8.54679 16.8887 9 18 9C20.2091 9 22 7.20914 22 5C22 2.79086 20.2091 1 18 1ZM4 12C4 10.8954 4.89543 10 6 10C7.10457 10 8 10.8954 8 12C8 13.1046 7.10457 14 6 14C4.89543 14 4 13.1046 4 12ZM18 17C16.8954 17 16 17.8954 16 19C16 20.1046 16.8954 21 18 21C19.1046 21 20 20.1046 20 19C20 17.8954 19.1046 17 18 17Z" fill="#212529"/>
</svg>
