<svg width="24" height="24" viewBox="0 0 24 24" fill="none" xmlns="http://www.w3.org/2000/svg">
<path fill-rule="evenodd" clip-rule="evenodd" d="M13.3416 1.55256C12.4971 1.13027 11.5029 1.13027 10.6584 1.55256L3.55279 5.10534C3.214 5.27473 3 5.621 3 5.99977V11.9998C3 17.2846 7.11155 21.1488 11.0044 22.6999C11.644 22.9548 12.356 22.9548 12.9956 22.6999C16.8885 21.1488 21 17.2846 21 11.9998V5.99977C21 5.621 20.786 5.27473 20.4472 5.10534L13.3416 1.55256ZM12 15.9998C11.4477 15.9998 11 15.5521 11 14.9998V12.9998H9C8.44772 12.9998 8 12.5521 8 11.9998C8 11.4475 8.44772 10.9998 9 10.9998H11V8.99979C11 8.4475 11.4477 7.99979 12 7.99979C12.5523 7.99979 13 8.4475 13 8.99979V10.9998H15C15.5523 10.9998 16 11.4475 16 11.9998C16 12.5521 15.5523 12.9998 15 12.9998H13V14.9998C13 15.5521 12.5523 15.9998 12 15.9998Z" fill="#212529"/>
</svg>
