<svg width="24" height="24" viewBox="0 0 24 24" fill="none" xmlns="http://www.w3.org/2000/svg">
<path fill-rule="evenodd" clip-rule="evenodd" d="M3.87839 2.46396L3.70711 2.29268C3.31658 1.90216 2.68342 1.90216 2.29289 2.29268C1.90237 2.6832 1.90237 3.31637 2.29289 3.70689L3.64516 5.05916L3.55279 5.10534C3.214 5.27473 3 5.621 3 5.99977L3 11.9998C3 17.2846 7.11155 21.1488 11.0044 22.6999C11.644 22.9548 12.356 22.9548 12.9956 22.6999C14.7238 22.0113 16.4951 20.8669 17.9306 19.3446L20.2929 21.7069C20.6834 22.0974 21.3166 22.0974 21.7071 21.7069C22.0976 21.3164 22.0976 20.6832 21.7071 20.2927L19.1895 17.7751C19.1899 17.7746 19.1902 17.7742 19.1905 17.7737L4.05888 2.70845C3.98471 2.6346 3.92454 2.552 3.87839 2.46396ZM20.1889 15.9455C20.7014 14.7451 21 13.424 21 11.9998V5.99977C21 5.621 20.786 5.27473 20.4472 5.10534L13.3416 1.55256C12.4971 1.13027 11.5029 1.13027 10.6584 1.55256L7.37931 3.19208L20.1889 15.9455Z" fill="#212529"/>
</svg>
