<svg width="24" height="24" viewBox="0 0 24 24" fill="none" xmlns="http://www.w3.org/2000/svg">
<path fill-rule="evenodd" clip-rule="evenodd" d="M10.6584 1.55256C11.5029 1.13027 12.4971 1.13027 13.3416 1.55256L20.4472 5.10534C20.786 5.27473 21 5.621 21 5.99977V11.9998C21 17.2846 16.8885 21.1488 12.9956 22.6999C12.356 22.9548 11.644 22.9548 11.0044 22.6999C7.11155 21.1488 3 17.2846 3 11.9998V5.99977C3 5.621 3.214 5.27473 3.55279 5.10534L10.6584 1.55256ZM12.4472 3.34141C12.1657 3.20065 11.8343 3.20065 11.5528 3.34141L5 6.6178L5 11.9998C5 16.1762 8.30194 19.4702 11.7446 20.8419C11.909 20.9074 12.091 20.9074 12.2554 20.8419C15.6981 19.4702 19 16.1762 19 11.9998V6.6178L12.4472 3.34141ZM8.29292 15.7069C7.9024 15.3164 7.9024 14.6832 8.29292 14.2927L10.5858 11.9998L8.2929 9.7069C7.90237 9.31638 7.90237 8.68321 8.2929 8.29269C8.68342 7.90216 9.31659 7.90216 9.70711 8.29269L12 10.5856L14.2929 8.29269C14.6834 7.90216 15.3166 7.90216 15.7071 8.29269C16.0977 8.68321 16.0977 9.31637 15.7071 9.7069L13.4142 11.9998L15.7071 14.2927C16.0976 14.6832 16.0976 15.3164 15.7071 15.7069C15.3166 16.0974 14.6834 16.0974 14.2929 15.7069L12 13.414L9.70714 15.7069C9.31661 16.0974 8.68345 16.0974 8.29292 15.7069Z" fill="#212529"/>
</svg>
