<svg width="24" height="24" viewBox="0 0 24 24" fill="none" xmlns="http://www.w3.org/2000/svg">
<path fill-rule="evenodd" clip-rule="evenodd" d="M13.3416 1.55256C12.4971 1.13027 11.5029 1.13027 10.6584 1.55256L3.55279 5.10534C3.214 5.27473 3 5.621 3 5.99977V11.9998C3 17.2846 7.11155 21.1488 11.0044 22.6999C11.644 22.9548 12.356 22.9548 12.9956 22.6999C16.8885 21.1488 21 17.2846 21 11.9998V5.99977C21 5.621 20.786 5.27473 20.4472 5.10534L13.3416 1.55256ZM12 12.9998C11.4477 12.9998 11 12.5521 11 11.9998V7.99979C11 7.4475 11.4477 6.99979 12 6.99979C12.5523 6.99979 13 7.4475 13 7.99979V11.9998C13 12.5521 12.5523 12.9998 12 12.9998ZM11 15.9998C11 15.4475 11.4477 14.9998 12 14.9998C12.5523 14.9998 13 15.4475 13 15.9998C13 16.5521 12.5523 16.9998 12 16.9998C11.4477 16.9998 11 16.5521 11 15.9998Z" fill="#212529"/>
</svg>
