<svg width="24" height="24" viewBox="0 0 24 24" fill="none" xmlns="http://www.w3.org/2000/svg">
<path fill-rule="evenodd" clip-rule="evenodd" d="M10.6584 1.55256C11.5029 1.13027 12.4971 1.13027 13.3416 1.55256L20.4472 5.10534C20.786 5.27473 21 5.621 21 5.99977V11.9998C21 17.2846 16.8885 21.1488 12.9956 22.6999C12.356 22.9548 11.644 22.9548 11.0044 22.6999C7.11155 21.1488 3 17.2846 3 11.9998L3 5.99977C3 5.621 3.214 5.27473 3.55279 5.10534L10.6584 1.55256ZM12.4472 3.34141C12.1657 3.20065 11.8343 3.20065 11.5528 3.34141L5 6.6178L5 11.9998C5 16.1762 8.30194 19.4702 11.7446 20.8419C11.909 20.9074 12.091 20.9074 12.2554 20.8419C15.6981 19.4702 19 16.1762 19 11.9998V6.6178L12.4472 3.34141ZM12 12.9998C11.4477 12.9998 11 12.5521 11 11.9998V7.99979C11 7.4475 11.4477 6.99979 12 6.99979C12.5523 6.99979 13 7.4475 13 7.99979V11.9998C13 12.5521 12.5523 12.9998 12 12.9998ZM12 14.9998C11.4477 14.9998 11 15.4475 11 15.9998C11 16.5521 11.4477 16.9998 12 16.9998C12.5523 16.9998 13 16.5521 13 15.9998C13 15.4475 12.5523 14.9998 12 14.9998Z" fill="#212529"/>
</svg>
