<svg width="24" height="24" viewBox="0 0 24 24" fill="none" xmlns="http://www.w3.org/2000/svg">
<path fill-rule="evenodd" clip-rule="evenodd" d="M13.3416 1.55256C12.4971 1.13027 11.5029 1.13027 10.6584 1.55256L3.55279 5.10534C3.214 5.27473 3 5.621 3 5.99977V11.9998C3 17.2846 7.11155 21.1488 11.0044 22.6999C11.644 22.9548 12.356 22.9548 12.9956 22.6999C16.8885 21.1488 21 17.2846 21 11.9998V5.99977C21 5.621 20.786 5.27473 20.4472 5.10534L13.3416 1.55256ZM8.29292 15.7069C7.90239 15.3164 7.90239 14.6832 8.29292 14.2927L10.5858 11.9998L8.29289 9.70689C7.90237 9.31637 7.90237 8.68321 8.29289 8.29268C8.68342 7.90216 9.31658 7.90216 9.70711 8.29268L12 10.5856L14.2929 8.29268C14.6834 7.90215 15.3166 7.90216 15.7071 8.29268C16.0976 8.6832 16.0976 9.31637 15.7071 9.70689L13.4142 11.9998L15.7071 14.2927C16.0976 14.6832 16.0976 15.3164 15.7071 15.7069C15.3166 16.0974 14.6834 16.0974 14.2929 15.7069L12 13.414L9.70713 15.7069C9.31661 16.0974 8.68344 16.0974 8.29292 15.7069Z" fill="#212529"/>
</svg>
