<svg width="24" height="24" viewBox="0 0 24 24" fill="none" xmlns="http://www.w3.org/2000/svg">
<path fill-rule="evenodd" clip-rule="evenodd" d="M13.3416 1.55256C12.4971 1.13027 11.5029 1.13027 10.6584 1.55256L3.55279 5.10534C3.214 5.27473 3 5.621 3 5.99977V11.9998C3 17.2846 7.11155 21.1488 11.0044 22.6999C11.644 22.9548 12.356 22.9548 12.9956 22.6999C16.8885 21.1488 21 17.2846 21 11.9998V5.99977C21 5.621 20.786 5.27473 20.4472 5.10534L13.3416 1.55256ZM15.7071 10.7069C16.0976 10.3164 16.0976 9.6832 15.7071 9.29268C15.3166 8.90216 14.6834 8.90216 14.2929 9.29268L11 12.5856L9.70711 11.2927C9.31658 10.9022 8.68342 10.9022 8.29289 11.2927C7.90237 11.6832 7.90237 12.3164 8.29289 12.7069L10.2929 14.7069C10.6834 15.0974 11.3166 15.0974 11.7071 14.7069L15.7071 10.7069Z" fill="#212529"/>
</svg>
