<?xml version="1.0" encoding="UTF-8"?>
<svg xmlns="http://www.w3.org/2000/svg" width="16" height="16" viewBox="0 0 16 16" fill="none"><path d="M13.25 0C12.5596 0 12 0.559644 12 1.25L12 4.75C12 5.44036 12.5596 6 13.25 6C13.9404 6 14.5 5.44036 14.5 4.75L14.5 1.25C14.5 0.559644 13.9404 0 13.25 0ZM9.25 3C8.55964 3 8 3.55964 8 4.25L8 4.75C8 5.44036 8.55964 6 9.25 6C9.94036 6 10.5 5.44036 10.5 4.75L10.5 4.25C10.5 3.55964 9.94036 3 9.25 3ZM4 7.25C4 6.55964 4.55964 6 5.25 6C5.94036 6 6.5 6.55964 6.5 7.25L6.5 10.75C6.5 11.4404 5.94036 12 5.25 12C4.55964 12 4 11.4404 4 10.75L4 7.25ZM1.25 9C0.559644 9 0 9.55964 0 10.25L0 10.75C0 11.4404 0.559644 12 1.25 12C1.94036 12 2.5 11.4404 2.5 10.75L2.5 10.25C2.5 9.55964 1.94036 9 1.25 9Z" transform="translate(1 2)" fill="#212529" fill-rule="evenodd" opacity="0.52" /><path d="M4.29289 0.292893C4.68342 -0.0976311 5.31658 -0.0976311 5.70711 0.292893C6.09763 0.683417 6.09763 1.31658 5.70711 1.70711L4.41421 3L5.70711 4.29289C6.09763 4.68342 6.09763 5.31658 5.70711 5.70711C5.31658 6.09763 4.68342 6.09763 4.29289 5.70711L3 4.41421L1.70711 5.70711C1.31658 6.09763 0.683417 6.09763 0.292893 5.70711C-0.0976311 5.31658 -0.0976311 4.68342 0.292893 4.29289L1.58579 3L0.292893 1.70711C-0.097631 1.31658 -0.097631 0.683417 0.292893 0.292893C0.683418 -0.0976311 1.31658 -0.0976311 1.70711 0.292893L3 1.58579L4.29289 0.292893Z" transform="translate(10 10)" fill="#212529" fill-rule="evenodd" opacity="1" /></svg>
