<svg width="24" height="24" viewBox="0 0 24 24" fill="none" xmlns="http://www.w3.org/2000/svg">
<path fill-rule="evenodd" clip-rule="evenodd" d="M19.5 4C18.6716 4 18 4.67157 18 5.5V18.5C18 19.3284 18.6716 20 19.5 20C20.3284 20 21 19.3284 21 18.5V5.5C21 4.67157 20.3284 4 19.5 4ZM14.5 8C13.6716 8 13 8.67157 13 9.5V18.5C13 19.3284 13.6716 20 14.5 20C15.3284 20 16 19.3284 16 18.5V9.5C16 8.67157 15.3284 8 14.5 8ZM8 13.5C8 12.6716 8.67157 12 9.5 12C10.3284 12 11 12.6716 11 13.5V18.5C11 19.3284 10.3284 20 9.5 20C8.67157 20 8 19.3284 8 18.5V13.5ZM4.5 16C3.67157 16 3 16.6716 3 17.5V18.5C3 19.3284 3.67157 20 4.5 20C5.32843 20 6 19.3284 6 18.5V17.5C6 16.6716 5.32843 16 4.5 16Z" fill="#212529"/>
</svg>
