<?xml version="1.0" encoding="UTF-8"?>
<svg xmlns="http://www.w3.org/2000/svg" width="16" height="16" viewBox="0 0 16 16" fill="none"><path d="M0 1.25C0 0.559644 0.559644 0 1.25 0L1.25 0C1.94036 0 2.5 0.559644 2.5 1.25L2.5 7.75C2.5 8.44036 1.94036 9 1.25 9L1.25 9C0.559644 9 0 8.44036 0 7.75L0 1.25Z" transform="translate(9 5)" fill="#212529" fill-rule="nonzero" opacity="0.72" /><path d="M8 1.25C8 0.559644 8.55964 0 9.25 0C9.94036 0 10.5 0.559644 10.5 1.25L10.5 4.75C10.5 5.44036 9.94036 6 9.25 6C8.55964 6 8 5.44036 8 4.75L8 1.25Z" transform="translate(5 8)" fill="#212529" fill-rule="nonzero" opacity="0.52" /><path d="M0 1.25C0 0.559644 0.559644 0 1.25 0C1.94036 0 2.5 0.559644 2.5 1.25L2.5 4.75C2.5 5.44036 1.94036 6 1.25 6C0.559644 6 0 5.44036 0 4.75L0 1.25Z" transform="translate(5 8)" fill="#212529" fill-rule="nonzero" opacity="0.52" /><path d="M0 1.25C0 0.559644 0.559644 0 1.25 0L1.25 0C1.94036 0 2.5 0.559644 2.5 1.25L2.5 1.75C2.5 2.44036 1.94036 3 1.25 3L1.25 3C0.559644 3 0 2.44036 0 1.75L0 1.25Z" transform="translate(1 11)" fill="#212529" fill-rule="nonzero" opacity="0.28" /></svg>
