<?xml version="1.0" encoding="UTF-8"?>
<svg xmlns="http://www.w3.org/2000/svg" width="16" height="16" viewBox="0 0 16 16" fill="none"><path d="M4 1.25C4 0.559644 4.55964 0 5.25 0C5.94036 0 6.5 0.559644 6.5 1.25L6.5 10.75C6.5 11.4404 5.94036 12 5.25 12C4.55964 12 4 11.4404 4 10.75L4 1.25Z" transform="translate(9 2)" fill="#212529" fill-rule="nonzero" opacity="0.28" /><path d="M0 4.25C0 3.55964 0.559644 3 1.25 3C1.94036 3 2.5 3.55964 2.5 4.25L2.5 10.75C2.5 11.4404 1.94036 12 1.25 12C0.559644 12 0 11.4404 0 10.75L0 4.25Z" transform="translate(9 2)" fill="#212529" fill-rule="nonzero" opacity="0.28" /><path d="M4 1.25C4 0.559644 4.55964 0 5.25 0C5.94036 0 6.5 0.559644 6.5 1.25L6.5 4.75C6.5 5.44036 5.94036 6 5.25 6C4.55964 6 4 5.44036 4 4.75L4 1.25Z" transform="translate(1 8)" fill="#212529" fill-rule="nonzero" opacity="1" /><path d="M0 4.25C0 3.55964 0.559644 3 1.25 3C1.94036 3 2.5 3.55964 2.5 4.25L2.5 4.75C2.5 5.44036 1.94036 6 1.25 6C0.559644 6 0 5.44036 0 4.75L0 4.25Z" transform="translate(1 8)" fill="#212529" fill-rule="nonzero" opacity="1" /></svg>
