<?xml version="1.0" encoding="UTF-8"?>
<svg xmlns="http://www.w3.org/2000/svg" width="16" height="16" viewBox="0 0 16 16" fill="none"><path d="M0 1.25C0 0.559644 0.559644 0 1.25 0L1.25 0C1.94036 0 2.5 0.559644 2.5 1.25L2.5 10.75C2.5 11.4404 1.94036 12 1.25 12L1.25 12C0.559644 12 0 11.4404 0 10.75L0 1.25Z" transform="translate(13 2)" fill="#212529" fill-rule="nonzero" opacity="0.28" /><path d="M8 1.25C8 0.559644 8.55964 0 9.25 0C9.94036 0 10.5 0.559644 10.5 1.25L10.5 7.75C10.5 8.44036 9.94036 9 9.25 9C8.55964 9 8 8.44036 8 7.75L8 1.25Z" transform="translate(1 5)" fill="#212529" fill-rule="nonzero" opacity="1" /><path d="M4 4.25C4 3.55964 4.55964 3 5.25 3C5.94036 3 6.5 3.55964 6.5 4.25L6.5 7.75C6.5 8.44036 5.94036 9 5.25 9C4.55964 9 4 8.44036 4 7.75L4 4.25Z" transform="translate(1 5)" fill="#212529" fill-rule="nonzero" opacity="1" /><path d="M0 7.25C0 6.55964 0.559644 6 1.25 6C1.94036 6 2.5 6.55964 2.5 7.25L2.5 7.75C2.5 8.44036 1.94036 9 1.25 9C0.559644 9 0 8.44036 0 7.75L0 7.25Z" transform="translate(1 5)" fill="#212529" fill-rule="nonzero" opacity="1" /></svg>
