<svg width="24" height="24" viewBox="0 0 24 24" fill="none" xmlns="http://www.w3.org/2000/svg">
<path fill-rule="evenodd" clip-rule="evenodd" d="M9.14645 2.43934C9.42775 2.15803 9.80928 2 10.2071 2H17C18.6569 2 20 3.34315 20 5V19C20 20.6569 18.6569 22 17 22H7C5.34315 22 4 20.6569 4 19V8.20711C4 7.80928 4.15804 7.42775 4.43934 7.14645L9.14645 2.43934ZM12 8C12.5523 8 13 8.44772 13 9V12C13 12.5523 12.5523 13 12 13C11.4477 13 11 12.5523 11 12V9C11 8.44772 11.4477 8 12 8ZM13 16C13 16.5523 12.5523 17 12 17C11.4477 17 11 16.5523 11 16C11 15.4477 11.4477 15 12 15C12.5523 15 13 15.4477 13 16Z" fill="#212529"/>
</svg>
