<svg width="24" height="24" viewBox="0 0 24 24" fill="none" xmlns="http://www.w3.org/2000/svg">
<path fill-rule="evenodd" clip-rule="evenodd" d="M9.14645 2.43934C9.42775 2.15803 9.80928 2 10.2071 2H17C18.6569 2 20 3.34315 20 5V19C20 20.6569 18.6569 22 17 22H7C5.34315 22 4 20.6569 4 19V8.20711C4 7.80928 4.15804 7.42775 4.43934 7.14645L9.14645 2.43934ZM7.5 11C7.22386 11 7 11.2239 7 11.5V14.5C7 14.7761 7.22386 15 7.5 15H8.5C8.77614 15 9 14.7761 9 14.5V11.5C9 11.2239 8.77614 11 8.5 11H7.5ZM15 11.5C15 11.2239 15.2239 11 15.5 11H16.5C16.7761 11 17 11.2239 17 11.5V14.5C17 14.7761 16.7761 15 16.5 15H15.5C15.2239 15 15 14.7761 15 14.5V11.5ZM11 15.5C11 15.2239 11.2239 15 11.5 15H12.5C12.7761 15 13 15.2239 13 15.5V18.5C13 18.7761 12.7761 19 12.5 19H11.5C11.2239 19 11 18.7761 11 18.5V15.5ZM15 17.5C15 17.2239 15.2239 17 15.5 17H16.5C16.7761 17 17 17.2239 17 17.5V18.5C17 18.7761 16.7761 19 16.5 19H15.5C15.2239 19 15 18.7761 15 18.5V17.5ZM11.5 11C11.2239 11 11 11.2239 11 11.5V12.5C11 12.7761 11.2239 13 11.5 13H12.5C12.7761 13 13 12.7761 13 12.5V11.5C13 11.2239 12.7761 11 12.5 11H11.5ZM7 17.5C7 17.2239 7.22386 17 7.5 17H8.5C8.77614 17 9 17.2239 9 17.5V18.5C9 18.7761 8.77614 19 8.5 19H7.5C7.22386 19 7 18.7761 7 18.5V17.5Z" fill="#212529"/>
</svg>
