<svg width="24" height="24" viewBox="0 0 24 24" fill="none" xmlns="http://www.w3.org/2000/svg">
<path d="M11 15.5C11 15.2239 11.2239 15 11.5 15H12.5C12.7761 15 13 15.2239 13 15.5V18.5C13 18.7761 12.7761 19 12.5 19H11.5C11.2239 19 11 18.7761 11 18.5V15.5Z" fill="#212529"/>
<path d="M15.5 11C15.2239 11 15 11.2239 15 11.5V14.5C15 14.7761 15.2239 15 15.5 15H16.5C16.7761 15 17 14.7761 17 14.5V11.5C17 11.2239 16.7761 11 16.5 11H15.5Z" fill="#212529"/>
<path d="M7 11.5C7 11.2239 7.22386 11 7.5 11H8.5C8.77614 11 9 11.2239 9 11.5V14.5C9 14.7761 8.77614 15 8.5 15H7.5C7.22386 15 7 14.7761 7 14.5V11.5Z" fill="#212529"/>
<path d="M15.5 17C15.2239 17 15 17.2239 15 17.5V18.5C15 18.7761 15.2239 19 15.5 19H16.5C16.7761 19 17 18.7761 17 18.5V17.5C17 17.2239 16.7761 17 16.5 17H15.5Z" fill="#212529"/>
<path d="M11 11.5C11 11.2239 11.2239 11 11.5 11H12.5C12.7761 11 13 11.2239 13 11.5V12.5C13 12.7761 12.7761 13 12.5 13H11.5C11.2239 13 11 12.7761 11 12.5V11.5Z" fill="#212529"/>
<path d="M7.5 17C7.22386 17 7 17.2239 7 17.5V18.5C7 18.7761 7.22386 19 7.5 19H8.5C8.77614 19 9 18.7761 9 18.5V17.5C9 17.2239 8.77614 17 8.5 17H7.5Z" fill="#212529"/>
<path fill-rule="evenodd" clip-rule="evenodd" d="M9.14645 2.43934C9.42775 2.15803 9.80928 2 10.2071 2H17C18.6569 2 20 3.34315 20 5V19C20 20.6569 18.6569 22 17 22H7C5.34315 22 4 20.6569 4 19V8.20711C4 7.80928 4.15804 7.42775 4.43934 7.14645L9.14645 2.43934ZM10.4142 4L6 8.41421V19C6 19.5523 6.44772 20 7 20H17C17.5523 20 18 19.5523 18 19V5C18 4.44772 17.5523 4 17 4H10.4142Z" fill="#212529"/>
</svg>
