<svg width="24" height="24" viewBox="0 0 24 24" fill="none" xmlns="http://www.w3.org/2000/svg">
<path fill-rule="evenodd" clip-rule="evenodd" d="M3.96536 2.55114L3.70711 2.29289C3.31658 1.90237 2.68342 1.90237 2.29289 2.29289C1.90237 2.68342 1.90237 3.31658 2.29289 3.70711L5.08579 6.5L4.43934 7.14645C4.15804 7.42775 4 7.80928 4 8.20711V19C4 20.6569 5.34315 22 7 22H17C17.9778 22 18.8463 21.5322 19.394 20.8082L20.2929 21.7071C20.6834 22.0976 21.3166 22.0976 21.7071 21.7071C22.0976 21.3166 22.0976 20.6834 21.7071 20.2929L21.2489 19.8347C21.1937 19.7982 21.1414 19.7557 21.0929 19.7071L4.0929 2.70711C4.04435 2.65856 4.00183 2.60626 3.96536 2.55114ZM6 8.41421L6.5 7.91421L17.9367 19.3509C17.7946 19.7301 17.4288 20 17 20H7C6.44772 20 6 19.5523 6 19V8.41421Z" fill="#212529"/>
<path d="M20 15.7858V5C20 3.34315 18.6569 2 17 2H10.2071C9.80928 2 9.42775 2.15803 9.14645 2.43934L7.9 3.68578L9.31421 5.1L10.4142 4H17C17.5523 4 18 4.44772 18 5V13.7858L20 15.7858Z" fill="#212529"/>
</svg>
