<svg width="24" height="24" viewBox="0 0 24 24" fill="none" xmlns="http://www.w3.org/2000/svg">
<path d="M15.2071 12.8029C15.5976 13.1934 15.5976 13.8266 15.2071 14.2171L12.7071 16.7171C12.5196 16.9047 12.2652 17.01 12 17.01C11.7348 17.01 11.4804 16.9047 11.2929 16.7171L8.79289 14.2171C8.40237 13.8266 8.40237 13.1934 8.79289 12.8029C9.18342 12.4124 9.81658 12.4124 10.2071 12.8029L11 13.5958L11 9C11 8.44772 11.4477 8 12 8C12.5523 8 13 8.44772 13 9V13.5958L13.7929 12.8029C14.1834 12.4124 14.8166 12.4124 15.2071 12.8029Z" fill="#212529"/>
<path fill-rule="evenodd" clip-rule="evenodd" d="M9.14645 2.43934C9.42775 2.15803 9.80928 2 10.2071 2H17C18.6569 2 20 3.34315 20 5V19C20 20.6569 18.6569 22 17 22H7C5.34315 22 4 20.6569 4 19V8.20711C4 7.80928 4.15804 7.42775 4.43934 7.14645L9.14645 2.43934ZM10.4142 4L6 8.41421V19C6 19.5523 6.44772 20 7 20H17C17.5523 20 18 19.5523 18 19V5C18 4.44772 17.5523 4 17 4H10.4142Z" fill="#212529"/>
</svg>
