<?xml version="1.0" encoding="UTF-8"?>
<svg xmlns="http://www.w3.org/2000/svg" width="24" height="24" viewBox="0 0 24 24" fill="none"><path d="M6.5 8C7.32843 8 8 7.32843 8 6.5C8 5.67157 7.32843 5 6.5 5C5.67157 5 5 5.67157 5 6.5C5 7.32843 5.67157 8 6.5 8Z" transform="translate(2 1.998)" fill="#212529" fill-rule="nonzero" opacity="1" /><path d="M15 10C14.4477 10 14.0128 10.4547 13.8766 10.9899C13.4361 12.7202 11.8675 14 10 14C8.13252 14 6.56394 12.7202 6.12343 10.9899C5.98717 10.4547 5.55228 10 5 10C4.44772 10 3.99127 10.4511 4.08226 10.9958C4.55661 13.8356 7.02554 16 10 16C12.9745 16 15.4434 13.8356 15.9177 10.9958C16.0087 10.4511 15.5523 10 15 10Z" transform="translate(2 1.998)" fill="#212529" fill-rule="nonzero" opacity="1" /><path d="M13.5 8C14.3284 8 15 7.32843 15 6.5C15 5.67157 14.3284 5 13.5 5C12.6716 5 12 5.67157 12 6.5C12 7.32843 12.6716 8 13.5 8Z" transform="translate(2 1.998)" fill="#212529" fill-rule="nonzero" opacity="1" /><path d="M20 10C20 15.5228 15.5228 20 10 20C4.47715 20 -3.41104e-16 15.5228 0 10C3.41104e-16 4.47715 4.47715 -2.75549e-16 10 0C15.5228 2.75549e-16 20 4.47715 20 10ZM18 10C18 14.4183 14.4183 18 10 18C5.58172 18 2 14.4183 2 10C2 5.58172 5.58172 2 10 2C14.4183 2 18 5.58172 18 10Z" transform="translate(2 1.998)" fill="#212529" fill-rule="evenodd" opacity="1" /></svg>
