<svg width="24" height="24" viewBox="0 0 24 24" fill="none" xmlns="http://www.w3.org/2000/svg">
<path fill-rule="evenodd" clip-rule="evenodd" d="M3 8C3.55229 8 4 8.44772 4 9L4 15C4 15.5523 3.55228 16 3 16C2.44772 16 2 15.5523 2 15L2 9C2 8.44772 2.44772 8 3 8Z" fill="#212529"/>
<path fill-rule="evenodd" clip-rule="evenodd" d="M18 8C18.5523 8 19 8.44772 19 9V15C19 15.5523 18.5523 16 18 16C17.4477 16 17 15.5523 17 15V9C17 8.44772 17.4477 8 18 8Z" fill="#212529"/>
<path fill-rule="evenodd" clip-rule="evenodd" d="M9 8C9.55229 8 10 8.44772 10 9V15C10 15.5523 9.55228 16 9 16C8.44772 16 8 15.5523 8 15L8 9C8 8.44772 8.44772 8 9 8Z" fill="#212529"/>
<path fill-rule="evenodd" clip-rule="evenodd" d="M6 6C6.55229 6 7 6.44772 7 7L7 17C7 17.5523 6.55228 18 6 18C5.44772 18 5 17.5523 5 17L5 7C5 6.44772 5.44772 6 6 6Z" fill="#212529"/>
<path fill-rule="evenodd" clip-rule="evenodd" d="M21 9C21.5523 9 22 9.44772 22 10V14C22 14.5523 21.5523 15 21 15C20.4477 15 20 14.5523 20 14V10C20 9.44772 20.4477 9 21 9Z" fill="#212529"/>
<path fill-rule="evenodd" clip-rule="evenodd" d="M12 6C12.5523 6 13 6.44772 13 7V17C13 17.5523 12.5523 18 12 18C11.4477 18 11 17.5523 11 17V7C11 6.44772 11.4477 6 12 6Z" fill="#212529"/>
<path fill-rule="evenodd" clip-rule="evenodd" d="M15 3C15.5523 3 16 3.44772 16 4V20C16 20.5523 15.5523 21 15 21C14.4477 21 14 20.5523 14 20V4C14 3.44772 14.4477 3 15 3Z" fill="#212529"/>
</svg>
