<svg width="24" height="24" viewBox="0 0 24 24" fill="none" xmlns="http://www.w3.org/2000/svg">
<path fill-rule="evenodd" clip-rule="evenodd" d="M12.9744 2.74295C12.6217 1.86466 11.3783 1.86465 11.0256 2.74295L8.71973 8.48514L2.54602 8.90375C1.60173 8.96778 1.2175 10.1503 1.94382 10.7571L6.69241 14.7246L5.18275 20.7255C4.95184 21.6434 5.95773 22.3742 6.75932 21.8709L12 18.5808L17.2407 21.8709C18.0423 22.3742 19.0482 21.6434 18.8173 20.7255L17.3076 14.7246L22.0562 10.7571C22.7825 10.1503 22.3983 8.96778 21.454 8.90375L15.2803 8.48514L12.9744 2.74295ZM12 5.68355V16.4091C12.1938 16.4091 12.3876 16.4627 12.5583 16.5698L16.3005 18.9192L15.2225 14.6341C15.1242 14.2433 15.2583 13.8306 15.5676 13.5722L18.9584 10.7391L14.5499 10.4402C14.1478 10.4129 13.7968 10.1579 13.6466 9.7839L12 5.68355Z" fill="#212529"/>
</svg>
