<svg width="24" height="24" viewBox="0 0 24 24" fill="none" xmlns="http://www.w3.org/2000/svg">
<path fill-rule="evenodd" clip-rule="evenodd" d="M11.0256 2.74295C11.3783 1.86465 12.6217 1.86466 12.9744 2.74295L15.2803 8.48514L21.454 8.90375C22.3983 8.96778 22.7825 10.1503 22.0562 10.7571L17.3076 14.7246L18.8173 20.7255C19.0482 21.6434 18.0423 22.3742 17.2407 21.8709L12 18.5808L6.75932 21.8709C5.95773 22.3742 4.95184 21.6434 5.18275 20.7255L6.69241 14.7246L1.94382 10.7571C1.2175 10.1503 1.60173 8.96778 2.54602 8.90375L8.71973 8.48514L11.0256 2.74295ZM12 5.68355L10.3534 9.7839C10.2032 10.1579 9.85219 10.4129 9.45008 10.4402L5.0416 10.7391L8.43244 13.5722C8.74174 13.8306 8.87581 14.2433 8.77748 14.6341L7.69947 18.9192L11.4417 16.5698C11.7831 16.3555 12.217 16.3555 12.5583 16.5698L16.3005 18.9192L15.2225 14.6341C15.1242 14.2433 15.2583 13.8306 15.5676 13.5722L18.9584 10.7391L14.5499 10.4402C14.1478 10.4129 13.7968 10.1579 13.6466 9.7839L12 5.68355Z" fill="#212529"/>
</svg>
