<svg width="24" height="24" viewBox="0 0 24 24" fill="none" xmlns="http://www.w3.org/2000/svg">
<path fill-rule="evenodd" clip-rule="evenodd" d="M3.38642 19.9997L12.0011 4.55104L20.6376 19.9997H3.38642ZM13.3098 2.79344C12.737 1.76874 11.2622 1.76954 10.6905 2.79485L1.22504 19.7692C0.667508 20.769 1.39034 21.9997 2.53512 21.9997H21.49C22.6355 21.9997 23.3582 20.7677 22.7993 19.7678L13.3098 2.79344ZM11.9999 14.9998C11.4477 14.9998 10.9999 14.552 10.9999 13.9998V10.9998C10.9999 10.4475 11.4477 9.99976 11.9999 9.99976C12.5522 9.99976 12.9999 10.4475 12.9999 10.9998V13.9998C12.9999 14.552 12.5522 14.9998 11.9999 14.9998ZM10.9999 16.9998C10.9999 16.4475 11.4477 15.9998 11.9999 15.9998C12.5522 15.9998 12.9999 16.4475 12.9999 16.9998C12.9999 17.552 12.5522 17.9998 11.9999 17.9998C11.4477 17.9998 10.9999 17.552 10.9999 16.9998Z" fill="#212529"/>
</svg>
