<svg width="24" height="24" viewBox="0 0 24 24" fill="none" xmlns="http://www.w3.org/2000/svg">
<path fill-rule="evenodd" clip-rule="evenodd" d="M12 2C6.47715 2 2 6.47715 2 12C2 17.5228 6.47715 22 12 22C17.5228 22 22 17.5228 22 12C22 6.47715 17.5228 2 12 2ZM13.4429 11.125H15.261C15.5788 11.125 15.7697 11.4776 15.5959 11.7437L11.5921 17.8747C11.3746 18.2077 10.8571 18.0537 10.8571 17.6559V13.175C10.8571 13.0093 10.7228 12.875 10.5571 12.875H8.73897C8.42121 12.875 8.23031 12.5223 8.40406 12.2563L12.4079 6.12531C12.6254 5.79231 13.1429 5.9463 13.1429 6.34403V10.825C13.1429 10.9907 13.2772 11.125 13.4429 11.125Z" fill="#212529"/>
</svg>
