<svg width="24" height="24" viewBox="0 0 24 24" fill="none" xmlns="http://www.w3.org/2000/svg">
<path fill-rule="evenodd" clip-rule="evenodd" d="M12 4C7.58172 4 4 7.58172 4 12C4 16.4183 7.58172 20 12 20C16.4183 20 20 16.4183 20 12C20 7.58172 16.4183 4 12 4ZM2 12C2 6.47715 6.47715 2 12 2C17.5228 2 22 6.47715 22 12C22 17.5228 17.5228 22 12 22C6.47715 22 2 17.5228 2 12ZM13 17C13 17.5523 12.5523 18 12 18C11.4477 18 11 17.5523 11 17C11 16.4477 11.4477 16 12 16C12.5523 16 13 16.4477 13 17ZM10 10C10 8.89543 10.8954 8 12 8C12.6329 8 13.1227 8.18979 13.4439 8.48557C13.7516 8.76895 14 9.23651 14 10C14 10.5055 13.7231 10.8666 13.0471 11.4301C12.9763 11.4891 12.8979 11.5529 12.8148 11.6205C12.5505 11.8356 12.2391 12.089 11.9768 12.3481C11.6138 12.7068 11.2398 13.1709 11.0463 13.7846C10.8802 14.3113 11.1725 14.8729 11.6992 15.039C12.2259 15.2052 12.7876 14.9128 12.9537 14.3861C13.0102 14.2071 13.1362 14.0142 13.3826 13.7708C13.5705 13.585 13.7709 13.4219 14.0115 13.226C14.1096 13.1461 14.2144 13.0608 14.3279 12.9663C15.0269 12.3834 16 11.4945 16 10C16 8.76349 15.5769 7.73105 14.7988 7.01443C14.0341 6.31021 13.024 6 12 6C9.79086 6 8 7.79086 8 10C8 10.5523 8.44772 11 9 11C9.55228 11 10 10.5523 10 10Z" fill="#212529"/>
</svg>
