<svg width="24" height="24" viewBox="0 0 24 24" fill="none" xmlns="http://www.w3.org/2000/svg">
<path fill-rule="evenodd" clip-rule="evenodd" d="M8.41421 2C7.88378 2 7.37507 2.21071 7 2.58579L2.58579 7C2.21071 7.37507 2 7.88378 2 8.41421L2 15.5858C2 16.1162 2.21071 16.6249 2.58579 17L7 21.4142C7.37507 21.7893 7.88378 22 8.41421 22H15.5858C16.1162 22 16.6249 21.7893 17 21.4142L21.4142 17C21.7893 16.6249 22 16.1162 22 15.5858V8.41421C22 7.88378 21.7893 7.37507 21.4142 7L17 2.58578C16.6249 2.21071 16.1162 2 15.5858 2L8.41421 2ZM15.7071 8.29289C16.0976 8.68342 16.0976 9.31658 15.7071 9.70711L13.4142 12L15.7071 14.2929C16.0976 14.6834 16.0976 15.3166 15.7071 15.7071C15.3166 16.0976 14.6834 16.0976 14.2929 15.7071L12 13.4142L9.70711 15.7071C9.31658 16.0976 8.68342 16.0976 8.29289 15.7071C7.90237 15.3166 7.90237 14.6834 8.29289 14.2929L10.5858 12L8.29289 9.70711C7.90237 9.31658 7.90237 8.68342 8.29289 8.29289C8.68342 7.90237 9.31658 7.90237 9.70711 8.29289L12 10.5858L14.2929 8.29289C14.6834 7.90237 15.3166 7.90237 15.7071 8.29289Z" fill="#212529"/>
</svg>
