<svg width="24" height="24" viewBox="0 0 24 24" fill="none" xmlns="http://www.w3.org/2000/svg">
<path fill-rule="evenodd" clip-rule="evenodd" d="M2 12C2 6.47715 6.47715 2 12 2C17.5228 2 22 6.47715 22 12C22 17.5228 17.5228 22 12 22C6.47715 22 2 17.5228 2 12ZM16.7371 9.67573C17.1103 9.26861 17.0828 8.63604 16.6757 8.26285C16.2686 7.88966 15.636 7.91716 15.2628 8.32428L10.5359 13.481L8.76822 11.3598C8.41465 10.9355 7.78409 10.8782 7.35981 11.2318C6.93553 11.5853 6.87821 12.2159 7.23177 12.6402L9.73177 15.6402C9.91649 15.8618 10.1879 15.9929 10.4764 15.9997C10.7648 16.0065 11.0422 15.8884 11.2371 15.6757L16.7371 9.67573Z" fill="#212529"/>
</svg>
