<svg width="24" height="24" viewBox="0 0 24 24" fill="none" xmlns="http://www.w3.org/2000/svg">
<path fill-rule="evenodd" clip-rule="evenodd" d="M12 4C7.58172 4 4 7.58172 4 12C4 16.4183 7.58172 20 12 20C16.4183 20 20 16.4183 20 12C20 7.58172 16.4183 4 12 4ZM2 12C2 6.47715 6.47715 2 12 2C17.5228 2 22 6.47715 22 12C22 17.5228 17.5228 22 12 22C6.47715 22 2 17.5228 2 12ZM16.2426 16.2426C15.8521 16.6332 15.2189 16.6332 14.8284 16.2426L12 13.4142L9.17157 16.2426C8.78104 16.6331 8.14788 16.6331 7.75736 16.2426C7.36683 15.8521 7.36683 15.2189 7.75736 14.8284L10.5858 12L7.75736 9.17156C7.36683 8.78104 7.36683 8.14787 7.75736 7.75735C8.14788 7.36682 8.78105 7.36682 9.17157 7.75735L12 10.5858L14.8284 7.75732C15.2189 7.36679 15.8521 7.36679 16.2426 7.75732C16.6332 8.14784 16.6332 8.78101 16.2426 9.17153L13.4142 12L16.2426 14.8284C16.6332 15.2189 16.6332 15.8521 16.2426 16.2426Z" fill="#212529"/>
</svg>
