<svg width="24" height="24" viewBox="0 0 24 24" fill="none" xmlns="http://www.w3.org/2000/svg">
<path fill-rule="evenodd" clip-rule="evenodd" d="M7 2.58579C7.37507 2.21071 7.88378 2 8.41421 2L15.5858 2C16.1162 2 16.6249 2.21071 17 2.58579L21.4142 7C21.7893 7.37507 22 7.88378 22 8.41421V15.5858C22 16.1162 21.7893 16.6249 21.4142 17L17 21.4142C16.6249 21.7893 16.1162 22 15.5858 22H8.41421C7.88378 22 7.37507 21.7893 7 21.4142L2.58579 17C2.21071 16.6249 2 16.1162 2 15.5858L2 8.41421C2 7.88378 2.21071 7.37507 2.58579 7L7 2.58579ZM15.5858 4L8.41421 4L4 8.41421L4 15.5858L8.41421 20H15.5858L20 15.5858V8.41421L15.5858 4ZM8.29289 8.29289C8.68342 7.90237 9.31658 7.90237 9.70711 8.29289L12 10.5858L14.2929 8.29289C14.6834 7.90237 15.3166 7.90237 15.7071 8.29289C16.0976 8.68342 16.0976 9.31658 15.7071 9.70711L13.4142 12L15.7071 14.2929C16.0976 14.6834 16.0976 15.3166 15.7071 15.7071C15.3166 16.0976 14.6834 16.0976 14.2929 15.7071L12 13.4142L9.70711 15.7071C9.31658 16.0976 8.68342 16.0976 8.29289 15.7071C7.90237 15.3166 7.90237 14.6834 8.29289 14.2929L10.5858 12L8.29289 9.70711C7.90237 9.31658 7.90237 8.68342 8.29289 8.29289Z" fill="#212529"/>
</svg>
