<svg width="24" height="24" viewBox="0 0 24 24" fill="none" xmlns="http://www.w3.org/2000/svg">
<path fill-rule="evenodd" clip-rule="evenodd" d="M8.41421 2C7.88378 2 7.37507 2.21071 7 2.58579L2.58579 7C2.21071 7.37507 2 7.88378 2 8.41421L2 15.5858C2 16.1162 2.21071 16.6249 2.58579 17L7 21.4142C7.37507 21.7893 7.88378 22 8.41421 22H15.5858C16.1162 22 16.6249 21.7893 17 21.4142L21.4142 17C21.7893 16.6249 22 16.1162 22 15.5858V8.41421C22 7.88378 21.7893 7.37507 21.4142 7L17 2.58578C16.6249 2.21071 16.1162 2 15.5858 2L8.41421 2ZM12 7C12.5523 7 13 7.44772 13 8V12C13 12.5523 12.5523 13 12 13C11.4477 13 11 12.5523 11 12V8C11 7.44772 11.4477 7 12 7ZM13 16C13 16.5523 12.5523 17 12 17C11.4477 17 11 16.5523 11 16C11 15.4477 11.4477 15 12 15C12.5523 15 13 15.4477 13 16Z" fill="#212529"/>
</svg>
