<svg width="24" height="24" viewBox="0 0 24 24" fill="none" xmlns="http://www.w3.org/2000/svg">
<path fill-rule="evenodd" clip-rule="evenodd" d="M2 12C2 6.47715 6.47715 2 12 2C17.5228 2 22 6.47715 22 12C22 17.5228 17.5228 22 12 22C6.47715 22 2 17.5228 2 12ZM7.75736 16.2427C7.36683 15.8521 7.36683 15.219 7.75736 14.8284L10.5858 12L7.75736 9.17161C7.36683 8.78109 7.36683 8.14792 7.75736 7.7574C8.14788 7.36688 8.78105 7.36688 9.17157 7.7574L12 10.5858L14.8284 7.75737C15.2189 7.36685 15.8521 7.36685 16.2426 7.75737C16.6332 8.14789 16.6332 8.78106 16.2426 9.17158L13.4142 12L16.2426 14.8285C16.6332 15.219 16.6332 15.8522 16.2426 16.2427C15.8521 16.6332 15.2189 16.6332 14.8284 16.2427L12 13.4142L9.17157 16.2427C8.78104 16.6332 8.14788 16.6332 7.75736 16.2427Z" fill="#212529"/>
</svg>
