<svg width="24" height="24" viewBox="0 0 24 24" fill="none" xmlns="http://www.w3.org/2000/svg">
<path d="M15 3C15.5523 3 16 2.55229 16 2C16 1.44772 15.5523 1 15 1H9C8.44772 1 8 1.44772 8 2C8 2.55228 8.44772 3 9 3L15 3Z" fill="#212529"/>
<path fill-rule="evenodd" clip-rule="evenodd" d="M3 13C3 17.9706 7.02944 22 12 22C16.9706 22 21 17.9706 21 13C21 10.875 20.2635 8.92196 19.0319 7.38228L19.7046 6.70955C20.0951 6.31902 20.0951 5.68586 19.7046 5.29533C19.3141 4.90481 18.6809 4.90481 18.2904 5.29533L17.6177 5.96807C16.078 4.73646 14.125 4 12 4C7.02944 4 3 8.02944 3 13ZM12 10C12.5523 10 13 9.55228 13 9C13 8.44772 12.5523 8 12 8C11.4477 8 11 8.44772 11 9C11 9.55228 11.4477 10 12 10ZM12 12C12.5523 12 13 12.4477 13 13L13 17C13 17.5523 12.5523 18 12 18C11.4477 18 11 17.5523 11 17L11 13C11 12.4477 11.4477 12 12 12Z" fill="#212529"/>
</svg>
