<svg width="24" height="24" viewBox="0 0 24 24" fill="none" xmlns="http://www.w3.org/2000/svg">
<path d="M15 3C15.5523 3 16 2.55229 16 2C16 1.44772 15.5523 1 15 1H9C8.44772 1 8 1.44772 8 2C8 2.55228 8.44772 3 9 3L15 3Z" fill="#212529"/>
<path fill-rule="evenodd" clip-rule="evenodd" d="M3 13C3 17.9706 7.02944 22 12 22C16.9706 22 21 17.9706 21 13C21 10.875 20.2635 8.92196 19.0319 7.38228L19.7046 6.70955C20.0951 6.31902 20.0951 5.68586 19.7046 5.29533C19.3141 4.90481 18.6809 4.90481 18.2904 5.29533L17.6177 5.96807C16.078 4.73646 14.125 4 12 4C7.02944 4 3 8.02944 3 13ZM13.4142 13L15.7071 15.2929C16.0976 15.6834 16.0976 16.3166 15.7071 16.7071C15.3166 17.0976 14.6834 17.0976 14.2929 16.7071L12 14.4142L9.70711 16.7071C9.31658 17.0976 8.68342 17.0976 8.29289 16.7071C7.90237 16.3166 7.90237 15.6834 8.29289 15.2929L10.5858 13L8.29289 10.7071C7.90237 10.3166 7.90237 9.68342 8.29289 9.29289C8.68342 8.90237 9.31658 8.90237 9.70711 9.29289L12 11.5858L14.2929 9.29289C14.6834 8.90237 15.3166 8.90237 15.7071 9.29289C16.0976 9.68342 16.0976 10.3166 15.7071 10.7071L13.4142 13Z" fill="#212529"/>
</svg>
