<svg width="24" height="24" viewBox="0 0 24 24" fill="none" xmlns="http://www.w3.org/2000/svg">
<path d="M6.96493 5.53914C6.96263 5.5407 6.96033 5.54226 6.95803 5.54381L3.70711 2.29289C3.31658 1.90237 2.68342 1.90237 2.29289 2.29289C1.90237 2.68342 1.90237 3.31658 2.29289 3.70711L5.43228 6.8465C3.92376 8.45591 3 10.6201 3 13C3 17.9706 7.02944 22 12 22C14.3799 22 16.5441 21.0762 18.1535 19.5677L20.2929 21.7071C20.6834 22.0976 21.3166 22.0976 21.7071 21.7071C22.0976 21.3166 22.0976 20.6834 21.7071 20.2929L19.4562 18.042C19.4577 18.0397 19.4593 18.0374 19.4609 18.0351L6.96493 5.53914Z" fill="#212529"/>
<path d="M20.4254 16.1712C20.7968 15.1849 21 14.1162 21 13C21 10.875 20.2635 8.92199 19.0319 7.38232L19.7071 6.70711C20.0976 6.31658 20.0976 5.68342 19.7071 5.29289C19.3166 4.90237 18.6834 4.90237 18.2929 5.29289L17.6177 5.9681C16.078 4.73647 14.125 4 12 4C10.8838 4 9.8151 4.20319 8.82881 4.5746L20.4254 16.1712Z" fill="#212529"/>
<path d="M16 2C16 2.55229 15.5523 3 15 3L9 3C8.44772 3 8 2.55228 8 2C8 1.44772 8.44772 1 9 1H15C15.5523 1 16 1.44772 16 2Z" fill="#212529"/>
</svg>
