<svg width="24" height="24" viewBox="0 0 24 24" fill="none" xmlns="http://www.w3.org/2000/svg">
<path d="M16 2C16 2.55229 15.5523 3 15 3L9 3C8.44772 3 8 2.55228 8 2C8 1.44772 8.44772 1 9 1H15C15.5523 1 16 1.44772 16 2Z" fill="#212529"/>
<path d="M17 13C17 13.5523 16.5523 14 16 14H8C7.44771 14 7 13.5523 7 13C7 12.4477 7.44771 12 8 12H16C16.5523 12 17 12.4477 17 13Z" fill="#212529"/>
<path fill-rule="evenodd" clip-rule="evenodd" d="M3 13C3 17.9706 7.02944 22 12 22C16.9706 22 21 17.9706 21 13C21 10.875 20.2635 8.92196 19.0319 7.38228L19.7046 6.70955C20.0951 6.31902 20.0951 5.68586 19.7046 5.29533C19.3141 4.90481 18.6809 4.90481 18.2904 5.29533L17.6177 5.96807C16.078 4.73646 14.125 4 12 4C7.02944 4 3 8.02944 3 13ZM5 13C5 16.866 8.13401 20 12 20C15.866 20 19 16.866 19 13C19 9.13401 15.866 6 12 6C8.13401 6 5 9.13401 5 13Z" fill="#212529"/>
</svg>
