<svg width="24" height="24" viewBox="0 0 24 24" fill="none" xmlns="http://www.w3.org/2000/svg">
<path fill-rule="evenodd" clip-rule="evenodd" d="M3.96531 2.5511L3.70711 2.29289C3.31658 1.90237 2.68342 1.90237 2.29289 2.29289C1.90237 2.68342 1.90237 3.31658 2.29289 3.70711L5.43228 6.8465C3.92376 8.45591 3 10.6201 3 13C3 17.9706 7.02944 22 12 22C14.3799 22 16.5441 21.0762 18.1535 19.5677L20.2929 21.7071C20.6834 22.0976 21.3166 22.0976 21.7071 21.7071C22.0976 21.3166 22.0976 20.6834 21.7071 20.2929L21.2489 19.8347C21.1938 19.7982 21.1414 19.7557 21.0929 19.7071L4.09288 2.70711C4.04432 2.65854 4.0018 2.60623 3.96531 2.5511ZM12 20C13.8276 20 15.4917 19.2996 16.7383 18.1525L6.84745 8.26167C5.70041 9.50834 5 11.1724 5 13C5 16.866 8.13401 20 12 20Z" fill="#212529"/>
<path d="M20.4144 16.2002C20.7928 15.2059 21 14.1271 21 13C21 10.875 20.2635 8.92199 19.0319 7.38232L19.7071 6.70711C20.0976 6.31658 20.0976 5.68342 19.7071 5.29289C19.3166 4.90237 18.6834 4.90237 18.2929 5.29289L17.6177 5.9681C16.078 4.73647 14.125 4 12 4C10.8729 4 9.79412 4.2072 8.79979 4.58558L10.3983 6.18409C10.9127 6.06368 11.4489 6 12 6C15.866 6 19 9.13401 19 13C19 13.5511 18.9363 14.0873 18.8159 14.6017L20.4144 16.2002Z" fill="#212529"/>
<path d="M16 2C16 2.55229 15.5523 3 15 3L9 3C8.44772 3 8 2.55228 8 2C8 1.44772 8.44772 1 9 1H15C15.5523 1 16 1.44772 16 2Z" fill="#212529"/>
</svg>
