<svg width="24" height="24" viewBox="0 0 24 24" fill="none" xmlns="http://www.w3.org/2000/svg">
<path d="M13.5 6H10.5C9.11929 6 8 7.11929 8 8.5C8 8.67123 8.01722 8.83845 8.05001 9H6.02746C6.00932 8.83583 6 8.669 6 8.5C6 6.01472 8.01472 4 10.5 4H13.5C15.428 4 17.0728 5.21251 17.7135 6.91659C17.9232 7.47426 17.4517 8 16.8559 8H16.7674C16.2918 8 15.8997 7.65031 15.6596 7.23976C15.2259 6.49816 14.4211 6 13.5 6Z" fill="#212529"/>
<path d="M19 11H5C4.44772 11 4 11.4477 4 12C4 12.5523 4.44772 13 5 13H13.5C13.6712 13 13.8384 13.0172 14 13.05C15.1411 13.2816 16 14.2905 16 15.5C16 16.8807 14.8807 18 13.5 18H10.5C9.57888 18 8.77411 17.5018 8.34041 16.7602C8.10032 16.3497 7.70821 16 7.23261 16H7.1441C6.54831 16 6.07681 16.5257 6.28648 17.0834C6.92716 18.7875 8.57198 20 10.5 20H13.5C15.9853 20 18 17.9853 18 15.5C18 14.5749 17.7209 13.715 17.2422 13H19C19.5523 13 20 12.5523 20 12C20 11.4477 19.5523 11 19 11Z" fill="#212529"/>
</svg>
