<?xml version="1.0" encoding="UTF-8"?>
<svg xmlns="http://www.w3.org/2000/svg" width="24" height="24" viewBox="0 0 24 24" fill="none"><path d="M14 9C15.6569 9 17 7.65685 17 6C17 4.34315 15.6569 3 14 3C12.3431 3 11 4.34315 11 6C11 7.65685 12.3431 9 14 9Z" transform="translate(2 6)" fill="#212529" fill-rule="nonzero" opacity="1" /><path d="M0 6C0 2.68629 2.68629 0 6 0L14 0C17.3137 0 20 2.68629 20 6C20 9.31371 17.3137 12 14 12L6 12C2.68629 12 0 9.31371 0 6ZM6 2L14 2C16.2091 2 18 3.79086 18 6C18 8.20914 16.2091 10 14 10L6 10C3.79086 10 2 8.20914 2 6C2 3.79086 3.79086 2 6 2Z" transform="translate(2 6)" fill="#212529" fill-rule="evenodd" opacity="1" /></svg>
