<?xml version="1.0" encoding="UTF-8"?>
<svg xmlns="http://www.w3.org/2000/svg" width="24" height="24" viewBox="0 0 24 24" fill="none"><path d="M13 4.5C13 5.32843 12.3284 6 11.5 6C10.6716 6 10 5.32843 10 4.5C10 3.67157 10.6716 3 11.5 3C12.3284 3 13 3.67157 13 4.5Z" transform="translate(4 2)" fill="#212529" fill-rule="nonzero" opacity="1" /><path d="M0 4.5C0 2.01472 2.01472 0 4.5 0L11.5 0C13.9853 0 16 2.01472 16 4.5C16 6.98528 13.9853 9 11.5 9L4.5 9C2.01472 9 0 6.98528 0 4.5ZM4.5 2L11.5 2C12.8807 2 14 3.11929 14 4.5C14 5.88071 12.8807 7 11.5 7L4.5 7C3.11929 7 2 5.88071 2 4.5C2 3.11929 3.11929 2 4.5 2Z" transform="translate(4 2)" fill="#212529" fill-rule="evenodd" opacity="1" /><path d="M4.5 17C5.32843 17 6 16.3284 6 15.5C6 14.6716 5.32843 14 4.5 14C3.67157 14 3 14.6716 3 15.5C3 16.3284 3.67157 17 4.5 17Z" transform="translate(4 2)" fill="#212529" fill-rule="nonzero" opacity="1" /><path d="M0 15.5C0 13.0147 2.01472 11 4.5 11L11.5 11C13.9853 11 16 13.0147 16 15.5C16 17.9853 13.9853 20 11.5 20L4.5 20C2.01472 20 0 17.9853 0 15.5ZM4.5 13L11.5 13C12.8807 13 14 14.1193 14 15.5C14 16.8807 12.8807 18 11.5 18L4.5 18C3.11929 18 2 16.8807 2 15.5C2 14.1193 3.11929 13 4.5 13Z" transform="translate(4 2)" fill="#212529" fill-rule="evenodd" opacity="1" /></svg>
