<svg width="24" height="24" viewBox="0 0 24 24" fill="none" xmlns="http://www.w3.org/2000/svg">
<path fill-rule="evenodd" clip-rule="evenodd" d="M4 4C3.44772 4 3 4.44772 3 5C3 5.55228 3.44772 6 4 6H8V19C8 19.5523 8.44772 20 9 20C9.55228 20 10 19.5523 10 19V6L14 6C14.5523 6 15 5.55228 15 5C15 4.44772 14.5523 4 14 4L4 4ZM14 10C13.4477 10 13 10.4477 13 11C13 11.5523 13.4477 12 14 12H16V19C16 19.5523 16.4477 20 17 20C17.5523 20 18 19.5523 18 19V12H20C20.5523 12 21 11.5523 21 11C21 10.4477 20.5523 10 20 10H17H14Z" fill="#212529"/>
</svg>
