<svg width="24" height="24" viewBox="0 0 24 24" fill="none" xmlns="http://www.w3.org/2000/svg">
<path fill-rule="evenodd" clip-rule="evenodd" d="M3 5C3 3.34315 4.34315 2 6 2L18 2C19.6569 2 21 3.34315 21 5V13C21 14.6569 19.6569 16 18 16H13V17.1707C13.857 17.4736 14.5352 18.1548 14.8341 19.0137C14.8881 19.0047 14.9435 19 15 19H20C20.5523 19 21 19.4477 21 20C21 20.5523 20.5523 21 20 21H15C14.9435 21 14.8881 20.9953 14.8341 20.9863C14.4262 22.1586 13.3113 23 12 23C10.6887 23 9.57385 22.1586 9.1659 20.9863C9.11194 20.9953 9.05652 21 9 21H4C3.44772 21 3 20.5523 3 20C3 19.4477 3.44772 19 4 19H9C9.05652 19 9.11194 19.0047 9.1659 19.0137C9.46477 18.1548 10.143 17.4736 11 17.1707V16H6C4.34315 16 3 14.6569 3 13L3 5ZM6 4C5.44772 4 5 4.44772 5 5V13C5 13.5523 5.44772 14 6 14H18C18.5523 14 19 13.5523 19 13V5C19 4.44772 18.5523 4 18 4L6 4ZM11 20C11 19.4477 11.4477 19 12 19C12.5523 19 13 19.4477 13 20C13 20.5523 12.5523 21 12 21C11.4477 21 11 20.5523 11 20Z" fill="#212529"/>
</svg>
