<svg width="24" height="24" viewBox="0 0 24 24" fill="none" xmlns="http://www.w3.org/2000/svg">
<path d="M24 5C24 7.20914 22.2091 9 20 9C17.7909 9 16 7.20914 16 5C16 2.79086 17.7909 1 20 1C22.2091 1 24 2.79086 24 5Z" fill="#F34257"/>
<path fill-rule="evenodd" clip-rule="evenodd" d="M14.3414 3H6C4.34315 3 3 4.34315 3 6V14C3 15.6569 4.34315 17 6 17H11V18.1707C10.143 18.4736 9.46477 19.1548 9.1659 20.0137C9.11194 20.0047 9.05652 20 9 20H4C3.44772 20 3 20.4477 3 21C3 21.5523 3.44772 22 4 22H9C9.05652 22 9.11194 21.9953 9.1659 21.9863C9.57385 23.1586 10.6887 24 12 24C13.3113 24 14.4262 23.1586 14.8341 21.9863C14.8881 21.9953 14.9435 22 15 22H20C20.5523 22 21 21.5523 21 21C21 20.4477 20.5523 20 20 20H15C14.9435 20 14.8881 20.0047 14.8341 20.0137C14.5352 19.1548 13.857 18.4736 13 18.1707V17H18C19.6569 17 21 15.6569 21 14V10.917C20.6748 10.9716 20.3407 11 20 11C19.6593 11 19.3252 10.9716 19 10.917V14C19 14.5523 18.5523 15 18 15H6C5.44772 15 5 14.5523 5 14V6C5 5.44772 5.44772 5 6 5H14C14 4.29873 14.1203 3.62556 14.3414 3ZM12 20C11.4477 20 11 20.4477 11 21C11 21.5523 11.4477 22 12 22C12.5523 22 13 21.5523 13 21C13 20.4477 12.5523 20 12 20Z" fill="#212529"/>
</svg>
