<svg width="24" height="24" viewBox="0 0 24 24" fill="none" xmlns="http://www.w3.org/2000/svg">
<path fill-rule="evenodd" clip-rule="evenodd" d="M6 2C4.34315 2 3 3.34315 3 5V13C3 14.6569 4.34315 16 6 16H11V17.1707C10.143 17.4736 9.46477 18.1548 9.1659 19.0137C9.11194 19.0047 9.05652 19 9 19H4C3.44772 19 3 19.4477 3 20C3 20.5523 3.44772 21 4 21H9C9.05652 21 9.11194 20.9953 9.1659 20.9863C9.57385 22.1586 10.6887 23 12 23C13.3113 23 14.4262 22.1586 14.8341 20.9863C14.8881 20.9953 14.9435 21 15 21H20C20.5523 21 21 20.5523 21 20C21 19.4477 20.5523 19 20 19H15C14.9435 19 14.8881 19.0047 14.8341 19.0137C14.5352 18.1548 13.857 17.4736 13 17.1707V16H18C19.6569 16 21 14.6569 21 13V5C21 3.34315 19.6569 2 18 2H6ZM12 19C11.4477 19 11 19.4477 11 20C11 20.5523 11.4477 21 12 21C12.5523 21 13 20.5523 13 20C13 19.4477 12.5523 19 12 19Z" fill="#212529"/>
</svg>
