<svg width="24" height="24" viewBox="0 0 24 24" fill="none" xmlns="http://www.w3.org/2000/svg">
<path d="M8 5C8 4.44772 7.55228 4 7 4C6.44772 4 6 4.44772 6 5V12C6 15.3137 8.68629 18 12 18C15.3137 18 18 15.3137 18 12V5C18 4.44772 17.5523 4 17 4C16.4477 4 16 4.44772 16 5V12C16 14.2091 14.2091 16 12 16C9.79086 16 8 14.2091 8 12V5Z" fill="#212529"/>
<path d="M5 20C4.44772 20 4 20.4477 4 21C4 21.5523 4.44772 22 5 22H19C19.5523 22 20 21.5523 20 21C20 20.4477 19.5523 20 19 20H5Z" fill="#212529"/>
</svg>
