<svg width="24" height="24" viewBox="0 0 24 24" fill="none" xmlns="http://www.w3.org/2000/svg">
<path d="M20.0634 15.3511C18.7317 11.7999 15.5677 10 11.9998 10C9.04728 10 6.51483 11.6009 5.13362 14H8.99973C9.55201 14 9.99973 14.4477 9.99973 15C9.99973 15.5523 9.55201 16 8.99973 16H2.99973C2.44744 16 1.99973 15.5523 1.99973 15V9C1.99973 8.44772 2.44744 8 2.99973 8C3.55201 8 3.99973 8.44772 3.99973 9V12.0804C5.8019 9.61126 8.68536 8 11.9998 8C16.2691 8 20.2678 10.2001 21.9361 14.6489C22.13 15.166 21.868 15.7424 21.3508 15.9363C20.8337 16.1302 20.2573 15.8682 20.0634 15.3511Z" fill="#212529"/>
</svg>
