<svg width="24" height="24" viewBox="0 0 24 24" fill="none" xmlns="http://www.w3.org/2000/svg">
<path d="M7.58162 2.09172C8.08324 1.86066 8.6772 2.08 8.90827 2.58162L9.74501 4.39817C9.97608 4.8998 9.75674 5.49376 9.25511 5.72482C8.75349 5.95588 8.15953 5.73655 7.92846 5.23492L7.09172 3.41837C6.86065 2.91675 7.07999 2.32278 7.58162 2.09172Z" fill="#212529"/>
<path d="M16.2426 12C15.8521 12.3905 15.8521 13.0237 16.2426 13.4142C16.6331 13.8047 17.2663 13.8047 17.6568 13.4142L20.4853 10.5858C22.4379 8.63315 22.4379 5.46732 20.4853 3.5147C18.5326 1.56208 15.3668 1.56208 13.4142 3.5147L10.5858 6.34313C10.1952 6.73365 10.1952 7.36682 10.5858 7.75734C10.9763 8.14787 11.6095 8.14787 12 7.75734L14.8284 4.92892C16 3.75734 17.8995 3.75734 19.071 4.92892C20.2426 6.10049 20.2426 7.99998 19.071 9.17156L16.2426 12Z" fill="#212529"/>
<path d="M12 16.2427C12.3905 15.8521 13.0237 15.8521 13.4142 16.2427C13.8047 16.6332 13.8047 17.2663 13.4142 17.6569L10.5858 20.4853C8.63314 22.4379 5.46732 22.4379 3.51469 20.4853C1.56207 18.5327 1.56207 15.3669 3.5147 13.4142L6.34312 10.5858C6.73365 10.1953 7.36681 10.1953 7.75734 10.5858C8.14786 10.9763 8.14786 11.6095 7.75734 12L4.92891 14.8284C3.75734 16 3.75734 17.8995 4.92891 19.0711C6.10048 20.2427 7.99998 20.2427 9.17155 19.0711L12 16.2427Z" fill="#212529"/>
<path d="M3.29289 3.29289C3.68341 2.90237 4.31658 2.90237 4.7071 3.29289L7.48528 6.07109C7.87581 6.46162 7.8758 7.09478 7.48528 7.4853C7.09475 7.87583 6.46159 7.87583 6.07106 7.4853L3.29288 4.7071C2.90236 4.31658 2.90236 3.68341 3.29289 3.29289Z" fill="#212529"/>
<path d="M3.42835 7.09639C2.9293 6.85981 2.33296 7.07259 2.09638 7.57164C1.85981 8.07069 2.07258 8.66703 2.57163 8.90361L4.37885 9.76032C4.8779 9.9969 5.47424 9.78412 5.71082 9.28507C5.94739 8.78602 5.73462 8.18968 5.23557 7.95311L3.42835 7.09639Z" fill="#212529"/>
<path d="M17.7071 16.2929C17.3166 15.9024 16.6834 15.9024 16.2929 16.2929C15.9024 16.6834 15.9024 17.3166 16.2929 17.7071L19.0711 20.4853C19.4616 20.8758 20.0947 20.8758 20.4853 20.4853C20.8758 20.0947 20.8758 19.4616 20.4853 19.0711L17.7071 16.2929Z" fill="#212529"/>
<path d="M18.0964 14.5716C18.333 14.0726 18.9293 13.8598 19.4283 14.0964L21.2356 14.9531C21.7346 15.1897 21.9474 15.786 21.7108 16.2851C21.4742 16.7841 20.8779 16.9969 20.3788 16.7603L18.5716 15.9036C18.0726 15.667 17.8598 15.0707 18.0964 14.5716Z" fill="#212529"/>
<path d="M15.9083 18.5816C15.6772 18.08 15.0832 17.8607 14.5816 18.0917C14.08 18.3228 13.8607 18.9167 14.0917 19.4184L14.9285 21.2349C15.1595 21.7365 15.7535 21.9559 16.2551 21.7248C16.7567 21.4938 16.9761 20.8998 16.745 20.3982L15.9083 18.5816Z" fill="#212529"/>
</svg>
