<svg width="24" height="24" viewBox="0 0 24 24" fill="none" xmlns="http://www.w3.org/2000/svg">
<path d="M9 5.74782C9 4.28903 10.2813 2.99805 12 2.99805C12.7272 2.99805 13.3861 3.23426 13.8992 3.61991C14.2191 3.86026 14.4804 4.15717 14.6676 4.48919C14.9389 4.97027 15.5488 5.14038 16.0298 4.86913C16.5109 4.59788 16.681 3.98799 16.4098 3.50691C16.0823 2.92602 15.6338 2.42162 15.1008 2.02105C14.2443 1.37747 13.1647 0.998047 12 0.998047C9.30041 0.998047 7 3.06472 7 5.74782L7.00001 7.99805C5.34316 7.99805 4 9.34119 4 10.998V18.998C4 20.6549 5.34315 21.998 7 21.998H17C18.6569 21.998 20 20.6549 20 18.998V10.998C20 9.34119 18.6569 7.99805 17 7.99805H9.00001L9 5.74782Z" fill="#212529"/>
</svg>
