<svg width="24" height="24" viewBox="0 0 24 24" fill="none" xmlns="http://www.w3.org/2000/svg">
<path fill-rule="evenodd" clip-rule="evenodd" d="M3.96531 2.5511L3.70711 2.29289C3.31658 1.90237 2.68342 1.90237 2.29289 2.29289C1.90237 2.68342 1.90237 3.31658 2.29289 3.70711L6.6108 8.02501C5.13782 8.21583 4 9.47504 4 11V19C4 20.6569 5.34315 22 7 22H17C17.9778 22 18.8463 21.5322 19.394 20.8082L20.2929 21.7071C20.6834 22.0976 21.3166 22.0976 21.7071 21.7071C22.0976 21.3166 22.0976 20.6834 21.7071 20.2929L21.2489 19.8347C21.1938 19.7982 21.1414 19.7557 21.0929 19.7071L4.09288 2.70711C4.04432 2.65854 4.0018 2.60623 3.96531 2.5511ZM7 10H8.58579L17.9367 19.3509C17.7946 19.7301 17.4288 20 17 20H7C6.44772 20 6 19.5523 6 19V11C6 10.4477 6.44772 10 7 10Z" fill="#212529"/>
<path d="M20 15.7858V11C20 9.34315 18.6569 8 17 8H12.2142L14.2142 10H17C17.5523 10 18 10.4477 18 11V13.7858L20 15.7858Z" fill="#212529"/>
<path d="M9.13943 4.92523C9.51541 3.8373 10.6159 3 12 3C12.7272 3 13.3861 3.23621 13.8992 3.62186C14.2191 3.86222 14.4804 4.15913 14.6676 4.49114C14.9389 4.97222 15.5488 5.14233 16.0298 4.87108C16.5109 4.59983 16.681 3.98995 16.4098 3.50886C16.0823 2.92797 15.6338 2.42357 15.1008 2.023C14.2443 1.37942 13.1647 1 12 1C10.1592 1 8.504 1.96093 7.63719 3.42299L9.13943 4.92523Z" fill="#212529"/>
</svg>
