<svg width="24" height="24" viewBox="0 0 24 24" fill="none" xmlns="http://www.w3.org/2000/svg">
<path d="M3.96531 2.5511L3.70711 2.29289C3.31658 1.90237 2.68342 1.90237 2.29289 2.29289C1.90237 2.68342 1.90237 3.31658 2.29289 3.70711L6.6108 8.02501C5.13782 8.21583 4 9.47504 4 11V19C4 20.6569 5.34315 22 7 22H17C17.9778 22 18.8463 21.5322 19.394 20.8082L20.2929 21.7071C20.6834 22.0976 21.3166 22.0976 21.7071 21.7071C22.0976 21.3166 22.0976 20.6834 21.7071 20.2929L21.2489 19.8347C21.1938 19.7982 21.1414 19.7557 21.0929 19.7071L4.09288 2.70711C4.04432 2.65854 4.0018 2.60623 3.96531 2.5511Z" fill="#212529"/>
<path d="M20 15.7858V11C20 9.34315 18.6569 8 17 8V6C17 3.23858 14.7614 1 12 1C10.1611 1 8.55411 1.99268 7.68559 3.47139L9.18222 4.96802C9.60295 3.81956 10.7058 3 12 3C13.6569 3 15 4.34315 15 6V8H12.2142L20 15.7858Z" fill="#212529"/>
</svg>
