<svg width="24" height="24" viewBox="0 0 24 24" fill="none" xmlns="http://www.w3.org/2000/svg">
<path d="M16.9497 16.9497C17.3403 16.5592 17.3403 15.9261 16.9497 15.5355C16.5592 15.145 15.9261 15.145 15.5355 15.5355C15.145 15.9261 15.145 16.5592 15.5355 16.9497C15.9261 17.3403 16.5592 17.3403 16.9497 16.9497Z" fill="#212529"/>
<path fill-rule="evenodd" clip-rule="evenodd" d="M2.80761 7.05028C1.63604 8.22185 1.63604 10.1213 2.80761 11.2929L12.7071 21.1924C13.8787 22.364 15.7782 22.364 16.9497 21.1924L21.1924 16.9498C22.364 15.7782 22.364 13.8787 21.1924 12.7071L11.2929 2.80763C10.1213 1.63606 8.22183 1.63606 7.05025 2.80763L2.80761 7.05028ZM8.46447 4.22185L4.22183 8.46449C3.8313 8.85501 3.8313 9.48818 4.22183 9.8787L14.1213 19.7782C14.5118 20.1687 15.145 20.1687 15.5355 19.7782L19.7782 15.5356C20.1687 15.145 20.1687 14.5119 19.7782 14.1213L9.87868 4.22185C9.48816 3.83132 8.85499 3.83132 8.46447 4.22185Z" fill="#212529"/>
<path d="M18.364 4.22184C17.9734 3.83132 17.9734 3.19815 18.364 2.80763C18.7545 2.4171 19.3876 2.4171 19.7782 2.80763L21.1924 4.22184C21.5829 4.61237 21.5829 5.24553 21.1924 5.63606C20.8019 6.02658 20.1687 6.02658 19.7782 5.63606L18.364 4.22184Z" fill="#212529"/>
<path d="M14.8284 3.51472C14.4379 3.90525 14.4379 4.53841 14.8284 4.92893L19.0711 9.17158C19.4616 9.5621 20.0948 9.5621 20.4853 9.17158C20.8758 8.78105 20.8758 8.14789 20.4853 7.75736L16.2426 3.51472C15.8521 3.1242 15.219 3.1242 14.8284 3.51472Z" fill="#212529"/>
<path d="M3.51471 14.8284C3.12419 15.219 3.12419 15.8521 3.51471 16.2427L7.75735 20.4853C8.14788 20.8758 8.78104 20.8758 9.17157 20.4853C9.56209 20.0948 9.56209 19.4616 9.17157 19.0711L4.92893 14.8284C4.5384 14.4379 3.90524 14.4379 3.51471 14.8284Z" fill="#212529"/>
<path d="M2.80761 18.364C2.41708 18.7545 2.41708 19.3877 2.80761 19.7782L4.22182 21.1924C4.61234 21.5829 5.24551 21.5829 5.63603 21.1924C6.02656 20.8019 6.02656 20.1687 5.63603 19.7782L4.22182 18.364C3.8313 17.9734 3.19813 17.9734 2.80761 18.364Z" fill="#212529"/>
</svg>
