<svg width="24" height="24" viewBox="0 0 24 24" fill="none" xmlns="http://www.w3.org/2000/svg">
<path fill-rule="evenodd" clip-rule="evenodd" d="M2.80761 11.2929C1.63604 10.1213 1.63604 8.22185 2.80761 7.05028L7.05025 2.80763C8.22183 1.63606 10.1213 1.63606 11.2929 2.80763L21.1924 12.7071C22.364 13.8787 22.364 15.7782 21.1924 16.9498L16.9497 21.1924C15.7782 22.364 13.8787 22.364 12.7071 21.1924L2.80761 11.2929ZM16.9498 15.5355C17.3403 15.9261 17.3403 16.5592 16.9498 16.9497C16.5592 17.3403 15.9261 17.3403 15.5355 16.9497C15.145 16.5592 15.145 15.9261 15.5355 15.5355C15.9261 15.145 16.5592 15.145 16.9498 15.5355Z" fill="#212529"/>
<path d="M18.364 2.80763C17.9734 3.19816 17.9734 3.83132 18.364 4.22185L19.7782 5.63606C20.1687 6.02658 20.8019 6.02658 21.1924 5.63606C21.5829 5.24554 21.5829 4.61237 21.1924 4.22185L19.7782 2.80763C19.3876 2.41711 18.7545 2.41711 18.364 2.80763Z" fill="#212529"/>
<path d="M14.8284 4.92894C14.4379 4.53841 14.4379 3.90525 14.8284 3.51473C15.219 3.1242 15.8521 3.1242 16.2426 3.51473L20.4853 7.75737C20.8758 8.14789 20.8758 8.78106 20.4853 9.17158C20.0948 9.5621 19.4616 9.5621 19.0711 9.17158L14.8284 4.92894Z" fill="#212529"/>
<path d="M3.51472 16.2427C3.1242 15.8521 3.1242 15.219 3.51472 14.8284C3.90524 14.4379 4.53841 14.4379 4.92893 14.8284L9.17157 19.0711C9.5621 19.4616 9.5621 20.0948 9.17157 20.4853C8.78105 20.8758 8.14788 20.8758 7.75736 20.4853L3.51472 16.2427Z" fill="#212529"/>
<path d="M2.80761 19.7782C2.41709 19.3877 2.41709 18.7545 2.80761 18.364C3.19814 17.9734 3.8313 17.9734 4.22183 18.364L5.63604 19.7782C6.02656 20.1687 6.02656 20.8019 5.63604 21.1924C5.24552 21.5829 4.61235 21.5829 4.22183 21.1924L2.80761 19.7782Z" fill="#212529"/>
</svg>
