<svg width="24" height="24" viewBox="0 0 24 24" fill="none" xmlns="http://www.w3.org/2000/svg">
<path fill-rule="evenodd" clip-rule="evenodd" d="M5 4C3.34315 4 2 5.34315 2 7V17C2 18.6569 3.34315 20 5 20H15C16.6569 20 18 18.6569 18 17V15.3662L20.4855 16.8575C20.7944 17.0429 21.1792 17.0477 21.4927 16.8702C21.8062 16.6927 22 16.3603 22 16V8C22 7.63973 21.8062 7.30731 21.4927 7.1298C21.1792 6.95229 20.7944 6.95715 20.4855 7.14251L18 8.63381V7C18 5.34315 16.6569 4 15 4H5ZM18 10.9662V13.0338L20 14.2338V9.76619L18 10.9662ZM16 9.83381V7C16 6.44772 15.5523 6 15 6H5C4.44772 6 4 6.44772 4 7V17C4 17.5523 4.44772 18 5 18H15C15.5523 18 16 17.5523 16 17V14.1662V9.83381ZM6 12C6 11.4477 6.44772 11 7 11L13 11C13.5523 11 14 11.4477 14 12C14 12.5523 13.5523 13 13 13H7C6.44772 13 6 12.5523 6 12Z" fill="#212529"/>
</svg>
