<svg width="24" height="24" viewBox="0 0 24 24" fill="none" xmlns="http://www.w3.org/2000/svg">
<path fill-rule="evenodd" clip-rule="evenodd" d="M5 4C3.34315 4 2 5.34315 2 7V17C2 18.6569 3.34315 20 5 20H15C16.6569 20 18 18.6569 18 17V15.3662L20.4855 16.8575C20.7944 17.0429 21.1792 17.0477 21.4927 16.8702C21.8062 16.6927 22 16.3603 22 16V8C22 7.63973 21.8062 7.30731 21.4927 7.1298C21.1792 6.95229 20.7944 6.95715 20.4855 7.14251L18 8.63381V7C18 5.34315 16.6569 4 15 4H5ZM18 10.9662V13.0338L20 14.2338V9.76619L18 10.9662ZM4 7C4 6.44772 4.44772 6 5 6H15C15.5523 6 16 6.44772 16 7V17C16 17.5523 15.5523 18 15 18H5C4.44772 18 4 17.5523 4 17V7Z" fill="#212529"/>
</svg>
