<svg width="24" height="24" viewBox="0 0 24 24" fill="none" xmlns="http://www.w3.org/2000/svg">
<path fill-rule="evenodd" clip-rule="evenodd" d="M2 7C2 5.34315 3.34315 4 5 4H15C16.6569 4 18 5.34315 18 7V8.63381L20.4855 7.14251C20.7944 6.95715 21.1792 6.95229 21.4927 7.1298C21.8062 7.30731 22 7.63973 22 8V16C22 16.3603 21.8062 16.6927 21.4927 16.8702C21.1792 17.0477 20.7944 17.0429 20.4855 16.8575L18 15.3662V17C18 18.6569 16.6569 20 15 20H5C3.34315 20 2 18.6569 2 17V7ZM11 9C11 9.55229 10.5523 10 10 10C9.44772 10 9 9.55228 9 9C9 8.44771 9.44772 8 10 8C10.5523 8 11 8.44772 11 9ZM10 11C10.5523 11 11 11.4477 11 12L11 15C11 15.5523 10.5523 16 10 16C9.44771 16 9 15.5523 9 15L9 12C9 11.4477 9.44772 11 10 11Z" fill="#212529"/>
</svg>
