<svg width="24" height="24" viewBox="0 0 24 24" fill="none" xmlns="http://www.w3.org/2000/svg">
<path fill-rule="evenodd" clip-rule="evenodd" d="M3.70711 2.29289L3.87839 2.46418C3.92454 2.55221 3.98471 2.63481 4.05888 2.70866L18.6523 17.2381L21.7071 20.2929C22.0976 20.6834 22.0976 21.3166 21.7071 21.7071C21.3166 22.0976 20.6834 22.0976 20.2929 21.7071L17.394 18.8082C16.8463 19.5322 15.9778 20 15 20H5C3.34315 20 2 18.6569 2 17V7C2 6.02221 2.46779 5.15368 3.19177 4.60598L2.29289 3.70711C1.90237 3.31658 1.90237 2.68342 2.29289 2.29289C2.68342 1.90237 3.31658 1.90237 3.70711 2.29289ZM22 17C22 17.208 21.9354 17.4063 21.8211 17.5708L20 15.7576V15V13V9.00001L18 10.5V13V13.5V13.7664L16 11.7752V7C16 6.44772 15.5523 6 15 6H10.1994L8.19057 4H15C16.6569 4 18 5.34315 18 7V8.00001L20.4 6.20001C20.703 5.97274 21.1084 5.93619 21.4472 6.10558C21.786 6.27497 22 6.62123 22 7.00001V17ZM4.64909 6.0633C4.2699 6.20542 4 6.57119 4 7V17C4 17.5523 4.44772 18 5 18H15C15.4288 18 15.7946 17.7301 15.9367 17.3509L4.64909 6.0633Z" fill="#212529"/>
</svg>
