<svg width="24" height="24" viewBox="0 0 24 24" fill="none" xmlns="http://www.w3.org/2000/svg">
<path fill-rule="evenodd" clip-rule="evenodd" d="M2 7C2 5.34315 3.34315 4 5 4H15C16.6569 4 18 5.34315 18 7V8.63381L20.4855 7.14251C20.7944 6.95715 21.1792 6.95229 21.4927 7.1298C21.8062 7.30731 22 7.63973 22 8V16C22 16.3603 21.8062 16.6927 21.4927 16.8702C21.1792 17.0477 20.7944 17.0429 20.4855 16.8575L18 15.3662V17C18 18.6569 16.6569 20 15 20H5C3.34315 20 2 18.6569 2 17V7ZM7 11C6.44772 11 6 11.4477 6 12C6 12.5523 6.44772 13 7 13H13C13.5523 13 14 12.5523 14 12C14 11.4477 13.5523 11 13 11H7Z" fill="#212529"/>
</svg>
