<svg width="24" height="24" viewBox="0 0 24 24" fill="none" xmlns="http://www.w3.org/2000/svg">
<path fill-rule="evenodd" clip-rule="evenodd" d="M2 7C2 5.34315 3.34315 4 5 4H15C16.6569 4 18 5.34315 18 7V8.63381L20.4855 7.14251C20.7944 6.95715 21.1792 6.95229 21.4927 7.1298C21.8062 7.30731 22 7.63973 22 8V16C22 16.3603 21.8062 16.6927 21.4927 16.8702C21.1792 17.0477 20.7944 17.0429 20.4855 16.8575L18 15.3662V17C18 18.6569 16.6569 20 15 20H5C3.34315 20 2 18.6569 2 17V7ZM18 13.0338V10.9662L20 9.76619V14.2338L18 13.0338ZM5 6C4.44772 6 4 6.44772 4 7V17C4 17.5523 4.44772 18 5 18H15C15.5523 18 16 17.5523 16 17V7C16 6.44772 15.5523 6 15 6H5ZM13.7071 10.7071C14.0976 10.3166 14.0976 9.68342 13.7071 9.29289C13.3166 8.90237 12.6834 8.90237 12.2929 9.29289L9 12.5858L7.70711 11.2929C7.31658 10.9024 6.68342 10.9024 6.29289 11.2929C5.90237 11.6834 5.90237 12.3166 6.29289 12.7071L8.29289 14.7071C8.68342 15.0976 9.31658 15.0976 9.70711 14.7071L13.7071 10.7071Z" fill="#212529"/>
</svg>
