<svg width="24" height="24" viewBox="0 0 24 24" fill="none" xmlns="http://www.w3.org/2000/svg">
<path fill-rule="evenodd" clip-rule="evenodd" d="M5 4C3.34315 4 2 5.34315 2 7V17C2 18.6569 3.34315 20 5 20H15C16.6569 20 18 18.6569 18 17V15.3662L20.4855 16.8575C20.7944 17.0429 21.1792 17.0477 21.4927 16.8702C21.8062 16.6927 22 16.3603 22 16V8C22 7.63973 21.8062 7.30731 21.4927 7.1298C21.1792 6.95229 20.7944 6.95715 20.4855 7.14251L18 8.63381V7C18 5.34315 16.6569 4 15 4H5ZM20 9.76619L18 10.9662V13.0338L20 14.2338V9.76619ZM4 7C4 6.44772 4.44772 6 5 6H15C15.5523 6 16 6.44772 16 7V17C16 17.5523 15.5523 18 15 18H5C4.44772 18 4 17.5523 4 17V7ZM7.29289 9.29289C7.68342 8.90237 8.31658 8.90237 8.70711 9.29289L10 10.5858L11.2929 9.29289C11.6834 8.90237 12.3166 8.90237 12.7071 9.29289C13.0976 9.68342 13.0976 10.3166 12.7071 10.7071L11.4142 12L12.7071 13.2929C13.0976 13.6834 13.0976 14.3166 12.7071 14.7071C12.3166 15.0976 11.6834 15.0976 11.2929 14.7071L10 13.4142L8.70711 14.7071C8.31658 15.0976 7.68342 15.0976 7.29289 14.7071C6.90237 14.3166 6.90237 13.6834 7.29289 13.2929L8.58579 12L7.29289 10.7071C6.90237 10.3166 6.90237 9.68342 7.29289 9.29289Z" fill="#212529"/>
</svg>
