<svg width="24" height="24" viewBox="0 0 24 24" fill="none" xmlns="http://www.w3.org/2000/svg">
<path fill-rule="evenodd" clip-rule="evenodd" d="M3.70711 2.29289C3.31658 1.90237 2.68342 1.90237 2.29289 2.29289C1.90237 2.68342 1.90237 3.31658 2.29289 3.70711L3.19177 4.60598C2.46779 5.15368 2 6.02221 2 7V17C2 18.6569 3.34315 20 5 20H15C15.9778 20 16.8463 19.5322 17.394 18.8082L20.2929 21.7071C20.6834 22.0976 21.3166 22.0976 21.7071 21.7071C22.0976 21.3166 22.0976 20.6834 21.7071 20.2929C15.7071 14.2929 9.70711 8.2929 3.70711 2.29289ZM21.8188 17.5741C21.9346 17.409 22 17.2095 22 17V7.00001C22 6.62123 21.786 6.27497 21.4472 6.10558C21.1084 5.93619 20.703 5.97274 20.4 6.20001L18 8.00001V7C18 5.34315 16.6569 4 15 4H8.18486L21.8188 17.5741Z" fill="#212529"/>
</svg>
