<svg width="24" height="24" viewBox="0 0 24 24" fill="none" xmlns="http://www.w3.org/2000/svg">
<path fill-rule="evenodd" clip-rule="evenodd" d="M2 7C2 5.34315 3.34315 4 5 4H15C16.6569 4 18 5.34315 18 7V8.63381L20.4855 7.14251C20.7944 6.95715 21.1792 6.95229 21.4927 7.1298C21.8062 7.30731 22 7.63973 22 8V16C22 16.3603 21.8062 16.6927 21.4927 16.8702C21.1792 17.0477 20.7944 17.0429 20.4855 16.8575L18 15.3662V17C18 18.6569 16.6569 20 15 20H5C3.34315 20 2 18.6569 2 17V7ZM8.70711 10.7071C9.09763 10.3166 9.09763 9.68342 8.70711 9.29289C8.31658 8.90237 7.68342 8.90237 7.29289 9.29289L5.29289 11.2929C4.90237 11.6834 4.90237 12.3166 5.29289 12.7071L7.29289 14.7071C7.68342 15.0976 8.31658 15.0976 8.70711 14.7071C9.09763 14.3166 9.09763 13.6834 8.70711 13.2929L8.41421 13H11.5858L11.2929 13.2929C10.9024 13.6834 10.9024 14.3166 11.2929 14.7071C11.6834 15.0976 12.3166 15.0976 12.7071 14.7071L14.7071 12.7071C15.0976 12.3166 15.0976 11.6834 14.7071 11.2929L12.7071 9.29289C12.3166 8.90237 11.6834 8.90237 11.2929 9.29289C10.9024 9.68342 10.9024 10.3166 11.2929 10.7071L11.5858 11H8.41421L8.70711 10.7071Z" fill="#212529"/>
</svg>
