<svg width="24" height="24" viewBox="0 0 24 24" fill="none" xmlns="http://www.w3.org/2000/svg">
<path fill-rule="evenodd" clip-rule="evenodd" d="M15 6.17065V4.77783C15 3.13623 16.4571 2 18 2C19.5429 2 21 3.13623 21 4.77783V6.17065C22.1652 6.58249 23 7.69378 23 9V11C23 12.6569 21.6569 14 20 14H16C14.3431 14 13 12.6569 13 11V9C13 7.69378 13.8348 6.58249 15 6.17065ZM17 4.77783C17 4.45575 17.3337 4 18 4C18.6663 4 19 4.45575 19 4.77783V6H17V4.77783Z" fill="#212529"/>
<path d="M11 9C11 7.87333 11.3723 6.835 11.9998 6H5C3.34315 6 2 7.34315 2 9V19C2 20.6569 3.34315 22 5 22H15C16.6569 22 18 20.6569 18 19V17.3662L20.4855 18.8575C20.7944 19.0429 21.1792 19.0477 21.4927 18.8702C21.8062 18.6927 22 18.3603 22 18V15.584C21.3875 15.8516 20.7111 16 20 16H16C13.2386 16 11 13.7614 11 11V9Z" fill="#212529"/>
</svg>
