<svg width="24" height="24" viewBox="0 0 24 24" fill="none" xmlns="http://www.w3.org/2000/svg">
<path fill-rule="evenodd" clip-rule="evenodd" d="M15 3.77778V5.17071C13.8348 5.58254 13 6.69378 13 8V10C13 11.6569 14.3431 13 16 13H20C20.7684 13 21.4692 12.7111 22 12.2361C22.6137 11.6868 23 10.8885 23 10V8C23 6.69378 22.1652 5.58254 21 5.17071V3.77778C21 2.13618 19.5429 1 18 1C16.4571 1 15 2.13618 15 3.77778ZM18 3C17.3337 3 17 3.4557 17 3.77778V5H19V3.77778C19 3.4557 18.6663 3 18 3ZM21 8C21 7.44772 20.5523 7 20 7H16C15.4477 7 15 7.44772 15 8V10C15 10.5523 15.4477 11 16 11H20C20.5523 11 21 10.5523 21 10V8Z" fill="#212529"/>
<path d="M11.416 6C11.1484 6.61246 11 7.2889 11 8H5C4.44772 8 4 8.44772 4 9V19C4 19.5523 4.44772 20 5 20H15C15.5523 20 16 19.5523 16 19V15H18V15.0338L20 16.2338V15C20.7111 15 21.3875 14.8516 22 14.584V18C22 18.3603 21.8062 18.6927 21.4927 18.8702C21.1792 19.0477 20.7944 19.0429 20.4855 18.8575L18 17.3662V19C18 20.6569 16.6569 22 15 22H5C3.34315 22 2 20.6569 2 19V9C2 7.34315 3.34315 6 5 6H11.416Z" fill="#212529"/>
</svg>
