<svg width="24" height="24" viewBox="0 0 24 24" fill="none" xmlns="http://www.w3.org/2000/svg">
<path fill-rule="evenodd" clip-rule="evenodd" d="M10.0504 4.47908C10.8361 3.8505 12 4.40992 12 5.41612V18.5839C12 19.5901 10.8361 20.1495 10.0504 19.5209L5.64922 16H3.2C2.53726 16 2 15.4627 2 14.8V9.2C2 8.53725 2.53726 8 3.2 8H5.64922L10.0504 4.47908ZM14.2929 8.29289C14.6834 7.90237 15.3166 7.90237 15.7071 8.29289L18 10.5858L20.2929 8.29289C20.6834 7.90237 21.3166 7.90237 21.7071 8.29289C22.0976 8.68342 22.0976 9.31658 21.7071 9.70711L19.4142 12L21.7071 14.2929C22.0976 14.6834 22.0976 15.3166 21.7071 15.7071C21.3166 16.0976 20.6834 16.0976 20.2929 15.7071L18 13.4142L15.7071 15.7071C15.3166 16.0976 14.6834 16.0976 14.2929 15.7071C13.9024 15.3166 13.9024 14.6834 14.2929 14.2929L16.5858 12L14.2929 9.70711C13.9024 9.31658 13.9024 8.68342 14.2929 8.29289Z" fill="#212529"/>
</svg>
