<svg width="24" height="24" viewBox="0 0 24 24" fill="none" xmlns="http://www.w3.org/2000/svg">
<path fill-rule="evenodd" clip-rule="evenodd" d="M14 5.41612C14 4.40992 12.8361 3.8505 12.0504 4.47908L7.64922 8H5.2C4.53726 8 4 8.53725 4 9.2V14.8C4 15.4627 4.53726 16 5.2 16H7.64922L12.0504 19.5209C12.8361 20.1495 14 19.5901 14 18.5839V5.41612ZM17.3332 8.22784C16.8125 8.0438 16.2412 8.31672 16.0572 8.83744C15.8731 9.35815 16.146 9.92948 16.6668 10.1135C17.4449 10.3886 18 11.1307 18 12C18 12.8692 17.4449 13.6114 16.6668 13.8864C16.146 14.0705 15.8731 14.6418 16.0572 15.1625C16.2412 15.6832 16.8125 15.9562 17.3332 15.7721C18.8855 15.2235 20 13.7432 20 12C20 10.2568 18.8855 8.77648 17.3332 8.22784Z" fill="#212529"/>
</svg>
