<svg width="24" height="24" viewBox="0 0 24 24" fill="none" xmlns="http://www.w3.org/2000/svg">
<path fill-rule="evenodd" clip-rule="evenodd" d="M3.70711 2.29289C3.31658 1.90237 2.68342 1.90237 2.29289 2.29289C1.90237 2.68342 1.90237 3.31658 2.29289 3.70711L6.16961 7.58382L5.64922 8.00013H3.2C2.53726 8.00013 2 8.53739 2 9.20013V14.8001C2 15.4629 2.53726 16.0001 3.2 16.0001H5.64922L10.0504 19.521C10.8361 20.1496 12 19.5902 12 18.584V13.4142L16.1784 17.5926C15.7592 17.756 15.3172 17.8736 14.8584 17.9392C14.3117 18.0174 13.9319 18.524 14.0101 19.0707C14.0883 19.6175 14.5949 19.9973 15.1416 19.9191C16.048 19.7894 16.9053 19.508 17.6871 19.1013L20.2929 21.7071C20.6834 22.0976 21.3166 22.0976 21.7071 21.7071C22.0976 21.3166 22.0976 20.6834 21.7071 20.2929C15.4347 14.0205 10.0473 8.63306 3.70711 2.29289ZM14.053 9.63877L17.766 13.3518C17.9174 12.9297 18 12.4748 18 12.0003C18 10.2571 16.8855 8.77682 15.3332 8.22819C14.8125 8.04414 14.2412 8.31706 14.0572 8.83778C14.0572 9.02789 14.0555 9.30471 14.053 9.63877ZM19.2752 14.861L20.7344 16.3202C21.5354 15.0743 22 13.5916 22 12C22 7.96893 19.0194 4.63569 15.1416 4.081C14.5949 4.0028 14.0883 4.38261 14.0101 4.92933C13.9319 5.47605 14.3117 5.98265 14.8584 6.06085C17.7651 6.47663 20 8.97821 20 12C20 13.0358 19.7374 14.0105 19.2752 14.861ZM12 7.58579L9.40762 4.99341L10.0504 4.47921C10.8361 3.85064 12 4.41005 12 5.41625V7.58579ZM6.67948 9.73717L7.59252 9.00674L10 11.4142V16.9195L6.67948 14.2631C6.4667 14.0929 6.20233 14.0001 5.92984 14.0001H4V10.0001H5.92984C6.20233 10.0001 6.4667 9.90739 6.67948 9.73717Z" fill="#212529"/>
</svg>
