<svg width="24" height="24" viewBox="0 0 24 24" fill="none" xmlns="http://www.w3.org/2000/svg">
<path fill-rule="evenodd" clip-rule="evenodd" d="M14.0101 4.92909C14.0883 4.38237 14.5949 4.00256 15.1416 4.08076C19.0194 4.63544 22 7.96868 22 11.9998C22 16.0309 19.0194 19.3642 15.1416 19.9188C14.5949 19.997 14.0883 19.6172 14.0101 19.0705C13.9319 18.5238 14.3117 18.0172 14.8584 17.939C17.7651 17.5232 20 15.0216 20 11.9998C20 8.97796 17.7651 6.47639 14.8584 6.06061C14.3117 5.98241 13.9319 5.47581 14.0101 4.92909ZM10.0504 4.47897C10.8361 3.85039 12 4.4098 12 5.41601V18.5838C12 19.59 10.8361 20.1494 10.0504 19.5208L5.64922 15.9999H3.2C2.53726 15.9999 2 15.4626 2 14.7999V9.19988C2 8.53714 2.53726 7.99988 3.2 7.99988H5.64922L10.0504 4.47897ZM10 7.08051L6.67948 9.73693C6.4667 9.90715 6.20233 9.99988 5.92984 9.99988H4V13.9999H5.92984C6.20233 13.9999 6.4667 14.0926 6.67948 14.2628L10 16.9193V7.08051ZM15.3332 8.22794C14.8125 8.0439 14.2412 8.31682 14.0572 8.83754C13.8731 9.35825 14.146 9.92958 14.6668 10.1136C15.4449 10.3887 16 11.1308 16 12.0001C16 12.8693 15.4449 13.6115 14.6668 13.8865C14.146 14.0706 13.8731 14.6419 14.0572 15.1626C14.2412 15.6833 14.8125 15.9563 15.3332 15.7722C16.8855 15.2236 18 13.7433 18 12.0001C18 10.2569 16.8855 8.77658 15.3332 8.22794Z" fill="#212529"/>
</svg>
