<svg width="24" height="24" viewBox="0 0 24 24" fill="none" xmlns="http://www.w3.org/2000/svg">
<path fill-rule="evenodd" clip-rule="evenodd" d="M14.0101 4.92933C14.0883 4.38261 14.5949 4.0028 15.1416 4.081C19.0194 4.63569 22 7.96893 22 12C22 16.0312 19.0194 19.3644 15.1416 19.9191C14.5949 19.9973 14.0883 19.6175 14.0101 19.0707C13.9319 18.524 14.3117 18.0174 14.8584 17.9392C17.7651 17.5234 20 15.0219 20 12C20 8.97821 17.7651 6.47663 14.8584 6.06085C14.3117 5.98265 13.9319 5.47605 14.0101 4.92933ZM10.0504 4.47908C10.8361 3.8505 12 4.40992 12 5.41612V18.5839C12 19.5901 10.8361 20.1495 10.0504 19.5209L5.64922 16H3.2C2.53726 16 2 15.4627 2 14.8V9.2C2 8.53725 2.53726 8 3.2 8H5.64922L10.0504 4.47908ZM15.3332 8.22784C14.8125 8.0438 14.2412 8.31672 14.0572 8.83744C13.8731 9.35815 14.146 9.92948 14.6668 10.1135C15.4449 10.3886 16 11.1307 16 12C16 12.8692 15.4449 13.6114 14.6668 13.8864C14.146 14.0705 13.8731 14.6418 14.0572 15.1625C14.2412 15.6832 14.8125 15.9562 15.3332 15.7721C16.8855 15.2235 18 13.7432 18 12C18 10.2568 16.8855 8.77648 15.3332 8.22784Z" fill="#212529"/>
</svg>
