<svg width="24" height="24" viewBox="0 0 24 24" fill="none" xmlns="http://www.w3.org/2000/svg">
<path fill-rule="evenodd" clip-rule="evenodd" d="M3.70711 2.29289C3.31658 1.90237 2.68342 1.90237 2.29289 2.29289C1.90237 2.68342 1.90237 3.31658 2.29289 3.70711L6.16953 7.58375L5.64922 8H3.2C2.53726 8 2 8.53725 2 9.2V14.8C2 15.4627 2.53726 16 3.2 16H5.64922L10.0504 19.5209C10.8361 20.1495 12 19.5901 12 18.5839V13.4142L16.1784 17.5926C15.7592 17.756 15.3172 17.8736 14.8584 17.9392C14.3117 18.0174 13.9319 18.524 14.0101 19.0707C14.0883 19.6175 14.5949 19.9973 15.1416 19.9191C16.048 19.7894 16.9053 19.508 17.6871 19.1013L20.2929 21.7071C20.6834 22.0976 21.3166 22.0976 21.7071 21.7071C22.0976 21.3166 22.0976 20.6834 21.7071 20.2929C15.663 14.2488 10.0615 8.64724 3.70711 2.29289ZM14.0342 9.61999L17.7659 13.3517C17.9174 12.9296 18 12.4745 18 12C18 10.2568 16.8855 8.77648 15.3332 8.22784C14.8125 8.0438 14.2412 8.31672 14.0572 8.83744C14.0477 9.02943 14.0401 9.2988 14.0342 9.61999ZM19.2752 14.861L20.7344 16.3202C21.5354 15.0743 22 13.5916 22 12C22 7.96893 19.0194 4.63569 15.1416 4.081C14.5949 4.0028 14.0883 4.38261 14.0101 4.92933C13.9319 5.47605 14.3117 5.98265 14.8584 6.06085C17.7651 6.47663 20 8.97821 20 12C20 13.0358 19.7374 14.0105 19.2752 14.861ZM12 7.58579L9.40755 4.99333L10.0504 4.47908C10.8361 3.8505 12 4.40992 12 5.41612V7.58579Z" fill="#212529"/>
</svg>
