<svg width="24" height="24" viewBox="0 0 24 24" fill="none" xmlns="http://www.w3.org/2000/svg">
<path fill-rule="evenodd" clip-rule="evenodd" d="M18.1727 4.26008C17.8798 3.99382 17.4574 3.92538 17.0955 4.08551C16.7335 4.24563 16.5 4.6042 16.5 5.00002V9.90399L14.7071 8.11109C14.3166 7.72057 13.6834 7.72057 13.2929 8.11109C12.9024 8.50162 12.9024 9.13478 13.2929 9.52531L15.9637 12.1961L13.2629 15.1425C12.8897 15.5496 12.9172 16.1822 13.3243 16.5554C13.7314 16.9285 14.364 16.901 14.7372 16.4939L16.5 14.5708V19C16.5 19.3958 16.7335 19.7544 17.0955 19.9145C17.4574 20.0747 17.8798 20.0062 18.1727 19.74L21.6727 16.5581C21.875 16.3742 21.9932 16.1154 21.9997 15.842C22.0062 15.5686 21.9005 15.3045 21.7071 15.1111L18.732 12.136L21.7372 8.85756C21.9169 8.66153 22.0111 8.40199 21.999 8.13634C21.9869 7.87068 21.8695 7.62078 21.6727 7.4419L18.1727 4.26008ZM19.5513 15.7837L18.5 14.7324V16.7395L19.5513 15.7837ZM18.5 7.26057V9.42922L19.5843 8.24632L18.5 7.26057ZM12 5.41612C12 4.40991 10.8361 3.8505 10.0504 4.47908L5.64922 7.99999H3.2C2.53726 7.99999 2 8.53725 2 9.2V14.8C2 15.4627 2.53726 16 3.2 16H5.64922L10.0504 19.5209C10.8361 20.1495 12 19.5901 12 18.5839V5.41612ZM6.67948 9.73704L10 7.08062V16.9194L6.67948 14.263C6.4667 14.0927 6.20233 14 5.92984 14H4V10H5.92984C6.20233 10 6.4667 9.90726 6.67948 9.73704Z" fill="#212529"/>
</svg>
