<svg width="24" height="24" viewBox="0 0 24 24" fill="none" xmlns="http://www.w3.org/2000/svg">
<path fill-rule="evenodd" clip-rule="evenodd" d="M14 5.41612C14 4.40991 12.8361 3.8505 12.0504 4.47908L7.64922 8H5.2C4.53726 8 4 8.53725 4 9.2V14.8C4 15.4627 4.53726 16 5.2 16H7.64922L12.0504 19.5209C12.8361 20.1495 14 19.5901 14 18.5839V5.41612ZM8.67948 9.73704L12 7.08062V16.9194L8.67948 14.263C8.4667 14.0927 8.20233 14 7.92984 14H6V10H7.92984C8.20233 10 8.4667 9.90726 8.67948 9.73704ZM17.3332 8.22805C16.8125 8.04401 16.2412 8.31693 16.0572 8.83765C15.8731 9.35836 16.146 9.92969 16.6668 10.1137C17.4449 10.3888 18 11.1309 18 12.0002C18 12.8694 17.4449 13.6116 16.6668 13.8866C16.146 14.0707 15.8731 14.642 16.0572 15.1627C16.2412 15.6834 16.8125 15.9564 17.3332 15.7723C18.8855 15.2237 20 13.7434 20 12.0002C20 10.257 18.8855 8.77669 17.3332 8.22805Z" fill="#212529"/>
</svg>
