<?xml version="1.0" encoding="UTF-8"?>
<svg xmlns="http://www.w3.org/2000/svg" width="24" height="24" viewBox="0 0 24 24" fill="none"><path d="M0 0L24 0L24 24L0 24L0 0Z" transform="translate(0 0)" fill="#ffffff" fill-rule="nonzero" opacity="1" /><path d="M4 3C4 1.34315 5.34315 0 7 0L17 0C18.6569 0 20 1.34315 20 3L20 15C20 17.2091 18.2091 19 16 19L3.5 19C1.567 19 0 17.433 0 15.5C0 13.567 1.567 12 3.5 12L4 12L4 3ZM3.5 14C2.67157 14 2 14.6716 2 15.5C2 16.3284 2.67157 17 3.5 17L12.3369 17C12.1209 16.5453 12 16.0366 12 15.4997L12 14.4993C12 14.3283 12.0172 14.1613 12.0499 14L3.5 14ZM6 12L6 3C6 2.44772 6.44772 2 7 2L17 2C17.5523 2 18 2.44772 18 3L18 15C18 16.1046 17.1046 17 16 17L15.5 17C14.6717 17 14 16.3283 14 15.4997L14 14.4993C14 14.2238 14.2232 14 14.5 14C14.7761 14 15 14.2239 15 14.5L15 15.1765C15 15.7288 15.4477 16.1765 16 16.1765C16.5523 16.1765 17 15.7288 17 15.1765L17 14.5C17 13.2049 16.0152 12.1398 14.7535 12.0127C14.7015 12.0043 14.6481 12 14.5938 12L6 12Z" transform="translate(2 2.998)" fill="#212529" fill-rule="evenodd" opacity="1" /></svg>
