<?xml version="1.0" encoding="UTF-8"?>
<svg xmlns="http://www.w3.org/2000/svg" width="24" height="24" viewBox="0 0 24 24" fill="none"><path d="M1.79858 15L12.5986 15L11.3736 6L3.02359 6L1.79858 15ZM7.19859 4.2C7.53858 4.2 7.82359 4.085 8.05359 3.855C8.28359 3.625 8.39859 3.34 8.39859 3C8.39859 2.66 8.28359 2.375 8.05359 2.145C7.82359 1.915 7.53858 1.8 7.19859 1.8C6.85858 1.8 6.57358 1.915 6.34358 2.145C6.11358 2.375 5.99858 2.66 5.99858 3C5.99858 3.34 6.11358 3.625 6.34358 3.855C6.57358 4.085 6.85858 4.2 7.19859 4.2ZM9.94858 4.2L11.3736 4.2C11.8263 4.2 12.2186 4.34583 12.5506 4.6375C12.8826 4.92917 13.0819 5.3 13.1486 5.75L14.3736 14.75C14.4569 15.2907 14.3203 15.7675 13.9638 16.1805C13.6075 16.5935 13.152 16.8 12.5973 16.8L1.80558 16.8C1.25092 16.8 0.794418 16.5935 0.436085 16.1805C0.0777516 15.7675 -0.0597484 15.2907 0.0235849 14.75L1.24858 5.75C1.31525 5.3 1.51459 4.92917 1.84659 4.6375C2.17859 4.34583 2.57092 4.2 3.02359 4.2L4.44859 4.2C4.36525 4.01667 4.30275 3.825 4.26109 3.625C4.21942 3.425 4.19859 3.21667 4.19859 3C4.19859 2.16667 4.49025 1.45833 5.07359 0.875C5.65692 0.291667 6.36525 0 7.19859 0C8.03192 0 8.74025 0.291667 9.32358 0.875C9.90692 1.45833 10.1986 2.16667 10.1986 3C10.1986 3.21667 10.1778 3.425 10.1361 3.625C10.0944 3.825 10.0319 4.01667 9.94858 4.2Z" transform="translate(4.8014 3.6001)" fill="#212529" fill-rule="nonzero" opacity="1" /></svg>
