<?xml version="1.0" encoding="UTF-8"?>
<svg xmlns="http://www.w3.org/2000/svg" width="24" height="24" viewBox="0 0 24 24" fill="none"><path d="M2.30566 2.17839C2.74667 2.44464 3.04154 2.92849 3.04154 3.48121C3.04154 4.3211 2.36068 5.00196 1.52079 5.00196C0.680906 5.00196 4.28074e-05 4.3211 4.28074e-05 3.48121C4.28074e-05 3.08831 0.149043 2.73021 0.393619 2.46033L2.04096 0.187628C2.12639 0.0697689 2.26313 -2.04242e-06 2.4087 -2.04242e-06C2.71947 -2.04242e-06 2.93845 0.305101 2.83899 0.599528L2.30566 2.17839Z" transform="translate(6.7784 8.6079)" fill="#212529" fill-rule="evenodd" opacity="1" /><path d="M3.0415 1.52075C3.0415 2.36064 2.36064 3.0415 1.52075 3.0415C0.680863 3.0415 0 2.36064 0 1.52075C0 0.680863 0.680863 0 1.52075 0C2.36064 0 3.0415 0.680863 3.0415 1.52075Z" transform="translate(6.7785 10.5684)" fill="#000000" fill-rule="nonzero" opacity="1" /><path d="M0 2.5594L1.71915 0.18763C1.80457 0.069771 1.94132 0 2.08688 0C2.39765 0 2.61663 0.305103 2.51718 0.59953L1.85515 2.5594L0 2.5594Z" transform="translate(7.1003 8.6079)" fill="#000000" fill-rule="nonzero" opacity="1" /><path d="M2.30566 2.17839C2.74667 2.44464 3.04154 2.92849 3.04154 3.48121C3.04154 4.3211 2.36068 5.00196 1.52079 5.00196C0.680906 5.00196 4.28074e-05 4.3211 4.28074e-05 3.48121C4.28074e-05 3.08831 0.149043 2.73021 0.393619 2.46033L2.04096 0.187628C2.12639 0.0697689 2.26313 -2.04242e-06 2.4087 -2.04242e-06C2.71947 -2.04242e-06 2.93845 0.305101 2.83899 0.599528L2.30566 2.17839Z" transform="translate(3 8.6079)" fill="#212529" fill-rule="evenodd" opacity="1" /><path d="M3.0415 1.52075C3.0415 2.36064 2.36064 3.0415 1.52075 3.0415C0.680863 3.0415 0 2.36064 0 1.52075C0 0.680863 0.680863 0 1.52075 0C2.36064 0 3.0415 0.680863 3.0415 1.52075Z" transform="translate(3 10.5684)" fill="#000000" fill-rule="nonzero" opacity="1" /><path d="M0 2.5594L1.71915 0.18763C1.80457 0.069771 1.94132 0 2.08688 0C2.39765 0 2.61663 0.305103 2.51718 0.59953L1.85515 2.5594L0 2.5594Z" transform="translate(3.3218 8.6079)" fill="#000000" fill-rule="nonzero" opacity="1" /><path d="M2.30566 2.17839C2.74667 2.44464 3.04154 2.92849 3.04154 3.48121C3.04154 4.3211 2.36068 5.00196 1.52079 5.00196C0.680906 5.00196 4.28074e-05 4.3211 4.28074e-05 3.48121C4.28074e-05 3.08831 0.149043 2.73021 0.393619 2.46033L2.04096 0.187628C2.12639 0.0697689 2.26313 -2.04242e-06 2.4087 -2.04242e-06C2.71947 -2.04242e-06 2.93845 0.305101 2.83899 0.599528L2.30566 2.17839Z" transform="translate(14.1801 10.3896)" fill="#212529" fill-rule="evenodd" opacity="1" /><path d="M3.0415 1.52075C3.0415 2.36064 2.36064 3.0415 1.52075 3.0415C0.680863 3.0415 0 2.36064 0 1.52075C0 0.680863 0.680863 0 1.52075 0C2.36064 0 3.0415 0.680863 3.0415 1.52075Z" transform="translate(14.18 10.3897)" fill="#000000" fill-rule="nonzero" opacity="1" /><path d="M0 2.5594L1.71915 0.18763C1.80457 0.069771 1.94132 0 2.08688 0C2.39765 0 2.61663 0.305103 2.51718 0.59953L1.85515 2.5594L0 2.5594Z" transform="translate(14.18 12.8322)" fill="#000000" fill-rule="nonzero" opacity="1" /><path d="M2.30566 2.17839C2.74667 2.44464 3.04154 2.92849 3.04154 3.48121C3.04154 4.3211 2.36068 5.00196 1.52079 5.00196C0.680906 5.00196 4.28074e-05 4.3211 4.28074e-05 3.48121C4.28074e-05 3.08831 0.149043 2.73021 0.393619 2.46033L2.04096 0.187628C2.12639 0.0697689 2.26313 -2.04242e-06 2.4087 -2.04242e-06C2.71947 -2.04242e-06 2.93845 0.305101 2.83899 0.599528L2.30566 2.17839Z" transform="translate(17.9585 10.3896)" fill="#212529" fill-rule="evenodd" opacity="1" /><path d="M3.0415 1.52075C3.0415 2.36064 2.36064 3.0415 1.52075 3.0415C0.680863 3.0415 0 2.36064 0 1.52075C0 0.680863 0.680863 0 1.52075 0C2.36064 0 3.0415 0.680863 3.0415 1.52075Z" transform="translate(17.9585 10.3897)" fill="#000000" fill-rule="nonzero" opacity="1" /><path d="M0 2.5594L1.71915 0.18763C1.80457 0.069771 1.94132 0 2.08688 0C2.39765 0 2.61663 0.305103 2.51718 0.59953L1.85515 2.5594L0 2.5594Z" transform="translate(17.9585 12.8322)" fill="#000000" fill-rule="nonzero" opacity="1" /></svg>
