<svg width="24" height="24" viewBox="0 0 24 24" fill="none" xmlns="http://www.w3.org/2000/svg">
<path d="M4.63198 9.8689C6.58844 8.14801 9.16821 7.10345 12 7.10345C14.8318 7.10345 17.4116 8.14801 19.368 9.8689C19.4395 9.93182 19.5153 9.98714 19.5942 10.0349C19.9359 10.0754 20.267 10.1503 20.584 10.2561C20.9609 10.2178 21.325 10.0468 21.5976 9.74752C22.1791 9.10895 22.1238 8.12796 21.4741 7.55642C18.961 5.34595 15.6386 4 12 4C8.36144 4 5.039 5.34595 2.52594 7.55642C1.87616 8.12796 1.82087 9.10895 2.40243 9.74752C2.984 10.3861 3.9822 10.4404 4.63198 9.8689Z" fill="#212529"/>
<path d="M12 9.1724C13.7109 9.1724 15.297 9.70868 16.5902 10.618C15.6465 11.1381 14.8888 11.9542 14.4423 12.9412C13.7292 12.5184 12.8945 12.2758 12 12.2758C10.7858 12.2758 9.68158 12.7228 8.8425 13.4608C8.19272 14.0324 7.19452 13.978 6.61295 13.3395C6.03138 12.7009 6.08668 11.7199 6.73646 11.1483C8.13213 9.92072 9.97903 9.1724 12 9.1724Z" fill="#212529"/>
<path d="M17.7886 12.2546C17.0832 12.5663 16.5206 13.1419 16.2257 13.8563C16.0803 14.2087 16 14.595 16 15V16.1707C14.8348 16.5825 14 17.6938 14 19V21C14 22.6569 15.3431 24 17 24H21C22.6569 24 24 22.6569 24 21V19C24 17.3431 22.6569 16 21 16H18V15C18 14.4477 18.4477 14 19 14C19.5523 14 20 14.4477 20 15H22C22 13.3431 20.6569 12 19 12C18.5689 12 18.1591 12.0909 17.7886 12.2546Z" fill="#212529"/>
<path d="M12 15C12.5348 15 13.0207 15.2099 13.3795 15.5519C12.5253 16.4482 12 17.6618 12 19C10.8954 19 10 18.1046 10 17C10 15.8954 10.8954 15 12 15Z" fill="#212529"/>
</svg>
