<svg width="24" height="24" viewBox="0 0 24 24" fill="none" xmlns="http://www.w3.org/2000/svg">
<path fill-rule="evenodd" clip-rule="evenodd" d="M4.63198 10.8689C6.58844 9.14801 9.16821 8.10345 12 8.10345C14.8318 8.10345 17.4116 9.14801 19.368 10.8689C20.0178 11.4404 21.016 11.3861 21.5976 10.7475C22.1791 10.1089 22.1238 9.12796 21.4741 8.55642C18.961 6.34595 15.6386 5 12 5C8.36144 5 5.039 6.34595 2.52594 8.55642C1.87616 9.12796 1.82087 10.1089 2.40243 10.7475C2.984 11.3861 3.9822 11.4404 4.63198 10.8689ZM12 13.2758C10.7858 13.2758 9.68158 13.7228 8.8425 14.4608C8.19272 15.0324 7.19452 14.978 6.61295 14.3395C6.03138 13.7009 6.08668 12.7199 6.73646 12.1483C8.13213 10.9207 9.97903 10.1724 12 10.1724C14.021 10.1724 15.8679 10.9207 17.2635 12.1483C17.9133 12.7199 17.9686 13.7009 17.387 14.3395C16.8055 14.978 15.8073 15.0324 15.1575 14.4608C14.3184 13.7228 13.2142 13.2758 12 13.2758ZM14 18C14 19.1046 13.1046 20 12 20C10.8954 20 10 19.1046 10 18C10 16.8954 10.8954 16 12 16C13.1046 16 14 16.8954 14 18Z" fill="#212529"/>
</svg>
