<?xml version="1.0" encoding="UTF-8"?>
<svg xmlns="http://www.w3.org/2000/svg" width="16" height="16" viewBox="0 0 16 16" fill="none"><path d="M5.625 5.625C5.625 6.45343 4.95343 7.125 4.125 7.125C3.29657 7.125 2.625 6.45343 2.625 5.625C2.625 4.79657 3.29657 4.125 4.125 4.125C4.95343 4.125 5.625 4.79657 5.625 5.625Z" transform="translate(3.875 5.75)" fill="#212529" fill-rule="nonzero" opacity="1" /><path d="M4.12501 2.25C3.25989 2.25 2.47314 2.57403 1.87529 3.10912C1.41232 3.52348 0.701101 3.48409 0.286734 3.02112C-0.127633 2.55815 -0.0882348 1.84693 0.374733 1.43256C1.36915 0.542532 2.68507 7.9933e-17 4.12501 0C5.56496 -7.9933e-17 6.88087 0.542532 7.87529 1.43256C8.33826 1.84693 8.37766 2.55815 7.96329 3.02112C7.54892 3.48409 6.8377 3.52348 6.37473 3.10912C5.77688 2.57403 4.99013 2.25 4.12501 2.25Z" transform="translate(3.875 5.75)" fill="#212529" fill-rule="evenodd" opacity="1" /><path d="M7.12501 2.25C5.10736 2.25 3.26927 3.00731 1.87529 4.25496C1.41232 4.66932 0.701101 4.62993 0.286734 4.16696C-0.127633 3.70399 -0.0882348 2.99277 0.374733 2.5784C2.16529 0.975813 4.53253 0 7.12501 0C9.71749 0 12.0847 0.975813 13.8753 2.5784C14.3383 2.99277 14.3777 3.70399 13.9633 4.16696C13.5489 4.62993 12.8377 4.66932 12.3747 4.25496C10.9808 3.00731 9.14266 2.25 7.12501 2.25Z" transform="translate(0.875 2)" fill="#212529" fill-rule="evenodd" opacity="0.28" /></svg>
