<?xml version="1.0" encoding="UTF-8"?>
<svg xmlns="http://www.w3.org/2000/svg" width="16" height="16" viewBox="0 0 16 16" fill="none"><path d="M3 1.5C3 2.32843 2.32843 3 1.5 3C0.671573 3 0 2.32843 0 1.5C0 0.671573 0.671573 0 1.5 0C2.32843 0 3 0.671573 3 1.5Z" transform="translate(6.5 9.875)" fill="#212529" fill-rule="nonzero" opacity="1" /><path d="M7.12501 6C6.25989 6 5.47314 6.32403 4.87529 6.85912C4.41232 7.27348 3.7011 7.23409 3.28673 6.77112C2.87237 6.30815 2.91177 5.59693 3.37473 5.18256C4.36915 4.29253 5.68507 3.75 7.12501 3.75C8.56496 3.75 9.88087 4.29253 10.8753 5.18256C11.3383 5.59693 11.3777 6.30815 10.9633 6.77112C10.5489 7.23409 9.8377 7.27348 9.37473 6.85912C8.77689 6.32403 7.99013 6 7.12501 6Z" transform="translate(0.875 2)" fill="#212529" fill-rule="evenodd" opacity="0.28" /><path d="M7.12501 2.25C5.10736 2.25 3.26927 3.00731 1.87529 4.25496C1.41232 4.66933 0.701101 4.62993 0.286734 4.16696C-0.127633 3.70399 -0.0882348 2.99277 0.374733 2.5784C2.16529 0.975813 4.53253 1.43911e-16 7.12501 0C9.71749 -1.43911e-16 12.0847 0.975813 13.8753 2.5784C14.3383 2.99277 14.3777 3.70399 13.9633 4.16696C13.5489 4.62993 12.8377 4.66933 12.3747 4.25496C10.9807 3.00731 9.14266 2.25 7.12501 2.25Z" transform="translate(0.875 2)" fill="#212529" fill-rule="evenodd" opacity="0.28" /></svg>
