<svg width="24" height="24" viewBox="0 0 24 24" fill="none" xmlns="http://www.w3.org/2000/svg">
<path d="M4.63198 9.8689C6.58844 8.14801 9.16821 7.10345 12 7.10345C14.8318 7.10345 17.4116 8.14801 19.368 9.8689C19.4403 9.93248 19.5169 9.98832 19.5968 10.0365C19.9296 10.0769 20.2619 10.1505 20.5864 10.2559C20.9624 10.217 21.3256 10.0462 21.5976 9.74752C22.1791 9.10895 22.1238 8.12796 21.4741 7.55642C18.961 5.34595 15.6386 4 12 4C8.36144 4 5.039 5.34595 2.52594 7.55642C1.87616 8.12796 1.82087 9.10895 2.40243 9.74752C2.984 10.3861 3.9822 10.4404 4.63198 9.8689Z" fill="#212529"/>
<path d="M12 9.1724C13.7048 9.1724 15.2857 9.70487 16.5763 10.6083C15.6357 11.1022 14.8321 11.884 14.3831 12.9066C13.6832 12.5052 12.8698 12.2758 12 12.2758C10.7858 12.2758 9.68158 12.7228 8.8425 13.4608C8.19272 14.0324 7.19452 13.978 6.61295 13.3395C6.03138 12.7009 6.08668 11.7199 6.73646 11.1483C8.13213 9.92072 9.97903 9.1724 12 9.1724Z" fill="#212529"/>
<path fill-rule="evenodd" clip-rule="evenodd" d="M17.7881 12.2393C17.4849 12.3635 17.2035 12.5331 16.9577 12.7419C16.6071 13.0399 16.3292 13.4174 16.1649 13.8557C16.0587 14.1393 16 14.4484 16 14.7778V16.1707C15.1428 16.4737 14.4644 17.1552 14.1657 18.0143C14.1599 18.0311 14.1542 18.0479 14.1486 18.0648C14.0522 18.3591 14 18.6734 14 19V21C14 22.6569 15.3431 24 17 24H21C21.7684 24 22.4692 23.7111 23 23.2361C23.6138 22.6868 24 21.8885 24 21V19C24 17.6938 23.1652 16.5825 22 16.1707V14.7778C22 13.1362 20.5429 12 19 12C18.5805 12 18.1673 12.084 17.7881 12.2393ZM19 14C18.3337 14 18 14.4557 18 14.7778V16H20V14.7778C20 14.4557 19.6663 14 19 14Z" fill="#212529"/>
<path d="M12 15C12.5347 15 13.0205 15.2099 13.3793 15.5517C12.8929 16.0623 12.5136 16.676 12.2766 17.3574C12.2669 17.3854 12.2574 17.4136 12.2481 17.4418C12.0866 17.9347 12 18.4592 12 19C10.8954 19 10 18.1046 10 17C10 15.8954 10.8954 15 12 15Z" fill="#212529"/>
</svg>
