<svg width="24" height="24" viewBox="0 0 24 24" fill="none" xmlns="http://www.w3.org/2000/svg">
<path fill-rule="evenodd" clip-rule="evenodd" d="M3.70711 2.29289C3.31658 1.90237 2.68342 1.90237 2.29289 2.29289C1.90237 2.68342 1.90237 3.31658 2.29289 3.70711L5.256 6.67021C4.26987 7.19361 3.35397 7.82808 2.52594 8.55642C1.87616 9.12796 1.82087 10.1089 2.40243 10.7475C2.984 11.3861 3.9822 11.4404 4.63198 10.8689C5.5045 10.1014 6.50098 9.46849 7.5885 9.00272L9.24436 10.6586C8.31215 10.9999 7.46314 11.5092 6.73646 12.1483C6.08668 12.7199 6.03138 13.7009 6.61295 14.3395C7.19452 14.978 8.19272 15.0324 8.8425 14.4608C9.65003 13.7505 10.7031 13.3099 11.8635 13.2777L20.2929 21.7071C20.6834 22.0976 21.3166 22.0976 21.7071 21.7071C22.0976 21.3166 22.0976 20.6834 21.7071 20.2929L3.70711 2.29289ZM14.9548 10.7345L17.7715 13.539C17.8488 13.0386 17.6759 12.511 17.2635 12.1483C16.5889 11.555 15.8089 11.0736 14.9548 10.7345ZM9.42492 5.22893L12.3165 8.1078C15.0238 8.18248 17.4847 9.21233 19.368 10.8689C20.0178 11.4404 21.016 11.3861 21.5976 10.7475C22.1791 10.1089 22.1238 9.12796 21.4741 8.55642C18.961 6.34595 15.6386 5 12 5C11.1209 5 10.2602 5.07857 9.42492 5.22893ZM14 18C14 19.1046 13.1046 20 12 20C10.8954 20 10 19.1046 10 18C10 16.8954 10.8954 16 12 16C13.1046 16 14 16.8954 14 18Z" fill="#212529"/>
</svg>
