<?xml version="1.0" encoding="UTF-8"?>
<svg xmlns="http://www.w3.org/2000/svg" width="24" height="24" viewBox="0 0 24 24" fill="none"><path d="M4.79346 2C4.79346 0.895431 5.68889 0 6.79346 0L13.2065 0C14.3111 0 15.2065 0.895431 15.2065 2L15.2065 3.50891L17.9999 3.50891C19.1045 3.50891 19.9999 4.40434 19.9999 5.50891L19.9999 11.8641L0 11.8641L0 5.50891C0 4.40434 0.89543 3.50891 2 3.50891L4.79346 3.50891L4.79346 2ZM13.2065 2L13.2065 3.50891L6.79346 3.50891L6.79346 2L13.2065 2Z" transform="translate(2 2.2456)" fill="#212529" fill-rule="evenodd" opacity="1" /><path d="M0 13.5641L0 17.5089C0 18.6134 0.895432 19.5089 2 19.5089L17.9999 19.5089C19.1045 19.5089 19.9999 18.6134 19.9999 17.5089L19.9999 13.5641L15.2038 13.5641C15.2056 13.589 15.2065 13.6141 15.2065 13.6394L15.2065 14.4478C15.2065 15 14.7588 15.4478 14.2065 15.4478C13.6543 15.4478 13.2065 15 13.2065 14.4478L13.2065 13.6394C13.2065 13.6141 13.2075 13.589 13.2093 13.5641L6.79067 13.5641C6.79252 13.589 6.79346 13.6141 6.79346 13.6394L6.79346 14.4478C6.79346 15 6.34574 15.4478 5.79346 15.4478C5.24117 15.4478 4.79346 15 4.79346 14.4478L4.79346 13.6394C4.79346 13.6141 4.7944 13.589 4.79625 13.5641L0 13.5641Z" transform="translate(2 2.2456)" fill="#212529" fill-rule="nonzero" opacity="1" /></svg>
