<?xml version="1.0" encoding="UTF-8"?>
<svg xmlns="http://www.w3.org/2000/svg" width="24" height="24" viewBox="0 0 24 24" fill="none"><path d="M6.79346 0C5.68889 0 4.79346 0.895431 4.79346 2L4.79346 3.50891L2 3.50891C0.89543 3.50891 0 4.40434 0 5.50891L0 17.5089C0 18.6134 0.895432 19.5089 2 19.5089L17.9999 19.5089C19.1045 19.5089 19.9999 18.6134 19.9999 17.5089L19.9999 5.50891C19.9999 4.40434 19.1045 3.50891 17.9999 3.50891L15.2065 3.50891L15.2065 2C15.2065 0.895431 14.3111 0 13.2065 0L6.79346 0ZM13.2065 3.50891L13.2065 2L6.79346 2L6.79346 3.50891L13.2065 3.50891ZM17.9999 5.50891L17.9999 11.5846L2 11.5846L2 5.50891L17.9999 5.50891ZM6.79198 13.5846L13.208 13.5846C13.207 13.6027 13.2065 13.621 13.2065 13.6394L13.2065 14.4478C13.2065 15 13.6543 15.4478 14.2065 15.4478C14.7588 15.4478 15.2065 15 15.2065 14.4478L15.2065 13.6394C15.2065 13.621 15.206 13.6027 15.2051 13.5846L17.9999 13.5846L17.9999 17.5089L2 17.5089L2 13.5846L4.79493 13.5846C4.79395 13.6027 4.79346 13.621 4.79346 13.6394L4.79346 14.4478C4.79346 15 5.24117 15.4478 5.79346 15.4478C6.34574 15.4478 6.79346 15 6.79346 14.4478L6.79346 13.6394C6.79346 13.621 6.79296 13.6027 6.79198 13.5846Z" transform="translate(2 2.2456)" fill="#212529" fill-rule="evenodd" opacity="1" /></svg>
