<?xml version="1.0" encoding="UTF-8"?>
<svg xmlns="http://www.w3.org/2000/svg" width="24" height="24" viewBox="0 0 24 24" fill="none"><path d="M3.93945 2C3.93945 0.895432 4.83488 0 5.93945 0L10.8543 0C11.9588 0 12.8543 0.89543 12.8543 2L12.8543 3.28583L14.7943 3.28583C15.8989 3.28583 16.7943 4.18126 16.7943 5.28583L16.7943 5.60217C16.7943 6.15446 16.3466 6.60217 15.7943 6.60217C15.2421 6.60217 14.7943 6.15446 14.7943 5.60217L14.7943 5.28583L2 5.28583L2 9.92334L8.9954 9.92334C9.54768 9.92334 9.9954 10.3711 9.9954 10.9233C9.9954 11.4756 9.54768 11.9233 8.9954 11.9233L6.16591 11.9233C6.16639 11.9361 6.16663 11.9489 6.16662 11.9618L6.16626 12.9325C6.16605 13.4848 5.71817 13.9323 5.16589 13.9321C4.6136 13.9319 4.16605 13.484 4.16626 12.9318L4.16662 11.961C4.16663 11.9484 4.16686 11.9359 4.16733 11.9233L2 11.9233L2 15.4922L9.0351 15.4922C9.58739 15.4922 10.0351 15.94 10.0351 16.4922C10.0351 17.0445 9.58739 17.4922 9.0351 17.4922L2 17.4922C0.895433 17.4922 0 16.5968 0 15.4922L0 5.28583C0 4.18126 0.895431 3.28583 2 3.28583L3.93945 3.28583L3.93945 2ZM10.8543 2L10.8543 3.28583L5.93945 3.28583L5.93945 2L10.8543 2Z" transform="translate(1.571 2.0508)" fill="#212529" fill-rule="evenodd" opacity="1" /><path d="M15.7943 13.8597C16.5747 13.8597 17.2073 13.2271 17.2073 12.4468C17.2073 11.6664 16.5747 11.0338 15.7943 11.0338C15.014 11.0338 14.3813 11.6664 14.3813 12.4468C14.3813 13.2271 15.014 13.8597 15.7943 13.8597Z" transform="translate(1.571 2.0508)" fill="#212529" fill-rule="nonzero" opacity="1" /><path d="M12.7434 8.23077C13.8384 7.49587 15.082 7.36328 15.7918 7.36328C16.5017 7.36328 17.7462 7.49585 18.8423 8.23038C20.0068 9.01069 20.8582 10.3735 20.8582 12.5117C20.8582 14.7109 19.65 16.5397 18.5707 17.7476C18.0195 18.3645 17.471 18.8544 17.0605 19.1903C16.8545 19.3589 16.6814 19.4903 16.5574 19.581C16.4954 19.6265 16.4455 19.6618 16.4099 19.6867C16.3895 19.701 16.3691 19.7151 16.3485 19.7289L16.2403 19.7297L15.2354 19.729C15.1785 19.6908 15.1237 19.6523 15.026 19.5807C14.9022 19.4899 14.7292 19.3585 14.5235 19.1899C14.1135 18.854 13.5656 18.3641 13.0151 17.7471C11.9372 16.5391 10.7307 14.7105 10.7307 12.5117C10.7307 10.3743 11.5801 9.01143 12.7434 8.23077ZM15.7922 17.6439L15.7939 17.6425C16.1458 17.3545 16.6139 16.936 17.0793 16.4151C18.0332 15.3474 18.8582 13.9829 18.8582 12.5117C18.8582 10.9796 18.2906 10.2682 17.729 9.89184C17.0991 9.46975 16.3104 9.36328 15.7918 9.36328C15.2733 9.36328 14.4863 9.46973 13.8579 9.89146C13.2977 10.2674 12.7307 10.9788 12.7307 12.5117C12.7307 13.9834 13.5548 15.348 14.5074 16.4156C14.9722 16.9364 15.4396 17.3549 15.7911 17.6429L15.7922 17.6439Z" transform="translate(1.571 2.0508)" fill="#212529" fill-rule="evenodd" opacity="1" /><path d="M15.2354 19.729C15.5716 19.9539 16.0109 19.9544 16.3473 19.7297L16.2403 19.7297L15.2354 19.729Z" transform="translate(1.571 2.0508)" fill="#212529" fill-rule="nonzero" opacity="1" /></svg>
