<?xml version="1.0" encoding="UTF-8"?>
<svg xmlns="http://www.w3.org/2000/svg" width="24" height="24" viewBox="0 0 24 24" fill="none"><path d="M3.93945 2C3.93945 0.895432 4.83488 0 5.93945 0L10.8543 0C11.9588 0 12.8543 0.89543 12.8543 2L12.8543 3.28583L14.7943 3.28583C15.8989 3.28583 16.7943 4.18126 16.7943 5.28583L16.7943 6.03088C16.4053 5.97869 16.0618 5.96326 15.7919 5.96326C14.9483 5.96326 13.3851 6.11407 11.9633 7.06826C10.9099 7.7752 10.0946 8.81513 9.66569 10.1838L0 10.1838L0 5.28583C0 4.18126 0.895431 3.28583 2 3.28583L3.93945 3.28583L3.93945 2ZM10.8543 2L10.8543 3.28583L5.93945 3.28583L5.93945 2L10.8543 2Z" transform="translate(1.5708 2.0508)" fill="#212529" fill-rule="evenodd" opacity="1" /><path d="M0 15.4922L0 11.8838L4.16983 11.8838C4.16788 11.9093 4.16687 11.9351 4.16686 11.961L4.1665 12.9318C4.1663 13.484 4.61385 13.9319 5.16613 13.9321C5.71842 13.9323 6.1663 13.4848 6.1665 12.9325L6.16686 11.9618C6.16687 11.9356 6.16587 11.9096 6.1639 11.8838L9.35256 11.8838C9.33816 12.0879 9.33081 12.2972 9.33081 12.5117C9.33081 14.5148 10.1375 16.2145 11.0292 17.4922L2 17.4922C0.895433 17.4922 0 16.5968 0 15.4922Z" transform="translate(1.5708 2.0508)" fill="#212529" fill-rule="nonzero" opacity="1" /><path d="M12.7434 8.23077C13.8384 7.49587 15.082 7.36328 15.7918 7.36328C16.5017 7.36328 17.7462 7.49585 18.8423 8.23038C20.0068 9.01069 20.8582 10.3735 20.8582 12.5117C20.8582 14.7109 19.65 16.5397 18.5707 17.7476C18.0195 18.3645 17.471 18.8544 17.0605 19.1903C16.8545 19.3589 16.6814 19.4903 16.5574 19.581C16.46 19.6524 16.4052 19.6908 16.3485 19.7289L16.3473 19.7297C15.9812 19.9742 15.5236 19.9312 15.1734 19.6864C15.1377 19.6615 15.0879 19.6261 15.026 19.5807C14.9022 19.4899 14.7292 19.3585 14.5235 19.1899C14.1135 18.854 13.5656 18.3641 13.0151 17.7471C11.9372 16.5391 10.7307 14.7105 10.7307 12.5117C10.7307 10.3743 11.5801 9.01143 12.7434 8.23077ZM17.2073 12.4468C17.2073 13.2271 16.5747 13.8597 15.7943 13.8597C15.014 13.8597 14.3813 13.2271 14.3813 12.4468C14.3813 11.6664 15.014 11.0338 15.7943 11.0338C16.5747 11.0338 17.2073 11.6664 17.2073 12.4468Z" transform="translate(1.5708 2.0508)" fill="#212529" fill-rule="evenodd" opacity="1" /></svg>
