<?xml version="1.0" encoding="UTF-8"?>
<svg xmlns="http://www.w3.org/2000/svg" width="24" height="24" viewBox="0 0 24 24" fill="none"><path d="M7.26033 0.85C7.72977 0.85 8.11033 0.469442 8.11033 0C8.11033 -0.469442 7.72977 -0.85 7.26033 -0.85L7.26033 0.85ZM7.53433 11.0547C8.00378 11.0547 8.38433 10.6742 8.38433 10.2047C8.38433 9.73527 8.00378 9.35471 7.53433 9.35471L7.53433 11.0547ZM5.10236 9.35471C2.75384 9.35471 0.85 7.45087 0.85 5.10236L-0.85 5.10236C-0.85 8.38975 1.81496 11.0547 5.10236 11.0547L5.10236 9.35471ZM0.85 5.10236C0.85 2.75384 2.75384 0.85 5.10236 0.85L5.10236 -0.85C1.81496 -0.85 -0.85 1.81496 -0.85 5.10236L0.85 5.10236ZM5.10236 0.85L7.26033 0.85L7.26033 -0.85L5.10236 -0.85L5.10236 0.85ZM5.10236 11.0547L7.53433 11.0547L7.53433 9.35471L5.10236 9.35471L5.10236 11.0547Z" transform="translate(4.1229 8.292)" fill="#212529" fill-rule="nonzero" opacity="1" /><path d="M0.601039 -0.601042C0.269093 -0.932987 -0.269098 -0.932986 -0.601042 -0.601039C-0.932987 -0.269093 -0.932986 0.269098 -0.601039 0.601042L0.601039 -0.601042ZM2.78906 2.78905L3.3901 3.39009C3.54951 3.23068 3.63906 3.01448 3.63906 2.78905C3.63906 2.56361 3.54951 2.34741 3.3901 2.188L2.78906 2.78905ZM-0.601041 4.97707C-0.932986 5.30901 -0.932986 5.8472 -0.601041 6.17915C-0.269095 6.5111 0.269095 6.5111 0.601041 6.17915L-0.601041 4.97707ZM-0.601039 0.601042L2.18802 3.39009L3.3901 2.188L0.601039 -0.601042L-0.601039 0.601042ZM2.18802 2.18801L-0.601041 4.97707L0.601041 6.17915L3.3901 3.39009L2.18802 2.18801Z" transform="translate(9.0394 5.5029)" fill="#212529" fill-rule="nonzero" opacity="1" /><path d="M0 -0.85C-0.469442 -0.85 -0.85 -0.469442 -0.85 0C-0.85 0.469442 -0.469442 0.85 0 0.85L0 -0.85ZM5.15751 0.85C5.62695 0.85 6.00751 0.469442 6.00751 0C6.00751 -0.469442 5.62695 -0.85 5.15751 -0.85L5.15751 0.85ZM0 0.85L5.15751 0.85L5.15751 -0.85L0 -0.85L0 0.85Z" transform="translate(14.7196 10.5171)" fill="#212529" fill-rule="nonzero" opacity="1" /><path d="M0 -0.85C-0.469442 -0.85 -0.85 -0.469442 -0.85 0C-0.85 0.469442 -0.469442 0.85 0 0.85L0 -0.85ZM5.15751 0.85C5.62695 0.85 6.00751 0.469442 6.00751 0C6.00751 -0.469442 5.62695 -0.85 5.15751 -0.85L5.15751 0.85ZM0 0.85L5.15751 0.85L5.15751 -0.85L0 -0.85L0 0.85Z" transform="translate(14.7196 13.5039)" fill="#212529" fill-rule="nonzero" opacity="1" /><path d="M0 -0.85C-0.469442 -0.85 -0.85 -0.469442 -0.85 0C-0.85 0.469442 -0.469442 0.85 0 0.85L0 -0.85ZM5.15751 0.85C5.62695 0.85 6.00751 0.469442 6.00751 0C6.00751 -0.469442 5.62695 -0.85 5.15751 -0.85L5.15751 0.85ZM0 0.85L5.15751 0.85L5.15751 -0.85L0 -0.85L0 0.85Z" transform="translate(14.7196 16.5142)" fill="#212529" fill-rule="nonzero" opacity="1" /></svg>
