<svg width="24" height="24" viewBox="0 0 24 24" fill="none" xmlns="http://www.w3.org/2000/svg">
<path fill-rule="evenodd" clip-rule="evenodd" d="M2 6C2 4.34315 3.34315 3 5 3H19C20.6569 3 22 4.34315 22 6V19C22 20.6569 20.6569 22 19 22H5C3.34315 22 2 20.6569 2 19V6ZM5 5C4.44772 5 4 5.44772 4 6V7H20V6C20 5.44772 19.5523 5 19 5H5ZM20 9H4V19C4 19.5523 4.44772 20 5 20H19C19.5523 20 20 19.5523 20 19V9ZM7.5 12C7.5 11.4477 7.94772 11 8.5 11H15.4996L15.5 13H8.5C7.94772 13 7.5 12.5523 7.5 12ZM16.5 12C16.5 12.5523 16.0522 13 15.5 13L15.4996 11C16.0518 11 16.5 11.4477 16.5 12Z" fill="#212529"/>
</svg>
