<?xml version="1.0" encoding="UTF-8"?>
<svg xmlns="http://www.w3.org/2000/svg" width="64" height="64" viewBox="0 0 64 64" fill="none"><defs><linearGradient id="g1" gradientUnits="objectBoundingBox" x1="0.5" y1="0" x2="0.5" y2="1"><stop offset="0%" stop-color="#8b8bff" stop-opacity="1" /><stop offset="84.375%" stop-color="#6f3dff" stop-opacity="1" /></linearGradient><radialGradient id="g2" gradientUnits="objectBoundingBox" cx="0.9724" cy="0.5" r="0.677" fx="0.9724" fy="0.5"><stop offset="0%" stop-color="#d1bcff" stop-opacity="0.3" /><stop offset="100%" stop-color="#ababff" stop-opacity="0" /></radialGradient><radialGradient id="g10" gradientUnits="objectBoundingBox" cx="0.4606" cy="0.173" r="0.4375" fx="0.4606" fy="0.173"><stop offset="0%" stop-color="#5849ff" stop-opacity="1" /><stop offset="100%" stop-color="#a58eff" stop-opacity="0" /></radialGradient><radialGradient id="g12" gradientUnits="objectBoundingBox" cx="0.3591" cy="0.8742" r="0.6707" fx="0.3591" fy="0.8742"><stop offset="0%" stop-color="#674eff" stop-opacity="1" /><stop offset="100%" stop-color="#ffffff" stop-opacity="0" /></radialGradient><radialGradient id="g15" gradientUnits="objectBoundingBox" cx="0.3372" cy="0.9899" r="0.9075" fx="0.3372" fy="0.9899"><stop offset="0%" stop-color="#5b41ff" stop-opacity="1" /><stop offset="100%" stop-color="#ffffff" stop-opacity="0" /></radialGradient><radialGradient id="g17" gradientUnits="objectBoundingBox" cx="0.6114" cy="0.0866" r="1.0514" fx="0.6114" fy="0.0866"><stop offset="9.0174%" stop-color="#6349ff" stop-opacity="1" /><stop offset="100%" stop-color="#bdcfff" stop-opacity="0" /></radialGradient></defs><path d="M14.6856 5.31304C21.7072 1.77101 25.218 -1.73068e-15 29 0C32.782 2.50948e-14 36.2928 1.77101 43.3144 5.31304L43.5 5.40667L43.6827 5.52169C50.1068 9.56732 53.3189 11.5901 55.2422 14.6719C55.4025 14.9288 55.5554 15.1902 55.7007 15.4558C57.4439 18.6426 57.6293 22.4284 58 30C57.6293 37.5716 57.4439 41.3574 55.7007 44.5442C55.5554 44.8098 55.4025 45.0712 55.2422 45.3281C53.3189 48.4099 50.1068 50.4327 43.6827 54.4783L43.5 54.5933L43.3144 54.687C36.2928 58.229 32.782 60 29 60C25.218 60 21.7072 58.229 14.6856 54.687L14.5 54.5933L14.3174 54.4783C7.89318 50.4327 4.6811 48.4099 2.7578 45.3281C2.59748 45.0712 2.44458 44.8098 2.29929 44.5442C0.556123 41.3574 0.370749 37.5716 0 30C0.370749 22.4284 0.556123 18.6426 2.29929 15.4558C2.44458 15.1902 2.59748 14.9288 2.7578 14.6719C4.6811 11.5901 7.89318 9.56732 14.3174 5.52169L14.5 5.40667L14.6856 5.31304Z" transform="translate(3 2)" fill="url(#g1)" fill-rule="nonzero" opacity="1" /><path d="M14.6856 5.31304C21.7072 1.77101 25.218 -1.73068e-15 29 0C32.782 2.50948e-14 36.2928 1.77101 43.3144 5.31304L43.5 5.40667L43.6827 5.52169C50.1068 9.56732 53.3189 11.5901 55.2422 14.6719C55.4025 14.9288 55.5554 15.1902 55.7007 15.4558C57.4439 18.6426 57.6293 22.4284 58 30C57.6293 37.5716 57.4439 41.3574 55.7007 44.5442C55.5554 44.8098 55.4025 45.0712 55.2422 45.3281C53.3189 48.4099 50.1068 50.4327 43.6827 54.4783L43.5 54.5933L43.3144 54.687C36.2928 58.229 32.782 60 29 60C25.218 60 21.7072 58.229 14.6856 54.687L14.5 54.5933L14.3174 54.4783C7.89318 50.4327 4.6811 48.4099 2.7578 45.3281C2.59748 45.0712 2.44458 44.8098 2.29929 44.5442C0.556123 41.3574 0.370749 37.5716 0 30C0.370749 22.4284 0.556123 18.6426 2.29929 15.4558C2.44458 15.1902 2.59748 14.9288 2.7578 14.6719C4.6811 11.5901 7.89318 9.56732 14.3174 5.52169L14.5 5.40667L14.6856 5.31304Z" transform="translate(3 2)" fill="url(#g2)" fill-rule="nonzero" opacity="1" /><path d="M19 0C29.4934 1.03081e-05 38 8.5066 38 19C38 29.4934 29.4934 38 19 38C8.5066 38 0 29.4934 0 19C0 8.50659 8.5066 0 19 0ZM19 9.49902C13.753 9.49902 9.49902 13.753 9.49902 19C9.4991 24.2469 13.753 28.5 19 28.5C24.2468 28.4998 28.4999 24.2468 28.5 19C28.5 13.7531 24.2468 9.49926 19 9.49902Z" transform="translate(13 12.9999)" fill="#ffffff" fill-rule="nonzero" opacity="1" /><path d="M38 19C38 29.4934 29.4934 38 19 38C8.50658 38 0 29.4934 0 19C0 8.50659 8.50658 0 19 0C29.4934 0 38 8.50659 38 19Z" transform="translate(13 12.9999)" fill="#ffffff" fill-rule="nonzero" opacity="1" /><path d="M19.0011 9.50055C19.0011 14.7476 14.7476 19.0011 9.50054 19.0011C4.25354 19.0011 0 14.7476 0 9.50055C0 4.25354 4.25354 0 9.50054 0C14.7476 0 19.0011 4.25354 19.0011 9.50055Z" transform="translate(22.499 22.4993)" fill="#a8a8ff" fill-rule="nonzero" opacity="1" /><path d="M19 0C29.4934 1.03081e-05 38 8.5066 38 19C38 29.4934 29.4934 38 19 38C8.5066 38 0 29.4934 0 19C0 8.50659 8.5066 0 19 0ZM19 9.49902C13.753 9.49902 9.49902 13.753 9.49902 19C9.4991 24.2469 13.753 28.5 19 28.5C24.2468 28.4998 28.4999 24.2468 28.5 19C28.5 13.7531 24.2468 9.49926 19 9.49902Z" transform="translate(12.9998 12.9999)" fill="#ffffff" fill-rule="nonzero" opacity="1" /><path d="M38 19C38 29.4934 29.4934 38 19 38C8.50658 38 0 29.4934 0 19C0 8.50659 8.50658 0 19 0C29.4934 0 38 8.50659 38 19Z" transform="translate(12.9998 12.9999)" fill="#ffffff" fill-rule="nonzero" opacity="1" /><path d="M19.0011 9.50055C19.0011 14.7476 14.7476 19.0011 9.50054 19.0011C4.25354 19.0011 0 14.7476 0 9.50055C0 4.25354 4.25354 0 9.50054 0C14.7476 0 19.0011 4.25354 19.0011 9.50055Z" transform="translate(22.4989 22.4993)" fill="#a8a8ff" fill-rule="nonzero" opacity="1" /><path d="M39.8204 19.9102C39.8204 30.9063 30.9063 39.8204 19.9102 39.8204C8.91409 39.8204 0 30.9063 0 19.9102C0 8.9141 8.91409 0 19.9102 0C30.9063 0 39.8204 8.9141 39.8204 19.9102Z" transform="translate(3.3778 11.1795)" fill="#a4a8ff" fill-rule="nonzero" opacity="1" /><path d="M39.8204 19.9102C39.8204 30.9063 30.9063 39.8204 19.9102 39.8204C8.91409 39.8204 0 30.9063 0 19.9102C0 8.9141 8.91409 0 19.9102 0C30.9063 0 39.8204 8.9141 39.8204 19.9102Z" transform="translate(3.3778 11.1795)" fill="url(#g10)" fill-rule="nonzero" opacity="1" /><path d="M47.2779 23.639C47.2779 36.6945 36.6944 47.278 23.639 47.278C10.5835 47.278 0 36.6945 0 23.639C0 10.5835 10.5835 0 23.639 0C36.6944 0 47.2779 10.5835 47.2779 23.639Z" transform="translate(20.6297 9.7136)" fill="#ffffff" fill-rule="nonzero" opacity="1" /><path d="M47.2779 23.639C47.2779 36.6945 36.6944 47.278 23.639 47.278C10.5835 47.278 0 36.6945 0 23.639C0 10.5835 10.5835 0 23.639 0C36.6944 0 47.2779 10.5835 47.2779 23.639Z" transform="translate(20.6297 9.7136)" fill="url(#g12)" fill-rule="nonzero" opacity="1" /><path d="M28.4684 14.2342C28.4684 22.0956 22.0955 28.4684 14.2342 28.4684C6.37287 28.4684 0 22.0956 0 14.2342C0 6.37288 6.37287 0 14.2342 0C22.0955 0 28.4684 6.37288 28.4684 14.2342Z" transform="translate(17.7851 22.5038)" fill="#a4a8ff" fill-rule="nonzero" opacity="1" /><path d="M28.4684 14.2342C28.4684 22.0956 22.0955 28.4684 14.2342 28.4684C6.37287 28.4684 0 22.0956 0 14.2342C0 6.37288 6.37287 0 14.2342 0C22.0955 0 28.4684 6.37288 28.4684 14.2342Z" transform="translate(17.7851 12.9999)" fill="#ffffff" fill-rule="nonzero" opacity="1" /><path d="M28.4684 14.2342C28.4684 22.0956 22.0955 28.4684 14.2342 28.4684C6.37287 28.4684 0 22.0956 0 14.2342C0 6.37288 6.37287 0 14.2342 0C22.0955 0 28.4684 6.37288 28.4684 14.2342Z" transform="translate(17.7851 12.9999)" fill="url(#g15)" fill-rule="nonzero" opacity="1" /><path d="M19.5476 14.2342C19.5476 22.0956 13.1685 28.4987 5.30719 28.4987C-6.63739 28.4987 5.31304 23.1159 5.31304 15.2546C5.31304 7.39321 -2.54797 0 5.31337 0C13.1747 0 19.5476 6.37288 19.5476 14.2342Z" transform="translate(26.7049 22.5038)" fill="#a4a8ff" fill-rule="nonzero" opacity="1" /><path d="M19.5476 14.2342C19.5476 22.0956 13.1685 28.4987 5.30719 28.4987C-6.63739 28.4987 5.31304 23.1159 5.31304 15.2546C5.31304 7.39321 -2.54797 0 5.31337 0C13.1747 0 19.5476 6.37288 19.5476 14.2342Z" transform="translate(26.7049 22.5038)" fill="url(#g17)" fill-rule="nonzero" opacity="1" /></svg>
