<?xml version="1.0" encoding="UTF-8"?>
<svg xmlns="http://www.w3.org/2000/svg" width="64" height="64" viewBox="0 0 64 64" fill="none"><defs><linearGradient id="g1" gradientUnits="objectBoundingBox" x1="0.5" y1="0" x2="0.5" y2="1"><stop offset="0%" stop-color="#212529" stop-opacity="1" /><stop offset="100%" stop-color="#0d0d0e" stop-opacity="1" /></linearGradient><radialGradient id="g2" gradientUnits="objectBoundingBox" cx="0.9664" cy="0.7079" r="0.7571" fx="0.9664" fy="0.7079"><stop offset="0%" stop-color="#6f6dbc" stop-opacity="0.25" /><stop offset="100%" stop-color="#454646" stop-opacity="0" /></radialGradient><linearGradient id="g11" gradientUnits="objectBoundingBox" x1="-0.0034" y1="0.794" x2="1.2308" y2="0.1189"><stop offset="0%" stop-color="#ff7337" stop-opacity="1" /><stop offset="100%" stop-color="#ffc224" stop-opacity="1" /></linearGradient></defs><path d="M14.6856 5.31304C21.7072 1.77101 25.218 -1.73068e-15 29 0C32.782 2.50948e-14 36.2928 1.77101 43.3144 5.31304L43.5 5.40667L43.6827 5.52169C50.1068 9.56732 53.3189 11.5901 55.2422 14.6719C55.4025 14.9288 55.5554 15.1902 55.7007 15.4558C57.4439 18.6426 57.6293 22.4284 58 30C57.6293 37.5716 57.4439 41.3574 55.7007 44.5442C55.5554 44.8098 55.4025 45.0712 55.2422 45.3281C53.3189 48.4099 50.1068 50.4327 43.6827 54.4783L43.5 54.5933L43.3144 54.687C36.2928 58.229 32.782 60 29 60C25.218 60 21.7072 58.229 14.6856 54.687L14.5 54.5933L14.3174 54.4783C7.89318 50.4327 4.6811 48.4099 2.7578 45.3281C2.59748 45.0712 2.44458 44.8098 2.29929 44.5442C0.556123 41.3574 0.370749 37.5716 0 30C0.370749 22.4284 0.556123 18.6426 2.29929 15.4558C2.44458 15.1902 2.59748 14.9288 2.7578 14.6719C4.6811 11.5901 7.89318 9.56732 14.3174 5.52169L14.5 5.40667L14.6856 5.31304Z" transform="translate(3 2)" fill="url(#g1)" fill-rule="nonzero" opacity="1" /><path d="M14.6856 5.31304C21.7072 1.77101 25.218 -1.73068e-15 29 0C32.782 2.50948e-14 36.2928 1.77101 43.3144 5.31304L43.5 5.40667L43.6827 5.52169C50.1068 9.56732 53.3189 11.5901 55.2422 14.6719C55.4025 14.9288 55.5554 15.1902 55.7007 15.4558C57.4439 18.6426 57.6293 22.4284 58 30C57.6293 37.5716 57.4439 41.3574 55.7007 44.5442C55.5554 44.8098 55.4025 45.0712 55.2422 45.3281C53.3189 48.4099 50.1068 50.4327 43.6827 54.4783L43.5 54.5933L43.3144 54.687C36.2928 58.229 32.782 60 29 60C25.218 60 21.7072 58.229 14.6856 54.687L14.5 54.5933L14.3174 54.4783C7.89318 50.4327 4.6811 48.4099 2.7578 45.3281C2.59748 45.0712 2.44458 44.8098 2.29929 44.5442C0.556123 41.3574 0.370749 37.5716 0 30C0.370749 22.4284 0.556123 18.6426 2.29929 15.4558C2.44458 15.1902 2.59748 14.9288 2.7578 14.6719C4.6811 11.5901 7.89318 9.56732 14.3174 5.52169L14.5 5.40667L14.6856 5.31304Z" transform="translate(3 2)" fill="url(#g2)" fill-rule="nonzero" opacity="1" /><path d="M0 4C0 1.79086 1.79086 0 4 0L12 0C14.2091 0 16 1.79086 16 4L16 12C16 14.2091 14.2091 16 12 16L4 16C1.79086 16 0 14.2091 0 12L0 4Z" transform="translate(14.5001 14.5001)" fill="#646464" fill-rule="nonzero" opacity="1" /><path d="M0 0.903988C0 0.404729 0.404729 0 0.903987 0L0.903987 0C1.40325 0 1.80797 0.404729 1.80797 0.903987L1.80797 9.09601C1.80797 9.59527 1.40325 10 0.903987 10L0.903987 10C0.404729 10 0 9.59527 0 9.09601L0 0.903988Z" transform="translate(17.5001 21.5961)" fill="#ffffff" fill-rule="nonzero" opacity="1" /><path d="M0 0.903988C0 0.404729 0.404729 0 0.903987 0L0.903987 0C1.40325 0 1.80797 0.404729 1.80797 0.903987L1.80797 9.09601C1.80797 9.59527 1.40325 10 0.903987 10L0.903987 10C0.404729 10 0 9.59527 0 9.09601L0 0.903988Z" transform="translate(21.5958 17.5001)" fill="#ffffff" fill-rule="nonzero" opacity="1" /><path d="M0 4C0 1.79086 1.79086 0 4 0L12 0C14.2091 0 16 1.79086 16 4L16 12C16 14.2091 14.2091 16 12 16L4 16C1.79086 16 0 14.2091 0 12L0 4Z" transform="translate(14.5001 33.5001)" fill="#646464" fill-rule="nonzero" opacity="1" /><path d="M0 0.90151C0 0.40362 0.40362 0 0.901511 0L0.901511 0C1.3994 0 1.80302 0.40362 1.80302 0.90151L1.80302 9.09849C1.80302 9.59638 1.3994 10 0.901511 10L0.901511 10C0.40362 10 0 9.59638 0 9.09849L0 0.90151Z" transform="translate(18.3389 37.3156)" fill="#ffffff" fill-rule="nonzero" opacity="1" /><path d="M0 0.90151C0 0.40362 0.40362 0 0.901511 0L0.901511 0C1.3994 0 1.80302 0.40362 1.80302 0.90151L1.80302 9.09849C1.80302 9.59638 1.3994 10 0.901511 10L0.901511 10C0.40362 10 0 9.59638 0 9.09849L0 0.90151Z" transform="translate(18.3391 37.3155)" fill="#ffffff" fill-rule="nonzero" opacity="1" /><path d="M0 4C0 1.79086 1.79086 0 4 0L12 0C14.2091 0 16 1.79086 16 4L16 12C16 14.2091 14.2091 16 12 16L4 16C1.79086 16 0 14.2091 0 12L0 4Z" transform="translate(33.5001 14.5001)" fill="#646464" fill-rule="nonzero" opacity="1" /><path d="M0 0.903988C0 0.404729 0.404729 0 0.903987 0L0.903987 0C1.40325 0 1.80797 0.404729 1.80797 0.903987L1.80797 9.09601C1.80797 9.59527 1.40325 10 0.903987 10L0.903987 10C0.404729 10 0 9.59527 0 9.09601L0 0.903988Z" transform="translate(36.66 21.4319)" fill="#ffffff" fill-rule="nonzero" opacity="1" /><path d="M0 4C0 1.79086 1.79086 0 4 0L12 0C14.2091 0 16 1.79086 16 4L16 12C16 14.2091 14.2091 16 12 16L4 16C1.79086 16 0 14.2091 0 12L0 4Z" transform="translate(33.5001 33.5001)" fill="url(#g11)" fill-rule="nonzero" opacity="1" /><path d="M0 0.903987C0 0.404729 0.404729 0 0.903987 0L0.903987 0C1.40325 0 1.80797 0.404729 1.80797 0.903987L1.80797 7.09601C1.80797 7.59527 1.40325 8 0.903987 8L0.903987 8C0.404729 8 0 7.59527 0 7.09601L0 0.903987Z" transform="translate(37.5001 38.7875)" fill="#ffffff" fill-rule="nonzero" opacity="1" /><path d="M0 0.903987C0 0.404729 0.404729 0 0.903987 0L0.903987 0C1.40325 0 1.80797 0.404729 1.80797 0.903987L1.80797 7.09601C1.80797 7.59527 1.40325 8 0.903987 8L0.903987 8C0.404729 8 0 7.59527 0 7.09601L0 0.903987Z" transform="translate(37.5001 42.4047)" fill="#ffffff" fill-rule="nonzero" opacity="1" /></svg>
