<?xml version="1.0" encoding="UTF-8"?>
<svg xmlns="http://www.w3.org/2000/svg" width="64" height="64" viewBox="0 0 64 64" fill="none"><defs><linearGradient id="g1" gradientUnits="objectBoundingBox" x1="0.5" y1="0" x2="0.5" y2="1"><stop offset="0%" stop-color="#ffffff" stop-opacity="1" /><stop offset="100%" stop-color="#e1e2e7" stop-opacity="1" /></linearGradient><radialGradient id="g2" gradientUnits="objectBoundingBox" cx="0.9664" cy="0.7079" r="0.7571" fx="0.9664" fy="0.7079"><stop offset="0%" stop-color="#ffffff" stop-opacity="0.45" /><stop offset="100%" stop-color="#ffffff" stop-opacity="0" /></radialGradient><linearGradient id="g3" gradientUnits="objectBoundingBox" x1="0.8105" y1="0.5551" x2="0.697" y2="0.4344"><stop offset="0%" stop-color="#e4e7f1" stop-opacity="1" /><stop offset="100%" stop-color="#aaacb6" stop-opacity="1" /></linearGradient><linearGradient id="g4" gradientUnits="objectBoundingBox" x1="0.5" y1="0" x2="0.5" y2="1"><stop offset="0%" stop-color="#c2c6d0" stop-opacity="1" /><stop offset="100%" stop-color="#b9bbc2" stop-opacity="1" /></linearGradient><linearGradient id="g5" gradientUnits="objectBoundingBox" x1="0.5" y1="0" x2="0.5" y2="1"><stop offset="0%" stop-color="#c2c6d0" stop-opacity="1" /><stop offset="100%" stop-color="#b9bbc2" stop-opacity="1" /></linearGradient><linearGradient id="g6" gradientUnits="objectBoundingBox" x1="0.5" y1="0" x2="0.5" y2="1"><stop offset="0%" stop-color="#c2c6d0" stop-opacity="1" /><stop offset="100%" stop-color="#b9bbc2" stop-opacity="1" /></linearGradient><linearGradient id="g7" gradientUnits="objectBoundingBox" x1="0.5" y1="0" x2="0.5" y2="1"><stop offset="0%" stop-color="#c2c6d0" stop-opacity="1" /><stop offset="100%" stop-color="#b9bbc2" stop-opacity="1" /></linearGradient><linearGradient id="g8" gradientUnits="objectBoundingBox" x1="0.5" y1="0" x2="0.5" y2="1"><stop offset="0%" stop-color="#ff4258" stop-opacity="1" /><stop offset="100%" stop-color="#f31e37" stop-opacity="1" /></linearGradient><linearGradient id="g9" gradientUnits="objectBoundingBox" x1="0.5" y1="0" x2="0.5" y2="1"><stop offset="0%" stop-color="#ff4258" stop-opacity="1" /><stop offset="100%" stop-color="#f31e37" stop-opacity="1" /></linearGradient><linearGradient id="g10" gradientUnits="objectBoundingBox" x1="0.3433" y1="0.3689" x2="0.5764" y2="0.6154"><stop offset="0.01%" stop-color="#ffffff" stop-opacity="1" /><stop offset="61.7128%" stop-color="#ccd2de" stop-opacity="1" /><stop offset="100%" stop-color="#dee1e7" stop-opacity="1" /></linearGradient><linearGradient id="g11" gradientUnits="objectBoundingBox" x1="0.3433" y1="0.3691" x2="0.5764" y2="0.6155"><stop offset="0.01%" stop-color="#ffffff" stop-opacity="1" /><stop offset="61.7128%" stop-color="#ccd2de" stop-opacity="1" /><stop offset="100%" stop-color="#dee1e7" stop-opacity="1" /></linearGradient><radialGradient id="g12" gradientUnits="objectBoundingBox" cx="0.3496" cy="0.3433" r="0.949" fx="0.3496" fy="0.3433"><stop offset="0%" stop-color="#ffffff" stop-opacity="1" /><stop offset="100%" stop-color="#ffffff" stop-opacity="0" /></radialGradient><linearGradient id="g13" gradientUnits="objectBoundingBox" x1="0.5" y1="0" x2="0.5" y2="0.9827"><stop offset="0%" stop-color="#ff4258" stop-opacity="1" /><stop offset="100%" stop-color="#f31e37" stop-opacity="1" /></linearGradient><linearGradient id="g14" gradientUnits="objectBoundingBox" x1="0.5" y1="-0.1624" x2="0.5" y2="1.0001"><stop offset="0%" stop-color="#cfd1d9" stop-opacity="1" /><stop offset="50%" stop-color="#e7e7f1" stop-opacity="1" /><stop offset="100%" stop-color="#ccced4" stop-opacity="1" /></linearGradient></defs><path d="M14.6856 5.31304C21.7072 1.77101 25.218 -1.73068e-15 29 0C32.782 2.50948e-14 36.2928 1.77101 43.3144 5.31304L43.5 5.40667L43.6827 5.52169C50.1068 9.56732 53.3189 11.5901 55.2422 14.6719C55.4025 14.9288 55.5554 15.1902 55.7007 15.4558C57.4439 18.6426 57.6292 22.4284 58 30C57.6292 37.5716 57.4439 41.3574 55.7007 44.5442C55.5554 44.8098 55.4025 45.0712 55.2422 45.3281C53.3189 48.4099 50.1068 50.4327 43.6827 54.4783L43.5 54.5933L43.3144 54.687C36.2928 58.229 32.782 60 29 60C25.218 60 21.7072 58.229 14.6856 54.687L14.5 54.5933L14.3174 54.4783C7.89318 50.4327 4.6811 48.4099 2.7578 45.3281C2.59748 45.0712 2.44459 44.8098 2.29929 44.5442C0.556123 41.3574 0.370749 37.5716 0 30C0.370749 22.4284 0.556123 18.6426 2.29929 15.4558C2.44458 15.1902 2.59748 14.9288 2.7578 14.6719C4.6811 11.5901 7.89318 9.56732 14.3174 5.52169L14.5 5.40667L14.6856 5.31304Z" transform="translate(3 2)" fill="url(#g1)" fill-rule="nonzero" opacity="1" /><path d="M14.6856 5.31304C21.7072 1.77101 25.218 -1.73068e-15 29 0C32.782 2.50948e-14 36.2928 1.77101 43.3144 5.31304L43.5 5.40667L43.6827 5.52169C50.1068 9.56732 53.3189 11.5901 55.2422 14.6719C55.4025 14.9288 55.5554 15.1902 55.7007 15.4558C57.4439 18.6426 57.6292 22.4284 58 30C57.6292 37.5716 57.4439 41.3574 55.7007 44.5442C55.5554 44.8098 55.4025 45.0712 55.2422 45.3281C53.3189 48.4099 50.1068 50.4327 43.6827 54.4783L43.5 54.5933L43.3144 54.687C36.2928 58.229 32.782 60 29 60C25.218 60 21.7072 58.229 14.6856 54.687L14.5 54.5933L14.3174 54.4783C7.89318 50.4327 4.6811 48.4099 2.7578 45.3281C2.59748 45.0712 2.44459 44.8098 2.29929 44.5442C0.556123 41.3574 0.370749 37.5716 0 30C0.370749 22.4284 0.556123 18.6426 2.29929 15.4558C2.44458 15.1902 2.59748 14.9288 2.7578 14.6719C4.6811 11.5901 7.89318 9.56732 14.3174 5.52169L14.5 5.40667L14.6856 5.31304Z" transform="translate(3 2)" fill="url(#g2)" fill-rule="nonzero" opacity="1" /><path d="M25.8547 0C25.547 5.84229 25.2145 9.08992 23.689 11.8787C23.5437 12.1444 23.3908 12.4058 23.2305 12.6626C21.3072 15.7445 18.0951 17.7673 11.671 21.8129L11.4883 21.9279L11.3027 22.0216C6.13687 24.6274 2.87131 26.2747 0 26.9635C0 26.9635 2.81798 26.901 12.7401 16.3695C26.3058 3.09518 25.8547 0 25.8547 0Z" transform="translate(35.0119 34.6654)" fill="url(#g3)" fill-rule="nonzero" opacity="1" /><path d="M0 2C0 0.89543 0.895431 0 2 0L7 0C8.10457 0 9 0.895431 9 2L9 7C9 8.10457 8.10457 9 7 9L2 9C0.89543 9 0 8.10457 0 7L0 2Z" transform="translate(14.5 27)" fill="url(#g4)" fill-rule="nonzero" opacity="1" /><path d="M0 2C0 0.89543 0.895431 0 2 0L7 0C8.10457 0 9 0.895431 9 2L9 7C9 8.10457 8.10457 9 7 9L2 9C0.89543 9 0 8.10457 0 7L0 2Z" transform="translate(14.5 39)" fill="url(#g5)" fill-rule="nonzero" opacity="1" /><path d="M0 2C0 0.89543 0.895431 0 2 0L7 0C8.10457 0 9 0.895431 9 2L9 7C9 8.10457 8.10457 9 7 9L2 9C0.89543 9 0 8.10457 0 7L0 2Z" transform="translate(27.5 27)" fill="url(#g6)" fill-rule="nonzero" opacity="1" /><path d="M0 2C0 0.89543 0.895431 0 2 0L7 0C8.10457 0 9 0.895431 9 2L9 7C9 8.10457 8.10457 9 7 9L2 9C0.89543 9 0 8.10457 0 7L0 2Z" transform="translate(27.5 39)" fill="url(#g7)" fill-rule="nonzero" opacity="1" /><path d="M0 2C0 0.89543 0.895431 0 2 0L7 0C8.10457 0 9 0.895431 9 2L9 7C9 8.10457 8.10457 9 7 9L2 9C0.89543 9 0 8.10457 0 7L0 2Z" transform="translate(40.5 27)" fill="url(#g8)" fill-rule="nonzero" opacity="1" /><path d="M0 2C0 0.89543 0.895431 0 2 0L7 0C8.10457 0 9 0.895431 9 2L9 7C9 8.10457 8.10457 9 7 9L2 9C0.89543 9 0 8.10457 0 7L0 2Z" transform="translate(40.5 39)" fill="url(#g9)" fill-rule="nonzero" opacity="1" /><path d="M14.3471 7.20497C24.1014 5.89152 26.1722 2.10768 26.468 0C26.468 2.17947 25.6319 4.27589 24.1319 5.8571L14.9221 15.5658L5.21128 24.7124C3.77043 26.0696 1.95468 26.962 0 27.2736C5.22391 26.3073 6.69261 20.4827 6.95577 15.4312C7.16798 11.3578 10.3046 7.7493 14.3471 7.20497Z" transform="translate(34.3904 34.4804)" fill="url(#g10)" fill-rule="nonzero" opacity="1" /><path d="M14.347 7.21098C24.1014 5.89593 26.1722 2.10768 26.468 0C26.468 2.18371 25.6303 4.28419 24.1274 5.86847L14.9221 15.5724L4.90207 24.9311C3.54671 26.197 1.8358 27.0169 0 27.2802C5.22391 26.3139 6.69261 20.4893 6.95577 15.4378C7.16798 11.3644 10.3046 7.75597 14.347 7.21098Z" transform="translate(34.3904 34.4736)" fill="url(#g11)" fill-rule="nonzero" opacity="1" /><path d="M26.7509 0.0023214C26.8801 0.0204478 26.9701 0.139835 26.9519 0.268981C26.7951 1.38646 26.1666 2.92123 24.3298 4.33745C22.4982 5.74964 19.475 7.03688 14.5376 7.69291C10.6398 8.21081 7.59185 11.672 7.39342 15.6107C7.2631 18.1973 6.83365 21.0147 5.76844 23.2934C4.69989 25.5792 2.97923 27.344 0.271912 27.7586C0.143004 27.7784 0.0224979 27.6899 0.00275471 27.561C-0.0169885 27.4321 0.0715075 27.3116 0.200416 27.2918C2.70624 26.908 4.31659 25.284 5.34061 23.0934C6.36798 20.8957 6.79267 18.1491 6.92175 15.5869C7.13106 11.4325 10.3404 7.77418 14.4754 7.22477C19.3634 6.5753 22.2977 5.30788 24.0414 3.96345C25.7799 2.62304 26.3445 1.19922 26.4843 0.20334C26.5024 0.0741941 26.6218 -0.015805 26.7509 0.0023214Z" transform="translate(34.1529 34.2365)" fill="url(#g12)" fill-rule="evenodd" opacity="1" /><path d="M56.3952 20L0 20C0.311592 18.2253 0.768094 16.7882 1.4969 15.4558C1.6422 15.1902 1.7951 14.9288 1.95541 14.6719C3.87872 11.5901 7.0908 9.56732 13.515 5.52169L13.6976 5.40667L13.8832 5.31304C20.9048 1.77101 24.4157 0 28.1976 0C31.9796 0 35.4904 1.77101 42.512 5.31304L42.6976 5.40667L42.8803 5.52169C49.3044 9.56732 52.5165 11.5901 54.4398 14.6719C54.6001 14.9288 54.753 15.1902 54.8983 15.4558C55.6271 16.7882 56.0836 18.2253 56.3952 20Z" transform="translate(3.8035 2)" fill="url(#g13)" fill-rule="evenodd" opacity="1" /><path d="M0 1.5C0 0.671368 0.671892 -0.00028946 1.50052 9.35853e-08L1.50052 9.35853e-08C2.32875 0.000289504 3 0.671777 3 1.5L3 18.4995C3 19.3279 2.32843 19.9995 1.5 19.9995L1.5 19.9995C0.671573 19.9995 0 19.3279 0 18.4995L0 1.5Z" transform="translate(22 13)" fill="url(#g14)" fill-rule="nonzero" opacity="1" /></svg>
