<?xml version="1.0" encoding="UTF-8"?>
<svg xmlns="http://www.w3.org/2000/svg" width="64" height="64" viewBox="0 0 64 64" fill="none"><defs><linearGradient id="g1" gradientUnits="objectBoundingBox" x1="0.5" y1="0" x2="0.5" y2="1"><stop offset="0%" stop-color="#b4b8c5" stop-opacity="1" /><stop offset="100%" stop-color="#6f7587" stop-opacity="1" /></linearGradient><linearGradient id="g2" gradientUnits="objectBoundingBox" x1="0.5" y1="0" x2="0.5" y2="1"><stop offset="0%" stop-color="#91a09f" stop-opacity="1" /><stop offset="100%" stop-color="#647673" stop-opacity="1" /></linearGradient><linearGradient id="g3" gradientUnits="objectBoundingBox" x1="0.5" y1="0" x2="0.5" y2="1"><stop offset="0%" stop-color="#0c0d0f" stop-opacity="1" /><stop offset="62.0819%" stop-color="#1b1d23" stop-opacity="1" /><stop offset="100%" stop-color="#242630" stop-opacity="1" /></linearGradient><linearGradient id="g4" gradientUnits="objectBoundingBox" x1="0.5" y1="0" x2="0.5" y2="1"><stop offset="0%" stop-color="#1b1b20" stop-opacity="1" /><stop offset="100%" stop-color="#333743" stop-opacity="1" /></linearGradient><linearGradient id="g5" gradientUnits="objectBoundingBox" x1="0.5" y1="0" x2="0.5" y2="1"><stop offset="0%" stop-color="#4b4e5a" stop-opacity="1" /><stop offset="100%" stop-color="#000000" stop-opacity="1" /></linearGradient><linearGradient id="g7" gradientUnits="objectBoundingBox" x1="0.5027" y1="0.1359" x2="0.5027" y2="0.801"><stop offset="0%" stop-color="#09f49f" stop-opacity="1" /><stop offset="100%" stop-color="#09adf4" stop-opacity="1" /></linearGradient><linearGradient id="g8" gradientUnits="objectBoundingBox" x1="0.5027" y1="0.1359" x2="0.5027" y2="0.801"><stop offset="0%" stop-color="#09f4bc" stop-opacity="0.68" /><stop offset="0.01%" stop-color="#09caf4" stop-opacity="0.68" /><stop offset="100%" stop-color="#8951ff" stop-opacity="0.68" /></linearGradient></defs><path d="M14.6856 5.31304C21.7072 1.77101 25.218 -1.73068e-15 29 0C32.782 2.50948e-14 36.2928 1.77101 43.3144 5.31304L43.5 5.40667L43.6826 5.52169C50.1068 9.56732 53.3189 11.5901 55.2422 14.6719C55.4025 14.9288 55.5554 15.1902 55.7007 15.4558C57.4439 18.6426 57.6292 22.4284 58 30C57.6292 37.5716 57.4439 41.3574 55.7007 44.5442C55.5554 44.8098 55.4025 45.0712 55.2422 45.3281C53.3189 48.4099 50.1068 50.4327 43.6826 54.4783L43.5 54.5933L43.3144 54.687C36.2928 58.229 32.782 60 29 60C25.218 60 21.7072 58.229 14.6856 54.687L14.5 54.5933L14.3174 54.4783C7.89318 50.4327 4.6811 48.4099 2.75779 45.3281C2.59748 45.0712 2.44458 44.8098 2.29929 44.5442C0.556123 41.3574 0.370749 37.5716 0 30C0.370749 22.4284 0.556123 18.6426 2.29929 15.4558C2.44458 15.1902 2.59748 14.9288 2.7578 14.6719C4.6811 11.5901 7.89318 9.56732 14.3174 5.52169L14.5 5.40667L14.6856 5.31304Z" transform="translate(3 2)" fill="url(#g1)" fill-rule="nonzero" opacity="1" /><path d="M37.8948 18.9474C37.8948 29.4117 29.4117 37.8947 18.9474 37.8947C8.48303 37.8947 0 29.4117 0 18.9474C0 8.48303 8.48303 0 18.9474 0C29.4117 0 37.8948 8.48303 37.8948 18.9474Z" transform="translate(13.0527 13.0527)" fill="url(#g2)" fill-rule="nonzero" opacity="1" /><path d="M37.8948 18.9474C37.8948 29.4117 29.4117 37.8947 18.9474 37.8947C8.48303 37.8947 0 29.4117 0 18.9474C0 8.48303 8.48303 0 18.9474 0C29.4117 0 37.8948 8.48303 37.8948 18.9474Z" transform="translate(13.0527 13.0527)" fill="url(#g3)" fill-rule="nonzero" opacity="1" /><path d="M22.4535 11.2268C22.4535 17.4271 17.4271 22.4535 11.2268 22.4535C5.0264 22.4535 0 17.4271 0 11.2268C0 5.0264 5.0264 0 11.2268 0C17.4271 0 22.4535 5.0264 22.4535 11.2268Z" transform="translate(20.7716 20.7747)" fill="url(#g4)" fill-rule="nonzero" opacity="1" /><path d="M22.4535 11.2268L22.2535 11.2268C22.2535 17.3167 17.3167 22.2535 11.2268 22.2535L11.2268 22.4535L11.2268 22.6535C17.5376 22.6535 22.6535 17.5376 22.6535 11.2268L22.4535 11.2268ZM11.2268 22.4535L11.2268 22.2535C5.13685 22.2535 0.2 17.3167 0.2 11.2268L0 11.2268L-0.2 11.2268C-0.2 17.5376 4.91594 22.6535 11.2268 22.6535L11.2268 22.4535ZM0 11.2268L0.2 11.2268C0.2 5.13685 5.13685 0.2 11.2268 0.2L11.2268 0L11.2268 -0.2C4.91594 -0.2 -0.2 4.91594 -0.2 11.2268L0 11.2268ZM11.2268 0L11.2268 0.2C17.3167 0.2 22.2535 5.13685 22.2535 11.2268L22.4535 11.2268L22.6535 11.2268C22.6535 4.91594 17.5376 -0.2 11.2268 -0.2L11.2268 0Z" transform="translate(20.7716 20.7747)" fill="url(#g5)" fill-rule="nonzero" opacity="1" /><path d="M0.183491 1.16432C-0.278042 2.16755 0.161091 3.35498 1.16432 3.81651C2.16755 4.27804 3.35498 3.83891 3.81651 2.83568C4.27804 1.83245 3.83891 0.645024 2.83568 0.183491C1.83245 -0.278042 0.645024 0.161091 0.183491 1.16432Z" transform="translate(30 30)" fill="#09f44b" fill-rule="nonzero" opacity="1" /><path d="M24 7C24 10.866 18.6274 14 12 14C5.37258 14 0 10.866 0 7C0 3.13401 5.37258 0 12 0C18.6274 0 24 3.13401 24 7Z" transform="translate(20 15)" fill="url(#g7)" fill-rule="nonzero" opacity="0.32" /><path d="M16.8895 3.74981C16.8895 5.82077 13.1086 7.49962 8.44473 7.49962C3.78083 7.49962 0 5.82077 0 3.74981C0 1.67885 3.78083 0 8.44473 0C13.1086 0 16.8895 1.67885 16.8895 3.74981Z" transform="translate(23.7891 21.6822)" fill="url(#g8)" fill-rule="nonzero" opacity="0.32" /></svg>
