<?xml version="1.0" encoding="UTF-8"?>
<svg xmlns="http://www.w3.org/2000/svg" width="64" height="64" viewBox="0 0 64 64" fill="none"><defs><linearGradient id="g1" gradientUnits="objectBoundingBox" x1="0.5" y1="1" x2="0.5" y2="0"><stop offset="0%" stop-color="#ff7337" stop-opacity="1" /><stop offset="100%" stop-color="#ffc83a" stop-opacity="1" /></linearGradient></defs><path d="M14.6856 5.31304C21.7072 1.77101 25.218 -1.73068e-15 29 0C32.782 2.50948e-14 36.2928 1.77101 43.3144 5.31304L43.5 5.40667L43.6827 5.52169C50.1068 9.56732 53.3189 11.5901 55.2422 14.6719C55.4025 14.9288 55.5554 15.1902 55.7007 15.4558C57.4439 18.6426 57.6293 22.4284 58 30C57.6293 37.5716 57.4439 41.3574 55.7007 44.5442C55.5554 44.8098 55.4025 45.0712 55.2422 45.3281C53.3189 48.4099 50.1068 50.4327 43.6827 54.4783L43.5 54.5933L43.3144 54.687C36.2928 58.229 32.782 60 29 60C25.218 60 21.7072 58.229 14.6856 54.687L14.5 54.5933L14.3174 54.4783C7.89318 50.4327 4.6811 48.4099 2.7578 45.3281C2.59748 45.0712 2.44458 44.8098 2.29929 44.5442C0.556123 41.3574 0.370749 37.5716 0 30C0.370749 22.4284 0.556123 18.6426 2.29929 15.4558C2.44458 15.1902 2.59748 14.9288 2.7578 14.6719C4.6811 11.5901 7.89318 9.56732 14.3174 5.52169L14.5 5.40667L14.6856 5.31304Z" transform="translate(3 2)" fill="url(#g1)" fill-rule="nonzero" opacity="1" /><path d="M12.9554 6.51346C12.9554 10.1107 10.0553 13.0269 6.47772 13.0269C2.90018 13.0269 0 10.1107 0 6.51346C0 2.91618 2.90018 0 6.47772 0C10.0553 0 12.9554 2.91618 12.9554 6.51346Z" transform="translate(25.5206 15.735)" fill="#ffffff" fill-rule="nonzero" opacity="1" /><path d="M25.0086 5.5318L25.6735 8.70796C26.375 12.0591 24.9891 15.4495 21.6624 16.2594C19.5227 16.7803 16.6506 17.1941 12.9255 17.1941C9.20043 17.1941 6.32837 16.7803 4.18862 16.2594C0.861968 15.4495 -0.524007 12.0591 0.177519 8.70796L0.842404 5.5318C1.40679 2.83575 3.45274 0.699697 6.18864 0.380124C7.97906 0.17099 10.2584 0 12.9255 0C15.5926 0 17.872 0.17099 19.6624 0.380124C22.3983 0.699698 24.4442 2.83575 25.0086 5.5318Z" transform="translate(19.0742 31.071)" fill="#ffffff" fill-rule="nonzero" opacity="1" /></svg>
