<?xml version="1.0" encoding="UTF-8"?>
<svg xmlns="http://www.w3.org/2000/svg" width="64" height="64" viewBox="0 0 64 64" fill="none"><path d="M14.6856 5.31298C21.7072 1.77099 25.218 -1.73066e-15 29 0C32.782 2.50945e-14 36.2928 1.77099 43.3144 5.31298L43.5 5.4066L43.6827 5.52163C50.1068 9.56721 53.3189 11.59 55.2422 14.6718C55.4025 14.9286 55.5554 15.1901 55.7007 15.4557C57.4439 18.6424 57.6293 22.4281 58 29.9997C57.6293 37.5712 57.4439 41.3569 55.7007 44.5436C55.5554 44.8093 55.4025 45.0707 55.2422 45.3275C53.3189 48.4093 50.1068 50.4321 43.6827 54.4777L43.5 54.5927L43.3144 54.6863C36.2928 58.2283 32.782 59.9993 29 59.9993C25.218 59.9993 21.7072 58.2283 14.6856 54.6863L14.5 54.5927L14.3174 54.4777C7.89318 50.4321 4.6811 48.4093 2.7578 45.3275C2.59748 45.0707 2.44458 44.8093 2.29929 44.5436C0.556123 41.3569 0.370749 37.5712 0 29.9997C0.370749 22.4281 0.556123 18.6424 2.29929 15.4557C2.44458 15.1901 2.59748 14.9286 2.7578 14.6718C4.6811 11.59 7.89318 9.56721 14.3174 5.52163L14.5 5.4066L14.6856 5.31298Z" transform="translate(2.9999 2.0035)" fill="#ffffff" fill-rule="nonzero" opacity="1" /><path d="M43.5 5.4066L43.6599 5.15275L43.6478 5.14516L43.6351 5.13876L43.5 5.4066ZM58 29.9997L58.2996 30.0143L58.3004 29.9997L58.2996 29.985L58 29.9997ZM43.5 54.5927L43.6351 54.8606L43.6478 54.8542L43.6599 54.8466L43.5 54.5927ZM14.5 54.5927L14.3401 54.8466L14.3522 54.8542L14.3649 54.8606L14.5 54.5927ZM0 29.9997L-0.299641 29.985L-0.300359 29.9997L-0.299641 30.0143L0 29.9997ZM14.5 5.4066L14.3649 5.13875L14.3522 5.14516L14.3401 5.15275L14.5 5.4066ZM2.29929 15.4557L2.56248 15.5996L2.56248 15.5996L2.29929 15.4557ZM14.3174 5.52163L14.1575 5.26777L14.1575 5.26777L14.3174 5.52163ZM2.7578 14.6718L3.0123 14.8306L3.0123 14.8306L2.7578 14.6718ZM14.3174 54.4777L14.4772 54.2238L14.4772 54.2238L14.3174 54.4777ZM2.7578 45.3275L3.0123 45.1687L2.7578 45.3275ZM2.29929 44.5436L2.56248 44.3997L2.56248 44.3997L2.29929 44.5436ZM43.3144 54.6863L43.1793 54.4185L43.1793 54.4185L43.3144 54.6863ZM14.6856 54.6863L14.5505 54.9542L14.5505 54.9542L14.6856 54.6863ZM29 59.9993L29 60.2993L29 59.9993ZM55.7007 44.5436L55.9639 44.6876L55.9639 44.6876L55.7007 44.5436ZM43.6827 54.4777L43.8425 54.7315L43.8425 54.7315L43.6827 54.4777ZM55.2422 45.3275L55.4967 45.4864L55.2422 45.3275ZM43.6827 5.52163L43.8425 5.26777L43.8425 5.26777L43.6827 5.52163ZM55.2422 14.6718L54.9877 14.8306L55.2422 14.6718ZM55.7007 15.4557L55.4375 15.5996L55.4375 15.5996L55.7007 15.4557ZM43.3144 5.31298L43.4495 5.04513L43.4495 5.04513L43.3144 5.31298ZM14.6856 5.31298L14.5505 5.04513L14.5505 5.04513L14.6856 5.31298ZM29 0L29 -0.3L29 0ZM43.3144 5.31298L43.1793 5.58083L43.3649 5.67445L43.5 5.4066L43.6351 5.13876L43.4495 5.04513L43.3144 5.31298ZM43.5 5.4066L43.3401 5.66046L43.5228 5.77548L43.6827 5.52163L43.8425 5.26777L43.6599 5.15275L43.5 5.4066ZM43.6827 54.4777L43.5228 54.2238L43.3401 54.3389L43.5 54.5927L43.6599 54.8466L43.8425 54.7315L43.6827 54.4777ZM43.5 54.5927L43.3649 54.3249L43.1793 54.4185L43.3144 54.6863L43.4495 54.9542L43.6351 54.8606L43.5 54.5927ZM14.6856 54.6863L14.8207 54.4185L14.6351 54.3249L14.5 54.5927L14.3649 54.8606L14.5505 54.9542L14.6856 54.6863ZM14.5 54.5927L14.6599 54.3389L14.4772 54.2238L14.3174 54.4777L14.1575 54.7315L14.3401 54.8466L14.5 54.5927ZM14.3174 5.52163L14.4772 5.77548L14.6599 5.66046L14.5 5.4066L14.3401 5.15275L14.1575 5.26777L14.3174 5.52163ZM14.5 5.4066L14.6351 5.67446L14.8207 5.58083L14.6856 5.31298L14.5505 5.04513L14.3649 5.13875L14.5 5.4066ZM0 29.9997L0.299641 30.0143C0.671827 22.4134 0.860181 18.7116 2.56248 15.5996L2.29929 15.4557L2.03609 15.3117C0.252064 18.5731 0.0696698 22.4428 -0.299641 29.985L0 29.9997ZM14.3174 5.52163L14.1575 5.26777C7.7582 9.29768 4.4716 11.359 2.50329 14.5129L2.7578 14.6718L3.0123 14.8306C4.89059 11.821 8.02817 9.83673 14.4772 5.77548L14.3174 5.52163ZM2.29929 15.4557L2.56248 15.5996C2.70503 15.3391 2.85503 15.0826 3.0123 14.8306L2.7578 14.6718L2.50329 14.5129C2.33994 14.7747 2.18414 15.041 2.03609 15.3117L2.29929 15.4557ZM14.3174 54.4777L14.4772 54.2238C8.02816 50.1626 4.89059 48.1784 3.0123 45.1687L2.7578 45.3275L2.50329 45.4864C4.4716 48.6403 7.7582 50.7016 14.1575 54.7315L14.3174 54.4777ZM0 29.9997L-0.299641 30.0143C0.0696699 37.5565 0.252065 41.4262 2.03609 44.6876L2.29929 44.5436L2.56248 44.3997C0.860182 41.2877 0.671828 37.5859 0.299641 29.985L0 29.9997ZM2.7578 45.3275L3.0123 45.1687C2.85502 44.9167 2.70502 44.6603 2.56248 44.3997L2.29929 44.5436L2.03609 44.6876C2.18414 44.9583 2.33994 45.2246 2.50329 45.4864L2.7578 45.3275ZM43.3144 54.6863L43.1793 54.4185C36.1305 57.9742 32.6938 59.6993 29 59.6993L29 59.9993L29 60.2993C32.8701 60.2993 36.455 58.4825 43.4495 54.9542L43.3144 54.6863ZM14.6856 54.6863L14.5505 54.9542C21.545 58.4825 25.1299 60.2993 29 60.2993L29 59.9993L29 59.6993C25.3062 59.6993 21.8695 57.9742 14.8207 54.4185L14.6856 54.6863ZM58 29.9997L57.7004 29.985C57.3282 37.5859 57.1398 41.2877 55.4375 44.3997L55.7007 44.5436L55.9639 44.6876C57.7479 41.4262 57.9303 37.5565 58.2996 30.0143L58 29.9997ZM43.6827 54.4777L43.8425 54.7315C50.2418 50.7016 53.5284 48.6403 55.4967 45.4864L55.2422 45.3275L54.9877 45.1687C53.1094 48.1784 49.9718 50.1626 43.5228 54.2238L43.6827 54.4777ZM55.7007 44.5436L55.4375 44.3997C55.295 44.6603 55.145 44.9167 54.9877 45.1687L55.2422 45.3275L55.4967 45.4864C55.6601 45.2246 55.8159 44.9583 55.9639 44.6876L55.7007 44.5436ZM43.6827 5.52163L43.5228 5.77548C49.9718 9.83673 53.1094 11.821 54.9877 14.8306L55.2422 14.6718L55.4967 14.5129C53.5284 11.359 50.2418 9.29768 43.8425 5.26777L43.6827 5.52163ZM58 29.9997L58.2996 29.985C57.9303 22.4428 57.7479 18.5731 55.9639 15.3117L55.7007 15.4557L55.4375 15.5996C57.1398 18.7116 57.3282 22.4134 57.7004 30.0143L58 29.9997ZM55.2422 14.6718L54.9877 14.8306C55.145 15.0826 55.295 15.3391 55.4375 15.5996L55.7007 15.4557L55.9639 15.3117C55.8159 15.041 55.6601 14.7747 55.4967 14.5129L55.2422 14.6718ZM43.3144 5.31298L43.4495 5.04513C36.455 1.51683 32.8701 -0.3 29 -0.3L29 0L29 0.3C32.6938 0.3 36.1305 2.02515 43.1793 5.58083L43.3144 5.31298ZM14.6856 5.31298L14.8207 5.58083C21.8695 2.02515 25.3062 0.3 29 0.3L29 0L29 -0.3C25.1299 -0.3 21.545 1.51683 14.5505 5.04513L14.6856 5.31298Z" transform="translate(2.9999 2.0035)" fill="#2a83f2" fill-rule="nonzero" opacity="1" /><path d="M27 1.5L14 1.5C7.09644 1.5 1.5 7.09644 1.5 14L1.5 27C1.5 33.9036 7.09644 39.5 14 39.5L27 39.5C33.9036 39.5 39.5 33.9036 39.5 27L39.5 14C39.5 7.09644 33.9036 1.5 27 1.5ZM14 0C6.26801 0 0 6.26801 0 14L0 27C0 34.732 6.26801 41 14 41L27 41C34.732 41 41 34.732 41 27L41 14C41 6.26801 34.732 0 27 0L14 0Z" transform="translate(11.4999 11.5005)" fill="#2a83f2" fill-rule="evenodd" opacity="1" /><path d="M12.3 0.6C5.83827 0.6 0.6 5.83827 0.6 12.3C0.6 18.7617 5.83827 24 12.3 24C18.7617 24 24 18.7617 24 12.3C24 5.83827 18.7617 0.6 12.3 0.6ZM0 12.3C0 5.5069 5.5069 0 12.3 0C19.0931 0 24.6 5.5069 24.6 12.3C24.6 19.0931 19.0931 24.6 12.3 24.6C5.5069 24.6 0 19.0931 0 12.3Z" transform="translate(19.701 19.7004)" fill="#2a83f2" fill-rule="evenodd" opacity="1" /><path d="M20.3027 6.7002L36.7031 6.7002L36.7031 0L37.3027 0L37.3027 6.7002L48.8789 6.7002L48.9316 6.64746L48.9844 6.7002L49.1914 6.7002L49.1914 6.90625L49.2275 6.94238L49.3027 6.94238L49.3027 7.01758L49.3564 7.07129L49.3027 7.125L49.3027 18.7002L57.0029 18.7002L57.0029 19.2998L49.3027 19.2998L49.3027 35.7002L56.9629 35.7002L56.9629 36.2998L49.3027 36.2998L49.3027 47.877L49.416 47.9902L49.3027 48.1035L49.3027 48.1143L49.292 48.1143L48.9922 48.4141L48.8779 48.2998L37.3027 48.2998L37.3027 55.0234L36.7031 55.0234L36.7031 48.2998L20.3027 48.2998L20.3027 55.001L19.7031 55.001L19.7031 48.2998L8.12793 48.2998L8.10156 48.3262L8.0752 48.2998L7.82812 48.2998L7.82812 48.1338L7.70312 48.1338L7.70312 47.9268L7.67773 47.9014L7.70312 47.875L7.70312 36.2998L0.0400391 36.2998L0.0400391 35.7002L7.70312 35.7002L7.70312 19.2998L0 19.2998L0 18.7002L7.70312 18.7002L7.70312 7.125L7.67188 7.09375L7.70312 7.0625L7.70312 6.84863L7.91699 6.84863L7.91797 6.84766L7.91797 6.7002L8.06543 6.7002L8.0957 6.66992L8.12598 6.7002L19.7031 6.7002L19.7031 0L20.3027 0L20.3027 6.7002ZM8.72754 47.7002L19.7031 47.7002L19.7031 36.7246L8.72754 47.7002ZM20.3027 47.7002L36.7031 47.7002L36.7031 36.2998L20.3027 36.2998L20.3027 47.7002ZM37.3027 47.7002L48.2783 47.7002L37.3027 36.7246L37.3027 47.7002ZM48.7031 47.2773L48.7031 36.2998L37.7256 36.2998L48.7031 47.2773ZM8.30273 47.2754L19.2783 36.2998L8.30273 36.2998L8.30273 47.2754ZM8.30273 35.7002L19.7031 35.7002L19.7031 19.2998L8.30273 19.2998L8.30273 35.7002ZM20.7275 35.7002L36.2783 35.7002L28.5029 27.9248L20.7275 35.7002ZM37.3027 35.7002L48.7031 35.7002L48.7031 19.2998L37.3027 19.2998L37.3027 35.7002ZM28.9268 27.501L36.7031 35.2773L36.7031 19.7246L28.9268 27.501ZM20.3027 35.2754L28.0781 27.5L20.3027 19.7246L20.3027 35.2754ZM28.502 27.0762L36.2783 19.2998L20.7256 19.2998L28.502 27.0762ZM8.30273 18.7002L19.2783 18.7002L8.30273 7.72461L8.30273 18.7002ZM20.3027 18.7002L36.7031 18.7002L36.7031 7.2998L20.3027 7.2998L20.3027 18.7002ZM37.7275 18.7002L48.7031 18.7002L48.7031 7.72461L37.7275 18.7002ZM19.7031 18.2773L19.7031 7.2998L8.72559 7.2998L19.7031 18.2773ZM37.3027 18.2754L48.2793 7.2998L37.3027 7.2998L37.3027 18.2754Z" transform="translate(3.4969 4.5)" fill="#2a83f2" fill-rule="nonzero" opacity="1" /><path d="M41.6787 0.423828L0.423828 41.6787L0 41.2539L41.2539 0L41.6787 0.423828Z" transform="translate(11.1747 11.1477)" fill="#2a83f2" fill-rule="nonzero" opacity="1" /><path d="M41.7441 0.423828L0.423828 41.7441L0 41.3203L41.3203 0L41.7441 0.423828Z" transform="translate(11.1688 11.1694)" fill="#2a83f2" fill-rule="nonzero" opacity="1" /><path d="M0.599609 0L0.599609 55.001L0 55.001L0 0L0.599609 0Z" transform="translate(23.2001 4.5)" fill="#2a83f2" fill-rule="nonzero" opacity="1" /><path d="M0.599609 0L0.599609 41.2852L0 41.2852L0 0L0.599609 0Z" transform="translate(11.2001 11.3483)" fill="#2a83f2" fill-rule="nonzero" opacity="1" /><path d="M0.599609 0L0.599609 55.0234L0 55.0234L0 0L0.599609 0Z" transform="translate(40.2001 4.5)" fill="#2a83f2" fill-rule="nonzero" opacity="1" /><path d="M0.599609 0L0.599609 41.1719L0 41.1719L0 0L0.599609 0Z" transform="translate(52.2001 11.442)" fill="#2a83f2" fill-rule="nonzero" opacity="1" /><path d="M0.599609 0L0.599609 57.0029L0 57.0029L0 0L0.599609 0Z" transform="translate(3.4969 23.2002)" fill="#2a83f2" fill-rule="nonzero" opacity="1" /><path d="M0.599609 0L0.599609 41.2734L0 41.2734L0 0L0.599609 0Z" transform="translate(11.4149 11.2002)" fill="#2a83f2" fill-rule="nonzero" opacity="1" /><path d="M0.599609 0L0.599609 56.9229L0 56.9229L0 0L0.599609 0Z" transform="translate(3.537 40.2002)" fill="#2a83f2" fill-rule="nonzero" opacity="1" /><path d="M0.599609 0L0.599609 41.1748L0 41.1748L0 0L0.599609 0Z" transform="translate(11.3251 52.2002)" fill="#2a83f2" fill-rule="nonzero" opacity="1" /></svg>
