<?xml version="1.0" encoding="UTF-8"?>
<svg xmlns="http://www.w3.org/2000/svg" width="64" height="64" viewBox="0 0 64 64" fill="none"><defs><radialGradient id="g1" gradientUnits="objectBoundingBox" cx="0.7155" cy="0.1583" r="0.5415" fx="0.7155" fy="0.1583"><stop offset="0%" stop-color="#56ffeb" stop-opacity="0.5" /><stop offset="100%" stop-color="#4eb9fe" stop-opacity="0" /></radialGradient><linearGradient id="g2" gradientUnits="objectBoundingBox" x1="0.5" y1="0" x2="0.5" y2="1"><stop offset="0%" stop-color="#71ceff" stop-opacity="1" /><stop offset="84.375%" stop-color="#2a83f2" stop-opacity="1" /></linearGradient><radialGradient id="g3" gradientUnits="objectBoundingBox" cx="0.9724" cy="0.5" r="0.677" fx="0.9724" fy="0.5"><stop offset="0%" stop-color="#d1bcff" stop-opacity="0.3" /><stop offset="100%" stop-color="#ababff" stop-opacity="0" /></radialGradient><linearGradient id="g4" gradientUnits="objectBoundingBox" x1="0.5" y1="0.0312" x2="0.5" y2="0.9688"><stop offset="0%" stop-color="#ffffff" stop-opacity="1" /><stop offset="100%" stop-color="#e5e5e5" stop-opacity="1" /></linearGradient><linearGradient id="g5" gradientUnits="objectBoundingBox" x1="0.5" y1="0" x2="0.5" y2="1"><stop offset="0%" stop-color="#ffffff" stop-opacity="0.6" /><stop offset="100%" stop-color="#ffffff" stop-opacity="0" /></linearGradient><linearGradient id="g6" gradientUnits="objectBoundingBox" x1="0.5" y1="0" x2="0.5" y2="1"><stop offset="0%" stop-color="#ffffff" stop-opacity="0.6" /><stop offset="100%" stop-color="#ffffff" stop-opacity="0" /></linearGradient></defs><path d="M14.6856 5.31304C21.7072 1.77101 25.218 -1.73068e-15 29 0C32.782 2.50948e-14 36.2928 1.77101 43.3144 5.31304L43.5 5.40667L43.6827 5.52169C50.1068 9.56732 53.3189 11.5901 55.2422 14.6719C55.4025 14.9288 55.5554 15.1902 55.7007 15.4558C57.4439 18.6426 57.6292 22.4284 58 30C57.6292 37.5716 57.4439 41.3574 55.7007 44.5442C55.5554 44.8098 55.4025 45.0712 55.2422 45.3281C53.3189 48.4099 50.1068 50.4327 43.6827 54.4783L43.5 54.5933L43.3144 54.687C36.2928 58.229 32.782 60 29 60C25.218 60 21.7072 58.229 14.6856 54.687L14.5 54.5933L14.3174 54.4783C7.89318 50.4327 4.6811 48.4099 2.7578 45.3281C2.59748 45.0712 2.44459 44.8098 2.29929 44.5442C0.556123 41.3574 0.370749 37.5716 0 30C0.370749 22.4284 0.556123 18.6426 2.29929 15.4558C2.44458 15.1902 2.59748 14.9288 2.7578 14.6719C4.6811 11.5901 7.89318 9.56732 14.3174 5.52169L14.5 5.40667L14.6856 5.31304Z" transform="translate(3 2)" fill="url(#g1)" fill-rule="nonzero" opacity="1" /><path d="M14.6856 5.31304C21.7072 1.77101 25.218 -1.73068e-15 29 0C32.782 2.50948e-14 36.2928 1.77101 43.3144 5.31304L43.5 5.40667L43.6827 5.52169C50.1068 9.56732 53.3189 11.5901 55.2422 14.6719C55.4025 14.9288 55.5554 15.1902 55.7007 15.4558C57.4439 18.6426 57.6292 22.4284 58 30C57.6292 37.5716 57.4439 41.3574 55.7007 44.5442C55.5554 44.8098 55.4025 45.0712 55.2422 45.3281C53.3189 48.4099 50.1068 50.4327 43.6827 54.4783L43.5 54.5933L43.3144 54.687C36.2928 58.229 32.782 60 29 60C25.218 60 21.7072 58.229 14.6856 54.687L14.5 54.5933L14.3174 54.4783C7.89318 50.4327 4.6811 48.4099 2.7578 45.3281C2.59748 45.0712 2.44459 44.8098 2.29929 44.5442C0.556123 41.3574 0.370749 37.5716 0 30C0.370749 22.4284 0.556123 18.6426 2.29929 15.4558C2.44458 15.1902 2.59748 14.9288 2.7578 14.6719C4.6811 11.5901 7.89318 9.56732 14.3174 5.52169L14.5 5.40667L14.6856 5.31304Z" transform="translate(3 2)" fill="url(#g2)" fill-rule="nonzero" opacity="1" /><path d="M14.6856 5.31304C21.7072 1.77101 25.218 -1.73068e-15 29 0C32.782 2.50948e-14 36.2928 1.77101 43.3144 5.31304L43.5 5.40667L43.6827 5.52169C50.1068 9.56732 53.3189 11.5901 55.2422 14.6719C55.4025 14.9288 55.5554 15.1902 55.7007 15.4558C57.4439 18.6426 57.6292 22.4284 58 30C57.6292 37.5716 57.4439 41.3574 55.7007 44.5442C55.5554 44.8098 55.4025 45.0712 55.2422 45.3281C53.3189 48.4099 50.1068 50.4327 43.6827 54.4783L43.5 54.5933L43.3144 54.687C36.2928 58.229 32.782 60 29 60C25.218 60 21.7072 58.229 14.6856 54.687L14.5 54.5933L14.3174 54.4783C7.89318 50.4327 4.6811 48.4099 2.7578 45.3281C2.59748 45.0712 2.44459 44.8098 2.29929 44.5442C0.556123 41.3574 0.370749 37.5716 0 30C0.370749 22.4284 0.556123 18.6426 2.29929 15.4558C2.44458 15.1902 2.59748 14.9288 2.7578 14.6719C4.6811 11.5901 7.89318 9.56732 14.3174 5.52169L14.5 5.40667L14.6856 5.31304Z" transform="translate(3 2)" fill="url(#g3)" fill-rule="nonzero" opacity="1" /><path d="M24.8368 3.13923C24.6891 3.25962 24.4908 3.50581 24.4908 4.14733L24.4908 32.1165C24.4908 33.4431 24.0257 34.5615 23.1035 35.3145C22.2293 36.0284 21.1268 36.2638 20.1116 36.2638C19.0996 36.2638 17.9965 36.0319 17.1211 35.3187C16.1966 34.5655 15.7325 33.4456 15.7325 32.1165L15.7325 17.395C15.7325 16.7593 15.5352 16.5115 15.3852 16.389C15.1871 16.2273 14.8075 16.0777 14.1833 16.0777C13.556 16.0777 13.1769 16.2266 12.9802 16.3869C12.8324 16.5073 12.6341 16.7535 12.6341 17.395L12.6341 27.9766C12.6341 29.3032 12.169 30.4216 11.2468 31.1746C10.3726 31.8885 9.27017 32.1239 8.25496 32.1239C7.24289 32.1239 6.13985 31.892 5.26438 31.1788C4.69097 30.7116 4.29466 30.1034 4.07637 29.3916L0 29.3916L0 26.5616L6.70579 26.5616L6.70579 27.9766C6.70579 28.6181 6.90405 28.8643 7.05183 28.9847C7.24858 29.145 7.62764 29.2939 8.25496 29.2939C8.87915 29.2939 9.2588 29.1443 9.45683 28.9826C9.6069 28.8601 9.80413 28.6123 9.80413 27.9766L9.80413 17.395C9.80413 16.0659 10.2683 14.946 11.1927 14.1928C12.0682 13.4796 13.1712 13.2477 14.1833 13.2477C15.1985 13.2477 16.3009 13.4831 17.1752 14.197C18.0973 14.95 18.5625 16.0684 18.5625 17.395L18.5625 32.1165C18.5625 32.758 18.7607 33.0042 18.9085 33.1246C19.1053 33.2849 19.4843 33.4338 20.1116 33.4338C20.7358 33.4338 21.1155 33.2842 21.3135 33.1225C21.4636 33 21.6608 32.7522 21.6608 32.1165L21.6608 4.14733C21.6608 2.81826 22.1249 1.69829 23.0494 0.945161C23.9249 0.231934 25.0279 0 26.04 0C27.0552 0 28.1576 0.235422 29.0318 0.949303C29.954 1.70234 30.4191 2.82075 30.4191 4.14733L30.4191 41.2243C30.4191 41.8658 30.6174 42.112 30.7652 42.2324C30.9619 42.3927 31.341 42.5416 31.9683 42.5416C32.5925 42.5416 32.9721 42.392 33.1702 42.2303C33.3202 42.1078 33.5175 41.86 33.5175 41.2243L33.5175 14.0831C33.5175 12.754 33.9816 11.6341 34.9061 10.8809C35.7815 10.1677 36.8846 9.93576 37.8966 9.93576C38.9119 9.93576 40.0143 10.1712 40.8885 10.8851C41.8107 11.6381 42.2758 12.7565 42.2758 14.0831L42.2758 27.9766C42.2758 28.6181 42.4741 28.8643 42.6218 28.9847C42.8186 29.145 43.1977 29.2939 43.825 29.2939C44.4492 29.2939 44.8288 29.1443 45.0268 28.9826C45.1769 28.8601 45.3741 28.6123 45.3741 27.9766L45.3741 26.5616L50.7966 26.5616L50.7966 29.3916L48.0026 29.3916C47.7841 30.1013 47.3882 30.7081 46.8168 31.1746C45.9426 31.8885 44.8402 32.1239 43.825 32.1239C42.8129 32.1239 41.7099 31.892 40.8344 31.1788C39.9099 30.4256 39.4458 29.3057 39.4458 27.9766L39.4458 14.0831C39.4458 13.4474 39.2486 13.1996 39.0985 13.0771C38.9005 12.9153 38.5208 12.7658 37.8966 12.7658C37.2693 12.7658 36.8903 12.9147 36.6935 13.075C36.5457 13.1954 36.3475 13.4416 36.3475 14.0831L36.3475 41.2243C36.3475 42.5509 35.8823 43.6693 34.9602 44.4223C34.0859 45.1362 32.9835 45.3716 31.9683 45.3716C30.9562 45.3716 29.8532 45.1397 28.9777 44.4265C28.0533 43.6733 27.5891 42.5534 27.5891 41.2243L27.5891 4.14733C27.5891 3.51161 27.3919 3.26384 27.2418 3.1413C27.0438 2.97959 26.6642 2.83 26.04 2.83C25.4126 2.83 25.0336 2.97894 24.8368 3.13923Z" transform="translate(7 9.6689)" fill="url(#g4)" fill-rule="evenodd" opacity="1" /><path d="M0 4C0 1.79086 1.79086 0 4 0L4.8 0C7.00914 0 8.8 1.79086 8.8 4L8.8 24C8.8 26.2091 7.00914 28 4.8 28L4 28C1.79086 28 0 26.2091 0 24L0 4Z" transform="translate(16.8008 23)" fill="url(#g5)" fill-rule="nonzero" opacity="1" /><path d="M0 4C0 1.79086 1.79086 0 4 0L4 0C6.20914 0 8 1.79086 8 4L8 36C8 38.2091 6.20914 40 4 40L4 40C1.79086 40 0 38.2091 0 36L0 4Z" transform="translate(29 10.084)" fill="url(#g6)" fill-rule="nonzero" opacity="1" /></svg>
