<?xml version="1.0" encoding="UTF-8"?>
<svg xmlns="http://www.w3.org/2000/svg" width="64" height="64" viewBox="0 0 64 64" fill="none"><defs><linearGradient id="g17" gradientUnits="objectBoundingBox" x1="0.5" y1="-0.4222" x2="0.5" y2="1"><stop offset="0%" stop-color="#5da1f5" stop-opacity="1" /><stop offset="42.2987%" stop-color="#0662d6" stop-opacity="1" /><stop offset="63.482%" stop-color="#0b4894" stop-opacity="1" /></linearGradient><linearGradient id="g19" gradientUnits="objectBoundingBox" x1="0.5" y1="0" x2="0.5" y2="1.1677"><stop offset="7.2931%" stop-color="#ffffff" stop-opacity="1" /><stop offset="100%" stop-color="#5ea1f5" stop-opacity="1" /></linearGradient><linearGradient id="g20" gradientUnits="objectBoundingBox" x1="0.5" y1="0" x2="0.5" y2="1.1968"><stop offset="35.2357%" stop-color="#5da1f5" stop-opacity="1" /><stop offset="100%" stop-color="#1b7af1" stop-opacity="1" /></linearGradient></defs><path d="M14.6856 5.31298C21.7072 1.77099 25.218 -1.73066e-15 29 0C32.782 2.50945e-14 36.2928 1.77099 43.3144 5.31298L43.5 5.4066L43.6827 5.52163C50.1068 9.56721 53.3189 11.59 55.2422 14.6718C55.4025 14.9286 55.5554 15.1901 55.7007 15.4557C57.4439 18.6424 57.6293 22.4281 58 29.9997C57.6293 37.5712 57.4439 41.3569 55.7007 44.5436C55.5554 44.8093 55.4025 45.0707 55.2422 45.3275C53.3189 48.4093 50.1068 50.4321 43.6827 54.4777L43.5 54.5927L43.3144 54.6863C36.2928 58.2283 32.782 59.9993 29 59.9993C25.218 59.9993 21.7072 58.2283 14.6856 54.6863L14.5 54.5927L14.3174 54.4777C7.89318 50.4321 4.6811 48.4093 2.7578 45.3275C2.59748 45.0707 2.44458 44.8093 2.29929 44.5436C0.556123 41.3569 0.370749 37.5712 0 29.9997C0.370749 22.4281 0.556123 18.6424 2.29929 15.4557C2.44458 15.1901 2.59748 14.9286 2.7578 14.6718C4.6811 11.59 7.89318 9.56721 14.3174 5.52163L14.5 5.4066L14.6856 5.31298Z" transform="translate(2.9999 2.0035)" fill="#ffffff" fill-rule="nonzero" opacity="1" /><path d="M43.5 5.4066L43.6599 5.15275L43.6478 5.14516L43.6351 5.13876L43.5 5.4066ZM58 29.9997L58.2996 30.0143L58.3004 29.9997L58.2996 29.985L58 29.9997ZM43.5 54.5927L43.6351 54.8606L43.6478 54.8542L43.6599 54.8466L43.5 54.5927ZM14.5 54.5927L14.3401 54.8466L14.3522 54.8542L14.3649 54.8606L14.5 54.5927ZM0 29.9997L-0.299641 29.985L-0.300359 29.9997L-0.299641 30.0143L0 29.9997ZM14.5 5.4066L14.3649 5.13875L14.3522 5.14516L14.3401 5.15275L14.5 5.4066ZM2.29929 15.4557L2.56248 15.5996L2.56248 15.5996L2.29929 15.4557ZM14.3174 5.52163L14.1575 5.26777L14.1575 5.26777L14.3174 5.52163ZM2.7578 14.6718L3.0123 14.8306L3.0123 14.8306L2.7578 14.6718ZM14.3174 54.4777L14.4772 54.2238L14.4772 54.2238L14.3174 54.4777ZM2.7578 45.3275L3.0123 45.1687L2.7578 45.3275ZM2.29929 44.5436L2.56248 44.3997L2.56248 44.3997L2.29929 44.5436ZM43.3144 54.6863L43.1793 54.4185L43.1793 54.4185L43.3144 54.6863ZM14.6856 54.6863L14.5505 54.9542L14.5505 54.9542L14.6856 54.6863ZM29 59.9993L29 60.2993L29 59.9993ZM55.7007 44.5436L55.9639 44.6876L55.9639 44.6876L55.7007 44.5436ZM43.6827 54.4777L43.8425 54.7315L43.8425 54.7315L43.6827 54.4777ZM55.2422 45.3275L55.4967 45.4864L55.2422 45.3275ZM43.6827 5.52163L43.8425 5.26777L43.8425 5.26777L43.6827 5.52163ZM55.2422 14.6718L54.9877 14.8306L55.2422 14.6718ZM55.7007 15.4557L55.4375 15.5996L55.4375 15.5996L55.7007 15.4557ZM43.3144 5.31298L43.4495 5.04513L43.4495 5.04513L43.3144 5.31298ZM14.6856 5.31298L14.5505 5.04513L14.5505 5.04513L14.6856 5.31298ZM29 0L29 -0.3L29 0ZM43.3144 5.31298L43.1793 5.58083L43.3649 5.67445L43.5 5.4066L43.6351 5.13876L43.4495 5.04513L43.3144 5.31298ZM43.5 5.4066L43.3401 5.66046L43.5228 5.77548L43.6827 5.52163L43.8425 5.26777L43.6599 5.15275L43.5 5.4066ZM43.6827 54.4777L43.5228 54.2238L43.3401 54.3389L43.5 54.5927L43.6599 54.8466L43.8425 54.7315L43.6827 54.4777ZM43.5 54.5927L43.3649 54.3249L43.1793 54.4185L43.3144 54.6863L43.4495 54.9542L43.6351 54.8606L43.5 54.5927ZM14.6856 54.6863L14.8207 54.4185L14.6351 54.3249L14.5 54.5927L14.3649 54.8606L14.5505 54.9542L14.6856 54.6863ZM14.5 54.5927L14.6599 54.3389L14.4772 54.2238L14.3174 54.4777L14.1575 54.7315L14.3401 54.8466L14.5 54.5927ZM14.3174 5.52163L14.4772 5.77548L14.6599 5.66046L14.5 5.4066L14.3401 5.15275L14.1575 5.26777L14.3174 5.52163ZM14.5 5.4066L14.6351 5.67446L14.8207 5.58083L14.6856 5.31298L14.5505 5.04513L14.3649 5.13875L14.5 5.4066ZM0 29.9997L0.299641 30.0143C0.671827 22.4134 0.860181 18.7116 2.56248 15.5996L2.29929 15.4557L2.03609 15.3117C0.252064 18.5731 0.0696698 22.4428 -0.299641 29.985L0 29.9997ZM14.3174 5.52163L14.1575 5.26777C7.7582 9.29768 4.4716 11.359 2.50329 14.5129L2.7578 14.6718L3.0123 14.8306C4.89059 11.821 8.02817 9.83673 14.4772 5.77548L14.3174 5.52163ZM2.29929 15.4557L2.56248 15.5996C2.70503 15.3391 2.85503 15.0826 3.0123 14.8306L2.7578 14.6718L2.50329 14.5129C2.33994 14.7747 2.18414 15.041 2.03609 15.3117L2.29929 15.4557ZM14.3174 54.4777L14.4772 54.2238C8.02816 50.1626 4.89059 48.1784 3.0123 45.1687L2.7578 45.3275L2.50329 45.4864C4.4716 48.6403 7.7582 50.7016 14.1575 54.7315L14.3174 54.4777ZM0 29.9997L-0.299641 30.0143C0.0696699 37.5565 0.252065 41.4262 2.03609 44.6876L2.29929 44.5436L2.56248 44.3997C0.860182 41.2877 0.671828 37.5859 0.299641 29.985L0 29.9997ZM2.7578 45.3275L3.0123 45.1687C2.85502 44.9167 2.70502 44.6603 2.56248 44.3997L2.29929 44.5436L2.03609 44.6876C2.18414 44.9583 2.33994 45.2246 2.50329 45.4864L2.7578 45.3275ZM43.3144 54.6863L43.1793 54.4185C36.1305 57.9742 32.6938 59.6993 29 59.6993L29 59.9993L29 60.2993C32.8701 60.2993 36.455 58.4825 43.4495 54.9542L43.3144 54.6863ZM14.6856 54.6863L14.5505 54.9542C21.545 58.4825 25.1299 60.2993 29 60.2993L29 59.9993L29 59.6993C25.3062 59.6993 21.8695 57.9742 14.8207 54.4185L14.6856 54.6863ZM58 29.9997L57.7004 29.985C57.3282 37.5859 57.1398 41.2877 55.4375 44.3997L55.7007 44.5436L55.9639 44.6876C57.7479 41.4262 57.9303 37.5565 58.2996 30.0143L58 29.9997ZM43.6827 54.4777L43.8425 54.7315C50.2418 50.7016 53.5284 48.6403 55.4967 45.4864L55.2422 45.3275L54.9877 45.1687C53.1094 48.1784 49.9718 50.1626 43.5228 54.2238L43.6827 54.4777ZM55.7007 44.5436L55.4375 44.3997C55.295 44.6603 55.145 44.9167 54.9877 45.1687L55.2422 45.3275L55.4967 45.4864C55.6601 45.2246 55.8159 44.9583 55.9639 44.6876L55.7007 44.5436ZM43.6827 5.52163L43.5228 5.77548C49.9718 9.83673 53.1094 11.821 54.9877 14.8306L55.2422 14.6718L55.4967 14.5129C53.5284 11.359 50.2418 9.29768 43.8425 5.26777L43.6827 5.52163ZM58 29.9997L58.2996 29.985C57.9303 22.4428 57.7479 18.5731 55.9639 15.3117L55.7007 15.4557L55.4375 15.5996C57.1398 18.7116 57.3282 22.4134 57.7004 30.0143L58 29.9997ZM55.2422 14.6718L54.9877 14.8306C55.145 15.0826 55.295 15.3391 55.4375 15.5996L55.7007 15.4557L55.9639 15.3117C55.8159 15.041 55.6601 14.7747 55.4967 14.5129L55.2422 14.6718ZM43.3144 5.31298L43.4495 5.04513C36.455 1.51683 32.8701 -0.3 29 -0.3L29 0L29 0.3C32.6938 0.3 36.1305 2.02515 43.1793 5.58083L43.3144 5.31298ZM14.6856 5.31298L14.8207 5.58083C21.8695 2.02515 25.3062 0.3 29 0.3L29 0L29 -0.3C25.1299 -0.3 21.545 1.51683 14.5505 5.04513L14.6856 5.31298Z" transform="translate(2.9999 2.0035)" fill="#2a83f2" fill-rule="nonzero" opacity="1" /><path d="M0 14C0 6.26801 6.26801 0 14 0L27 0C34.732 0 41 6.26801 41 14L41 27C41 34.732 34.732 41 27 41L14 41C6.26801 41 0 34.732 0 27L0 14Z" transform="translate(11.4999 11.5005)" fill="#2a83f2" fill-rule="nonzero" opacity="0.08" /><path d="M27 1.5L14 1.5C7.09644 1.5 1.5 7.09644 1.5 14L1.5 27C1.5 33.9036 7.09644 39.5 14 39.5L27 39.5C33.9036 39.5 39.5 33.9036 39.5 27L39.5 14C39.5 7.09644 33.9036 1.5 27 1.5ZM14 0C6.26801 0 0 6.26801 0 14L0 27C0 34.732 6.26801 41 14 41L27 41C34.732 41 41 34.732 41 27L41 14C41 6.26801 34.732 0 27 0L14 0Z" transform="translate(11.4999 11.5005)" fill="#2a83f2" fill-rule="evenodd" opacity="1" /><path d="M12.3 0.6C5.83827 0.6 0.6 5.83827 0.6 12.3C0.6 18.7617 5.83827 24 12.3 24C18.7617 24 24 18.7617 24 12.3C24 5.83827 18.7617 0.6 12.3 0.6ZM0 12.3C0 5.5069 5.5069 0 12.3 0C19.0931 0 24.6 5.5069 24.6 12.3C24.6 19.0931 19.0931 24.6 12.3 24.6C5.5069 24.6 0 19.0931 0 12.3Z" transform="translate(19.701 19.7004)" fill="#2a83f2" fill-rule="evenodd" opacity="1" /><path d="M0 41.2544L0.212132 41.4666L41.4666 0.212132L41.2544 0L41.0423 -0.212132L-0.212132 41.0423L0 41.2544Z" transform="translate(11.3866 11.3596)" fill="#2a83f2" fill-rule="nonzero" opacity="1" /><path d="M0 41.3203L0.212132 41.5324L41.5324 0.212132L41.3203 0L41.1081 -0.212132L-0.212132 41.1081L0 41.3203Z" transform="translate(11.3808 11.3813)" fill="#2a83f2" fill-rule="nonzero" opacity="1" /><path d="M2.16836e-06 0L-0.299998 -1.16252e-08L-0.3 55.0006L3.70492e-08 55.0006L0.3 55.0006L0.300002 1.16252e-08L2.16836e-06 0Z" transform="translate(23.4999 4.5)" fill="#2a83f2" fill-rule="nonzero" opacity="1" /><path d="M1.09043e-06 0L-0.299999 -7.64662e-09L-0.3 41.2848L3.81333e-08 41.2848L0.3 41.2848L0.300001 7.64662e-09L1.09043e-06 0Z" transform="translate(11.4999 11.3483)" fill="#2a83f2" fill-rule="nonzero" opacity="1" /><path d="M4.09273e-12 -9.17144e-05L-0.3 -9.17143e-05L-0.3 55.0236L1.9274e-08 55.0236L0.3 55.0236L0.3 -9.17146e-05L4.09273e-12 -9.17144e-05Z" transform="translate(40.4999 4.5)" fill="#2a83f2" fill-rule="nonzero" opacity="1" /><path d="M0 0L-0.3 4.73867e-09L-0.299999 41.1715L6.50327e-07 41.1715L0.300001 41.1715L0.3 -4.73867e-09L0 0Z" transform="translate(52.4999 11.442)" fill="#2a83f2" fill-rule="nonzero" opacity="1" /><path d="M0 0L-0.3 0L-0.3 57.0026L0 57.0026L0.3 57.0026L0.3 0L0 0Z" transform="translate(3.4973 23.5)" fill="#2a83f2" fill-rule="nonzero" opacity="1" /><path d="M0 0L-0.3 1.48496e-09L-0.3 41.2735L2.04298e-07 41.2735L0.3 41.2735L0.3 -1.48496e-09L0 0Z" transform="translate(11.4149 11.5)" fill="#2a83f2" fill-rule="nonzero" opacity="1" /><path d="M0 0L-0.3 0L-0.3 56.9229L0 56.9229L0.3 56.9229L0.3 0L0 0Z" transform="translate(3.537 40.5)" fill="#2a83f2" fill-rule="nonzero" opacity="1" /><path d="M0 0L-0.3 0L-0.3 41.1744L0 41.1744L0.3 41.1744L0.3 0L0 0Z" transform="translate(11.3255 52.5)" fill="#2a83f2" fill-rule="nonzero" opacity="1" /><path d="M14.6856 5.31304C21.7072 1.77101 25.218 -1.73068e-15 29 0C32.782 2.50948e-14 36.2928 1.77101 43.3144 5.31304L43.5 5.40667L43.6827 5.52169C50.1068 9.56732 53.3189 11.5901 55.2422 14.6719C55.4025 14.9288 55.5554 15.1902 55.7007 15.4558C57.386 18.5368 57.6152 22.1777 57.9636 29.2584C57.9756 29.5015 58.0185 31.0557 58.0308 31.307C57.66 38.8786 57.4439 41.3574 55.7007 44.5442C55.5554 44.8098 55.4025 45.0712 55.2422 45.3281C53.3189 48.4099 50.1068 50.4327 43.6827 54.4783L43.5 54.5933L43.3144 54.687C36.2928 58.229 32.782 60 29 60C25.218 60 21.7072 58.229 14.6856 54.687L14.5 54.5933L14.3174 54.4783C7.89318 50.4327 4.6811 48.4099 2.7578 45.3281C2.59748 45.0712 2.44459 44.8098 2.29929 44.5442C0.556123 41.3574 0.370749 37.5716 0 30C0.370749 22.4284 0.556123 18.6426 2.29929 15.4558C2.44458 15.1902 2.59748 14.9288 2.7578 14.6719C4.6811 11.5901 7.89318 9.56732 14.3174 5.52169L14.5 5.40667L14.6856 5.31304Z" transform="translate(2.9984 1.9868)" fill="url(#g17)" fill-rule="nonzero" opacity="1" /><path d="M0 2C0 0.895431 0.895431 0 2 0L34.2986 0C35.4032 0 36.2986 0.895431 36.2986 2L36.2986 32.7989C36.2986 33.9035 35.4032 34.7989 34.2986 34.7989L2 34.7989C0.895431 34.7989 0 33.9035 0 32.7989L0 2Z" transform="translate(13.8507 12.9853)" fill="#ffffff" fill-rule="nonzero" opacity="0.59" /><path d="M0 2C0 0.895431 0.895431 0 2 0L39.9598 0C41.0643 0 41.9598 0.895431 41.9598 2L41.9598 32.7989C41.9598 33.9035 41.0643 34.7989 39.9598 34.7989L2 34.7989C0.895433 34.7989 0 33.9035 0 32.7989L0 2Z" transform="translate(11.0201 17.3713)" fill="url(#g19)" fill-rule="nonzero" opacity="1" /><path d="M23.2345 0C24.4988 0 25.6274 0.792572 26.0565 1.98178L26.5454 3.33679C26.9745 4.526 28.1031 5.31857 29.3673 5.31857L54.5507 5.31857C56.0135 5.31857 57.3473 6.3655 57.6126 7.75095C57.998 9.76324 58.2131 10.7032 58.0543 13.9471C57.6836 21.5186 57.4982 21.3045 55.755 24.4912C55.6097 24.7568 55.4568 25.0182 55.2965 25.2751C53.3732 28.3569 50.1611 30.3797 43.737 34.4254L43.5543 34.5404L43.3687 34.634C36.3471 38.176 32.8363 39.9471 29.0543 39.9471C25.2723 39.9471 21.7615 38.176 14.7399 34.634L14.5543 34.5404L14.3716 34.4254C7.94748 30.3797 4.73539 28.3569 2.81211 25.2751C2.75028 25.176 2.68955 25.0763 2.62992 24.9759C2.53495 24.8159 2.44285 24.6544 2.35361 24.4912C0.61045 21.3045 0.425025 21.5186 0.0542975 13.9471C-0.0820634 9.66301 -0.106262 5.6554 1.80524 1.75542C2.29329 0.759663 3.71456 0 4.89829 0L23.2345 0Z" transform="translate(2.9441 22.0398)" fill="url(#g20)" fill-rule="nonzero" opacity="1" /></svg>
