<svg width="24" height="24" viewBox="0 0 24 24" fill="none" xmlns="http://www.w3.org/2000/svg">
<path fill-rule="evenodd" clip-rule="evenodd" d="M20 19C20 20.6569 18.6569 22 17 22H7C5.34315 22 4 20.6569 4 19V5C4 3.34315 5.34315 2 7 2H13.1716C13.3117 2 13.4502 2.0147 13.5852 2.04324C13.9614 2.12276 14.3098 2.30977 14.5858 2.58579L19.4142 7.41421C19.6903 7.69032 19.8774 8.03885 19.9568 8.41515C19.9853 8.55003 20 8.68847 20 8.82843V19ZM9 12C8.44772 12 8 12.4477 8 13C8 13.5523 8.44772 14 9 14H15C15.5523 14 16 13.5523 16 13C16 12.4477 15.5523 12 15 12H9ZM8 17C8 16.4477 8.44772 16 9 16H15C15.5523 16 16 16.4477 16 17C16 17.5523 15.5523 18 15 18H9C8.44772 18 8 17.5523 8 17ZM12 7.99994V4H13.1716L18 8.82843V9.99994H14C12.8954 9.99994 12 9.10451 12 7.99994Z" fill="#212529"/>
</svg>
