<?xml version="1.0" encoding="UTF-8"?>
<svg xmlns="http://www.w3.org/2000/svg" width="64" height="64" viewBox="0 0 64 64" fill="none"><defs><linearGradient id="g1" gradientUnits="objectBoundingBox" x1="0.5" y1="0" x2="0.5" y2="1"><stop offset="0%" stop-color="#48c0ff" stop-opacity="1" /><stop offset="84.375%" stop-color="#0083ff" stop-opacity="1" /></linearGradient><radialGradient id="g2" gradientUnits="objectBoundingBox" cx="0.9724" cy="0.5" r="0.677" fx="0.9724" fy="0.5"><stop offset="0%" stop-color="#56ffeb" stop-opacity="0.3" /><stop offset="100%" stop-color="#4eb9fe" stop-opacity="0" /></radialGradient><linearGradient id="g3" gradientUnits="objectBoundingBox" x1="0.5" y1="0" x2="0.5" y2="1"><stop offset="0%" stop-color="#8b8bff" stop-opacity="1" /><stop offset="84.375%" stop-color="#6f3dff" stop-opacity="1" /></linearGradient><radialGradient id="g4" gradientUnits="objectBoundingBox" cx="0.9724" cy="0.5" r="0.677" fx="0.9724" fy="0.5"><stop offset="0%" stop-color="#d1bcff" stop-opacity="0.3" /><stop offset="100%" stop-color="#ababff" stop-opacity="0" /></radialGradient><linearGradient id="g5" gradientUnits="objectBoundingBox" x1="0.5" y1="0" x2="0.5" y2="1"><stop offset="0%" stop-color="#ffffff" stop-opacity="1" /><stop offset="100%" stop-color="#becbec" stop-opacity="1" /></linearGradient><linearGradient id="g6" gradientUnits="objectBoundingBox" x1="0.5" y1="0" x2="0.5" y2="1"><stop offset="0%" stop-color="#ffffff" stop-opacity="1" /><stop offset="100%" stop-color="#becbec" stop-opacity="1" /></linearGradient><linearGradient id="g7" gradientUnits="objectBoundingBox" x1="0.5" y1="0" x2="0.5" y2="1.0718"><stop offset="0%" stop-color="#becbec" stop-opacity="1" /><stop offset="100%" stop-color="#ecefff" stop-opacity="1" /></linearGradient><linearGradient id="g8" gradientUnits="objectBoundingBox" x1="0.5" y1="0" x2="0.5" y2="1.0718"><stop offset="0%" stop-color="#f5faff" stop-opacity="1" /><stop offset="72.5035%" stop-color="#ffffff" stop-opacity="1" /></linearGradient></defs><path d="M14.6856 5.31304C21.7072 1.77101 25.218 -1.73068e-15 29 0C32.782 2.50948e-14 36.2928 1.77101 43.3144 5.31304L43.5 5.40667L43.6827 5.52169C50.1068 9.56732 53.3189 11.5901 55.2422 14.6719C55.4025 14.9288 55.5554 15.1902 55.7007 15.4558C57.4439 18.6426 57.6293 22.4284 58 30C57.6293 37.5716 57.4439 41.3574 55.7007 44.5442C55.5554 44.8098 55.4025 45.0712 55.2422 45.3281C53.3189 48.4099 50.1068 50.4327 43.6827 54.4783L43.5 54.5933L43.3144 54.687C36.2928 58.229 32.782 60 29 60C25.218 60 21.7072 58.229 14.6856 54.687L14.5 54.5933L14.3174 54.4783C7.89318 50.4327 4.6811 48.4099 2.7578 45.3281C2.59748 45.0712 2.44458 44.8098 2.29929 44.5442C0.556123 41.3574 0.370749 37.5716 0 30C0.370749 22.4284 0.556123 18.6426 2.29929 15.4558C2.44458 15.1902 2.59748 14.9288 2.7578 14.6719C4.6811 11.5901 7.89318 9.56732 14.3174 5.52169L14.5 5.40667L14.6856 5.31304Z" transform="translate(3 2)" fill="url(#g1)" fill-rule="nonzero" opacity="1" /><path d="M14.6856 5.31304C21.7072 1.77101 25.218 -1.73068e-15 29 0C32.782 2.50948e-14 36.2928 1.77101 43.3144 5.31304L43.5 5.40667L43.6827 5.52169C50.1068 9.56732 53.3189 11.5901 55.2422 14.6719C55.4025 14.9288 55.5554 15.1902 55.7007 15.4558C57.4439 18.6426 57.6293 22.4284 58 30C57.6293 37.5716 57.4439 41.3574 55.7007 44.5442C55.5554 44.8098 55.4025 45.0712 55.2422 45.3281C53.3189 48.4099 50.1068 50.4327 43.6827 54.4783L43.5 54.5933L43.3144 54.687C36.2928 58.229 32.782 60 29 60C25.218 60 21.7072 58.229 14.6856 54.687L14.5 54.5933L14.3174 54.4783C7.89318 50.4327 4.6811 48.4099 2.7578 45.3281C2.59748 45.0712 2.44458 44.8098 2.29929 44.5442C0.556123 41.3574 0.370749 37.5716 0 30C0.370749 22.4284 0.556123 18.6426 2.29929 15.4558C2.44458 15.1902 2.59748 14.9288 2.7578 14.6719C4.6811 11.5901 7.89318 9.56732 14.3174 5.52169L14.5 5.40667L14.6856 5.31304Z" transform="translate(3 2)" fill="url(#g2)" fill-rule="nonzero" opacity="1" /><path d="M14.6856 5.31304C21.7072 1.77101 25.218 -1.73068e-15 29 0C32.782 2.50948e-14 36.2928 1.77101 43.3144 5.31304L43.5 5.40667L43.6827 5.52169C50.1068 9.56732 53.3189 11.5901 55.2422 14.6719C55.4025 14.9288 55.5554 15.1902 55.7007 15.4558C57.4439 18.6426 57.6293 22.4284 58 30C57.6293 37.5716 57.4439 41.3574 55.7007 44.5442C55.5554 44.8098 55.4025 45.0712 55.2422 45.3281C53.3189 48.4099 50.1068 50.4327 43.6827 54.4783L43.5 54.5933L43.3144 54.687C36.2928 58.229 32.782 60 29 60C25.218 60 21.7072 58.229 14.6856 54.687L14.5 54.5933L14.3174 54.4783C7.89318 50.4327 4.6811 48.4099 2.7578 45.3281C2.59748 45.0712 2.44458 44.8098 2.29929 44.5442C0.556123 41.3574 0.370749 37.5716 0 30C0.370749 22.4284 0.556123 18.6426 2.29929 15.4558C2.44458 15.1902 2.59748 14.9288 2.7578 14.6719C4.6811 11.5901 7.89318 9.56732 14.3174 5.52169L14.5 5.40667L14.6856 5.31304Z" transform="translate(3 2)" fill="url(#g3)" fill-rule="nonzero" opacity="1" /><path d="M14.6856 5.31304C21.7072 1.77101 25.218 -1.73068e-15 29 0C32.782 2.50948e-14 36.2928 1.77101 43.3144 5.31304L43.5 5.40667L43.6827 5.52169C50.1068 9.56732 53.3189 11.5901 55.2422 14.6719C55.4025 14.9288 55.5554 15.1902 55.7007 15.4558C57.4439 18.6426 57.6293 22.4284 58 30C57.6293 37.5716 57.4439 41.3574 55.7007 44.5442C55.5554 44.8098 55.4025 45.0712 55.2422 45.3281C53.3189 48.4099 50.1068 50.4327 43.6827 54.4783L43.5 54.5933L43.3144 54.687C36.2928 58.229 32.782 60 29 60C25.218 60 21.7072 58.229 14.6856 54.687L14.5 54.5933L14.3174 54.4783C7.89318 50.4327 4.6811 48.4099 2.7578 45.3281C2.59748 45.0712 2.44458 44.8098 2.29929 44.5442C0.556123 41.3574 0.370749 37.5716 0 30C0.370749 22.4284 0.556123 18.6426 2.29929 15.4558C2.44458 15.1902 2.59748 14.9288 2.7578 14.6719C4.6811 11.5901 7.89318 9.56732 14.3174 5.52169L14.5 5.40667L14.6856 5.31304Z" transform="translate(3 2)" fill="url(#g4)" fill-rule="nonzero" opacity="1" /><path d="M0 3C0 1.34314 1.34315 0 3 0L33.521 0C35.1778 0 36.521 1.34315 36.521 3L36.521 21.8252C36.521 23.482 35.1778 24.8252 33.521 24.8252L3 24.8252C1.34314 24.8252 0 23.482 0 21.8252L0 3Z" transform="translate(13.7393 19.5874)" fill="url(#g5)" fill-rule="nonzero" opacity="1" /><path d="M0 3C0 1.34314 1.34315 0 3 0L33.521 0C35.1778 0 36.521 1.34315 36.521 3L36.521 21.8252C36.521 23.482 35.1778 24.8252 33.521 24.8252L3 24.8252C1.34314 24.8252 0 23.482 0 21.8252L0 3Z" transform="translate(13.7393 19.5874)" fill="url(#g6)" fill-rule="nonzero" opacity="1" /><path d="M16.0126 15.8225C14.8464 16.9642 12.9815 16.9642 11.8153 15.8225L0.907342 5.14371C-1.0135 3.26323 0.317933 -1.29411e-07 3.00603 3.84909e-15L24.8219 1.05027e-06C27.51 1.17968e-06 28.8414 3.26323 26.9206 5.14372L16.0126 15.8225Z" transform="translate(18.086 27.7257)" fill="url(#g7)" fill-rule="nonzero" opacity="1" /><path d="M16.0126 15.8225C14.8464 16.9642 12.9815 16.9642 11.8153 15.8225L0.907342 5.14371C-1.0135 3.26323 0.317933 -1.29411e-07 3.00603 3.84909e-15L24.8219 1.05027e-06C27.51 1.17968e-06 28.8414 3.26323 26.9206 5.14372L16.0126 15.8225Z" transform="translate(18.086 19.5874)" fill="url(#g8)" fill-rule="nonzero" opacity="1" /><path d="M0.103718 0.111222C0.244888 -0.0340921 0.477128 -0.0374515 0.622442 0.103718L16.1445 15.1831C17.1632 16.1728 18.7834 16.1762 19.8062 15.1907L35.4061 0.161411C35.552 0.0208474 35.7842 0.0251735 35.9248 0.171073C36.0654 0.316973 36.061 0.549198 35.9151 0.689761L20.3152 15.7191C19.0074 16.9791 16.9359 16.9748 15.6333 15.7093L0.111222 0.629945C-0.0340921 0.488776 -0.0374515 0.256535 0.103718 0.111222Z" transform="translate(14.0459 20.0304)" fill="#b3b8e8" fill-rule="evenodd" opacity="1" /><path d="M12.3261 0.52299L0.514531 12.1435L0 11.6205L11.8115 0L12.3261 0.52299Z" transform="translate(14.2344 31.7933)" fill="#b3b8e8" fill-rule="evenodd" opacity="1" /><path d="M12.3747 0.52254L0.514989 12.2108L0 11.6883L11.8597 0L12.3747 0.52254Z" transform="translate(37.5394 31.7632)" fill="#b3b8e8" fill-rule="evenodd" opacity="1" /></svg>
