<?xml version="1.0" encoding="UTF-8"?>
<svg xmlns="http://www.w3.org/2000/svg" width="64" height="64" viewBox="0 0 64 64" fill="none"><defs><linearGradient id="g1" gradientUnits="objectBoundingBox" x1="-0.0623" y1="0" x2="0.9058" y2="0.9301"><stop offset="0%" stop-color="#fe7b69" stop-opacity="1" /><stop offset="100%" stop-color="#e60000" stop-opacity="1" /></linearGradient></defs><path d="M14.6856 5.31304C21.7072 1.77101 25.218 -1.73068e-15 29 0C32.782 2.50948e-14 36.2928 1.77101 43.3144 5.31304L43.5 5.40667L43.6827 5.52169C50.1068 9.56732 53.3189 11.5901 55.2422 14.6719C55.4025 14.9288 55.5554 15.1902 55.7007 15.4558C57.4439 18.6426 57.6293 22.4284 58 30C57.6293 37.5716 57.4439 41.3574 55.7007 44.5442C55.5554 44.8098 55.4025 45.0712 55.2422 45.3281C53.3189 48.4099 50.1068 50.4327 43.6827 54.4783L43.5 54.5933L43.3144 54.687C36.2928 58.229 32.782 60 29 60C25.218 60 21.7072 58.229 14.6856 54.687L14.5 54.5933L14.3174 54.4783C7.89318 50.4327 4.6811 48.4099 2.7578 45.3281C2.59748 45.0712 2.44458 44.8098 2.29929 44.5442C0.556123 41.3574 0.370749 37.5716 0 30C0.370749 22.4284 0.556123 18.6426 2.29929 15.4558C2.44458 15.1902 2.59748 14.9288 2.7578 14.6719C4.6811 11.5901 7.89318 9.56732 14.3174 5.52169L14.5 5.40667L14.6856 5.31304Z" transform="translate(3 2)" fill="url(#g1)" fill-rule="nonzero" opacity="1" /><path d="M1.71109 0L1.71109 22.2073C1.71109 23.3657 2.65887 24.3047 3.82802 24.3047L30.172 24.3047C31.3411 24.3047 32.2889 23.3657 32.2889 22.2073L32.2889 0L34 0L34 22.2073C34 24.302 32.2861 26 30.172 26L3.82802 26C1.71386 26 0 24.302 0 22.2073L0 0L1.71109 0ZM6.3975 1.06484L16.9562 7.33905C16.9991 7.3645 17.0526 7.3645 17.0954 7.33905L27.6541 1.06484L28.5342 2.51869L17.9755 8.79289C17.3909 9.14026 16.6607 9.14026 16.0761 8.79289L5.51741 2.51869L6.3975 1.06484Z" transform="translate(15 20)" fill="#ffffff" fill-rule="evenodd" opacity="1" /></svg>
