<?xml version="1.0" encoding="UTF-8"?>
<svg xmlns="http://www.w3.org/2000/svg" width="64" height="64" viewBox="0 0 64 64" fill="none"><defs><linearGradient id="g1" gradientUnits="objectBoundingBox" x1="0.5" y1="0" x2="0.5" y2="1"><stop offset="0%" stop-color="#f5f6f7" stop-opacity="1" /><stop offset="100%" stop-color="#e3e4e8" stop-opacity="1" /></linearGradient><linearGradient id="g3" gradientUnits="objectBoundingBox" x1="0.497" y1="0.4787" x2="0.5667" y2="1.056"><stop offset="0%" stop-color="#0b68dc" stop-opacity="1" /><stop offset="25%" stop-color="#0b68dc" stop-opacity="1" /><stop offset="100%" stop-color="#063876" stop-opacity="1" /></linearGradient><linearGradient id="g4" gradientUnits="objectBoundingBox" x1="0.7798" y1="0.2494" x2="0.5875" y2="0.4698"><stop offset="0%" stop-color="#000000" stop-opacity="0.2" /><stop offset="100%" stop-color="#000000" stop-opacity="0" /></linearGradient><radialGradient id="g5" gradientUnits="objectBoundingBox" cx="0.8823" cy="0.6015" r="0.5058" fx="0.8823" fy="0.6015"><stop offset="0%" stop-color="#000000" stop-opacity="0.2" /><stop offset="100%" stop-color="#000000" stop-opacity="0" /></radialGradient><radialGradient id="g6" gradientUnits="objectBoundingBox" cx="0.2553" cy="0.1866" r="0.2698" fx="0.2553" fy="0.1866"><stop offset="0%" stop-color="#000000" stop-opacity="0.2" /><stop offset="100%" stop-color="#000000" stop-opacity="0" /></radialGradient><radialGradient id="g7" gradientUnits="objectBoundingBox" cx="0.7092" cy="0.4553" r="0.7668" fx="0.7092" fy="0.4553"><stop offset="16.475%" stop-color="#000000" stop-opacity="0.39" /><stop offset="100%" stop-color="#000000" stop-opacity="0" /></radialGradient><radialGradient id="g8" gradientUnits="objectBoundingBox" cx="1.5277" cy="1.1662" r="1.2225" fx="1.5277" fy="1.1662"><stop offset="16.475%" stop-color="#000000" stop-opacity="0.39" /><stop offset="100%" stop-color="#000000" stop-opacity="0" /></radialGradient></defs><path d="M14.6856 5.31304C21.7072 1.77101 25.218 -1.73068e-15 29 0C32.782 2.50948e-14 36.2928 1.77101 43.3144 5.31304L43.5 5.40667L43.6827 5.52169C50.1068 9.56732 53.3189 11.5901 55.2422 14.6719C55.4025 14.9288 55.5554 15.1902 55.7007 15.4558C57.386 18.5368 57.6152 22.1777 57.9636 29.2584C57.9756 29.5015 58.0185 31.0557 58.0308 31.307C57.66 38.8786 57.4439 41.3574 55.7007 44.5442C55.5554 44.8098 55.4025 45.0712 55.2422 45.3281C53.3189 48.4099 50.1068 50.4327 43.6827 54.4783L43.5 54.5933L43.3144 54.687C36.2928 58.229 32.782 60 29 60C25.218 60 21.7072 58.229 14.6856 54.687L14.5 54.5933L14.3174 54.4783C7.89318 50.4327 4.6811 48.4099 2.7578 45.3281C2.59748 45.0712 2.44459 44.8098 2.29929 44.5442C0.556123 41.3574 0.370749 37.5716 0 30C0.370749 22.4284 0.556123 18.6426 2.29929 15.4558C2.44458 15.1902 2.59748 14.9288 2.7578 14.6719C4.6811 11.5901 7.89318 9.56732 14.3174 5.52169L14.5 5.40667L14.6856 5.31304Z" transform="translate(2.998 1.9868)" fill="url(#g1)" fill-rule="nonzero" opacity="1" /><path d="M14.9388 5.40159C22.0815 1.80053 25.6528 -1.75952e-15 29.5 0C33.3472 2.5513e-14 36.9185 1.80053 44.0612 5.40159L44.25 5.49678L44.4358 5.61372C50.9707 9.72677 54.2382 11.7833 56.1947 14.9165C56.3577 15.1776 56.5133 15.4434 56.6611 15.7134C58.4343 18.9533 58.6229 22.8022 59 30.5C58.6229 38.1978 58.4343 42.0467 56.6611 45.2866C56.5133 45.5566 56.3577 45.8224 56.1947 46.0835C54.2382 49.2167 50.9707 51.2732 44.4358 55.3863L44.25 55.5032L44.0612 55.5984C36.9185 59.1995 33.3472 61 29.5 61C25.6528 61 22.0815 59.1995 14.9388 55.5984L14.75 55.5032L14.5642 55.3863C8.02927 51.2732 4.76181 49.2167 2.80534 46.0835C2.64227 45.8224 2.48673 45.5566 2.33893 45.2866C0.565712 42.0467 0.377141 38.1978 0 30.5C0.377141 22.8022 0.565711 18.9533 2.33893 15.7134C2.48673 15.4434 2.64227 15.1776 2.80534 14.9165C4.76181 11.7833 8.02927 9.72677 14.5642 5.61372L14.75 5.49678L14.9388 5.40159Z" transform="translate(3 1)" fill="#8ccb5e" fill-rule="nonzero" opacity="1" /><path d="M3.32698 0.583417C48.5737 -5.40502 26.6157 36.5145 46.5775 43.8343L29.2773 57.8075C5.32316 53.1498 49.9045 -4.07401 0 3.24484L1.66349 1.91413L3.32698 0.583417Z" transform="translate(12.0771 6.3475)" fill="url(#g3)" fill-rule="evenodd" opacity="1" /><path d="M25.2623 20.4641C17.1672 20.4641 3.84124 10.4019 1.23856 9.07693C-0.60699 24.3619 0.0330485 57.2784 0.487338 58.7549C1.0552 60.6004 19.0848 75.2229 25.4732 75.2228C30.584 75.2228 56.8476 80.1443 69.3405 82.605L84.4116 54.8726C81.4335 55.6447 61.066 56.9404 56.5358 46.4146C53.0781 38.3807 67.6979 4.76132 55.205 0.502365C42.7121 -3.75659 33.3574 20.4641 25.2623 20.4641Z" transform="translate(-31.1504 13.748)" fill="url(#g4)" fill-rule="nonzero" opacity="1" /><path d="M25.2623 20.4641C17.1672 20.4641 3.84124 10.4019 1.23856 9.07693C-0.60699 24.3619 0.0330485 57.2784 0.487338 58.7549C1.0552 60.6004 19.0848 75.2229 25.4732 75.2228C30.584 75.2228 56.8476 80.1443 69.3405 82.605L84.4116 54.8726C81.4335 55.6447 61.066 56.9404 56.5358 46.4146C53.0781 38.3807 67.6979 4.76132 55.205 0.502365C42.7121 -3.75659 33.3574 20.4641 25.2623 20.4641Z" transform="translate(-31.1504 13.748)" fill="url(#g5)" fill-rule="nonzero" opacity="1" /><path d="M25.2623 20.4641C17.1672 20.4641 3.84124 10.4019 1.23856 9.07693C-0.60699 24.3619 0.0330485 57.2784 0.487338 58.7549C1.0552 60.6004 19.0848 75.2229 25.4732 75.2228C30.584 75.2228 56.8476 80.1443 69.3405 82.605L84.4116 54.8726C81.4335 55.6447 61.066 56.9404 56.5358 46.4146C53.0781 38.3807 67.6979 4.76132 55.205 0.502365C42.7121 -3.75659 33.3574 20.4641 25.2623 20.4641Z" transform="translate(-31.1504 13.748)" fill="url(#g6)" fill-rule="nonzero" opacity="1" /><path d="M48.1701 36.7909C35.8187 28.2767 12.2485 29.2849 0 29.9978L21.7225 0L70.9109 11.6653C80.8263 31.1073 94.8068 76.0317 74.1204 73.3876C48.2625 70.0824 66.114 49.1604 48.1701 36.7909Z" transform="translate(-3.4882 -30.5253)" fill="url(#g7)" fill-rule="nonzero" opacity="0.88" /><path d="M48.1701 36.7909C35.8187 28.2767 12.2485 29.2849 0 29.9978L21.7225 0L70.9109 11.6653C80.8263 31.1073 94.8068 76.0317 74.1204 73.3876C48.2625 70.0824 66.114 49.1604 48.1701 36.7909Z" transform="translate(-3.4882 -30.5253)" fill="url(#g8)" fill-rule="nonzero" opacity="0.88" /><path d="M12.7868 1.27117C13.6171 -0.448376 16.0772 -0.416272 16.8623 1.32435L28.5464 27.228C29.3508 29.0116 27.6518 30.9007 25.7932 30.2892L15.6444 26.9497C15.2036 26.8047 14.7287 26.7995 14.2848 26.935L2.91188 30.4062C1.03596 30.9788 -0.622856 29.0434 0.229962 27.2771L12.7868 1.27117Z" transform="translate(12.9996 10)" fill="#ffffff" fill-rule="nonzero" opacity="1" /></svg>
