<?xml version="1.0" encoding="UTF-8"?>
<svg xmlns="http://www.w3.org/2000/svg" width="64" height="64" viewBox="0 0 64 64" fill="none"><defs><linearGradient id="g1" gradientUnits="objectBoundingBox" x1="0.5" y1="0" x2="0.5" y2="1"><stop offset="0%" stop-color="#999dff" stop-opacity="1" /><stop offset="84.375%" stop-color="#4047df" stop-opacity="1" /></linearGradient><radialGradient id="g2" gradientUnits="objectBoundingBox" cx="0.9724" cy="0.5" r="0.677" fx="0.9724" fy="0.5"><stop offset="0%" stop-color="#d1bcff" stop-opacity="0.3" /><stop offset="100%" stop-color="#ababff" stop-opacity="0" /></radialGradient><linearGradient id="g3" gradientUnits="objectBoundingBox" x1="0.4249" y1="1.1224" x2="0.4005" y2="0"><stop offset="0%" stop-color="#ffffff" stop-opacity="1" /><stop offset="100%" stop-color="#ddddee" stop-opacity="1" /></linearGradient><linearGradient id="g4" gradientUnits="objectBoundingBox" x1="1.2568" y1="0.2545" x2="0" y2="0.6486"><stop offset="0%" stop-color="#ffffff" stop-opacity="1" /><stop offset="100%" stop-color="#ddddee" stop-opacity="1" /></linearGradient><linearGradient id="g5" gradientUnits="objectBoundingBox" x1="0.9857" y1="-0.0505" x2="0.6409" y2="0.7361"><stop offset="32.0583%" stop-color="#ffffff" stop-opacity="1" /><stop offset="82.482%" stop-color="#e4e4f1" stop-opacity="1" /><stop offset="100%" stop-color="#ddddee" stop-opacity="1" /></linearGradient><linearGradient id="g7" gradientUnits="objectBoundingBox" x1="-0.0847" y1="-0.0211" x2="0.8605" y2="0.5162"><stop offset="0%" stop-color="#ffffff" stop-opacity="1" /><stop offset="100%" stop-color="#ddddee" stop-opacity="1" /></linearGradient></defs><path d="M14.6856 5.31304C21.7072 1.77101 25.218 -1.73068e-15 29 0C32.782 2.50948e-14 36.2928 1.77101 43.3144 5.31304L43.5 5.40667L43.6827 5.52169C50.1068 9.56732 53.3189 11.5901 55.2422 14.6719C55.4025 14.9288 55.5554 15.1902 55.7007 15.4558C57.4439 18.6426 57.6292 22.4284 58 30C57.6292 37.5716 57.4439 41.3574 55.7007 44.5442C55.5554 44.8098 55.4025 45.0712 55.2422 45.3281C53.3189 48.4099 50.1068 50.4327 43.6827 54.4783L43.5 54.5933L43.3144 54.687C36.2928 58.229 32.782 60 29 60C25.218 60 21.7072 58.229 14.6856 54.687L14.5 54.5933L14.3174 54.4783C7.89318 50.4327 4.6811 48.4099 2.7578 45.3281C2.59748 45.0712 2.44459 44.8098 2.29929 44.5442C0.556123 41.3574 0.370749 37.5716 0 30C0.370749 22.4284 0.556123 18.6426 2.29929 15.4558C2.44458 15.1902 2.59748 14.9288 2.7578 14.6719C4.6811 11.5901 7.89318 9.56732 14.3174 5.52169L14.5 5.40667L14.6856 5.31304Z" transform="translate(3 2)" fill="url(#g1)" fill-rule="nonzero" opacity="1" /><path d="M14.6856 5.31304C21.7072 1.77101 25.218 -1.73068e-15 29 0C32.782 2.50948e-14 36.2928 1.77101 43.3144 5.31304L43.5 5.40667L43.6827 5.52169C50.1068 9.56732 53.3189 11.5901 55.2422 14.6719C55.4025 14.9288 55.5554 15.1902 55.7007 15.4558C57.4439 18.6426 57.6292 22.4284 58 30C57.6292 37.5716 57.4439 41.3574 55.7007 44.5442C55.5554 44.8098 55.4025 45.0712 55.2422 45.3281C53.3189 48.4099 50.1068 50.4327 43.6827 54.4783L43.5 54.5933L43.3144 54.687C36.2928 58.229 32.782 60 29 60C25.218 60 21.7072 58.229 14.6856 54.687L14.5 54.5933L14.3174 54.4783C7.89318 50.4327 4.6811 48.4099 2.7578 45.3281C2.59748 45.0712 2.44459 44.8098 2.29929 44.5442C0.556123 41.3574 0.370749 37.5716 0 30C0.370749 22.4284 0.556123 18.6426 2.29929 15.4558C2.44458 15.1902 2.59748 14.9288 2.7578 14.6719C4.6811 11.5901 7.89318 9.56732 14.3174 5.52169L14.5 5.40667L14.6856 5.31304Z" transform="translate(3 2)" fill="url(#g2)" fill-rule="nonzero" opacity="1" /><path d="M4.06012 0L0.0686228 9.1898C-0.163254 9.72365 0.225936 10.2666 0.735277 10.3083C0.81548 10.3148 0.898663 10.3089 0.982869 10.2886C1.02412 10.2787 1.06562 10.2653 1.10714 10.2482L22.993 1.08666L4.06012 0Z" transform="translate(21.7179 38.4446)" fill="url(#g3)" fill-rule="nonzero" opacity="1" /><path d="M5.87718 2.86887C6.12422 3.05267 6.07966 3.43496 5.79698 3.55702L0 6.06006L1.65615 0.000572507C1.87762 -0.00691661 2.10069 0.0590845 2.287 0.197703L5.87718 2.86887Z" transform="translate(48.044 22.3685)" fill="url(#g4)" fill-rule="nonzero" opacity="1" /><path d="M1.75315e-05 16.0185L18.896 17.1643C19.1588 16.9156 19.3526 16.597 19.4504 16.2392L23.8912 0C23.8467 0.00150673 23.8023 0.00597937 23.7582 0.0134216C23.6204 0.0367116 23.4863 0.0890984 23.3654 0.170799L1.75315e-05 16.0185Z" transform="translate(25.809 22.3691)" fill="url(#g5)" fill-rule="nonzero" opacity="1" /><path d="M18.9291 17.8359L6.5697 0L0 16.7493L18.9291 17.8359Z" transform="translate(25.778 21.6953)" fill="#ffffff" fill-rule="nonzero" opacity="1" /><path d="M13.0944 19.0428L0.243345 1.92087C-0.386414 1.08181 0.287877 -0.104464 1.331 0.00736223L18.9754 1.89891C19.6429 1.97046 20.0517 2.66635 19.7892 3.28422L13.0944 19.0428Z" transform="translate(12.6835 19.4018)" fill="url(#g7)" fill-rule="nonzero" opacity="1" /></svg>
