<?xml version="1.0" encoding="UTF-8"?>
<svg xmlns="http://www.w3.org/2000/svg" width="64" height="64" viewBox="0 0 64 64" fill="none"><defs><linearGradient id="g1" gradientUnits="objectBoundingBox" x1="0.5" y1="0" x2="0.5" y2="1"><stop offset="0%" stop-color="#ffffff" stop-opacity="1" /><stop offset="100%" stop-color="#e1e2e7" stop-opacity="1" /></linearGradient><linearGradient id="g2" gradientUnits="objectBoundingBox" x1="0.785" y1="0.695" x2="0.6293" y2="0.5249"><stop offset="0%" stop-color="#e4e7f1" stop-opacity="1" /><stop offset="100%" stop-color="#bcbdc1" stop-opacity="1" /></linearGradient><linearGradient id="g3" gradientUnits="objectBoundingBox" x1="0.5" y1="0" x2="0.5" y2="1"><stop offset="0%" stop-color="#ffcb11" stop-opacity="1" /><stop offset="100%" stop-color="#ff9900" stop-opacity="1" /></linearGradient><linearGradient id="g4" gradientUnits="objectBoundingBox" x1="0.5" y1="0" x2="0.5" y2="1"><stop offset="0%" stop-color="#78d1ff" stop-opacity="1" /><stop offset="84.375%" stop-color="#2093ff" stop-opacity="1" /></linearGradient><radialGradient id="g5" gradientUnits="objectBoundingBox" cx="0.9664" cy="0.7079" r="0.7571" fx="0.9664" fy="0.7079"><stop offset="0%" stop-color="#56ffeb" stop-opacity="0.7" /><stop offset="100%" stop-color="#4eb9fe" stop-opacity="0" /></radialGradient><linearGradient id="g7" gradientUnits="objectBoundingBox" x1="0.5" y1="0" x2="0.5" y2="1"><stop offset="0%" stop-color="#ffffff" stop-opacity="1" /><stop offset="100%" stop-color="#e1e2e7" stop-opacity="1" /></linearGradient><linearGradient id="g14" gradientUnits="objectBoundingBox" x1="0.3461" y1="0.3692" x2="0.578" y2="0.6155"><stop offset="0.01%" stop-color="#f5f8ff" stop-opacity="1" /><stop offset="66.8564%" stop-color="#d3d6dc" stop-opacity="1" /><stop offset="100%" stop-color="#d9dee8" stop-opacity="1" /></linearGradient><linearGradient id="g15" gradientUnits="objectBoundingBox" x1="0.347" y1="0.369" x2="0.5786" y2="0.6152"><stop offset="0.01%" stop-color="#f5f8ff" stop-opacity="1" /><stop offset="66.8564%" stop-color="#d3d6dc" stop-opacity="1" /><stop offset="100%" stop-color="#d9dee8" stop-opacity="1" /></linearGradient><radialGradient id="g16" gradientUnits="objectBoundingBox" cx="0.3485" cy="0.3415" r="0.9667" fx="0.3485" fy="0.3415"><stop offset="0%" stop-color="#ffffff" stop-opacity="1" /><stop offset="100%" stop-color="#ffffff" stop-opacity="0" /></radialGradient></defs><path d="M14.6856 5.31256C21.7072 1.77085 25.218 -1.73052e-15 29 0C32.782 2.50925e-14 36.2928 1.77085 43.3144 5.31256L43.5 5.40618L43.6827 5.52119C50.1068 9.56645 53.3189 11.5891 55.2422 14.6706C55.4025 14.9275 55.5554 15.1889 55.7007 15.4544C57.4439 18.6409 57.6293 22.4264 58 29.9973C57.6293 37.5682 57.4439 41.3537 55.7007 44.5401C55.5554 44.8057 55.4025 45.0671 55.2422 45.324C53.3189 48.4055 50.1068 50.4281 43.6827 54.4734L43.5 54.5884L43.3144 54.682C36.2928 58.2237 32.782 59.9946 29 59.9946C25.218 59.9946 21.7072 58.2237 14.6856 54.682L14.5 54.5884L14.3174 54.4734C7.89318 50.4281 4.6811 48.4055 2.7578 45.324C2.59748 45.0671 2.44458 44.8057 2.29929 44.5401C0.556123 41.3537 0.370749 37.5682 0 29.9973C0.370749 22.4264 0.556123 18.6409 2.29929 15.4545C2.44458 15.1889 2.59748 14.9275 2.7578 14.6706C4.6811 11.5891 7.89318 9.56645 14.3174 5.52119L14.5 5.40618L14.6856 5.31256Z" transform="translate(3 2)" fill="url(#g1)" fill-rule="nonzero" opacity="1" /><path d="M31.9786 2.91353C31.6078 10.4845 31.4224 14.2699 29.6793 17.4564C29.534 17.722 29.3811 17.9833 29.2208 18.2402C27.2975 21.3217 24.0853 23.3443 17.6612 27.3895L17.4785 27.5046L17.2929 27.5982C10.2713 31.1399 6.76046 32.9108 2.9785 32.9108C1.98951 32.9108 1.01954 32.7813 0 32.5391C3.30905 33.1147 10.8927 25.8857 18.0607 17.6835C23.6412 11.2978 31.923 4.12655 31.8359 0C31.8864 0.970548 31.9311 1.94435 31.9786 2.91353Z" transform="translate(29.0156 29.0898)" fill="url(#g2)" fill-rule="nonzero" opacity="1" /><path d="M28.1318 0C31.9137 0.000101686 35.4249 1.77089 42.4463 5.3125L42.6318 5.40625L42.8145 5.52148C49.2384 9.5666 52.4508 11.5894 54.374 14.6709C54.5342 14.9275 54.6869 15.1887 54.832 15.4541C55.513 16.6988 55.9533 18.0359 56.2627 19.6533L0 19.6533C0.309425 18.0358 0.749729 16.6988 1.43066 15.4541C1.57592 15.1886 1.72939 14.9277 1.88965 14.6709C3.81295 11.5894 7.02505 9.56675 13.4492 5.52148L13.6318 5.40625L13.8174 5.3125C20.8388 1.77087 24.3499 -1.7305e-15 28.1318 0Z" transform="translate(3.8646 2)" fill="url(#g3)" fill-rule="nonzero" opacity="1" /><path d="M14.6856 5.31256C21.7072 1.77085 25.218 -1.73052e-15 29 0C32.782 2.50925e-14 36.2928 1.77085 43.3144 5.31256L43.5 5.40618L43.6827 5.52119C50.1068 9.56645 53.3189 11.5891 55.2422 14.6706C55.4025 14.9275 55.5554 15.1889 55.7007 15.4544C57.4439 18.6409 57.6293 22.4264 58 29.9973C57.6293 37.5682 57.4439 41.3537 55.7007 44.5401C55.5554 44.8057 55.4025 45.0671 55.2422 45.324C53.3189 48.4055 50.1068 50.4281 43.6827 54.4734L43.5 54.5884L43.3144 54.682C36.2928 58.2237 32.782 59.9946 29 59.9946C25.218 59.9946 21.7072 58.2237 14.6856 54.682L14.5 54.5884L14.3174 54.4734C7.89318 50.4281 4.6811 48.4055 2.7578 45.324C2.59748 45.0671 2.44458 44.8057 2.29929 44.5401C0.556123 41.3537 0.370749 37.5682 0 29.9973C0.370749 22.4264 0.556123 18.6409 2.29929 15.4545C2.44458 15.1889 2.59748 14.9275 2.7578 14.6706C4.6811 11.5891 7.89318 9.56645 14.3174 5.52119L14.5 5.40618L14.6856 5.31256Z" transform="translate(2.9961 2)" fill="url(#g4)" fill-rule="nonzero" opacity="1" /><path d="M14.6856 5.31256C21.7072 1.77085 25.218 -1.73052e-15 29 0C32.782 2.50925e-14 36.2928 1.77085 43.3144 5.31256L43.5 5.40618L43.6827 5.52119C50.1068 9.56645 53.3189 11.5891 55.2422 14.6706C55.4025 14.9275 55.5554 15.1889 55.7007 15.4544C57.4439 18.6409 57.6293 22.4264 58 29.9973C57.6293 37.5682 57.4439 41.3537 55.7007 44.5401C55.5554 44.8057 55.4025 45.0671 55.2422 45.324C53.3189 48.4055 50.1068 50.4281 43.6827 54.4734L43.5 54.5884L43.3144 54.682C36.2928 58.2237 32.782 59.9946 29 59.9946C25.218 59.9946 21.7072 58.2237 14.6856 54.682L14.5 54.5884L14.3174 54.4734C7.89318 50.4281 4.6811 48.4055 2.7578 45.324C2.59748 45.0671 2.44458 44.8057 2.29929 44.5401C0.556123 41.3537 0.370749 37.5682 0 29.9973C0.370749 22.4264 0.556123 18.6409 2.29929 15.4545C2.44458 15.1889 2.59748 14.9275 2.7578 14.6706C4.6811 11.5891 7.89318 9.56645 14.3174 5.52119L14.5 5.40618L14.6856 5.31256Z" transform="translate(2.9961 2)" fill="url(#g5)" fill-rule="nonzero" opacity="1" /><path d="M0 0L76.8588 0L76.8588 19.9426L0 19.9426L0 0Z" transform="translate(-5.6953 1.7109)" fill="#d9d9d9" fill-rule="nonzero" opacity="0.4" /><path d="M14.6856 5.31256C21.7072 1.77085 25.218 -1.73052e-15 29 0C32.782 2.50925e-14 36.2928 1.77085 43.3144 5.31256L43.5 5.40618L43.6827 5.52119C50.1068 9.56645 53.3189 11.5891 55.2422 14.6706C55.4025 14.9275 55.5554 15.1889 55.7007 15.4544C57.4439 18.6409 57.6292 22.4264 58 29.9973C57.6292 37.5682 57.4439 41.3537 55.7007 44.5401C55.5554 44.8057 55.4025 45.0671 55.2422 45.324C53.3189 48.4055 50.1068 50.4281 43.6827 54.4734L43.5 54.5884L43.3144 54.682C36.2928 58.2237 32.782 59.9946 29 59.9946C25.218 59.9946 21.7072 58.2237 14.6856 54.682L14.5 54.5884L14.3174 54.4734C7.89318 50.4281 4.6811 48.4055 2.7578 45.324C2.59748 45.0671 2.44459 44.8057 2.29929 44.5401C0.556123 41.3537 0.370749 37.5682 0 29.9973C0.370749 22.4264 0.556123 18.6409 2.29929 15.4545C2.44458 15.1889 2.59748 14.9275 2.7578 14.6706C4.6811 11.5891 7.89318 9.56645 14.3174 5.52119L14.5 5.40618L14.6856 5.31256Z" transform="translate(3 2)" fill="url(#g7)" fill-rule="nonzero" opacity="1" /><path d="M0 0L0 0.5L58.1965 0.5L58.1965 0L58.1965 -0.5L0 -0.5L0 0Z" transform="translate(2.4355 30.625)" fill="#d8dce4" fill-rule="nonzero" opacity="1" /><path d="M0 0L0 0.5L51.7244 0.5L51.7244 0L51.7244 -0.5L0 -0.5L0 0Z" transform="translate(2.4355 39.6328)" fill="#d6dae1" fill-rule="nonzero" opacity="1" /><path d="M0 0L0 0.5L42.6082 0.5L42.6082 0L42.6082 -0.5L0 -0.5L0 0Z" transform="translate(2.4355 48.6406)" fill="#d1d5de" fill-rule="nonzero" opacity="1" /><path d="M0 0L0 0.5L14.3757 0.5L14.3757 0L14.3757 -0.5L0 -0.5L0 0Z" transform="translate(45.2148 48.6406)" fill="#bbbfc7" fill-rule="nonzero" opacity="0.4" /><path d="M0 0L0 0.5L10.0229 0.5L10.0229 0L10.0229 -0.5L0 -0.5L0 0Z" transform="translate(53.4512 39.6953)" fill="#bbbfc7" fill-rule="nonzero" opacity="0.4" /><path d="M0 0L0 0.5L1.65234 0.5L1.65234 0L1.65234 -0.5L0 -0.5L0 0Z" transform="translate(60.6543 30.625)" fill="#bbbfc7" fill-rule="nonzero" opacity="0.4" /><path d="M16.2571 8.73105C28.7575 7.29149 31.3756 2.5839 31.7383 0C31.7218 2.61064 30.7128 5.11726 28.916 7.01124L17.9435 18.5771L5.19456 30.8049C4.09022 31.8641 2.62758 32.4686 1.0977 32.4983L0.339844 32.5391L0 32.5195C6.52296 31.5206 8.15398 23.7302 8.38142 17.4165C8.53847 13.0572 11.9237 9.2301 16.2571 8.73105Z" transform="translate(29.1172 29.125)" fill="url(#g14)" fill-rule="nonzero" opacity="1" /><path d="M16.2843 8.73284C28.7971 7.2954 31.4145 2.58497 31.7773 0C31.7634 2.61038 30.7556 5.11744 28.959 7.01122L17.9865 18.5771L5.46318 30.5885C4.21359 31.787 2.5592 32.472 0.828125 32.5078L0.339844 32.5547L0 32.5078C6.52655 31.5083 8.17042 23.7139 8.40864 17.4017C8.57295 13.048 11.956 9.23006 16.2843 8.73284Z" transform="translate(29.0742 29.125)" fill="url(#g15)" fill-rule="nonzero" opacity="1" /><path d="M-0.0386472 32.189C-0.178022 32.2104 -0.273705 32.3407 -0.25236 32.4801C-0.231016 32.6194 -0.100728 32.7151 0.0386472 32.6938L-0.0386472 32.189ZM31.8874 0.0354885C31.907 -0.104142 31.8097 -0.233224 31.67 -0.252824C31.5304 -0.272424 31.4013 -0.175119 31.3817 -0.0354885L31.8874 0.0354885ZM16.2132 8.71962L16.2425 8.97323L16.2132 8.71962ZM31.6346 0L31.3817 -0.0354885C31.21 1.18781 30.5066 2.94603 28.3094 4.58208C26.1058 6.22284 22.3896 7.7477 16.1838 8.46601L16.2132 8.71962L16.2425 8.97323C22.5004 8.24889 26.3137 6.70465 28.6143 4.99162C30.9213 3.27388 31.6967 1.39361 31.8874 0.0354885L31.6346 0ZM8.33071 17.4406L8.07555 17.4319C7.96933 20.5611 7.51414 24.0247 6.29004 26.8214C5.06902 29.6111 3.09859 31.7086 -0.0386472 32.189L0 32.4414L0.0386472 32.6938C3.40423 32.1784 5.49251 29.917 6.75781 27.0261C8.02003 24.1423 8.47879 20.6033 8.58586 17.4492L8.33071 17.4406ZM16.2132 8.71962L16.1838 8.46601C11.7076 8.98414 8.22802 12.9406 8.07555 17.4319L8.33071 17.4406L8.58586 17.4492C8.73017 13.1982 12.0294 9.4609 16.2425 8.97323L16.2132 8.71962Z" transform="translate(29.1953 29.1328)" fill="url(#g16)" fill-rule="nonzero" opacity="1" /></svg>
