<?xml version="1.0" encoding="UTF-8"?>
<svg xmlns="http://www.w3.org/2000/svg" width="64" height="64" viewBox="0 0 64 64" fill="none"><defs><linearGradient id="g1" gradientUnits="objectBoundingBox" x1="0.5" y1="0" x2="0.5" y2="1"><stop offset="0%" stop-color="#5a80ff" stop-opacity="1" /><stop offset="100%" stop-color="#afbee8" stop-opacity="1" /></linearGradient><linearGradient id="g6" gradientUnits="objectBoundingBox" x1="0.5" y1="0" x2="0.5" y2="1"><stop offset="0%" stop-color="#dfe2ed" stop-opacity="0.8" /><stop offset="100%" stop-color="#b5bcdb" stop-opacity="0.5" /></linearGradient><radialGradient id="g7" gradientUnits="objectBoundingBox" cx="0.3458" cy="0.203" r="0.4986" fx="0.3458" fy="0.203"><stop offset="0%" stop-color="#ffffff" stop-opacity="0.8" /><stop offset="100%" stop-color="#ffffff" stop-opacity="0" /></radialGradient><radialGradient id="g8" gradientUnits="objectBoundingBox" cx="0.5" cy="0" r="0.4721" fx="0.5" fy="0"><stop offset="0%" stop-color="#ffffff" stop-opacity="0.8" /><stop offset="100%" stop-color="#ffffff" stop-opacity="0" /></radialGradient><linearGradient id="g9" gradientUnits="objectBoundingBox" x1="0.385" y1="0" x2="0.5324" y2="1"><stop offset="0%" stop-color="#e4e8f3" stop-opacity="1" /><stop offset="23.4375%" stop-color="#8c94aa" stop-opacity="1" /><stop offset="89.0625%" stop-color="#bfc3d0" stop-opacity="1" /><stop offset="100%" stop-color="#a5adc5" stop-opacity="1" /></linearGradient><linearGradient id="g12" gradientUnits="objectBoundingBox" x1="0.1023" y1="0.5846" x2="0.9218" y2="0.5846"><stop offset="30.5085%" stop-color="#ffffff" stop-opacity="0" /><stop offset="49.7175%" stop-color="#ffffff" stop-opacity="1" /><stop offset="63.5593%" stop-color="#ffffff" stop-opacity="0" /></linearGradient><linearGradient id="g15" gradientUnits="objectBoundingBox" x1="-0.4151" y1="1" x2="1.3627" y2="-0.0721"><stop offset="0%" stop-color="#dce0f0" stop-opacity="0" /><stop offset="46.8169%" stop-color="#a9b1ca" stop-opacity="1" /><stop offset="100%" stop-color="#ecf0ff" stop-opacity="0" /></linearGradient><radialGradient id="g16" gradientUnits="objectBoundingBox" cx="0.5242" cy="0.4136" r="0.5869" fx="0.5242" fy="0.4136"><stop offset="0%" stop-color="#ffffff" stop-opacity="1" /><stop offset="100%" stop-color="#ffffff" stop-opacity="0" /></radialGradient><linearGradient id="g21" gradientUnits="objectBoundingBox" x1="0.5" y1="0" x2="0.5" y2="1"><stop offset="0%" stop-color="#ffffff" stop-opacity="1" /><stop offset="50%" stop-color="#bbbfcd" stop-opacity="1" /><stop offset="100%" stop-color="#d0d7f0" stop-opacity="1" /></linearGradient><linearGradient id="g22" gradientUnits="objectBoundingBox" x1="0.5" y1="0" x2="0.4931" y2="1.0663"><stop offset="0%" stop-color="#aeb4c5" stop-opacity="1" /><stop offset="60.4167%" stop-color="#757b8c" stop-opacity="1" /><stop offset="100%" stop-color="#9296a9" stop-opacity="1" /></linearGradient><linearGradient id="g23" gradientUnits="objectBoundingBox" x1="0.1984" y1="0.1167" x2="0.6436" y2="0.9636"><stop offset="0%" stop-color="#ffffff" stop-opacity="1" /><stop offset="60.4167%" stop-color="#d9dce5" stop-opacity="1" /><stop offset="100%" stop-color="#ffffff" stop-opacity="1" /></linearGradient><linearGradient id="g24" gradientUnits="objectBoundingBox" x1="0.1984" y1="0.1167" x2="0.6436" y2="0.9636"><stop offset="0%" stop-color="#bfc4da" stop-opacity="1" /><stop offset="60.4167%" stop-color="#949cba" stop-opacity="1" /><stop offset="100%" stop-color="#ccd2eb" stop-opacity="1" /></linearGradient><linearGradient id="g25" gradientUnits="objectBoundingBox" x1="0.5" y1="0" x2="0.5" y2="1"><stop offset="0%" stop-color="#818a9c" stop-opacity="1" /><stop offset="100%" stop-color="#9c9eaf" stop-opacity="1" /></linearGradient><linearGradient id="g26" gradientUnits="objectBoundingBox" x1="0" y1="0.5685" x2="1" y2="0.5685"><stop offset="0%" stop-color="#e2e2e2" stop-opacity="0" /><stop offset="49.8764%" stop-color="#dcdcdc" stop-opacity="0.4" /><stop offset="100%" stop-color="#e7e7e7" stop-opacity="0" /></linearGradient><linearGradient id="g27" gradientUnits="objectBoundingBox" x1="0.5" y1="0" x2="0.5511" y2="1.074"><stop offset="0%" stop-color="#c3c6cf" stop-opacity="1" /><stop offset="100%" stop-color="#eaedf8" stop-opacity="1" /></linearGradient><linearGradient id="g28" gradientUnits="objectBoundingBox" x1="0.5" y1="0" x2="0.5511" y2="1.074"><stop offset="0%" stop-color="#f2f4fc" stop-opacity="1" /><stop offset="100%" stop-color="#f0f3ff" stop-opacity="1" /></linearGradient></defs><path d="M14.6856 5.31304C21.7072 1.77101 25.218 -1.73068e-15 29 0C32.782 2.50948e-14 36.2928 1.77101 43.3144 5.31304L43.5 5.40667L43.6826 5.52169C50.1068 9.56732 53.3189 11.5901 55.2422 14.6719C55.4025 14.9288 55.5554 15.1902 55.7007 15.4558C57.4439 18.6426 57.6292 22.4284 58 30C57.6292 37.5716 57.4439 41.3574 55.7007 44.5442C55.5554 44.8098 55.4025 45.0712 55.2422 45.3281C53.3189 48.4099 50.1068 50.4327 43.6826 54.4783L43.5 54.5933L43.3144 54.687C36.2928 58.229 32.782 60 29 60C25.218 60 21.7072 58.229 14.6856 54.687L14.5 54.5933L14.3174 54.4783C7.89318 50.4327 4.6811 48.4099 2.75779 45.3281C2.59748 45.0712 2.44458 44.8098 2.29929 44.5442C0.556123 41.3574 0.370749 37.5716 0 30C0.370749 22.4284 0.556123 18.6426 2.29929 15.4558C2.44458 15.1902 2.59748 14.9288 2.7578 14.6719C4.6811 11.5901 7.89318 9.56732 14.3174 5.52169L14.5 5.40667L14.6856 5.31304Z" transform="translate(3 2)" fill="url(#g1)" fill-rule="nonzero" opacity="1" /><path d="M4.8 0C2.14903 -1.47158e-16 1.47158e-16 2.14903 0 4.8L0 9.6C-1.47158e-16 12.251 2.14903 14.4 4.8 14.4L9.6 14.4C12.251 14.4 14.4 12.251 14.4 9.6L14.4 4.8C14.4 2.14903 12.251 1.47158e-16 9.6 0L4.8 0Z" transform="translate(16 16)" fill="#ffffff" fill-rule="evenodd" opacity="0.7" /><path d="M4.8 17.6C2.14903 17.6 1.47158e-16 19.749 0 22.4L0 27.2C-1.47158e-16 29.851 2.14903 32 4.8 32L9.6 32C12.251 32 14.4 29.851 14.4 27.2L14.4 22.4C14.4 19.749 12.251 17.6 9.6 17.6L4.8 17.6Z" transform="translate(16 16)" fill="#ffffff" fill-rule="evenodd" opacity="0.7" /><path d="M17.6 4.8C17.6 2.14903 19.749 -1.47158e-16 22.4 0L27.2 0C29.851 1.47158e-16 32 2.14903 32 4.8L32 9.6C32 12.251 29.851 14.4 27.2 14.4L22.4 14.4C19.749 14.4 17.6 12.251 17.6 9.6L17.6 4.8Z" transform="translate(16 16)" fill="#ffffff" fill-rule="evenodd" opacity="0.7" /><path d="M22.4 17.6C19.749 17.6 17.6 19.749 17.6 22.4L17.6 27.2C17.6 29.851 19.749 32 22.4 32L27.2 32C29.851 32 32 29.851 32 27.2L32 22.4C32 19.749 29.851 17.6 27.2 17.6L22.4 17.6Z" transform="translate(16 16)" fill="#ffffff" fill-rule="evenodd" opacity="0.7" /><path d="M0.298443 14.9376C-0.0242051 14.6239 -0.0931239 14.1297 0.131282 13.7388L4.60951 5.93952C4.83392 5.54869 5.29406 5.36158 5.72556 5.48569L8.47002 6.27508C8.77168 6.36184 9.0953 6.29627 9.34774 6.10892C9.85689 5.73105 10.3851 5.38407 10.9293 5.06879C11.4732 4.75233 12.0363 4.4657 12.6166 4.21113C12.9042 4.08497 13.1225 3.83596 13.1986 3.5299L13.891 0.745126C13.9998 0.307321 14.391 0.000187658 14.8398 0.000178704L23.7959 1.95673e-10C24.2447 -8.95178e-06 24.636 0.307146 24.7448 0.744981L25.4371 3.52961C25.5132 3.83569 25.7315 4.08472 26.0191 4.21088C26.6007 4.46603 27.1651 4.75337 27.7102 5.07068C28.253 5.38534 28.7799 5.73155 29.2878 6.1085C29.5403 6.29585 29.8639 6.36142 30.1655 6.27464L32.91 5.48516C33.3415 5.36102 33.8017 5.54814 34.0261 5.93899L38.504 13.7381C38.7284 14.1289 38.6595 14.6231 38.3368 14.9368L36.2846 16.9322C36.059 17.1514 35.9537 17.466 35.9888 17.7795C36.0597 18.412 36.0944 19.0457 36.0938 19.6774C36.0944 20.309 36.0596 20.9426 35.9887 21.575C35.9536 21.8885 36.0589 22.203 36.2845 22.4224L38.3366 24.4175C38.6592 24.7312 38.7282 25.2255 38.5038 25.6163L34.0255 33.4156C33.8011 33.8065 33.341 33.9936 32.9095 33.8695L30.165 33.0801C29.8634 32.9933 29.5397 33.0589 29.2873 33.2462C28.7797 33.6229 28.2533 33.9689 27.7109 34.2834C27.1654 34.601 26.6005 34.8887 26.0184 35.144C25.7309 35.2702 25.5126 35.5192 25.4365 35.8252L24.7441 38.61C24.6352 39.0478 24.244 39.355 23.7952 39.355L14.8391 39.3552C14.3903 39.3552 13.9991 39.048 13.8902 38.6102L13.1979 35.8256C13.1219 35.5195 12.9036 35.2704 12.616 35.1443C12.0372 34.8904 11.4755 34.6046 10.9329 34.2892C10.3873 33.9733 9.85769 33.6255 9.34724 33.2467C9.09479 33.0593 8.77116 32.9937 8.4695 33.0805L5.72503 33.87C5.29351 33.9941 4.83335 33.807 4.60894 33.4162L0.131057 25.6171C-0.0933373 25.2263 -0.0244151 24.732 0.298227 24.4184L2.35047 22.423C2.57602 22.2037 2.68135 21.8892 2.64623 21.5757C2.57536 20.9432 2.54063 20.3096 2.54123 19.6779C2.54066 19.0462 2.57541 18.4126 2.6463 17.7802C2.68144 17.4667 2.57611 17.1521 2.35055 16.9328L0.298443 14.9376Z" transform="translate(12.6802 12.3516)" fill="url(#g6)" fill-rule="nonzero" opacity="1" /><path d="M0.298443 14.9376C-0.0242051 14.6239 -0.0931239 14.1297 0.131282 13.7388L4.60951 5.93952C4.83392 5.54869 5.29406 5.36158 5.72556 5.48569L8.47002 6.27508C8.77168 6.36184 9.0953 6.29627 9.34774 6.10892C9.85689 5.73105 10.3851 5.38407 10.9293 5.06879C11.4732 4.75233 12.0363 4.4657 12.6166 4.21113C12.9042 4.08497 13.1225 3.83596 13.1986 3.5299L13.891 0.745126C13.9998 0.307321 14.391 0.000187658 14.8398 0.000178704L23.7959 1.95673e-10C24.2447 -8.95178e-06 24.636 0.307146 24.7448 0.744981L25.4371 3.52961C25.5132 3.83569 25.7315 4.08472 26.0191 4.21088C26.6007 4.46603 27.1651 4.75337 27.7102 5.07068C28.253 5.38534 28.7799 5.73155 29.2878 6.1085C29.5403 6.29585 29.8639 6.36142 30.1655 6.27464L32.91 5.48516C33.3415 5.36102 33.8017 5.54814 34.0261 5.93899L38.504 13.7381C38.7284 14.1289 38.6595 14.6231 38.3368 14.9368L36.2846 16.9322C36.059 17.1514 35.9537 17.466 35.9888 17.7795C36.0597 18.412 36.0944 19.0457 36.0938 19.6774C36.0944 20.309 36.0596 20.9426 35.9887 21.575C35.9536 21.8885 36.0589 22.203 36.2845 22.4224L38.3366 24.4175C38.6592 24.7312 38.7282 25.2255 38.5038 25.6163L34.0255 33.4156C33.8011 33.8065 33.341 33.9936 32.9095 33.8695L30.165 33.0801C29.8634 32.9933 29.5397 33.0589 29.2873 33.2462C28.7797 33.6229 28.2533 33.9689 27.7109 34.2834C27.1654 34.601 26.6005 34.8887 26.0184 35.144C25.7309 35.2702 25.5126 35.5192 25.4365 35.8252L24.7441 38.61C24.6352 39.0478 24.244 39.355 23.7952 39.355L14.8391 39.3552C14.3903 39.3552 13.9991 39.048 13.8902 38.6102L13.1979 35.8256C13.1219 35.5195 12.9036 35.2704 12.616 35.1443C12.0372 34.8904 11.4755 34.6046 10.9329 34.2892C10.3873 33.9733 9.85769 33.6255 9.34724 33.2467C9.09479 33.0593 8.77116 32.9937 8.4695 33.0805L5.72503 33.87C5.29351 33.9941 4.83335 33.807 4.60894 33.4162L0.131057 25.6171C-0.0933373 25.2263 -0.0244151 24.732 0.298227 24.4184L2.35047 22.423C2.57602 22.2037 2.68135 21.8892 2.64623 21.5757C2.57536 20.9432 2.54063 20.3096 2.54123 19.6779C2.54066 19.0462 2.57541 18.4126 2.6463 17.7802C2.68144 17.4667 2.57611 17.1521 2.35055 16.9328L0.298443 14.9376Z" transform="translate(12.6802 12.3516)" fill="url(#g7)" fill-rule="nonzero" opacity="1" /><path d="M0.298443 14.9376C-0.0242051 14.6239 -0.0931239 14.1297 0.131282 13.7388L4.60951 5.93952C4.83392 5.54869 5.29406 5.36158 5.72556 5.48569L8.47002 6.27508C8.77168 6.36184 9.0953 6.29627 9.34774 6.10892C9.85689 5.73105 10.3851 5.38407 10.9293 5.06879C11.4732 4.75233 12.0363 4.4657 12.6166 4.21113C12.9042 4.08497 13.1225 3.83596 13.1986 3.5299L13.891 0.745126C13.9998 0.307321 14.391 0.000187658 14.8398 0.000178704L23.7959 1.95673e-10C24.2447 -8.95178e-06 24.636 0.307146 24.7448 0.744981L25.4371 3.52961C25.5132 3.83569 25.7315 4.08472 26.0191 4.21088C26.6007 4.46603 27.1651 4.75337 27.7102 5.07068C28.253 5.38534 28.7799 5.73155 29.2878 6.1085C29.5403 6.29585 29.8639 6.36142 30.1655 6.27464L32.91 5.48516C33.3415 5.36102 33.8017 5.54814 34.0261 5.93899L38.504 13.7381C38.7284 14.1289 38.6595 14.6231 38.3368 14.9368L36.2846 16.9322C36.059 17.1514 35.9537 17.466 35.9888 17.7795C36.0597 18.412 36.0944 19.0457 36.0938 19.6774C36.0944 20.309 36.0596 20.9426 35.9887 21.575C35.9536 21.8885 36.0589 22.203 36.2845 22.4224L38.3366 24.4175C38.6592 24.7312 38.7282 25.2255 38.5038 25.6163L34.0255 33.4156C33.8011 33.8065 33.341 33.9936 32.9095 33.8695L30.165 33.0801C29.8634 32.9933 29.5397 33.0589 29.2873 33.2462C28.7797 33.6229 28.2533 33.9689 27.7109 34.2834C27.1654 34.601 26.6005 34.8887 26.0184 35.144C25.7309 35.2702 25.5126 35.5192 25.4365 35.8252L24.7441 38.61C24.6352 39.0478 24.244 39.355 23.7952 39.355L14.8391 39.3552C14.3903 39.3552 13.9991 39.048 13.8902 38.6102L13.1979 35.8256C13.1219 35.5195 12.9036 35.2704 12.616 35.1443C12.0372 34.8904 11.4755 34.6046 10.9329 34.2892C10.3873 33.9733 9.85769 33.6255 9.34724 33.2467C9.09479 33.0593 8.77116 32.9937 8.4695 33.0805L5.72503 33.87C5.29351 33.9941 4.83335 33.807 4.60894 33.4162L0.131057 25.6171C-0.0933373 25.2263 -0.0244151 24.732 0.298227 24.4184L2.35047 22.423C2.57602 22.2037 2.68135 21.8892 2.64623 21.5757C2.57536 20.9432 2.54063 20.3096 2.54123 19.6779C2.54066 19.0462 2.57541 18.4126 2.6463 17.7802C2.68144 17.4667 2.57611 17.1521 2.35055 16.9328L0.298443 14.9376Z" transform="translate(12.6802 12.3516)" fill="url(#g8)" fill-rule="nonzero" opacity="1" /><path d="M10.9293 5.06879L11.1213 5.40015L11.1219 5.39979L10.9293 5.06879ZM27.7102 5.07068L27.5175 5.40164L27.5181 5.402L27.7102 5.07068ZM36.0938 19.6774L35.7108 19.677L35.7108 19.6777L36.0938 19.6774ZM27.7109 34.2834L27.5188 33.9521L27.5182 33.9525L27.7109 34.2834ZM10.9329 34.2892L11.1254 33.9581L11.1248 33.9577L10.9329 34.2892ZM2.54123 19.6779L2.92419 19.6783L2.92419 19.6775L2.54123 19.6779ZM2.6463 17.7802L3.02687 17.8229L3.02687 17.8229L2.6463 17.7802ZM2.35055 16.9328L2.08359 17.2074L2.08359 17.2074L2.35055 16.9328ZM0.131057 25.6171L-0.201049 25.8078L0.131057 25.6171ZM0.298227 24.4184L0.0312709 24.1438L0.0312708 24.1438L0.298227 24.4184ZM13.1979 35.8256L13.5696 35.7332L13.5696 35.7332L13.1979 35.8256ZM12.616 35.1443L12.7698 34.7936L12.616 35.1443ZM14.8391 39.3552L14.8391 39.7381L14.8391 39.7381L14.8391 39.3552ZM13.8902 38.6102L13.5186 38.7026L13.5186 38.7026L13.8902 38.6102ZM24.7441 38.61L25.1157 38.7024L25.1157 38.7024L24.7441 38.61ZM23.7952 39.355L23.7952 38.972L23.7952 38.972L23.7952 39.355ZM26.0184 35.144L26.1723 35.4947L26.1723 35.4947L26.0184 35.144ZM25.4365 35.8252L25.0648 35.7328L25.0648 35.7328L25.4365 35.8252ZM30.165 33.0801L30.2709 32.712L30.2709 32.712L30.165 33.0801ZM29.2873 33.2462L29.0591 32.9387L29.0591 32.9387L29.2873 33.2462ZM34.0255 33.4156L33.6934 33.2249L33.6934 33.2249L34.0255 33.4156ZM32.9095 33.8695L32.8036 34.2375L32.8036 34.2375L32.9095 33.8695ZM38.3366 24.4175L38.6035 24.143L38.6035 24.143L38.3366 24.4175ZM38.5038 25.6163L38.8359 25.807L38.8359 25.807L38.5038 25.6163ZM35.9887 21.575L35.6082 21.5323L35.6082 21.5323L35.9887 21.575ZM36.2845 22.4224L36.0175 22.6969L36.0175 22.6969L36.2845 22.4224ZM32.91 5.48516L33.0159 5.85319L33.0159 5.85319L32.91 5.48516ZM34.0261 5.93899L34.3582 5.7483L34.3582 5.7483L34.0261 5.93899ZM29.2878 6.1085L29.0596 6.41602L29.2878 6.1085ZM30.1655 6.27464L30.0597 5.90661L30.0597 5.90661L30.1655 6.27464ZM25.4371 3.52961L25.0655 3.622L25.0655 3.622L25.4371 3.52961ZM26.0191 4.21088L25.8652 4.56157L25.8652 4.56157L26.0191 4.21088ZM23.7959 1.95673e-10L23.7959 -0.382954L23.7959 1.95673e-10ZM24.7448 0.744981L25.1165 0.65259L25.1165 0.65259L24.7448 0.744981ZM2.35047 22.423L2.61743 22.6976L2.61743 22.6976L2.35047 22.423ZM2.64623 21.5757L3.0268 21.533L2.64623 21.5757ZM12.6166 4.21113L12.7705 4.56182L12.7705 4.56182L12.6166 4.21113ZM13.1986 3.5299L12.8269 3.4375L12.8269 3.4375L13.1986 3.5299ZM5.72503 33.87L5.61916 33.502L5.61916 33.502L5.72503 33.87ZM4.60894 33.4162L4.94105 33.2255L4.60894 33.4162ZM8.47002 6.27508L8.57588 5.90704L8.57588 5.90704L8.47002 6.27508ZM9.34774 6.10892L9.11952 5.8014L9.11952 5.8014L9.34774 6.10892ZM36.2846 16.9322L36.0176 16.6576L36.0176 16.6576L36.2846 16.9322ZM35.9888 17.7795L36.3694 17.7369L35.9888 17.7795ZM9.34724 33.2467L9.57546 32.9391L9.57546 32.9391L9.34724 33.2467ZM8.4695 33.0805L8.57537 33.4486L8.57537 33.4486L8.4695 33.0805ZM0.131282 13.7388L0.463385 13.9295L0.463385 13.9295L0.131282 13.7388ZM0.298443 14.9376L0.565398 14.663L0.565398 14.663L0.298443 14.9376ZM13.891 0.745126L14.2626 0.837531L14.2626 0.837531L13.891 0.745126ZM14.8398 0.000178704L14.8398 0.383133L14.8398 0.000178704ZM38.504 13.7381L38.1719 13.9287L38.1719 13.9287L38.504 13.7381ZM38.3368 14.9368L38.6038 15.2114L38.6038 15.2114L38.3368 14.9368ZM4.60951 5.93952L4.94162 6.1302L4.94162 6.1302L4.60951 5.93952ZM5.72556 5.48569L5.61971 5.85373L5.61971 5.85373L5.72556 5.48569ZM4.60951 5.93952L4.27741 5.74883L-0.20082 13.5481L0.131282 13.7388L0.463385 13.9295L4.94162 6.1302L4.60951 5.93952ZM8.47002 6.27508L8.57588 5.90704L5.83142 5.11766L5.72556 5.48569L5.61971 5.85373L8.36417 6.64311L8.47002 6.27508ZM10.9293 5.06879L10.7373 4.73743C10.1807 5.05992 9.64036 5.41486 9.11952 5.8014L9.34774 6.10892L9.57597 6.41644C10.0734 6.04724 10.5895 5.70822 11.1213 5.40015L10.9293 5.06879ZM10.9293 5.06879L11.1219 5.39979C11.6533 5.09058 12.2036 4.81053 12.7705 4.56182L12.6166 4.21113L12.4628 3.86044C11.8691 4.12088 11.293 4.41409 10.7367 4.73779L10.9293 5.06879ZM13.1986 3.5299L13.5702 3.62231L14.2626 0.837531L13.891 0.745126L13.5193 0.652721L12.8269 3.4375L13.1986 3.5299ZM14.8398 0.000178704L14.8398 0.383133L23.7959 0.382954L23.7959 1.95673e-10L23.7959 -0.382954L14.8398 -0.382775L14.8398 0.000178704ZM24.7448 0.744981L24.3732 0.837373L25.0655 3.622L25.4371 3.52961L25.8087 3.43722L25.1165 0.65259L24.7448 0.744981ZM26.0191 4.21088L25.8652 4.56157C26.4335 4.81084 26.985 5.09159 27.5175 5.40164L27.7102 5.07068L27.9029 4.73973C27.3453 4.41515 26.7679 4.12121 26.1729 3.86018L26.0191 4.21088ZM29.2878 6.1085L29.516 5.80097C28.9964 5.41538 28.4575 5.06123 27.9022 4.73937L27.7102 5.07068L27.5181 5.402C28.0485 5.70945 28.5633 6.04773 29.0596 6.41602L29.2878 6.1085ZM32.91 5.48516L32.8041 5.11713L30.0597 5.90661L30.1655 6.27464L30.2714 6.64267L33.0159 5.85319L32.91 5.48516ZM38.504 13.7381L38.8361 13.5474L34.3582 5.7483L34.0261 5.93899L33.694 6.12967L38.1719 13.9287L38.504 13.7381ZM36.2846 16.9322L36.5515 17.2067L38.6038 15.2114L38.3368 14.9368L38.0699 14.6622L36.0176 16.6576L36.2846 16.9322ZM36.0938 19.6774L36.4768 19.6778C36.4774 19.0317 36.4419 18.3837 36.3694 17.7369L35.9888 17.7795L35.6082 17.8222C35.6775 18.4403 35.7114 19.0596 35.7108 19.677L36.0938 19.6774ZM35.9887 21.575L36.3693 21.6176C36.4418 20.9708 36.4773 20.323 36.4768 19.6771L36.0938 19.6774L35.7108 19.6777C35.7114 20.2951 35.6774 20.9143 35.6082 21.5323L35.9887 21.575ZM38.3366 24.4175L38.6035 24.143L36.5514 22.1478L36.2845 22.4224L36.0175 22.6969L38.0696 24.6921L38.3366 24.4175ZM34.0255 33.4156L34.3576 33.6063L38.8359 25.807L38.5038 25.6163L38.1717 25.4256L33.6934 33.2249L34.0255 33.4156ZM30.165 33.0801L30.0592 33.4481L32.8036 34.2375L32.9095 33.8695L33.0153 33.5014L30.2709 32.712L30.165 33.0801ZM27.7109 34.2834L27.903 34.6147C28.4578 34.293 28.9963 33.9391 29.5155 33.5538L29.2873 33.2462L29.0591 32.9387C28.5632 33.3068 28.0488 33.6448 27.5188 33.9521L27.7109 34.2834ZM27.7109 34.2834L27.5182 33.9525C26.9852 34.2628 26.4333 34.5438 25.8646 34.7933L26.0184 35.144L26.1723 35.4947C26.7678 35.2335 27.3456 34.9392 27.9036 34.6143L27.7109 34.2834ZM25.4365 35.8252L25.0648 35.7328L24.3724 38.5176L24.7441 38.61L25.1157 38.7024L25.8081 35.9177L25.4365 35.8252ZM23.7952 39.355L23.7952 38.972L14.8391 38.9722L14.8391 39.3552L14.8391 39.7381L23.7952 39.7379L23.7952 39.355ZM13.8902 38.6102L14.2619 38.5178L13.5696 35.7332L13.1979 35.8256L12.8263 35.9179L13.5186 38.7026L13.8902 38.6102ZM12.616 35.1443L12.7698 34.7936C12.2044 34.5455 11.6556 34.2663 11.1254 33.9581L10.9329 34.2892L10.7405 34.6202C11.2954 34.9429 11.8701 35.2352 12.4621 35.495L12.616 35.1443ZM9.34724 33.2467L9.11902 33.5542C9.64119 33.9417 10.1829 34.2975 10.7411 34.6206L10.9329 34.2892L11.1248 33.9577C10.5916 33.6491 10.0742 33.3093 9.57546 32.9391L9.34724 33.2467ZM5.72503 33.87L5.8309 34.238L8.57537 33.4486L8.4695 33.0805L8.36363 32.7125L5.61916 33.502L5.72503 33.87ZM0.131057 25.6171L-0.201049 25.8078L4.27684 33.6069L4.60894 33.4162L4.94105 33.2255L0.463163 25.4264L0.131057 25.6171ZM2.35047 22.423L2.08352 22.1484L0.0312709 24.1438L0.298227 24.4184L0.565182 24.6929L2.61743 22.6976L2.35047 22.423ZM2.54123 19.6779L2.15828 19.6775C2.15767 20.3235 2.19318 20.9715 2.26565 21.6183L2.64623 21.5757L3.0268 21.533C2.95754 20.9149 2.9236 20.2957 2.92419 19.6783L2.54123 19.6779ZM2.6463 17.7802L2.26573 17.7375C2.19323 18.3844 2.15769 19.0323 2.15828 19.6782L2.54123 19.6779L2.92419 19.6775C2.92363 19.0602 2.95759 18.4409 3.02687 17.8229L2.6463 17.7802ZM0.298443 14.9376L0.0314871 15.2122L2.08359 17.2074L2.35055 16.9328L2.6175 16.6582L0.565398 14.663L0.298443 14.9376ZM2.6463 17.7802L3.02687 17.8229C3.07445 17.3983 2.93258 16.9646 2.6175 16.6582L2.35055 16.9328L2.08359 17.2074C2.21964 17.3396 2.28842 17.535 2.26573 17.7375L2.6463 17.7802ZM0.131057 25.6171L0.463163 25.4264C0.325716 25.187 0.368268 24.8844 0.565182 24.6929L0.298227 24.4184L0.0312708 24.1438C-0.417098 24.5797 -0.512391 25.2655 -0.201049 25.8078L0.131057 25.6171ZM13.1979 35.8256L13.5696 35.7332C13.4635 35.3065 13.1609 34.9652 12.7698 34.7936L12.616 35.1443L12.4621 35.495C12.6462 35.5757 12.7802 35.7325 12.8263 35.9179L13.1979 35.8256ZM14.8391 39.3552L14.8391 38.9722C14.5675 38.9722 14.3286 38.7862 14.2619 38.5178L13.8902 38.6102L13.5186 38.7026C13.6695 39.3098 14.2131 39.7381 14.8391 39.7381L14.8391 39.3552ZM24.7441 38.61L24.3724 38.5176C24.3057 38.786 24.0668 38.972 23.7952 38.972L23.7952 39.355L23.7952 39.7379C24.4212 39.7379 24.9647 39.3097 25.1157 38.7024L24.7441 38.61ZM26.0184 35.144L25.8646 34.7933C25.4735 34.9649 25.1709 35.3062 25.0648 35.7328L25.4365 35.8252L25.8081 35.9177C25.8542 35.7322 25.9882 35.5755 26.1723 35.4947L26.0184 35.144ZM30.165 33.0801L30.2709 32.712C29.8484 32.5905 29.4021 32.6841 29.0591 32.9387L29.2873 33.2462L29.5155 33.5538C29.6774 33.4336 29.8784 33.3961 30.0592 33.4481L30.165 33.0801ZM34.0255 33.4156L33.6934 33.2249C33.5563 33.4637 33.2765 33.5766 33.0153 33.5014L32.9095 33.8695L32.8036 34.2375C33.4054 34.4106 34.0459 34.1492 34.3576 33.6063L34.0255 33.4156ZM38.3366 24.4175L38.0696 24.6921C38.2666 24.8836 38.3091 25.1862 38.1717 25.4256L38.5038 25.6163L38.8359 25.807C39.1472 25.2647 39.0519 24.5789 38.6035 24.143L38.3366 24.4175ZM35.9887 21.575L35.6082 21.5323C35.5606 21.9568 35.7025 22.3906 36.0175 22.6969L36.2845 22.4224L36.5514 22.1478C36.4154 22.0155 36.3466 21.8201 36.3693 21.6176L35.9887 21.575ZM32.91 5.48516L33.0159 5.85319C33.2771 5.77805 33.5569 5.89087 33.694 6.12967L34.0261 5.93899L34.3582 5.7483C34.0465 5.2054 33.406 4.944 32.8041 5.11713L32.91 5.48516ZM29.2878 6.1085L29.0596 6.41602C29.4026 6.6706 29.8489 6.76421 30.2714 6.64267L30.1655 6.27464L30.0597 5.90661C29.8789 5.95862 29.6779 5.9211 29.516 5.80097L29.2878 6.1085ZM25.4371 3.52961L25.0655 3.622C25.1715 4.04868 25.4741 4.39 25.8652 4.56157L26.0191 4.21088L26.1729 3.86018C25.9888 3.77944 25.8549 3.6227 25.8087 3.43722L25.4371 3.52961ZM23.7959 1.95673e-10L23.7959 0.382954C24.0675 0.382949 24.3065 0.56898 24.3732 0.837373L24.7448 0.744981L25.1165 0.65259C24.9655 0.0453113 24.422 -0.382967 23.7959 -0.382954L23.7959 1.95673e-10ZM2.35047 22.423L2.61743 22.6976C2.93249 22.3913 3.07436 21.9575 3.0268 21.533L2.64623 21.5757L2.26565 21.6183C2.28834 21.8208 2.21956 22.0162 2.08352 22.1484L2.35047 22.423ZM12.6166 4.21113L12.7705 4.56182C13.1616 4.39025 13.4641 4.04895 13.5702 3.62231L13.1986 3.5299L12.8269 3.4375C12.7808 3.62297 12.6468 3.77969 12.4628 3.86044L12.6166 4.21113ZM5.72503 33.87L5.61916 33.502C5.35796 33.5771 5.07815 33.4643 4.94105 33.2255L4.60894 33.4162L4.27684 33.6069C4.58855 34.1498 5.22907 34.4112 5.8309 34.238L5.72503 33.87ZM8.47002 6.27508L8.36417 6.64311C8.78668 6.76464 9.23293 6.67102 9.57597 6.41644L9.34774 6.10892L9.11952 5.8014C8.95766 5.92152 8.75669 5.95905 8.57588 5.90704L8.47002 6.27508ZM36.2846 16.9322L36.0176 16.6576C35.7025 16.9639 35.5607 17.3977 35.6082 17.8222L35.9888 17.7795L36.3694 17.7369C36.3467 17.5344 36.4155 17.339 36.5515 17.2067L36.2846 16.9322ZM9.34724 33.2467L9.57546 32.9391C9.23242 32.6846 8.78615 32.591 8.36363 32.7125L8.4695 33.0805L8.57537 33.4486C8.75618 33.3965 8.95716 33.4341 9.11902 33.5542L9.34724 33.2467ZM0.131282 13.7388L-0.20082 13.5481C-0.512178 14.0904 -0.41689 14.7762 0.0314872 15.2122L0.298443 14.9376L0.565398 14.663C0.36848 14.4716 0.32593 14.1689 0.463385 13.9295L0.131282 13.7388ZM13.891 0.745126L14.2626 0.837531C14.3293 0.569158 14.5683 0.383138 14.8398 0.383133L14.8398 0.000178704L14.8398 -0.382775C14.2138 -0.382763 13.6703 0.0454842 13.5193 0.652721L13.891 0.745126ZM38.504 13.7381L38.1719 13.9287C38.3093 14.1681 38.2668 14.4708 38.0699 14.6622L38.3368 14.9368L38.6038 15.2114C39.0521 14.7754 39.1474 14.0896 38.8361 13.5474L38.504 13.7381ZM4.60951 5.93952L4.94162 6.1302C5.07872 5.89142 5.35851 5.7786 5.61971 5.85373L5.72556 5.48569L5.83142 5.11766C5.22961 4.94456 4.58912 5.20596 4.27741 5.74883L4.60951 5.93952Z" transform="translate(12.6802 12.3516)" fill="url(#g9)" fill-rule="nonzero" opacity="1" /><path d="M0.131067 13.7388L4.6093 5.93952C4.8337 5.54869 5.29384 5.36158 5.72535 5.48569L8.46981 6.27508C8.77147 6.36184 9.09508 6.29627 9.34753 6.10892C9.85668 5.73105 10.3849 5.38407 10.9291 5.06879C11.4729 4.75233 12.0361 4.4657 12.6164 4.21113C12.904 4.08497 13.1223 3.83596 13.1983 3.5299L13.8908 0.745126C13.9996 0.307321 14.3908 0.000187658 14.8396 0.000178704L23.7957 0C24.2445 -8.95178e-06 24.6358 0.307146 24.7446 0.744981L25.4369 3.52961C19.858 2.93733 7.43015 4.78877 2.35033 16.9328L0.298227 14.9376C-0.0244203 14.6239 -0.0933391 14.1297 0.131067 13.7388Z" transform="translate(12.6802 12.3516)" fill="#ffffff" fill-rule="nonzero" opacity="1" /><path d="M0.283853 14.2917C-0.0232421 13.9916 -0.0888404 13.5187 0.124749 13.1448L4.38711 5.68271C4.6007 5.30878 5.03867 5.12976 5.44937 5.24851L8.06154 6.00376C8.34866 6.08678 8.65667 6.02404 8.89694 5.84479C9.38155 5.48326 9.88428 5.15128 10.4023 4.84963C10.9199 4.54686 11.4559 4.27262 12.0083 4.02905C12.282 3.90835 12.4897 3.6701 12.5622 3.37728L13.2212 0.712909C13.3248 0.294034 13.6971 0.000179544 14.1243 0.000170977L22.6487 1.87212e-10C23.0759 -8.56473e-06 23.4483 0.293866 23.5519 0.712771L24.2108 3.377C24.2832 3.66985 24.491 3.90811 24.7647 4.02881C25.3183 4.27293 25.8555 4.54785 26.3743 4.85144C26.8909 5.1525 27.3924 5.48374 27.8758 5.84438C28.1161 6.02364 28.4242 6.08637 28.7113 6.00335L31.3234 5.248C31.7342 5.12923 32.1722 5.30825 32.3857 5.6822L36.6478 13.1441C36.8613 13.518 36.7958 13.9909 36.4887 14.291L34.5353 16.2001C20.4917 4.85144 15.147 6.37927 2.23704 16.2007L0.283853 14.2917Z" transform="translate(13.6145 12.8406)" fill="url(#g12)" fill-rule="nonzero" opacity="1" /><path d="M6.27787 3.63263C6.27787 3.63263 2.09244 5.01701 1.32163 6.72603C0.680808 5.39706 0 2.09469 0 2.09469C0.329996 1.36224 2.36764 0.448544 3.28456 0C4.60636 1.26205 6.27787 3.63263 6.27787 3.63263Z" transform="translate(22.498 16.8408)" fill="#ffffff" fill-rule="nonzero" opacity="1" /><path d="M6.27787 3.63263C6.27787 3.63263 2.09244 5.01701 1.32163 6.72603C0.680808 5.39706 0 2.09469 0 2.09469C0.329996 1.36224 2.36764 0.448544 3.28456 0C4.60636 1.26205 6.27787 3.63263 6.27787 3.63263Z" transform="translate(35.4178 40.2251)" fill="#d3d7e5" fill-rule="nonzero" opacity="0.3" /><path d="M9.2858 1.32253C9.2858 1.32253 7.86566 9.7777 1.41729 10.2508C0.776472 8.92178 0 6.34771 0 6.34771C0.534604 5.81031 3.25692 4.2115 4.17384 3.76296C4.72766 4.29175 4.2587 -0.508335 4.72638 0.0444045C5.99704 0.307909 9.2858 1.32253 9.2858 1.32253Z" transform="translate(32.929 31.6587)" fill="url(#g15)" fill-rule="nonzero" opacity="0.5" /><path d="M6.67989 3.855C6.67989 3.855 3.15665 5.54851 1.2395 6.9394C0.59868 5.61043 0 2.71676 0 2.71676C0.329996 1.98431 4.28237 -1.47121 10.3877 0.715317C10.3877 1.47212 9.3562 4.49958 9.1053 4.80793C8.50606 5.07923 6.67989 3.855 6.67989 3.855Z" transform="translate(25.4616 21.9139)" fill="url(#g16)" fill-rule="nonzero" opacity="1" /><path d="M6.30386 3.61769C6.30386 3.61769 2.1011 4.99638 1.3271 6.69837C0.683627 5.37486 0 2.08607 0 2.08607C0.331362 1.35663 2.37744 0.446699 3.29816 0C4.62543 1.25686 6.30386 3.61769 6.30386 3.61769Z" transform="translate(20.7971 39.1798)" fill="#d3d7e5" fill-rule="nonzero" opacity="0.3" /><path d="M6.30475 3.61718C6.30475 3.61718 2.1014 4.99567 1.32729 6.69743C0.683723 5.37411 0 2.08578 0 2.08578C0.331409 1.35644 2.37778 0.446636 3.29863 0C4.62608 1.25668 6.30475 3.61718 6.30475 3.61718Z" transform="translate(14.4065 27.4279)" fill="#e2e6f3" fill-rule="nonzero" opacity="0.3" /><path d="M6.30475 3.61718C6.30475 3.61718 2.1014 4.99567 1.32729 6.69743C0.683723 5.37411 0 2.08578 0 2.08578C0.331409 1.35644 2.37778 0.446636 3.29862 0C4.62608 1.25668 6.30475 3.61718 6.30475 3.61718Z" transform="translate(40.6595 27.4279)" fill="#e2e5f2" fill-rule="nonzero" opacity="0.3" /><path d="M6.30343 3.61794C6.30343 3.61794 2.10096 4.99672 1.32701 6.69884C0.68358 5.37524 0 2.08622 0 2.08622C0.331339 1.35673 2.37728 0.44673 3.29793 0C4.62511 1.25694 6.30343 3.61794 6.30343 3.61794Z" transform="translate(34.0063 16.0159)" fill="#ffffff" fill-rule="nonzero" opacity="0.5" /><path d="M10.7488 4.98506L10.8767 5.20597L10.8772 5.20573L10.7488 4.98506ZM27.2525 4.98693L27.1241 5.20756L27.1245 5.2078L27.2525 4.98693ZM35.4976 19.3524L35.2423 19.3521L35.2423 19.3526L35.4976 19.3524ZM27.2532 33.7171L27.1251 33.4963L27.1247 33.4965L27.2532 33.7171ZM10.7524 33.7228L10.8807 33.5021L10.8803 33.5019L10.7524 33.7228ZM2.49926 19.3529L2.75456 19.3531L2.75456 19.3526L2.49926 19.3529ZM2.60259 17.4865L2.8563 17.515L2.8563 17.515L2.60259 17.4865ZM2.31173 16.6531L2.13376 16.8362L2.13376 16.8362L2.31173 16.6531ZM0.128892 25.194L-0.0925117 25.3211L0.128892 25.194ZM0.293301 24.015L0.11533 23.832L0.11533 23.832L0.293301 24.015ZM12.98 35.2338L13.2277 35.1722L13.2277 35.1722L12.98 35.2338ZM12.4076 34.5638L12.5102 34.33L12.4076 34.5638ZM14.594 38.7051L14.594 38.9604L14.594 38.9604L14.594 38.7051ZM13.6608 37.9724L13.413 38.034L13.413 38.034L13.6608 37.9724ZM24.3354 37.9723L24.5831 38.0339L24.5831 38.0339L24.3354 37.9723ZM23.4022 38.7049L23.4022 38.4496L23.4022 38.4496L23.4022 38.7049ZM25.5887 34.5635L25.6912 34.7973L25.5887 34.5635ZM25.0164 35.2335L24.7686 35.1719L24.7686 35.1719L25.0164 35.2335ZM29.6668 32.5337L29.7374 32.2883L29.7374 32.2883L29.6668 32.5337ZM28.8036 32.6971L28.6514 32.4921L28.6514 32.4921L28.8036 32.6971ZM33.4635 32.8637L33.2421 32.7366L33.2421 32.7366L33.4635 32.8637ZM32.3659 33.31L32.2953 33.5554L32.2953 33.5554L32.3659 33.31ZM37.7034 24.0142L37.8814 23.8312L37.8814 23.8312L37.7034 24.0142ZM37.8678 25.1932L38.0892 25.3203L38.0892 25.3203L37.8678 25.1932ZM35.3943 21.2186L35.1406 21.1902L35.1406 21.1902L35.3943 21.2186ZM35.6852 22.052L35.5072 22.235L35.5072 22.235L35.6852 22.052ZM32.3664 5.39456L32.437 5.63991L32.437 5.63991L32.3664 5.39456ZM33.4641 5.84089L33.6855 5.71377L33.6855 5.71377L33.4641 5.84089ZM28.8041 6.0076L28.6519 6.21261L28.6519 6.21261L28.8041 6.0076ZM29.6673 6.171L29.5967 5.92565L29.5967 5.92565L29.6673 6.171ZM25.017 3.47131L24.7692 3.5329L24.7692 3.5329L25.017 3.47131ZM25.5893 4.14133L25.4868 4.37512L25.4868 4.37512L25.5893 4.14133ZM23.4029 1.92441e-10L23.4029 -0.255303L23.4029 1.92441e-10ZM24.3361 0.732676L24.5839 0.671082L24.5839 0.671082L24.3361 0.732676ZM2.31165 22.0527L2.48962 22.2357L2.48962 22.2357L2.31165 22.0527ZM2.60252 21.2193L2.85623 21.1909L2.60252 21.2193ZM12.4082 4.14157L12.5108 4.37536L12.5108 4.37536L12.4082 4.14157ZM12.9806 3.4716L12.7328 3.41L12.7328 3.41L12.9806 3.4716ZM5.63047 33.3106L5.55989 33.0652L5.55989 33.0652L5.63047 33.3106ZM4.53282 32.8642L4.75422 32.7371L4.53282 32.8642ZM8.33013 6.17143L8.4007 5.92607L8.4007 5.92607L8.33013 6.17143ZM9.19335 6.00801L9.0412 5.803L9.0412 5.803L9.19335 6.00801ZM35.6853 16.6525L35.5073 16.4694L35.5073 16.4694L35.6853 16.6525ZM35.3944 17.4858L35.6481 17.4574L35.3944 17.4858ZM9.19285 32.6975L9.345 32.4925L9.19285 32.6975ZM8.32961 32.5341L8.40019 32.7795L8.40019 32.7795L8.32961 32.5341ZM0.129114 13.5119L0.350515 13.639L0.350515 13.639L0.129114 13.5119ZM0.293513 14.6909L0.471483 14.5078L0.471483 14.5078L0.293513 14.6909ZM13.6615 0.732818L13.9093 0.794422L13.9093 0.794422L13.6615 0.732818ZM14.5947 0.000175752L14.5947 0.255478L14.5947 0.000175752ZM37.868 13.5111L37.6466 13.6383L37.6466 13.6383L37.868 13.5111ZM37.7036 14.6901L37.8816 14.8731L37.8816 14.8731L37.7036 14.6901ZM4.53338 5.84141L4.75478 5.96854L4.75478 5.96854L4.53338 5.84141ZM5.631 5.39509L5.56042 5.64044L5.56042 5.64044L5.631 5.39509ZM4.53338 5.84141L4.31198 5.71429L-0.092288 13.3848L0.129114 13.5119L0.350515 13.639L4.75478 5.96854L4.53338 5.84141ZM8.33013 6.17143L8.4007 5.92607L5.70157 5.14973L5.631 5.39509L5.56042 5.64044L8.25955 6.41679L8.33013 6.17143ZM10.7488 4.98506L10.6208 4.76416C10.0773 5.07904 9.54973 5.42559 9.0412 5.803L9.19335 6.00801L9.3455 6.21303C9.83844 5.84718 10.3498 5.51124 10.8767 5.20597L10.7488 4.98506ZM10.7488 4.98506L10.8772 5.20573C11.4038 4.89933 11.949 4.62183 12.5108 4.37536L12.4082 4.14157L12.3057 3.90778C11.7261 4.16206 11.1636 4.44834 10.6204 4.7644L10.7488 4.98506ZM12.9806 3.4716L13.2283 3.5332L13.9093 0.794422L13.6615 0.732818L13.4138 0.671215L12.7328 3.41L12.9806 3.4716ZM14.5947 0.000175752L14.5947 0.255478L23.4029 0.255303L23.4029 1.92441e-10L23.4029 -0.255303L14.5947 -0.255127L14.5947 0.000175752ZM24.3361 0.732676L24.0884 0.79427L24.7692 3.5329L25.017 3.47131L25.2647 3.40972L24.5839 0.671082L24.3361 0.732676ZM25.5893 4.14133L25.4868 4.37512C26.0498 4.62214 26.5963 4.90033 27.1241 5.20756L27.2525 4.98693L27.381 4.76629C26.8366 4.44938 26.2728 4.16238 25.6919 3.90753L25.5893 4.14133ZM28.8041 6.0076L28.9562 5.80259C28.4489 5.4261 27.9227 5.08032 27.3805 4.76605L27.2525 4.98693L27.1245 5.2078C27.65 5.51247 28.1602 5.84766 28.6519 6.21261L28.8041 6.0076ZM32.3664 5.39456L32.2959 5.1492L29.5967 5.92565L29.6673 6.171L29.7379 6.41635L32.437 5.63991L32.3664 5.39456ZM37.868 13.5111L38.0894 13.384L33.6855 5.71377L33.4641 5.84089L33.2427 5.96801L37.6466 13.6383L37.868 13.5111ZM35.6853 16.6525L35.8632 16.8355L37.8816 14.8731L37.7036 14.6901L37.5256 14.507L35.5073 16.4694L35.6853 16.6525ZM35.4976 19.3524L35.7529 19.3526C35.7536 18.7218 35.7189 18.089 35.6481 17.4574L35.3944 17.4858L35.1407 17.5143C35.2093 18.1267 35.2429 18.7403 35.2423 19.3521L35.4976 19.3524ZM35.3943 21.2186L35.648 21.247C35.7188 20.6155 35.7535 19.9829 35.7529 19.3521L35.4976 19.3524L35.2423 19.3526C35.2429 19.9643 35.2092 20.5778 35.1406 21.1902L35.3943 21.2186ZM37.7034 24.0142L37.8814 23.8312L35.8632 21.8689L35.6852 22.052L35.5072 22.235L37.5254 24.1973L37.7034 24.0142ZM33.4635 32.8637L33.6849 32.9908L38.0892 25.3203L37.8678 25.1932L37.6464 25.0661L33.2421 32.7366L33.4635 32.8637ZM29.6668 32.5337L29.5962 32.779L32.2953 33.5554L32.3659 33.31L32.4365 33.0647L29.7374 32.2883L29.6668 32.5337ZM27.2532 33.7171L27.3812 33.938C27.923 33.6239 28.4488 33.2783 28.9557 32.9021L28.8036 32.6971L28.6514 32.4921C28.16 32.8568 27.6503 33.1918 27.1251 33.4963L27.2532 33.7171ZM27.2532 33.7171L27.1247 33.4965C26.5966 33.804 26.0497 34.0825 25.4861 34.3297L25.5887 34.5635L25.6912 34.7973C26.2727 34.5423 26.8369 34.255 27.3817 33.9377L27.2532 33.7171ZM25.0164 35.2335L24.7686 35.1719L24.0876 37.9107L24.3354 37.9723L24.5831 38.0339L25.2641 35.2951L25.0164 35.2335ZM23.4022 38.7049L23.4022 38.4496L14.594 38.4498L14.594 38.7051L14.594 38.9604L23.4022 38.9602L23.4022 38.7049ZM13.6608 37.9724L13.9086 37.9108L13.2277 35.1722L12.98 35.2338L12.7322 35.2954L13.413 38.034L13.6608 37.9724ZM12.4076 34.5638L12.5102 34.33C11.9499 34.0842 11.406 33.8075 10.8807 33.5021L10.7524 33.7228L10.624 33.9435C11.1659 34.2586 11.727 34.544 12.305 34.7976L12.4076 34.5638ZM9.19285 32.6975L9.04071 32.9025C9.55054 33.2809 10.0795 33.6282 10.6245 33.9437L10.7524 33.7228L10.8803 33.5019C10.3519 33.196 9.8392 32.8593 9.345 32.4925L9.19285 32.6975ZM5.63047 33.3106L5.70105 33.5559L8.40019 32.7795L8.32961 32.5341L8.25903 32.2888L5.55989 33.0652L5.63047 33.3106ZM0.128892 25.194L-0.0925117 25.3211L4.31141 32.9914L4.53282 32.8642L4.75422 32.7371L0.350297 25.0669L0.128892 25.194ZM2.31165 22.0527L2.13368 21.8696L0.11533 23.832L0.293301 24.015L0.471271 24.1981L2.48962 22.2357L2.31165 22.0527ZM2.49926 19.3529L2.24396 19.3526C2.24336 19.9834 2.27804 20.6161 2.3488 21.2477L2.60252 21.2193L2.85623 21.1909C2.78761 20.5784 2.75398 19.9649 2.75456 19.3531L2.49926 19.3529ZM2.60259 17.4865L2.34888 17.4581C2.27809 18.0897 2.24339 18.7223 2.24396 19.3531L2.49926 19.3529L2.75456 19.3526C2.75401 18.7409 2.78766 18.1274 2.8563 17.515L2.60259 17.4865ZM0.293513 14.6909L0.115543 14.8739L2.13376 16.8362L2.31173 16.6531L2.4897 16.4701L0.471483 14.5078L0.293513 14.6909ZM2.60259 17.4865L2.8563 17.515C2.89916 17.1326 2.7712 16.7438 2.4897 16.4701L2.31173 16.6531L2.13376 16.8362C2.29591 16.9938 2.37514 17.2238 2.34888 17.4581L2.60259 17.4865ZM0.128892 25.194L0.350297 25.0669C0.187573 24.7834 0.237777 24.4251 0.471271 24.1981L0.293301 24.015L0.11533 23.832C-0.2858 24.222 -0.371165 24.8358 -0.0925118 25.3211L0.128892 25.194ZM12.98 35.2338L13.2277 35.1722C13.1329 34.7908 12.862 34.4843 12.5102 34.33L12.4076 34.5638L12.305 34.7976C12.5189 34.8914 12.6773 35.0748 12.7322 35.2954L12.98 35.2338ZM14.594 38.7051L14.594 38.4498C14.2708 38.4498 13.9875 38.2285 13.9086 37.9108L13.6608 37.9724L13.413 38.034C13.5482 38.5776 14.0345 38.9604 14.594 38.9604L14.594 38.7051ZM24.3354 37.9723L24.0876 37.9107C24.0086 38.2283 23.7254 38.4496 23.4022 38.4496L23.4022 38.7049L23.4022 38.9602C23.9617 38.9602 24.448 38.5774 24.5831 38.0339L24.3354 37.9723ZM25.5887 34.5635L25.4861 34.3297C25.1343 34.4841 24.8634 34.7905 24.7686 35.1719L25.0164 35.2335L25.2641 35.2951C25.319 35.0745 25.4774 34.8911 25.6912 34.7973L25.5887 34.5635ZM29.6668 32.5337L29.7374 32.2883C29.3601 32.1798 28.9601 32.263 28.6514 32.4921L28.8036 32.6971L28.9557 32.9021C29.1436 32.7627 29.3801 32.7169 29.5962 32.779L29.6668 32.5337ZM33.4635 32.8637L33.2421 32.7366C33.0796 33.0196 32.7473 33.1541 32.4365 33.0647L32.3659 33.31L32.2953 33.5554C32.8333 33.7101 33.406 33.4766 33.6849 32.9908L33.4635 32.8637ZM37.7034 24.0142L37.5254 24.1973C37.7589 24.4243 37.8091 24.7827 37.6464 25.0661L37.8678 25.1932L38.0892 25.3203C38.3679 24.835 38.2825 24.2212 37.8814 23.8312L37.7034 24.0142ZM35.3943 21.2186L35.1406 21.1902C35.0978 21.5725 35.2257 21.9613 35.5072 22.235L35.6852 22.052L35.8632 21.8689C35.701 21.7113 35.6218 21.4813 35.648 21.247L35.3943 21.2186ZM32.3664 5.39456L32.437 5.63991C32.7479 5.55049 33.0802 5.68499 33.2427 5.96801L33.4641 5.84089L33.6855 5.71377C33.4066 5.22801 32.8338 4.99446 32.2959 5.1492L32.3664 5.39456ZM28.8041 6.0076L28.6519 6.21261C28.9606 6.44169 29.3606 6.52488 29.7379 6.41635L29.6673 6.171L29.5967 5.92565C29.3806 5.98781 29.1441 5.94202 28.9562 5.80259L28.8041 6.0076ZM25.017 3.47131L24.7692 3.5329C24.864 3.91433 25.1349 4.22077 25.4868 4.37512L25.5893 4.14133L25.6919 3.90753C25.4781 3.81373 25.3196 3.63034 25.2647 3.40972L25.017 3.47131ZM23.4029 1.92441e-10L23.4029 0.255303C23.7262 0.255296 24.0094 0.476629 24.0884 0.79427L24.3361 0.732676L24.5839 0.671082C24.4488 0.127516 23.9625 -0.255314 23.4029 -0.255303L23.4029 1.92441e-10ZM2.31165 22.0527L2.48962 22.2357C2.77112 21.962 2.89907 21.5732 2.85623 21.1909L2.60252 21.2193L2.3488 21.2477C2.37506 21.482 2.29583 21.712 2.13368 21.8696L2.31165 22.0527ZM12.4082 4.14157L12.5108 4.37536C12.8626 4.22101 13.1335 3.91459 13.2283 3.5332L12.9806 3.4716L12.7328 3.41C12.678 3.6306 12.5195 3.81398 12.3057 3.90778L12.4082 4.14157ZM5.63047 33.3106L5.55989 33.0652C5.24904 33.1546 4.91672 33.0201 4.75422 32.7371L4.53282 32.8642L4.31141 32.9914C4.59032 33.4771 5.16312 33.7107 5.70105 33.5559L5.63047 33.3106ZM8.33013 6.17143L8.25955 6.41679C8.6368 6.52529 9.03683 6.4421 9.3455 6.21303L9.19335 6.00801L9.0412 5.803C8.85331 5.94244 8.6168 5.98823 8.4007 5.92607L8.33013 6.17143ZM35.6853 16.6525L35.5073 16.4694C35.2258 16.7431 35.0978 17.132 35.1407 17.5143L35.3944 17.4858L35.6481 17.4574C35.6218 17.2231 35.7011 16.9932 35.8632 16.8355L35.6853 16.6525ZM9.19285 32.6975L9.345 32.4925C9.03633 32.2634 8.63628 32.1802 8.25903 32.2888L8.32961 32.5341L8.40019 32.7795C8.6163 32.7173 8.85282 32.7631 9.04071 32.9025L9.19285 32.6975ZM0.129114 13.5119L-0.092288 13.3848C-0.370955 13.8701 -0.285595 14.4839 0.115543 14.8739L0.293513 14.6909L0.471483 14.5078C0.237984 14.2808 0.187784 13.9224 0.350515 13.639L0.129114 13.5119ZM13.6615 0.732818L13.9093 0.794422C13.9883 0.476803 14.2715 0.255485 14.5947 0.255478L14.5947 0.000175752L14.5947 -0.255127C14.0352 -0.255116 13.5489 0.127687 13.4138 0.671215L13.6615 0.732818ZM37.868 13.5111L37.6466 13.6383C37.8093 13.9217 37.7591 14.28 37.5256 14.507L37.7036 14.6901L37.8816 14.8731C38.2827 14.4831 38.3681 13.8693 38.0894 13.384L37.868 13.5111ZM4.53338 5.84141L4.75478 5.96854C4.91728 5.68553 5.24959 5.55104 5.56042 5.64044L5.631 5.39509L5.70157 5.14973C5.16365 4.99501 4.59088 5.22855 4.31198 5.71429L4.53338 5.84141Z" transform="translate(13.0014 12.6436)" fill="url(#g21)" fill-rule="nonzero" opacity="1" /><path d="M21.9337 11.0273L21.423 11.0273C21.423 16.8382 16.739 21.5441 10.9668 21.5441L10.9668 22.0547L10.9668 22.5653C17.3083 22.5653 22.4443 17.3969 22.4443 11.0273L21.9337 11.0273ZM10.9668 22.0547L10.9668 21.5441C5.19466 21.5441 0.510605 16.8382 0.510605 11.0273L0 11.0273L-0.510605 11.0273C-0.510605 17.3969 4.62537 22.5653 10.9668 22.5653L10.9668 22.0547ZM0 11.0273L0.510605 11.0273C0.510605 5.21645 5.19466 0.510605 10.9668 0.510605L10.9668 0L10.9668 -0.510605C4.62537 -0.510605 -0.510605 4.65776 -0.510605 11.0273L0 11.0273ZM10.9668 0L10.9668 0.510605C16.739 0.510605 21.423 5.21645 21.423 11.0273L21.9337 11.0273L22.4443 11.0273C22.4443 4.65776 17.3083 -0.510605 10.9668 -0.510605L10.9668 0Z" transform="translate(21.0272 20.9942)" fill="url(#g22)" fill-rule="nonzero" opacity="0.6" /><path d="M23.0139 11.5704L22.8862 11.5704C22.8862 17.8907 17.7909 23.0132 11.5069 23.0132L11.5069 23.1408L11.5069 23.2685C17.9332 23.2685 23.1415 18.0304 23.1415 11.5704L23.0139 11.5704ZM11.5069 23.1408L11.5069 23.0132C5.22299 23.0132 0.127651 17.8907 0.127651 11.5704L0 11.5704L-0.127651 11.5704C-0.127651 18.0304 5.08067 23.2685 11.5069 23.2685L11.5069 23.1408ZM0 11.5704L0.127651 11.5704C0.127651 5.25009 5.22299 0.127651 11.5069 0.127651L11.5069 0L11.5069 -0.127651C5.08067 -0.127651 -0.127651 5.11042 -0.127651 11.5704L0 11.5704ZM11.5069 0L11.5069 0.127651C17.7909 0.127651 22.8862 5.25009 22.8862 11.5704L23.0139 11.5704L23.1415 11.5704C23.1415 5.11042 17.9332 -0.127651 11.5069 -0.127651L11.5069 0Z" transform="translate(20.4907 20.4394)" fill="url(#g23)" fill-rule="nonzero" opacity="0.6" /><path d="M21.0521 10.5841L20.9244 10.5841C20.9244 16.3597 16.2682 21.0406 10.526 21.0406L10.526 21.1682L10.526 21.2959C16.4106 21.2959 21.1797 16.4994 21.1797 10.5841L21.0521 10.5841ZM10.526 21.1682L10.526 21.0406C4.78383 21.0406 0.127651 16.3597 0.127651 10.5841L0 10.5841L-0.127651 10.5841C-0.127651 16.4994 4.6415 21.2959 10.526 21.2959L10.526 21.1682ZM0 10.5841L0.127651 10.5841C0.127651 4.8085 4.78383 0.127651 10.526 0.127651L10.526 0L10.526 -0.127651C4.6415 -0.127651 -0.127651 4.66883 -0.127651 10.5841L0 10.5841ZM10.526 0L10.526 0.127651C16.2682 0.127651 20.9244 4.8085 20.9244 10.5841L21.0521 10.5841L21.1797 10.5841C21.1797 4.66883 16.4106 -0.127651 10.526 -0.127651L10.526 0Z" transform="translate(21.4761 21.4394)" fill="url(#g24)" fill-rule="nonzero" opacity="0.6" /><path d="M3.99321 0.140847C4.3167 -0.0469491 4.71525 -0.0469491 5.03874 0.140847L8.50919 2.15557C8.83267 2.34336 9.03195 2.69042 9.03195 3.06602L9.03195 7.09545C9.03195 7.47104 8.83267 7.81811 8.50919 8.0059L5.03874 10.0206C4.71525 10.2084 4.3167 10.2084 3.99321 10.0206L0.522765 8.0059C0.199277 7.81811 0 7.47104 0 7.09545L0 3.06602C0 2.69042 0.199277 2.34336 0.522765 2.15557L3.99321 0.140847Z" transform="translate(27.4836 26.9432)" fill="url(#g25)" fill-rule="nonzero" opacity="0.8" /><path d="M3.99321 0.140847C4.3167 -0.0469491 4.71525 -0.0469491 5.03874 0.140847L8.50919 2.15557C8.83267 2.34336 9.03195 2.69042 9.03195 3.06602L9.03195 7.09545C9.03195 7.47104 8.83267 7.81811 8.50919 8.0059L5.03874 10.0206C4.71525 10.2084 4.3167 10.2084 3.99321 10.0206L0.522765 8.0059C0.199277 7.81811 0 7.47104 0 7.09545L0 3.06602C0 2.69042 0.199277 2.34336 0.522765 2.15557L3.99321 0.140847Z" transform="translate(27.4836 26.9432)" fill="url(#g26)" fill-rule="nonzero" opacity="0.8" /><path d="M0.522765 2.15557L0.13823 1.49318L0.13823 1.49318L0.522765 2.15557ZM0.522765 8.0059L0.9073 7.34352L0.9073 7.34352L0.522765 8.0059ZM5.03874 10.0206L5.42328 10.683L5.42328 10.683L5.03874 10.0206ZM3.99321 10.0206L3.60868 10.683L3.60868 10.683L3.99321 10.0206ZM8.50919 8.0059L8.12465 7.34352L8.12465 7.34352L8.50919 8.0059ZM8.50919 2.15557L8.12465 2.81795L8.12465 2.81795L8.50919 2.15557ZM5.03874 0.140847L5.42328 -0.521533L5.42328 -0.521533L5.03874 0.140847ZM3.99321 0.140847L4.37775 0.803228L3.99321 0.140847ZM5.03874 0.140847L4.65421 0.803228L8.12465 2.81795L8.50919 2.15557L8.89372 1.49318L5.42328 -0.521533L5.03874 0.140847ZM9.03195 3.06602L8.26604 3.06602L8.26604 7.09545L9.03195 7.09545L9.79786 7.09545L9.79786 3.06602L9.03195 3.06602ZM8.50919 8.0059L8.12465 7.34352L4.65421 9.35824L5.03874 10.0206L5.42328 10.683L8.89372 8.66828L8.50919 8.0059ZM3.99321 10.0206L4.37775 9.35824L0.9073 7.34352L0.522765 8.0059L0.138229 8.66828L3.60868 10.683L3.99321 10.0206ZM0 7.09545L0.765908 7.09545L0.765908 3.06602L0 3.06602L-0.765908 3.06602L-0.765908 7.09545L0 7.09545ZM0.522765 2.15557L0.9073 2.81795L4.37775 0.803228L3.99321 0.140847L3.60868 -0.521533L0.13823 1.49318L0.522765 2.15557ZM0 3.06602L0.765908 3.06602C0.765908 2.962 0.821101 2.86799 0.9073 2.81795L0.522765 2.15557L0.13823 1.49318C-0.422547 1.81874 -0.765908 2.41884 -0.765908 3.06602L0 3.06602ZM0.522765 8.0059L0.9073 7.34352C0.821101 7.29348 0.765908 7.19946 0.765908 7.09545L0 7.09545L-0.765908 7.09545C-0.765908 7.74262 -0.422547 8.34273 0.13823 8.66828L0.522765 8.0059ZM5.03874 10.0206L4.65421 9.35824C4.56849 9.408 4.46346 9.408 4.37775 9.35824L3.99321 10.0206L3.60868 10.683C4.16994 11.0088 4.86201 11.0088 5.42328 10.683L5.03874 10.0206ZM9.03195 7.09545L8.26604 7.09545C8.26604 7.19946 8.21085 7.29348 8.12465 7.34352L8.50919 8.0059L8.89372 8.66828C9.4545 8.34273 9.79786 7.74262 9.79786 7.09545L9.03195 7.09545ZM8.50919 2.15557L8.12465 2.81795C8.21085 2.86799 8.26604 2.962 8.26604 3.06602L9.03195 3.06602L9.79786 3.06602C9.79786 2.41884 9.4545 1.81874 8.89372 1.49318L8.50919 2.15557ZM5.03874 0.140847L5.42328 -0.521533C4.86201 -0.847366 4.16994 -0.847366 3.60868 -0.521533L3.99321 0.140847L4.37775 0.803228C4.46346 0.753468 4.56849 0.753468 4.65421 0.803228L5.03874 0.140847Z" transform="translate(27.4836 26.9432)" fill="url(#g27)" fill-rule="nonzero" opacity="0.8" /><path d="M0.591892 2.4406L0.463714 2.21981L0.463714 2.21981L0.591892 2.4406ZM0.591892 9.06455L0.720071 8.84376L0.720071 8.84376L0.591892 9.06455ZM5.70503 11.3457L5.83321 11.5665L5.83321 11.5665L5.70503 11.3457ZM4.52125 11.3457L4.39307 11.5665L4.39307 11.5665L4.52125 11.3457ZM9.63439 9.06455L9.50621 8.84376L9.50621 8.84376L9.63439 9.06455ZM9.63439 2.4406L9.50621 2.6614L9.50621 2.6614L9.63439 2.4406ZM5.70503 0.159472L5.83321 -0.0613213L5.83321 -0.0613213L5.70503 0.159472ZM4.52125 0.159472L4.64943 0.380265L4.52125 0.159472ZM5.70503 0.159472L5.57685 0.380265L9.50621 2.6614L9.63439 2.4406L9.76257 2.21981L5.83321 -0.0613213L5.70503 0.159472ZM10.2263 3.47145L9.97098 3.47145L9.97098 8.03371L10.2263 8.03371L10.4816 8.03371L10.4816 3.47145L10.2263 3.47145ZM9.63439 9.06455L9.50621 8.84376L5.57685 11.1249L5.70503 11.3457L5.83321 11.5665L9.76257 9.28535L9.63439 9.06455ZM4.52125 11.3457L4.64943 11.1249L0.720071 8.84376L0.591892 9.06455L0.463714 9.28535L4.39307 11.5665L4.52125 11.3457ZM0 8.03371L0.255303 8.03371L0.255303 3.47145L0 3.47145L-0.255303 3.47145L-0.255303 8.03371L0 8.03371ZM0.591892 2.4406L0.72007 2.6614L4.64943 0.380265L4.52125 0.159472L4.39307 -0.0613214L0.463714 2.21981L0.591892 2.4406ZM0 3.47145L0.255303 3.47145C0.255303 3.13671 0.432903 2.82811 0.72007 2.6614L0.591892 2.4406L0.463714 2.21981C0.0183532 2.47836 -0.255303 2.95566 -0.255303 3.47145L0 3.47145ZM0.591892 9.06455L0.720071 8.84376C0.432903 8.67705 0.255303 8.36844 0.255303 8.03371L0 8.03371L-0.255303 8.03371C-0.255303 8.5495 0.0183533 9.0268 0.463714 9.28535L0.591892 9.06455ZM5.70503 11.3457L5.57685 11.1249C5.28985 11.2915 4.93643 11.2915 4.64943 11.1249L4.52125 11.3457L4.39307 11.5665C4.83859 11.8251 5.38769 11.8251 5.83321 11.5665L5.70503 11.3457ZM10.2263 8.03371L9.97098 8.03371C9.97098 8.36844 9.79338 8.67705 9.50621 8.84376L9.63439 9.06455L9.76257 9.28535C10.2079 9.0268 10.4816 8.5495 10.4816 8.03371L10.2263 8.03371ZM9.63439 2.4406L9.50621 2.6614C9.79338 2.82811 9.97098 3.13671 9.97098 3.47145L10.2263 3.47145L10.4816 3.47145C10.4816 2.95566 10.2079 2.47836 9.76257 2.21981L9.63439 2.4406ZM5.70503 0.159472L5.83321 -0.0613213C5.38769 -0.319963 4.83859 -0.319963 4.39307 -0.0613214L4.52125 0.159472L4.64943 0.380265C4.93643 0.213648 5.28985 0.213648 5.57685 0.380266L5.70503 0.159472Z" transform="translate(26.8887 26.2717)" fill="url(#g28)" fill-rule="nonzero" opacity="0.8" /></svg>
