<?xml version="1.0" encoding="UTF-8"?>
<svg xmlns="http://www.w3.org/2000/svg" width="64" height="64" viewBox="0 0 64 64" fill="none"><defs><linearGradient id="g1" gradientUnits="objectBoundingBox" x1="0.5" y1="0" x2="0.5" y2="1"><stop offset="0%" stop-color="#00ff85" stop-opacity="1" /><stop offset="84.375%" stop-color="#00af85" stop-opacity="1" /></linearGradient></defs><path d="M14.6856 5.31304C21.7072 1.77101 25.218 -1.73068e-15 29 0C32.782 2.50948e-14 36.2928 1.77101 43.3144 5.31304L43.5 5.40667L43.6827 5.52169C50.1068 9.56732 53.3189 11.5901 55.2422 14.6719C55.4025 14.9288 55.5554 15.1902 55.7007 15.4558C57.4439 18.6426 57.6293 22.4284 58 30C57.6293 37.5716 57.4439 41.3574 55.7007 44.5442C55.5554 44.8098 55.4025 45.0712 55.2422 45.3281C53.3189 48.4099 50.1068 50.4327 43.6827 54.4783L43.5 54.5933L43.3144 54.687C36.2928 58.229 32.782 60 29 60C25.218 60 21.7072 58.229 14.6856 54.687L14.5 54.5933L14.3174 54.4783C7.89318 50.4327 4.6811 48.4099 2.7578 45.3281C2.59748 45.0712 2.44458 44.8098 2.29929 44.5442C0.556123 41.3574 0.370749 37.5716 0 30C0.370749 22.4284 0.556123 18.6426 2.29929 15.4558C2.44458 15.1902 2.59748 14.9288 2.7578 14.6719C4.6811 11.5901 7.89318 9.56732 14.3174 5.52169L14.5 5.40667L14.6856 5.31304Z" transform="translate(3 2)" fill="url(#g1)" fill-rule="nonzero" opacity="1" /><path d="M25.547 20.3136C25.047 19.9222 24.352 19.8968 23.8248 20.2507L20.1372 22.7259C19.5537 23.1175 18.7745 23.0405 18.279 22.5422L9.76557 13.9818C9.27417 13.4877 9.19809 12.7161 9.58352 12.1355L12.0616 8.4029C12.4096 7.87868 12.3846 7.19091 11.9995 6.69329L7.33359 0.66419C6.70122 -0.152937 5.49457 -0.227862 4.76597 0.504757L2.38866 2.89517C1.2116 4.07872 0.446518 5.61738 0.211105 7.27436L0.0786912 8.20642C-0.200861 10.1593 0.269955 12.1565 1.40288 13.7691L1.82957 14.3757C6.22884 20.6485 11.658 26.1225 17.9112 30.546L18.5144 30.9751C20.1182 32.1142 22.1045 32.5876 24.0466 32.3065L24.9736 32.1734C26.6214 31.9367 28.1516 31.1674 29.3287 29.9839L31.7213 27.5781C32.4445 26.8508 32.3703 25.6552 31.5627 25.023L25.547 20.3136Z" transform="translate(15.4598 16.2458)" fill="#ffffff" fill-rule="nonzero" opacity="1" /></svg>
