<?xml version="1.0" encoding="UTF-8"?>
<svg xmlns="http://www.w3.org/2000/svg" width="64" height="64" viewBox="0 0 64 64" fill="none"><path d="M2.97344 4.30475C3.35775 1.57021 5.88609 -0.335034 8.62064 0.0492822L34.0469 3.62271C36.7815 4.00703 38.6867 6.53537 38.3024 9.26992L35.3782 30.0764C34.9939 32.8109 32.4656 34.7161 29.731 34.3318L4.30476 30.7584C1.57021 30.3741 -0.335034 27.8457 0.0492822 25.1112L2.97344 4.30475Z" transform="translate(12.82 14.8066)" fill="#ffffff" fill-rule="nonzero" opacity="0.52" /><path d="M0 5C0 2.23858 2.23858 0 5 0L30 0C32.7614 0 35 2.23858 35 5L35 25C35 27.7614 32.7614 30 30 30L5 30C2.23858 30 0 27.7614 0 25L0 5Z" transform="translate(12.58 14.7089)" fill="#ffffff" fill-rule="nonzero" opacity="1" /><path d="M8 4C8 6.20914 6.20914 8 4 8C1.79086 8 0 6.20914 0 4C0 1.79086 1.79086 0 4 0C6.20914 0 8 1.79086 8 4Z" transform="translate(29.9664 20.0624)" fill="#99a2af" fill-rule="nonzero" opacity="1" /><path d="M6.5564 12.3346L7.24652 12.3346C9.17951 12.3346 10.7465 10.7676 10.7465 8.83459L10.7465 3.85458L8.79019 1.57176C6.99423 -0.52392 3.75228 -0.523921 1.95633 1.57176L0 3.85458L6.5564 12.3346Z" transform="translate(36.7764 30.4631)" fill="#99a2af" fill-rule="nonzero" opacity="1" /><path d="M5.7887 1.62292C7.67861 -0.540972 11.3123 -0.540974 13.2022 1.62292L24.243 15.9586L3.5 15.9586C1.567 15.9586 0 14.3916 0 12.4586L0 9.13911L5.7887 1.62292Z" transform="translate(16.2306 27.8108)" fill="#99a2af" fill-rule="nonzero" opacity="1" /></svg>
