<?xml version="1.0" encoding="UTF-8"?>
<svg xmlns="http://www.w3.org/2000/svg" width="64" height="64" viewBox="0 0 64 64" fill="none"><defs><linearGradient id="g1" gradientUnits="objectBoundingBox" x1="0.5" y1="0" x2="0.5" y2="1"><stop offset="0%" stop-color="#8b8bff" stop-opacity="1" /><stop offset="84.375%" stop-color="#6f3dff" stop-opacity="1" /></linearGradient><radialGradient id="g2" gradientUnits="objectBoundingBox" cx="0.9724" cy="0.5" r="0.677" fx="0.9724" fy="0.5"><stop offset="0%" stop-color="#d1bcff" stop-opacity="0.3" /><stop offset="100%" stop-color="#ababff" stop-opacity="0" /></radialGradient><linearGradient id="g3" gradientUnits="objectBoundingBox" x1="0.1226" y1="-0.0253" x2="1.1614" y2="1.1829"><stop offset="0%" stop-color="#ffffff" stop-opacity="0.67" /><stop offset="100%" stop-color="#ffffff" stop-opacity="0" /></linearGradient><linearGradient id="g4" gradientUnits="objectBoundingBox" x1="0.1226" y1="-0.0253" x2="1.1614" y2="1.1829"><stop offset="0%" stop-color="#ffffff" stop-opacity="0.67" /><stop offset="100%" stop-color="#ffffff" stop-opacity="0" /></linearGradient><linearGradient id="g5" gradientUnits="objectBoundingBox" x1="0.0482" y1="1.222" x2="0.5211" y2="-0.1529"><stop offset="0%" stop-color="#ffffff" stop-opacity="0.67" /><stop offset="100%" stop-color="#ffffff" stop-opacity="0" /></linearGradient><linearGradient id="g6" gradientUnits="objectBoundingBox" x1="0.6607" y1="-0.171" x2="0.2021" y2="1.058"><stop offset="0%" stop-color="#ffffff" stop-opacity="0.67" /><stop offset="96.3303%" stop-color="#ffffff" stop-opacity="0" /></linearGradient></defs><path d="M14.6856 5.31304C21.7072 1.77101 25.218 -1.73068e-15 29 0C32.782 2.50948e-14 36.2928 1.77101 43.3144 5.31304L43.5 5.40667L43.6826 5.52169C50.1068 9.56732 53.3189 11.5901 55.2422 14.6719C55.4025 14.9288 55.5554 15.1902 55.7007 15.4558C57.4439 18.6426 57.6292 22.4284 58 30C57.6292 37.5716 57.4439 41.3574 55.7007 44.5442C55.5554 44.8098 55.4025 45.0712 55.2422 45.3281C53.3189 48.4099 50.1068 50.4327 43.6826 54.4783L43.5 54.5933L43.3144 54.687C36.2928 58.229 32.782 60 29 60C25.218 60 21.7072 58.229 14.6856 54.687L14.5 54.5933L14.3174 54.4783C7.89318 50.4327 4.6811 48.4099 2.7578 45.3281C2.59748 45.0712 2.44458 44.8098 2.29929 44.5442C0.556123 41.3574 0.370749 37.5716 0 30C0.370749 22.4284 0.556123 18.6426 2.29929 15.4558C2.44458 15.1902 2.59748 14.9288 2.7578 14.6719C4.6811 11.5901 7.89318 9.56732 14.3174 5.52169L14.5 5.40667L14.6856 5.31304Z" transform="translate(3 2)" fill="url(#g1)" fill-rule="nonzero" opacity="1" /><path d="M14.6856 5.31304C21.7072 1.77101 25.218 -1.73068e-15 29 0C32.782 2.50948e-14 36.2928 1.77101 43.3144 5.31304L43.5 5.40667L43.6826 5.52169C50.1068 9.56732 53.3189 11.5901 55.2422 14.6719C55.4025 14.9288 55.5554 15.1902 55.7007 15.4558C57.4439 18.6426 57.6292 22.4284 58 30C57.6292 37.5716 57.4439 41.3574 55.7007 44.5442C55.5554 44.8098 55.4025 45.0712 55.2422 45.3281C53.3189 48.4099 50.1068 50.4327 43.6826 54.4783L43.5 54.5933L43.3144 54.687C36.2928 58.229 32.782 60 29 60C25.218 60 21.7072 58.229 14.6856 54.687L14.5 54.5933L14.3174 54.4783C7.89318 50.4327 4.6811 48.4099 2.7578 45.3281C2.59748 45.0712 2.44458 44.8098 2.29929 44.5442C0.556123 41.3574 0.370749 37.5716 0 30C0.370749 22.4284 0.556123 18.6426 2.29929 15.4558C2.44458 15.1902 2.59748 14.9288 2.7578 14.6719C4.6811 11.5901 7.89318 9.56732 14.3174 5.52169L14.5 5.40667L14.6856 5.31304Z" transform="translate(3 2)" fill="url(#g2)" fill-rule="nonzero" opacity="1" /><path d="M20.6578 16.6061C17.6011 21.9005 10.8311 23.7146 5.5366 20.6578C0.242138 17.6011 -1.57188 10.8311 1.48488 5.5366C4.54164 0.242138 11.3116 -1.57188 16.6061 1.48488C21.9006 4.54164 23.7146 11.3116 20.6578 16.6061Z" transform="translate(20.9287 20.9286)" fill="url(#g3)" fill-rule="nonzero" opacity="1" /><path d="M20.6578 16.6061C17.6011 21.9005 10.8311 23.7146 5.5366 20.6578C0.242138 17.6011 -1.57188 10.8311 1.48488 5.5366C4.54164 0.242138 11.3116 -1.57188 16.6061 1.48488C21.9006 4.54164 23.7146 11.3116 20.6578 16.6061Z" transform="translate(20.9287 20.9286)" fill="url(#g4)" fill-rule="nonzero" opacity="1" /><path d="M28.7983 2.57509C19.6166 -2.72595 7.87611 0.419901 2.57507 9.60157C-2.72595 18.7832 0.419929 30.5237 9.60159 35.8248L28.7983 2.57509Z" transform="translate(12.8 12.8001)" fill="url(#g5)" fill-rule="nonzero" opacity="1" /><path d="M19.1967 0C28.3784 5.30104 31.5243 17.0416 26.2232 26.2232C20.9222 35.4049 9.18167 38.5507 0 33.2497L19.1967 0Z" transform="translate(22.4019 15.3751)" fill="url(#g6)" fill-rule="nonzero" opacity="1" /></svg>
