<?xml version="1.0" encoding="UTF-8"?>
<svg xmlns="http://www.w3.org/2000/svg" width="64" height="64" viewBox="0 0 64 64" fill="none"><defs><linearGradient id="g1" gradientUnits="objectBoundingBox" x1="0.5" y1="0" x2="0.5" y2="1"><stop offset="0%" stop-color="#a0a6ba" stop-opacity="1" /><stop offset="100%" stop-color="#5c6274" stop-opacity="1" /></linearGradient><linearGradient id="g2" gradientUnits="objectBoundingBox" x1="0.5" y1="0" x2="0.5" y2="1"><stop offset="0%" stop-color="#ffffff" stop-opacity="1" /><stop offset="100%" stop-color="#e2e4f3" stop-opacity="0.5" /></linearGradient><linearGradient id="g3" gradientUnits="objectBoundingBox" x1="0.5" y1="0" x2="0.5" y2="1"><stop offset="0%" stop-color="#dfe2ed" stop-opacity="0.8" /><stop offset="100%" stop-color="#b5bcdb" stop-opacity="0.5" /></linearGradient><radialGradient id="g4" gradientUnits="objectBoundingBox" cx="0.3458" cy="0.203" r="0.4986" fx="0.3458" fy="0.203"><stop offset="0%" stop-color="#ffffff" stop-opacity="0.8" /><stop offset="100%" stop-color="#ffffff" stop-opacity="0" /></radialGradient><radialGradient id="g5" gradientUnits="objectBoundingBox" cx="0.5" cy="0" r="0.4721" fx="0.5" fy="0"><stop offset="0%" stop-color="#ffffff" stop-opacity="0.8" /><stop offset="100%" stop-color="#ffffff" stop-opacity="0" /></radialGradient><linearGradient id="g6" gradientUnits="objectBoundingBox" x1="0.385" y1="0" x2="0.5324" y2="1"><stop offset="0%" stop-color="#e4e8f3" stop-opacity="1" /><stop offset="23.4375%" stop-color="#8c94aa" stop-opacity="1" /><stop offset="89.0625%" stop-color="#bfc3d0" stop-opacity="1" /><stop offset="100%" stop-color="#a5adc5" stop-opacity="1" /></linearGradient><linearGradient id="g9" gradientUnits="objectBoundingBox" x1="0.1023" y1="0.5846" x2="0.9218" y2="0.5846"><stop offset="30.5085%" stop-color="#ffffff" stop-opacity="0" /><stop offset="49.7175%" stop-color="#ffffff" stop-opacity="1" /><stop offset="63.5593%" stop-color="#ffffff" stop-opacity="0" /></linearGradient><linearGradient id="g12" gradientUnits="objectBoundingBox" x1="-0.4151" y1="1" x2="1.3627" y2="-0.0721"><stop offset="0%" stop-color="#dce0f0" stop-opacity="0" /><stop offset="46.8169%" stop-color="#a9b1ca" stop-opacity="1" /><stop offset="100%" stop-color="#ecf0ff" stop-opacity="0" /></linearGradient><radialGradient id="g13" gradientUnits="objectBoundingBox" cx="0.5242" cy="0.4136" r="0.5869" fx="0.5242" fy="0.4136"><stop offset="0%" stop-color="#ffffff" stop-opacity="1" /><stop offset="100%" stop-color="#ffffff" stop-opacity="0" /></radialGradient><linearGradient id="g18" gradientUnits="objectBoundingBox" x1="0.5" y1="0" x2="0.5" y2="1"><stop offset="0%" stop-color="#ffffff" stop-opacity="1" /><stop offset="50%" stop-color="#bbbfcd" stop-opacity="1" /><stop offset="100%" stop-color="#d0d7f0" stop-opacity="1" /></linearGradient><linearGradient id="g19" gradientUnits="objectBoundingBox" x1="0.5" y1="0" x2="0.4931" y2="1.0663"><stop offset="0%" stop-color="#aeb4c5" stop-opacity="1" /><stop offset="60.4167%" stop-color="#757b8c" stop-opacity="1" /><stop offset="100%" stop-color="#9296a9" stop-opacity="1" /></linearGradient><linearGradient id="g20" gradientUnits="objectBoundingBox" x1="0.1984" y1="0.1167" x2="0.6436" y2="0.9636"><stop offset="0%" stop-color="#ffffff" stop-opacity="1" /><stop offset="60.4167%" stop-color="#d9dce5" stop-opacity="1" /><stop offset="100%" stop-color="#ffffff" stop-opacity="1" /></linearGradient><linearGradient id="g21" gradientUnits="objectBoundingBox" x1="0.1984" y1="0.1167" x2="0.6436" y2="0.9636"><stop offset="0%" stop-color="#bfc4da" stop-opacity="1" /><stop offset="60.4167%" stop-color="#949cba" stop-opacity="1" /><stop offset="100%" stop-color="#ccd2eb" stop-opacity="1" /></linearGradient><linearGradient id="g22" gradientUnits="objectBoundingBox" x1="0.5" y1="0" x2="0.5" y2="1"><stop offset="0%" stop-color="#818a9c" stop-opacity="1" /><stop offset="100%" stop-color="#9c9eaf" stop-opacity="1" /></linearGradient><linearGradient id="g23" gradientUnits="objectBoundingBox" x1="0" y1="0.5685" x2="1" y2="0.5685"><stop offset="0%" stop-color="#e2e2e2" stop-opacity="0" /><stop offset="49.8764%" stop-color="#dcdcdc" stop-opacity="0.4" /><stop offset="100%" stop-color="#e7e7e7" stop-opacity="0" /></linearGradient><linearGradient id="g24" gradientUnits="objectBoundingBox" x1="0.5" y1="0" x2="0.5511" y2="1.074"><stop offset="0%" stop-color="#c3c6cf" stop-opacity="1" /><stop offset="100%" stop-color="#eaedf8" stop-opacity="1" /></linearGradient><linearGradient id="g25" gradientUnits="objectBoundingBox" x1="0.5" y1="0" x2="0.5511" y2="1.074"><stop offset="0%" stop-color="#f2f4fc" stop-opacity="1" /><stop offset="100%" stop-color="#f0f3ff" stop-opacity="1" /></linearGradient></defs><path d="M14.6856 5.31304C21.7072 1.77101 25.218 -1.73068e-15 29 0C32.782 2.50948e-14 36.2928 1.77101 43.3144 5.31304L43.5 5.40667L43.6826 5.52169C50.1068 9.56732 53.3189 11.5901 55.2422 14.6719C55.4025 14.9288 55.5554 15.1902 55.7007 15.4558C57.4439 18.6426 57.6292 22.4284 58 30C57.6292 37.5716 57.4439 41.3574 55.7007 44.5442C55.5554 44.8098 55.4025 45.0712 55.2422 45.3281C53.3189 48.4099 50.1068 50.4327 43.6826 54.4783L43.5 54.5933L43.3144 54.687C36.2928 58.229 32.782 60 29 60C25.218 60 21.7072 58.229 14.6856 54.687L14.5 54.5933L14.3174 54.4783C7.89318 50.4327 4.6811 48.4099 2.75779 45.3281C2.59748 45.0712 2.44458 44.8098 2.29929 44.5442C0.556123 41.3574 0.370749 37.5716 0 30C0.370749 22.4284 0.556123 18.6426 2.29929 15.4558C2.44458 15.1902 2.59748 14.9288 2.7578 14.6719C4.6811 11.5901 7.89318 9.56732 14.3174 5.52169L14.5 5.40667L14.6856 5.31304Z" transform="translate(3 2)" fill="url(#g1)" fill-rule="nonzero" opacity="1" /><path d="M14.5214 1.19059C15.7896 0.454396 17.355 0.454397 18.6231 1.19059L28.8903 7.15106C30.1494 7.88201 30.9243 9.22786 30.9243 10.6838L30.9243 22.6437C30.9243 24.0996 30.1494 25.4454 28.8903 26.1764L18.6231 32.1369C17.355 32.8731 15.7896 32.8731 14.5214 32.1369L4.25425 26.1764C2.99515 25.4454 2.22027 24.0996 2.22027 22.6437L2.22027 10.6838C2.22027 9.22786 2.99515 7.88201 4.25425 7.15106L14.5214 1.19059Z" transform="translate(15.4268 15.3517)" fill="url(#g2)" fill-rule="nonzero" opacity="1" /><path d="M0.285878 14.3087C-0.0231861 14.0082 -0.0892034 13.5348 0.125755 13.1604L4.41545 5.68946C4.63041 5.31509 5.07118 5.13586 5.48452 5.25475L8.11344 6.0109C8.4024 6.09401 8.71239 6.0312 8.9542 5.85173C9.44192 5.48977 9.94787 5.1574 10.4692 4.85539C10.9901 4.55226 11.5296 4.2777 12.0855 4.03384C12.3609 3.91299 12.57 3.67446 12.6429 3.38129L13.3062 0.713756C13.4104 0.294383 13.7852 0.000179757 14.2151 0.000171181L22.7941 1.87435e-10C23.224 -8.57491e-06 23.5988 0.294215 23.7031 0.713617L24.3662 3.38101C24.4391 3.67421 24.6482 3.91275 24.9237 4.0336C25.4808 4.27801 26.0215 4.55325 26.5436 4.85721C27.0636 5.15862 27.5682 5.49025 28.0548 5.85133C28.2966 6.03079 28.6066 6.0936 28.8956 6.01048L31.5245 5.25423C31.9379 5.13533 32.3786 5.31456 32.5936 5.68895L36.883 13.1597C37.0979 13.5341 37.0319 14.0075 36.7228 14.308L34.757 16.2193C34.5409 16.4294 34.44 16.7307 34.4737 17.031C34.5416 17.6369 34.5748 18.2438 34.5743 18.849C34.5748 19.454 34.5415 20.0609 34.4736 20.6666C34.44 20.967 34.5408 21.2683 34.7569 21.4784L36.7226 23.3896C37.0317 23.6901 37.0977 24.1635 36.8828 24.5379L32.593 32.0088C32.3781 32.3832 31.9373 32.5624 31.524 32.4436L28.8951 31.6874C28.6061 31.6043 28.2961 31.6671 28.0543 31.8466C27.5681 32.2074 27.0638 32.5388 26.5443 32.8401C26.0218 33.1443 25.4806 33.4198 24.923 33.6645C24.6476 33.7853 24.4385 34.0238 24.3656 34.317L23.7024 36.9846C23.5981 37.4039 23.2233 37.6981 22.7934 37.6981L14.2144 37.6983C13.7845 37.6983 13.4097 37.4041 13.3054 36.9847L12.6423 34.3173C12.5694 34.0241 12.3603 33.7856 12.0848 33.6647C11.5305 33.4215 10.9924 33.1478 10.4727 32.8456C9.94996 32.543 9.44268 32.2099 8.95372 31.847C8.7119 31.6675 8.4019 31.6047 8.11293 31.6878L5.48401 32.4441C5.07065 32.563 4.62987 32.3838 4.41491 32.0094L0.12554 24.5386C-0.0894078 24.1643 -0.0233872 23.6908 0.285671 23.3903L2.25152 21.479C2.46757 21.2689 2.56847 20.9676 2.53482 20.6673C2.46694 20.0615 2.43367 19.4546 2.43425 18.8495C2.4337 18.2444 2.46699 17.6375 2.53489 17.0317C2.56855 16.7313 2.46765 16.43 2.25159 16.2199L0.285878 14.3087Z" transform="translate(13.4961 13.1509)" fill="url(#g3)" fill-rule="nonzero" opacity="1" /><path d="M0.285878 14.3087C-0.0231861 14.0082 -0.0892034 13.5348 0.125755 13.1604L4.41545 5.68946C4.63041 5.31509 5.07118 5.13586 5.48452 5.25475L8.11344 6.0109C8.4024 6.09401 8.71239 6.0312 8.9542 5.85173C9.44192 5.48977 9.94787 5.1574 10.4692 4.85539C10.9901 4.55226 11.5296 4.2777 12.0855 4.03384C12.3609 3.91299 12.57 3.67446 12.6429 3.38129L13.3062 0.713756C13.4104 0.294383 13.7852 0.000179757 14.2151 0.000171181L22.7941 1.87435e-10C23.224 -8.57491e-06 23.5988 0.294215 23.7031 0.713617L24.3662 3.38101C24.4391 3.67421 24.6482 3.91275 24.9237 4.0336C25.4808 4.27801 26.0215 4.55325 26.5436 4.85721C27.0636 5.15862 27.5682 5.49025 28.0548 5.85133C28.2966 6.03079 28.6066 6.0936 28.8956 6.01048L31.5245 5.25423C31.9379 5.13533 32.3786 5.31456 32.5936 5.68895L36.883 13.1597C37.0979 13.5341 37.0319 14.0075 36.7228 14.308L34.757 16.2193C34.5409 16.4294 34.44 16.7307 34.4737 17.031C34.5416 17.6369 34.5748 18.2438 34.5743 18.849C34.5748 19.454 34.5415 20.0609 34.4736 20.6666C34.44 20.967 34.5408 21.2683 34.7569 21.4784L36.7226 23.3896C37.0317 23.6901 37.0977 24.1635 36.8828 24.5379L32.593 32.0088C32.3781 32.3832 31.9373 32.5624 31.524 32.4436L28.8951 31.6874C28.6061 31.6043 28.2961 31.6671 28.0543 31.8466C27.5681 32.2074 27.0638 32.5388 26.5443 32.8401C26.0218 33.1443 25.4806 33.4198 24.923 33.6645C24.6476 33.7853 24.4385 34.0238 24.3656 34.317L23.7024 36.9846C23.5981 37.4039 23.2233 37.6981 22.7934 37.6981L14.2144 37.6983C13.7845 37.6983 13.4097 37.4041 13.3054 36.9847L12.6423 34.3173C12.5694 34.0241 12.3603 33.7856 12.0848 33.6647C11.5305 33.4215 10.9924 33.1478 10.4727 32.8456C9.94996 32.543 9.44268 32.2099 8.95372 31.847C8.7119 31.6675 8.4019 31.6047 8.11293 31.6878L5.48401 32.4441C5.07065 32.563 4.62987 32.3838 4.41491 32.0094L0.12554 24.5386C-0.0894078 24.1643 -0.0233872 23.6908 0.285671 23.3903L2.25152 21.479C2.46757 21.2689 2.56847 20.9676 2.53482 20.6673C2.46694 20.0615 2.43367 19.4546 2.43425 18.8495C2.4337 18.2444 2.46699 17.6375 2.53489 17.0317C2.56855 16.7313 2.46765 16.43 2.25159 16.2199L0.285878 14.3087Z" transform="translate(13.4961 13.1509)" fill="url(#g4)" fill-rule="nonzero" opacity="1" /><path d="M0.285878 14.3087C-0.0231861 14.0082 -0.0892034 13.5348 0.125755 13.1604L4.41545 5.68946C4.63041 5.31509 5.07118 5.13586 5.48452 5.25475L8.11344 6.0109C8.4024 6.09401 8.71239 6.0312 8.9542 5.85173C9.44192 5.48977 9.94787 5.1574 10.4692 4.85539C10.9901 4.55226 11.5296 4.2777 12.0855 4.03384C12.3609 3.91299 12.57 3.67446 12.6429 3.38129L13.3062 0.713756C13.4104 0.294383 13.7852 0.000179757 14.2151 0.000171181L22.7941 1.87435e-10C23.224 -8.57491e-06 23.5988 0.294215 23.7031 0.713617L24.3662 3.38101C24.4391 3.67421 24.6482 3.91275 24.9237 4.0336C25.4808 4.27801 26.0215 4.55325 26.5436 4.85721C27.0636 5.15862 27.5682 5.49025 28.0548 5.85133C28.2966 6.03079 28.6066 6.0936 28.8956 6.01048L31.5245 5.25423C31.9379 5.13533 32.3786 5.31456 32.5936 5.68895L36.883 13.1597C37.0979 13.5341 37.0319 14.0075 36.7228 14.308L34.757 16.2193C34.5409 16.4294 34.44 16.7307 34.4737 17.031C34.5416 17.6369 34.5748 18.2438 34.5743 18.849C34.5748 19.454 34.5415 20.0609 34.4736 20.6666C34.44 20.967 34.5408 21.2683 34.7569 21.4784L36.7226 23.3896C37.0317 23.6901 37.0977 24.1635 36.8828 24.5379L32.593 32.0088C32.3781 32.3832 31.9373 32.5624 31.524 32.4436L28.8951 31.6874C28.6061 31.6043 28.2961 31.6671 28.0543 31.8466C27.5681 32.2074 27.0638 32.5388 26.5443 32.8401C26.0218 33.1443 25.4806 33.4198 24.923 33.6645C24.6476 33.7853 24.4385 34.0238 24.3656 34.317L23.7024 36.9846C23.5981 37.4039 23.2233 37.6981 22.7934 37.6981L14.2144 37.6983C13.7845 37.6983 13.4097 37.4041 13.3054 36.9847L12.6423 34.3173C12.5694 34.0241 12.3603 33.7856 12.0848 33.6647C11.5305 33.4215 10.9924 33.1478 10.4727 32.8456C9.94996 32.543 9.44268 32.2099 8.95372 31.847C8.7119 31.6675 8.4019 31.6047 8.11293 31.6878L5.48401 32.4441C5.07065 32.563 4.62987 32.3838 4.41491 32.0094L0.12554 24.5386C-0.0894078 24.1643 -0.0233872 23.6908 0.285671 23.3903L2.25152 21.479C2.46757 21.2689 2.56847 20.9676 2.53482 20.6673C2.46694 20.0615 2.43367 19.4546 2.43425 18.8495C2.4337 18.2444 2.46699 17.6375 2.53489 17.0317C2.56855 16.7313 2.46765 16.43 2.25159 16.2199L0.285878 14.3087Z" transform="translate(13.4961 13.1509)" fill="url(#g5)" fill-rule="nonzero" opacity="1" /><path d="M10.4692 4.85539L10.6531 5.1728L10.6536 5.17246L10.4692 4.85539ZM26.5436 4.85721L26.359 5.17423L26.3596 5.17457L26.5436 4.85721ZM34.5743 18.849L34.2074 18.8486L34.2074 18.8493L34.5743 18.849ZM26.5443 32.8401L26.3602 32.5227L26.3597 32.5231L26.5443 32.8401ZM10.4727 32.8456L10.6571 32.5285L10.6565 32.5281L10.4727 32.8456ZM2.43425 18.8495L2.80108 18.8498L2.80108 18.8491L2.43425 18.8495ZM2.53489 17.0317L2.89944 17.0725L2.89944 17.0725L2.53489 17.0317ZM2.25159 16.2199L1.99587 16.4829L1.99587 16.4829L2.25159 16.2199ZM0.12554 24.5386L-0.192585 24.7213L0.12554 24.5386ZM0.285671 23.3903L0.0299544 23.1273L0.0299543 23.1273L0.285671 23.3903ZM12.6423 34.3173L12.9983 34.2288L12.9983 34.2288L12.6423 34.3173ZM12.0848 33.6647L12.2322 33.3288L12.0848 33.6647ZM14.2144 37.6983L14.2144 38.0651L14.2144 38.0651L14.2144 37.6983ZM13.3054 36.9847L12.9494 37.0732L12.9494 37.0732L13.3054 36.9847ZM23.7024 36.9846L24.0583 37.0731L24.0583 37.0731L23.7024 36.9846ZM22.7934 37.6981L22.7934 37.3313L22.7934 37.3313L22.7934 37.6981ZM24.923 33.6645L25.0704 34.0004L24.923 33.6645ZM24.3656 34.317L24.0096 34.2285L24.0096 34.2285L24.3656 34.317ZM28.8951 31.6874L28.9965 31.3349L28.9965 31.3349L28.8951 31.6874ZM28.0543 31.8466L27.8357 31.552L27.8357 31.552L28.0543 31.8466ZM32.593 32.0088L32.2749 31.8262L32.2749 31.8262L32.593 32.0088ZM31.524 32.4436L31.4226 32.7961L31.4226 32.7961L31.524 32.4436ZM36.7226 23.3896L36.9783 23.1266L36.9783 23.1266L36.7226 23.3896ZM36.8828 24.5379L37.2009 24.7205L37.2009 24.7205L36.8828 24.5379ZM34.4736 20.6666L34.1091 20.6258L34.1091 20.6258L34.4736 20.6666ZM34.7569 21.4784L34.5012 21.7414L34.5012 21.7414L34.7569 21.4784ZM31.5245 5.25423L31.6259 5.60677L31.6259 5.60677L31.5245 5.25423ZM32.5936 5.68895L32.9117 5.5063L32.9117 5.5063L32.5936 5.68895ZM28.0548 5.85133L27.8362 6.1459L27.8362 6.1459L28.0548 5.85133ZM28.8956 6.01048L28.7942 5.65794L28.7942 5.65794L28.8956 6.01048ZM24.3662 3.38101L24.0102 3.46952L24.0102 3.46952L24.3662 3.38101ZM24.9237 4.0336L24.7763 4.36953L24.7763 4.36953L24.9237 4.0336ZM22.7941 1.87435e-10L22.7941 -0.366832L22.7941 1.87435e-10ZM23.7031 0.713617L24.0591 0.625116L24.0591 0.625116L23.7031 0.713617ZM2.25152 21.479L2.50723 21.742L2.50723 21.742L2.25152 21.479ZM2.53482 20.6673L2.89937 20.6265L2.89937 20.6265L2.53482 20.6673ZM12.0855 4.03384L12.2328 4.36976L12.2328 4.36976L12.0855 4.03384ZM12.6429 3.38129L12.2869 3.29278L12.2869 3.29278L12.6429 3.38129ZM5.48401 32.4441L5.3826 32.0915L5.3826 32.0915L5.48401 32.4441ZM4.41491 32.0094L4.73303 31.8267L4.41491 32.0094ZM8.11344 6.0109L8.21484 5.65836L8.21484 5.65836L8.11344 6.0109ZM8.9542 5.85173L8.73559 5.55716L8.73559 5.55716L8.9542 5.85173ZM34.757 16.2193L34.5013 15.9563L34.5013 15.9563L34.757 16.2193ZM34.4737 17.031L34.8382 16.9901L34.8382 16.9901L34.4737 17.031ZM8.95372 31.847L9.17234 31.5524L9.17234 31.5524L8.95372 31.847ZM8.11293 31.6878L8.21434 32.0404L8.21434 32.0404L8.11293 31.6878ZM0.125755 13.1604L0.443876 13.3431L0.443876 13.3431L0.125755 13.1604ZM0.285878 14.3087L0.541595 14.0457L0.541595 14.0457L0.285878 14.3087ZM13.3062 0.713756L13.6622 0.802271L13.6622 0.802271L13.3062 0.713756ZM14.2151 0.000171181L14.2151 0.367003L14.2151 0.000171181ZM36.883 13.1597L36.5648 13.3423L36.5648 13.3423L36.883 13.1597ZM36.7228 14.308L36.9786 14.571L36.9786 14.571L36.7228 14.308ZM4.41545 5.68946L4.73357 5.87212L4.73357 5.87212L4.41545 5.68946ZM5.48452 5.25475L5.38312 5.60729L5.38312 5.60729L5.48452 5.25475ZM4.41545 5.68946L4.09733 5.5068L-0.192366 12.9778L0.125755 13.1604L0.443876 13.3431L4.73357 5.87212L4.41545 5.68946ZM8.11344 6.0109L8.21484 5.65836L5.58592 4.90221L5.48452 5.25475L5.38312 5.60729L8.01204 6.36344L8.11344 6.0109ZM10.4692 4.85539L10.2853 4.53798C9.75205 4.8469 9.2345 5.18689 8.73559 5.55716L8.9542 5.85173L9.17282 6.1463C9.64934 5.79265 10.1437 5.4679 10.6531 5.1728L10.4692 4.85539ZM10.4692 4.85539L10.6536 5.17246C11.1627 4.87626 11.6898 4.60801 12.2328 4.36976L12.0855 4.03384L11.9381 3.69791C11.3694 3.94739 10.8176 4.22826 10.2847 4.53833L10.4692 4.85539ZM12.6429 3.38129L12.9989 3.46981L13.6622 0.802271L13.3062 0.713756L12.9502 0.625242L12.2869 3.29278L12.6429 3.38129ZM14.2151 0.000171181L14.2151 0.367003L22.7941 0.366832L22.7941 1.87435e-10L22.7941 -0.366832L14.2151 -0.36666L14.2151 0.000171181ZM23.7031 0.713617L23.3471 0.802119L24.0102 3.46952L24.3662 3.38101L24.7222 3.29251L24.0591 0.625116L23.7031 0.713617ZM24.9237 4.0336L24.7763 4.36953C25.3206 4.60831 25.8489 4.87723 26.359 5.17423L26.5436 4.85721L26.7282 4.54019C26.1941 4.22927 25.641 3.9477 25.071 3.69767L24.9237 4.0336ZM28.0548 5.85133L28.2734 5.55675C27.7757 5.18739 27.2594 4.84815 26.7276 4.53984L26.5436 4.85721L26.3596 5.17457C26.8677 5.46909 27.3608 5.79312 27.8362 6.1459L28.0548 5.85133ZM31.5245 5.25423L31.4231 4.9017L28.7942 5.65794L28.8956 6.01048L28.997 6.36301L31.6259 5.60677L31.5245 5.25423ZM36.883 13.1597L37.2011 12.977L32.9117 5.5063L32.5936 5.68895L32.2755 5.87161L36.5648 13.3423L36.883 13.1597ZM34.757 16.2193L35.0127 16.4823L36.9786 14.571L36.7228 14.308L36.4671 14.045L34.5013 15.9563L34.757 16.2193ZM34.5743 18.849L34.9411 18.8493C34.9417 18.2305 34.9077 17.6098 34.8382 16.9901L34.4737 17.031L34.1091 17.0718C34.1755 17.664 34.208 18.2572 34.2074 18.8486L34.5743 18.849ZM34.4736 20.6666L34.8382 20.7075C34.9076 20.088 34.9416 19.4674 34.9411 18.8486L34.5743 18.849L34.2074 18.8493C34.208 19.4407 34.1754 20.0338 34.1091 20.6258L34.4736 20.6666ZM36.7226 23.3896L36.9783 23.1266L35.0126 21.2154L34.7569 21.4784L34.5012 21.7414L36.4669 23.6526L36.7226 23.3896ZM32.593 32.0088L32.9112 32.1915L37.2009 24.7205L36.8828 24.5379L36.5646 24.3552L32.2749 31.8262L32.593 32.0088ZM28.8951 31.6874L28.7937 32.0399L31.4226 32.7961L31.524 32.4436L31.6254 32.091L28.9965 31.3349L28.8951 31.6874ZM26.5443 32.8401L26.7283 33.1574C27.2597 32.8493 27.7756 32.5102 28.2729 32.1411L28.0543 31.8466L27.8357 31.552C27.3607 31.9045 26.8679 32.2284 26.3602 32.5227L26.5443 32.8401ZM26.5443 32.8401L26.3597 32.5231C25.8491 32.8204 25.3204 33.0895 24.7757 33.3285L24.923 33.6645L25.0704 34.0004C25.6409 33.7501 26.1944 33.4683 26.7288 33.1571L26.5443 32.8401ZM24.3656 34.317L24.0096 34.2285L23.3464 36.896L23.7024 36.9846L24.0583 37.0731L24.7216 34.4055L24.3656 34.317ZM22.7934 37.6981L22.7934 37.3313L14.2144 37.3315L14.2144 37.6983L14.2144 38.0651L22.7934 38.065L22.7934 37.6981ZM13.3054 36.9847L13.6614 36.8962L12.9983 34.2288L12.6423 34.3173L12.2863 34.4058L12.9494 37.0732L13.3054 36.9847ZM12.0848 33.6647L12.2322 33.3288C11.6906 33.0912 11.1649 32.8237 10.6571 32.5285L10.4727 32.8456L10.2883 33.1627C10.8199 33.4718 11.3703 33.7518 11.9375 34.0006L12.0848 33.6647ZM8.95372 31.847L8.73511 32.1416C9.23529 32.5128 9.75421 32.8535 10.2889 33.1631L10.4727 32.8456L10.6565 32.5281C10.1457 32.2324 9.65006 31.9069 9.17234 31.5524L8.95372 31.847ZM5.48401 32.4441L5.58542 32.7966L8.21434 32.0404L8.11293 31.6878L8.01152 31.3353L5.3826 32.0915L5.48401 32.4441ZM0.12554 24.5386L-0.192585 24.7213L4.09678 32.192L4.41491 32.0094L4.73303 31.8267L0.443664 24.356L0.12554 24.5386ZM2.25152 21.479L1.9958 21.216L0.0299544 23.1273L0.285671 23.3903L0.541388 23.6534L2.50723 21.742L2.25152 21.479ZM2.43425 18.8495L2.06742 18.8491C2.06683 19.4679 2.10085 20.0886 2.17027 20.7082L2.53482 20.6673L2.89937 20.6265C2.83303 20.0344 2.80052 19.4412 2.80108 18.8498L2.43425 18.8495ZM2.53489 17.0317L2.17034 16.9908C2.1009 17.6104 2.06685 18.231 2.06742 18.8498L2.43425 18.8495L2.80108 18.8491C2.80054 18.2577 2.83308 17.6646 2.89944 17.0725L2.53489 17.0317ZM0.285878 14.3087L0.0301615 14.5717L1.99587 16.4829L2.25159 16.2199L2.50731 15.9569L0.541595 14.0457L0.285878 14.3087ZM2.53489 17.0317L2.89944 17.0725C2.94502 16.6659 2.80911 16.2504 2.50731 15.9569L2.25159 16.2199L1.99587 16.4829C2.12619 16.6096 2.19208 16.7968 2.17034 16.9908L2.53489 17.0317ZM0.12554 24.5386L0.443664 24.356C0.312004 24.1267 0.352764 23.8367 0.541388 23.6534L0.285671 23.3903L0.0299543 23.1273C-0.399538 23.5449 -0.490819 24.2019 -0.192585 24.7213L0.12554 24.5386ZM12.6423 34.3173L12.9983 34.2288C12.8967 33.8201 12.6069 33.4931 12.2322 33.3288L12.0848 33.6647L11.9375 34.0006C12.1138 34.078 12.2421 34.2281 12.2863 34.4058L12.6423 34.3173ZM14.2144 37.6983L14.2144 37.3315C13.9542 37.3315 13.7253 37.1533 13.6614 36.8962L13.3054 36.9847L12.9494 37.0732C13.0941 37.6549 13.6147 38.0652 14.2144 38.0651L14.2144 37.6983ZM23.7024 36.9846L23.3464 36.896C23.2824 37.1531 23.0536 37.3313 22.7934 37.3313L22.7934 37.6981L22.7934 38.065C23.3931 38.065 23.9137 37.6547 24.0583 37.0731L23.7024 36.9846ZM24.923 33.6645L24.7757 33.3285C24.4011 33.4929 24.1112 33.8198 24.0096 34.2285L24.3656 34.317L24.7216 34.4055C24.7658 34.2279 24.8941 34.0777 25.0704 34.0004L24.923 33.6645ZM28.8951 31.6874L28.9965 31.3349C28.5917 31.2185 28.1643 31.3081 27.8357 31.552L28.0543 31.8466L28.2729 32.1411C28.428 32.0261 28.6205 31.9901 28.7937 32.0399L28.8951 31.6874ZM32.593 32.0088L32.2749 31.8262C32.1436 32.0549 31.8756 32.163 31.6254 32.091L31.524 32.4436L31.4226 32.7961C31.9991 32.9619 32.6126 32.7115 32.9112 32.1915L32.593 32.0088ZM36.7226 23.3896L36.4669 23.6526C36.6555 23.836 36.6963 24.1259 36.5646 24.3552L36.8828 24.5379L37.2009 24.7205C37.4991 24.2011 37.4078 23.5441 36.9783 23.1266L36.7226 23.3896ZM34.4736 20.6666L34.1091 20.6258C34.0635 21.0324 34.1994 21.4479 34.5012 21.7414L34.7569 21.4784L35.0126 21.2154C34.8823 21.0887 34.8164 20.9015 34.8382 20.7075L34.4736 20.6666ZM31.5245 5.25423L31.6259 5.60677C31.8761 5.53479 32.1441 5.64287 32.2755 5.87161L32.5936 5.68895L32.9117 5.5063C32.6131 4.98626 31.9996 4.73586 31.4231 4.9017L31.5245 5.25423ZM28.0548 5.85133L27.8362 6.1459C28.1648 6.38977 28.5923 6.47944 28.997 6.36301L28.8956 6.01048L28.7942 5.65794C28.621 5.70777 28.4284 5.67182 28.2734 5.55675L28.0548 5.85133ZM24.3662 3.38101L24.0102 3.46952C24.1118 3.87823 24.4017 4.20518 24.7763 4.36953L24.9237 4.0336L25.071 3.69767C24.8947 3.62032 24.7664 3.47019 24.7222 3.29251L24.3662 3.38101ZM22.7941 1.87435e-10L22.7941 0.366832C23.0543 0.366826 23.2832 0.545026 23.3471 0.802119L23.7031 0.713617L24.0591 0.625116C23.9145 0.0434037 23.3938 -0.366844 22.7941 -0.366832L22.7941 1.87435e-10ZM2.25152 21.479L2.50723 21.742C2.80903 21.4486 2.94493 21.0331 2.89937 20.6265L2.53482 20.6673L2.17027 20.7082C2.192 20.9021 2.12611 21.0893 1.9958 21.216L2.25152 21.479ZM12.0855 4.03384L12.2328 4.36976C12.6075 4.20542 12.8973 3.87849 12.9989 3.46981L12.6429 3.38129L12.2869 3.29278C12.2427 3.47044 12.1144 3.62056 11.9381 3.69791L12.0855 4.03384ZM5.48401 32.4441L5.3826 32.0915C5.13239 32.1635 4.86436 32.0554 4.73303 31.8267L4.41491 32.0094L4.09678 32.192C4.39537 32.7121 5.00892 32.9625 5.58542 32.7966L5.48401 32.4441ZM8.11344 6.0109L8.01204 6.36344C8.41676 6.47985 8.84423 6.39017 9.17282 6.1463L8.9542 5.85173L8.73559 5.55716C8.58054 5.67222 8.38803 5.70817 8.21484 5.65836L8.11344 6.0109ZM34.757 16.2193L34.5013 15.9563C34.1995 16.2497 34.0636 16.6652 34.1091 17.0718L34.4737 17.031L34.8382 16.9901C34.8165 16.7962 34.8824 16.609 35.0127 16.4823L34.757 16.2193ZM8.95372 31.847L9.17234 31.5524C8.84373 31.3085 8.41625 31.2189 8.01152 31.3353L8.11293 31.6878L8.21434 32.0404C8.38754 31.9905 8.58006 32.0265 8.73511 32.1416L8.95372 31.847ZM0.125755 13.1604L-0.192366 12.9778C-0.490615 13.4972 -0.399339 14.1542 0.0301616 14.5717L0.285878 14.3087L0.541595 14.0457C0.352967 13.8623 0.312209 13.5724 0.443876 13.3431L0.125755 13.1604ZM13.3062 0.713756L13.6622 0.802271C13.7261 0.545197 13.9549 0.367008 14.2151 0.367003L14.2151 0.000171181L14.2151 -0.36666C13.6154 -0.366649 13.0948 0.0435693 12.9502 0.625242L13.3062 0.713756ZM36.883 13.1597L36.5648 13.3423C36.6965 13.5717 36.6557 13.8616 36.4671 14.045L36.7228 14.308L36.9786 14.571C37.408 14.1534 37.4993 13.4965 37.2011 12.977L36.883 13.1597ZM4.41545 5.68946L4.73357 5.87212C4.86491 5.64339 5.13292 5.53532 5.38312 5.60729L5.48452 5.25475L5.58592 4.90221C5.00944 4.7364 4.39592 4.98678 4.09733 5.5068L4.41545 5.68946Z" transform="translate(13.4961 13.1509)" fill="url(#g6)" fill-rule="nonzero" opacity="1" /><path d="M0.125549 13.1604L4.41525 5.68946C4.63021 5.31509 5.07097 5.13586 5.48431 5.25475L8.11323 6.0109C8.40219 6.09401 8.71218 6.0312 8.954 5.85173C9.44171 5.48977 9.94766 5.1574 10.469 4.85539C10.9899 4.55226 11.5294 4.2777 12.0853 4.03384C12.3607 3.91299 12.5698 3.67446 12.6427 3.38129L13.306 0.713756C13.4102 0.294383 13.785 0.000179757 14.2149 0.000171181L22.7939 0C23.2238 -8.57491e-06 23.5986 0.294215 23.7029 0.713617L24.366 3.38101C19.0219 2.81367 7.11734 4.58717 2.25138 16.2199L0.285672 14.3087C-0.0233922 14.0082 -0.0894095 13.5348 0.125549 13.1604Z" transform="translate(13.4961 13.1509)" fill="#ffffff" fill-rule="nonzero" opacity="1" /><path d="M0.271903 13.6901C-0.0222636 13.4026 -0.0851002 12.9496 0.119497 12.5914L4.20241 5.44347C4.40701 5.08528 4.82654 4.9138 5.21995 5.02755L7.72215 5.751C7.99718 5.83052 8.29222 5.77043 8.52238 5.59872C8.98659 5.25241 9.46815 4.93441 9.96431 4.64546C10.4602 4.35543 10.9737 4.09274 11.5027 3.85943C11.7649 3.7438 11.9639 3.51559 12.0333 3.2351L12.6646 0.682896C12.7638 0.281655 13.1205 0.000171985 13.5297 0.000163779L21.6952 1.79331e-10C22.1044 -8.20416e-06 22.4611 0.281494 22.5603 0.682763L23.1915 3.23483C23.2609 3.51535 23.4599 3.74358 23.7221 3.8592C24.2524 4.09304 24.767 4.35638 25.2639 4.6472C25.7588 4.93558 26.2392 5.25287 26.7023 5.59833C26.9324 5.77004 27.2275 5.83013 27.5025 5.7506L30.0047 5.02706C30.3982 4.91329 30.8177 5.08478 31.0223 5.44298L35.1049 12.5907C35.3095 12.9489 35.2467 13.4018 34.9525 13.6893L33.0814 15.518C19.629 4.6472 14.5093 6.11071 2.14286 15.5186L0.271903 13.6901Z" transform="translate(14.3906 13.6194)" fill="url(#g9)" fill-rule="nonzero" opacity="1" /><path d="M6.01357 3.47969C6.01357 3.47969 2.00435 4.80579 1.26599 6.44287C0.652146 5.16984 0 2.0065 0 2.0065C0.316103 1.30489 2.26796 0.42966 3.14628 0C4.41243 1.20891 6.01357 3.47969 6.01357 3.47969Z" transform="translate(22.9006 17.451)" fill="#ffffff" fill-rule="nonzero" opacity="1" /><path d="M6.01357 3.47969C6.01357 3.47969 2.00435 4.80579 1.26599 6.44287C0.652146 5.16984 0 2.0065 0 2.0065C0.316103 1.30489 2.26796 0.42966 3.14628 0C4.41243 1.20891 6.01357 3.47969 6.01357 3.47969Z" transform="translate(35.2764 39.851)" fill="#d3d7e5" fill-rule="nonzero" opacity="0.3" /><path d="M8.89487 1.26685C8.89487 1.26685 7.53451 9.36605 1.35763 9.8192C0.743783 8.54617 0 6.08047 0 6.08047C0.512097 5.56569 3.1198 4.0342 3.99812 3.60454C4.52862 4.11106 4.07941 -0.486934 4.52739 0.0425351C5.74456 0.294946 8.89487 1.26685 8.89487 1.26685Z" transform="translate(32.8926 31.6453)" fill="url(#g12)" fill-rule="nonzero" opacity="0.5" /><path d="M6.39867 3.69271C6.39867 3.69271 3.02376 5.31492 1.18732 6.64725C0.573476 5.37423 0 2.60239 0 2.60239C0.316103 1.90077 4.10208 -1.40927 9.95037 0.685203C9.95037 1.41015 8.96231 4.31015 8.72196 4.60552C8.14795 4.8654 6.39867 3.69271 6.39867 3.69271Z" transform="translate(25.7394 22.3107)" fill="url(#g13)" fill-rule="nonzero" opacity="1" /><path d="M6.03847 3.46538C6.03847 3.46538 2.01265 4.78603 1.27123 6.41637C0.654847 5.14858 0 1.99825 0 1.99825C0.317412 1.29952 2.27735 0.427893 3.15931 0C4.4307 1.20394 6.03847 3.46538 6.03847 3.46538Z" transform="translate(21.2714 38.8497)" fill="#d3d7e5" fill-rule="nonzero" opacity="0.3" /><path d="M6.03932 3.46489C6.03932 3.46489 2.01293 4.78535 1.27141 6.41547C0.654938 5.14786 0 1.99797 0 1.99797C0.317456 1.29934 2.27767 0.427833 3.15975 0C4.43133 1.20377 6.03932 3.46489 6.03932 3.46489Z" transform="translate(15.1494 27.5926)" fill="#e2e6f3" fill-rule="nonzero" opacity="0.3" /><path d="M6.03932 3.46489C6.03932 3.46489 2.01293 4.78535 1.27141 6.41547C0.654938 5.14786 0 1.99797 0 1.99797C0.317456 1.29934 2.27767 0.427833 3.15975 0C4.43133 1.20377 6.03932 3.46489 6.03932 3.46489Z" transform="translate(40.2975 27.5926)" fill="#e2e5f2" fill-rule="nonzero" opacity="0.3" /><path d="M6.03806 3.46562C6.03806 3.46562 2.01251 4.78636 1.27114 6.41682C0.654801 5.14894 0 1.99839 0 1.99839C0.31739 1.29961 2.2772 0.427923 3.15909 0C4.4304 1.20403 6.03806 3.46562 6.03806 3.46562Z" transform="translate(33.9245 16.6609)" fill="#ffffff" fill-rule="nonzero" opacity="0.5" /><path d="M10.4192 4.98657L10.4188 4.9868C9.9141 5.27921 9.42424 5.60102 8.95205 5.95146C8.65638 6.17089 8.27319 6.25058 7.91183 6.14664L5.32633 5.40298C5.02858 5.31734 4.71026 5.44617 4.5546 5.71726L0.335759 13.0648C0.179878 13.3363 0.227965 13.6796 0.451634 13.8971L0.281156 14.0724C-0.0228031 13.7769 -0.08773 13.3112 0.123678 12.9431L4.34252 5.59549C4.55393 5.2273 4.98742 5.05103 5.39393 5.16795L7.97942 5.91161C8.26361 5.99335 8.56848 5.93158 8.8063 5.75508C9.28596 5.3991 9.78356 5.07222 10.2962 4.77519C10.8086 4.47707 11.3392 4.20704 11.8859 3.96721C12.1568 3.84836 12.3624 3.61377 12.4341 3.32544L13.0864 0.701967C13.1889 0.289521 13.5575 0.000176788 13.9803 0.000168353L22.4176 1.84331e-10C22.8405 -8.43309e-06 23.209 0.289355 23.3116 0.701831L23.9637 3.32517C24.0354 3.61352 24.2411 3.84812 24.512 3.96698C25.0599 4.20735 25.5917 4.47804 26.1052 4.77698C26.6165 5.07341 27.1129 5.39957 27.5914 5.75468C27.8292 5.93118 28.1341 5.99295 28.4183 5.9112L31.0038 5.16745C31.4103 5.0505 31.8438 5.22678 32.0552 5.59499L36.2738 12.9423C36.4852 13.3105 36.4202 13.7761 36.1163 14.0716L34.1829 15.9514C33.9704 16.158 33.8712 16.4544 33.9043 16.7497C33.971 17.3456 34.0038 17.9425 34.0032 18.5376C34.0037 19.1327 33.971 19.7295 33.9042 20.3253C33.8711 20.6206 33.9703 20.917 34.1828 21.1236L36.1161 23.0032C36.42 23.2988 36.485 23.7644 36.2736 24.1326L32.0547 31.4801C31.8433 31.8483 31.4098 32.0246 31.0033 31.9077L28.4178 31.164C28.1336 31.0823 27.8287 31.1441 27.5909 31.3206C27.1128 31.6754 26.6168 32.0014 26.1058 32.2976C25.5919 32.5969 25.0598 32.8678 24.5114 33.1084C24.2405 33.2273 24.0349 33.4619 23.9632 33.7502L23.3109 36.3737C23.2083 36.7861 22.8398 37.0755 22.4169 37.0755L13.9796 37.0756C13.5568 37.0756 13.1882 36.7863 13.0857 36.3738L12.4335 33.7505C12.3618 33.4621 12.1562 33.2275 11.8852 33.1087C11.34 32.8695 10.8108 32.6003 10.2997 32.3031C9.78562 32.0055 9.28671 31.6778 8.80583 31.321C8.568 31.1445 8.26312 31.0827 7.97893 31.1644L5.39343 31.9082C4.9869 32.0251 4.55339 31.8489 4.34198 31.4807L0.123466 24.1333C-0.087931 23.7651 -0.0230009 23.2995 0.280953 23.004L2.21433 21.1242C2.42681 20.9176 2.52604 20.6213 2.49295 20.326C2.42619 19.7301 2.39348 19.1332 2.39404 18.5381C2.3935 17.943 2.42624 17.3461 2.49302 16.7503C2.52612 16.455 2.42689 16.1586 2.2144 15.952L0.281156 14.0724L0.451634 13.8971L2.38488 15.7767C2.65454 16.0389 2.7771 16.4113 2.73605 16.7776C2.6703 17.3642 2.63806 17.9519 2.6386 18.5379L2.6386 18.5383C2.63804 19.1243 2.67025 19.7121 2.73599 20.2987C2.77702 20.6649 2.65445 21.0374 2.38481 21.2996L0.451431 23.1793C0.227766 23.3968 0.179677 23.7401 0.335549 24.0116L4.55407 31.3589C4.70972 31.63 5.02806 31.7588 5.32582 31.6732L7.91132 30.9294C8.27269 30.8255 8.65589 30.9051 8.95157 31.1246C9.42497 31.4759 9.91612 31.7984 10.4222 32.0914L10.4226 32.0917C10.9258 32.3842 11.4468 32.6493 11.9835 32.8847C12.3205 33.0326 12.58 33.3261 12.6708 33.6915L13.323 36.3148C13.3986 36.6191 13.67 36.8311 13.9796 36.8311L22.4169 36.8309C22.7266 36.8309 22.9979 36.6189 23.0735 36.3147L23.7258 33.6912C23.8167 33.3258 24.0761 33.0323 24.4131 32.8845C24.953 32.6476 25.4769 32.3809 25.9827 32.0863L25.9831 32.0861C26.4862 31.7944 26.9745 31.4735 27.4452 31.1242C27.7409 30.9047 28.124 30.8251 28.4854 30.929L31.0709 31.6727C31.3686 31.7583 31.687 31.6295 31.8426 31.3584L36.0615 24.0108C36.2174 23.7393 36.1693 23.396 35.9456 23.1786L34.0123 21.299C33.7427 21.0368 33.6201 20.6643 33.6612 20.2981C33.7269 19.7115 33.7592 19.1238 33.7586 18.5379L33.7586 18.5374C33.7592 17.9514 33.727 17.3636 33.6612 16.7769C33.6202 16.4107 33.7428 16.0382 34.0124 15.7761L35.9458 13.8963C36.1695 13.6788 36.2176 13.3356 36.0617 13.0641L31.8432 5.71676C31.6875 5.44565 31.3692 5.31682 31.0714 5.40247L28.4859 6.14623C28.1245 6.25018 27.7413 6.1705 27.4457 5.95106C26.9746 5.60148 26.486 5.28039 25.9825 4.98856L25.9821 4.98833C25.4766 4.69403 24.9531 4.42755 24.4138 4.19093C24.0767 4.04308 23.8172 3.74953 23.7264 3.38417L23.0742 0.760832C22.9986 0.456563 22.7273 0.244548 22.4176 0.244554L13.9803 0.244723C13.6707 0.244729 13.3994 0.45673 13.3237 0.760977L12.6714 3.38445C12.5806 3.74979 12.3211 4.04331 11.9841 4.19116C11.446 4.42725 10.9237 4.69307 10.4192 4.98657Z" transform="translate(13.8039 13.4307)" fill="url(#g18)" fill-rule="evenodd" opacity="1" /><path d="M21.0102 10.5631L20.5211 10.5631C20.5211 16.1293 16.0343 20.6371 10.5051 20.6371L10.5051 21.1262L10.5051 21.6153C16.5796 21.6153 21.4994 16.6645 21.4994 10.5631L21.0102 10.5631ZM10.5051 21.1262L10.5051 20.6371C4.97597 20.6371 0.489109 16.1293 0.489109 10.5631L0 10.5631L-0.489109 10.5631C-0.489109 16.6645 4.43064 21.6153 10.5051 21.6153L10.5051 21.1262ZM0 10.5631L0.489109 10.5631C0.489109 4.99684 4.97597 0.489109 10.5051 0.489109L10.5051 0L10.5051 -0.489109C4.43064 -0.489109 -0.489109 4.46167 -0.489109 10.5631L0 10.5631ZM10.5051 0L10.5051 0.489109C16.0343 0.489109 20.5211 4.99684 20.5211 10.5631L21.0102 10.5631L21.4994 10.5631C21.4994 4.46167 16.5796 -0.489109 10.5051 -0.489109L10.5051 0Z" transform="translate(21.4912 21.4296)" fill="url(#g19)" fill-rule="nonzero" opacity="0.6" /><path d="M22.045 11.0833L21.9227 11.0833C21.9227 17.1375 17.0419 22.0443 11.0225 22.0443L11.0225 22.1666L11.0225 22.2889C17.1782 22.2889 22.1673 17.2713 22.1673 11.0833L22.045 11.0833ZM11.0225 22.1666L11.0225 22.0443C5.0031 22.0443 0.122277 17.1375 0.122277 11.0833L0 11.0833L-0.122277 11.0833C-0.122277 17.2713 4.86677 22.2889 11.0225 22.2889L11.0225 22.1666ZM0 11.0833L0.122277 11.0833C0.122277 5.02906 5.0031 0.122277 11.0225 0.122277L11.0225 0L11.0225 -0.122277C4.86677 -0.122277 -0.122277 4.89527 -0.122277 11.0833L0 11.0833ZM11.0225 0L11.0225 0.122277C17.0419 0.122277 21.9227 5.02906 21.9227 11.0833L22.045 11.0833L22.1673 11.0833C22.1673 4.89527 17.1782 -0.122277 11.0225 -0.122277L11.0225 0Z" transform="translate(20.9775 20.8983)" fill="url(#g20)" fill-rule="nonzero" opacity="0.6" /><path d="M20.1658 10.1385L20.0435 10.1385C20.0435 15.671 15.5834 20.1548 10.0829 20.1548L10.0829 20.277L10.0829 20.3993C15.7197 20.3993 20.2881 15.8048 20.2881 10.1385L20.1658 10.1385ZM10.0829 20.277L10.0829 20.1548C4.58243 20.1548 0.122277 15.671 0.122277 10.1385L0 10.1385L-0.122277 10.1385C-0.122277 15.8048 4.4461 20.3993 10.0829 20.3993L10.0829 20.277ZM0 10.1385L0.122277 10.1385C0.122277 4.60607 4.58243 0.122277 10.0829 0.122277L10.0829 0L10.0829 -0.122277C4.4461 -0.122277 -0.122277 4.47227 -0.122277 10.1385L0 10.1385ZM10.0829 0L10.0829 0.122277C15.5834 0.122277 20.0435 4.60607 20.0435 10.1385L20.1658 10.1385L20.2881 10.1385C20.2881 4.47227 15.7197 -0.122277 10.0829 -0.122277L10.0829 0Z" transform="translate(21.9217 21.8562)" fill="url(#g21)" fill-rule="nonzero" opacity="0.6" /><path d="M3.8251 0.134918C4.13497 -0.0449725 4.51674 -0.0449725 4.82661 0.134918L8.15095 2.06482C8.46082 2.24471 8.65171 2.57716 8.65171 2.93694L8.65171 6.79673C8.65171 7.15651 8.46082 7.48896 8.15095 7.66885L4.82661 9.59875C4.51674 9.77864 4.13497 9.77864 3.8251 9.59875L0.500757 7.66885C0.190887 7.48896 0 7.15651 0 6.79673L0 2.93694C0 2.57716 0.190887 2.24471 0.500756 2.06482L3.8251 0.134918Z" transform="translate(27.6768 27.1283)" fill="url(#g22)" fill-rule="nonzero" opacity="0.8" /><path d="M3.8251 0.134918C4.13497 -0.0449725 4.51674 -0.0449725 4.82661 0.134918L8.15095 2.06482C8.46082 2.24471 8.65171 2.57716 8.65171 2.93694L8.65171 6.79673C8.65171 7.15651 8.46082 7.48896 8.15095 7.66885L4.82661 9.59875C4.51674 9.77864 4.13497 9.77864 3.8251 9.59875L0.500757 7.66885C0.190887 7.48896 0 7.15651 0 6.79673L0 2.93694C0 2.57716 0.190887 2.24471 0.500756 2.06482L3.8251 0.134918Z" transform="translate(27.6768 27.1283)" fill="url(#g23)" fill-rule="nonzero" opacity="0.8" /><path d="M0.500756 2.06482L0.13241 1.43032L0.13241 1.43032L0.500756 2.06482ZM0.500757 7.66885L0.869103 7.03436L0.869103 7.03436L0.500757 7.66885ZM4.82661 9.59875L5.19496 10.2332L5.19496 10.2332L4.82661 9.59875ZM3.8251 9.59875L3.45675 10.2332L3.45675 10.2332L3.8251 9.59875ZM8.15095 7.66885L7.7826 7.03436L7.7826 7.03436L8.15095 7.66885ZM8.15095 2.06482L7.7826 2.69931L7.7826 2.69931L8.15095 2.06482ZM4.82661 0.134918L5.19496 -0.499576L5.19496 -0.499577L4.82661 0.134918ZM3.8251 0.134918L4.19344 0.769412L3.8251 0.134918ZM4.82661 0.134918L4.45826 0.769412L7.7826 2.69931L8.15095 2.06482L8.5193 1.43032L5.19496 -0.499576L4.82661 0.134918ZM8.65171 2.93694L7.91804 2.93694L7.91804 6.79673L8.65171 6.79673L9.38537 6.79673L9.38537 2.93694L8.65171 2.93694ZM8.15095 7.66885L7.7826 7.03436L4.45826 8.96426L4.82661 9.59875L5.19496 10.2332L8.5193 8.30335L8.15095 7.66885ZM3.8251 9.59875L4.19344 8.96426L0.869103 7.03436L0.500757 7.66885L0.13241 8.30335L3.45675 10.2332L3.8251 9.59875ZM0 6.79673L0.733663 6.79673L0.733663 2.93694L0 2.93694L-0.733663 2.93694L-0.733663 6.79673L0 6.79673ZM0.500756 2.06482L0.869103 2.69931L4.19344 0.769412L3.8251 0.134918L3.45675 -0.499577L0.13241 1.43032L0.500756 2.06482ZM0 2.93694L0.733663 2.93694C0.733663 2.8373 0.786533 2.74724 0.869103 2.69931L0.500756 2.06482L0.13241 1.43032C-0.404758 1.74217 -0.733663 2.31701 -0.733663 2.93694L0 2.93694ZM0.500757 7.66885L0.869103 7.03436C0.786533 6.98642 0.733663 6.89636 0.733663 6.79673L0 6.79673L-0.733663 6.79673C-0.733663 7.41666 -0.404758 7.9915 0.13241 8.30335L0.500757 7.66885ZM4.82661 9.59875L4.45826 8.96426C4.37616 9.01192 4.27555 9.01192 4.19344 8.96426L3.8251 9.59875L3.45675 10.2332C3.99438 10.5454 4.65732 10.5454 5.19496 10.2332L4.82661 9.59875ZM8.65171 6.79673L7.91804 6.79673C7.91804 6.89636 7.86517 6.98642 7.7826 7.03436L8.15095 7.66885L8.5193 8.30335C9.05646 7.9915 9.38537 7.41666 9.38537 6.79673L8.65171 6.79673ZM8.15095 2.06482L7.7826 2.69931C7.86517 2.74724 7.91804 2.8373 7.91804 2.93694L8.65171 2.93694L9.38537 2.93694C9.38537 2.31701 9.05646 1.74217 8.5193 1.43032L8.15095 2.06482ZM4.82661 0.134918L5.19496 -0.499577C4.65732 -0.811692 3.99438 -0.811692 3.45675 -0.499577L3.8251 0.134918L4.19344 0.769412C4.27555 0.721747 4.37616 0.721747 4.45826 0.769412L4.82661 0.134918Z" transform="translate(27.6768 27.1283)" fill="url(#g24)" fill-rule="nonzero" opacity="0.8" /><path d="M0.566973 2.33785L0.444191 2.12636L0.444191 2.12636L0.566973 2.33785ZM0.566974 8.68293L0.689756 8.47144L0.689756 8.47144L0.566974 8.68293ZM5.46485 10.868L5.58763 11.0795L5.58763 11.0795L5.46485 10.868ZM4.3309 10.868L4.20812 11.0795L4.20812 11.0795L4.3309 10.868ZM9.22878 8.68293L9.106 8.47144L9.106 8.47144L9.22878 8.68293ZM9.22878 2.33785L9.106 2.54935L9.106 2.54935L9.22878 2.33785ZM5.46485 0.152758L5.58763 -0.0587397L5.58763 -0.0587397L5.46485 0.152758ZM4.3309 0.152758L4.45369 0.364256L4.3309 0.152758ZM5.46485 0.152758L5.34207 0.364256L9.106 2.54935L9.22878 2.33785L9.35156 2.12636L5.58763 -0.0587397L5.46485 0.152758ZM9.79576 3.3253L9.5512 3.3253L9.5512 7.69549L9.79576 7.69549L10.0403 7.69549L10.0403 3.3253L9.79576 3.3253ZM9.22878 8.68293L9.106 8.47144L5.34207 10.6565L5.46485 10.868L5.58763 11.0795L9.35156 8.89443L9.22878 8.68293ZM4.3309 10.868L4.45369 10.6565L0.689756 8.47144L0.566974 8.68293L0.444191 8.89443L4.20812 11.0795L4.3309 10.868ZM0 7.69549L0.244554 7.69549L0.244554 3.3253L0 3.3253L-0.244554 3.3253L-0.244554 7.69549L0 7.69549ZM0.566973 2.33785L0.689756 2.54935L4.45369 0.364256L4.3309 0.152758L4.20812 -0.0587398L0.444191 2.12636L0.566973 2.33785ZM0 3.3253L0.244554 3.3253C0.244554 3.00466 0.414678 2.70904 0.689756 2.54935L0.566973 2.33785L0.444191 2.12636C0.0175806 2.37402 -0.244554 2.83123 -0.244554 3.3253L0 3.3253ZM0.566974 8.68293L0.689756 8.47144C0.414678 8.31174 0.244554 8.01613 0.244554 7.69549L0 7.69549L-0.244554 7.69549C-0.244554 8.18956 0.0175807 8.64677 0.444191 8.89443L0.566974 8.68293ZM5.46485 10.868L5.34207 10.6565C5.06715 10.8161 4.72861 10.8161 4.45369 10.6565L4.3309 10.868L4.20812 11.0795C4.63489 11.3273 5.16087 11.3273 5.58763 11.0795L5.46485 10.868ZM9.79576 7.69549L9.5512 7.69549C9.5512 8.01613 9.38108 8.31174 9.106 8.47144L9.22878 8.68293L9.35156 8.89443C9.77817 8.64677 10.0403 8.18956 10.0403 7.69549L9.79576 7.69549ZM9.22878 2.33785L9.106 2.54935C9.38108 2.70904 9.5512 3.00466 9.5512 3.3253L9.79576 3.3253L10.0403 3.3253C10.0403 2.83123 9.77817 2.37402 9.35156 2.12636L9.22878 2.33785ZM5.46485 0.152758L5.58763 -0.0587397C5.16087 -0.306493 4.63489 -0.306493 4.20812 -0.0587398L4.3309 0.152758L4.45369 0.364256C4.72861 0.204654 5.06715 0.204654 5.34207 0.364256L5.46485 0.152758Z" transform="translate(27.1064 26.485)" fill="url(#g25)" fill-rule="nonzero" opacity="0.8" /></svg>
