<svg width="24" height="24" viewBox="0 0 24 24" fill="none" xmlns="http://www.w3.org/2000/svg">
<path fill-rule="evenodd" clip-rule="evenodd" d="M3.70711 2.29289C3.31658 1.90237 2.68342 1.90237 2.29289 2.29289C1.90237 2.68342 1.90237 3.31658 2.29289 3.70711L3.68165 5.09586C3.25572 5.61383 3 6.27705 3 7V17C3 18.6569 4.34315 20 6 20H18C18.1836 20 18.3633 19.9835 18.5377 19.9519L20.2929 21.7071C20.6834 22.0976 21.3166 22.0976 21.7071 21.7071C22.0976 21.3166 22.0976 20.6834 21.7071 20.2929C21.5846 20.1704 20.2972 18.9299 20.3225 18.8991C14.7506 13.3273 9.1721 7.75789 3.70711 2.29289ZM21 8.75V16.7483L8.25174 4H9.40301C10.1905 4 10.9464 4.30962 11.5076 4.86204L12.4096 5.75L18 5.75C19.6569 5.75 21 7.09315 21 8.75Z" fill="#212529"/>
</svg>
