<svg width="24" height="24" viewBox="0 0 24 24" fill="none" xmlns="http://www.w3.org/2000/svg">
<path d="M5.07588 3.61722C5.02699 3.73512 5 3.86441 5 4V8C5 8.55228 5.44772 9 6 9C6.55228 9 7 8.55228 7 8V6.41421L11.2929 10.7071C11.6834 11.0976 12.3166 11.0976 12.7071 10.7071L18.7071 4.70711C19.0976 4.31658 19.0976 3.68342 18.7071 3.29289C18.3166 2.90237 17.6834 2.90237 17.2929 3.29289L12 8.58579L8.41421 5H10C10.5523 5 11 4.55228 11 4C11 3.44772 10.5523 3 10 3H6C5.72494 3 5.47581 3.11106 5.29502 3.29078L5.29078 3.29502C5.19595 3.3904 5.12432 3.50014 5.07588 3.61722Z" fill="#212529"/>
<path d="M15.8888 16.9159V14.2024C14.7607 13.9766 13.4293 13.8171 11.9922 13.8172C10.5319 13.8172 9.23461 13.9629 8.09434 14.1951L8.09426 16.8839C8.09425 17.5222 7.72971 18.1137 7.13394 18.4422L4.7797 19.7399C4.00143 20.169 3.00525 20.0563 2.3635 19.4667L0.431602 17.6918C-0.0978264 17.2054 -0.187152 16.3621 0.428866 15.8083C1.56294 14.789 5.2861 12.0001 11.9923 12C18.6978 11.9999 22.4316 14.788 23.5691 15.8065C24.1871 16.3597 24.0987 17.2047 23.5683 17.692L21.6355 19.4677C20.9952 20.056 20.0018 20.1697 19.224 19.7436L16.8535 18.4451C16.2656 18.123 15.9007 17.5446 15.8888 16.9159Z" fill="#212529"/>
</svg>
