<?xml version="1.0" encoding="UTF-8"?>
<svg xmlns="http://www.w3.org/2000/svg" width="64" height="64" viewBox="0 0 64 64" fill="none"><defs><linearGradient id="g1" gradientUnits="objectBoundingBox" x1="0.5" y1="0" x2="0.5" y2="1"><stop offset="0%" stop-color="#f8f8f8" stop-opacity="1" /><stop offset="100%" stop-color="#eeeeee" stop-opacity="1" /></linearGradient><linearGradient id="g2" gradientUnits="objectBoundingBox" x1="0.5" y1="0" x2="0.5" y2="1.0544"><stop offset="0%" stop-color="#e8e8e8" stop-opacity="1" /><stop offset="100%" stop-color="#e9e9e9" stop-opacity="1" /></linearGradient><linearGradient id="g3" gradientUnits="objectBoundingBox" x1="0.5" y1="0" x2="0.5" y2="1"><stop offset="0%" stop-color="#dcdcdc" stop-opacity="1" /><stop offset="100%" stop-color="#e2e2e2" stop-opacity="0.17" /></linearGradient></defs><path d="M14.6856 5.31304C21.7072 1.77101 25.218 -1.73068e-15 29 0C32.782 2.50948e-14 36.2928 1.77101 43.3144 5.31304L43.5 5.40667L43.6827 5.52169C50.1068 9.56732 53.3189 11.5901 55.2422 14.6719C55.4025 14.9288 55.5554 15.1902 55.7007 15.4558C57.4439 18.6426 57.6293 22.4284 58 30C57.6293 37.5716 57.4439 41.3574 55.7007 44.5442C55.5554 44.8098 55.4025 45.0712 55.2422 45.3281C53.3189 48.4099 50.1068 50.4327 43.6827 54.4783L43.5 54.5933L43.3144 54.687C36.2928 58.229 32.782 60 29 60C25.218 60 21.7072 58.229 14.6856 54.687L14.5 54.5933L14.3174 54.4783C7.89318 50.4327 4.6811 48.4099 2.7578 45.3281C2.59748 45.0712 2.44458 44.8098 2.29929 44.5442C0.556123 41.3574 0.370749 37.5716 0 30C0.370749 22.4284 0.556123 18.6426 2.29929 15.4558C2.44458 15.1902 2.59748 14.9288 2.7578 14.6719C4.6811 11.5901 7.89318 9.56732 14.3174 5.52169L14.5 5.40667L14.6856 5.31304Z" transform="translate(3 2)" fill="url(#g1)" fill-rule="nonzero" opacity="1" /><path d="M34 17C34 26.3888 26.3888 34 17 34C7.61116 34 0 26.3888 0 17C0 7.61116 7.61116 0 17 0C26.3888 0 34 7.61116 34 17Z" transform="translate(15 15)" fill="url(#g2)" fill-rule="nonzero" opacity="1" /><path d="M17 33.7C26.2232 33.7 33.7 26.2232 33.7 17C33.7 7.77684 26.2232 0.3 17 0.3C7.77684 0.3 0.3 7.77684 0.3 17C0.3 26.2232 7.77684 33.7 17 33.7ZM17 34C26.3888 34 34 26.3888 34 17C34 7.61116 26.3888 0 17 0C7.61116 0 0 7.61116 0 17C0 26.3888 7.61116 34 17 34Z" transform="translate(15 15)" fill="url(#g3)" fill-rule="evenodd" opacity="1" /><path d="M0 0L2 0L2 18L0 18L0 0Z" transform="translate(30.6303 22.6401)" fill="#000000" fill-rule="nonzero" opacity="1" /><path d="M3 0C4.30585 1.11022e-16 5.41406 0.835321 5.82617 2L29 2L29 4L5.82617 4C5.41406 5.16468 4.30585 6 3 6C1.34315 6 -2.22045e-16 4.65685 0 3C1.96687e-12 1.34315 1.34315 -4.44089e-16 3 0ZM3 2C2.44772 2 2 2.44772 2 3C2.00002 3.55226 2.44773 4 3 4C3.5522 3.99991 3.99998 3.55221 4 3C4 2.44777 3.55221 2.00009 3 2Z" transform="translate(7.9824 16.403)" fill="#5f6265" fill-rule="nonzero" opacity="1" /><path d="M0 0L2 0L2 25L0 25L0 0Z" transform="translate(8.9819 18.1351)" fill="#8c8cff" fill-rule="nonzero" opacity="1" /><path d="M3 0C4.65685 1.11022e-16 6 1.34315 6 3C6 4.65685 4.65685 6 3 6C1.34315 6 -1.11022e-16 4.65685 0 3C9.83436e-13 1.34315 1.34315 -2.22045e-16 3 0ZM3 2C2.44772 2 2 2.44772 2 3C2.00002 3.55226 2.44773 4 3 4C3.5522 3.99991 3.99998 3.55221 4 3C4 2.44777 3.55221 2.00009 3 2Z" transform="translate(27.901 27.903)" fill="#8c8cff" fill-rule="nonzero" opacity="1" /><path d="M6 3C6 4.65685 4.65685 6 3 6C1.34315 6 0 4.65685 0 3C0 1.34315 1.34315 0 3 0C4.65685 0 6 1.34315 6 3Z" transform="translate(27.901 27.903)" fill="#d9d9d9" fill-rule="nonzero" opacity="1" /><path d="M2 1C2 1.55228 1.55228 2 1 2C0.447715 2 0 1.55228 0 1C0 0.447715 0.447715 0 1 0C1.55228 0 2 0.447715 2 1Z" transform="translate(30.6332 30.6351)" fill="#d9d9d9" fill-rule="nonzero" opacity="1" /><path d="M3.848 5.696L0.016 5.696L0.016 5.032L1.928 3.032C2.704 2.224 2.848 1.944 2.848 1.608C2.848 1.08 2.48 0.76 1.888 0.76C1.296 0.76 0.888 1.096 0.832 1.656L0 1.656C0.072 0.656 0.808 0 1.88 0C2.976 0 3.688 0.616 3.688 1.552C3.688 2.168 3.376 2.632 2.432 3.6L1.264 4.816L1.264 4.904L3.848 4.904L3.848 5.696Z" transform="translate(31.4612 5.6499)" fill="#000000" fill-rule="nonzero" opacity="1" /><path d="M1.968 5.6L1.152 5.6L1.152 1.008L1.064 1.008L0 1.624L0 0.768L1.296 0L1.968 0L1.968 5.6Z" transform="translate(28.5044 5.7456)" fill="#000000" fill-rule="nonzero" opacity="1" /><path d="M2.112 1.952C3.208 1.952 4.008 2.704 4.008 3.768C4.008 4.896 3.168 5.696 1.984 5.696C0.816 5.696 0 4.928 0 3.848C0 3.288 0.224 2.744 0.728 2L2.08 0L3.056 0L1.752 1.912L1.752 1.992C1.856 1.968 1.976 1.952 2.112 1.952ZM2 4.936C2.688 4.936 3.16 4.48 3.16 3.808C3.16 3.136 2.688 2.672 2 2.672C1.312 2.672 0.84 3.136 0.84 3.808C0.84 4.48 1.312 4.936 2 4.936Z" transform="translate(30.1255 52.6499)" fill="#000000" fill-rule="nonzero" opacity="1" /><path d="M2.32 2.064L2.32 2.144C3.224 2.184 3.936 2.84 3.936 3.84C3.936 4.744 3.328 5.696 1.96 5.696C0.704 5.696 0.032 4.872 0 3.952L0.832 3.952C0.888 4.632 1.424 4.936 1.968 4.936C2.608 4.936 3.096 4.504 3.096 3.848C3.096 3.216 2.664 2.8 1.808 2.8L1.184 2.8L1.184 2.168L2.608 0.784L0.208 0.784L0.208 0L3.696 0L3.696 0.712L2.32 2.064Z" transform="translate(53.0249 29.1499)" fill="#000000" fill-rule="nonzero" opacity="1" /><path d="M2.016 0C3.184 0 4.008 0.768 4.008 1.848C4.008 2.408 3.776 2.952 3.28 3.696L1.928 5.696L0.952 5.696L2.248 3.784L2.248 3.704C2.144 3.728 2.024 3.744 1.888 3.744C0.8 3.744 0 2.992 0 1.928C0 0.8 0.832 0 2.016 0ZM2 3.024C2.688 3.024 3.16 2.56 3.16 1.888C3.16 1.216 2.688 0.76 2 0.76C1.312 0.76 0.84 1.216 0.84 1.888C0.84 2.56 1.312 3.024 2 3.024Z" transform="translate(7 29.0537)" fill="#000000" fill-rule="nonzero" opacity="1" /></svg>
