<?xml version="1.0" encoding="UTF-8"?>
<svg xmlns="http://www.w3.org/2000/svg" width="64" height="64" viewBox="0 0 64 64" fill="none"><defs><linearGradient id="g1" gradientUnits="objectBoundingBox" x1="0.5" y1="0" x2="0.5" y2="1"><stop offset="0%" stop-color="#48c0ff" stop-opacity="1" /><stop offset="84.375%" stop-color="#0083ff" stop-opacity="1" /></linearGradient><radialGradient id="g2" gradientUnits="objectBoundingBox" cx="0.9724" cy="0.5" r="0.677" fx="0.9724" fy="0.5"><stop offset="0%" stop-color="#56ffeb" stop-opacity="0.3" /><stop offset="100%" stop-color="#4eb9fe" stop-opacity="0" /></radialGradient><linearGradient id="g3" gradientUnits="objectBoundingBox" x1="0.1806" y1="0.0594" x2="0.7286" y2="0.7277"><stop offset="36.9792%" stop-color="#ffffff" stop-opacity="1" /><stop offset="100%" stop-color="#e0f0ff" stop-opacity="1" /></linearGradient></defs><path d="M14.6856 5.31304C21.7072 1.77101 25.218 -1.73068e-15 29 0C32.782 2.50948e-14 36.2928 1.77101 43.3144 5.31304L43.5 5.40667L43.6827 5.52169C50.1068 9.56732 53.3189 11.5901 55.2422 14.6719C55.4025 14.9288 55.5554 15.1902 55.7007 15.4558C57.4439 18.6426 57.6292 22.4284 58 30C57.6292 37.5716 57.4439 41.3574 55.7007 44.5442C55.5554 44.8098 55.4025 45.0712 55.2422 45.3281C53.3189 48.4099 50.1068 50.4327 43.6827 54.4783L43.5 54.5933L43.3144 54.687C36.2928 58.229 32.782 60 29 60C25.218 60 21.7072 58.229 14.6856 54.687L14.5 54.5933L14.3174 54.4783C7.89318 50.4327 4.6811 48.4099 2.7578 45.3281C2.59748 45.0712 2.44459 44.8098 2.29929 44.5442C0.556123 41.3574 0.370749 37.5716 0 30C0.370749 22.4284 0.556123 18.6426 2.29929 15.4558C2.44458 15.1902 2.59748 14.9288 2.7578 14.6719C4.6811 11.5901 7.89318 9.56732 14.3174 5.52169L14.5 5.40667L14.6856 5.31304Z" transform="translate(3 2)" fill="url(#g1)" fill-rule="nonzero" opacity="1" /><path d="M14.6856 5.31304C21.7072 1.77101 25.218 -1.73068e-15 29 0C32.782 2.50948e-14 36.2928 1.77101 43.3144 5.31304L43.5 5.40667L43.6827 5.52169C50.1068 9.56732 53.3189 11.5901 55.2422 14.6719C55.4025 14.9288 55.5554 15.1902 55.7007 15.4558C57.4439 18.6426 57.6292 22.4284 58 30C57.6292 37.5716 57.4439 41.3574 55.7007 44.5442C55.5554 44.8098 55.4025 45.0712 55.2422 45.3281C53.3189 48.4099 50.1068 50.4327 43.6827 54.4783L43.5 54.5933L43.3144 54.687C36.2928 58.229 32.782 60 29 60C25.218 60 21.7072 58.229 14.6856 54.687L14.5 54.5933L14.3174 54.4783C7.89318 50.4327 4.6811 48.4099 2.7578 45.3281C2.59748 45.0712 2.44459 44.8098 2.29929 44.5442C0.556123 41.3574 0.370749 37.5716 0 30C0.370749 22.4284 0.556123 18.6426 2.29929 15.4558C2.44458 15.1902 2.59748 14.9288 2.7578 14.6719C4.6811 11.5901 7.89318 9.56732 14.3174 5.52169L14.5 5.40667L14.6856 5.31304Z" transform="translate(3 2)" fill="url(#g2)" fill-rule="nonzero" opacity="1" /><path d="M29.8691 0C32.6306 0 34.8691 2.23858 34.8691 5L34.8691 21.5234C34.8691 24.2849 32.6306 26.5234 29.8691 26.5234L14.0703 26.5234L7.58789 33.041C7.1264 33.5051 6.33435 33.1787 6.33398 32.5244L6.33398 26.5234L5 26.5234C2.23858 26.5234 0 24.2849 0 21.5234L0 5C0 2.23858 2.23858 0 5 0L29.8691 0Z" transform="translate(14.5654 18.3705)" fill="url(#g3)" fill-rule="nonzero" opacity="1" /><path d="M0 5C0 2.23857 2.23858 0 5 0L29.8694 0C32.6308 0 34.8694 2.23858 34.8694 5L34.8694 21.5238C34.8694 24.2852 32.6308 26.5238 29.8694 26.5238L5 26.5238C2.23858 26.5238 0 24.2852 0 21.5238L0 5Z" transform="translate(14.5654 18.3705)" fill="#ffffff" fill-rule="nonzero" opacity="1" /><path d="M0 6.11435L0 0L7.84918 0L1.25387 6.6317C0.792271 7.09584 0 6.76895 0 6.11435Z" transform="translate(20.8994 44.7801)" fill="#ffffff" fill-rule="nonzero" opacity="1" /><path d="M3.69847 1.85944C3.69847 2.88638 2.87054 3.71888 1.84924 3.71888C0.827932 3.71888 0 2.88638 0 1.85944C0 0.832499 0.827932 0 1.84924 0C2.87054 0 3.69847 0.832499 3.69847 1.85944Z" transform="translate(22.7441 29.7754)" fill="#36b1ff" fill-rule="nonzero" opacity="1" /><path d="M3.69847 1.85944C3.69847 2.88638 2.87054 3.71888 1.84924 3.71888C0.827932 3.71888 0 2.88638 0 1.85944C0 0.832499 0.827932 0 1.84924 0C2.87054 0 3.69847 0.832499 3.69847 1.85944Z" transform="translate(30.1387 29.7754)" fill="#36b1ff" fill-rule="nonzero" opacity="1" /><path d="M3.69847 1.85944C3.69847 2.88638 2.87054 3.71888 1.84924 3.71888C0.827932 3.71888 0 2.88638 0 1.85944C0 0.832499 0.827932 0 1.84924 0C2.87054 0 3.69847 0.832499 3.69847 1.85944Z" transform="translate(37.536 29.7754)" fill="#36b1ff" fill-rule="nonzero" opacity="1" /></svg>
