<?xml version="1.0" encoding="UTF-8"?>
<svg xmlns="http://www.w3.org/2000/svg" width="64" height="64" viewBox="0 0 64 64" fill="none"><defs><linearGradient id="g1" gradientUnits="objectBoundingBox" x1="0.5" y1="0" x2="0.5" y2="1"><stop offset="0%" stop-color="#f5f6f7" stop-opacity="1" /><stop offset="100%" stop-color="#e3e4e8" stop-opacity="1" /></linearGradient><linearGradient id="g2" gradientUnits="objectBoundingBox" x1="0.5" y1="0" x2="0.5" y2="1"><stop offset="0%" stop-color="#00ff85" stop-opacity="1" /><stop offset="84.375%" stop-color="#00af85" stop-opacity="1" /></linearGradient><radialGradient id="g3" gradientUnits="objectBoundingBox" cx="0.9724" cy="0.5" r="0.677" fx="0.9724" fy="0.5"><stop offset="0%" stop-color="#4afff4" stop-opacity="0.3" /><stop offset="100%" stop-color="#2af399" stop-opacity="0" /></radialGradient></defs><path d="M14.6856 5.31304C21.7072 1.77101 25.218 -1.73068e-15 29 0C32.782 2.50948e-14 36.2928 1.77101 43.3144 5.31304L43.5 5.40667L43.6827 5.52169C50.1068 9.56732 53.3189 11.5901 55.2422 14.6719C55.4025 14.9288 55.5554 15.1902 55.7007 15.4558C57.4439 18.6426 57.6293 22.4284 58 30C57.6293 37.5716 57.4439 41.3574 55.7007 44.5442C55.5554 44.8098 55.4025 45.0712 55.2422 45.3281C53.3189 48.4099 50.1068 50.4327 43.6827 54.4783L43.5 54.5933L43.3144 54.687C36.2928 58.229 32.782 60 29 60C25.218 60 21.7072 58.229 14.6856 54.687L14.5 54.5933L14.3174 54.4783C7.89318 50.4327 4.6811 48.4099 2.7578 45.3281C2.59748 45.0712 2.44458 44.8098 2.29929 44.5442C0.556123 41.3574 0.370749 37.5716 0 30C0.370749 22.4284 0.556123 18.6426 2.29929 15.4558C2.44458 15.1902 2.59748 14.9288 2.7578 14.6719C4.6811 11.5901 7.89318 9.56732 14.3174 5.52169L14.5 5.40667L14.6856 5.31304Z" transform="translate(3 2)" fill="url(#g1)" fill-rule="nonzero" opacity="1" /><path d="M11.0805 3.98679C16.3785 1.32893 19.0275 -1.29866e-15 21.881 0C24.7346 1.88306e-14 27.3836 1.32893 32.6815 3.98679L32.8215 4.05704L32.9593 4.14335C37.8065 7.1791 40.2301 8.69698 41.6812 11.0095C41.8022 11.2023 41.9176 11.3984 42.0272 11.5977C43.3424 13.989 43.4823 16.8298 43.762 22.5113C43.4823 28.1929 43.3424 31.0337 42.0272 33.425C41.9176 33.6243 41.8022 33.8204 41.6812 34.0132C40.2301 36.3257 37.8065 37.8436 32.9593 40.8793L32.8215 40.9656L32.6815 41.0359C27.3835 43.6937 24.7346 45.0227 21.881 45.0227C19.0275 45.0227 16.3785 43.6937 11.0805 41.0359L10.9405 40.9656L10.8027 40.8793C5.95555 37.8436 3.53197 36.3257 2.08081 34.0132C1.95985 33.8204 1.84448 33.6243 1.73485 33.425C0.419605 31.0337 0.279737 28.1929 0 22.5113C0.279737 16.8298 0.419605 13.989 1.73485 11.5977C1.84448 11.3984 1.95985 11.2023 2.08081 11.0095C3.53197 8.69698 5.95555 7.1791 10.8027 4.14335L10.9405 4.05704L11.0805 3.98679Z" transform="translate(10.1179 9.4893)" fill="url(#g2)" fill-rule="nonzero" opacity="1" /><path d="M11.0805 3.98679C16.3785 1.32893 19.0275 -1.29866e-15 21.881 0C24.7346 1.88306e-14 27.3836 1.32893 32.6815 3.98679L32.8215 4.05704L32.9593 4.14335C37.8065 7.1791 40.2301 8.69698 41.6812 11.0095C41.8022 11.2023 41.9176 11.3984 42.0272 11.5977C43.3424 13.989 43.4823 16.8298 43.762 22.5113C43.4823 28.1929 43.3424 31.0337 42.0272 33.425C41.9176 33.6243 41.8022 33.8204 41.6812 34.0132C40.2301 36.3257 37.8065 37.8436 32.9593 40.8793L32.8215 40.9656L32.6815 41.0359C27.3835 43.6937 24.7346 45.0227 21.881 45.0227C19.0275 45.0227 16.3785 43.6937 11.0805 41.0359L10.9405 40.9656L10.8027 40.8793C5.95555 37.8436 3.53197 36.3257 2.08081 34.0132C1.95985 33.8204 1.84448 33.6243 1.73485 33.425C0.419605 31.0337 0.279737 28.1929 0 22.5113C0.279737 16.8298 0.419605 13.989 1.73485 11.5977C1.84448 11.3984 1.95985 11.2023 2.08081 11.0095C3.53197 8.69698 5.95555 7.1791 10.8027 4.14335L10.9405 4.05704L11.0805 3.98679Z" transform="translate(10.1179 9.4893)" fill="url(#g3)" fill-rule="nonzero" opacity="1" /><path d="M6.35589 12.1894L9.7515 0L7.31362 0L5.39815 7.78378C5.29367 8.21912 5.11954 9.02013 5.01506 9.66443L4.77127 9.66443C4.66679 9.02013 4.49265 8.21912 4.38817 7.78378L2.43787 0L0 0L3.39561 12.1894L6.35589 12.1894Z" transform="translate(16.9878 25.9056)" fill="#ffffff" fill-rule="nonzero" opacity="1" /><path d="M11.0507 0L11.0507 12.1894L13.4015 12.1894L13.4015 7.85344L15.9439 7.85344C18.4688 7.85344 20.1057 6.28623 20.1057 3.91801C20.1057 1.54979 18.4688 0 15.9439 0L11.0507 0ZM13.4015 5.76383L13.4015 2.08961L15.8394 2.08961C16.9887 2.08961 17.7549 2.83838 17.7549 3.91801C17.7549 4.99764 16.9887 5.76383 15.8394 5.76383L13.4015 5.76383Z" transform="translate(16.9878 25.9056)" fill="#ffffff" fill-rule="nonzero" opacity="1" /><path d="M23.7557 12.1894L23.7557 5.78124L23.5641 2.87321L23.8079 2.87321C23.982 3.58716 24.1562 4.24887 24.2955 4.61455L27.1165 12.1894L30.0245 12.1894L30.0245 0L27.7607 0L27.7607 6.35589L27.9523 9.31616L27.7085 9.31616C27.5344 8.60221 27.3602 7.97533 27.2209 7.57482L24.4 0L21.4919 0L21.4919 12.1894L23.7557 12.1894Z" transform="translate(16.9878 25.9056)" fill="#ffffff" fill-rule="nonzero" opacity="1" /></svg>
