<?xml version="1.0" encoding="UTF-8"?>
<svg xmlns="http://www.w3.org/2000/svg" width="64" height="64" viewBox="0 0 64 64" fill="none"><defs><linearGradient id="g1" gradientUnits="objectBoundingBox" x1="0.5" y1="0" x2="0.5" y2="1"><stop offset="0%" stop-color="#159dff" stop-opacity="1" /><stop offset="84.375%" stop-color="#a8dfff" stop-opacity="1" /></linearGradient><radialGradient id="g2" gradientUnits="objectBoundingBox" cx="0.9664" cy="0.7079" r="0.7571" fx="0.9664" fy="0.7079"><stop offset="0%" stop-color="#dff4ff" stop-opacity="0.7" /><stop offset="100%" stop-color="#96d4ff" stop-opacity="0" /></radialGradient><linearGradient id="g3" gradientUnits="objectBoundingBox" x1="0.5" y1="0" x2="0.5" y2="1"><stop offset="0%" stop-color="#77777e" stop-opacity="1" /><stop offset="84.375%" stop-color="#1b3f61" stop-opacity="1" /></linearGradient><radialGradient id="g4" gradientUnits="objectBoundingBox" cx="0.9664" cy="0.7079" r="0.7571" fx="0.9664" fy="0.7079"><stop offset="0%" stop-color="#eebcff" stop-opacity="0.7" /><stop offset="100%" stop-color="#ababff" stop-opacity="0" /></radialGradient><linearGradient id="g5" gradientUnits="objectBoundingBox" x1="0.3835" y1="0.2569" x2="0.5432" y2="1"><stop offset="7.2917%" stop-color="#ffffff" stop-opacity="0.8" /><stop offset="100%" stop-color="#ffffff" stop-opacity="0.48" /></linearGradient><radialGradient id="g6" gradientUnits="objectBoundingBox" cx="0.3427" cy="0.3877" r="0.8164" fx="0.3427" fy="0.3877"><stop offset="0%" stop-color="#ffffff" stop-opacity="0.6" /><stop offset="100%" stop-color="#ffffff" stop-opacity="0" /></radialGradient><linearGradient id="g8" gradientUnits="objectBoundingBox" x1="0.5" y1="1" x2="0.5" y2="0"><stop offset="0%" stop-color="#ff6124" stop-opacity="0.8" /><stop offset="100%" stop-color="#ffe605" stop-opacity="0.8" /></linearGradient><linearGradient id="g9" gradientUnits="objectBoundingBox" x1="0.4167" y1="0.0455" x2="0.5432" y2="1"><stop offset="7.2917%" stop-color="#ffffff" stop-opacity="0.9" /><stop offset="100%" stop-color="#ffffff" stop-opacity="0.135" /></linearGradient><radialGradient id="g10" gradientUnits="objectBoundingBox" cx="0.3427" cy="0.3877" r="0.8164" fx="0.3427" fy="0.3877"><stop offset="0%" stop-color="#ffffff" stop-opacity="0.7" /><stop offset="100%" stop-color="#ffffff" stop-opacity="0" /></radialGradient></defs><path d="M14.6856 5.3127C21.7072 1.7709 25.218 -1.73056e-15 29 0C32.782 2.50932e-14 36.2928 1.7709 43.3144 5.3127L43.5 5.40631L43.6827 5.52133C50.1068 9.56669 53.3189 11.5894 55.2422 14.671C55.4025 14.9278 55.5554 15.1892 55.7007 15.4548C57.4439 18.6414 57.6293 22.4269 58 29.998C57.6293 37.5692 57.4439 41.3547 55.7007 44.5412C55.5554 44.8069 55.4025 45.0682 55.2422 45.3251C53.3189 48.4067 50.1068 50.4294 43.6827 54.4748L43.5 54.5898L43.3144 54.6834C36.2928 58.2252 32.782 59.9961 29 59.9961C25.218 59.9961 21.7072 58.2252 14.6856 54.6834L14.5 54.5898L14.3174 54.4748C7.89318 50.4294 4.6811 48.4067 2.7578 45.3251C2.59748 45.0682 2.44458 44.8069 2.29929 44.5412C0.556123 41.3547 0.370749 37.5692 0 29.998C0.370749 22.4269 0.556123 18.6414 2.29929 15.4548C2.44458 15.1892 2.59748 14.9278 2.7578 14.671C4.6811 11.5894 7.89318 9.56669 14.3174 5.52133L14.5 5.40631L14.6856 5.3127Z" transform="translate(3 2)" fill="url(#g1)" fill-rule="nonzero" opacity="1" /><path d="M14.6856 5.3127C21.7072 1.7709 25.218 -1.73056e-15 29 0C32.782 2.50932e-14 36.2928 1.7709 43.3144 5.3127L43.5 5.40631L43.6827 5.52133C50.1068 9.56669 53.3189 11.5894 55.2422 14.671C55.4025 14.9278 55.5554 15.1892 55.7007 15.4548C57.4439 18.6414 57.6293 22.4269 58 29.998C57.6293 37.5692 57.4439 41.3547 55.7007 44.5412C55.5554 44.8069 55.4025 45.0682 55.2422 45.3251C53.3189 48.4067 50.1068 50.4294 43.6827 54.4748L43.5 54.5898L43.3144 54.6834C36.2928 58.2252 32.782 59.9961 29 59.9961C25.218 59.9961 21.7072 58.2252 14.6856 54.6834L14.5 54.5898L14.3174 54.4748C7.89318 50.4294 4.6811 48.4067 2.7578 45.3251C2.59748 45.0682 2.44458 44.8069 2.29929 44.5412C0.556123 41.3547 0.370749 37.5692 0 29.998C0.370749 22.4269 0.556123 18.6414 2.29929 15.4548C2.44458 15.1892 2.59748 14.9278 2.7578 14.671C4.6811 11.5894 7.89318 9.56669 14.3174 5.52133L14.5 5.40631L14.6856 5.3127Z" transform="translate(3 2)" fill="url(#g2)" fill-rule="nonzero" opacity="1" /><path d="M14.6856 5.3127C21.7072 1.7709 25.218 -1.73056e-15 29 0C32.782 2.50932e-14 36.2928 1.7709 43.3144 5.3127L43.5 5.40631L43.6827 5.52133C50.1068 9.56669 53.3189 11.5894 55.2422 14.671C55.4025 14.9278 55.5554 15.1892 55.7007 15.4548C57.4439 18.6414 57.6292 22.4269 58 29.998C57.6292 37.5692 57.4439 41.3547 55.7007 44.5412C55.5554 44.8069 55.4025 45.0682 55.2422 45.3251C53.3189 48.4067 50.1068 50.4294 43.6827 54.4748L43.5 54.5898L43.3144 54.6834C36.2928 58.2252 32.782 59.9961 29 59.9961C25.218 59.9961 21.7072 58.2252 14.6856 54.6834L14.5 54.5898L14.3174 54.4748C7.89318 50.4294 4.6811 48.4067 2.7578 45.3251C2.59748 45.0682 2.44459 44.8069 2.29929 44.5412C0.556123 41.3547 0.370749 37.5692 0 29.998C0.370749 22.4269 0.556123 18.6414 2.29929 15.4548C2.44458 15.1892 2.59748 14.9278 2.7578 14.671C4.6811 11.5894 7.89318 9.56669 14.3174 5.52133L14.5 5.40631L14.6856 5.3127Z" transform="translate(3 2)" fill="url(#g3)" fill-rule="nonzero" opacity="1" /><path d="M14.6856 5.3127C21.7072 1.7709 25.218 -1.73056e-15 29 0C32.782 2.50932e-14 36.2928 1.7709 43.3144 5.3127L43.5 5.40631L43.6827 5.52133C50.1068 9.56669 53.3189 11.5894 55.2422 14.671C55.4025 14.9278 55.5554 15.1892 55.7007 15.4548C57.4439 18.6414 57.6292 22.4269 58 29.998C57.6292 37.5692 57.4439 41.3547 55.7007 44.5412C55.5554 44.8069 55.4025 45.0682 55.2422 45.3251C53.3189 48.4067 50.1068 50.4294 43.6827 54.4748L43.5 54.5898L43.3144 54.6834C36.2928 58.2252 32.782 59.9961 29 59.9961C25.218 59.9961 21.7072 58.2252 14.6856 54.6834L14.5 54.5898L14.3174 54.4748C7.89318 50.4294 4.6811 48.4067 2.7578 45.3251C2.59748 45.0682 2.44459 44.8069 2.29929 44.5412C0.556123 41.3547 0.370749 37.5692 0 29.998C0.370749 22.4269 0.556123 18.6414 2.29929 15.4548C2.44458 15.1892 2.59748 14.9278 2.7578 14.671C4.6811 11.5894 7.89318 9.56669 14.3174 5.52133L14.5 5.40631L14.6856 5.3127Z" transform="translate(3 2)" fill="url(#g4)" fill-rule="nonzero" opacity="1" /><path d="M5.77778 16C2.5868 16 0 13.3951 0 10.1818C0 6.96852 2.5868 4.36364 5.77778 4.36364C6.37961 4.36364 6.95996 4.4563 7.50551 4.62823C8.31942 1.94873 10.7948 0 13.7222 0C17.3121 0 20.2222 2.9305 20.2222 6.54545C20.2222 6.88665 20.1963 7.22174 20.1463 7.54885C20.6194 7.37034 21.1317 7.27273 21.6667 7.27273C24.0599 7.27273 26 9.22639 26 11.6364C26 14.0463 24.0599 16 21.6667 16L5.77778 16Z" transform="translate(37 16.998)" fill="url(#g5)" fill-rule="evenodd" opacity="0.7" /><path d="M5.77778 16C2.5868 16 0 13.3951 0 10.1818C0 6.96852 2.5868 4.36364 5.77778 4.36364C6.37961 4.36364 6.95996 4.4563 7.50551 4.62823C8.31942 1.94873 10.7948 0 13.7222 0C17.3121 0 20.2222 2.9305 20.2222 6.54545C20.2222 6.88665 20.1963 7.22174 20.1463 7.54885C20.6194 7.37034 21.1317 7.27273 21.6667 7.27273C24.0599 7.27273 26 9.22639 26 11.6364C26 14.0463 24.0599 16 21.6667 16L5.77778 16Z" transform="translate(37 16.998)" fill="url(#g6)" fill-rule="evenodd" opacity="0.7" /><path d="M26 13C26 20.1797 20.1797 26 13 26C5.8203 26 0 20.1797 0 13C0 5.8203 5.8203 0 13 0C20.1797 0 26 5.8203 26 13Z" transform="translate(19 19)" fill="#ffa51f" fill-rule="nonzero" opacity="1" /><path d="M26 13C26 20.1797 20.1797 26 13 26C5.8203 26 0 20.1797 0 13C0 5.8203 5.8203 0 13 0C20.1797 0 26 5.8203 26 13Z" transform="translate(19 19)" fill="url(#g8)" fill-rule="nonzero" opacity="1" /><path d="M8 22C3.58172 22 0 18.4183 0 14C0 9.58172 3.58172 6 8 6C8.83331 6 9.63687 6.12741 10.3922 6.36381C11.5192 2.6795 14.9467 0 19 0C23.9706 0 28 4.02944 28 9C28 9.46914 27.9641 9.92989 27.8949 10.3797C28.5499 10.1342 29.2593 10 30 10C33.3137 10 36 12.6863 36 16C36 19.3137 33.3137 22 30 22L8 22Z" transform="translate(3 29.998)" fill="url(#g9)" fill-rule="evenodd" opacity="1" /><path d="M8 22C3.58172 22 0 18.4183 0 14C0 9.58172 3.58172 6 8 6C8.83331 6 9.63687 6.12741 10.3922 6.36381C11.5192 2.6795 14.9467 0 19 0C23.9706 0 28 4.02944 28 9C28 9.46914 27.9641 9.92989 27.8949 10.3797C28.5499 10.1342 29.2593 10 30 10C33.3137 10 36 12.6863 36 16C36 19.3137 33.3137 22 30 22L8 22Z" transform="translate(3 29.998)" fill="url(#g10)" fill-rule="evenodd" opacity="1" /></svg>
