<?xml version="1.0" encoding="UTF-8"?>
<svg xmlns="http://www.w3.org/2000/svg" width="64" height="64" viewBox="0 0 64 64" fill="none"><defs><linearGradient id="g1" gradientUnits="objectBoundingBox" x1="0.5" y1="0" x2="0.5" y2="1"><stop offset="0%" stop-color="#00ff85" stop-opacity="1" /><stop offset="84.375%" stop-color="#00af85" stop-opacity="1" /></linearGradient><linearGradient id="g2" gradientUnits="objectBoundingBox" x1="-0.0264" y1="0.198" x2="2.1624" y2="0.591"><stop offset="5.7692%" stop-color="#ffffff" stop-opacity="0" /><stop offset="78.2025%" stop-color="#ffffff" stop-opacity="1" /></linearGradient><linearGradient id="g3" gradientUnits="objectBoundingBox" x1="-0.2666" y1="0.289" x2="1" y2="0.2456"><stop offset="0%" stop-color="#ffffff" stop-opacity="0" /><stop offset="19.994%" stop-color="#ffffff" stop-opacity="0.1054" /><stop offset="52.783%" stop-color="#ffffff" stop-opacity="0.2479" /><stop offset="100%" stop-color="#ffffff" stop-opacity="1" /></linearGradient><linearGradient id="g4" gradientUnits="objectBoundingBox" x1="0" y1="0.3831" x2="2.6225" y2="0.3423"><stop offset="2.1637%" stop-color="#ffffff" stop-opacity="0" /><stop offset="100%" stop-color="#ffffff" stop-opacity="1" /></linearGradient><linearGradient id="g5" gradientUnits="objectBoundingBox" x1="0" y1="0.3831" x2="2.6005" y2="0.3236"><stop offset="2.1637%" stop-color="#ffffff" stop-opacity="0" /><stop offset="100%" stop-color="#ffffff" stop-opacity="1" /></linearGradient><linearGradient id="g6" gradientUnits="objectBoundingBox" x1="-1.0104" y1="1.1648" x2="1.5494" y2="0.2733"><stop offset="37.5682%" stop-color="#ffffff" stop-opacity="0" /><stop offset="100%" stop-color="#ffffff" stop-opacity="1" /></linearGradient><linearGradient id="g7" gradientUnits="objectBoundingBox" x1="-1.1607" y1="0.921" x2="1.5491" y2="0.589"><stop offset="47.0093%" stop-color="#ffffff" stop-opacity="0.06" /><stop offset="92.3477%" stop-color="#ffffff" stop-opacity="1" /></linearGradient></defs><path d="M14.6856 5.31304C21.7072 1.77101 25.218 -1.73068e-15 29 0C32.782 2.50948e-14 36.2928 1.77101 43.3144 5.31304L43.5 5.40667L43.6827 5.52169C50.1068 9.56732 53.3189 11.5901 55.2422 14.6719C55.4025 14.9288 55.5554 15.1902 55.7007 15.4558C57.4439 18.6426 57.6293 22.4284 58 30C57.6293 37.5716 57.4439 41.3574 55.7007 44.5442C55.5554 44.8098 55.4025 45.0712 55.2422 45.3281C53.3189 48.4099 50.1068 50.4327 43.6827 54.4783L43.5 54.5933L43.3144 54.687C36.2928 58.229 32.782 60 29 60C25.218 60 21.7072 58.229 14.6856 54.687L14.5 54.5933L14.3174 54.4783C7.89318 50.4327 4.6811 48.4099 2.7578 45.3281C2.59748 45.0712 2.44458 44.8098 2.29929 44.5442C0.556123 41.3574 0.370749 37.5716 0 30C0.370749 22.4284 0.556123 18.6426 2.29929 15.4558C2.44458 15.1902 2.59748 14.9288 2.7578 14.6719C4.6811 11.5901 7.89318 9.56732 14.3174 5.52169L14.5 5.40667L14.6856 5.31304Z" transform="translate(3 2)" fill="url(#g1)" fill-rule="nonzero" opacity="1" /><path d="M35.9705 28.5411C30.8116 37.8032 19.121 41.1295 9.85888 35.9705C0.596789 30.8116 -2.72947 19.121 2.42949 9.85888C7.58844 0.596789 19.279 -2.72947 28.5411 2.42949C37.8032 7.58844 41.1295 19.279 35.9705 28.5411Z" transform="translate(12.8 12.8)" fill="url(#g2)" fill-rule="nonzero" opacity="1" /><path d="M16.5542 19.1965C16.5542 29.7985 12.8484 38.393 8.27712 38.393C3.70579 38.393 0 29.7985 0 19.1965C0 8.59457 3.70579 0 8.27712 0C12.8484 0 16.5542 8.59457 16.5542 19.1965Z" transform="translate(23.7227 12.8026)" fill="url(#g3)" fill-rule="nonzero" opacity="1" /><path d="M16.5542 18.4226C16.5542 28.5971 12.8484 36.8452 8.27712 36.8452C3.70579 36.8452 0 28.5971 0 18.4226C0 8.24808 3.70579 0 8.27712 0C12.8484 0 16.5542 8.24808 16.5542 18.4226Z" transform="translate(13.5556 28.6086)" fill="url(#g4)" fill-rule="nonzero" opacity="1" /><path d="M16.5542 17.3868C16.5542 26.9892 12.8484 34.7736 8.27712 34.7736C3.70579 34.7736 0 26.9892 0 17.3868C0 7.78433 3.70579 0 8.27712 0C12.8484 0 16.5542 7.78433 16.5542 17.3868Z" transform="translate(14.5174 16.4509)" fill="url(#g5)" fill-rule="nonzero" opacity="1" /><path d="M16.5542 17.3868C16.5542 26.9892 12.8484 34.7736 8.27712 34.7736C3.70579 34.7736 0 26.9892 0 17.3868C0 7.78433 3.70579 0 8.27712 0C12.8484 0 16.5542 7.78433 16.5542 17.3868Z" transform="translate(14.5174 16.4509)" fill="url(#g6)" fill-rule="nonzero" opacity="1" /><path d="M16.5542 18.4226C16.5542 28.5971 12.8484 36.8452 8.27712 36.8452C3.70579 36.8452 0 28.5971 0 18.4226C0 8.24808 3.70579 0 8.27712 0C12.8484 0 16.5542 8.24808 16.5542 18.4226Z" transform="translate(13.5556 28.6086)" fill="url(#g7)" fill-rule="nonzero" opacity="1" /></svg>
